<svg xmlns="http://www.w3.org/2000/svg" viewBox="0 0 4947 4947" width="100%">
    <path
      d="M1469.7 4269.5c4.2-29 8.9-66.8 12-109.4h5c590.6 0 1410.4-45.7 1654.5-60.2a72 72 0 0 0 67.6-75.6L3055.7 1144a62.5 62.5 0 0 0-67.3-59 6232.7 6232.7 0 0 1-473.6 16.8c-507.8 0-1014.4-49.4-1309.7-84.5h1788.3a204.8 204.8 0 0 1 204.6 194.5l21.6 423.2L3344 4079.4a151 151 0 0 1-148.2 158.8l-81.8 1.4-1153.7 21-490.6 9ZM782.9 3722V1249.8c0-107.6 73-198 172.3-224.6a67.2 67.2 0 0 0-10.3 36.2l15.6 2660h-20c-56.2 0-110 .2-157.6.5Z"
      fill="url(#a)"
    />
    <path
      d="M944.9 1061.4a67.5 67.5 0 0 1 76.6-67.4c270.1 36.6 1199 150 1966.9 91a62.5 62.5 0 0 1 67.3 58.9l153 2880.4a72 72 0 0 1-67.5 75.6c-323 19.1-1653.1 93-2127.5 43.3a57 57 0 0 1-51-56.3l-17.8-3025.5"
      fill="#91B3FA"
    />
    <path
      d="M976.7 1133.6a65 65 0 0 1 73.8-64.9c259.9 35.3 1153.7 144.3 1892.8 87.6a60.1 60.1 0 0 1 64.7 56.7l147.3 2772c2 38-27 70.4-65 72.7-310.8 18.4-1590.9 89.5-2047.4 41.7a54.8 54.8 0 0 1-49-54.3l-17.2-2911.5"
      fill="#BDD0FB"
    />
    <path
      d="M1683.5 1983.8c-162.5 0-330.8-4.2-401.9-6.2a37.8 37.8 0 0 1-36.6-36l-27.7-594.3c-1-23 17.3-42 40.1-42h1.5l650.5 22.7a47.6 47.6 0 0 1 45.2 38.8c25.4 135.6 17.3 460 13.6 571.4-.7 22-18 39.6-40 40.8a5023 5023 0 0 1-244.7 4.8Z"
      fill="#F1F5FE"
    />
    <path
      d="M1719.4 1559.8a127.8 127.8 0 1 1-255.5 0 127.8 127.8 0 0 1 255.5 0Z"
      fill="url(#b)"
    />
    <path
      d="M1397.6 1934.8h407c25 0 40-27.5 26.5-48.5-34.6-54.1-107-133.6-232.2-130-120.7 3.4-192.3 75.2-228.3 126.7a33 33 0 0 0 27 51.8"
      fill="url(#c)"
    />
    <path
      d="M2862.2 1399h-730.3a9 9 0 0 1-7.9-5.6l-14.8-42.2c-1.1-3 .6-5.5 3.8-5.5h.1L2861 1359c3.2 0 6 2.8 6 6l.9 28.1a5.7 5.7 0 0 1-5.8 6m.1 110.7h-730.3a9 9 0 0 1-7.9-5.6l-14.8-42.2c-1.1-3 .6-5.5 3.8-5.5h.1l747.9 13.3c3.2 0 6 2.8 6 6l.9 28c0 3.4-2.5 6-5.8 6m.1 112.4h-730.3a9 9 0 0 1-7.9-5.6l-14.8-42.2c-1.1-3 .6-5.5 3.8-5.5h.1l747.9 13.3c3.2 0 6 2.8 6 6l.9 28c0 3.3-2.5 6-5.8 6m69.3 542H1265.6a14 14 0 0 1-9.6-4.6l-35.2-44.1c-2-2.6-1-4.6 2.2-4.6l1705.8 13.4c3.3 0 6 2.7 6.3 6l1.9 28a5.5 5.5 0 0 1-5.6 6Zm0 110.8H1265.6a14 14 0 0 1-9.6-4.6l-35.2-44.2c-2-2.5-1-4.5 2.2-4.5l1705.8 13.4c3.3 0 6 2.7 6.3 6l1.9 28a5.5 5.5 0 0 1-5.6 6Z"
      fill="#E5ECFD"
    />
    <path
      d="M1284.3 2806.2a20 20 0 0 0-14 6.8 15 15 0 0 0-3.6 11.2l12.4 118.4c1.3 12.7 13.4 22.4 28 22.5l141 1.4h.4c13.6 0 25-9.7 25.3-21.6 1.3-54 2-104.5-5-130.3-3.1-11.5-15.1-19.6-28.9-19.6-25.7.3-72 4.3-109 7.4-17.8 1.5-34.6 3-46.6 3.8Zm164.2 171.1h-.4l-141-1.4c-20.2-.1-36.9-14-38.8-32.2l-12.4-118.3c-.7-7 1.4-13.8 6-19.4a31 31 0 0 1 21.7-10.6c11.9-.8 28.6-2.3 46.3-3.8 37.3-3.2 83.7-7.1 109.9-7.4 19-.1 35 11 39.5 27.6 7.3 27.2 6.7 78.6 5.3 133.4-.5 17.8-16.6 32.1-36.1 32.1"
      fill="#fff"
    />
    <path
      d="M1431 2955.1h-.3l-112.7-1c-13.9-.2-25.4-9.6-26.7-22l-9.9-94.5c-1-9.8 7.1-18.4 18-19.2 29.7-2 94.1-8.6 124.7-9h.4c12.7 0 23.9 7.8 26.9 19 5.9 21.7 5.1 65.2 4 105.3-.2 11.9-11.1 21.4-24.5 21.4Zm175.2-30.3a35 35 0 0 1 0-70h.2l1305 6a26.5 26.5 0 0 1 .2 52.9l-1305.1 11.1h-.3"
      fill="#E5ECFD"
    />
    <path
      d="M1305.5 2837c10.5-6.2 24-2.5 29.9 8l27.8 50a7 7 0 0 0 12.4-.6l69-153.6c3.4-7.7 14.9-5 14.7 3.3-.7 47-13.1 136.3-88.2 211 0 0-41.4-16-74.7-89.2a22.7 22.7 0 0 1 9.1-29"
      fill="url(#d)"
    />
    <path
      d="M1284.3 3108.5c-5.6.4-10.7 2.8-14 6.8a15 15 0 0 0-3.6 11.2L1279 3245c1.3 12.7 13.4 22.4 28 22.5l141 1.4h.4c13.6 0 25-9.7 25.3-21.6 1.3-54 2-104.5-5-130.3-3.1-11.5-15.3-19.8-28.9-19.6-25.7.3-72 4.3-109 7.4-17.8 1.5-34.6 3-46.6 3.8Zm164.2 171.1h-.4l-141-1.3c-20.2-.2-36.9-14.1-38.8-32.3l-12.4-118.3c-.7-7 1.4-13.8 6-19.4a31 31 0 0 1 21.7-10.6c11.9-.8 28.6-2.3 46.3-3.8 37.3-3.2 83.7-7.1 109.9-7.4h.5a39.4 39.4 0 0 1 39 27.6c7.3 27.2 6.7 78.6 5.3 133.4-.5 17.8-16.6 32.1-36.1 32.1"
      fill="#fff"
    />
    <path
      d="M1431 3257.4h-.3l-112.7-1c-13.9-.2-25.4-9.6-26.7-22l-9.9-94.5c-1-9.8 7.1-18.5 18-19.2 29.7-2 94.1-8.6 124.7-9h.4c12.7 0 23.9 7.8 26.9 19 5.9 21.7 5.1 65.2 4 105.3-.2 12-11.1 21.4-24.5 21.4Zm175.2-30.3a35 35 0 0 1 0-70h.2l1305 6a26.5 26.5 0 0 1 .2 52.9l-1305.1 11h-.3"
      fill="#E5ECFD"
    />
    <path
      d="M1305.5 3139.3c10.5-6.2 24-2.5 29.9 8l27.8 50a7 7 0 0 0 12.4-.6l69-153.6c3.4-7.7 14.9-5 14.7 3.3-.7 47-13.1 136.3-88.2 211 0 0-41.4-16-74.7-89.2a22.7 22.7 0 0 1 9.1-29"
      fill="url(#e)"
    />
    <path
      d="M1284.3 3410.8a20 20 0 0 0-14 6.8 15 15 0 0 0-3.6 11.2l12.4 118.4c1.3 12.7 13.4 22.4 28 22.5l141 1.4h.4c13.6 0 25-9.7 25.3-21.6 1.3-54 2-104.5-5-130.3-3.1-11.5-15.3-19.8-28.9-19.6-25.7.3-72 4.3-109 7.4-17.8 1.5-34.6 3-46.6 3.8Zm164.2 171.1h-.4l-141-1.3c-20.2-.2-36.9-14-38.8-32.3L1256 3430c-.7-7 1.4-13.8 6.1-19.4a31 31 0 0 1 21.6-10.6c11.9-.8 28.6-2.3 46.3-3.8a1935 1935 0 0 1 109.9-7.4h.5a39.4 39.4 0 0 1 39 27.6c7.3 27.2 6.7 78.6 5.3 133.4-.5 17.8-16.6 32.1-36.1 32.1"
      fill="#fff"
    />
    <path
      d="M1431 3559.8h-.3l-112.7-1.1c-13.9-.2-25.4-9.6-26.7-22l-9.9-94.5c-1-9.8 7.1-18.4 18-19.2 29.7-2 94.1-8.6 124.7-9h.4c12.7 0 23.9 7.8 26.9 19 5.9 21.7 5.1 65.2 4 105.3-.2 12-11.1 21.4-24.4 21.4Zm175.2-30.4a35 35 0 0 1 0-70h.2l1305 6a26.5 26.5 0 0 1 .2 52.9l-1305.1 11.1h-.3"
      fill="#E5ECFD"
    />
    <path
      d="M1305.5 3441.6c10.5-6.2 24-2.5 29.9 8l27.8 50a7 7 0 0 0 12.4-.6l69-153.6c3.4-7.7 14.9-5 14.7 3.3-.7 47-13.1 136.3-88.2 211.1 0 0-41.4-16-74.7-89.3a22.7 22.7 0 0 1 9.1-29"
      fill="url(#f)"
    />
    <path
      d="M1284.3 3713c-5.6.5-10.7 3-14 6.9a15 15 0 0 0-3.6 11.3l12.4 118.3c1.3 12.7 13.4 22.4 28 22.5l141 1.4h.4c13.6 0 25-9.6 25.3-21.6 1.3-54 2-104.5-5-130.3-3.1-11.5-15.3-19.9-28.9-19.6-25.7.3-72 4.3-109 7.4a3129 3129 0 0 1-46.6 3.8Zm164.2 171.2h-.4l-141-1.3c-20.2-.2-36.9-14-38.8-32.3l-12.4-118.3c-.7-7 1.4-13.9 6.1-19.4a31 31 0 0 1 21.6-10.6c11.9-.8 28.6-2.3 46.3-3.8 37.3-3.1 83.7-7.1 109.9-7.4h.5a39.4 39.4 0 0 1 39 27.6c7.3 27.2 6.7 78.6 5.3 133.4-.5 17.8-16.6 32.1-36.1 32.1"
      fill="#fff"
    />
    <path
      d="M1451.8 3736.8c-2.3-.8-4.8-1.5-7.4-1.8-34.1-4-86.4-7-148.7-9.1 1.2-.3 2.5-.5 3.8-.6 29.6-2 94-8.6 124.6-9h.4c12.7 0 23.9 7.8 26.9 19l.4 1.5Zm154.4 94.9a35 35 0 1 1 0-70h.2l1305 6a26.5 26.5 0 0 1 .2 52.9l-1305.1 11.1h-.3"
      fill="#E5ECFD"
    />
    <path
      d="M1264.8 2510.4a20 20 0 0 0-14 6.8 15 15 0 0 0-3.6 11.2l12.3 118.4c1.4 12.7 13.4 22.4 28 22.5l141.1 1.3h.3c13.7 0 25-9.6 25.3-21.5 1.4-54 2-104.5-5-130.3-3-11.6-15.2-20-28.8-19.6-25.8.3-72 4.2-109.1 7.4-17.8 1.5-34.6 3-46.5 3.8Zm164.1 171h-.4l-141-1.3c-20.2-.2-36.8-14-38.7-32.2l-12.4-118.3c-.8-7 1.4-13.9 6-19.4a31 31 0 0 1 21.6-10.6 3295 3295 0 0 0 46.4-3.8c37.3-3.2 83.7-7.1 109.8-7.5h.6a39.3 39.3 0 0 1 39 27.7c7.3 27.1 6.6 78.6 5.2 133.3-.4 17.8-16.6 32.2-36 32.2"
      fill="#fff"
    />
    <path
      d="M1411.4 2659.3h-.3l-112.7-1c-13.8-.2-25.4-9.7-26.6-22l-10-94.5c-1-9.8 7.2-18.5 18.2-19.2 29.6-2 94-8.6 124.5-9h.4c12.8 0 24 7.8 27 19 5.8 21.7 5 65.2 4 105.3-.3 11.9-11.2 21.4-24.5 21.4m175.3-30.3a35 35 0 0 1 0-70h.1l1305 6a26.5 26.5 0 0 1 .2 52.9l-1305 11-.3.1"
      fill="#E5ECFD"
    />
    <path
      d="M1286 2541.1a21.7 21.7 0 0 1 29.8 8.2l27.8 49.8a7 7 0 0 0 12.4-.5l69-153.6c3.5-7.7 15-5.1 14.8 3.3a303 303 0 0 1-88.3 211s-41.3-16-74.7-89.2a22.7 22.7 0 0 1 9.2-29"
      fill="url(#g)"
    />
    <path
      d="M2028.4 792.3a56 56 0 1 1 0-111.9 56 56 0 0 1 0 112Zm98.7-166c-71.5-49.7-133.6-48.8-177.3-35.8a87.2 87.2 0 0 0-62 91.7l18.9 205.8 224.4 20s136.1-184.3-4-281.7"
      fill="url(#h)"
    />
    <path
      d="M1923.2 737.2a5.4 5.4 0 0 1-5.4-5l-2.3-24.8a83.3 83.3 0 0 1 59-87.4c26.9-8 54.5-9 82.1-3.4a5.4 5.4 0 1 1-2.2 10.6 157.4 157.4 0 0 0-76.8 3.2 72.4 72.4 0 0 0-51.3 76l2.3 24.9c.3 3-2 5.6-4.9 5.8h-.5Zm6 64.2a5.4 5.4 0 0 1-5.5-5l-3-32.7a5.4 5.4 0 1 1 10.8-1l3 32.8c.3 3-2 5.6-4.9 5.9h-.5"
      fill="#91B3FA"
    />
    <path
      d="M1600.4 1021V917.5a63.2 63.2 0 0 1 65.3-63l713.6 24.4c31.6 1 57.3 26 59.2 57.7l6 99.4-844.1-15"
      fill="url(#i)"
    />
    <path
      d="M1866.5 893.4h-30.7a5.4 5.4 0 0 1 0-10.8h30.7a5.4 5.4 0 1 1 0 10.8ZM1639 988.5c-3 0-5.4-2.4-5.4-5.4v-41.8a58.7 58.7 0 0 1 58.7-58.7H1805a5.4 5.4 0 1 1 0 10.8h-112.8a47.9 47.9 0 0 0-47.9 47.9V983c0 3-2.4 5.4-5.4 5.4"
      fill="#91B3FA"
    />
    <path
      d="M1309.7 1047.2a67.2 67.2 0 0 1 67.1-64h1247.8a92.2 92.2 0 0 1 90.9 76.4l1 6.1a79.2 79.2 0 0 1-78 92.7H1358.3a51.5 51.5 0 0 1-51.4-54l2.8-57.2"
      fill="#7D97F4"
    />
    <path
      d="M2028.7 1932.8a81.3 81.3 0 0 1 62.9-21.6c247 22.2 707.7-96.8 1008.9-404.9 20.9-21.4 59-9.3 83 8.6 334.9 250.3 890 302.2 1082.8 312.8a81.3 81.3 0 0 1 76.3 72.8C4518 3593.3 3415.7 4206.7 3187.1 4315a81.5 81.5 0 0 1-77.8-4.5C1970 3601 2018.7 2678 2002.9 1994.2a81.4 81.4 0 0 1 25.8-61.4"
      fill="url(#j)"
    />
    <path
      d="M2152.8 2047a15 15 0 0 0-11 4.6 14.6 14.6 0 0 0-4.2 10.5l.8 43.6c5.8 326 12.2 695.4 144.5 1057.4 147.9 404.9 431 736.7 865.4 1014.4 4.4 2.9 10 3.1 14.7.8 113-58.2 402.4-228.7 646.5-556 327-438.6 463.6-994.3 406-1651.8a14.8 14.8 0 0 0-13.7-13.4c-250.2-18.5-719.3-82-1048.8-300.7-5.6-3.7-13-3.2-18 1.3-300.2 269-709.7 389.4-982.2 389.4Zm1003.5 2146.2c-5.3 0-10.6-1.5-15.2-4.5-437-279.3-721.8-613.3-870.7-1021-133-364.1-139.6-734.8-145.3-1061.8l-.8-43.6a28 28 0 0 1 28.2-28.6c270.3 0 676-119.3 973.6-385.9a28.1 28.1 0 0 1 34.3-2.5c327 217 793.4 280.2 1042.4 298.5a28 28 0 0 1 26 25.6c57.8 660.8-79.6 1219.6-408.6 1660.8-245.8 329.6-537.2 501.4-651 559.9-4 2-8.5 3-12.9 3"
      fill="#91B3FA"
    />
    <path
      d="M1401.6 4330h-.4l-697-4a94.7 94.7 0 0 1-94.2-91.5l-7.2-225c2.7 1.6 5.7 2.7 8.9 3.3l351 69.8 4 33.7a28.7 28.7 0 0 0 28.5 25.2h111a28.7 28.7 0 0 0 28.6-26l2.7-30.9 337-63.7c3.7-.7 7-2 10-4a1170.5 1170.5 0 0 1-2.8 143.2 1551.8 1551.8 0 0 1-12.4 111.8 68.3 68.3 0 0 1-67.7 58.1"
      fill="url(#k)"
    />
    <path
      d="M641.1 3944.3h-5a.9.9 0 0 1-.9-.9c0-.4.4-.8.9-.8h5c.5 0 .9.4.9.8 0 .5-.4 1-.9 1Zm17 0H653a.9.9 0 0 1-.9-.9c0-.4.4-.8.9-.8h5c.5 0 .9.4.9.8 0 .5-.4 1-.8 1Zm16.9 0h-5.1a.9.9 0 0 1-.8-.9c0-.4.3-.8.8-.8h5c.5 0 1 .4 1 .8 0 .5-.5 1-1 1Zm16.9 0h-5a.9.9 0 0 1-1-.9c0-.4.5-.8 1-.8h5c.5 0 .8.4.8.8 0 .5-.3 1-.8 1Zm17 0h-5.2a.9.9 0 0 1-.8-.9c0-.4.4-.8.8-.8h5.1c.5 0 .9.4.9.8 0 .5-.4 1-.9 1Zm16.8 0h-5a.9.9 0 0 1-.9-.9c0-.4.4-.8.9-.8h5c.5 0 .9.4.9.8 0 .5-.4 1-.9 1Zm17 0h-5.1a.9.9 0 0 1-.9-.9c0-.4.4-.8.9-.8h5c.5 0 1 .4 1 .8 0 .5-.5 1-1 1Zm16.9 0h-5a.9.9 0 0 1-1-.9c0-.4.4-.8 1-.8h5c.5 0 .8.4.8.8 0 .5-.3 1-.8 1Zm17 0h-5.2a.9.9 0 0 1-.8-.9c0-.4.4-.8.8-.8h5.1c.5 0 .9.4.9.8 0 .5-.4 1-.9 1Zm16.8 0h-5a.9.9 0 0 1-.9-.9c0-.4.4-.8.9-.8h5c.5 0 .9.4.9.8 0 .5-.4 1-.9 1Zm17 0h-5.1a.9.9 0 0 1-.9-.9c0-.4.4-.8.9-.8h5c.5 0 .9.4.9.8 0 .5-.4 1-.8 1Zm16.9 0h-5.1a.9.9 0 0 1-.8-.9c0-.4.3-.8.8-.8h5c.5 0 1 .4 1 .8 0 .5-.5 1-1 1Zm16.9 0h-5a.9.9 0 0 1-1-.9c0-.4.5-.8 1-.8h5c.5 0 .8.4.8.8 0 .5-.3 1-.8 1Zm17 0H856a.9.9 0 0 1-.8-.9c0-.4.4-.8.8-.8h5.1c.5 0 .9.4.9.8 0 .5-.4 1-.9 1Zm16.8 0h-5a.9.9 0 0 1-.9-.9c0-.4.4-.8.9-.8h5c.5 0 .9.4.9.8 0 .5-.4 1-.9 1Zm17 0h-5.1a.9.9 0 0 1-.9-.9c0-.4.4-.8.9-.8h5c.5 0 1 .4 1 .8 0 .5-.5 1-1 1Zm16.9 0h-5a.9.9 0 0 1-1-.9c0-.4.4-.8 1-.8h5c.5 0 .8.4.8.8 0 .5-.3 1-.8 1Zm16.9 0h-5a.9.9 0 0 1-1-.9c0-.4.5-.8 1-.8h5c.5 0 .9.4.9.8 0 .5-.4 1-.9 1Zm17 0h-5.1a.9.9 0 0 1-.9-.9c0-.4.4-.8.9-.8h5c.5 0 .9.4.9.8 0 .5-.4 1-.9 1Zm16.8 0h-5a.9.9 0 0 1-.9-.9c0-.4.4-.8.9-.8h5c.5 0 .9.4.9.8 0 .5-.4 1-.9 1Zm17 0h-5.1a.9.9 0 0 1-.9-.9c0-.4.4-.8.9-.8h5c.5 0 1 .4 1 .8 0 .5-.5 1-1 1Zm16.9 0h-5a.9.9 0 0 1-1-.9c0-.4.4-.8 1-.8h5c.5 0 .8.4.8.8 0 .5-.3 1-.8 1Zm17 0h-5.2a.9.9 0 0 1-.8-.9c0-.4.4-.8.8-.8h5.1c.5 0 .9.4.9.8 0 .5-.4 1-.9 1Zm16.8 0h-5a.9.9 0 0 1-.9-.9c0-.4.4-.8.9-.8h5c.5 0 .9.4.9.8 0 .5-.4 1-.9 1Zm17 0h-5.1a.9.9 0 0 1-.9-.9c0-.4.4-.8.9-.8h5c.5 0 .9.4.9.8 0 .5-.4 1-.8 1Zm16.9 0h-5.1a.9.9 0 0 1-.8-.9c0-.4.3-.8.8-.8h5c.6 0 1 .4 1 .8 0 .5-.4 1-1 1Zm16.9 0h-5a.9.9 0 0 1-1-.9c0-.4.5-.8 1-.8h5c.5 0 .9.4.9.8 0 .5-.4 1-.9 1Zm17 0h-5.1a.9.9 0 0 1-.9-.9c0-.4.4-.8.9-.8h5c.5 0 .9.4.9.8 0 .5-.4 1-.9 1Zm16.8 0h-5a.9.9 0 0 1-.9-.9c0-.4.4-.8.9-.8h5c.5 0 .9.4.9.8 0 .5-.4 1-.9 1Zm17 0h-5.1a.9.9 0 0 1-.9-.9c0-.4.4-.8.9-.8h5c.5 0 1 .4 1 .8 0 .5-.5 1-1 1Zm16.9 0h-5a.8.8 0 0 1-1-.9c0-.4.4-.8 1-.8h5c.5 0 .8.4.8.8 0 .5-.3 1-.8 1Zm17 0h-5.2a.9.9 0 0 1-.8-.9c0-.4.4-.8.8-.8h5.1c.5 0 .9.4.9.8 0 .5-.4 1-.9 1Zm16.8 0h-5a.9.9 0 0 1-.9-.9c0-.4.4-.8.9-.8h5c.5 0 .9.4.9.8 0 .5-.4 1-.9 1Zm17 0h-5.1a.9.9 0 0 1-.9-.9c0-.4.4-.8.9-.8h5c.5 0 .9.4.9.8 0 .5-.4 1-.9 1Zm16.9 0h-5.1a.9.9 0 0 1-.9-.9c0-.4.4-.8.9-.8h5c.5 0 1 .4 1 .8 0 .5-.5 1-1 1Zm16.9 0h-5a.9.9 0 0 1-1-.9c0-.4.4-.8 1-.8h5c.5 0 .8.4.8.8 0 .5-.3 1-.8 1Zm17 0h-5.2a.8.8 0 0 1-.8-.9c0-.4.4-.8.8-.8h5.1c.5 0 .9.4.9.8 0 .5-.4 1-.9 1Zm16.8 0h-5a.9.9 0 0 1-.9-.9c0-.4.4-.8.9-.8h5c.5 0 .9.4.9.8 0 .5-.4 1-.9 1Zm17 0h-5.1a.9.9 0 0 1-.9-.9c0-.4.4-.8.9-.8h5c.5 0 1 .4 1 .8 0 .5-.5 1-1 1Zm16.9 0h-5a.9.9 0 0 1-1-.9c0-.4.4-.8 1-.8h5c.5 0 .8.4.8.8 0 .5-.4 1-.8 1Zm17 0h-5.2a.9.9 0 0 1-.8-.9c0-.4.4-.8.8-.8h5.1c.5 0 .8.4.8.8 0 .5-.3 1-.8 1Zm16.8 0h-5a.8.8 0 0 1-.9-.9c0-.4.4-.8.8-.8h5.1c.5 0 .9.4.9.8 0 .5-.4 1-.9 1Zm17 0h-5.1a.9.9 0 0 1-.9-.9c0-.4.4-.8.9-.8h5c.5 0 .9.4.9.8 0 .5-.4 1-.9 1Zm16.9 0h-5.1a.9.9 0 0 1-.9-.9c0-.4.4-.8.9-.8h5c.5 0 1 .4 1 .8 0 .5-.5 1-1 1Zm16.9 0h-5a.9.9 0 0 1-1-.9c0-.4.5-.8 1-.8h5c.5 0 .8.4.8.8 0 .5-.3 1-.8 1Zm17 0h-5.2a.9.9 0 0 1-.8-.9c0-.4.4-.8.8-.8h5.1c.5 0 .9.4.9.8 0 .5-.4 1-.9 1Zm16.8 0h-5a.8.8 0 1 1 0-1.7h5c.5 0 .9.4.9.8 0 .5-.4 1-.9 1Zm17 0h-5.1a.9.9 0 0 1-.9-.9c0-.4.4-.8.9-.8h5c.5 0 1 .4 1 .8 0 .5-.5 1-1 1Zm16.9 0h-5a.9.9 0 0 1-1-.9c0-.4.4-.8 1-.8h5c.4 0 .8.4.8.8 0 .5-.4 1-.8 1Zm-831.2 5a.8.8 0 0 1-.9-.7l-.2-6h3.1c.5 0 .9.4.9.8 0 .5-.4 1-.9 1H623l.1 4.1c0 .5-.3.9-.8.9Zm836.7 7.8a.9.9 0 0 1-.8-.8l-.6-5c0-.5.3-.9.8-1 .5 0 .9.3 1 .8l.5 5c0 .5-.3 1-.8 1Zm-836.2 9.2a.8.8 0 0 1-.8-.8l-.2-5.1c0-.5.4-.9.8-.9.5 0 .9.4.9.8l.2 5.1c0 .5-.4.9-.8.9Zm837.9 7.6a.8.8 0 0 1-.8-.7l-.5-5c0-.6.3-1 .8-1 .4 0 .8.3.9.8l.4 5c0 .5-.3.9-.7 1h-.1Zm-837.3 9.3a.8.8 0 0 1-.9-.8l-.1-5c0-.6.3-1 .8-1 .4 0 .8.4.8.8l.2 5.1c0 .5-.3.9-.8.9Zm838.6 7.6a.9.9 0 0 1-.9-.8c0-1.7-.2-3.4-.3-5 0-.5.3-1 .8-1s.9.4.9.8l.3 5c0 .6-.3 1-.7 1Zm-838 9.3a.8.8 0 0 1-1-.8l-.1-5a.8.8 0 0 1 1.7-.1l.2 5c0 .5-.4.9-.9 1Zm839 7.6a.9.9 0 0 1-.9-.8l-.2-5c0-.5.3-1 .8-1 .4 0 .9.4.9.8l.2 5.1c0 .5-.3.9-.8.9Zm-838.5 9.3a.8.8 0 0 1-.9-.8l-.2-5c0-.5.4-1 .9-1 .4 0 .8.4.8.9l.2 5c0 .5-.4 1-.8 1Zm839.2 7.6a.8.8 0 0 1-.9-.8l-.1-5c0-.6.3-1 .8-1 .4 0 .8.4.8.8l.2 5.1c0 .5-.3.9-.8.9Zm-838.7 9.3a.8.8 0 0 1-.8-.8l-.2-5c0-.5.3-1 .8-1 .4 0 .9.4.9.9l.1 5c0 .5-.3 1-.8 1Zm839 7.6a.9.9 0 0 1-.8-.8v-5c0-.5.3-1 .8-1 .4 0 .8.4.8.9l.1 5c0 .5-.3 1-.8 1Zm-838.5 9.3a.8.8 0 0 1-.8-.8l-.2-5c0-.5.4-.9.9-1 .4 0 .8.4.8 1l.2 5c0 .4-.4.8-.8.8Zm838.7 7.6a.8.8 0 0 1-.8-.8v-5.1c0-.5.3-.8.8-.8s.8.3.8.8v5.1c0 .5-.3.8-.8.8Zm-838.1 9.4a.8.8 0 0 1-.9-.9l-.1-5c0-.5.3-.9.8-.9.4 0 .9.3.9.8l.1 5c0 .6-.3 1-.8 1Zm838 7.5a.8.8 0 0 1-.9-.8v-5c0-.6.5-1 1-1 .4 0 .8.5.8 1v5a1 1 0 0 1-1 .8Zm-837.5 9.4a.8.8 0 0 1-.8-.8l-.2-5.1c0-.5.4-.9.8-.9.5 0 .9.4 1 .8v5.1c0 .5-.3.9-.7.9Zm837 7.6a.9.9 0 0 1-.8-.9l.2-5c0-.6.4-.9.8-1 .5.1.9.5.9 1l-.2 5c0 .5-.4.9-.8.9Zm-836.4 9.3a.8.8 0 0 1-.9-.8l-.1-5.1c0-.5.3-.9.8-.9.4 0 .8.4.9.8l.1 5.1c0 .5-.3.9-.8.9Zm835.9 7.6a.8.8 0 0 1-.9-1l.2-5c0-.4.5-.8 1-.8.4 0 .7.4.7.9l-.2 5c0 .5-.4.9-.8.9Zm-835.4 9.3a.8.8 0 0 1-.8-.8l-.2-5c0-.6.4-1 .8-1 .5 0 .9.4.9.9l.2 5c0 .5-.4.9-.9 1Zm834.5 7.6a.9.9 0 0 1-.8-1l.3-5a.8.8 0 0 1 1.7.1l-.3 5c0 .5-.4.9-.9.9Zm-834 9.3a.8.8 0 0 1-.8-.8l-.1-5c0-.6.3-1 .8-1 .4 0 .8.4.8.9l.2 5c0 .5-.3.9-.8 1Zm833 7.6a.8.8 0 0 1-.9-1l.4-5c0-.4.4-.8.9-.8s.8.4.8 1l-.4 5c0 .4-.4.8-.8.8Zm-832.4 9.3a.8.8 0 0 1-.8-.8l-.2-5c0-.5.3-1 .8-1s.9.4.9.9l.1 5c0 .5-.3 1-.8 1Zm831.1 7.6a.8.8 0 0 1-.8-1l.4-5c0-.5.4-.8.9-.8s.8.4.8 1l-.4 5c0 .4-.4.8-.9.8Zm-830.6 9.3a.8.8 0 0 1-.8-.8l-.2-5c0-.5.4-1 .9-1 .4 0 .8.4.8.9l.2 5c0 .5-.4 1-.8 1Zm829.2 7.5h-.1a.9.9 0 0 1-.8-1l.5-5c0-.4.4-.8.9-.7.5 0 .8.4.8.9l-.5 5c0 .5-.4.8-.8.8Zm-828.6 9.5a.8.8 0 0 1-.9-.9l-.1-5c0-.5.3-.9.8-1 .4 0 .9.4.9 1l.1 5c0 .4-.3.8-.8.9Zm827 7.4h-.2a.8.8 0 0 1-.7-1l.5-5c0-.5.4-.8 1-.8.4 0 .7.5.7 1l-.5 5c0 .4-.5.8-.9.8Zm-826.5 9.5a.8.8 0 0 1-.8-.9l-.2-5c0-.5.4-.9.8-.9.5 0 .9.3 1 .8v5.1c.1.5-.3.9-.7.9Zm824.5 7.3a.8.8 0 0 1-.8-1l.6-5c0-.5.5-.8 1-.8.4.1.7.5.7 1l-.6 5c0 .5-.4.8-.9.8Zm-824 9.6a.8.8 0 0 1-.8-.8l-.1-5.1c0-.5.3-.9.8-.9s.8.4.9.8l.1 5.1c0 .5-.3.9-.8.9Zm822 7.2a.8.8 0 0 1-.8-1l.6-5c0-.5.5-.8 1-.7.4 0 .8.4.7.9l-.6 5c-.1.5-.5.8-.9.8Zm-820 9.6a.9.9 0 0 1-.9-.7l-.9-5a.8.8 0 0 1 1.7-.3l.9 5c0 .4-.2.8-.7 1h-.1Zm817.8 7.2h-.1a.8.8 0 0 1-.8-1l.7-5c0-.5.5-.8 1-.8.4.1.8.5.7 1l-.7 5c0 .4-.4.8-.8.8Zm-812.8 9a.9.9 0 0 1-.8-.6l-1.8-4.8c-.2-.4 0-1 .5-1 .4-.2.9 0 1 .4l1.9 4.8c.1.4 0 .9-.5 1l-.3.1Zm810.2 7.7h-.1a.8.8 0 0 1-.7-1l.7-3.8.1-1.2c.1-.4.6-.8 1-.7.5 0 .8.5.7 1l-.1 1.1-.7 4c-.1.3-.5.6-.9.6Zm-802.3 7.1a.8.8 0 0 1-.7-.4l-2.7-4.3a.9.9 0 0 1 .3-1.2c.4-.2 1 0 1.2.3.8 1.5 1.7 3 2.7 4.3.2.4.1 1-.3 1.2l-.5.1Zm796.7 8.8h-.3a.8.8 0 0 1-.4-1.2c.7-1.5 1.5-3 2-4.6.3-.4.8-.6 1.2-.4.4.2.6.6.4 1-.6 1.7-1.3 3.2-2.1 4.7-.2.3-.5.5-.8.5Zm-786 4.4a82.3 82.3 0 0 1-4-4 .8.8 0 0 1 1.3-1.1l3.3 3.6a.8.8 0 0 1-.6 1.5Zm776.5 9.5c-.2 0-.4 0-.6-.2a.9.9 0 0 1 0-1.2c1-1.2 2.2-2.5 3.2-3.9a1 1 0 0 1 1.2-.1c.3.3.4.8.1 1.2l-3.3 4-.6.2Zm-763.7 1.4-.5-.1-4-3a.8.8 0 1 1 1-1.3l4 2.9c.4.3.5.8.2 1.2a1 1 0 0 1-.7.3Zm14.7 8.4-.4-.1-4.6-2.2a.8.8 0 0 1-.3-1.2c.2-.4.7-.6 1.1-.3l4.5 2.2c.5.2.7.7.5 1-.2.4-.5.6-.8.6Zm736.2 1.2a.8.8 0 0 1-.7-.4.9.9 0 0 1 .3-1.1l4-3c.4-.2 1-.2 1.2.2.3.4.2 1-.1 1.2a58.8 58.8 0 0 1-4.7 3.1Zm-720.2 4.3h-.2l-5-1.4a.8.8 0 0 1-.5-1c0-.5.6-.8 1-.6 1.6.4 3.2 1 4.9 1.3.4.1.7.5.6 1-.1.4-.5.7-.8.7Zm16.7 2.4a97 97 0 0 1-5.2-.4.8.8 0 0 1-.7-1c0-.4.4-.8 1-.7l5 .4c.4 0 .8.4.7.9 0 .4-.4.8-.8.8Zm16.9.2h-5a.8.8 0 0 1-1-1c0-.4.5-.8 1-.8h5c.5 0 .9.4.8 1 0 .4-.3.8-.8.8Zm17 0h-5.2a.8.8 0 0 1 0-1.7h5.1c.5 0 .9.4.9 1 0 .4-.4.8-.9.8Zm16.8.2h-5a.8.8 0 0 1-.9-1c0-.4.4-.8.9-.8h5c.5 0 .9.4.9 1 0 .4-.4.8-.9.8Zm17 0h-5.1a.9.9 0 0 1 0-1.7h5c.5 0 1 .5 1 1 0 .4-.5.8-1 .8Zm16.9.2h-5a.8.8 0 1 1 0-1.7h5c.5 0 .8.3.8.8s-.3.9-.8.9Zm17 0H813a.8.8 0 0 1 0-1.7h5c.5 0 .9.4.9 1 0 .4-.4.8-.9.8Zm586.7 0a.9.9 0 0 1-.8-.5c-.1-.5.1-1 .6-1l4.6-1.9c.5-.1 1 0 1.2.5.1.4 0 1-.5 1.1l-4.8 1.8h-.3Zm-569.9.2h-5a.8.8 0 0 1-.9-1c0-.4.4-.8.9-.8h5a.8.8 0 1 1 0 1.8Zm17 0h-5.1a.9.9 0 0 1-.9-.8c0-.5.4-.8.9-.9h5c.5 0 .9.4.9 1 0 .4-.4.8-.8.8Zm16.9.2h-5.1a.8.8 0 0 1-.8-1c0-.4.3-.8.8-.8h5c.5 0 1 .4 1 1 0 .4-.5.8-1 .8Zm16.9 0h-5a.9.9 0 0 1-1-.8c0-.5.5-.8 1-.9h5c.5 0 .8.4.8 1 0 .4-.3.8-.8.8Zm17 .2h-5.2a.8.8 0 0 1-.8-1c0-.4.4-.8.8-.8h5.1c.5 0 .9.4.9 1 0 .4-.4.8-.9.8Zm16.8 0h-5a.9.9 0 0 1 0-1.7h5c.5 0 .9.4.9 1 0 .4-.4.8-.9.8Zm17 .2h-5.1a.8.8 0 0 1-.9-1c0-.4.4-.8.9-.8h5c.5 0 1 .4 1 1a1 1 0 0 1-1 .8Zm16.9 0h-5.1a.8.8 0 0 1 0-1.7h5c.6 0 1 .5 1 1 0 .4-.5.8-1 .8Zm16.9.1h-5a.8.8 0 0 1-1-.8c0-.5.5-.9 1-.9h5c.5 0 .9.4.9 1 0 .4-.4.8-.9.8Zm17 .2h-5.2a.9.9 0 0 1 0-1.8h5.1c.5 0 .9.4.9 1 0 .4-.4.8-.9.8Zm16.9 0h-5.1a.8.8 0 0 1-.9-.8c0-.5.4-.9.9-.9h5c.5 0 .9.4.9 1 0 .4-.4.8-.9.8Zm16.9.2h-5.1a.9.9 0 0 1-.9-1c0-.4.4-.8.9-.8h5c.5 0 1 .4 1 1 0 .4-.5.8-1 .8Zm16.9 0h-5a.8.8 0 0 1-1-.8c0-.5.5-.9 1-.9h5c.5 0 .8.4.8 1 0 .4-.3.8-.8.8Zm17 .1h-5.2a.8.8 0 0 1-.8-.8c0-.5.4-.9.8-.9h5.1c.5 0 .9.4.9 1 0 .4-.4.8-.9.8Zm16.8.2h-5a.8.8 0 0 1-.9-1c0-.4.4-.8.9-.8h5c.5 0 .9.4.9 1 0 .4-.4.8-.9.8Zm17 0h-5.1a.9.9 0 0 1-.9-.8c0-.5.5-.9.9-.9h5c.5 0 .9.4.9 1 0 .4-.4.8-.9.8Zm16.9.2h-5.1a.9.9 0 0 1-.9-1c0-.4.4-.8.9-.8h5c.5 0 1 .4 1 1 0 .4-.5.8-1 .8Zm16.9 0h-5a.9.9 0 0 1-1-.8c0-.5.5-.8 1-.9h5c.5 0 .8.5.8 1 0 .4-.3.8-.8.8Zm17 .1h-5.2a.8.8 0 0 1-.8-.8c0-.5.4-.9.8-.9h5.1c.5 0 .9.4.9 1 0 .4-.4.8-.9.8Zm16.8.2h-5a.9.9 0 0 1-.9-1c0-.4.4-.8.9-.8h5c.5 0 .9.4.9 1 0 .4-.4.8-.9.8Zm17 0h-5.1a.8.8 0 0 1-.9-.8c0-.5.4-.9.9-.9h5c.5 0 1 .4 1 1 0 .4-.5.8-1 .8Zm16.9.2h-5.1a.8.8 0 0 1-.8-1c0-.4.3-.8.8-.8h5c.6 0 1 .4 1 1 0 .4-.5.8-1 .8Zm17 0h-5.1a.9.9 0 0 1-1-.8c0-.5.5-.9 1-.9h5a.8.8 0 0 1 0 1.8Zm16.8.1h-5a.9.9 0 0 1-.9-.8c0-.5.4-.9.9-.9h5c.5 0 .9.4.9 1 0 .4-.4.8-.9.8Zm17 .2h-5.1a.9.9 0 0 1-.9-1c0-.4.4-.8.9-.8h5c.5 0 .9.4.9 1 0 .4-.4.8-.8.8Zm16.9 0h-5.1a.8.8 0 0 1-.8-.8c0-.5.3-.9.8-.9h5a.8.8 0 1 1 0 1.8Zm16.9.2h-5a.8.8 0 0 1-1-1c0-.4.5-.8 1-.8h5c.5 0 .8.4.8 1 0 .4-.3.8-.8.8Zm17 0h-5.2a.8.8 0 0 1-.8-.8c0-.5.4-.9.8-.9h5.1c.5 0 .9.4.9 1 0 .4-.4.8-.9.8Zm16.8.1h-5a.8.8 0 0 1-.9-.8c0-.5.4-.9.9-.9h5a.8.8 0 0 1 0 1.8Zm17 .2h-5.1a.8.8 0 0 1-.9-1c0-.4.5-.8.9-.8h5c.5 0 .9.4.9.9s-.4.9-.8.9Zm16.9 0h-5.1a.8.8 0 0 1-.8-.8c0-.5.3-.9.8-.9h5c.6 0 1 .4 1 1 0 .4-.4.8-1 .8Zm16.9.2h-5a.8.8 0 0 1-1-1c0-.4.5-.8 1-.8h5c.5 0 .8.4.8 1 0 .4-.3.8-.8.8Zm28.8 0a.9.9 0 0 1 0-1.7l4.9-.5c.5-.1.9.2 1 .7 0 .4-.3.9-.8 1l-5 .5h-.1Zm-11.9 0h-5a.8.8 0 0 1-.9-.8c0-.5.4-.9.8-.9h5.1c.5 0 .9.4.9 1 0 .4-.4.8-.9.8Z"
      fill="#fff"
    />
    <path
      d="m804.9 3732.2 2-22.5c2.4-5.3 7.4-9.1 13.2-10 21.7-3.5 75.5-9.6 101.5 9.8l3.8 26-120.5-3.3"
      fill="url(#l)"
    />
    <path
      d="M872.7 3710.6c-5 1.2-10 1.2-15 0-6-1.5-10.4-7-10.4-13.2v-70.3h35.8v70.3c0 6.2-4.3 11.7-10.4 13.2"
      fill="url(#m)"
    />
    <path
      d="m1151.3 3732.2 2.1-22.5c2.4-5.3 7.3-9.1 13-10 21.8-3.5 75.6-9.6 101.6 9.8l3.8 26-120.5-3.3"
      fill="url(#n)"
    />
    <path
      d="M1219.1 3710.6c-5 1.2-10 1.2-15 0-6-1.5-10.3-7-10.3-13.2v-77.7h35.7v77.7c0 6.2-4.3 11.7-10.4 13.2Z"
      fill="url(#o)"
    />
    <path
      d="m843.7 3644.4 384.6-12.8c8.8-.3 16.3-6.6 17.8-15.2 2-12 4-30 1.2-48.8a44.3 44.3 0 0 0-43-37.5c-71.8-1.7-254.5-1.7-355.2 38.2a35.2 35.2 0 0 0-21.2 24.4 85.3 85.3 0 0 0-1 39 16.5 16.5 0 0 0 16.8 12.7"
      fill="url(#p)"
    />
    <path
      d="M837 3624.4c-.8 0-1.6-.7-1.6-1.6a88 88 0 0 1 2.3-29 32 32 0 0 1 21.8-22.1c21.4-6.3 62.4-17 95.8-18a1.7 1.7 0 1 1 .1 3.4c-33 1-73.7 11.6-95 17.8a28.6 28.6 0 0 0-19.5 19.8 88.3 88.3 0 0 0-2.2 27.8c.1 1-.6 1.8-1.5 1.9h-.2"
      fill="#91B3FA"
    />
    <path
      d="m1137.5 4084.6 6.8-76a28.6 28.6 0 0 0-28.6-31H982.4c-17.2 0-30.5 15-28.5 32l4.8 40-2.2-.4h-.2c-.4 0-.7.2-.8.7-.1.4.2.8.7 1l2.8.5 3.7 31.2-351-69.8a29.5 29.5 0 0 1-24-27.6c-2.4-48.3-6.3-161.7 6.8-234.6a32.9 32.9 0 0 1 32-27.2 24753 24753 0 0 1 314-2h51.4c90.3.3 183.5 1.2 264.4 3.3l11 .3 28.4.9c62.3 2 114.6 5 148.7 9.1a31.7 31.7 0 0 1 27.3 24.6l2.6 11.8c3.2 15.6 7.1 35.9 10.8 59.3a948 948 0 0 1 12.2 163.6 27.6 27.6 0 0 1-22.8 26.6l-337 63.7Zm11-34.1h-.2l-5 1c-.5 0-.8.5-.7 1 0 .3.4.6.8.6h.2l5-1c.4 0 .7-.5.7-1-.1-.3-.5-.6-.9-.6Zm16.5-3.2h-.1l-5 1c-.5 0-.8.5-.7 1 .1.4.5.7.9.7h.1l5-1c.5 0 .8-.5.7-1a1 1 0 0 0-.9-.7Zm-225.3-1.4c-.4 0-.7.3-.8.7 0 .4.2.8.7 1l5 1h.1c.4 0 .8-.3.8-.7.1-.5-.2-1-.6-1l-5-1h-.2Zm242-1.7h-.2l-5 1c-.4 0-.7.5-.7 1 .1.3.5.6.9.6h.1l5-1c.5 0 .8-.5.7-1 0-.3-.4-.6-.8-.6Zm-258.6-1.6a.8.8 0 0 0-.1 1.6l5 1h.1a.8.8 0 0 0 .2-1.6l-5-1h-.2Zm275.2-1.6h-.2l-5 1a.8.8 0 0 0 .2 1.7h.2l5-1a.8.8 0 0 0-.2-1.7Zm-291.8-1.7c-.4 0-.7.3-.8.6 0 .5.2 1 .7 1l5 1h.1c.4 0 .8-.2.8-.6.1-.5-.2-1-.6-1l-5-1h-.2Zm308.4-1.4h-.1l-5 1c-.5 0-.8.5-.7 1 0 .3.4.6.8.6h.2l5-1c.4 0 .7-.5.7-1-.1-.3-.5-.6-.9-.6Zm-325-2a.8.8 0 0 0-.1 1.7l5 1h.1a.8.8 0 0 0 .2-1.6l-5-1h-.2Zm341.6-1.2h-.1l-5 1c-.5 0-.8.5-.7 1 .1.4.5.7.9.7h.1l5-1c.5 0 .8-.5.7-1 0-.4-.5-.7-.9-.7Zm-358.2-2c-.4 0-.7.3-.8.7 0 .4.2.8.7 1l5 1h.1c.4 0 .8-.3.9-.7 0-.5-.3-1-.7-1l-5-1h-.2Zm374.9-1.1h-.2l-5 1c-.4 0-.7.5-.6 1 0 .3.4.6.8.6h.1l5-1c.5 0 .8-.4.7-1 0-.3-.4-.6-.8-.6Zm-391.5-2.2a.8.8 0 0 0-.1 1.6l5 1h.1c.4 0 .8-.2.9-.6 0-.5-.3-1-.7-1l-5-1h-.2Zm408.1-1h-.1l-5 1c-.5 0-.8.5-.7 1 0 .4.4.7.8.7h.2l5-1c.4 0 .7-.5.6-1 0-.4-.4-.7-.8-.7Zm-424.7-2.3c-.4 0-.7.3-.8.7 0 .4.2.8.7 1l5 1h.1c.4 0 .8-.3.9-.7 0-.5-.3-1-.7-1l-5-1h-.2Zm441.3-.8h-.1l-5 1a.8.8 0 0 0 .1 1.6h.2l5-1c.5 0 .8-.5.7-.9a1 1 0 0 0-.9-.7Zm-457.9-2.5c-.4 0-.7.3-.8.6 0 .5.2 1 .7 1l5 1h.1a.8.8 0 0 0 .2-1.6l-5-1h-.2Zm474.6-.6h-.2l-5 1c-.4 0-.8.5-.7 1 .1.3.5.6.9.6h.1l5-1c.5 0 .8-.5.7-1 0-.4-.4-.6-.8-.6Zm-491.2-2.7a.8.8 0 0 0-.1 1.7l5 1h.1c.4 0 .8-.3.9-.7 0-.5-.2-1-.7-1l-5-1h-.2Zm507.8-.5h-.2l-5 1c-.4 0-.7.5-.6 1 0 .4.4.7.8.7h.2l5-1c.4 0 .7-.5.6-1 0-.4-.4-.7-.8-.7Zm-524.4-2.8c-.4 0-.7.3-.8.7 0 .4.2.9.7 1l5 1h.1c.4 0 .8-.3.9-.7 0-.5-.2-1-.7-1l-5-1h-.2Zm541-.3h-.1l-5 1c-.5 0-.8.5-.7 1 0 .3.4.6.8.6h.2l5-1c.4 0 .7-.5.7-1-.1-.3-.5-.6-.9-.6Zm-557.5-3a1 1 0 0 0-.9.7c0 .4.2.9.7 1l5 1h.1a.8.8 0 0 0 .2-1.7l-5-1h-.1Zm574.1-.2h-.1l-5 1c-.5 0-.8.5-.7 1 .1.4.5.7.9.7h.1l5-1a.8.8 0 0 0-.2-1.7Zm-590.7-3.1a1 1 0 0 0-.9.7c0 .4.2.9.7 1l5 1h.1c.4 0 .8-.3.9-.7 0-.5-.2-1-.7-1l-5-1h-.1Zm607.4 0h-.2l-5 1c-.4 0-.7.5-.7 1 .1.3.5.6.9.6h.1l5-1c.5 0 .8-.5.7-1 0-.3-.4-.6-.8-.6Zm16.6-3.2h-.2l-5 1c-.4 0-.7.5-.6 1 0 .4.4.7.8.7h.2l5-1c.4 0 .7-.5.6-1 0-.4-.4-.7-.8-.7Zm-640.6-.1a1 1 0 0 0-.9.7c0 .4.2.9.7 1l5 1h.1a.8.8 0 0 0 .2-1.7l-5-1h-.1Zm657.2-3h-.1l-5 1a.8.8 0 0 0 .1 1.6h.2l5-1c.4 0 .7-.5.7-1-.1-.3-.5-.6-.9-.6ZM724 4003a1 1 0 0 0-.9.7c0 .4.2.9.7 1l5 1h.1c.4 0 .8-.3.9-.7 0-.5-.2-1-.7-1l-5-1h-.1Zm690.4-2.8h-.1l-5 1a.8.8 0 0 0 .2 1.6h.1l5-1a.8.8 0 0 0-.2-1.7Zm-707-.5a1 1 0 0 0-.9.7c0 .4.2.9.7 1l5 1h.2a.8.8 0 0 0 .1-1.7l-5-1h-.1Zm723.7-2.7h-.2l-5 1c-.4 0-.7.5-.7 1 .1.3.5.6.9.6h.1l5-1c.5 0 .8-.4.7-1 0-.3-.4-.6-.8-.6Zm-740.3-.6a1 1 0 0 0-.9.7c0 .4.3.9.7 1l5 1h.2c.3 0 .7-.3.8-.7 0-.5-.2-1-.7-1l-5-1h-.1Zm757-2.6h-.3l-5 1a.8.8 0 0 0 .2 1.7h.2l5-1c.4 0 .7-.5.6-1 0-.4-.4-.7-.8-.7Zm-773.6-.7a1 1 0 0 0-.9.7c0 .4.3.9.7 1l5 1h.2c.4 0 .7-.3.8-.7 0-.5-.2-1-.7-1l-5-1h-.1Zm790.1-2.4h-.1l-5 1c-.5 0-.8.5-.7 1 0 .4.5.7.8.7h.2l5-1c.5-.1.8-.6.7-1a1 1 0 0 0-.9-.7Zm-806.7-1c-.4 0-.8.4-.9.8 0 .4.3.9.7 1l5 1h.2a.8.8 0 0 0 .1-1.7l-5-1h-.1Zm-16.6-3.2c-.4 0-.8.3-.8.7-.1.4.2.9.6 1l5 1h.2c.4 0 .7-.3.8-.7 0-.5-.2-1-.7-1l-5-1h-.1Zm-16.6-3.3c-.4 0-.8.3-.8.7-.1.4.2.9.6 1l5 1h.2a.8.8 0 0 0 .1-1.7l-5-1h-.1Zm842.4-7.5c-.5 0-.8.4-.8.9v5c0 .5.3.9.8 1 .5 0 .8-.5.8-1v-5c0-.5-.3-.9-.8-.9Zm-849-4.5c-.5 0-.8.4-.8.9l.2 5c0 .5.4.9.9.9s.8-.4.8-1l-.2-5c0-.4-.4-.8-.9-.8Zm848.8-12.4c-.5 0-1 .4-1 .9.2 1.7.2 3.4.2 5 0 .5.4.9.9.9s.8-.4.8-.9l-.1-5c0-.5-.3-.9-.8-.9Zm-849.4-4.5c-.5 0-.9.4-.9.9l.2 5c0 .5.4.9.9.9s.8-.4.8-1l-.2-5c0-.4-.4-.8-.8-.8ZM1466 3942h-.1c-.5 0-.9.4-.8 1l.2 5c0 .4.4.8.9.8.4 0 .8-.4.8-.9l-.2-5c0-.5-.4-.9-.8-.9Zm-849.4-4.5c-.5 0-.8.4-.8.8l.1 5.1c0 .5.4.9.9.9s.8-.4.8-1l-.1-5c0-.4-.4-.8-.9-.8Zm848.3-12.4c-.5 0-.8.5-.8 1l.3 5c0 .4.4.8.9.8s.9-.4.8-1l-.3-5c0-.4-.4-.8-.9-.8Zm-848.6-4.5c-.6 0-1 .4-1 .8l.2 5.1c0 .5.4.8.8.8.5 0 .9-.4.9-.8l-.1-5.1c0-.5-.4-.8-.8-.8Zm847.4-12.3h-.1c-.5 0-.8.4-.8.9l.4 5c0 .5.4.8.9.8s.9-.5.8-1l-.4-5c0-.4-.4-.8-.8-.8Zm-847.7-4.6c-.5 0-.9.3-.8.8v5c0 .5.4 1 .9 1 .4 0 .8-.5.8-1v-5c0-.5-.4-.8-.9-.8Zm846-12.3c-.5 0-.8.5-.8 1l.5 5c0 .4.5.7.9.7.5 0 .9-.4.8-.9l-.5-5c0-.5-.4-.8-.8-.8Zm-846-4.7c-.5 0-1 .4-1 .9v5.1c0 .4.5.8 1 .8.4 0 .8-.4.8-.9v-5c0-.5-.4-.9-.9-.9Zm844.2-12.1h-.1c-.5 0-.8.4-.7 1l.5 5c.1.4.5.7.9.7.5 0 .9-.5.8-1l-.6-5c0-.4-.4-.7-.8-.7Zm-844.1-4.8c-.5 0-.9.4-.9.9v5c0 .5.3.9.8.9s.8-.4.8-.9l.1-5c0-.5-.4-.9-.8-.9Zm842-12h-.1c-.5 0-.8.5-.8 1l.7 5c0 .4.4.7.8.7h.1c.5 0 .8-.5.8-1a406 406 0 0 0-.7-5c0-.4-.4-.7-.9-.7Zm-841.8-5c-.4 0-.8.5-.8 1v5c-.1.5.3.9.7.9.5 0 .9-.4.9-.9l.1-5a1 1 0 0 0-.8-1Zm839.4-11.8h-.2c-.4.1-.7.5-.7 1l.8 5c0 .4.4.7.8.7h.1c.5 0 .8-.5.7-1l-.7-5c0-.4-.4-.7-.8-.7Zm-838.8-5c-.4 0-.8.3-.8.8l-.2 5c0 .5.3 1 .8 1s.9-.4.9-.9l.2-5c0-.5-.4-1-.8-1Zm836.1-11.7h-.1c-.5 0-.8.5-.7 1l.8 5c0 .4.4.7.8.7h.2c.4 0 .8-.5.7-1l-.8-5a1 1 0 0 0-.9-.7Zm-835.2-5.3c-.5 0-.8.4-.9.8l-.3 5.1c0 .5.4.9.9 1 .4 0 .8-.4.8-.9l.3-5c0-.5-.3-1-.8-1Zm832.4-11.4h-.2c-.5.1-.8.5-.7 1l.9 5c0 .4.4.7.8.7h.2c.4 0 .8-.5.7-1l-1-5c0-.4-.4-.7-.8-.7Zm-831.2-5.4c-.5 0-.9.3-.9.7l-.4 5.1c0 .5.3.9.8 1 .5 0 .9-.4.9-.9l.4-5a1 1 0 0 0-.8-1Zm828-11.2h-.1c-.5 0-.8.5-.7 1l1 5c0 .4.4.7.8.7h.2c.4-.2.7-.6.6-1l-1-5c0-.4-.4-.7-.8-.7Zm-826.5-5.7c-.4 0-.8.3-.8.8l-.6 5c0 .5.3 1 .8 1s.9-.4 1-.8l.5-5c0-.5-.3-1-.8-1h-.1Zm823.2-11h-.2c-.5.2-.8.6-.7 1l1 5c.2.5.5.7.9.7h.2c.4 0 .7-.5.6-1a461 461 0 0 0-1-5c-.1-.3-.5-.6-.8-.6Zm-821.1-5.8a1 1 0 0 0-.9.7l-.6 5c-.1.5.2 1 .7 1h.1c.4 0 .8-.3.8-.7l.7-5c0-.5-.2-1-.7-1h-.1Zm811.6-4.5c-.4 0-.8.3-.8.8s.3.9.7 1l5 .5h.2a.8.8 0 0 0 0-1.7l-5-.6Zm-16.8-1.6c-.4 0-.8.3-.9.8 0 .4.3.8.8.9l5 .4h.1c.5 0 .8-.3.9-.7a1 1 0 0 0-.8-1l-5-.4h-.1Zm-16.9-1.3c-.4 0-.8.3-.8.8 0 .4.3.8.8.8l5 .4a1 1 0 0 0 1-.8c0-.4-.4-.8-.9-.9l-5-.3Zm-16.9-1.2c-.4 0-.8.4-.8.8 0 .5.3.9.8 1l5 .2c.5 0 1-.3 1-.8 0-.4-.4-.8-.8-.8l-5.1-.4Zm-16.8-1a1 1 0 0 0-1 .8c0 .5.4.9.9 1l5 .2h.1c.5 0 .8-.4.8-.8s-.3-.8-.8-.9l-5-.3Zm-17-.8c-.4 0-.8.3-.8.8 0 .4.3.8.8.9l5 .2h.1c.4 0 .8-.3.8-.8s-.3-.9-.8-.9l-5-.2Zm-16.9-.8c-.4 0-.8.4-.8.8 0 .5.3.9.8.9l5 .2h.1c.5 0 .8-.3.8-.8s-.3-.9-.8-.9l-5-.2Zm-17-.7c-.3 0-.7.4-.7.8 0 .5.3.9.8 1l5 .1c.5 0 1-.3 1-.8s-.4-.9-.9-.9l-5-.2h-.1Zm-688.6-3.2h-.5a3 3 0 0 0-3 2.5l-.2 1.6c0 .5.2 1 .7 1h.1c.4 0 .8-.3.9-.7l.2-1.6c.2-.7.7-1.1 1.3-1.1h.5c.4 0 .8-.4.8-.9 0-.4-.3-.8-.8-.8Zm671.8 2.6c-.5 0-.8.4-.8.8 0 .5.3.9.8.9l5 .2c.5 0 1-.4 1-.8 0-.5-.4-.9-.9-1h-5.1Zm-16.9-.5c-.5 0-.8.3-.9.8 0 .4.4.8.9.9l5 .1a1 1 0 0 0 1-.8c0-.5-.4-.9-1-.9l-5-.1Zm-17-.6c-.4 0-.8.4-.8.9s.4.9.8.9h5.1c.5 0 .9-.3.9-.7 0-.5-.4-.9-.8-.9l-5.1-.1Zm-16.8-.4c-.6 0-.9.4-.9.8 0 .5.4.9.8 1h5.1c.5 0 .9-.3.9-.8s-.4-.8-.8-.8l-5.1-.2Zm-17-.4c-.5 0-.8.4-.8.8 0 .5.4.9.8.9l5.1.1c.5 0 .8-.4.9-.8 0-.5-.4-.9-.9-.9h-5Zm-16.9-.4c-.4 0-.8.4-.8.9 0 .4.3.8.8.8l5 .1h.1c.5 0 .8-.3.9-.8 0-.4-.4-.8-.9-.8l-5-.2Zm-17-.3c-.4 0-.7.4-.7.8 0 .5.3.9.8.9h5c.5 0 1-.3 1-.7 0-.5-.4-.9-.9-.9h-5.2Zm-553.3-.2H639c-.5 0-.9.4-.8.9 0 .5.3.8.8.8h5c.6 0 1-.4 1-.9a1 1 0 0 0-1-.8Zm536.5 0a.8.8 0 0 0 0 1.6h5c.5 0 .9-.3 1-.7 0-.5-.5-.9-1-1h-5Zm-519.5-.2H656c-.5 0-1 .4-1 .9s.5.8 1 .8h5c.5 0 .9-.4.9-.9 0-.4-.4-.8-.8-.8Zm502.5-.2c-.5 0-.8.4-.8.9 0 .4.4.8.8.8l5.1.1c.5 0 .9-.3.9-.8s-.4-.9-.9-.9h-5Zm-485.7 0h-5a.8.8 0 0 0 0 1.8l5-.1c.5 0 .9-.4.9-.8 0-.5-.3-.9-.9-.9Zm17-.2h-5.1c-.5 0-.9.5-.9 1 0 .4.4.8.9.8h5c.5 0 1-.5 1-1 0-.4-.4-.7-1-.8Zm451.8 0c-.4 0-.8.4-.8.8 0 .5.4.9.8.9h5.1c.5 0 .9-.3.9-.8 0-.4-.4-.8-.9-.8h-5Zm-435-.1h-5c-.5 0-.8.4-.8.9 0 .4.4.8.8.8h5.1c.5 0 .9-.4.8-.9 0-.4-.3-.8-.8-.8Zm418-.1c-.4 0-.7.4-.7.8 0 .5.4.9.8.9h5.1c.5 0 .8-.3.8-.8 0-.4-.3-.8-.8-.8l-5-.1h-.1Zm-401 0h-5c-.5 0-.9.3-.9.8s.4.9.9.9h5c.5 0 .9-.5.9-1 0-.4-.4-.8-.9-.8Zm384.2-.2c-.5 0-.8.4-.8.8 0 .5.3.9.8.9h5c.5 0 1-.3 1-.8 0-.4-.5-.8-1-.8l-5-.1Zm-367.3 0h-5c-.5 0-.9.4-.9.9 0 .4.4.8.9.8h5c.5 0 .9-.4.9-.9s-.4-.8-.8-.8Zm17-.2h-5.1a.8.8 0 0 0 0 1.8h5c.6 0 1-.4 1-1 0-.4-.5-.8-1-.8Zm333.4 0c-.5 0-.9.4-.9.9 0 .4.4.8.9.8h5c.5 0 .9-.3.9-.8 0-.4-.4-.8-.8-.8h-5.1Zm-316.4 0h-5.1c-.5 0-1 .3-1 .8s.5.9 1 .9h5c.5 0 .9-.4.9-1 0-.4-.4-.8-.8-.8Zm299.5-.1c-.5 0-.9.4-.9.8 0 .5.4.9.9.9h5c.5 0 .9-.3.9-.8s-.4-.9-.9-.9h-5Zm-282.7 0h-5c-.5 0-.9.3-.9.8s.4.8.9.8h5c.5 0 .9-.4.9-.8 0-.5-.4-.9-.9-.9Zm265.7-.2c-.5 0-.8.5-.8 1 0 .4.4.8.8.8h5.1c.5 0 .9-.4.9-.8 0-.5-.4-.9-.9-1h-5.1Zm-248.7 0h-5.1a.9.9 0 0 0 0 1.8h5c.5 0 1-.5 1-1 0-.4-.5-.8-1-.8Zm231.8 0c-.5 0-.8.3-.8.8s.3.8.8.8h5c.6 0 1-.3 1-.8 0-.4-.4-.8-.9-.8h-5Zm-215 0h-5c-.5 0-.8.3-.8.8s.3.8.8.8h5.1a.8.8 0 1 0 0-1.6Zm198-.1c-.4 0-.8.3-.8.8s.4.9.9.9h5c.5 0 1-.4 1-.8 0-.5-.5-1-1-1h-5Zm-181 0h-5a.8.8 0 1 0 0 1.7h5c.5 0 .9-.4.9-.9s-.4-.8-.9-.8Zm17-.1h-5.1c-.5 0-.9.4-.9.9 0 .4.4.8.9.8h5c.5 0 .9-.4.9-.8 0-.5-.4-.9-.9-.9Zm147.2 0c-.5 0-.9.4-.9.8 0 .5.4.9.9.9h5c.5 0 .9-.4.9-.8 0-.5-.4-.9-.9-.9h-5Zm-130.3 0H876c-.5 0-.9.3-.9.8s.4.9.9.9h5c.5 0 1-.4 1-.9s-.5-.8-1-.8Zm113.3 0c-.4 0-.8.3-.8.8s.4.8.8.8h5.1c.5 0 .9-.3.9-.8s-.4-.8-.9-.8h-5Zm-96.4 0h-5c-.6 0-1 .3-1 .8 0 .4.5.8 1 .8h5c.5 0 .8-.4.8-.8 0-.5-.3-.9-.8-.9Zm79.5 0c-.4 0-.8.3-.8.8 0 .4.4.8.8.8h5.1c.5 0 .8-.4.8-.8 0-.5-.3-.9-.8-.9h-5Zm-62.6-.1h-5c-.5 0-.9.4-.9.8 0 .5.4.9.8.9h5.1c.5 0 .9-.4.9-.9 0-.4-.4-.8-.9-.8Zm45.7 0c-.5 0-.8.3-.8.8s.3.9.8.9h5c.5 0 1-.4 1-.9 0-.4-.5-.8-1-.8h-5Zm-28.8 0h-5a.8.8 0 0 0 0 1.7h5c.5 0 .9-.4.9-.9 0-.4-.4-.8-.9-.8Zm11.9 0c-.5 0-.9.3-.9.8s.4.9.9.9h5c.5 0 .9-.4.9-.9 0-.4-.4-.8-.8-.8h-5.1Z"
      fill="url(#q)"
    />
    <path
      d="M948.9 3753h-5.1a.8.8 0 0 1-.9-.9c0-.4.4-.8.9-.8h5c.5 0 .9.3.9.8s-.4.9-.8.9Zm-22 0a.8.8 0 0 1 0-1.7h5c.5 0 .9.3.9.8s-.4.9-.9.9h-5Zm38.9 0h-5.1a.8.8 0 0 1-.8-.9c0-.4.3-.8.8-.8h5c.5 0 1 .4 1 .8 0 .5-.5.9-1 .9Zm-55.9 0a.9.9 0 0 1-.8-.9c0-.4.4-.8.8-.8h5.1c.5 0 .9.4.9.8 0 .5-.4.9-.9.9h-5Zm72.8 0h-5a.9.9 0 0 1-1-.8c0-.5.5-.9 1-.9h5c.5 0 .8.4.8.9 0 .4-.3.8-.8.8Zm-89.7 0a.8.8 0 0 1-.8-.8c0-.5.3-.9.8-.9h5c.6 0 1 .4 1 .9 0 .4-.4.8-.9.8h-5Zm106.6 0h-5a.9.9 0 0 1-.9-.8c0-.5.4-.8.8-.8h5.1c.5 0 .9.3.9.8s-.4.9-.9.9Zm-123.5 0a.8.8 0 0 1-.9-.8c0-.4.4-.8.9-.8h5c.5 0 1 .3 1 .8s-.5.8-1 .8h-5Zm140.4.1h-5a.9.9 0 0 1-.9-.9c0-.4.4-.8.9-.8h5a.8.8 0 0 1 0 1.7Zm-157.3 0a.8.8 0 0 1-.9-.8c0-.5.4-.9.9-.9h5a.8.8 0 1 1 0 1.7h-5Zm-17 0a.8.8 0 1 1 0-1.6h5.1c.5 0 .9.3.9.8s-.4.9-.9.9h-5Zm191.3 0h-5.1a.8.8 0 0 1-.9-.8c0-.5.4-.8.9-.8h5c.5 0 1 .4 1 .8 0 .5-.5.9-1 .9Zm-208.2.2a.8.8 0 0 1-.8-.9c0-.5.3-.8.8-.8h5c.6 0 1 .3 1 .8 0 .4-.4.8-.9.8h-5Zm225 0h-5a.8.8 0 0 1-.8-.9c0-.5.3-.8.8-.8h5.1c.5 0 .8.4.8.8 0 .5-.3.9-.8.9Zm-242 0a.8.8 0 0 1 0-1.7h5.2c.4 0 .8.4.8.9 0 .4-.4.8-.8.8h-5.1Zm259 0h-5a.9.9 0 0 1-1-.8c0-.5.5-.9 1-.8h5c.5 0 .9.4.9.9 0 .4-.4.8-.9.8Zm-275.8.1a.8.8 0 0 1-.9-.8c0-.4.4-.8.9-.8h5c.5 0 .9.3.9.8 0 .4-.4.8-.9.8h-5Zm292.7.1h-5a.8.8 0 0 1-.9-.9c0-.4.4-.8.9-.8h5c.5 0 .9.4.9.9s-.4.8-.9.8Zm-309.7 0a.8.8 0 0 1-.8-.8c0-.4.4-.8.8-.8h5.1c.5-.1.9.3.9.8s-.4.8-.9.8h-5Zm326.7.2h-5.1a.8.8 0 0 1 0-1.8h5c.5 0 1 .5.9 1 0 .4-.4.8-.8.8Zm-343.6 0a.8.8 0 0 1 0-1.7h5c.5 0 1 .3 1 .8s-.4.8-1 .8h-5Zm-17 .1a.8.8 0 0 1-.8-.8c0-.5.4-.9.9-.9h5a.8.8 0 0 1 0 1.7h-5Zm377.5 0h-5.1a.8.8 0 0 1-.8-.9c0-.4.4-.8.8-.8h5c.5 0 1 .5 1 1 0 .4-.5.7-1 .7Zm-394.3.2a.8.8 0 0 1 0-1.7h5a.8.8 0 0 1 0 1.6h-5Zm411.2 0h-5a.9.9 0 0 1-1-.9c0-.4.5-.8 1-.8h5a.8.8 0 0 1 0 1.7Zm-428.2.1a.9.9 0 0 1-.8-.8c0-.5.3-.9.8-.9h5c.6 0 1 .3 1 .8s-.4.9-.9.9h-5Zm445.1.2-5-.1a.8.8 0 0 1-.9-.9c0-.4.4-.8.8-.8h5.1c.5 0 .9.5.9 1 0 .4-.4.8-.9.8Zm-462 0a.8.8 0 0 1-.9-.9c0-.4.4-.8.9-.8h5c.6 0 1 .3 1 .8 0 .4-.5.8-1 .8h-5Zm-17 .1a.8.8 0 0 1 0-1.6h5.1c.6 0 .9.3.9.8 0 .4-.4.8-.9.8h-5Zm496 .1h-5.2a.8.8 0 0 1-.8-1c0-.4.4-.8.9-.8l5 .1c.5 0 .9.4.9.9s-.4.8-.9.8Zm-512.9.1a.8.8 0 0 1 0-1.7h5.1c.5 0 .9.3.9.8s-.4.9-.9.9h-5Zm529.8.2h-5.1a.8.8 0 0 1 0-1.7h5c.5 0 1 .4 1 .9a1 1 0 0 1-1 .8Zm-546.7 0a.8.8 0 0 1 0-1.7h5c.5 0 1 .3 1 .8s-.4.9-1 .9h-5Zm563.6.3-5.1-.1a.8.8 0 0 1-.8-.8c0-.5.3-1 .8-.9l5.1.1c.5 0 .8.4.8.9 0 .4-.4.8-.8.8Zm16.9.3h-5a.8.8 0 0 1-1-1c0-.4.5-.8 1-.8l5 .2c.5 0 .9.3.9.8s-.4.8-.9.8Zm17 .4h-.1l-5-.1a.8.8 0 0 1-.9-.9c0-.4.3-.8.9-.8l5 .1c.5 0 .9.4.9.9 0 .4-.4.8-.9.8Zm16.8.4h-5a.9.9 0 0 1-.9-1c0-.4.3-.8.9-.8l5 .2a.8.8 0 0 1 0 1.6Zm17 .5-5.2-.1a.9.9 0 0 1-.8-1c0-.4.4-.8.9-.7l5 .1c.5 0 1 .4.9.9 0 .4-.4.8-.9.8Zm16.9.5-5.1-.1a.8.8 0 0 1-.9-1c0-.4.4-.7 1-.7l5 .1c.5 0 .8.4.8.9 0 .4-.4.8-.8.8Zm16.9.6-5.1-.2a.8.8 0 0 1-.8-.9c0-.4.4-.8.8-.8l5.1.2c.5 0 .8.4.8.9 0 .4-.4.8-.8.8Zm-679.8.6h-.1a.8.8 0 0 1-.7-1l.3-1.6a3 3 0 0 1 2.9-2.5h.4c.6 0 .9.4.9.8 0 .5-.4.9-.8.9h-.5c-.6 0-1.1.4-1.3 1.1l-.2 1.6a1 1 0 0 1-.9.7Zm696.7 0-5.1-.2a.8.8 0 0 1-.8-.9c0-.4.4-.8.8-.8l5.1.2c.5 0 .9.4.8.9 0 .5-.4.8-.8.8Zm16.9.7-5.1-.2a.8.8 0 0 1-.8-.9c0-.4.4-.8.9-.8l5 .2c.5 0 .9.4.8 1 0 .4-.3.7-.8.7Zm17 .8h-.1l-5.1-.2a.9.9 0 0 1 0-1.7l5.2.2c.4 0 .8.4.8 1 0 .4-.5.7-.9.7Zm16.8 1v-.1l-5.1-.3a.9.9 0 0 1-.8-.9c0-.4.4-.8.9-.8l5 .3c.5 0 .9.5.8 1 0 .3-.3.7-.8.7Zm16.9 1-5.1-.4a.8.8 0 0 1-.8-.9c0-.4.4-.8.9-.8l5 .3c.5 0 .9.5.8 1 0 .4-.4.7-.8.7Zm16.9 1.1-5.1-.3a.9.9 0 0 1-.8-1c0-.4.4-.8.9-.7 1.7 0 3.4.2 5 .3.5 0 .9.5.8 1 0 .4-.4.7-.8.7Zm16.8 1.4-5-.4a.8.8 0 0 1-.9-1c0-.4.5-.7 1-.7l5 .5c.5 0 .8.4.8.9 0 .4-.4.8-.9.8Zm16.9 1.8h-.1a257 257 0 0 0-5-.6.8.8 0 0 1-.8-1c0-.4.4-.7 1-.7l5 .6c.4 0 .8.5.7 1 0 .4-.4.7-.8.7Zm-817.4 9h-.1a.8.8 0 0 1-.7-1l.6-5c.1-.5.5-.8 1-.8s.8.5.7 1a463 463 0 0 0-.7 5c0 .4-.4.7-.8.7Zm822.8 5.7a.8.8 0 0 1-.8-.6l-1-5c-.2-.5.1-1 .6-1 .5-.1.9.2 1 .6l1 5c.1.5-.2 1-.6 1h-.2ZM620 3792a.8.8 0 0 1-.9-.9l.6-5c0-.5.4-.8.9-.8s.8.5.8 1l-.6 5c0 .4-.4.8-.8.8Zm828 5.7a.8.8 0 0 1-.8-.8l-1-5c0-.4.2-.8.7-1 .4 0 .9.3 1 .8l1 5c0 .4-.3.8-.8 1h-.1Zm-829.4 11.2h-.1a.8.8 0 0 1-.8-.9l.4-5c0-.5.4-.9 1-.8.4 0 .7.4.7.9a703 703 0 0 0-.4 5c0 .5-.4.8-.8.8Zm832.4 5.4a.8.8 0 0 1-.8-.7l-.9-5c0-.5.2-.9.7-1 .5 0 .9.3 1 .7l.9 5c0 .5-.3 1-.7 1h-.2Zm-833.5 11.5a.9.9 0 0 1-.9-.9l.3-5c0-.5.5-.9 1-.9.4 0 .8.5.7 1l-.3 5c0 .5-.4.8-.8.8Zm836.3 5.2a.8.8 0 0 1-.8-.7l-.8-5c0-.5.2-1 .7-1 .5 0 .9.2 1 .7l.8 5c0 .5-.3 1-.7 1h-.2Zm-837 11.7a.8.8 0 0 1-.9-.8l.2-5.1c0-.5.4-.8.9-.8.4 0 .8.4.8.8l-.2 5.1c0 .5-.4.8-.9.8Zm839.6 5a.8.8 0 0 1-.8-.7l-.8-5c0-.5.3-.9.7-1 .5 0 1 .3 1 .7l.7 5c.1.5-.2 1-.7 1Zm-840.1 12a.9.9 0 0 1-.9-1l.1-5c0-.4.4-.8.9-.8s.8.4.8.9l-.1 5c0 .5-.4.9-.8.9Zm842.4 4.8a.9.9 0 0 1-.8-.7l-.7-5c0-.5.3-1 .8-1 .4 0 .8.3.9.7l.7 5c0 .5-.3 1-.8 1Zm-842.7 12a.8.8 0 0 1-.9-.8l.1-5c0-.5.4-.9.9-.9.4 0 .8.4.8.9v5c0 .5-.4.9-.9.9Zm844.8 4.8a.8.8 0 0 1-.8-.8c-.3-1.6-.5-3.3-.6-5-.1-.5.2-.9.7-1 .5 0 .9.3 1 .8l.5 5c0 .5-.3 1-.7 1h-.1Zm-844.9 12.2a.8.8 0 0 1-.8-.8v-5.1c0-.5.4-.9.8-.9.5 0 .9.4.9.9v5.1c0 .4-.4.8-.9.8Zm846.7 4.6a.8.8 0 0 1-.9-.7l-.5-5c0-.5.3-1 .8-1 .4 0 .8.3 1 .8 0 1.6.3 3.3.4 5 0 .5-.3.9-.8 1ZM616 3910.3a.8.8 0 0 1-.9-.8v-5.1c0-.5.3-.8.8-.8s.8.3.8.8l.1 5c0 .5-.4 1-.8 1Zm848 4.6a.8.8 0 0 1-.9-.8l-.4-5c0-.5.3-1 .8-1 .4 0 .9.3.9.8l.4 5c0 .5-.3 1-.8 1Zm-847.8 12.3a.8.8 0 0 1-.8-.8l-.1-5c0-.5.3-1 .8-1s.9.4.9.9v5c0 .5-.3 1-.7 1Zm849 4.6a.8.8 0 0 1-.9-.8c0-1.7-.2-3.4-.3-5 0-.5.3-1 .8-1s.9.3.9.8l.3 5c0 .6-.3 1-.8 1Zm-848.5 12.4a.9.9 0 0 1-.9-.9l-.1-5c0-.5.3-.9.8-1 .5.1.9.4.9 1l.1 5c0 .4-.3.8-.8.9Zm849.4 4.5a.8.8 0 0 1-.9-.8l-.2-5c0-.6.3-1 .8-1 .4 0 .8.4.9.8l.2 5.1c0 .5-.4.8-.8.9ZM617.4 3961a.8.8 0 0 1-.9-.8l-.2-5.1c0-.5.4-.9.8-.9.5 0 .9.3 1 .8l.1 5c0 .6-.3 1-.8 1Zm849.3 4.5a.9.9 0 0 1-.9-.8l-.1-5.1c0-.5.3-.9.8-.9s.9.4.9.8l.1 5.1c0 .5-.3.9-.8.9ZM618 3978a.9.9 0 0 1-.9-.8l-.2-5.1c0-.5.3-.9.8-.9s.9.4.9.8l.2 5c0 .6-.3 1-.8 1Zm848.7 4.5a.9.9 0 0 1-.8-.8v-5.1a.8.8 0 1 1 1.6 0v5c0 .5-.3 1-.8 1Zm-837.4 3.4h-.2l-5-1a.8.8 0 0 1-.6-1c0-.5.5-.8 1-.7l5 1c.4 0 .7.5.6 1 0 .4-.4.7-.8.7Zm16.6 3.3h-.2l-5-1a.8.8 0 0 1-.6-1c0-.5.5-.8 1-.7l5 1c.4 0 .7.5.6 1 0 .4-.4.7-.8.7Zm16.6 3.3h-.2l-5-1a.8.8 0 0 1-.7-1c.1-.5.6-.8 1-.7l5 1c.5 0 .8.5.7 1 0 .4-.4.7-.8.7Zm796.7.8a.9.9 0 0 1-.8-.7c0-.4.2-.8.7-1l5-.9c.4 0 .9.2 1 .7 0 .4-.3.9-.7 1l-5 1h-.2Zm-780.1 2.5h-.2l-5-1a.9.9 0 0 1 .3-1.7l5 1c.5 0 .8.5.7 1-.1.4-.4.7-.8.7Zm763.5.7a.8.8 0 0 1-.2-1.7l5-1c.5 0 1 .3 1 .7.1.5-.2 1-.7 1l-5 1Zm-747 2.6h-.1l-5-1a.8.8 0 0 1-.7-1c.1-.5.6-.8 1-.7l5 1c.5 0 .8.5.7 1-.1.4-.5.7-.8.7Zm730.4.5a.9.9 0 0 1-.8-.7c-.1-.4.2-.9.6-1l5-.9c.5 0 1 .2 1 .7 0 .5-.2.9-.7 1l-5 1h-.1Zm-713.7 2.8h-.2l-5-1a.9.9 0 0 1-.7-1c.1-.5.6-.8 1-.7l5 1c.5 0 .8.5.7 1-.1.4-.5.7-.8.7Zm697 .4a.8.8 0 0 1 0-1.7l4.9-1c.5 0 .9.3 1 .7 0 .5-.2 1-.7 1l-5 1h-.1Zm-680.5 2.9h-.1l-5-1a.8.8 0 0 1-.7-1c.1-.5.6-.8 1-.7l5 1c.5 0 .8.5.7 1a1 1 0 0 1-.9.7Zm664 .2a.8.8 0 0 1-.1-1.7l4.9-.9c.4 0 .9.2 1 .7 0 .4-.3.9-.7 1l-5 1h-.2Zm-647.4 3h-.1l-5-1a.9.9 0 0 1 .3-1.6l5 1c.5 0 .8.5.7 1a1 1 0 0 1-.9.7Zm630.7.2a.8.8 0 0 1-.8-.7c-.1-.5.2-1 .6-1l5-1c.5 0 1 .3 1 .7.1.5-.2 1-.7 1l-5 1h-.1Zm-16.6 3.1a.8.8 0 0 1-.8-.7c-.1-.4.2-.9.6-1l5-.9c.5 0 1 .2 1 .7 0 .4-.2.9-.7 1l-5 .9h-.1Zm-597.5 0h-.1l-5-1a.8.8 0 0 1-.7-1c.1-.4.6-.7 1-.6l5 1c.5 0 .8.5.7 1a1 1 0 0 1-.9.7Zm580.9 3.2a.8.8 0 0 1-.9-.7c0-.5.2-1 .7-1l5-1c.4 0 .9.3 1 .7 0 .5-.2 1-.7 1l-5 1h-.1Zm-564.3.2h-.1l-5-1a.8.8 0 0 1-.7-1c.1-.5.6-.8 1-.7l5 1c.5 0 .8.5.7 1a1 1 0 0 1-.9.7Zm547.6 3a.9.9 0 0 1-.8-.8c0-.4.2-.9.7-1l5-1c.4 0 .9.3 1 .8 0 .4-.3.9-.7 1l-5 .9h-.2Zm-531 .3h-.1l-5-1a.8.8 0 0 1-.7-1c.1-.5.6-.8 1-.7l5 1c.5 0 .8.5.7 1a1 1 0 0 1-.9.7Zm514.4 2.8a.8.8 0 0 1-.8-.7c-.1-.5.2-1 .6-1l5-1c.5 0 1 .3 1 .7.1.5-.2 1-.7 1l-5 1h-.1Zm-497.8.5h-.1l-5-1a.8.8 0 0 1-.7-1c.1-.5.6-.8 1-.7l5 1c.5 0 .8.5.7 1a1 1 0 0 1-.9.7Zm481.2 2.6a.8.8 0 0 1-.9-.7c0-.4.3-.9.7-1l5-1a.9.9 0 0 1 .3 1.7l-5 1h-.1Zm-464.6.6h-.1l-5-1a.8.8 0 0 1-.7-1c.1-.4.5-.7 1-.6l5 1c.5 0 .8.5.7 1-.1.4-.5.6-.9.6Zm448 2.5a.8.8 0 0 1-.2-1.7l5-.9c.4 0 .9.2 1 .7 0 .4-.3.9-.7 1l-5 1h-.2Zm-431.4.9h-.1l-5-1a.8.8 0 0 1-.7-1c.1-.5.5-.8 1-.7l5 1c.4 0 .7.5.7 1a1 1 0 0 1-.9.7Zm414.7 2.3a.8.8 0 0 1-.8-.7c-.1-.5.2-1 .7-1l5-1c.4 0 .8.3 1 .8 0 .4-.3.8-.7 1l-5 .9h-.2Zm-398 1h-.2l-5-1a.8.8 0 0 1-.7-1c.1-.5.5-.8 1-.7l5 1c.4 0 .7.5.7 1a1 1 0 0 1-.9.7Zm381.4 2.1a.9.9 0 0 1-.8-.6c-.1-.5.2-1 .6-1l5-1a.9.9 0 0 1 .3 1.7l-5 1h-.1Zm-364.9 1.2h-.1l-5-1a.9.9 0 0 1-.7-1c.1-.5.5-.8 1-.7l5 1a.8.8 0 0 1-.2 1.7Zm348.3 2a.9.9 0 0 1-.9-.7c0-.5.3-1 .7-1l5-1c.5 0 .9.3 1 .7 0 .5-.2 1-.7 1l-5 1h-.1Zm-331.7 1.3h-.1l-5-1a.8.8 0 0 1-.7-1c.1-.5.5-.8 1-.7l5 1c.4 0 .7.5.6 1 0 .4-.4.7-.8.7Zm315 1.8a.8.8 0 0 1-.8-.7c0-.4.2-.9.7-1l5-.9c.4 0 .9.2 1 .7 0 .4-.3.9-.7 1l-5 1h-.2Zm-298.4 1.4h-.2l-5-1a.9.9 0 0 1 .4-1.6l5 1c.4 0 .7.5.6 1 0 .4-.4.6-.8.6Zm281.8 1.8a.8.8 0 0 1-.2-1.7l5-1c.5 0 1 .3 1 .7.1.5-.2 1-.6 1l-5 1h-.2Zm-265.2 1.6h-.2l-5-1a.8.8 0 0 1-.6-1c0-.5.5-.8 1-.7l5 1c.4 0 .7.5.6 1 0 .4-.4.7-.8.7Zm248.6 1.5a.8.8 0 0 1-.9-.7c0-.4.3-.9.7-1l5-.9c.5 0 1 .2 1 .7 0 .4-.2.9-.7 1l-5 .9h-.1Zm-232 1.8h-.2l-5-1a.9.9 0 0 1-.6-1c0-.5.5-.8 1-.7l5 1c.4 0 .7.5.6 1 0 .4-.4.7-.8.7Zm215.4 1.4a.8.8 0 0 1-.9-.7c0-.5.2-1 .7-1l5-1c.4 0 .9.3 1 .7 0 .5-.2 1-.7 1l-5 1h-.1Zm-198.8 1.8h-.2l-5-1a.8.8 0 0 1-.6-1c0-.4.5-.7 1-.6l5 1c.4 0 .7.5.6 1 0 .4-.4.7-.8.7Zm182.1 1.3a.8.8 0 0 1-.8-.7c0-.4.2-.9.7-1l5-1c.4 0 .9.3 1 .8 0 .4-.3.9-.7 1l-5 .9h-.2Zm-165.5 2h-.2l-5-1a.9.9 0 0 1-.6-1c0-.4.5-.7 1-.6l5 1a.8.8 0 0 1-.2 1.7Zm148.9 1.2a.8.8 0 0 1-.8-.7c-.1-.5.2-1 .7-1l5-1c.4 0 .8.3 1 .7 0 .5-.3 1-.8 1l-5 1h-.1Zm-130 2.1h-2.3l-5.1-1a.8.8 0 0 1-.7-1c0-.4.5-.7 1-.6l5 1h2c.5 0 .9.3.9.8s-.4.8-.9.8Zm16.8 0h-5a.8.8 0 1 1 0-1.6h5a.8.8 0 1 1 0 1.6Zm17 0h-5.1a.8.8 0 1 1 0-1.6h5a.8.8 0 1 1 0 1.6Zm16.9 0h-5.1a.8.8 0 1 1 0-1.6h5a.8.8 0 1 1 0 1.6Zm16.9 0h-5a.8.8 0 0 1-1-.8c0-.5.4-.8 1-.8h5a.8.8 0 1 1 0 1.6Zm17 0h-5.2a.8.8 0 1 1 0-1.6h5.1a.8.8 0 1 1 0 1.6Zm16.8 0h-5a.8.8 0 1 1 0-1.6h5a.8.8 0 1 1 0 1.6Zm17 0h-5.1a.8.8 0 1 1 0-1.6h5a.8.8 0 1 1 0 1.6Z"
      fill="#fff"
    />
    <path
      d="M1106.2 4141.5h-111a28.7 28.7 0 0 1-28.5-25.2l-4-33.7-3.7-31.2-.3-1.8-4.8-40c-2-17 11.3-32 28.5-32h133.3c16.8 0 30 14.4 28.6 31l-6.8 76-2.7 30.8a28.7 28.7 0 0 1-28.6 26Zm-129.7-122.6c0 .8 0 1.7.2 2.5l9.7 81.3a21.8 21.8 0 0 0 21.7 19.1h84.4c11.3 0 20.8-8.6 21.8-19.8l7.2-81.2.1-1.9c0-11.9-9.6-21.8-21.8-21.8H998.3c-12.2 0-21.8 10-21.8 21.8"
      fill="url(#r)"
    />
    <path fill="url(#s)" d="M975.3 3996.1h147.4v23.8H975.3z" />
    <path fill="url(#t)" d="M975.3 3996.1h147.4v126.8H975.3z" />
    <path
      d="m3525.8 2214.1 264 531 339.4-754.3-352.5 390.4-251-167"
      fill="url(#u)"
    />
    <path
      d="M2527.8 2386.3c-1.8 5.4 18 13.7 29.8-8.6.4-10.7 6.9-56.5.5-65.2-34-46.3-100-104.5-100-104.5-11.1 11-2 21.8-2 21.8l32 33.3c-6.6 12.1-14.8 22.3-18.6 37-3 11-1.1 22.9 4.5 33a396.4 396.4 0 0 0 20.5 33.6 44.3 44.3 0 0 0 33.3 19.6Z"
      fill="url(#v)"
    />
    <path
      d="m2502.2 2284.8 29.1 24.7 9.2 24.6-26 28.8s-8.8-48.8-15.3-59.3c-6.4-10.6-3-15.7 3-18.8"
      fill="url(#w)"
    />
    <path
      d="M3100.5 4206.6s7.4 41.8 11 83a28.4 28.4 0 0 1-27.2 30.8c-55 2.3-172.6 6.8-214.8 5a9.3 9.3 0 0 1-8.1-12.8c2-5 5.7-9 10.6-11.1l194.2-89.3 34.3-5.6"
      fill="url(#x)"
    />
    <path
      d="m3106.5 4182.1-5.9 50s-34 15.8-57.3-2l14.1-55.7 49.1 7.8"
      fill="url(#y)"
    />
    <path
      d="M3102 3244.3c2.6 13 13.8 650.1-54.3 935.6a9.7 9.7 0 0 0 5.7 11.2c10.4 4.3 31 10.5 55.4 11.3 7.6.3 14.5-4.7 16.6-12 19.5-66.2 112.8-398 125-715 13.5-354.3 0-12.1 0-12.1l-8-219H3102"
      fill="url(#z)"
    />
    <path
      d="M3324 4228.4s11.7 21 23 77c2 10-5 19.8-15.3 20.8-18.1 1.8-46 4-68.4 4a17.5 17.5 0 0 1-17.2-19.4c2.5-20.4 10.3-54 34.1-80l43.7-2.4Z"
      fill="url(#A)"
    />
    <path
      d="m3334.2 4164.2-13.8 75.5s-13.7 10.1-40.7 2.8l6.6-81.2 48 3"
      fill="url(#B)"
    />
    <path
      d="M3371.6 3264c55.7 336-12 830.6-35 927.4-1.3 6-6.1 10.5-12.1 11.5-10.2 1.7-27 3-43.6-1.8a13.9 13.9 0 0 1-10-12.7c-3-78.3 2.5-558.7-49.4-748.6-2.6-9.6-8.5-18-16.6-23.8l-100.7-71.6-7.8-115.8 275.2 35.3"
      fill="url(#C)"
    />
    <path
      d="M3016.7 2627c167-2.7 351 43.9 351 43.9 49.8 290.3 8.8 625 8.8 625-129.2 34-275-20.7-275-20.7-21.4-121.3-121.7-462.7-121.7-462.7a549.7 549.7 0 0 1-204-64.8c42.2-48.9 62.1-111.1 70.8-148 59 18.4 118.7 28.2 170.1 27.4Z"
      fill="url(#D)"
    />
    <path
      d="M2523.8 2381.2c16.4-19.8 37.1-10.4 37.1-10.4 24.6 103.8 153.3 187.9 285.7 229-8.7 36.8-28.6 99-70.8 148-219.6-123.5-252-366.6-252-366.6"
      fill="url(#E)"
    />
    <path
      d="m3303.8 2832.5 64-161.6s155.9 105.9 181.5 240.2a369 369 0 0 0-135.5 36.3c-11.6-63.4-110-115-110-115"
      fill="url(#F)"
    />
    <path
      d="m3185.8 2491.6 53 153.6c1 2.5 0 5.3-2.4 6.6-14.5 8-66.7 31.1-129.5-8.7a26 26 0 0 1-12-18.6l-17.2-133h108"
      fill="url(#G)"
    />
    <path
      d="M3070.2 2349.4s-58.3 109.7-50.8 154c7.5 44.4 79.8 41.2 142.8 5.2l44.2-118.5-136.2-40.7"
      fill="url(#H)"
    />
    <path
      d="M3159.5 2450.4a4.5 4.5 0 0 1-2-6.6 118 118 0 0 0 16.2-34.5s10.5-6.7-26.7-15.6c-37.1-8.9-92.6-22.7-104.2-54.3-11.4-30.8 18.5-108.4 66-46.6a4.5 4.5 0 0 0 7.3 0c7.8-10.1 28.3-31.2 56.8-18.4 26.6 12 29.6 31.5 29.3 41.3a4.5 4.5 0 0 0 5.3 4.6c13.5-2.5 45.8-4.7 61 28.4 12.3 27.4 4.3 42.8-3 50.4a4.5 4.5 0 0 0 1.8 7.5c8.9 2.7 20.3 10.2 19.2 31-1.6 28.7-33.7 26.1-42.8 24.8-1.5-.2-3 .3-4 1.4-7.8 8.7-43.1 45.5-81.3 50a4.6 4.6 0 0 1-4.8-6l16.5-48.1c.8-2.3-.3-4.7-2.4-5.7l-8.2-3.6"
      fill="url(#I)"
    />
    <path
      d="M3152.8 2457.2s41.5-28.4 44.6-4.5c3 24-37.4 34.8-57.4 25.8l12.8-21.3Z"
      fill="url(#J)"
    />
    <path
      d="M3413.8 2947.4s54.5 245.8 5.1 384l49.3 22.8s119.8-349.8 81.1-443.1c-76.2-8-114 12.4-135.5 36.3Z"
      fill="url(#K)"
    />
    <path
      d="M3419 3331.4s-31.3 40.4-28.8 56.4c2.5 16.1 3.1 22.7 3.1 22.7s15.7-10.8 14.7-24.4c-2.2 43.4-16.7 92.8-3.5 90.5 13.2-2.4 81.7-65.5 66.2-132.8-35.1-24.4-45-21.8-51.8-12.4"
      fill="url(#L)"
    />
    <defs>
      <linearGradient
        id="a"
        x1="2062.7"
        y1="4086.7"
        x2="1880.8"
        y2="-1298"
        gradientUnits="userSpaceOnUse"
      >
        <stop stopColor="#09005D" />
        <stop offset="1" stopColor="#1A0F91" />
      </linearGradient>
      <linearGradient
        id="b"
        x1="1550.7"
        y1="1671.6"
        x2="2051.6"
        y2="305.4"
        gradientUnits="userSpaceOnUse"
      >
        <stop stopColor="#FF928E" />
        <stop offset="1" stopColor="#FE7062" />
      </linearGradient>
      <linearGradient
        id="c"
        x1="1669.1"
        y1="1715"
        x2="2170.1"
        y2="348.9"
        gradientUnits="userSpaceOnUse"
      >
        <stop stopColor="#FF928E" />
        <stop offset="1" stopColor="#FE7062" />
      </linearGradient>
      <linearGradient
        id="d"
        x1="1719.7"
        y1="2252.1"
        x2="999.4"
        y2="3481.4"
        gradientUnits="userSpaceOnUse"
      >
        <stop stopColor="#E1473D" />
        <stop offset="1" stopColor="#E9605A" />
      </linearGradient>
      <linearGradient
        id="e"
        x1="1851.5"
        y1="2329.3"
        x2="1131.3"
        y2="3558.6"
        gradientUnits="userSpaceOnUse"
      >
        <stop stopColor="#E1473D" />
        <stop offset="1" stopColor="#E9605A" />
      </linearGradient>
      <linearGradient
        id="f"
        x1="1962.4"
        y1="2632.4"
        x2="1014.7"
        y2="3953.7"
        gradientUnits="userSpaceOnUse"
      >
        <stop stopColor="#E1473D" />
        <stop offset="1" stopColor="#E9605A" />
      </linearGradient>
      <linearGradient
        id="g"
        x1="2095.7"
        y1="1281.1"
        x2="1375.4"
        y2="2510.4"
        gradientUnits="userSpaceOnUse"
      >
        <stop stopColor="#E1473D" />
        <stop offset="1" stopColor="#E9605A" />
      </linearGradient>
      <linearGradient
        id="h"
        x1="2347.8"
        y1="331"
        x2="1438"
        y2="1527.8"
        gradientUnits="userSpaceOnUse"
      >
        <stop stopColor="#09005D" />
        <stop offset="1" stopColor="#1A0F91" />
      </linearGradient>
      <linearGradient
        id="i"
        x1="2447.6"
        y1="406.9"
        x2="1537.8"
        y2="1603.7"
        gradientUnits="userSpaceOnUse"
      >
        <stop stopColor="#09005D" />
        <stop offset="1" stopColor="#1A0F91" />
      </linearGradient>
      <linearGradient
        id="j"
        x1="2721.6"
        y1="3057.4"
        x2="4978.7"
        y2="1507.3"
        gradientUnits="userSpaceOnUse"
      >
        <stop stopColor="#4F52FF" />
        <stop offset="1" stopColor="#4042E2" />
      </linearGradient>
      <linearGradient
        id="k"
        x1="932.7"
        y1="4860.9"
        x2="1014.7"
        y2="4257.5"
        gradientUnits="userSpaceOnUse"
      >
        <stop stopColor="#4F52FF" />
        <stop offset="1" stopColor="#4042E2" />
      </linearGradient>
      <linearGradient
        id="l"
        x1="869"
        y1="3111.8"
        x2="866.7"
        y2="3480.6"
        gradientUnits="userSpaceOnUse"
      >
        <stop stopColor="#4F52FF" />
        <stop offset="1" stopColor="#4042E2" />
      </linearGradient>
      <linearGradient
        id="m"
        x1="868.6"
        y1="3111.8"
        x2="866.3"
        y2="3480.6"
        gradientUnits="userSpaceOnUse"
      >
        <stop stopColor="#4F52FF" />
        <stop offset="1" stopColor="#4042E2" />
      </linearGradient>
      <linearGradient
        id="n"
        x1="1215.4"
        y1="3113.9"
        x2="1213.1"
        y2="3482.8"
        gradientUnits="userSpaceOnUse"
      >
        <stop stopColor="#4F52FF" />
        <stop offset="1" stopColor="#4042E2" />
      </linearGradient>
      <linearGradient
        id="o"
        x1="1215"
        y1="3113.9"
        x2="1212.7"
        y2="3482.8"
        gradientUnits="userSpaceOnUse"
      >
        <stop stopColor="#4F52FF" />
        <stop offset="1" stopColor="#4042E2" />
      </linearGradient>
      <linearGradient
        id="p"
        x1="1063.8"
        y1="3405.9"
        x2="1029.3"
        y2="3659.3"
        gradientUnits="userSpaceOnUse"
      >
        <stop stopColor="#4F52FF" />
        <stop offset="1" stopColor="#4042E2" />
      </linearGradient>
      <linearGradient
        id="q"
        x1="1074.3"
        y1="3603.3"
        x2="947.6"
        y2="4785.8"
        gradientUnits="userSpaceOnUse"
      >
        <stop stopColor="#4F52FF" />
        <stop offset="1" stopColor="#4042E2" />
      </linearGradient>
      <linearGradient
        id="r"
        x1="1018.7"
        y1="3154.8"
        x2="1034.6"
        y2="3601.1"
        gradientUnits="userSpaceOnUse"
      >
        <stop stopColor="#09005D" />
        <stop offset="1" stopColor="#1A0F91" />
      </linearGradient>
      <linearGradient
        id="u"
        x1="3438.5"
        y1="2745"
        x2="5064.4"
        y2="777.5"
        gradientUnits="userSpaceOnUse"
      >
        <stop stopColor="#FF928E" />
        <stop offset="1" stopColor="#FE7062" />
      </linearGradient>
      <linearGradient
        id="v"
        x1="2351"
        y1="2558.3"
        x2="2740.9"
        y2="2464.8"
        gradientUnits="userSpaceOnUse"
      >
        <stop stopColor="#9F5013" />
        <stop offset="1" stopColor="#FFC3A2" />
      </linearGradient>
      <linearGradient
        id="w"
        x1="2453.7"
        y1="2433.3"
        x2="2615.3"
        y2="2395.5"
        gradientUnits="userSpaceOnUse"
      >
        <stop stopColor="#9F5013" />
        <stop offset="1" stopColor="#FFC3A2" />
      </linearGradient>
      <linearGradient
        id="x"
        x1="2875.7"
        y1="4149"
        x2="3586.9"
        y2="4922.7"
        gradientUnits="userSpaceOnUse"
      >
        <stop stopColor="#09005D" />
        <stop offset="1" stopColor="#1A0F91" />
      </linearGradient>
      <linearGradient
        id="y"
        x1="2984.1"
        y1="4296.1"
        x2="3191.1"
        y2="4212.8"
        gradientUnits="userSpaceOnUse"
      >
        <stop stopColor="#9F5013" />
        <stop offset="1" stopColor="#FFC3A2" />
      </linearGradient>
      <linearGradient
        id="z"
        x1="5727.2"
        y1="779.7"
        x2="2106.4"
        y2="4851.3"
        gradientUnits="userSpaceOnUse"
      >
        <stop stopColor="#09005D" />
        <stop offset="1" stopColor="#1A0F91" />
      </linearGradient>
      <linearGradient
        id="A"
        x1="3035.2"
        y1="4002.3"
        x2="3746.5"
        y2="4776"
        gradientUnits="userSpaceOnUse"
      >
        <stop stopColor="#09005D" />
        <stop offset="1" stopColor="#1A0F91" />
      </linearGradient>
      <linearGradient
        id="B"
        x1="3228.5"
        y1="4320.6"
        x2="3422.5"
        y2="4269"
        gradientUnits="userSpaceOnUse"
      >
        <stop stopColor="#9F5013" />
        <stop offset="1" stopColor="#FFC3A2" />
      </linearGradient>
      <linearGradient
        id="C"
        x1="5781"
        y1="827.6"
        x2="2160.3"
        y2="4899.2"
        gradientUnits="userSpaceOnUse"
      >
        <stop stopColor="#09005D" />
        <stop offset="1" stopColor="#1A0F91" />
      </linearGradient>
      <linearGradient
        id="D"
        x1="3715.8"
        y1="1073.7"
        x2="3114.7"
        y2="2904.4"
        gradientUnits="userSpaceOnUse"
      >
        <stop stopColor="#FF928E" />
        <stop offset="1" stopColor="#FE7062" />
      </linearGradient>
      <linearGradient
        id="E"
        x1="2220.9"
        y1="3088.7"
        x2="3317.3"
        y2="2707.7"
        gradientUnits="userSpaceOnUse"
      >
        <stop stopColor="#9F5013" />
        <stop offset="1" stopColor="#FFC3A2" />
      </linearGradient>
      <linearGradient
        id="F"
        x1="3987.6"
        y1="1163"
        x2="3386.5"
        y2="2993.6"
        gradientUnits="userSpaceOnUse"
      >
        <stop stopColor="#FF928E" />
        <stop offset="1" stopColor="#FE7062" />
      </linearGradient>
      <linearGradient
        id="G"
        x1="3239.2"
        y1="2578.7"
        x2="3077.7"
        y2="2578.7"
        gradientUnits="userSpaceOnUse"
      >
        <stop stopColor="#DA9167" />
        <stop offset="1" stopColor="#FFBC96" />
      </linearGradient>
      <linearGradient
        id="H"
        x1="3039.3"
        y1="2475.9"
        x2="3216.8"
        y2="2367.6"
        gradientUnits="userSpaceOnUse"
      >
        <stop stopColor="#DA9167" />
        <stop offset="1" stopColor="#FAB690" />
      </linearGradient>
      <linearGradient
        id="I"
        x1="3310.8"
        y1="2253.5"
        x2="3081.4"
        y2="2434.7"
        gradientUnits="userSpaceOnUse"
      >
        <stop stopColor="#09005D" />
        <stop offset="1" stopColor="#1A0F91" />
      </linearGradient>
      <linearGradient
        id="J"
        x1="3085.9"
        y1="2516.3"
        x2="3245.7"
        y2="2418.9"
        gradientUnits="userSpaceOnUse"
      >
        <stop stopColor="#9F5013" />
        <stop offset="1" stopColor="#FFC3A2" />
      </linearGradient>
      <linearGradient
        id="K"
        x1="3279.4"
        y1="3755.1"
        x2="3815.4"
        y2="3684.7"
        gradientUnits="userSpaceOnUse"
      >
        <stop stopColor="#9F5013" />
        <stop offset="1" stopColor="#FFC3A2" />
      </linearGradient>
      <linearGradient
        id="L"
        x1="3312.3"
        y1="3613.3"
        x2="3613"
        y2="3546.4"
        gradientUnits="userSpaceOnUse"
      >
        <stop stopColor="#9F5013" />
        <stop offset="1" stopColor="#FFC3A2" />
      </linearGradient>
      <pattern
        id="s"
        patternContentUnits="objectBoundingBox"
        width="1"
        height="1"
      >
        <use transform="scale(.00435 .02703)" />
      </pattern>
      <pattern
        id="t"
        patternContentUnits="objectBoundingBox"
        width="1"
        height="1"
      >
        <use transform="scale(.00435 .00505)" />
      </pattern>
    </defs>
  </svg>