<svg width="117" height="43" viewBox="0 0 117 43" fill="none" xmlns="http://www.w3.org/2000/svg">
<path d="M48.354 37.763C48.8104 37.3037 49.272 36.8138 49.7335 36.3188C50.5596 35.3371 51.4545 34.4162 52.4114 33.5632C52.6889 33.3102 52.982 33.075 53.2888 32.8589C53.3649 32.7824 53.3649 32.6191 53.446 32.5374C53.0454 32.7007 52.8019 33.0478 52.4012 33.1855C52.3201 33.1855 52.244 33.1039 52.3201 33.0222L53.1823 32.3741H53.1265C53.0454 32.3741 53.0454 32.2976 53.0454 32.2159C52.0006 32.0526 51.1942 32.7824 50.474 33.4254C50.3117 33.507 50.1494 33.3488 50.0733 33.3488C48.8662 33.752 47.9838 34.8032 46.7767 35.288V35.1094C46.2949 35.2727 45.8232 35.5636 45.3312 35.6759C44.6606 35.7841 43.9796 35.8115 43.3025 35.7575C42.3198 35.8706 41.3444 36.041 40.3812 36.2678H40.3001C39.7698 36.4059 39.2587 36.6099 38.7785 36.8751L38.7228 36.9057C38.6881 36.9536 38.6508 36.9996 38.6112 37.0435C38.4607 37.2473 38.2731 37.4204 38.0584 37.5538C37.5787 37.8568 37.1317 38.2091 36.7245 38.605C36.6882 38.633 36.6434 38.6474 36.5977 38.6459C36.1666 39.0643 35.7406 39.4828 35.2993 39.891C35.2238 39.928 35.1382 39.9388 35.0559 39.9216V39.9216C35.071 39.895 35.088 39.8694 35.1066 39.8451C35.1725 39.7277 35.2385 39.6155 35.3095 39.5032C35.3805 39.3909 35.4667 39.2531 35.5478 39.1256C35.629 38.998 35.771 38.7939 35.8927 38.6152C35.9067 38.6009 35.9145 38.5817 35.9145 38.5617C35.9145 38.5416 35.9067 38.5224 35.8927 38.5081C35.8623 38.4803 35.8222 38.4657 35.7811 38.4673C36.1921 38.0781 36.6446 37.7359 37.1302 37.4466V37.4466C37.0744 37.4466 36.9984 37.4466 37.0389 37.3701C37.0795 37.2935 37.1302 37.2221 37.1759 37.1456L37.2063 37.0741L37.1454 37.0129C37.0109 37.0895 36.8835 37.1783 36.7651 37.2782C36.5723 37.4517 36.4202 37.7885 36.1311 37.7885H36.0094C35.9786 37.7854 35.949 37.7749 35.9232 37.7579V37.7579C35.9347 37.733 35.9483 37.7092 35.9637 37.6865L35.9992 37.6201L36.0297 37.564L36.0854 37.4619L36.1311 37.3854C36.1615 37.3242 36.197 37.268 36.2325 37.2068L36.2832 37.12L36.3695 36.9771C36.41 36.9057 36.3695 36.8547 36.3086 36.8292C36.4564 36.633 36.6429 36.4697 36.8564 36.3495V36.3495C37.1607 36.1913 37.47 36.0025 37.7794 35.8392L37.9113 35.7218C37.4594 35.8773 37.0297 36.0917 36.6332 36.3597C36.5846 36.3773 36.5386 36.4014 36.4963 36.4311C36.4592 36.4395 36.4205 36.4373 36.3846 36.4246C36.3488 36.412 36.3172 36.3895 36.2934 36.3597C36.2875 36.3397 36.2875 36.3184 36.2934 36.2984C36.3745 36.1351 36.6129 36.0535 36.8006 35.8953C36.8817 35.8953 36.9578 35.8953 36.9578 35.9769C39.5342 33.9357 43.0439 34.446 46.0413 33.3897L46.7665 32.8793C47.1672 32.7212 47.4867 32.318 47.9736 32.0731C48.6212 31.6217 49.1011 30.9664 49.3379 30.2104C49.3283 30.1503 49.2999 30.0949 49.2568 30.0522C48.242 31.1489 47.0395 32.0529 45.7065 32.7212C44.0177 33.6091 42.1563 33.4458 40.4015 33.6907C40.4827 33.5274 40.6399 33.5274 40.8022 33.5274C40.8022 33.2876 40.9645 33.2059 41.1268 33.0426H41.3651C41.4463 33.0426 41.4463 32.8793 41.5274 32.8793C41.6847 32.8793 41.9281 32.8028 41.8469 32.8028C41.6086 32.4762 41.1268 33.0426 40.721 32.8028C40.8833 32.6395 40.8022 32.3946 40.9645 32.318H41.284C41.3011 32.1942 41.3581 32.0795 41.4463 31.9914C42.6534 31.2617 43.7793 30.7003 44.9001 30.0522C44.6618 30.0522 44.4995 30.2921 44.2611 30.1339C44.4183 30.1339 44.2611 29.8889 44.4183 29.8889C45.3059 29.6491 46.0261 29.1592 46.9136 28.8377C46.589 28.8377 46.3507 29.0826 46.0261 28.8377C46.1884 28.756 46.2695 28.5978 46.5332 28.5978V28.3529C46.5332 28.2712 46.6144 28.2712 46.6955 28.2712C46.634 28.2626 46.577 28.2339 46.5332 28.1896C46.6144 28.0314 46.8578 28.1079 47.0404 27.9497C46.9643 27.9497 46.802 27.9497 46.802 27.8681C47.0787 27.582 47.4509 27.4092 47.8468 27.3833C47.7657 27.22 47.5222 27.3833 47.5222 27.22C47.5222 27.1383 47.6034 27.1383 47.6845 27.1383H47.5222C47.365 27.0567 47.4462 26.8985 47.4462 26.8169C47.9533 26.2504 47.9533 25.5207 48.1663 24.8777C48.0852 24.8777 48.0091 24.8777 48.0091 24.796C47.2027 25.684 45.9196 26.0055 44.7125 26.327H44.2763C44.0554 26.4121 43.819 26.4488 43.5829 26.4348C43.3467 26.4207 43.1163 26.3561 42.9069 26.2453C42.6157 26.0454 42.344 25.8181 42.0955 25.5666C41.4597 25.1639 40.7787 24.8384 40.0668 24.597C38.0697 23.9403 35.974 23.6398 33.8742 23.7091C34.7617 23.1987 35.7355 23.1987 36.689 22.8977C38.0533 22.4945 39.3415 22.0097 40.787 22.0914C40.5214 22.0505 40.2512 22.0505 39.9856 22.0914C38.8597 22.0097 37.7338 22.3312 36.5267 22.6017C35.7254 22.7599 35.0052 23.0865 34.1988 23.2498C33.7169 23.408 33.4735 23.8928 32.9105 23.8162V23.5713C33.7169 22.6017 34.6806 21.6321 35.9536 21.53C37.4041 21.2851 38.7684 21.53 40.2138 21.6882C41.2408 21.8007 42.2579 21.9901 43.2569 22.2547C43.6626 22.2547 43.7641 22.9028 44.0633 22.9844C44.5705 23.1477 45.0269 22.9844 45.5087 23.3059C45.5087 23.1477 45.4276 22.9844 45.5087 22.8211C45.8333 22.4996 46.234 22.9028 46.5535 22.7395C47.1976 22.3363 45.9906 21.6117 45.671 21.0452C45.6796 20.9833 45.7081 20.926 45.7522 20.8819C46.3912 21.4484 46.8781 22.0965 47.6795 22.4996C48.0801 22.6629 49.0438 22.9028 48.8865 22.418C48.4859 21.53 47.6795 20.8003 47.0353 19.994V19.6674C46.8781 19.6674 46.8781 19.5857 46.797 19.5092V19.1826C46.4724 19.0193 46.5535 18.6978 46.3912 18.458C46.1529 18.0497 46.3152 17.4833 46.1529 16.9985C46.0057 16.5514 45.8988 16.092 45.8333 15.6257C45.6457 14.2428 45.3211 13.0333 45.1385 11.7372C44.9762 10.2062 46.021 8.98658 46.7463 7.61384C47.2694 6.5751 48.0438 5.6854 48.9981 5.02657C49.3138 4.0638 49.8329 3.18118 50.5196 2.43929C51.2156 1.72008 52.0631 1.16725 52.9997 0.821601C53.7046 0.50862 54.4258 0.23435 55.1603 0L0 0V42.7947H39.0524C40.5739 41.6873 42.0955 41.1617 44.2459 40.1003C45.2653 39.6001 47.5729 38.5387 48.354 37.763ZM36.0094 31.9557C35.8521 31.9557 35.5022 32.0373 35.6087 31.874C35.6899 31.4709 36.2528 31.4709 36.5723 31.3076C36.7346 31.2259 36.973 31.0677 37.1353 31.1494C37.2976 31.3892 37.536 31.3076 37.6983 31.4709C37.2012 31.9557 36.5571 31.7158 36.0094 31.9557ZM23.7003 30.1747C23.6559 30.1329 23.6272 30.0771 23.6191 30.0165C24.606 28.7285 25.4671 27.3476 26.1905 25.8932C27.2104 25.2879 28.128 24.523 28.9089 23.6274C30.1757 22.1667 31.7012 20.9554 33.4076 20.0552C34.0921 19.8381 34.8301 19.8651 35.4971 20.1318C35.2588 20.4584 34.853 20.3767 34.5335 20.6421C34.4898 20.6475 34.4455 20.6434 34.4036 20.6302C34.3616 20.617 34.3229 20.595 34.2901 20.5655C34.3208 20.5333 34.344 20.4946 34.358 20.4523C34.3721 20.4099 34.3766 20.3649 34.3712 20.3206C33.5699 21.2085 32.4439 21.6168 31.7998 22.668C31.3332 23.4743 31.0137 24.4949 29.9689 24.7603C29.6443 24.8419 30.0501 24.5153 29.8878 24.597C27.3874 26.133 25.6275 27.9957 23.7003 30.1747ZM30.3696 24.8419C30.2884 25.0001 30.2022 25.0206 30.1262 25.1634C30.0655 25.3085 29.9508 25.4239 29.8066 25.4849C29.7255 25.4849 29.6443 25.4849 29.6443 25.4033C29.6833 25.2381 29.7627 25.0854 29.8751 24.9588C29.9876 24.8323 30.1297 24.736 30.2884 24.6786C30.3696 24.6786 30.3696 24.7603 30.3696 24.8419ZM34.1024 36.9567C34.0543 37.0486 33.9868 37.1287 33.9046 37.1915C34.006 37.1915 34.077 37.2578 34.0111 37.3191C33.8397 37.5012 33.6324 37.6455 33.4025 37.7426C33.3604 37.7486 33.3178 37.7486 33.2757 37.7426C33.1793 37.8396 33.0779 37.9314 32.9765 38.0233C32.875 38.1151 32.4389 38.0233 32.5758 37.9263C32.7127 37.8294 32.9663 37.5487 33.1692 37.365C33.2808 37.2578 33.4025 37.1609 33.5039 37.0435C33.5534 36.9751 33.6113 36.9134 33.6764 36.8598C33.7423 36.8343 34.1683 36.7985 34.1024 36.9567V36.9567ZM32.662 36.2882C32.3628 36.5026 32.0636 36.7169 31.744 36.9006C31.4245 37.0843 31.0391 37.2578 30.684 37.4109C30.6688 37.39 30.6465 37.3753 30.6213 37.3697C30.5961 37.3641 30.5697 37.3678 30.5471 37.3803C30.2513 37.5477 29.9799 37.7555 29.7407 37.9978C29.701 38.0326 29.6637 38.0701 29.6291 38.11L29.5175 38.2223C29.4618 38.2784 29.406 38.3346 29.34 38.4111C29.3128 38.4557 29.2765 38.4939 29.2335 38.5234C29.1828 38.554 29.0459 38.554 29.0611 38.4622L28.9191 38.5336C28.8752 38.5543 28.8328 38.5782 28.7923 38.605C28.7741 38.5998 28.7547 38.5998 28.7365 38.605C28.7186 38.5979 28.6986 38.5979 28.6807 38.605C28.5793 38.6816 28.4829 38.7632 28.3865 38.85C28.2181 39.0061 28.0636 39.1768 27.925 39.3603V39.3603L27.8997 39.3909V39.4266L27.8439 39.5032C27.8258 39.5213 27.8029 39.5337 27.7779 39.5389L27.7475 39.4879C27.7379 39.475 27.7294 39.4614 27.7221 39.4471C27.7221 39.4062 27.6765 39.3654 27.6562 39.3195C27.6544 39.3059 27.6544 39.2922 27.6562 39.2787C27.7424 39.1868 27.8236 39.0898 27.9098 38.9878L27.9909 38.8857L27.996 38.7837L28.0417 38.7224C28.133 38.605 28.2141 38.4928 28.2953 38.3805L28.3308 38.3295C28.3713 38.2733 28.4068 38.2121 28.4423 38.156C28.4741 38.1032 28.5029 38.0487 28.5286 37.9927V37.9927V37.962L28.6046 37.7732C28.6025 37.7546 28.6025 37.7358 28.6046 37.7171C28.603 37.6882 28.603 37.6592 28.6046 37.6303V37.6303L28.6351 37.513C28.6391 37.5042 28.6412 37.4946 28.6412 37.4849C28.6412 37.4752 28.6391 37.4656 28.6351 37.4568C28.7273 37.3006 28.8343 37.1536 28.9546 37.018L28.9191 37.0435C28.8024 37.1149 28.7263 37.2221 28.6198 37.2986C28.5133 37.3752 28.3713 37.2578 28.4728 37.1813C28.537 37.129 28.598 37.0728 28.6553 37.0129V37.0129C28.7833 36.868 28.9206 36.7316 29.0662 36.6046C29.1574 36.5383 29.2386 36.477 29.3096 36.4158C29.3239 36.4066 29.336 36.3944 29.3451 36.3801C29.4018 36.3084 29.4628 36.2403 29.5277 36.176V36.176C30.2935 35.4258 31.5919 35.4615 32.6062 34.9869C33.0069 34.8236 33.4887 35.0635 33.8894 34.9869C34.1416 34.9628 34.395 35.018 34.6146 35.1451C33.9807 35.4258 33.3213 35.8749 32.662 36.2882ZM34.3053 30.6748C34.2292 30.5932 34.5487 30.6748 34.6299 30.5115H33.9807C33.8995 30.5115 33.8995 30.4299 33.8995 30.3482C33.4989 30.4299 33.017 30.5932 32.6164 30.6748C32.0534 30.833 31.5716 31.2361 30.9275 31.3994C30.045 31.726 29.3197 32.4507 28.3561 32.7773C28.275 32.7773 28.275 32.6956 28.275 32.614C28.3561 32.369 28.6756 32.2925 28.8379 32.0475C28.8379 31.9659 28.8379 31.8842 28.7568 31.8842C29.4009 30.9963 30.2783 30.5115 31.0898 29.7818V29.5419C31.3282 29.2153 31.7288 29.0571 31.8911 28.6489C32.0558 28.3108 32.3451 28.0508 32.6975 27.9242C32.6164 27.8426 32.4541 27.8426 32.4541 27.6793C32.1346 27.6793 31.81 27.8426 31.4904 27.5976C31.6327 27.4607 31.8072 27.3623 31.9976 27.3119C31.9241 27.2975 31.8588 27.2556 31.815 27.1945C31.7339 27.0312 31.9723 26.8526 32.2157 26.7913C32.5403 26.7097 32.941 26.7097 33.1844 26.4647C32.6214 26.3882 31.9773 26.628 31.4144 26.3065C31.7601 25.2674 32.4853 24.3991 33.4431 23.8775C33.5242 23.8775 33.6865 23.8775 33.6865 23.9591C33.6934 24.1495 33.6322 24.3361 33.514 24.485C33.3959 24.6339 33.2285 24.7352 33.0424 24.7705C33.7021 24.8521 34.3494 25.0149 34.9697 25.2553C34.8885 25.4135 34.7313 25.337 34.6501 25.337C35.0508 25.5768 35.5326 25.4135 35.9333 25.7401C35.6949 25.9799 35.4261 25.7401 35.2131 25.7401C37.7033 26.4647 40.3559 27.0312 42.4454 28.6489C40.6803 29.459 38.8163 30.0305 36.902 30.3482C36.6841 30.3618 36.4656 30.3341 36.2579 30.2666C36.2579 30.3482 36.2579 30.5115 36.1767 30.5115C35.8991 30.4781 35.6182 30.5353 35.3754 30.6748C35.2138 30.7736 35.028 30.8251 34.8389 30.8233C34.6498 30.8215 34.465 30.7665 34.3053 30.6646V30.6748Z" fill="#000091"/>
<path d="M116.97 0H71.2124C71.3651 0.0511703 71.5114 0.119653 71.6486 0.204124L72.7999 0.821601C73.4118 1.10867 73.9369 1.55424 74.3214 2.11269C74.4786 2.35764 74.7221 2.84243 74.5598 3.16393C74.3975 3.57218 74.3214 4.21517 73.9157 4.37847C73.3823 4.59732 72.7969 4.65409 72.2319 4.54177C71.9036 4.52701 71.5783 4.47217 71.2632 4.37847C72.4702 4.86327 73.5962 5.42971 74.3975 6.5626C74.4786 6.7259 74.8032 6.80755 75.1228 6.80755C75.2039 6.80755 75.2039 6.96575 75.2039 7.0474C75.0416 7.2107 74.8844 7.29235 74.9605 7.53219H75.2039C75.6046 7.36889 75.5234 6.5626 76.0864 6.80755C76.2835 6.92954 76.4269 7.12267 76.4872 7.34746C76.5475 7.57226 76.5203 7.81174 76.411 8.01699C76.1085 8.31122 75.7847 8.58243 75.4423 8.82838C75.4048 8.91803 75.3854 9.01433 75.3854 9.11161C75.3854 9.20888 75.4048 9.30518 75.4423 9.39483C75.6459 9.68456 75.7843 10.0154 75.848 10.3644C76.0864 10.9309 76.1675 11.579 76.411 12.1403C76.7906 13.3169 76.9807 14.5469 76.9739 15.7839C76.9739 16.4269 76.6493 16.9934 76.8928 17.6415C77.105 18.2473 77.4022 18.8195 77.7753 19.3408C78.0967 19.7516 78.3915 20.1829 78.6578 20.6319C79.1396 21.4433 80.0271 22.2496 79.6265 23.2243C79.383 23.7907 78.5005 23.7346 77.9376 24.0306C77.4558 24.4337 77.8564 25.0818 78.0948 25.4849C78.5005 26.2147 77.613 26.6995 77.05 26.9444C77.2123 27.1843 77.5572 27.1026 77.613 27.2659C77.6941 27.6691 78.0948 27.914 77.8564 28.3172C77.5318 28.802 76.5682 29.0469 77.05 29.7716C77.3746 30.338 77.1667 30.9657 76.9739 31.5525C76.8519 31.8605 76.6552 32.133 76.4019 32.3451C76.1486 32.5572 75.8466 32.7022 75.5234 32.7671C75.029 32.911 74.5081 32.9372 74.0019 32.8436C73.8471 32.7525 73.6736 32.6984 73.4947 32.6854C72.1304 32.5221 70.7611 32.119 69.3968 32.119C69.0098 32.1796 68.6317 32.2875 68.2708 32.4405C67.9213 32.7001 67.5955 32.9904 67.2971 33.308V33.308L67.1246 33.5019L67.0181 33.6295C67.0181 33.6295 66.9725 33.6805 66.9522 33.7112C66.7185 34.0065 66.5066 34.3186 66.3182 34.645L66.2827 34.7063L66.2219 34.8185C65.9666 35.2901 65.7626 35.788 65.6132 36.3035C65.0655 38.156 65.3039 39.743 65.6893 40.1309C65.7958 40.238 68.3418 41.029 70.1169 41.82C70.7726 42.1002 71.4081 42.4258 72.0188 42.7947H116.949L116.97 0Z" fill="#E1000F"/>
<path d="M73.9359 15.6105C74.2554 15.6921 74.7373 15.6921 74.7373 15.8554C74.58 16.5035 73.6113 16.6617 73.1295 17.3098H72.8911C72.6477 17.4731 72.7288 17.8762 72.4854 17.8762C72.243 17.8221 71.9895 17.8508 71.7652 17.9579C71.9086 18.1369 72.0941 18.2772 72.3047 18.3663C72.5154 18.4554 72.7448 18.4904 72.9723 18.4682C73.0395 18.4931 73.0979 18.5374 73.1403 18.5954C73.1826 18.6535 73.2071 18.7228 73.2107 18.7948C73.2729 18.7887 73.3307 18.7596 73.3729 18.7131C73.4541 18.7131 73.5352 18.7131 73.5352 18.7948V19.1163C73.2918 19.4378 72.8911 19.2796 72.5665 19.3561C73.1729 19.5196 73.8114 19.5196 74.4177 19.3561C74.9249 19.1979 74.4177 18.3865 74.7373 17.9834C74.58 17.9834 74.7373 17.7436 74.58 17.7436C74.7373 17.5803 74.8996 17.3353 75.0618 17.2332C75.1555 17.2359 75.2484 17.2155 75.3324 17.1737C75.4164 17.1319 75.489 17.07 75.5437 16.9934C75.5437 16.8301 75.2191 16.7484 75.3002 16.5902C75.782 16.2636 76.1827 15.7789 76.0255 15.2941C75.9443 15.0542 75.3002 15.0542 74.8995 14.8909C74.4455 14.7978 73.9751 14.8259 73.5352 14.9726C73.1236 15.0407 72.7194 15.1484 72.3282 15.2941C71.7819 15.4827 71.2684 15.7565 70.8066 16.1055C71.3803 15.8877 71.9706 15.717 72.5716 15.5951C73.0252 15.542 73.4836 15.5471 73.9359 15.6105V15.6105Z" fill="#9D9D9C"/>
</svg>
