<svg xmlns="http://www.w3.org/2000/svg" xml:space="preserve" id="Calque_1" x="0" y="0" style="enable-background:new 0 0 79.41 93.61" version="1.1" viewBox="0 0 79.4 93.6"><style>.st0{fill:#004a99}</style><path d="M0 93.6h79.4V0H0v93.6z" class="st0"/><path d="M1.8 91.8h75.8v-90H1.8v90z" style="fill:#fff"/><path d="M24.1 52.6a18.8 18.8 0 0 0 34.3-13.4 18.8 18.8 0 0 0-8.7-13 18.7 18.7 0 0 0-9.9-2.8 18.8 18.8 0 0 0-15.7 29.2z" style="fill:#8f9ace"/><path d="m49.6 26.8-2.9.6 2 1.2.7-.8.8-.6-.6-.4zm0-.6c4.6 2.8 8 7.5 8.8 13l-1.5 1.3-1-.2-.3.4v.3l.1.7c.2.7.3 1.5.3 2.2 0 .7 0 1-.2 1.6H55l-2.2-1.9-1.7.4-1.1-.2-1.4.5.6.5 1-.3 1 .8-.1.3-.4.6-.8 1.2-1.3 1L46 46h-.6l2.6 3 1-.2.3.5-1 1.8-2.1 1.9-1 2.3s0 .2-.2.2l-1 .8a44.4 44.4 0 0 1-2.3 1.9l-1.7 1a7 7 0 0 1-3 .7c-.8 0-1.4 0-2-.3h-.2l.4-1.3 1.1-1.3c.4-.4.6-.8.8-1.4l.6-1.5c.4-.7.6-1.3.5-1.4L35.6 50l-1.1-2v-.5l1-2c.2-.5.5-.8.7-1l1.8-.8 3.5.5 1 .7h.5l2.2.5.5-1.4-2.7-.7-1-1 .4 1.2h-.6.2s-.2-.8-.6-1l-.4-.1c-.2 0-.6.1-.7.3-.6.5-1 .9-1.1.8l-1.1-.8.4-1h.5c.3 0 .5-.1.6-.3 0-.3-.2-.4-.2-.4V40.7l.7.1c.3 0 .6 0 .7-.2l.3-.4.4-.1.1-.6h.3l.2.5.8-.2.2-.8-.1-.1.3-.8-.3-.2-.5 1.4h-.2L42 39h-.7l-.4-.6.9-.8.8-1.1 1.2.3.3.6h.3v-.9l.9-.9-.7-2.8.4-1h.5v-.6l-3-3.4.1-1 2.5-.5.4.1 1.4-.1.4.1 2.3-.2zM24.2 52.6l1.3-1 1 .2 3-2.2v-1.1l-1.8-2.7s-.1-1.8-.5-3l-.7-2.7-.2-.5-1.8-2.7 1.2-3h.9v-.4L26 33v-.6c0-.4.5-.8 1-.8h.3l.8.6.8 1.8-.6.6-.3.8.4.3.6-1 2.6.8 1.6 1 .5-.6 1.4.1 1-1.3-1-.4 1-1-.1-.5-1.4-.2 1-1.2 1 .7v.3h.7l.6-1-.4-.3 1.7-1.6 1.5-.7 1.1-.8.3-.2V27l-.2-.6-.5-.2.6-.5-.1-.1c-.5.3-1.5 1-3.4 1.1-1.3.1-3.9-.5-3.9-.5l-2.6-.3-1-.2a19 19 0 0 0-5.7 4.7v2.5l-.4 1.1-1 3.3.3 1-1.5.1-1.5 1.7a15.1 15.1 0 0 0-.1 2.2c0 3.9 1.1 7.4 3.1 10.4zm3-12.1v.4l.4-.2-.2-.3H27zM41 43h-.2v.4h.2l.1-.6-.1.2zM47.4 57l-.2-.2-.3.2.2.2.3-.2zm.4-2.3-.6.4-.7.1-1.7 1.7.1.3h.3l1-.4c.2-.1 1-.5 1.3-1l.8-1h-.5zM39 40l.4.1.1-.3-.3-.1-.2.3zm1.1-.8-.5 1.2h.8l.2-.9h-.2l.1-.4-.4-.2V39.2zm-12.5 1.1h.3l-.1-.3-.2.1v.2zm-.2-.7.1.3.3-.2v-.2l-.4.1zm-.2-.8v.4h.4v-.4h-.4zM27 38l.2.3h.3l.2-.7-.6-.1-.1.5zm-.3-1 .5.1.2-1.4V35h-.4l-.3 2.2zm13-7.5L38 30.9l.6.5 1.3-1.4-.2-.4zm-1.4 2.3h-.3l-.4.9h-.8L36 34l.5.3 1-.7 1-1-.2-.7zm-.5 2-.8.8v.5l1.3.3 2.7-1.8v-.8l-1.1-.3-2 1.3zm-4 2.2 1 .2-.3.6-.9-.5.2-.3z" class="st0"/><path d="m16.6 11-1 2.8h1.9l-1-2.8zm2 6.5-.5-1.5H15l-.5 1.6h-2.7L15.5 7h2l3.8 10.6h-2.7zM29.2 10c-.2-.3-.6-.6-1.2-.6h-1.1v6H28c.7 0 1-.3 1.2-.6.2-.3.3-.6.3-2.4 0-1.8 0-2-.3-2.4zm1.8 6.6a4 4 0 0 1-2.8 1h-4V7h4c1 0 2 .3 2.8 1 1.2 1.3 1.1 2.6 1.1 4.3 0 1.7.1 3-1 4.2zm4.6 1V7h7.2v2.3h-4.6v1.8h3.9v2.3h-3.9v1.8h4.6v2.3h-7.2zm18 0v-5L52 15.1h-1.7L49 12.5v5h-2.5V7h2.5l2.4 4.7L53.5 7h2.5v10.6h-2.5zm6.4 0V7H67v2.3h-4.5v1.8h3.9v2.3h-4v1.8h4.6v2.3H60zM13.7 70l.5-1.5.5 1.5h-1zm0-3-1.6 4.6h1.1l.2-.7H15l.2.7h1L14.7 67h-.8zm5.6 4.6c.5 0 1-.1 1.3-.5.3-.3.5-.8.5-1.5V69h-1.8v.8h.7v.2c0 .2 0 .4-.2.5l-.5.2a.6.6 0 0 1-.5-.2c-.2-.2-.2-.3-.2-1.2 0-1 0-1 .2-1.2 0-.2.3-.2.5-.2.3 0 .6.1.7.5h1c0-.5-.4-1.5-1.7-1.5-.6 0-1 .2-1.3.5-.5.5-.5 1.1-.5 1.8v.2c0 .6 0 1.2.5 1.7.3.4.7.5 1.3.5zm4.6-1.9h1.7v-1H24V68h2v-1h-3v4.7h3v-1h-2v-.9zm7.4 1.9V67h-1v2.5L28.5 67h-.9v4.6h1V69l1.6 2.5h1zm4.1-1.4c0 .2-.2.5-.6.5a.6.6 0 0 1-.5-.2c-.1-.2-.2-.4-.2-1.2 0-1 0-1 .2-1.2a.6.6 0 0 1 .5-.3c.4 0 .6.3.6.5h1.1c-.2-.9-.8-1.4-1.7-1.4-.5 0-1 .2-1.3.5-.4.5-.4 1.1-.4 1.8v.1c0 .7 0 1.3.4 1.8.4.3.8.5 1.3.5 1 0 1.5-.5 1.7-1.4h-1zm3.8-.5h1.7v-1h-1.8V68h2v-1h-3v4.7h3v-1h-2v-.9zm9 .7c-.1.2-.3.2-.6.2h-.5V68h.5c.3 0 .5 0 .6.3l.1 1v1.2zm1.2-1v-.3c0-.7 0-1.2-.5-1.7-.3-.3-.7-.4-1.2-.4H46v4.6h1.7c.5 0 1-.2 1.2-.5.5-.5.5-1 .5-1.6m2.8.2H54v-1h-1.8V68h2v-1h-3v4.7h3v-1h-2v-.9zm8-2.7H59v4.6h3v-1h-2V67zm4.5 3 .5-1.5.5 1.5h-1zm1.5 1.6h1L65.7 67h-.8L63 71.6h1.1l.2-.7H66l.2.7zM13.4 79h1.1v-3.7h1.2v-1h-3.4v1h1.2V79zm6.7-2.6h-.7v-1.1h.7c.4 0 .6.3.6.5s-.2.6-.6.6zm1 .6c.1 0 .7-.4.7-1.2 0-.7-.6-1.4-1.6-1.4h-1.8V79h1v-1.8h.5l.9 1.8H22l-1-2zm4.7.4.5-1.5.5 1.5h-1zm0-3L24.3 79h1.1l.2-.7h1.6l.2.7h1l-1.6-4.6h-.8zm5.1 0V79h1v-2.5l1.7 2.5h1v-4.6h-1.1V77l-1.6-2.5h-1zm8.5 1.8h-.6a.7.7 0 0 1-.4-.2.4.4 0 0 1 0-.3c0-.2.1-.5.6-.5.2 0 .6 0 .9.3l.6-.7c-.4-.3-.8-.5-1.5-.5-1 0-1.7.6-1.7 1.5 0 .4.1.7.3.9.2.2.5.3 1 .4h.5l.4.2v.3c0 .2 0 .5-.7.5-.2 0-.7 0-1-.3l-.7.7c.4.4 1 .5 1.7.5 1 0 1.8-.4 1.8-1.4 0-.5-.1-.8-.3-1-.2-.2-.5-.3-1-.4zm5-1.8h-1V79h1v-4.6zm4 4.6h1v-3.7h1.2v-1h-3.4v1h1.2V79zm5 0h1v-4.6h-1V79zm6-1.1-.4.2a.7.7 0 0 1-.5-.2c-.2-.2-.2-.3-.2-1.2 0-1 0-1 .2-1.2 0-.2.3-.2.5-.2s.4 0 .5.2l.1 1.2-.1 1.2zm1.3-1.3c0-.7 0-1.3-.5-1.8-.3-.3-.7-.5-1.2-.5s-1 .2-1.3.5c-.5.5-.5 1.1-.5 1.8v.2c0 .6 0 1.2.5 1.7.3.4.7.5 1.3.5s.9-.1 1.2-.5c.5-.5.5-1 .5-1.7v-.2zm6.4 2.4v-4.6h-1V77l-1.6-2.5h-1V79h1.1v-2.5l1.6 2.5h1zm-53.8 5.6h1.8v-1h-1.8V83h2v-1h-3v4.7h3v-1h-2v-.9zm.5-4.4-.3 1h.5l.8-1h-1zm6.6 3h1c-.1-.8-.7-1.4-1.7-1.4-.5 0-.9.2-1.2.5-.5.5-.5 1.1-.5 1.8v.2c0 .6 0 1.2.5 1.7.3.4.7.5 1.2.5 1 0 1.6-.5 1.8-1.4h-1.1c0 .2-.2.5-.7.5a.6.6 0 0 1-.4-.2c-.2-.2-.2-.3-.2-1.2l.1-1.2a.6.6 0 0 1 .6-.2c.4 0 .5.2.6.5zm5.7 2.2-.5.2c-.2 0-.4 0-.5-.2-.1-.2-.2-.3-.2-1.2 0-1 .1-1 .2-1.2.1-.2.3-.2.5-.2s.4 0 .5.2c.1.1.2.3.2 1.2 0 .9 0 1-.2 1.2zm-.5-3.6c-.5 0-1 .2-1.3.5-.4.5-.4 1.1-.4 1.8v.2c0 .6 0 1.3.4 1.7.4.4.8.6 1.3.6s1-.2 1.3-.6c.5-.4.5-1 .5-1.7v-.2c0-.7 0-1.3-.5-1.8-.3-.3-.8-.5-1.3-.5m5.6 0h-1v4.7h3v-1h-2V82zm6.5 3.6-.5.2a.7.7 0 0 1-.5-.2c-.1-.2-.2-.3-.2-1.2 0-1 0-1 .2-1.2 0-.2.3-.2.5-.2s.4 0 .5.2c.1.1.2.3.2 1.2 0 .9 0 1-.2 1.2zm-.5-3.6c-.6 0-1 .2-1.3.5-.5.5-.5 1.1-.5 1.8v.2c0 .6 0 1.3.5 1.7.3.4.8.6 1.3.6s1-.2 1.3-.6c.4-.4.4-1 .4-1.7v-.2c0-.7 0-1.3-.4-1.8-.4-.3-.8-.5-1.3-.5m6.8 1.5h1c0-.5-.4-1.5-1.7-1.5-.6 0-1 .2-1.3.5-.5.5-.5 1.1-.5 1.8v.2c0 .6 0 1.3.5 1.7.3.4.7.5 1.3.5.6 0 1-.1 1.3-.5.3-.3.5-.7.5-1.5V84h-1.8v.8h.7v.2c0 .2 0 .4-.2.5l-.5.2c-.2 0-.4 0-.5-.2-.1-.2-.2-.3-.2-1.2 0-1 0-1 .2-1.2a.6.6 0 0 1 .5-.2c.4 0 .6.1.7.5zm3.8 3.2h1V82h-1v4.6zM54 85v.1l-.3-.3-.5.5.3.4h-.2a.7.7 0 0 1-.5-.2l-.1-1.2.1-1.2.5-.2c.2 0 .4 0 .5.2.2.1.2.3.2 1.2v.7zm.8.9c.3-.5.3-1 .3-1.6v-.1c0-.7 0-1.3-.5-1.8-.3-.3-.7-.5-1.3-.5s-.9.2-1.2.5c-.5.5-.5 1.1-.5 1.8v.2c0 .6 0 1.2.5 1.7.3.4.7.5 1.2.5.4 0 .7 0 1-.2l.3.4.5-.5-.3-.4zm4-1v-3h-1v3c0 1 .7 1.7 1.7 1.7s1.7-.7 1.7-1.6v-3h-1v3c0 .4-.3.7-.7.7-.4 0-.7-.3-.7-.8zm6.3-.2h1.7v-1h-1.7V83h2v-1h-3v4.7h3v-1h-2v-.9z" style="fill:#e42618"/></svg>