<svg xmlns="http://www.w3.org/2000/svg" xml:space="preserve" id="Calque_1" x="0" y="0" style="enable-background:new 0 0 79.41 93.61" version="1.1" viewBox="0 0 79.41 93.61"><style>.st0{fill:#004a99}.st3{fill:#e42618}</style><path d="M0 93.61h79.41V0H0v93.61z" class="st0"/><path d="M1.77 91.85h75.88V1.76H1.77v90.09z" style="fill:#fff"/><path d="M24.11 52.6c3.37 5.09 9.15 8.44 15.7 8.44 10.39 0 18.82-8.43 18.82-18.82 0-1.01-.08-2.01-.23-2.98a18.82 18.82 0 0 0-8.71-13.04 18.69 18.69 0 0 0-9.88-2.8c-3.2 0-6.21.8-8.85 2.2-2.22 1.19-4.17 2.8-5.75 4.74-2.2 2.7-3.67 6.03-4.09 9.67-.08.73-.13 1.46-.13 2.21 0 3.84 1.15 7.41 3.12 10.38z" style="fill:#8f9ace"/><path d="m49.65 26.77-2.95.63 2.03 1.17.69-.8.83-.53-.6-.47zm.04-.56c4.56 2.82 7.83 7.53 8.71 13.05l-1.47 1.26-.94-.22-.44.39.03.26c.01.12.07.36.16.73.19.75.28 1.5.28 2.23 0 .68-.03.9-.18 1.56h-.8l-2.25-1.83-1.72.39-1.11-.19-1.41.43.64.55 1.1-.31.95.76-.15.33-.39.63-.85 1.21-1.3 1.05-2.41-2.5-.62.07 2.57 2.95 1.04-.21.26.53-1.05 1.72L46.3 53l-.92 2.33c-.02.06-.12.13-.26.2-.3.14-.64.39-1.03.76-.49.46-.77.72-.83.77-.41.36-.89.73-1.46 1.11-.56.38-1.13.72-1.69 1-.99.5-2.1.78-3.1.78-.66 0-1.33-.11-1.98-.33-.09-.03-.15-.07-.15-.11l.45-1.26c.02-.06.4-.49 1.11-1.26.32-.35.58-.83.77-1.4.27-.84.46-1.35.57-1.53.41-.66.6-1.22.47-1.36l-2.67-2.68-1.12-2.08.12-.49c.08-.34.35-.95.87-1.94.28-.54.51-.82.77-.95l1.79-.88 3.47.52 1.06.7.5-.06 2.12.55.53-1.38-2.69-.76-.95-.95-.13.04.45 1.12-.54.11-.06-.13.19-.03c.01.01-.16-.69-.58-.89-.15-.07-.25-.14-.4-.14-.21 0-.54.13-.72.29-.59.54-1.05.91-1.09.88l-1.1-.84.41-1.03.17.04c.1.02.21.04.31.04.35 0 .56-.2.6-.4.05-.25-.12-.37-.12-.37.01-.01-.11-.12-.11-.12 0 .01.16-.18.15-.18 0 0 .42.11.66.12.28.02.56-.05.67-.17l.27-.42.45-.12.08-.6.28.02s.16.21.22.5l.78-.2.21-.82-.12-.14.34-.76-.3-.21-.5 1.41-.27.04-.12-.31-.7.05-.39-.63.85-.88.83-1.11 1.17.37.29.58.36-.01-.13-.85.96-.9-.64-2.89.41-.91.46.03.06-.71-3.06-3.37.1-.91 2.53-.58.36.11 1.44-.14.33.15 2.33-.22zM24.11 52.6l1.3-1.08 1.07.27 2.86-2.15.14-1.15-1.88-2.74c-.03-.04-.15-1.75-.51-3.03-.19-.67-.63-2.62-.65-2.66l-.25-.5-1.79-2.68 1.16-2.9.92-.04.05-.43-.68-.57-.02-.12-.02-.54c0-.37.63-.74 1.04-.74.11 0 .23.02.35.05.29.08.57.32.82.5.05.03.82 1.85.82 1.85l-.66.53-.32.8.45.35.63-1.08 2.6.87 1.6.91.48-.53 1.34.11.98-1.33-.89-.34.93-1.12-.11-.38-1.42-.27 1.09-1.14 1.04.68-.02.3.67.08.56-1.07-.39-.35 1.66-1.6 1.5-.7 1.17-.77.23-.18.05-.82-.2-.58-.52-.2.66-.52-.18-.1c-.44.3-1.49 1.02-3.32 1.15-1.3.09-3.94-.49-3.94-.49l-2.61-.39-.91-.16a18.93 18.93 0 0 0-5.75 4.73l-.08 2.47-.39 1.13-.93 3.27.3.92-1.49.21-1.5 1.67a15.1 15.1 0 0 0-.15 2.23c0 3.83 1.14 7.4 3.11 10.37zm2.93-12.11.08.36.34-.11-.11-.36-.31.11zm14.06 2.46-.24-.03-.02.45.24.04.14-.57-.07-.03-.05.14zm6.3 14.18c0 .01-.2-.22-.2-.22 0 .01-.32.19-.32.19s.24.24.23.24l.29-.21zm.44-2.29-.59.34-.76.16-1.67 1.64.1.36.24-.03.95-.41c.25-.11 1.03-.54 1.43-.98.38-.41.5-.57.72-.99l-.42-.09zm-8.83-14.81.41.11.12-.38-.29-.07-.24.34zm1.1-.81s-.48 1.17-.48 1.18c0 0 .75.07.75.08l.18-.96-.13-.1.09-.33-.38-.21-.12.25.09.09zm-12.5 1.1c.01 0 .26-.1.26-.1l-.1-.22s-.15.13-.15.14l-.01.18zm-.19-.71.1.25.31-.14s-.08-.23-.09-.23l-.32.12zm-.2-.82.06.38h.36l-.05-.41-.37.03zm-.35-.72.19.29.36.05.16-.72-.58-.13-.13.51zm-.31-.91.59.07.18-1.4v-.42l-.1-.42-.3-.02-.37 2.19zm13.1-7.57-1.7 1.35.61.44L39.92 30l-.26-.41zm-1.5 2.34-.24-.01-.46.84-.72.06-.83 1.18.45.28 1.11-.71.85-.91-.16-.73zm-.41 1.98-.84.74v.5l1.34.33 2.66-1.81-.07-.74-1.06-.37-2.03 1.35zm-4.04 2.19 1 .16-.34.66-.86-.47.2-.35z" class="st0"/><path d="m16.58 11.02-.95 2.81h1.83l-.88-2.81zm2.05 6.53-.49-1.57h-3.23l-.52 1.57h-2.7l3.83-10.52h1.99l3.82 10.52h-2.7zM29.24 9.93c-.23-.36-.59-.59-1.24-.59h-1.14v5.91H28c.65 0 1-.24 1.24-.59.21-.3.28-.58.28-2.36 0-1.78-.07-2.08-.28-2.37zm1.77 6.59c-.72.72-1.74 1.03-2.84 1.03h-3.9V7.03h3.9c1.09 0 2.11.31 2.84 1.03 1.23 1.23 1.09 2.57 1.09 4.23.01 1.66.14 3-1.09 4.23zM35.62 17.55V7.03h7.15v2.3H38.2v1.76h3.9v2.3h-3.9v1.85h4.56v2.3h-7.14zM53.57 17.55v-5.04l-1.49 2.6h-1.66l-1.49-2.6v5.04h-2.58V7.03h2.54l2.36 4.64 2.36-4.64h2.54v10.52h-2.58zM59.99 17.55V7.03h7.15v2.3h-4.56v1.76h3.9v2.3h-3.9v1.85h4.56v2.3h-7.15zM13.72 70.01l.5-1.49.47 1.49h-.97zm.07-3.04-1.67 4.6h1.09l.23-.7h1.53l.22.7h1.09l-1.68-4.6h-.81zM19.26 71.61c.58 0 .98-.15 1.33-.51.34-.34.46-.76.46-1.53v-.6h-1.74v.86h.7v.12c0 .22-.07.42-.2.54-.12.13-.31.2-.56.2a.62.62 0 0 1-.5-.22c-.11-.15-.18-.31-.18-1.2 0-.88.07-1.05.18-1.19.11-.14.3-.23.5-.23.39 0 .61.16.72.53h1.06c-.09-.48-.43-1.45-1.78-1.45-.52 0-.92.16-1.27.51-.46.46-.46 1.09-.46 1.75v.16c0 .66 0 1.29.46 1.75.36.35.76.51 1.28.51zM23.88 69.71h1.75v-.92h-1.75v-.9h2.05v-.92h-3.09v4.6h3.09v-.92h-2.05v-.94zM31.28 71.57v-4.6h-1.05v2.51l-1.6-2.51h-.93v4.6h1.05v-2.5l1.59 2.5h.94zM35.44 70.18c-.07.23-.22.5-.64.5a.62.62 0 0 1-.5-.22c-.11-.15-.19-.32-.19-1.2 0-.88.08-1.05.19-1.2a.62.62 0 0 1 .5-.22c.43 0 .57.27.64.5h1.07c-.18-.91-.8-1.43-1.72-1.43-.52 0-.92.16-1.27.51-.46.46-.46 1.09-.46 1.75v.16c0 .66 0 1.29.46 1.75.35.35.75.51 1.27.51.92 0 1.55-.52 1.72-1.42h-1.07zM39.15 69.71h1.75v-.92h-1.75v-.9h2.04v-.92H38.1v4.6h3.09v-.92h-2.04v-.94zM48.22 70.36c-.13.2-.32.29-.6.29h-.56v-2.76h.56c.28 0 .47.09.6.29.1.15.13.31.13 1.09 0 .82-.03.95-.13 1.09zm1.18-.89v-.4c0-.65.01-1.17-.47-1.65-.29-.29-.72-.45-1.23-.45H46v4.6h1.69c.51 0 .94-.16 1.23-.45.49-.48.48-1 .48-1.65M52.22 69.71h1.75v-.92h-1.75v-.9h2.04v-.92h-3.09v4.6h3.09v-.92h-2.04v-.94zM60.12 66.97h-1.05v4.6h3.03v-.92h-1.98v-3.68zM64.73 70.01l.5-1.49.47 1.49h-.97zm1.46 1.56h1.09l-1.68-4.6h-.82l-1.67 4.6h1.09l.23-.7h1.53l.23.7zM13.45 79.07h1.05v-3.68h1.16v-.92h-3.37v.92h1.16v3.68zM20.15 76.46h-.71V75.4h.71c.36 0 .56.27.56.53s-.19.53-.56.53zm.88.65c.17-.09.74-.43.74-1.18 0-.73-.53-1.46-1.56-1.46H18.4v4.6h1.05v-1.75h.48l.84 1.75h1.22l-1.01-1.93.05-.03zM25.83 77.51l.5-1.49.47 1.49h-.97zm.06-3.04-1.68 4.6h1.1l.23-.7h1.53l.22.7h1.09l-1.68-4.6h-.81zM30.94 74.47v4.6h1.05v-2.51l1.6 2.51h.93v-4.6h-1.05v2.5l-1.6-2.5h-.93zM39.36 76.32l-.57-.08a.659.659 0 0 1-.36-.15c-.1-.1-.11-.21-.11-.26 0-.24.2-.49.63-.49h.04c.21 0 .57 0 .86.26l.65-.65c-.37-.35-.84-.51-1.51-.51-1 0-1.67.58-1.67 1.44 0 .39.1.7.31.91.2.21.51.34.92.4l.57.08c.15.02.27.07.34.14.07.08.11.19.11.32 0 .22-.13.48-.73.48-.21 0-.73-.03-1.05-.31l-.67.66c.41.4.92.57 1.71.57.88 0 1.77-.44 1.77-1.43 0-.45-.11-.77-.33-.99-.21-.21-.51-.34-.91-.39zM44.46 74.47h-1.05v4.6h1.05v-4.6zM48.36 79.07h1.05v-3.68h1.16v-.92H47.2v.92h1.16v3.68zM53.31 79.07h1.05v-4.6h-1.05v4.6zM59.47 77.96c-.09.11-.27.23-.51.23s-.42-.12-.51-.23c-.11-.15-.18-.3-.18-1.19 0-.89.07-1.05.18-1.19.11-.14.3-.23.51-.23.21 0 .4.09.51.23.11.15.18.31.18 1.19 0 .88-.07 1.04-.18 1.19zm1.23-1.27c0-.66 0-1.29-.46-1.75-.36-.35-.75-.51-1.28-.51s-.92.16-1.28.52c-.46.46-.46 1.09-.46 1.75v.16c0 .66 0 1.29.46 1.75.36.35.75.51 1.28.51s.92-.16 1.28-.51c.46-.46.46-1.09.46-1.75v-.17zM67.14 79.07v-4.6h-1.05v2.5l-1.6-2.5h-.93v4.6h1.05v-2.5l1.6 2.5h.93zM13.34 84.72h1.75v-.93h-1.75v-.9h2.05v-.93h-3.11v4.62h3.11v-.93h-2.05v-.93zM13.79 80.31l-.3 1.08h.56l.71-1.08h-.97zM20.4 83.36h1.08c-.18-.91-.8-1.43-1.73-1.43-.52 0-.92.16-1.27.51-.48.47-.48 1.09-.47 1.76v.16c0 .66 0 1.29.46 1.75.35.35.76.52 1.27.52.93 0 1.55-.52 1.73-1.43H20.4c-.07.23-.22.5-.65.5a.62.62 0 0 1-.5-.22c-.11-.15-.19-.32-.19-1.2 0-.88.08-1.06.19-1.2a.62.62 0 0 1 .5-.22c.43-.01.58.27.65.5zM26.13 85.47c-.11.15-.3.23-.51.23-.21 0-.4-.09-.51-.23-.11-.15-.18-.31-.18-1.19 0-.89.07-1.05.18-1.2.11-.14.3-.23.51-.23.21 0 .4.08.51.23.11.15.18.31.18 1.2.01.88-.06 1.04-.18 1.19zm-.51-3.54c-.53 0-.93.16-1.28.52-.46.46-.46 1.09-.46 1.76v.16c0 .67 0 1.29.46 1.76.36.36.75.52 1.28.52s.93-.16 1.28-.52c.46-.46.46-1.09.46-1.75v-.18c0-.66 0-1.29-.46-1.75-.35-.36-.75-.52-1.28-.52M31.16 81.97h-1.05v4.62h3.04v-.93h-1.99v-3.69zM37.69 85.47c-.11.15-.3.23-.51.23-.24 0-.42-.12-.51-.23-.11-.15-.18-.31-.18-1.19 0-.89.07-1.05.18-1.2.11-.14.3-.23.51-.23.21 0 .4.08.51.23.11.15.18.31.18 1.2.01.88-.06 1.04-.18 1.19zm-.51-3.54c-.53 0-.93.16-1.28.52-.46.46-.46 1.09-.46 1.76v.16c0 .67 0 1.29.46 1.76.35.36.75.52 1.28.52s.93-.16 1.28-.52c.46-.46.46-1.09.46-1.76v-.17c0-.67 0-1.29-.46-1.76-.35-.35-.75-.51-1.28-.51M43.98 83.39h1.06c-.09-.49-.43-1.46-1.78-1.46-.53 0-.92.16-1.28.51-.46.46-.46 1.09-.46 1.76v.16c0 .67 0 1.29.46 1.76.35.35.76.52 1.28.52.59 0 .99-.15 1.34-.52.34-.34.46-.76.46-1.54v-.6h-1.74v.86h.7v.12c0 .23-.07.42-.19.54-.13.13-.31.2-.56.2-.21 0-.4-.08-.5-.22-.11-.15-.18-.31-.18-1.2 0-.89.07-1.05.18-1.2a.6.6 0 0 1 .5-.23c.38 0 .6.16.71.54zM47.79 86.59h1.05v-4.62h-1.05v4.62zM54 84.98l-.01.12-.27-.27-.51.51.33.33-.1.02c-.04.01-.07.01-.1.01-.24 0-.42-.12-.51-.23-.11-.15-.18-.31-.18-1.19 0-.89.07-1.05.18-1.19.11-.14.3-.23.51-.23s.4.09.51.23c.11.15.18.31.18 1.19 0 .34-.02.56-.03.7zm.82.88c.27-.42.26-.95.26-1.51v-.15c0-.67 0-1.29-.46-1.76-.35-.35-.75-.51-1.28-.51s-.93.16-1.28.51c-.46.46-.46 1.09-.46 1.76v.16c0 .67 0 1.29.46 1.76.36.36.75.52 1.28.52.35 0 .64-.07.89-.21l.04-.02.36.36.51-.51-.34-.34.02-.06zM58.79 84.95v-2.99h-1.05v3.01c0 .95.73 1.65 1.73 1.65 1.01 0 1.75-.69 1.75-1.65v-3.01h-1.05v2.99c0 .46-.27.75-.69.75-.43 0-.69-.29-.69-.75zM65.08 84.72h1.75v-.93h-1.75v-.9h2.05v-.93h-3.11v4.62h3.11v-.93h-2.05v-.93z" class="st3"/></svg>