<svg width="243" height="392" viewBox="0 0 243 392" fill="none" xmlns="http://www.w3.org/2000/svg">
<g clip-path="url(#clip0_0_3)">
<path d="M242.18 376.75H0.0100098V391.15H242.18V376.75Z" fill="#ADC90E"/>
<path d="M121.1 170.07C144.27 170.066 166.873 162.905 185.818 149.566C204.763 136.227 219.125 117.362 226.94 95.55C163.45 81.41 101.13 135.02 95.62 150.55C109 82.26 69 19 24.37 0.459991C14.2747 17.5267 8.87435 36.9604 8.7171 56.7887C8.55985 76.617 13.6513 96.1339 23.4746 113.359C33.298 130.583 47.5035 144.902 64.6494 154.862C81.7953 164.823 101.271 170.069 121.1 170.07Z" fill="#ADC90E"/>
<path d="M0.0899963 183.77H3.88V221.72H21.17V225.21H0.0899963V183.77Z" fill="#006E38"/>
<path d="M16.26 198.92L21.06 183.76H25.06L19.44 198.92H16.26Z" fill="#006E38"/>
<path d="M43 183.77H48.15L65.2 225.21H61.2L55.87 212.21H35.32L29.99 225.21H25.91L43 183.77ZM54.48 208.77L45.6 186.86L36.66 208.77H54.48Z" fill="#006E38"/>
<path d="M99.91 216.39V205.79H87V202.47H103.7V217.86C101.6 220.587 98.8869 222.781 95.7802 224.263C92.6735 225.745 89.2611 226.474 85.82 226.39C72.56 226.39 63.56 216.33 63.56 204.48C63.56 192.63 72.32 182.57 85.23 182.57C88.5853 182.53 91.9023 183.287 94.9081 184.778C97.9139 186.27 100.523 188.454 102.52 191.15L99.38 193.52C97.8078 191.222 95.6952 189.346 93.2279 188.055C90.7606 186.765 88.0142 186.1 85.23 186.12C74.87 186.12 67.53 194.41 67.53 204.47C67.4827 206.888 67.9229 209.29 68.8246 211.534C69.7262 213.778 71.0707 215.817 72.7778 217.529C74.4849 219.242 76.5196 220.593 78.7604 221.502C81.0012 222.411 83.4022 222.859 85.82 222.82C88.5027 222.889 91.1657 222.345 93.607 221.231C96.0484 220.117 98.2039 218.461 99.91 216.39Z" fill="#006E38"/>
<path d="M109.61 183.77H130.69V187.09H113.4V202.48H128.32V205.74H113.4V221.9H130.69V225.22H109.61V183.77Z" fill="#006E38"/>
<path d="M137.44 183.77H142.53L169.05 220.89V183.77H172.84V225.21H167.75L141.23 188.09V225.21H137.44V183.77Z" fill="#006E38"/>
<path d="M213.57 215.44L216.65 217.87C214.645 220.555 212.034 222.727 209.029 224.21C206.024 225.692 202.71 226.443 199.36 226.4C186.45 226.4 177.69 216.34 177.69 204.49C177.69 192.64 186.45 182.58 199.36 182.58C202.715 182.54 206.032 183.297 209.038 184.788C212.044 186.28 214.653 188.464 216.65 191.16L213.51 193.53C211.938 191.232 209.825 189.356 207.358 188.065C204.891 186.775 202.144 186.11 199.36 186.13C189 186.13 181.66 194.42 181.66 204.48C181.66 214.54 189 222.83 199.36 222.83C202.152 222.854 204.908 222.192 207.385 220.904C209.862 219.616 211.986 217.74 213.57 215.44Z" fill="#006E38"/>
<path d="M221.11 183.77H242.19V187.09H224.9V202.48H239.82V205.74H224.9V221.9H242.19V225.22H221.11V183.77Z" fill="#006E38"/>
<path d="M242.18 296.85C242.18 332.02 215.98 361.92 177.64 361.92C139.13 361.92 112.92 332.02 112.92 296.85C112.92 261.68 139.12 231.78 177.64 231.78C216 231.78 242.18 261.67 242.18 296.85ZM225.18 296.85C225.18 269.42 205.31 247.26 177.7 247.26C149.91 247.26 130.04 269.42 130.04 296.85C130.04 324.28 149.91 346.44 177.7 346.44C205.25 346.44 225.13 324.28 225.13 296.85H225.18Z" fill="#006E38"/>
<path d="M93.49 254.99C99.2227 254.99 103.87 250.343 103.87 244.61C103.87 238.877 99.2227 234.23 93.49 234.23C87.7573 234.23 83.11 238.877 83.11 244.61C83.11 250.343 87.7573 254.99 93.49 254.99Z" fill="#006E38"/>
<path d="M86 269.76H101V358.39H86V269.76Z" fill="#006E38"/>
<path d="M0 235.3H30.42C53.98 235.3 68.23 247.79 68.23 267.3C68.23 278.38 63.13 287.35 53.46 292.62C67.88 297.72 75.62 308.97 75.62 323.04C75.62 344.67 59.62 358.39 33.41 358.39H0V235.3ZM16.53 249.36V286.47H30.6C43.6 286.47 51.18 279.79 51.18 267.65C51.18 256.04 43.62 249.36 30.6 249.36H16.53ZM16.53 300.54V344.33H34.12C49.42 344.33 58.56 336.24 58.56 322.33C58.56 308.42 49.42 300.52 34.12 300.52L16.53 300.54Z" fill="#006E38"/>
</g>
<defs>
<clipPath id="clip0_0_3">
<rect width="243" height="392" fill="white"/>
</clipPath>
</defs>
</svg>
