<svg width="200" height="95" fill="none" xmlns="http://www.w3.org/2000/svg"><path d="M111.78 26.48C114.84 10.28 123.57 0 123.57 0h-11.54s-7.37 10.08-9.98 26.23C99.4 10.08 92.02 0 92.02 0H80.48s8.78 10.28 11.8 26.48h19.5ZM92.37 47.9c-2.96 16.6-11.89 27.03-11.89 27.03l11.54.05S99.39 64.95 102 48.9c2.66 16.05 10.03 26.08 10.03 26.08l11.54-.05s-8.98-10.43-11.89-27.03h-19.3ZM124.07 26.48a78.22 78.22 0 0 1 8.73-16.45H120.8s-4.56 7.63-7.27 16.45h10.53ZM113.19 47.9c2.6 9.08 7.42 17 7.42 17h11.99s-5.62-7.97-8.78-17h-10.63ZM136.4 26.48a48.54 48.54 0 0 1 5.88-7.72h-12.6s-2.3 3.1-4.16 7.72h10.89ZM135.46 47.9h-10.34a37.84 37.84 0 0 0 4.42 8.38h12.59s-3.81-3.36-6.67-8.38ZM90.52 26.48a78.55 78.55 0 0 0-7.28-16.4H71.26s5.51 7.63 8.72 16.4h10.54ZM80.23 47.9c-3.1 9.08-8.77 17.05-8.77 17.05h11.98s4.87-7.97 7.43-17.05H80.23ZM78.53 26.48a38.1 38.1 0 0 0-4.16-7.72h-12.6s3.17 3.26 5.87 7.72h10.89ZM68.55 47.9a35.48 35.48 0 0 1-6.62 8.38h12.59s2.5-3.36 4.41-8.38H68.55ZM48.43 83.31s-.2.05-.05.2c.15.15.4.2.5.6l.16.7v7.33s-.05.65-.2.9c-.16.25-.46.2-.46.35.05.2.25.2.25.2l5.92-.05.15-.8c.1-.7.2-1.35 0-1.3-.3.05-.15.25-.5.5-.4.25-.8.2-.8.2l-2 .05s-.3 0-.5-.15c-.1-.1-.1-.5-.1-.5v-2.66s1.6-.05 2.15 0c.55.05.75.1.95.3.15.15.25.4.4.4.1 0 .15-.25.15-.25v-2.4s0-.2-.15-.16c-.15.05-.3.3-.45.45-.15.2-.55.25-.55.25l-2.46.05s-.05-2.15-.05-2.75c0-.1.2-.15.2-.15h2.16s.65 0 .8.1c.2.2.35.55.6.55.15 0 .15-.25.15-.25v-1.5s0-.2-.1-.26c-.1-.05-.5-.05-.5-.05l-5.67.1ZM56.46 83.36h2.8s.1-.05.1.1c0 .15-.2.2-.4.4s-.24 1.06-.24 1.06l.05 5.31s-.05.65.3 1.2c.4.66 1 1.01 1.95 1.01 1.36 0 1.76-.75 1.9-1 .21-.3.26-.7.31-1.26.05-1-.05-5.72-.05-5.72s-.1-.65-.3-.7c-.3-.15-.35-.25-.3-.35.05-.15.2-.1.2-.1h2.7s.16.05.1.2c-.04.2-.3.1-.44.45-.15.3-.2.86-.2.86v5.51s.05 1.06-.56 2a3.82 3.82 0 0 1-3.16 1.56c-1.1 0-2.1-.1-3.3-1.25-.8-.8-.8-1.9-.8-1.9l-.1-5.72s-.06-.6-.21-.96c-.15-.25-.45-.25-.5-.45 0-.25.15-.25.15-.25ZM67.9 83.96c-.16-.3-.5-.3-.5-.5 0-.15.24-.15.24-.15h4.42s1.6.15 2.2 1.15c.3.46.56.9.56 1.96 0 .75-.4 1.5-.96 2-.4.36-1.15.6-1.15.6s0 .1.05.16l2.66 3.81.8.65s-1.7.1-2.1 0c-.46-.15-.86-.75-.86-.75l-2.66-4.01s-.45-.55-.3-.8c.1-.15.8.1 1.6-.15.76-.26 1.16-.8 1.16-1.56 0-.7-.4-1.5-1.1-1.65a5 5 0 0 0-2.1-.05c-.1.1-.1.3-.1.3l.04 7.32s.05.5.3.8c.25.3.35.2.35.35 0 .15-.2.15-.2.15H67.6s-.15 0-.15-.2c0-.15.35-.15.5-.45.16-.35.16-.7.16-.7l-.05-7.42c.05 0 .05-.5-.16-.86ZM124.67 83.36s-.2.05-.1.2c.15.15.4.15.5.5l.16.7v7.33s-.06.65-.2.9c-.16.25-.46.2-.46.35.05.2.25.2.25.2l5.87-.05.15-.8c.1-.7.2-1.35 0-1.3-.3.05-.1.25-.5.5s-.75.2-.75.2l-2 .05s-.3 0-.51-.15c-.1-.1-.1-.5-.1-.5v-2.66s1.6-.05 2.16 0c.55.05.75.1.95.3.15.15.2.4.35.4.1 0 .15-.25.15-.25v-2.4s0-.2-.15-.16c-.15.05-.25.3-.4.45-.15.2-.55.25-.55.25l-2.46.05s-.05-2.05-.05-2.7c0-.1.2-.15.2-.15h2.16s.65 0 .8.1c.2.2.3.55.55.55.15 0 .15-.25.15-.25v-1.5s0-.2-.1-.26c-.1-.05-.45-.05-.45-.05l-5.62.15ZM146.54 83.36s-.2.05-.05.2c.15.15.4.15.5.5.1.4.15.7.15.7v7.33s-.05.65-.2.9c-.15.25-.45.15-.45.35.05.2.25.2.25.2l5.87-.05.15-.8c.1-.7.2-1.35 0-1.3-.3.05-.1.25-.5.5s-.75.2-.75.2l-2 .05s-.31 0-.46-.15c-.1-.1-.1-.5-.1-.5v-2.66s1.6-.05 2.16 0c.55.05.75.1.95.3.15.15.2.4.35.4.1 0 .15-.25.15-.25v-2.4s-.05-.2-.15-.16c-.15.05-.25.3-.4.45-.15.2-.55.25-.55.25l-2.46.05s-.05-2.05-.05-2.7c0-.1.2-.15.2-.15h2.16s.65 0 .8.1c.2.2.3.55.55.55.15 0 .15-.25.15-.25v-1.5s0-.2-.1-.26c-.1-.05-.45-.05-.45-.05l-5.72.15ZM94.98 85.97c-.05 0-.05 0-.1-.05-.05 0-.05-.05-.05-.1a2.5 2.5 0 0 0-.7-1.4c-.4-.36-.86-.4-1.46-.4s-1.05.14-1.4.4c-.35.25-.5.6-.5 1.1 0 .4.1.65.5.95.4.35 1 .65 1.85.95 1 .36 1.7.8 2.16 1.3.45.51.65 1.11.65 1.86 0 1-.35 1.76-1.1 2.31-.7.55-1.7.85-2.96.85-.5 0-.95-.05-1.35-.15-.3-.1-.66-.2-1-.4-.06-.05-.1-.05-.16-.1-.05-.05-.05-.1-.05-.2l-.05-1.5c0-.05 0-.15.05-.2 0-.05.1-.15.1-.15l.15-.1h.1c.05 0 .05.05.05.1.2.55.4.95.8 1.3.46.4.9.6 1.46.6.75 0 1.3-.15 1.7-.45.4-.3.7-.65.7-1.2 0-.36-.14-.7-.5-1-.34-.3-.85-.56-1.55-.86a5.88 5.88 0 0 1-2.46-1.45c-.5-.56-.75-1.2-.75-1.96 0-.8.35-1.5 1.05-2.06.7-.55 1.56-.85 2.61-.85.5 0 .96.05 1.36.15.3.05.6.2.9.35.1.05.15.1.25.2.05.05.1.15.1.25v1.56c0 .1 0 .15-.1.2 0 .05-.1.05-.1.05l-.2.1ZM82.39 92.54c-1.3.05-2.46-.5-3.16-1.56-.95-1.4-.9-3.96.35-5.36.6-.65 1-.95 2.36-1.1 2.4 0 3.41 1.5 3.66 3.26.4 2.3-.75 4.6-3.21 4.76ZM86 84.51a5.3 5.3 0 0 0-3.81-1.5c-1.5 0-2.76.55-3.81 1.7a5.76 5.76 0 0 0-1.56 4.12c0 1.45.5 2.7 1.56 3.71a5.3 5.3 0 0 0 3.81 1.5c1.5 0 2.76-.55 3.81-1.65a5.76 5.76 0 0 0 1.56-4.11c0-1.5-.5-2.71-1.56-3.77ZM102.6 87.93l.1 4.46s.05.5.3.8c.26.3.36.2.36.35 0 .15-.2.15-.2.15h-2.66s-.15 0-.15-.2c0-.15.35-.15.5-.45.15-.3.15-.7.15-.7l-.05-4.62" fill="#003DA5"/><path d="M106.82 83.31h-2.71s-.2 0-.2.1c0 .15.35.1.35.4 0 .4-2.36 3.86-2.36 3.86s-2.66-3.7-2.66-3.9c0-.36.25-.2.3-.4.05-.16-.1-.1-.1-.1s-2.3 0-2.5.04c-.25.05-.15.2.15.25.2.05.35.25.35.25l4.21 6.12s.1.1.2.1c.15 0 .3-.15.3-.15s3.96-5.52 4.11-5.77c.5-.65.7-.55.76-.6.05-.15-.2-.2-.2-.2ZM120.16 84.62v7.77s.05.5.3.8c.25.3.35.2.35.35 0 .15-.2.15-.2.15h-2.66s-.15 0-.15-.2c0-.15.35-.15.5-.45.15-.3.15-.7.15-.7l-.05-7.83" fill="#003DA5"/><path d="M118.7 84.62h2.71s.66 0 .8.1c.2.2.3.55.56.55.15 0 .15-.25.15-.25v-1.5s0-.2-.1-.26c-.1-.05-.45-.05-.45-.05l-3.67.05" fill="#003DA5"/><path d="M119.36 84.62H117s-.65 0-.8.1c-.2.2-.3.55-.56.55-.15 0-.15-.25-.15-.25v-1.5s0-.2.1-.26c.1-.05.46-.05.46-.05l3.26.05M113.29 85.97c-.05 0-.05 0-.1-.05 0 0-.05-.05-.05-.1a2.5 2.5 0 0 0-.7-1.4c-.4-.36-.86-.4-1.46-.4s-1.05.14-1.4.4c-.36.25-.5.65-.5 1.1 0 .4.1.65.5 1s1 .65 1.85.95c1 .36 1.7.8 2.16 1.3.45.51.65 1.11.65 1.86 0 1-.35 1.76-1.1 2.31-.7.55-1.7.85-2.96.85-.5 0-1-.05-1.36-.15-.3-.1-.65-.2-1-.4-.05-.05-.1-.05-.15-.1-.05-.05-.05-.1-.05-.2v-1.5c0-.05 0-.15.05-.2 0-.05.1-.15.15-.15l.15-.1h.1c.05 0 .05.05.05.1.2.55.4.95.8 1.3.45.4.9.6 1.46.6.7 0 1.3-.15 1.65-.45.4-.3.7-.65.7-1.2 0-.4-.15-.7-.5-1-.35-.3-.85-.56-1.55-.86a5.89 5.89 0 0 1-2.46-1.45c-.5-.56-.75-1.2-.75-1.96 0-.8.35-1.5 1.05-2.06.7-.55 1.56-.85 2.61-.85.5 0 .95.05 1.36.15.3.05.6.2.9.35.1.05.2.1.2.2.05.05.1.15.1.25l.05 1.56c-.05.1-.05.15-.1.2-.05.05-.1.05-.1.05l-.25.05ZM129.39 82.5c-.05.06-.05.06-.1.06 0 0-.05 0-.1-.05l-2.36-1.2-.15-.1c-.2-.16-.35-.3-.4-.5-.05-.1-.05-.16-.05-.2 0-.1.05-.2.1-.3.15-.2.35-.36.55-.36.2-.05.45.05.65.2l.1.1 1.9 1.9c.06.06.06.06.06.1 0 0 0 .06-.05.1l-.15.26ZM142.53 83.46s.55-.45.85-.25c.45.25.35.6.35.6l-.05 8.58s0 .45.2.7c.15.25.3.25.3.4 0 .1-.1.15-.1.15h-2.4s-.15 0-.15-.2c.05-.15.3 0 .5-.5.15-.35.15-.75.15-.75l.05-5.42-2.96 5.92s-.15.35-.6.35c-.55 0-.6-1-.6-1" fill="#003DA5"/><path d="M143.18 83.16h1.05s.2.05.05.2c-.15.15-.4.15-.45.5-.1.4-.1.7-.1.7v.6M135.4 83.61c-.2-.15-.75-.6-1.1-.4-.45.25-.35.6-.35.6l.05 8.58s0 .45-.2.7c-.15.25-.3.25-.3.4 0 .1.1.15.1.15h2.4s.16 0 .1-.2c0-.2-.3 0-.5-.5-.14-.35-.14-.75-.14-.75l-.05-5.37 2.96 5.92s.1.35.55.3c.5 0 .7-1.25.7-1.25" fill="#003DA5"/><path d="M134.55 83.16h-1.05s-.2.1-.05.2c.15.15.35.15.45.5.1.4.1.7.1.7v.6M73.06 30.65H68.9s-.2-.05-.3.15c-.1.15.05.35.5.55.35.15.45 1.1.45 1.1s.2 7.22.1 8.78c-.05.85-.15 1.45-.45 1.9-.2.36-.9 1.51-2.96 1.51-1.45 0-2.4-.5-3.01-1.5-.5-.8-.45-1.81-.45-1.81l-.1-8.23s.05-1.3.35-1.6c.3-.3.6-.35.6-.6 0-.2-.2-.15-.2-.15h-4.31s-.25 0-.2.25c.05.3.55.25.75.65.25.5.3 1.5.3 1.5l.15 8.78s0 1.76 1.2 2.96c1.81 1.8 3.41 1.96 5.07 1.96 1.76 0 3.71-.66 4.87-2.36.95-1.46.85-3.06.85-3.06V32.9s.05-.8.3-1.3.6-.35.65-.65c.25-.25 0-.3 0-.3ZM101.55 32.1c-1.05-.9-3.26-1.55-4.51-1.6-1.3-.1-6.32-.1-6.57.05-.2.15-.15.25 0 .45s.3-.15.65.55c.35.65.3 1.3.3 1.3l.1 10.74s.05 1.5-.3 1.85c-.35.35-.7.45-.7.65 0 .3.45.3.45.3l6.62-.1s1.95-.25 3.16-1.05c1.15-.75 2.16-1.6 2.6-2.6 1.21-2.61.9-4.42.76-5.77a7.1 7.1 0 0 0-2.56-4.77Zm-2.76 11.64c-1.7.75-3.56.65-4.11.35-.55-.3-.55-.6-.55-.6l-.15-10.64s.55-.25 1.8-.25c1.2 0 2.56.2 3.61.95.4.3 2.11 1.51 2.16 4.57.1 3.51-1.25 4.91-2.76 5.62ZM131.4 28.64s0-.35-.1-.5c-.1-.1-.6-.1-.6-.1h-9.59s-.5 0-.45.3c.05.4.35.1.8.75.4.55.4 1.56.4 1.56l.05 12.99s0 .95-.4 1.55c-.35.55-.75.45-.8.7-.05.3.3.3.3.3s4.41.05 4.67 0c.25-.05.35-.2.25-.4-.1-.25-.5-.05-.86-.75-.3-.6-.3-1.4-.3-1.4v-5.82l4.22.05s.85.1 1.1.5c.3.45.4.65.65.7.25.05.3-.4.3-.4v-4.11s0-.3-.35-.25c-.2.05-.25.65-.85.9-.5.2-1.3.35-1.3.35l-3.77-.05V30.3h3.82s1 0 1.55.2c.65.26.65.96 1 1 .3.06.3-.24.3-.24l-.05-2.61ZM159.43 44.19c-.3-.6-6.37-14.2-6.37-14.2s-.2-.3-.45-.3c-.15 0-.3.25-.3.25l-6.47 15s-.25.45-.55.55c-.2.05-.35.2-.4.3l-.76-.6-4.06-5.82c-.05-.1-.05-.25-.05-.25s1.16-.4 1.76-.95a4.59 4.59 0 0 0 .65-6.07c-.95-1.5-3.41-1.76-3.41-1.76l-6.77-.05s-.35 0-.35.26c0 .3.5.3.75.8.3.5.25 1.3.25 1.3l.1 11.44s0 .55-.2 1.05c-.25.5-.7.5-.75.7-.05.25.2.3.2.3h4.06s.3 0 .3-.25-.15-.1-.55-.55a2.42 2.42 0 0 1-.45-1.25l-.1-11.24s-.05-.3.15-.45c.25-.2 2.05-.25 3.2.05 1.06.25 1.71 1.46 1.66 2.56 0 1.1-.6 1.96-1.8 2.36-1.2.4-2.31 0-2.46.25-.2.35.45 1.2.45 1.2l4.06 6.17s.6.95 1.3 1.15c.66.16 3.27 0 3.27 0l-.2-.15c.65.05 3.7-.05 3.7-.05s.2.1.16-.25c-.05-.4-.45-.15-.45-.9 0-.5 1.2-3.06 1.2-3.06h5.77s1.15 2.2 1.15 3.11c0 .65-.5.55-.5.85 0 .3.3.25.3.25h3.91s.4-.05.16-.45c0-.05-.36.2-1.1-1.3Zm-8.83-4.47 2.16-5.31 2.06 5.36-4.22-.05ZM175.63 30.2h-4.31s-.15 0-.15.25c0 .3.5 0 .8.45.25.35.4 1 .4 1l.1 8.98-10.38-11.29s-.1-.1-.3-.1c-.1 0-.2.25-.2.25l.15 14.3s0 .65-.35 1.1c-.3.35-.55.4-.55.65 0 .2.15.2.15.2h4.06s.25 0 .2-.3c-.05-.25-.55 0-.9-.8-.2-.5-.25-1.15-.25-1.15l-.05-8.33 10.23 11.09s.3.2.45.05c.1-.1.1-.36.1-.36l-.05-13.84s.05-.85.25-1.25.7-.35.7-.6c.05-.3-.1-.3-.1-.3ZM188.67 42.93c-.3 0-.5.3-.5.3s-.95.76-2.56 1.06c-1.55.25-3.1.15-4.51-.9-1.8-1.36-2.26-3.36-2.26-5.17-.05-2.76 1.26-4.72 2.76-5.57 1.76-1.05 3.76-.7 5.07-.4 1.25.3 1.5.95 1.9.95.3 0 .3-.35.3-.35V30.4s0-.26-.2-.3c-.35-.06-.35.2-.65.2-.3 0-.85-.16-1.1-.26-.25-.1-3.46-.7-5.52.05-2.9 1.1-4.01 3.01-4.71 4.72-.7 1.65-.9 5.06.4 7.47 1.95 3.66 4.96 4.22 7.12 4.22 2.66.05 4.46-.8 4.46-.8l.35-2.31c-.1.15-.1-.4-.35-.46ZM199.8 42.78c-.44.05-.2.4-.8.76-.65.4-1.25.35-1.25.35l-3.1.05s-.46 0-.76-.25c-.2-.15-.15-.8-.15-.8l-.05-4.12s2.46-.05 3.3 0c.81.05 1.16.2 1.46.45.2.2.4.6.6.6.16 0 .2-.35.2-.35v-3.76s-.04-.3-.24-.2c-.25.1-.5.45-.7.7-.26.3-.86.4-.86.4l-3.76.05s-.05-3.3-.05-4.26c0-.2.3-.25.3-.25h3.36s.95 0 1.2.2c.35.3.56.85.96.85.25 0 .25-.4.25-.4l-.05-2.3s0-.3-.15-.36c-.15-.1-.8-.05-.8-.05l-8.58.05s-.35.1-.1.36c.25.25.65.35.75.9.15.6.2 1.1.2 1.1l.05 11.29s-.05 1-.3 1.4c-.2.4-.7.25-.65.55.05.25.4.3.4.3l9.08-.05s.05-.05.2-1.2c.2-1.1.4-2.06.05-2ZM59.52 47.85c-.65.1-2.06-.7-2.56-.95-.45-.2-1.8-1-1.8-1s1.65-1 2.75-2.77a8.96 8.96 0 0 0 1.16-4.56 8.25 8.25 0 0 0-4.22-7.52c-2.05-1.06-6.01-1.1-8.22.25a7.82 7.82 0 0 0-3.86 7.07c0 5.02 3.26 7.37 4.96 7.92 2.51.86 4.47.46 4.47.46s3.16 1.85 3.7 2.05c.56.2 1.46.8 2.06.76.86-.06 2.16-1.4 2.16-1.4s.2-.31.1-.46c-.15-.05-.3.05-.7.15Zm-8.23-3.16c-2.05.1-3.8-.8-4.81-2.36-1.46-2.15-1.4-6.12.55-8.22.95-1 1.55-1.46 3.66-1.7 3.71 0 5.27 2.35 5.67 5 .45 3.57-1.3 7.13-5.07 7.28ZM42.47 30.75h-4.32s-.15 0-.15.25c0 .3.5 0 .8.45.25.35.4 1 .4 1l.1 8.98-10.38-11.29s-.1-.1-.3-.1c-.1 0-.2.25-.2.25l.1 14.3s0 .65-.35 1.1c-.3.35-.55.35-.55.66 0 .2.15.2.15.2h4.06s.25 0 .2-.3c-.05-.26-.55 0-.9-.8-.2-.5-.25-1.16-.25-1.16l-.05-8.33 10.23 11.09s.3.2.4.05c.1-.1.1-.35.1-.35l-.05-13.85s.05-.85.25-1.25.66-.35.7-.6c.16-.3 0-.3 0-.3ZM26.21 44.69c-.3-.6-6.37-14.2-6.37-14.2s-.2-.3-.45-.3c-.15 0-.3.26-.3.26l-6.47 15s-.25.44-.55.54c-.4.1-.55.46-.2.56.35.1 3.81-.05 3.81-.05s.2.1.15-.26c-.05-.4-.45-.15-.45-.9 0-.5 1.2-3.06 1.2-3.06h5.77s1.16 2.2 1.16 3.11c0 .65-.5.55-.5.85 0 .3.3.26.3.26h3.9s.4-.05.16-.46c-.05-.1-.4.15-1.16-1.35Zm-8.82-4.46 2.15-5.32 2.06 5.37-4.21-.05ZM11.77 38.22c-.75-.8-2.1-1.5-2.1-1.5s1.15-.56 1.85-1.76c.35-.6.45-1.46.35-2.56-.2-2.46-2.6-3.56-4.11-3.66-1.3-.1-7.48-.1-7.48-.1s-.2 0-.2.3c0 .15.55.35.8.7.46.6.36 1.66.36 1.66v12.44s0 .7-.2 1.35c-.26.9-.7.7-.96 1-.25.3.15.46.15.46l7.08.05s2.25.1 3.96-1.3c.75-.61 1.65-1.61 1.7-3.77a5.6 5.6 0 0 0-1.2-3.31ZM4.04 30.9s3.21-.55 4.27.7c1.15 1.3.7 3.16-.55 3.86-1.5.75-3.72.5-3.72.5V30.9Zm5.27 12.54c-1.3 1.4-4.26 1.05-4.76.8-.4-.2-.45-.6-.45-.6v-5.27s0-.15.7-.2c.7-.05 1.8 0 2.35.1 1.56.3 2.16.9 2.61 1.9.35.76.3 2.46-.45 3.27ZM83.5 43.14c-.46.05-.2.4-.8.75-.66.4-1.16.35-1.16.35l-3.11.05s-.45 0-.75-.25c-.2-.15-.15-.8-.15-.8v-4.12s2.45-.05 3.3 0c.8.05 1.16.2 1.46.45.2.2.3.6.55.6.15 0 .2-.35.2-.35v-3.76s-.05-.3-.25-.2c-.25.1-.4.45-.6.7-.25.3-.85.4-.85.4l-3.76.06s-.05-3.16-.05-4.17c0-.2.3-.25.3-.25h3.36s.95 0 1.2.2c.3.3.45.86.85.86.25 0 .25-.4.25-.4l-.05-2.31s0-.3-.15-.35c-.15-.1-.7-.05-.7-.05l-8.58.05s-.35.1-.1.35c.2.25.66.2.76.8l.2 1.1.05 11.29s-.05 1-.3 1.4c-.2.4-.7.25-.66.55.05.26.4.3.4.3l9.03-.04s.05-.05.2-1.2c.1-1.11.3-2.07-.1-2.01Z" fill="#003DA5"/><path d="M113.99 42.98c-.45.05-.2.4-.8.76-.66.4-1.16.35-1.16.35l-3.1.05s-.46 0-.76-.25c-.2-.15-.15-.8-.15-.8v-4.12s2.46-.05 3.31 0c.8.05 1.16.2 1.46.45.2.2.3.6.55.6.15 0 .2-.35.2-.35v-3.76s-.05-.3-.25-.2c-.25.1-.4.45-.6.7-.25.3-.86.4-.86.4l-3.76.06s-.05-3.16-.05-4.12c0-.2.3-.25.3-.25h3.36s.95 0 1.2.2c.36.3.46.85.86.85.25 0 .25-.4.25-.4l-.05-2.3s0-.3-.15-.35c-.15-.1-.7-.05-.7-.05l-8.58.05s-.35.1-.1.35c.2.25.65.2.75.8.15.6.2 1.1.2 1.1l.05 11.29s-.05 1-.3 1.4c-.2.4-.7.25-.65.55.05.25.4.3.4.3l9.03-.05s.05-.05.2-1.2c.1-1.15.25-2.1-.1-2.06Z" fill="#003DA5"/></svg>