<svg xmlns="http://www.w3.org/2000/svg" fill="none" viewBox="0 0 200 95">
  <path fill="#003DA5" d="M111.8 26.5c3-16.2 11.8-26.5 11.8-26.5H112s-7.3 10-10 26.2A66 66 0 0 0 92 0H80.5s8.8 10.3 11.8 26.5h19.5ZM92.4 47.9c-3 16.6-12 27-12 27H92s7.4-10 10-26c2.7 16 10 26 10 26h11.6s-9-10.4-12-27H92.5ZM124 26.5a78.2 78.2 0 0 1 8.7-16.5h-12s-4.6 7.7-7.3 16.5h10.6Zm-11 21.4a79 79 0 0 0 7.5 17h12s-5.6-8-8.8-17h-10.6Zm23.3-21.4a48.5 48.5 0 0 1 5.9-7.7h-12.6s-2.3 3-4.2 7.7h11Zm-1 21.4h-10.3a37.8 37.8 0 0 0 4.4 8.4h12.6s-3.8-3.4-6.6-8.4ZM90.6 26.5A78.5 78.5 0 0 0 83.2 10h-12s5.6 7.6 8.8 16.4h10.5ZM80.2 47.9a76 76 0 0 1-8.7 17h12s4.8-8 7.4-17H80.2Zm-1.7-21.4a38.1 38.1 0 0 0-4.1-7.7H61.8s3.1 3.2 5.8 7.7h11Zm-10 21.4a35.5 35.5 0 0 1-6.6 8.4h12.6s2.5-3.4 4.4-8.4H68.5Zm-20 35.4s-.3 0-.1.2c.1.2.4.2.5.6l.1.7v7.3l-.2 1c-.1.2-.4.1-.4.3 0 .2.2.2.2.2h6l.1-.9c.1-.7.2-1.3 0-1.3-.3 0-.2.3-.5.5-.4.3-.8.2-.8.2h-2.5l-.1-.6V89h2.1c.6 0 .8 0 1 .3l.4.4.1-.3V87s0-.2-.1-.1l-.5.4c-.1.2-.5.3-.5.3h-2.5v-2.7l.2-.2h2.2l.8.1c.2.2.3.6.6.6l.1-.3v-1.5l-.1-.2h-6.2Zm8 0h2.8s0 0 0 .2l-.3.4c-.2.2-.3 1-.3 1v5.3s0 .7.4 1.2c.4.7 1 1 2 1 1.3 0 1.7-.7 1.8-1 .2-.3.3-.7.3-1.2v-5.7s-.1-.7-.3-.7c-.3-.2-.4-.3-.3-.4 0-.1.2 0 .2 0h2.7s.1 0 0 .1c0 .2-.2.1-.4.5l-.2.8v5.5s0 1-.5 2a3.8 3.8 0 0 1-3.2 1.6c-1 0-2-.1-3.3-1.3-.8-.8-.8-1.9-.8-1.9V85l-.3-1-.5-.4c0-.2.2-.2.2-.2Zm11.4.7c-.2-.3-.5-.3-.5-.5s.2-.2.2-.2h4.5s1.6.2 2.2 1.2c.3.4.5.9.5 2 0 .7-.4 1.4-1 2-.3.3-1 .5-1 .5v.2l2.6 3.8.8.6h-2c-.5-.1-1-.7-1-.7l-2.6-4s-.4-.6-.3-.8c.1-.2.8 0 1.6-.2s1.2-.8 1.2-1.5-.4-1.5-1.1-1.7a5 5 0 0 0-2.1 0l-.1.3v7.3s0 .5.3.8l.4.3c0 .2-.2.2-.2.2h-2.7s-.1 0-.1-.2.3-.2.4-.5c.2-.3.2-.7.2-.7v-7.4s0-.5-.2-.8Zm56.8-.6s-.2 0-.1.2c.1.1.4.1.5.5l.1.7V92l-.2.9c-.1.2-.4.2-.4.3 0 .2.2.2.2.2h5.9l.1-.8c.1-.7.2-1.4 0-1.3-.3 0 0 .2-.5.5s-.7.2-.7.2h-2l-.5-.1-.1-.5v-2.7h2.1c.6 0 .8.1 1 .3l.3.4.2-.2v-2.4s0-.2-.2-.2l-.4.5c-.1.2-.5.2-.5.2H127v-2.6l.2-.2h2.1l.8.1c.2.2.3.6.6.6l.1-.3v-1.7h-6.1Zm21.8 0s-.2 0 0 .2c.1.1.4.1.5.5l.1.7V92l-.2.9c-.1.2-.4.1-.4.3 0 .2.2.2.2.2h6v-.8c.2-.7.3-1.4 0-1.3-.2 0 0 .2-.4.5s-.8.2-.8.2h-2l-.4-.1-.1-.5v-2.7h2.1c.6 0 .8.1 1 .3l.3.4.2-.2v-2.4s0-.2-.2-.2l-.4.5c-.1.2-.5.2-.5.2H149v-2.6l.1-.2h2.2l.8.1c.2.2.3.6.6.6l.1-.3v-1.7h-6.3ZM95 86h-.1v-.2a2.5 2.5 0 0 0-.8-1.4c-.4-.3-.8-.4-1.4-.4s-1 .2-1.4.4c-.4.3-.5.6-.5 1.1 0 .4 0 .7.5 1l1.8 1c1 .3 1.7.7 2.2 1.2.4.5.6 1.1.6 1.9 0 1-.3 1.7-1 2.3-.8.5-1.8.8-3 .8l-1.4-.1-1-.4-.1-.1v-.2l-.1-1.5v-.2l.1-.2H89.7c.2.6.4 1 .8 1.3.5.4 1 .6 1.5.6.7 0 1.3-.1 1.7-.4.4-.3.7-.7.7-1.2 0-.4-.2-.7-.5-1a6 6 0 0 0-1.6-.9A5.9 5.9 0 0 1 90 88c-.5-.6-.8-1.2-.8-2s.4-1.5 1-2a4 4 0 0 1 2.7-.9c.5 0 1 0 1.3.2l1 .3.2.2v2h-.1l-.2.2Zm-12.6 6.5c-1.3 0-2.5-.5-3.2-1.5-1-1.4-.9-4 .4-5.4.6-.6 1-1 2.3-1 2.4 0 3.4 1.4 3.7 3.2.4 2.3-.8 4.6-3.2 4.7Zm3.6-8a5.3 5.3 0 0 0-3.8-1.5 5 5 0 0 0-3.8 1.7 5.8 5.8 0 0 0-1.6 4.1 5 5 0 0 0 1.6 3.7 5.3 5.3 0 0 0 3.8 1.5 5 5 0 0 0 3.8-1.6 5.8 5.8 0 0 0 1.6-4.1 5 5 0 0 0-1.6-3.8Zm16.6 3.4.1 4.5s0 .5.3.8l.4.3c0 .2-.2.2-.2.2h-2.7s-.2 0-.2-.2.4-.2.5-.5c.2-.3.2-.7.2-.7v-4.6"/>
  <path fill="#003DA5" d="M106.8 83.3h-2.7l-.2.1c0 .2.4.1.4.4 0 .4-2.4 3.9-2.4 3.9s-2.7-3.7-2.7-4c0-.3.3-.1.3-.3v-.1h-2.6c-.2 0-.1.2.2.3.2 0 .3.2.3.2l4.2 6.1.2.1.3-.1 4.2-5.8c.5-.6.7-.5.7-.6l-.2-.2Zm13.4 1.3v7.8s0 .5.3.8l.3.3c0 .2-.2.2-.2.2H118s-.1 0-.1-.2.3-.2.5-.5l.1-.7v-7.8"/>
  <path fill="#003DA5" d="M118.7 84.6h2.7l.8.1c.2.2.3.6.6.6l.1-.3v-1.7h-4.2"/>
  <path fill="#003DA5" d="M119.4 84.6H117l-.8.1c-.2.2-.3.6-.6.6l-.1-.3v-1.7h3.8m-6 2.7h-.1v-.2a2.5 2.5 0 0 0-.8-1.4c-.4-.3-.8-.4-1.4-.4s-1 .2-1.4.4c-.4.3-.5.7-.5 1.1 0 .4 0 .7.5 1s1 .7 1.8 1c1 .3 1.7.8 2.2 1.3.4.5.6 1 .6 1.8 0 1-.3 1.8-1 2.3-.8.6-1.8.9-3 .9-.5 0-1 0-1.4-.2-.3 0-.6-.2-1-.4h-.1v-2l.1-.1.2-.1h.1c.2.6.4 1 .8 1.4.5.4 1 .6 1.5.6.7 0 1.3-.2 1.6-.5.4-.3.7-.6.7-1.2 0-.4-.1-.7-.5-1-.3-.3-.8-.5-1.5-.8a5.9 5.9 0 0 1-2.5-1.5c-.5-.5-.7-1.2-.7-2 0-.7.3-1.4 1-2a4 4 0 0 1 2.6-.8l1.4.1c.3 0 .6.2.9.4 0 0 .2 0 .2.2v.2l.1 1.6v.2h-.4Zm16-3.5h-.1l-2.4-1.2h-.1c-.2-.2-.4-.4-.4-.6v-.5l.6-.3c.2-.1.4 0 .6.2h.1l2 2v.2l-.2.2Zm13.2 1s.6-.5.9-.3c.4.3.3.6.3.6v8.6s0 .4.2.7c.1.2.3.2.3.4l-.1.1h-2.4s-.2 0-.2-.2c0-.1.3 0 .5-.5.2-.3.2-.7.2-.7v-5.4l-3 5.9s0 .3-.5.3c-.6 0-.6-1-.6-1"/>
  <path fill="#003DA5" d="M143.2 83.2h1s.2 0 0 .2c0 .1-.3.1-.4.5V85.2m-8.4-1.6c-.2-.1-.8-.6-1.1-.4-.5.3-.3.6-.3.6v8.6s0 .4-.2.7c-.1.2-.3.2-.3.4l.1.1h2.4s.2 0 .1-.2c0-.2-.3 0-.5-.5l-.1-.7v-5.4l2.9 6s0 .3.5.2c.5 0 .7-1.2.7-1.2"/>
  <path fill="#003DA5" d="M134.6 83.2h-1.1s-.2 0 0 .2c.1.1.3.1.4.5l.1.7v.6M73 30.6H69s-.2 0-.3.2c-.1.1 0 .3.5.5.4.2.5 1.1.5 1.1s.2 7.3 0 8.8c0 .9-.1 1.5-.4 2-.2.3-.9 1.4-3 1.4-1.4 0-2.4-.5-3-1.5-.5-.8-.4-1.8-.4-1.8l-.1-8.2s0-1.3.3-1.6c.3-.3.6-.4.6-.6 0-.2-.2-.2-.2-.2h-4.3s-.2 0-.2.3.6.2.8.6l.3 1.5.1 8.8s0 1.8 1.2 3c1.8 1.8 3.4 2 5 2 1.9 0 3.8-.7 5-2.4 1-1.5.8-3 .8-3v-8.6s0-.8.3-1.3.6-.4.7-.7c.2-.2 0-.2 0-.2Zm28.5 1.5a9 9 0 0 0-4.5-1.6 55 55 0 0 0-6.5 0c-.2.2-.2.3 0 .5s.3-.1.6.6c.4.6.3 1.2.3 1.2l.1 10.8s0 1.5-.3 1.8c-.3.4-.7.5-.7.7 0 .3.5.3.5.3l6.6-.1s2-.3 3.2-1a6.7 6.7 0 0 0 2.6-2.7c1.2-2.6.8-4.4.7-5.7a7.1 7.1 0 0 0-2.5-4.8Zm-2.7 11.6c-1.7.8-3.6.7-4.1.4-.6-.3-.6-.6-.6-.6L94 32.9s.5-.3 1.8-.3c1.2 0 2.5.2 3.6 1 .4.3 2.1 1.5 2.1 4.5.1 3.5-1.2 5-2.7 5.6Zm32.6-15-.1-.6h-10.2s-.5 0-.4.2c0 .4.3.1.8.8.4.5.4 1.5.4 1.5v13s0 1-.4 1.6c-.3.5-.7.4-.8.7 0 .3.3.3.3.3h4.7c.2 0 .3-.2.2-.4 0-.3-.5 0-.8-.8-.3-.6-.3-1.4-.3-1.4v-5.8h4.2s.8.2 1 .6l.7.7c.3 0 .3-.4.3-.4v-4.1s0-.3-.3-.3c-.2 0-.3.7-.9 1l-1.3.3h-3.7v-5.3h3.8s1 0 1.5.2c.7.3.7 1 1 1 .3 0 .3-.2.3-.2v-2.6Zm28 15.5L153.1 30s-.2-.3-.5-.3l-.3.2-6.5 15s-.2.5-.5.6c-.2 0-.4.2-.4.3l-.8-.6-4-5.8V39s1-.4 1.7-1a4.6 4.6 0 0 0 .6-6c-1-1.5-3.4-1.8-3.4-1.8h-6.8s-.3 0-.3.2c0 .3.5.3.7.8.3.5.3 1.3.3 1.3l.1 11.5s0 .5-.2 1c-.3.5-.7.5-.8.7 0 .3.2.3.2.3h4.1s.3 0 .3-.2-.1-.1-.5-.6a2.4 2.4 0 0 1-.5-1.2V32.8s-.1-.3 0-.4c.3-.2 2.1-.3 3.3 0 1 .3 1.7 1.5 1.6 2.6 0 1.1-.6 2-1.8 2.4-1.2.4-2.3 0-2.4.2-.2.4.4 1.2.4 1.2l4 6.2s.7 1 1.4 1.1c.6.2 3.2 0 3.2 0l-.2-.1h3.7s.2 0 .2-.3c0-.4-.5-.2-.5-1 0-.4 1.2-3 1.2-3h5.8s1.2 2.2 1.2 3.1c0 .7-.5.6-.5.9 0 .3.3.2.3.2h3.9s.4 0 .1-.4c0 0-.3.2-1-1.3Zm-8.8-4.5 2.2-5.3 2 5.4h-4.2Zm25-9.5h-4.3s-.1 0-.1.3c0 .2.5 0 .8.4l.4 1v9l-10.3-11.3-.3-.1-.2.2.1 14.3s0 .7-.3 1.1c-.3.4-.6.4-.6.7 0 .2.2.2.2.2h4s.3 0 .3-.3c-.1-.3-.6 0-1-.8-.2-.5-.2-1.2-.2-1.2v-8.3l10.2 11.1s.3.2.4 0l.1-.3V32.3s0-.8.2-1.2.7-.4.7-.6v-.3Zm13 12.7c-.2 0-.4.3-.4.3s-1 .8-2.6 1c-1.5.3-3 .2-4.5-.8-1.8-1.4-2.3-3.4-2.3-5.2 0-2.7 1.3-4.7 2.8-5.6 1.8-1 3.8-.7 5-.4 1.3.3 1.6 1 2 1 .3 0 .3-.3.3-.3v-2.5s0-.3-.2-.3c-.4 0-.4.2-.7.2a11.6 11.6 0 0 0-6.6-.2c-2.9 1-4 3-4.7 4.7-.7 1.7-1 5 .4 7.5 2 3.6 5 4.2 7.1 4.2 2.7 0 4.5-.8 4.5-.8l.3-2.3c0 .1 0-.4-.3-.5Zm11.2-.1c-.4 0-.2.4-.8.7-.7.4-1.3.4-1.3.4h-3s-.5 0-.8-.2c-.2-.2-.2-.8-.2-.8v-4.1h3.3c.8 0 1.2.2 1.5.4.2.2.4.6.6.6l.2-.3v-3.8s0-.3-.3-.2l-.7.7c-.3.3-.9.4-.9.4h-3.7v-4.2c0-.2.2-.2.2-.2h3.4s1 0 1.2.2c.3.3.6.8 1 .8.2 0 .2-.4.2-.4v-2.3s0-.3-.2-.4h-9.4s-.3.1 0 .4c.2.3.6.4.7.9l.2 1.1v11.3s0 1-.3 1.4c-.2.4-.7.2-.6.5 0 .3.4.3.4.3h9l.3-1.2c.2-1.1.4-2 0-2Zm-140.3 5c-.6.2-2-.6-2.5-.9l-1.8-1s1.6-1 2.7-2.8a9 9 0 0 0 1.2-4.5 8.3 8.3 0 0 0-4.2-7.6c-2.1-1-6-1-8.3.3a7.8 7.8 0 0 0-3.8 7c0 5 3.2 7.4 5 8 2.4.8 4.4.4 4.4.4l3.7 2.1c.6.2 1.5.8 2 .8 1-.1 2.2-1.4 2.2-1.4s.2-.4.1-.5l-.7.1Zm-8.2-3.1c-2 0-3.8-.8-4.8-2.4-1.5-2.1-1.4-6 .5-8.2 1-1 1.6-1.5 3.7-1.7 3.7 0 5.3 2.4 5.7 5 .4 3.6-1.3 7.1-5.1 7.3Zm-8.8-14H38s-.1 0-.1.3.5 0 .8.5c.3.3.4 1 .4 1l.1 9L28.9 30h-.3l-.2.2.1 14.3s0 .6-.3 1-.6.4-.6.8c0 .2.2.2.2.2h4s.3 0 .2-.3c0-.3-.5 0-.9-.8-.2-.5-.2-1.2-.2-1.2V36L41 47s.3.3.4.1V32.9s0-.8.3-1.2.6-.4.7-.6v-.3Zm-16.3 14-6.4-14.2s-.2-.3-.4-.3-.3.2-.3.2l-6.5 15s-.2.5-.5.6c-.4 0-.6.5-.2.6l3.8-.1s.2.1.1-.3c0-.4-.4-.1-.4-.9 0-.5 1.2-3 1.2-3h5.8s1.1 2.2 1.1 3c0 .7-.5.6-.5 1 0 .2.3.2.3.2h4s.3 0 0-.5c0 0-.3.2-1-1.3Zm-8.8-4.5 2.1-5.3 2.1 5.4h-4.2Zm-5.6-2c-.8-.8-2.1-1.5-2.1-1.5s1.1-.5 1.8-1.7c.4-.6.5-1.5.4-2.6-.2-2.5-2.6-3.6-4.1-3.7H.3s-.2 0-.2.2.5.4.8.7c.4.6.3 1.7.3 1.7v12.4s0 .7-.2 1.4c-.2.9-.7.7-1 1-.2.3.2.4.2.4l7.1.1s2.3.1 4-1.3c.7-.6 1.6-1.6 1.7-3.8a5.6 5.6 0 0 0-1.2-3.3ZM4 31s3.3-.6 4.3.7c1.2 1.3.7 3.2-.5 3.9-1.5.7-3.8.5-3.8.5v-5.1Zm5.3 12.5c-1.3 1.4-4.3 1-4.8.8a.8.8 0 0 1-.4-.6v-5.2s0-.2.7-.2h2.3c1.6.4 2.2 1 2.7 2 .3.7.3 2.4-.5 3.2Zm74.2-.3c-.5 0-.2.4-.8.8-.7.4-1.2.3-1.2.3h-3s-.5 0-.8-.2c-.2-.1-.2-.8-.2-.8v-4h3.3c.8 0 1.2.1 1.5.4.2.2.3.6.5.6s.2-.4.2-.4v-3.7s0-.3-.2-.2c-.3 0-.4.4-.6.7-.3.3-.9.4-.9.4h-3.7V33c0-.2.2-.3.2-.3h3.4s1 0 1.2.2c.3.3.4.9.8.9.3 0 .3-.4.3-.4V31s0-.3-.2-.4H74s-.3.1 0 .4c.1.2.6.2.7.8l.2 1v11.3s0 1-.3 1.4c-.2.4-.7.3-.6.6 0 .3.4.3.4.3h9l.2-1.2c0-1.2.3-2.1-.1-2ZM114 43c-.5 0-.2.4-.8.7-.7.4-1.2.4-1.2.4h-3s-.5 0-.8-.2c-.2-.2-.2-.8-.2-.8V39h3.3c.8 0 1.2.2 1.5.4.2.2.3.6.5.6s.2-.3.2-.3v-3.8s0-.3-.2-.2c-.3.1-.4.5-.6.7-.3.3-.9.4-.9.4h-3.7v-4c0-.2.2-.3.2-.3h3.4s1 0 1.2.2c.3.3.4.9.8.9.3 0 .3-.4.3-.4v-2.3s0-.3-.2-.4H104.5s-.3.1 0 .4c.1.2.6.2.7.8l.2 1V44s0 1-.3 1.4c-.2.4-.7.3-.6.6 0 .2.4.3.4.3h9l.2-1.3c0-1.1.2-2-.1-2Z"/>
</svg>
