<svg xmlns="http://www.w3.org/2000/svg" viewBox="0 0 1450 1295"><path d="m784 181 3.701.52c29.434 4.251 58.105 11.039 86.299 20.48l3.224 1.07C918.712 216.967 958.494 237.466 994 263l2.312 1.656c9.205 6.618 18.197 13.381 26.758 20.817 2.887 2.49 5.833 4.889 8.805 7.277a117.374 117.374 0 0 1 10.477 9.598c1.668 1.672 3.407 3.189 5.21 4.714a217.024 217.024 0 0 1 23.75 23.973c2.083 2.425 4.263 4.749 6.438 7.09 5.245 5.76 10.045 11.801 14.786 17.979a606.397 606.397 0 0 0 4.487 5.724c48.344 61.534 79.218 135.802 91.915 212.797l.64 3.823c1.166 7.422 2.291 15.037 1.422 22.552-2.38 2.38-2.888 2.258-6.127 2.29l-2.579.04-2.79.006-2.862.02c-2 .01-4 .015-6 .015-3.064.004-6.127.04-9.19.078-1.942.006-3.882.01-5.823.012l-2.784.043c-6.257-.045-6.257-.045-8.862-2.08-1.303-3.213-1.839-6.236-2.342-9.67l-.68-4.43-.35-2.35C1129.877 513.408 1100.799 445.924 1056 389l-1.58-2.013a377.81 377.81 0 0 0-21.997-25.462 252.84 252.84 0 0 1-4.091-4.505c-62.474-69.857-155.42-114.113-282.516-130.422C647.282 221.372 548.812 250.87 443 332l-2.174 1.913c-6.47 5.74-12.654 11.729-18.767 17.843a1330.957 1330.957 0 0 1-4.87 4.83c-6.517 6.483-12.462 13.21-18.189 20.414a272.27 272.27 0 0 1-2.828 3.285c-7.676 8.803-14.49 18.142-21.172 27.715l-1.34 1.913c-38.165 54.871-63.604 120.708-71.026 187.257-.696 3.105-1.18 3.916-3.634 5.83-1.98.374-1.98.374-4.256.372l-2.589.02-2.784-.029-2.865.002a843.197 843.197 0 0 1-5.994-.029c-3.066-.023-6.131-.02-9.198-.014-1.939-.005-3.878-.012-5.818-.021l-2.79.003-2.58-.03-2.273-.013C256 603 256 603 254 601c-1.19-8.19.818-16.868 2.125-24.938l.337-2.115C267.81 503.187 295.286 435.303 337 377l1.747-2.445c6.923-9.647 14.05-19.018 21.866-27.957 1.5-1.728 2.978-3.474 4.453-5.223 4.816-5.698 9.634-11.272 15.014-16.452 1.826-1.829 3.496-3.718 5.166-5.689 3.6-4.144 7.469-7.893 11.504-11.609l2.126-1.972c1.4-1.296 2.803-2.591 4.207-3.884a757.35 757.35 0 0 0 4.91-4.574c6.399-5.944 13.123-11.343 20.037-16.666a621.453 621.453 0 0 0 6.232-4.916c10.232-8.119 20.733-15.58 31.738-22.613l2.416-1.557c58.219-37.398 123.181-60.27 191.502-70.142 1.918-.277 3.835-.563 5.751-.849 38.36-5.484 79.99-4.975 118.331.548Z" fill="#00A5F0"/><path d="m756 271 2.061.65c14.23 4.582 26.623 11.536 37.939 21.35l2.45 2.012C818.61 312.134 831.867 337.776 835 364c.288 4.92.334 9.822.313 14.75l-.006 2.011c-.045 9.797-.478 18.811-3.307 28.239l-.996 3.621c-4.265 14.182-11.18 26.993-20.637 38.383-2.138 2.685-3.318 4.646-3.8 8.066 2.366 4.838 6.798 6.316 11.495 8.618 15.088 7.81 28.274 17.02 40.938 28.312.52.46 1.042.918 1.578 1.391 26.84 23.708 46.699 54.797 57.735 88.859l.897 2.759c2.396 7.91 2.396 7.91.79 11.991-2.39 2.39-2.943 2.264-6.203 2.322l-2.63.058-2.847.026-2.922.035c-2.043.019-4.085.032-6.128.04-3.126.019-6.25.08-9.375.144-1.984.013-3.967.024-5.95.031l-2.835.075c-2.509-.017-4.682-.095-7.11-.731-2.521-2.807-2.521-2.807-4-6l-.954-1.988-.651-1.754-.777-2.017-.806-2.116C861.4 575.522 854.255 563.368 845 552l-1.403-1.727c-26.27-32.105-63.954-52.403-105.296-56.806-20.984-1.872-42.21.059-62.301 6.533l-2.188.702C650.46 508.342 630.605 521.01 613 538l-2.582 2.39c-16.488 15.684-28.599 37.147-36.23 58.485C573 602 573 602 571 603c-1.409.1-2.822.138-4.234.145l-2.65.02-2.866.003-2.937.01c-2.05.005-4.102.007-6.153.007-3.147.002-6.294.02-9.441.04-1.99.003-3.98.005-5.969.005l-2.866.022-2.65-.01-2.337.005C527 603 527 603 525 601c-.47-6.018.501-10.729 2.5-16.375l.813-2.352c7.23-20.399 17.107-39.575 30.43-56.658a261.591 261.591 0 0 0 3.25-4.287c17.382-22.478 40.424-41.813 65.995-54.32l3.574-1.758 3.13-1.422c2.61-1.726 2.61-1.726 3.425-5.152-.143-4.506-1.677-6.521-4.554-9.738a395.35 395.35 0 0 1-2.797-3.434l-1.42-1.761c-17.813-23.068-22.228-54.139-18.877-82.368 4.99-29.946 21.724-56.661 46.156-74.625 27.932-19.57 66.72-26.42 99.375-15.75Zm-82.16 64.816C660.472 351.682 656.45 369.798 658 390c2.202 15.582 11.59 30.334 23.625 40.277 16.247 11.784 33.488 16.259 53.473 13.426 16.59-3.164 30.998-13.246 40.84-26.765 10.172-15.692 14.317-32.616 10.521-51.156-4.045-17.705-14.562-32.299-29.834-42.094-27.695-16.18-60.71-11.03-82.785 12.128Zm-76.4 336.676 3.35-.034 3.663.024 3.87-.02c3.505-.02 7.01-.012 10.515 0 3.686.01 7.371.001 11.056-.005 6.205-.007 12.41.002 18.615.022 7.126.021 14.252.014 21.379-.008 6.146-.018 12.291-.02 18.437-.01 3.657.006 7.315.007 10.972-.006 27.451-.087 53.787 1.892 74.703 21.545 11.942 13.273 17.86 29.482 17.219 47.363-1.134 13.66-5.032 28.24-15.567 37.758l-2.465 2.066c-2.895 2.452-4.05 3.436-5.375 7.063.203 2.973.6 4.257 2.188 6.75 2.354 1.863 2.354 1.863 5.125 3.625 11.843 8.406 19.34 21.032 21.875 35.375 1.822 18.715-1.57 37.683-13.207 52.883-2.176 2.483-4.427 4.815-6.793 7.117l-1.566 1.664c-20.324 19.846-53.192 18.664-79.344 18.703-2.15.004-4.3.01-6.45.017-7.513.025-15.027.038-22.542.042-6.986.003-13.971.033-20.957.075-6.026.035-12.052.05-18.078.05-3.588.002-7.175.01-10.763.039-3.987.03-7.974.022-11.96.01l-3.582.044-3.291-.03-2.85.007c-3.895-.924-5.284-2.386-7.617-5.621-.712-3.133-.671-6.18-.628-9.382l-.022-2.875c-.017-3.182 0-6.362.019-9.544-.005-2.28-.013-4.56-.022-6.84-.018-6.194-.005-12.388.014-18.582.017-6.476.008-12.953.003-19.429-.005-10.876.011-21.751.04-32.627.028-11.19.035-22.382.02-33.573-.019-13.486-.017-26.971.002-40.457.007-5.152.006-10.304-.002-15.455-.007-6.064.005-12.127.032-18.19.007-2.228.007-4.457 0-6.685-.009-3.036.007-6.07.03-9.106l-.026-2.69c.052-3.777.108-5.915 2.232-9.112 2.808-1.768 4.44-1.956 7.748-1.96ZM651 729v35c7.644.105 15.286.205 22.93.259 3.56.026 7.12.061 10.68.118 4.097.065 8.192.09 12.288.111l3.821.078c9.154.003 16.219-1.6 22.906-8.129 2.069-5.171 2.1-9.946 1.375-15.437-2.418-5.542-6.694-8.399-12-11-3.302-1.037-6.327-1.121-9.778-1.114h-3.518l-3.782.016-3.884.005c-3.4.003-6.8.013-10.2.024-3.472.01-6.944.015-10.416.02-6.807.01-13.615.03-20.422.049Zm0 87v42c7.4.042 14.8.082 22.2.104 3.447.01 6.894.024 10.34.047 3.965.026 7.93.036 11.894.044l3.703.032c11.666.001 20.112-1.72 29.238-9.165 3.598-4.566 4.113-9.396 3.625-15.062-1.312-5.017-3.193-9.393-7-13-6.551-3.638-12.59-5.13-20.075-5.114h-3.64l-3.898.016-4.014.005c-3.51.003-7.02.013-10.53.024-3.586.01-7.173.015-10.759.02-7.028.01-14.056.03-21.084.049Zm379.168-143.508 3.167-.034 3.46.024 3.658-.02c3.313-.015 6.626-.012 9.939 0 3.486.01 6.972.001 10.458-.005 5.871-.007 11.742.002 17.613.022 6.737.021 13.473.014 20.21-.008 5.814-.018 11.627-.02 17.44-.01 3.459.006 6.917.007 10.375-.006 20.378-.054 39.761.883 58.512 9.545l2.812 1.266c16.928 8.367 28.321 23.628 34.38 41.187 6.82 22.575 4.859 49.05-5.919 70.005-3.287 5.973-7.348 10.83-12.273 15.542l-2.043 2.102c-8.528 8.288-19.235 13.387-30.52 16.773l-1.923.579c-11.848 3.262-23.88 3.837-36.1 3.741a2825.985 2825.985 0 0 1-15.507-.058c-3.828-.02-7.657-.03-11.485-.04-7.474-.02-14.948-.055-22.422-.097l.034 2.852c.101 8.872.176 17.744.225 26.616.026 4.562.062 9.123.118 13.684.055 4.403.084 8.805.097 13.208.01 1.679.028 3.358.055 5.036.036 2.354.04 4.706.039 7.06l.054 2.099c-.04 3.711-.572 5.378-2.823 8.376-3.077 2.274-4.387 2.7-8.153 2.716l-3.165.048-3.387-.03-3.508.014a746.98 746.98 0 0 1-7.333-.027c-3.74-.027-7.477 0-11.218.032-2.376-.004-4.752-.01-7.129-.02l-3.387.03-3.165-.047-2.774-.012c-3.817-.94-5.168-2.545-7.58-5.635-.729-3.128-.671-6.182-.628-9.382l-.022-2.875c-.017-3.182 0-6.362.019-9.544-.005-2.28-.013-4.56-.022-6.84-.018-6.194-.005-12.388.014-18.582.017-6.476.008-12.953.003-19.429-.005-10.876.011-21.751.04-32.627.028-11.19.035-22.382.02-33.573-.019-13.486-.017-26.971.002-40.457.007-5.152.006-10.304-.002-15.455-.007-6.064.005-12.127.032-18.19.007-2.228.007-4.457 0-6.685-.009-3.036.007-6.07.03-9.106l-.026-2.69c.052-3.788.103-5.913 2.25-9.112 2.724-1.728 4.244-1.956 7.458-1.96ZM1084 729v48c7.347.07 14.693.129 22.04.165 2.495.015 4.99.035 7.486.061 3.602.037 7.204.054 10.806.067 1.103.015 2.205.03 3.341.047 9.454.002 18.822-1.117 26.327-7.34 5.059-5.62 6.883-10.512 7-18-.543-6.601-2.092-12.34-7-17-8.727-5.961-18.38-6.288-28.594-6.195l-3.598.008c-3.77.011-7.538.036-11.308.062-2.565.01-5.13.02-7.695.027-6.269.02-12.537.06-18.805.098Zm-670-36 2.598 2.145C428.246 705.137 435.976 716.557 443 730l1.227 2.29c1.234 2.73 1.128 4.752.773 7.71-3.03 6.023-6.592 7.645-12.605 9.867-.84.325-1.678.65-2.542.983-1.77.68-3.545 1.35-5.323 2.011a563.907 563.907 0 0 0-8.071 3.1c-1.729.658-3.459 1.315-5.19 1.969l-2.406.937c-5.249 1.922-10.262 3.004-15.863 2.133-3.57-2.515-5.266-5.407-7.25-9.188-6.702-12.547-17.456-20.91-30.89-25.085-14.886-3.783-28.646-1.57-42.114 5.628-13.392 8.02-21.55 22.217-25.676 36.97-5.606 22.984-3.89 47.388 8.215 68.116 7.619 11.368 17.654 19.244 30.93 22.899 15.614 2.723 31.047 1.128 44.52-7.672 7.948-5.852 12.492-12.917 17.285-21.375 3.035-5.047 3.035-5.047 4.98-6.293 6.728-1.452 11.058-.43 17.39 2.043l2.628.984a639.34 639.34 0 0 1 5.456 2.087 716.375 716.375 0 0 0 8.346 3.154c1.774.673 3.548 1.348 5.32 2.025l2.513.941c4.225 1.654 7.51 3.057 10.347 6.766 1.822 6.106.3 9.844-2.438 15.25l-1.11 2.26c-12.08 23.936-34.02 42.959-59.452 51.49-35.067 10.165-73.05 9.095-105.758-8.09-5.441-3.206-10.368-6.905-15.242-10.91l-2.617-2.117c-22.77-19.365-35.343-50.037-38.217-79.319-.377-5.828-.41-11.663-.416-17.501l-.002-2.086c.017-10.914.636-21.35 3.252-31.977l.472-2.046c6.949-29.468 24.762-56.493 50.527-72.762C315.866 660.25 375.962 660.614 414 693Zm404.857-20.147 2.162-.011c2.403-.011 4.806-.015 7.209-.019l5.154-.02c4.675-.017 9.351-.028 14.027-.036l8.757-.018c9.127-.019 18.254-.033 27.381-.041 10.547-.01 21.094-.036 31.641-.077 8.146-.03 16.29-.045 24.436-.048 4.869-.002 9.737-.011 14.605-.036 4.578-.024 9.156-.028 13.735-.018 1.682 0 3.364-.006 5.045-.02a511.93 511.93 0 0 1 6.88.003l3.891-.007c3.775.58 4.954 1.48 7.22 4.495.501 2.283.501 2.283.502 4.813l.028 2.882-.034 3.09.005 3.19a777.462 777.462 0 0 1-.034 6.67c-.03 3.408-.021 6.815-.008 10.224-.006 2.16-.015 4.32-.025 6.479l.008 3.096-.038 2.873-.016 2.527c-.48 2.67-1.253 3.525-3.388 5.156-3.053 1.018-5.103 1.121-8.298 1.114h-3.275l-3.532-.016-3.62-.005c-3.82-.005-7.642-.018-11.463-.03-2.587-.006-5.175-.01-7.763-.014-6.35-.011-12.7-.028-19.049-.049l.008 2.8c.067 22.467.116 44.933.147 67.4.016 10.865.037 21.73.071 32.594.03 9.468.05 18.936.056 28.404.004 5.014.013 10.03.035 15.044.02 4.718.027 9.435.022 14.153.001 1.734.007 3.467.019 5.2.015 2.364.011 4.727.003 7.09l.026 2.088c-.028 2.988-.255 4.99-1.722 7.622-2.913 2.808-5.853 2.74-9.7 2.782l-3.105.039-3.352.022-3.449.025c-2.41.014-4.818.024-7.227.032-3.686.017-7.37.061-11.055.105-2.34.01-4.68.019-7.02.026l-3.34.053c-7.628-.022-7.628-.022-11.59-2.318-3.281-3.88-2.95-7.375-2.947-12.28l-.003-2.21c-.001-2.45.004-4.9.01-7.351l-.001-5.263c0-4.768.006-9.536.013-14.305.006-4.98.006-9.961.008-14.942.003-9.435.011-18.87.021-28.304.011-10.74.017-21.48.022-32.22.01-22.095.028-44.19.05-66.286l-2.016.027c-6.927.088-13.854.149-20.78.193-2.586.02-5.17.047-7.756.082-3.716.048-7.43.071-11.147.089l-3.501.062c-8.005.002-8.005.002-12.006-2.29-2.535-3.057-2.92-5.531-2.955-9.371l-.03-2.56-.012-2.755-.017-2.844c-.01-1.985-.016-3.97-.02-5.956-.01-3.033-.041-6.066-.073-9.099l-.015-5.789-.038-2.743c.017-4.823.168-8.158 3.366-12.046 2.945-1.473 5.568-1.136 8.857-1.147Z"/><path d="M850 289c5.302.487 9.926 2.332 14.813 4.313l2.608 1.053C898.441 307.132 927.35 323.654 954 344l1.82 1.382c7.113 5.426 13.939 11.03 20.485 17.134a247.492 247.492 0 0 0 6.418 5.691c4.82 4.204 9.329 8.698 13.84 13.23l2.458 2.448c4.867 4.874 9.533 9.854 13.979 15.115l1.55 1.833c41.434 49.485 93.132 131.86 87.45 199.167-1.542 2.036-2.446 2.89-4.973 3.394l-2.267.026-2.579.048h-2.775l-2.858.024c-1.993.01-3.987.013-5.981.009-3.056-.001-6.11.04-9.165.085-1.936.005-3.872.008-5.808.008l-2.775.05c-2.375-.027-4.507-.103-6.819-.644-2.797-3.048-3.457-6.172-4.105-10.191l-.529-3.069-.553-3.303c-10.792-59.438-39.045-115.53-79.708-160.113a268.134 268.134 0 0 1-5.418-6.199c-3.078-3.529-6.323-6.87-9.625-10.188l-1.448-1.462c-4.038-4.02-8.292-7.764-12.614-11.475l-1.924-1.657C929.239 386.076 917.94 377.786 906 370l-2.105-1.375a726.184 726.184 0 0 0-5.957-3.813l-1.935-1.253c-3.471-2.193-6.852-3.959-10.683-5.45-6.148-2.544-11.542-4.863-14.857-10.915-2.775-6.803-4.63-13.86-6.522-20.948-1.293-4.459-3.034-8.58-5.066-12.746l-.979-2.027c-2.5-5.004-5.45-9.65-8.744-14.176-1.448-2.887-1.146-4.278-.152-7.297l1-1Zm-254 1c.777 2.027.777 2.027 1 5a81.912 81.912 0 0 1-4.438 7.563c-6.622 10.67-11.717 22.13-14.886 34.308l-.614 2.334a97.548 97.548 0 0 0-.989 4.328c-.969 3.968-2.262 5.957-5.616 8.096-1.475.81-2.961 1.6-4.457 2.371-1.57.882-3.14 1.768-4.707 2.656l-2.498 1.39C542.188 367.31 526.691 377.932 512 390l-1.598 1.302C492.57 405.882 476.286 421.92 462 440l-2.285 2.836c-33.404 42.257-54.746 91.488-65.453 144.066-2.798 13.634-2.798 13.634-5.262 16.098-1.853.267-1.853.267-4.127.29l-2.579.04-2.79.006-2.862.02c-2 .01-4 .015-6 .015-3.064.004-6.127.04-9.19.078-1.942.006-3.882.01-5.823.012l-2.784.043c-6.3-.045-6.3-.045-8.956-2.28-.975-2.439-1.124-3.68-.737-6.26l.345-2.408.44-2.619.44-2.78c10.152-61.579 35-120.972 73.623-170.157l1.938-2.484C435.017 395.423 451.385 376.733 470 361l2.82-2.45c20.326-17.574 42.654-32.604 66.18-45.55l2.63-1.46c44.572-24.58 44.572-24.58 54.37-21.54Z" fill="#00A5F0"/><path d="m493.816 672.371 3.784-.007c2.638 0 5.273.012 7.91.04 3.376.033 6.75.027 10.125.008 3.227-.013 6.454.006 9.681.022l3.669-.015 3.408.048 2.996.018c3.529.696 4.476 1.607 6.611 4.515.603 3.08.544 6.124.515 9.255l.02 2.87c.019 3.183.009 6.364-.002 9.547.008 2.278.016 4.556.027 6.834.022 6.194.02 12.388.01 18.582-.005 5.167.002 10.334.01 15.5.018 12.884.011 25.768-.006 38.652-.015 11.19 0 22.38.028 33.57.03 11.489.04 22.978.031 34.467-.005 6.45-.003 12.9.018 19.351.018 6.065.012 12.13-.012 18.195-.005 2.228-.002 4.456.01 6.684.017 3.037.002 6.073-.02 9.111l.035 2.683c-.067 4.405-.245 6.16-3.037 9.747-3.03 2.252-4.445 2.571-8.18 2.551l-3.297.019-3.529-.06-3.65-.006c-2.542-.01-5.084-.032-7.627-.065-3.896-.05-7.79-.061-11.686-.067a4112.8 4112.8 0 0 1-7.412-.049l-3.535-.016-3.287-.049c-.954-.01-1.907-.02-2.889-.032-2.713-.293-4.291-.728-6.535-2.274-1.905-3.069-2.252-5.421-2.26-9.003l-.022-3.054.007-3.333-.015-3.525c-.014-3.85-.013-7.7-.01-11.55l-.01-5.992c-.011-6.28-.012-12.56-.006-18.84.006-6.474-.006-12.949-.027-19.423a4446.56 4446.56 0 0 1-.02-16.688c.001-3.321-.003-6.641-.015-9.962-.013-3.704-.006-7.407.006-11.11l-.023-3.327c.043-6.285.431-10.208 5.016-14.826l1.817-1.492c3.603-3.04 7.1-6.176 10.562-9.375 3.91-3.6 7.859-7.144 11.875-10.625 2.743-2.42 5.434-4.897 8.125-7.375 3.884-3.576 7.8-7.104 11.791-10.559 2.68-2.355 5.317-4.754 7.955-7.156l1.536-1.398L538 730l-2.092-.011c-7.187-.042-14.373-.111-21.56-.197-2.681-.03-5.363-.05-8.045-.063-3.855-.021-7.71-.068-11.565-.12l-3.633-.003c-8.329-.147-8.329-.147-12.339-2.52-2.499-2.952-2.896-4.581-2.959-8.365l-.049-2.68c-.044-4.048-.085-8.095-.108-12.143-.017-2.135-.044-4.27-.082-6.405a708.502 708.502 0 0 1-.091-9.231l-.07-2.886c.014-4.2.252-6.765 2.325-10.478 5.173-3.005 10.206-2.591 16.084-2.527Z"/><path d="M881 401c2.96 1.557 5.579 3.496 8.25 5.5l2.288 1.67c5.615 4.123 11.108 8.373 16.462 12.83l2.684 2.125c7.803 6.332 14.95 13.292 22.066 20.375l1.483 1.468c6.717 6.66 12.93 13.583 18.767 21.032l1.77 2.241c24.125 30.96 61.754 89.13 56.98 130.822L1011 602c-2.284 1.142-3.588 1.138-6.127 1.161l-2.579.03-2.79.012-2.862.017c-2 .01-4 .016-6 .02-3.064.01-6.127.041-9.19.072-1.942.007-3.882.012-5.823.016l-2.784.038-2.589-.01-2.276.011c-2.526-.468-3.395-1.388-4.98-3.367-.704-1.89-.704-1.89-1.176-4.035l-.56-2.423-.577-2.605c-12.656-53.225-44.5-104.265-89.23-136.503l-1.805-1.324a157.06 157.06 0 0 0-3.501-2.485c-2.514-1.84-4.023-3.324-5.253-6.203.16-5.347 2.04-9.988 3.852-14.985 2.693-7.68 5.142-15.122 6.582-23.144 1.537-5.276 4.416-6.131 9.668-5.293Zm-309 1c1.469 4.753 2.878 9.517 4.172 14.32a11201.234 11201.234 0 0 0 1.907 7.058c1.382 5.004 3.016 9.715 5.32 14.384.915 3.408.482 5.842-.399 9.238-2.152 2.371-2.152 2.371-4.938 4.438l-3.035 2.32L572 456c-8.083 6.248-15.594 12.975-23 20-.755.713-1.51 1.426-2.29 2.16-5.386 5.226-10.057 10.96-14.71 16.84l-2.371 2.926c-21.054 26.511-35.757 57.07-44.335 89.739l-.786 2.991-.668 2.62c-1.04 3.372-2.408 6.498-3.84 9.724-6.211.099-12.422.171-18.634.22-2.114.02-4.227.047-6.34.082-3.037.048-6.072.071-9.108.089l-2.87.062c-6.453.002-6.453.002-9.206-2.104-1.114-3.109-.82-5.077-.225-8.322l.64-3.5a274.715 274.715 0 0 1 3.868-15.965l.93-3.403C448.423 536.676 463.47 505.08 484 477c.41-.56.819-1.122 1.24-1.7 14.721-20 31.931-39.28 51.76-54.3 1.353-1.056 2.704-2.113 4.055-3.172A646.084 646.084 0 0 1 554 408l1.724-1.28c9.543-6.964 9.543-6.964 16.276-4.72Zm156 581h29a9517.142 9517.142 0 0 1 20.113 36.985c2.772 5.128 5.56 10.246 8.375 15.35l1.692 3.075c1.068 1.94 2.14 3.877 3.215 5.813l1.437 2.613 1.273 2.298C794 1051 794 1051 794 1053h3v-70h21v104h-29a2200.372 2200.372 0 0 1-18.583-33.925c-3.047-5.68-6.108-11.35-9.202-17.005l-1.827-3.345a2234.873 2234.873 0 0 0-3.477-6.337l-1.56-2.857-1.38-2.513C752 1019 752 1019 752 1017h-3v70h-21V983Zm-208 0 27.25-.188 8.528-.082c2.267-.009 4.534-.017 6.8-.023l3.478-.046c12.952-.005 23.787 2.375 33.256 11.589 6.355 10.355 7.095 20.708 5.25 32.563-2.076 7.474-7.475 12.695-13.562 17.187l.57 1.588a26946.74 26946.74 0 0 1 5.839 16.301l2.182 6.091c1.044 2.911 2.086 5.823 3.128 8.735l.994 2.768.91 2.548.808 2.254C606 1086 606 1086 606 1087h-23c-2.282-5.705-4.527-11.326-6.578-17.102l-1.328-3.73-1.344-3.793-1.39-3.91c-1.122-3.154-2.241-6.31-3.36-9.465l-27-1v39h-22V983Zm22 20v26c4.002.07 8.003.129 12.006.165 1.358.015 2.717.035 4.076.061 11.706.417 11.706.417 21.793-4.789 2.828-3.614 2.515-7.299 2.469-11.734-.163-2.946-.163-2.946-2.469-5.765-5.131-3.458-9.685-4.187-15.805-4.133l-3.906.02-4.039.05A2264.897 2264.897 0 0 0 542 1003Zm404-20h77v20h-54v21h42v20h-42v23h56v20h-79V983Zm-299 0h35c7.527 22.216 14.639 44.552 21.666 66.93a72471.031 72471.031 0 0 0 3.347 10.654 873.644 873.644 0 0 0 7.199 21.908C715 1085 715 1085 715 1087h-23l-3.438-10.063-1.08-3.129-.853-2.53-.873-2.556c-.881-3.173-1.29-6.462-1.756-9.722h-39l-2 10c-.818 3.04-1.657 6.05-2.563 9.063-.22.757-.442 1.514-.67 2.294-1.635 5.511-1.635 5.511-2.767 6.643a83.431 83.431 0 0 1-4.91.098l-2.998-.01-3.154-.025-3.167-.014c-2.59-.012-5.18-.028-7.771-.049 1.627-8.217 4.158-16.1 6.727-24.059l1.413-4.415c1.24-3.873 2.484-7.744 3.73-11.614a18820.1 18820.1 0 0 0 6.607-20.596l.717-2.237c4.378-13.66 8.619-27.358 12.806-41.079Zm14 22-10 34h26c-1.588-8.101-1.588-8.101-3.691-15.973l-.924-3.033-.947-3.057-.96-3.162c-1.099-4.734-1.099-4.734-3.478-8.775h-6Zm253.93-14.625c7.112 5.617 10.852 12.935 13.07 21.625v2c-3.895.233-7.788.375-11.688.5l-3.341.203c-3.176.077-5.883.057-8.971-.703-1.954-1.908-2.96-3.597-4.077-6.078-.874-2.212-.874-2.212-3.61-3.86-8.153-2.615-15.47-2.779-23.313.938-6.958 4.439-10.31 10.047-12.53 17.87-2.487 11.28-1.167 24.374 4.342 34.442 4.814 5.915 9.809 9.24 17.375 10.5 6.633.61 12.472-1.019 17.75-5.062 2.599-3.239 2.599-3.239 5.063-9.75h24c-2.531 12.093-6.473 21.86-17 29-13.567 7.752-27.646 8.479-42.61 4.965-11.418-3.25-20.912-10.035-26.827-20.465-7.72-15.568-9.926-36.102-4.668-52.836C843.283 1000.68 849.952 990.903 863 985c17.996-6.011 35.977-5.992 51.93 5.375ZM427 983h76v20h-54v23h43v20h-43v41h-22V983Z" fill="#00A5F0"/></svg>