<?xml version="1.0" encoding="UTF-8"?>
<svg version="1.1" xmlns="http://www.w3.org/2000/svg" viewBox="0 0 1450 1295">
    <path
        d="M0 0 C1.22138672 0.17160645 2.44277344 0.34321289 3.70117188 0.52001953 C33.13542524 4.77104296 61.80623502 11.5589315 90 21 C91.06379883 21.35288086 92.12759766 21.70576172 93.22363281 22.06933594 C134.71162616 35.96774894 174.49360629 56.46731239 210 82 C210.76296387 82.5465625 211.52592773 83.093125 212.31201172 83.65625 C221.51726281 90.27442852 230.50866224 97.03735708 239.0703125 104.47265625 C241.95745387 106.96329688 244.90286667 109.36182241 247.875 111.75 C251.59184174 114.77295956 255.02541663 117.90439257 258.3515625 121.34765625 C260.02008257 123.02013016 261.75924907 124.53696493 263.5625 126.0625 C272.03479014 133.37646922 280.08562044 141.48937117 287.3125 150.03515625 C289.39470655 152.4595773 291.57502207 154.78350032 293.75 157.125 C298.99523219 162.88447064 303.79497195 168.92612836 308.53613281 175.10351562 C310.01786728 177.0231476 311.51879597 178.92641194 313.0234375 180.828125 C361.36665137 242.36202234 392.24146702 316.62974091 404.9375 393.625 C405.14906738 394.88642822 405.36063477 396.14785645 405.57861328 397.44750977 C406.74408029 404.87029478 407.86948878 412.48450989 407 420 C404.62007485 422.37992515 404.11169697 422.25762718 400.87329102 422.29052734 C400.02223282 422.30328705 399.17117462 422.31604675 398.29432678 422.32919312 C396.91306862 422.33253159 396.91306862 422.33253159 395.50390625 422.3359375 C394.55942123 422.3425943 393.61493622 422.3492511 392.64183044 422.35610962 C390.64201814 422.36624581 388.64217195 422.37092634 386.64233398 422.37060547 C383.57804796 422.37497782 380.51520276 422.41128477 377.45117188 422.44921875 C375.51042161 422.45508679 373.56966448 422.45905627 371.62890625 422.4609375 C370.71009171 422.47530853 369.79127716 422.48967957 368.84461975 422.50448608 C362.5879535 422.45941652 362.5879535 422.45941652 359.9831543 420.42407227 C358.67997261 417.21093817 358.14444998 414.18828488 357.640625 410.75390625 C357.41416333 409.2773033 357.18742621 407.80074257 356.96044922 406.32421875 C356.84538025 405.54868652 356.73031128 404.7731543 356.61175537 403.97412109 C345.87648429 332.40806225 316.79841018 264.92363019 272 208 C271.47841309 207.33564941 270.95682617 206.67129883 270.41943359 205.98681641 C263.44398382 197.14761691 256.15347516 188.70899289 248.42333984 180.52490234 C247.03820165 179.04092753 245.68104233 177.53635712 244.33203125 176.01953125 C181.8582637 106.16333918 88.91127116 61.90668914 -38.18359375 45.59765625 C-136.71784689 40.3722927 -235.18815231 69.86972704 -341 151 C-342.07616577 151.94697754 -342.07616577 151.94697754 -343.17407227 152.91308594 C-349.64313234 158.65384982 -355.82804154 164.64181467 -361.94116211 170.75585938 C-363.55890192 172.3714068 -365.18450636 173.97875034 -366.81054688 175.5859375 C-373.32806993 182.06885544 -379.2732115 188.79664111 -385 196 C-385.93467346 197.10191814 -386.87602664 198.19825847 -387.828125 199.28515625 C-395.5041491 208.0878226 -402.31875779 217.42706966 -409 227 C-409.66298096 227.94697754 -409.66298096 227.94697754 -410.33935547 228.91308594 C-448.50486182 283.78438402 -473.94401064 349.62139466 -481.36621094 416.16967773 C-482.06160372 419.27510473 -482.54552934 420.08581616 -485 422 C-486.97975159 422.3742218 -486.97975159 422.3742218 -489.25610352 422.37231445 C-490.11031387 422.37854324 -490.96452423 422.38477203 -491.84461975 422.39118958 C-492.7634343 422.38197983 -493.68224884 422.37277008 -494.62890625 422.36328125 C-495.57434799 422.36377975 -496.51978973 422.36427826 -497.49388123 422.36479187 C-499.49195458 422.36245161 -501.49003088 422.35272595 -503.48803711 422.33618164 C-506.55414032 422.31256439 -509.61937569 422.3156241 -512.68554688 422.32226562 C-514.62500521 422.31668979 -516.56445986 422.30958051 -518.50390625 422.30078125 C-519.88516441 422.30214836 -519.88516441 422.30214836 -521.29432678 422.30354309 C-522.14538498 422.29401108 -522.99644318 422.28447906 -523.87329102 422.2746582 C-524.62369156 422.27005081 -525.3740921 422.26544342 -526.14723206 422.26069641 C-528 422 -528 422 -530 420 C-531.19033741 411.81077994 -529.18179464 403.13184589 -527.875 395.0625 C-527.70794052 394.01529282 -527.70794052 394.01529282 -527.5375061 392.94692993 C-516.19118525 322.18729318 -488.71416489 254.30348187 -447 196 C-446.42362793 195.19304687 -445.84725586 194.38609375 -445.25341797 193.5546875 C-438.33037703 183.90816799 -431.20341636 174.53699914 -423.38720703 165.59765625 C-421.88688797 163.86972807 -420.40882764 162.12438422 -418.93359375 160.375 C-414.11844624 154.67698771 -409.2997098 149.10347969 -403.92016602 143.9230957 C-402.09429351 142.09443738 -400.42354303 140.20537307 -398.75390625 138.234375 C-395.15321624 134.09026562 -391.2854838 130.34114311 -387.25 126.625 C-386.5482666 125.9743457 -385.8465332 125.32369141 -385.12353516 124.65332031 C-383.7230982 123.35651249 -382.32096628 122.06153224 -380.91699219 120.76855469 C-379.27304669 119.251904 -377.6382412 117.72644865 -376.0078125 116.1953125 C-369.60804087 110.25131095 -362.88357213 104.85214742 -355.97021484 99.52880859 C-353.87959992 97.90657432 -351.80800363 96.26207472 -349.73828125 94.61328125 C-339.5062553 86.494 -329.00450007 79.03312258 -318 72 C-316.80431396 71.22922119 -316.80431396 71.22922119 -315.58447266 70.44287109 C-257.36542392 33.04509843 -192.40302515 10.17260178 -124.0824585 0.3013916 C-122.16436045 0.02378768 -120.24740272 -0.26166522 -118.33056641 -0.54785156 C-79.97073343 -6.03172139 -38.34064046 -5.52264706 0 0 Z "
        fill="#00A5F0" transform="translate(784,181)" />
    <path
        d="M0 0 C1.0202124 0.32145996 1.0202124 0.32145996 2.06103516 0.64941406 C16.29150556 5.23171224 28.68426743 12.18552548 40 22 C40.80824219 22.66386719 41.61648438 23.32773437 42.44921875 24.01171875 C62.61040869 41.1344876 75.86796012 66.7763423 79 93 C79.28820087 97.92037487 79.33391107 102.82203974 79.3125 107.75 C79.30976578 108.74545334 79.30976578 108.74545334 79.30697632 109.76101685 C79.26163404 119.55834536 78.82942122 128.5724143 76 138 C75.67128906 139.19496094 75.34257813 140.38992188 75.00390625 141.62109375 C70.73901512 155.80296356 63.82459075 168.61402069 54.36669922 180.00390625 C52.22938582 182.68864521 51.04949299 184.64953609 50.56640625 188.0703125 C52.93340743 192.90750837 57.36549935 194.38560995 62.0625 196.6875 C77.15014905 204.49893979 90.3363524 213.70744808 103 225 C103.52078125 225.45906738 104.0415625 225.91813477 104.578125 226.39111328 C131.41714228 250.09946549 151.27681464 281.18828998 162.3125 315.25 C162.60874268 316.16048096 162.90498535 317.07096191 163.21020508 318.0090332 C165.60568547 325.91855319 165.60568547 325.91855319 164 330 C161.61061816 332.38938184 161.05688596 332.26409127 157.79736328 332.32226562 C156.92951202 332.34148071 156.06166077 332.3606958 155.16751099 332.38049316 C153.75814774 332.3932428 153.75814774 332.3932428 152.3203125 332.40625 C151.35600311 332.41765015 150.39169373 332.42905029 149.39816284 332.4407959 C147.35549315 332.45970817 145.31276226 332.47276876 143.27001953 332.48046875 C140.14377445 332.49988341 137.02015854 332.5619058 133.89453125 332.625 C131.91147398 332.63806 129.92839787 332.64856098 127.9453125 332.65625 C127.00978546 332.6809436 126.07425842 332.70563721 125.11038208 332.7310791 C122.6010328 332.71384921 120.4279433 332.63552467 118 332 C115.47875977 329.19287109 115.47875977 329.19287109 114 326 C113.52784058 325.01604248 113.52784058 325.01604248 113.04614258 324.01220703 C112.83111084 323.43325684 112.6160791 322.85430664 112.39453125 322.2578125 C112.13816895 321.59225342 111.88180664 320.92669434 111.61767578 320.2409668 C111.35196777 319.54269775 111.08625977 318.84442871 110.8125 318.125 C105.39868383 304.52223065 98.25411581 292.36807517 89 281 C88.5369043 280.43007324 88.07380859 279.86014648 87.59667969 279.27294922 C61.32697483 247.16842213 23.64324303 226.87038135 -17.69921875 222.46655273 C-38.68297227 220.59546851 -59.90871299 222.52567674 -80 229 C-80.72219727 229.23170898 -81.44439453 229.46341797 -82.18847656 229.70214844 C-105.54023557 237.34186075 -125.39518787 250.00902372 -143 267 C-143.85207031 267.78890625 -144.70414063 268.5778125 -145.58203125 269.390625 C-162.07010323 285.07376748 -174.18095121 306.53703771 -181.8125 327.875 C-183 331 -183 331 -185 332 C-186.408795 332.09927682 -187.8221036 332.13828309 -189.234375 332.14526367 C-190.54583496 332.15483345 -190.54583496 332.15483345 -191.88378906 332.16459656 C-192.82963867 332.16570938 -193.77548828 332.1668222 -194.75 332.16796875 C-195.71905273 332.17129715 -196.68810547 332.17462555 -197.68652344 332.17805481 C-199.73762537 332.1831227 -201.78873556 332.18546318 -203.83984375 332.18530273 C-206.98711629 332.18749104 -210.13403945 332.20565324 -213.28125 332.22460938 C-215.27083213 332.22754289 -217.26041593 332.22952797 -219.25 332.23046875 C-220.19584961 332.23765427 -221.14169922 332.24483978 -222.11621094 332.25224304 C-222.99051758 332.24916641 -223.86482422 332.24608978 -224.765625 332.24291992 C-225.92239746 332.24505745 -225.92239746 332.24505745 -227.10253906 332.24723816 C-229 332 -229 332 -231 330 C-231.46992847 323.98230487 -230.49878429 319.27099849 -228.5 313.625 C-228.23155273 312.84898437 -227.96310547 312.07296875 -227.68652344 311.2734375 C-220.4563043 290.87418441 -210.58034061 271.69763161 -197.25683594 254.61523438 C-196.15570968 253.20011174 -195.07960707 251.76559066 -194.0078125 250.328125 C-176.62548311 227.84977133 -153.5827611 208.51490055 -128.01171875 196.0078125 C-126.24248047 195.13769531 -126.24248047 195.13769531 -124.4375 194.25 C-123.40496094 193.78078125 -122.37242187 193.3115625 -121.30859375 192.828125 C-118.69813225 191.10237137 -118.69813225 191.10237137 -117.8828125 187.67578125 C-118.02647127 183.16968452 -119.55960455 181.15490236 -122.4375 177.9375 C-123.37615788 176.79818401 -124.30831569 175.65348604 -125.234375 174.50390625 C-125.70294922 173.9227002 -126.17152344 173.34149414 -126.65429688 172.74267578 C-144.4674589 149.67476023 -148.88222604 118.6044345 -145.53125 90.375 C-140.54022784 60.42886704 -123.80665954 33.71404066 -99.375 15.75 C-71.44297286 -3.81975829 -32.65407096 -10.6708404 0 0 Z M-82.16015625 64.81640625 C-95.52822982 80.68212414 -99.54921586 98.79822512 -98 119 C-95.79818767 134.5820565 -86.41088431 149.33363464 -74.375 159.27734375 C-58.12838104 171.06148678 -40.88705448 175.53566485 -20.90234375 172.70263672 C-4.31158279 169.53863893 10.09555845 159.45688407 19.9375 145.9375 C30.10982571 130.24588322 34.25517345 113.32235481 30.45922852 94.78173828 C26.41378176 77.07721473 15.89677714 62.4831251 0.625 52.6875 C-27.07028341 36.5077932 -60.08539172 41.65821769 -82.16015625 64.81640625 Z "
        fill="#000000" transform="translate(756,271)" />
    <path
        d="M0 0 C1.10553726 -0.0112793 2.21107452 -0.02255859 3.35011292 -0.03417969 C4.55888092 -0.02608276 5.76764893 -0.01798584 7.01304626 -0.00964355 C8.29008926 -0.01665283 9.56713226 -0.02366211 10.88287354 -0.03088379 C14.388087 -0.0491314 17.89282972 -0.04203685 21.3980515 -0.02936745 C25.08340392 -0.0192145 28.76871697 -0.02864249 32.45407104 -0.03491211 C38.65902382 -0.04219559 44.86378644 -0.03259693 51.06871033 -0.0135498 C58.19516822 0.00807665 65.32116575 0.00127523 72.44761187 -0.02085543 C78.59320098 -0.03916285 84.73865341 -0.04148954 90.88426107 -0.03110075 C94.54185474 -0.0249305 98.19923437 -0.02384497 101.85681343 -0.0372467 C129.30777899 -0.12387584 155.64362008 1.85526352 176.55967712 21.50793457 C188.50184217 34.78095011 194.4199205 50.9895879 193.77842712 68.87121582 C192.6451201 82.531613 188.74655595 97.11113723 178.21202087 106.62902832 C177.39862244 107.31094238 176.585224 107.99285645 175.74717712 108.69543457 C172.851871 111.1471837 171.69734257 112.13116598 170.37217712 115.75793457 C170.57488328 118.73095823 170.9717174 120.0146008 172.55967712 122.50793457 C174.91386217 124.3706916 174.91386217 124.3706916 177.68467712 126.13293457 C189.52774273 134.53918898 197.02505951 147.16467377 199.55967712 161.50793457 C201.38127525 180.22292822 197.98971158 199.19047364 186.35264587 214.39074707 C184.17665225 216.87441952 181.92576427 219.206027 179.55967712 221.50793457 C178.78430603 222.33164551 178.78430603 222.33164551 177.99327087 223.17199707 C157.66973419 243.01795717 124.80143799 241.83623845 98.64932084 241.87538028 C96.49970059 241.87905741 94.35010257 241.88531324 92.20049095 241.89238167 C84.68633907 241.91672166 77.17225507 241.92990074 69.6580658 241.93347168 C62.67192061 241.937127 55.6862092 241.96720309 48.70019704 242.00887626 C42.6743533 242.04355336 36.64865422 242.05901942 30.62271136 242.05971771 C27.03494016 242.06050939 23.44761632 242.06920254 19.85994911 242.09771538 C15.87272194 242.12871435 11.88612818 242.11984899 7.89878845 242.1072998 C6.12603798 242.12955124 6.12603798 242.12955124 4.31747437 242.1522522 C3.23146942 242.14248856 2.14546448 242.13272491 1.02655029 242.12266541 C0.08590131 242.12467673 -0.85474768 242.12668806 -1.82390118 242.12876034 C-5.7183506 241.20468355 -7.10776358 239.74309462 -9.44032288 236.50793457 C-10.15230496 233.37517572 -10.11131305 230.32782574 -10.06851196 227.1259613 C-10.07915354 225.70271029 -10.07915354 225.70271029 -10.09001011 224.25070673 C-10.10762239 221.06902973 -10.08946833 217.88856908 -10.07142639 214.70690918 C-10.07656391 212.42697085 -10.08384392 210.14703649 -10.09310913 207.86711121 C-10.11165128 201.67297229 -10.09866685 195.47926284 -10.07901883 189.28514171 C-10.06265645 182.80874665 -10.07144178 176.3323793 -10.07653809 169.85597229 C-10.0810614 158.98036672 -10.06527775 148.10493704 -10.0372467 137.22937012 C-10.00840264 126.03821677 -10.00132894 114.84730826 -10.01673889 103.65612793 C-10.035283 90.17034837 -10.03356865 76.68476619 -10.01452446 63.19897652 C-10.00764278 58.04711447 -10.00869787 52.89534339 -10.01606941 47.74348259 C-10.02371628 41.68019477 -10.01165807 35.61726072 -9.9842205 29.55403328 C-9.97731914 27.32555314 -9.97725733 25.09704006 -9.98443604 22.86856079 C-9.99308983 19.83295044 -9.97724336 16.79844213 -9.95498657 13.76292419 C-9.96734772 12.43146713 -9.96734772 12.43146713 -9.97995859 11.07311195 C-9.92863784 7.29628268 -9.8725007 5.15836495 -7.74817657 1.96124363 C-4.94002193 0.19288345 -3.3089547 0.00519927 0 0 Z M53.55967712 56.50793457 C53.55967712 68.05793457 53.55967712 79.60793457 53.55967712 91.50793457 C61.20388786 91.61313013 68.84543962 91.71325319 76.48974609 91.76668549 C80.05032182 91.7929635 83.61029118 91.82800766 87.17051697 91.88513184 C91.2664386 91.9504314 95.36172974 91.97422086 99.45811462 91.99621582 C100.71892853 92.02202225 101.97974243 92.04782867 103.27876282 92.07441711 C112.43252196 92.07729674 119.49749235 90.47340066 126.18467712 83.94543457 C128.25328208 78.77392218 128.28477345 73.99902866 127.55967712 68.50793457 C125.14139603 62.96604039 120.86614612 60.10934808 115.55967712 57.50793457 C112.25777645 56.47051346 109.23227142 56.38690719 105.78135681 56.39440918 C104.04000458 56.39452248 104.04000458 56.39452248 102.26347351 56.39463806 C101.01543945 56.39979935 99.7674054 56.40496063 98.48155212 56.41027832 C96.5589859 56.41240074 96.5589859 56.41240074 94.59757996 56.41456604 C91.19784072 56.41837556 87.79814453 56.42819243 84.39842224 56.43927002 C80.92613823 56.44951783 77.45384703 56.45412574 73.98155212 56.45910645 C67.17422251 56.46928487 60.36701092 56.48886047 53.55967712 56.50793457 Z M53.55967712 143.50793457 C53.55967712 157.36793457 53.55967712 171.22793457 53.55967712 185.50793457 C60.95989588 185.54999454 68.35967604 185.59005157 75.75991058 185.61143494 C79.20680918 185.62195073 82.65360774 185.63597922 86.10044861 185.65881348 C90.06470998 185.68490805 94.02893199 185.69444561 97.99327087 185.70324707 C99.2154985 185.71356964 100.43772614 185.72389221 101.69699097 185.73452759 C113.36267186 185.73604608 121.80886362 184.01517716 130.93467712 176.57043457 C134.53261828 172.00381695 135.04815924 167.17432711 134.55967712 161.50793457 C133.24786207 156.49048136 131.36672926 152.11461554 127.55967712 148.50793457 C121.00822711 144.86960586 114.96941332 143.37865092 107.48423767 143.39440918 C105.68293648 143.39452248 105.68293648 143.39452248 103.84524536 143.39463806 C102.55862503 143.39979935 101.2720047 143.40496063 99.94639587 143.41027832 C98.60832777 143.41214501 97.27025898 143.41356773 95.93218994 143.41456604 C92.42231842 143.41837143 88.91248874 143.42818469 85.40263367 143.43927002 C81.81631547 143.4495268 78.22999027 143.45412769 74.6436615 143.45910645 C67.61562984 143.46927726 60.58771285 143.48885393 53.55967712 143.50793457 Z "
        fill="#000000" transform="translate(597.4403228759766,672.4920654296875)" />
    <path
        d="M0 0 C1.04519302 -0.0112793 2.09038605 -0.02255859 3.16725159 -0.03417969 C4.30899338 -0.02608276 5.45073517 -0.01798584 6.6270752 -0.00964355 C7.83423691 -0.01665283 9.04139862 -0.02366211 10.28514099 -0.03088379 C13.59847605 -0.04548501 16.91081307 -0.04203763 20.22409248 -0.02936745 C23.71011784 -0.01920885 27.19610178 -0.02864443 30.68212891 -0.03491211 C36.55334051 -0.04219571 42.42435116 -0.03259847 48.29553223 -0.0135498 C55.03230593 0.0080584 61.76859229 0.00128894 68.50535345 -0.02085543 C74.3189037 -0.03918487 80.13230954 -0.04147859 85.94587946 -0.03110075 C89.40397725 -0.02493988 92.86184881 -0.02381737 96.31993103 -0.0372467 C116.69816156 -0.09146716 136.08152404 0.84595909 154.83215332 9.50793457 C156.22434082 10.13441895 156.22434082 10.13441895 157.64465332 10.77355957 C174.57195416 19.14103214 185.9653481 34.40217781 192.02355957 51.96105957 C198.84403097 74.53577773 196.88311343 101.01068374 186.10534668 121.96618652 C182.81807844 127.93846966 178.75760327 132.79515517 173.83215332 137.50793457 C173.15797363 138.2014502 172.48379395 138.89496582 171.78918457 139.60949707 C163.26081439 147.89785684 152.55391046 152.9968817 141.26965332 156.38293457 C140.63479004 156.57395752 139.99992676 156.76498047 139.3458252 156.96179199 C127.49810961 160.22405633 115.46637209 160.79866685 103.24621582 160.70324707 C101.80891113 160.69950391 100.37160384 160.69666313 98.93429565 160.69467163 C95.20256147 160.6871375 91.47098998 160.66758072 87.73931885 160.64526367 C83.91091104 160.6245812 80.08247622 160.61562268 76.25402832 160.60559082 C68.77999686 160.584322 61.30609812 160.55031444 53.83215332 160.50793457 C53.84880791 161.91948067 53.84880791 161.91948067 53.86579895 163.35954285 C53.96719639 172.2317125 54.04212877 181.10376446 54.09121418 189.97638226 C54.1172982 194.53784539 54.15267394 199.09884044 54.20935059 203.66003418 C54.26371375 208.06264146 54.29358285 212.4647988 54.30653954 216.86771584 C54.31577177 218.54668066 54.33380064 220.2256211 54.3608036 221.90439415 C54.39715326 224.25805056 54.40209651 226.60985277 54.39978027 228.96374512 C54.42674484 230.00276474 54.42674484 230.00276474 54.45425415 231.06277466 C54.41478468 234.77437956 53.88231911 236.44112511 51.63127136 239.43901062 C48.55425543 241.71333842 47.24377689 242.13854462 43.4786377 242.15490723 C42.43405396 242.17066803 41.38947021 242.18642883 40.31323242 242.20266724 C39.19541382 242.19254608 38.07759521 242.18242493 36.92590332 242.17199707 C35.76844604 242.1767807 34.61098877 242.18156433 33.41845703 242.18649292 C30.97414794 242.18989157 28.52979337 242.18069182 26.08557129 242.15979004 C22.34511924 242.13302734 18.60766833 242.15954262 14.86730957 242.19152832 C12.49100087 242.18822422 10.11469403 242.18181799 7.73840332 242.17199707 C6.62058472 242.18211823 5.50276611 242.19223938 4.35107422 242.20266724 C2.78419861 242.17902603 2.78419861 242.17902603 1.18566895 242.15490723 C0.27031372 242.15092926 -0.6450415 242.14695129 -1.58813477 242.14285278 C-5.40498804 241.20344957 -6.75616367 239.5977414 -9.16784668 236.50793457 C-9.89648979 233.38030185 -9.8388115 230.32592871 -9.79603577 227.1259613 C-9.80667735 225.70271029 -9.80667735 225.70271029 -9.81753391 224.25070673 C-9.8351462 221.06902973 -9.81699214 217.88856908 -9.7989502 214.70690918 C-9.80408772 212.42697085 -9.81136773 210.14703649 -9.82063293 207.86711121 C-9.83917508 201.67297229 -9.82619065 195.47926284 -9.80654263 189.28514171 C-9.79018025 182.80874665 -9.79896558 176.3323793 -9.80406189 169.85597229 C-9.8085852 158.98036672 -9.79280155 148.10493704 -9.76477051 137.22937012 C-9.73592644 126.03821677 -9.72885275 114.84730826 -9.7442627 103.65612793 C-9.76280681 90.17034837 -9.76109245 76.68476619 -9.74204826 63.19897652 C-9.73516659 58.04711447 -9.73622167 52.89534339 -9.74359322 47.74348259 C-9.75124008 41.68019477 -9.73918187 35.61726072 -9.71174431 29.55403328 C-9.70484295 27.32555314 -9.70478113 25.09704006 -9.71195984 22.86856079 C-9.72061363 19.83295044 -9.70476716 16.79844213 -9.68251038 13.76292419 C-9.69487153 12.43146713 -9.69487153 12.43146713 -9.7074824 11.07311195 C-9.65600437 7.28470828 -9.60520263 5.1595997 -7.45867062 1.96124363 C-4.73396131 0.23267573 -3.21363586 0.00534415 0 0 Z M53.83215332 56.50793457 C53.83215332 72.34793457 53.83215332 88.18793457 53.83215332 104.50793457 C61.17911079 104.57707638 68.5249238 104.63673114 75.87194824 104.67272949 C78.36743002 104.68774792 80.86288572 104.70816871 83.35827637 104.73425293 C86.96031157 104.77094232 90.56199556 104.78773104 94.16418457 104.80090332 C95.26672073 104.81638718 96.3692569 104.83187103 97.50520325 104.8478241 C106.95888682 104.84984447 116.32749547 103.73130937 123.83215332 97.50793457 C128.89095283 91.88704623 130.71515042 86.99612027 130.83215332 79.50793457 C130.28876495 72.90677217 128.73971531 67.16701241 123.83215332 62.50793457 C115.10556028 56.54694275 105.4512476 56.22013731 95.23840332 56.31262207 C93.45750305 56.31686691 93.45750305 56.31686691 91.640625 56.32119751 C87.87102931 56.33233859 84.10167647 56.35743231 80.33215332 56.38293457 C77.7670526 56.3929722 75.20194813 56.40209668 72.63684082 56.41027832 C66.36844418 56.43055127 60.10056868 56.46971253 53.83215332 56.50793457 Z "
        fill="#000000" transform="translate(1030.1678466796875,672.4920654296875)" />
    <path
        d="M0 0 C0.85722656 0.70769531 1.71445312 1.41539062 2.59765625 2.14453125 C14.24631065 12.13680821 21.97565235 23.55685191 29 37 C29.40476562 37.75539063 29.80953125 38.51078125 30.2265625 39.2890625 C31.46109007 42.01998712 31.35499292 44.0417257 31 47 C27.97074452 53.02266767 24.4079145 54.6453356 18.39453125 56.8671875 C17.55589035 57.19163849 16.71724945 57.51608948 15.85319519 57.85037231 C14.08239282 58.53010829 12.30788174 59.20025116 10.5300293 59.86132812 C7.82907576 60.86881704 5.14414358 61.91218182 2.45898438 62.9609375 C0.73000185 63.61938476 -0.99979252 64.27570496 -2.73046875 64.9296875 C-3.92158516 65.39361404 -3.92158516 65.39361404 -5.13676453 65.86691284 C-10.38599682 67.78911063 -15.39879616 68.8707628 -21 68 C-24.57033192 65.48453888 -26.26587836 62.59305611 -28.25 58.8125 C-34.95169099 46.26509725 -45.70648389 37.90203879 -59.140625 33.7265625 C-74.02615681 29.94417327 -87.78575261 32.1572748 -101.25390625 39.35546875 C-114.64624085 47.3756293 -122.80396608 61.57216443 -126.9296875 76.32421875 C-132.53576304 99.30912848 -130.81908896 123.71327132 -118.71484375 144.44140625 C-111.09601763 155.80890308 -101.06115036 163.68459388 -87.78515625 167.33984375 C-72.17074837 170.06309961 -56.73791428 168.46841578 -43.265625 159.66796875 C-35.31701959 153.81615063 -30.77328461 146.75081512 -25.98046875 138.29296875 C-22.94484912 133.24557752 -22.94484912 133.24557752 -21 132 C-14.27188116 130.54849873 -9.9415984 131.56965513 -3.609375 134.04296875 C-2.74233948 134.36783768 -1.87530396 134.6927066 -0.98199463 135.02742004 C0.8397329 135.71440102 2.65825738 136.40993027 4.47363281 137.11352539 C7.24807662 138.18675599 10.03274104 139.22898929 12.8203125 140.26757812 C14.59443485 140.94090662 16.36789695 141.6159779 18.140625 142.29296875 C18.96983459 142.60356735 19.79904419 142.91416595 20.65338135 143.23417664 C24.87768447 144.88766023 28.16376317 146.29050924 31 150 C32.82152588 156.10616772 31.30020404 159.84400195 28.5625 165.25 C28.19632568 165.99580322 27.83015137 166.74160645 27.45288086 167.51000977 C15.37217837 191.44640488 -6.56830482 210.46897873 -32 219 C-67.06683177 229.16523742 -105.05028284 228.0948283 -137.7578125 210.91015625 C-143.19942938 207.7041916 -148.12552878 204.00548471 -153 200 C-154.29550781 198.95199219 -154.29550781 198.95199219 -155.6171875 197.8828125 C-178.38718692 178.51767281 -190.9598863 147.8459872 -193.83447266 118.56396484 C-194.21070953 112.73617771 -194.24484313 106.90060297 -194.25 101.0625 C-194.25067474 100.37436218 -194.25134949 99.68622437 -194.25204468 98.97723389 C-194.23507911 88.06250996 -193.61566897 77.62779328 -191 67 C-190.8443457 66.32469238 -190.68869141 65.64938477 -190.52832031 64.95361328 C-183.57916787 35.48560058 -165.76593262 8.46116614 -140.00146484 -7.80761719 C-98.13413488 -32.75029096 -38.03806652 -32.38605069 0 0 Z "
        fill="#000000" transform="translate(414,693)" />
    <path
        d="M0 0 C1.07026237 -0.00551503 1.07026237 -0.00551503 2.16214621 -0.01114148 C4.56502401 -0.02219886 6.9678586 -0.02602559 9.37075806 -0.02983093 C11.0886804 -0.03609394 12.80660139 -0.0427406 14.52452087 -0.04974365 C19.20013702 -0.06716636 23.87574292 -0.07770848 28.5513835 -0.08594918 C31.47045158 -0.09109574 34.38951647 -0.09717157 37.30858231 -0.10346031 C46.43568262 -0.12251436 55.56277483 -0.13674608 64.68989122 -0.14507228 C75.23708031 -0.15485205 85.78405995 -0.18118995 96.33117521 -0.22157317 C104.47643541 -0.25169362 112.62163542 -0.2665372 120.76695025 -0.26985329 C125.63527943 -0.27220809 130.5033849 -0.28122429 135.37165451 -0.30631447 C139.95009057 -0.32952967 144.52815457 -0.333855 149.10663414 -0.32355309 C150.78847806 -0.32305604 152.47033989 -0.32942593 154.15212822 -0.34310913 C156.44570031 -0.36072818 158.73792258 -0.3537727 161.03149414 -0.34057617 C162.31571951 -0.34296453 163.59994488 -0.34535288 164.92308617 -0.34781361 C168.69738633 0.23244317 169.87710892 1.13151236 172.14273071 4.14717102 C172.64393616 6.43026733 172.64393616 6.43026733 172.6444397 8.95991516 C172.65382065 9.91092606 172.6632016 10.86193695 172.67286682 11.84176636 C172.65601585 13.37159401 172.65601585 13.37159401 172.63882446 14.93232727 C172.64027969 15.98496262 172.64173492 17.03759796 172.64323425 18.12213135 C172.64157542 20.34543122 172.63001599 22.56874259 172.60928345 24.79194641 C172.58030814 28.20056234 172.58867949 31.60762536 172.60171509 35.01631165 C172.59547838 37.17582443 172.58708797 39.3353323 172.57632446 41.49482727 C172.5792601 42.5167366 172.58219574 43.53864594 172.58522034 44.59152222 C172.57253616 45.53938095 172.55985199 46.48723969 172.54678345 47.46382141 C172.54138046 48.2978096 172.53597748 49.13179779 172.53041077 49.99105835 C172.05032075 52.66111617 171.27745272 53.51645637 169.14273071 55.14717102 C166.08928486 56.1649863 164.03989279 56.26814343 160.84512329 56.26069641 C159.76422928 56.26062088 158.68333527 56.26054535 157.56968689 56.26046753 C156.40398666 56.25530624 155.23828644 56.25014496 154.03726196 56.24482727 C152.84292038 56.24341232 151.6485788 56.24199738 150.41804504 56.24053955 C146.59708163 56.23493452 142.77617646 56.22238113 138.95523071 56.20967102 C136.36734093 56.20465667 133.77945024 56.20009365 131.19155884 56.19599915 C124.84192954 56.18496345 118.49233428 56.16822038 112.14273071 56.14717102 C112.14549609 57.07115566 112.14826147 57.9951403 112.15111065 58.94712448 C112.21766396 81.41378781 112.26698642 103.88043838 112.29816723 126.34717941 C112.31364623 137.21186066 112.33475548 148.07647684 112.36904907 158.94111633 C112.39891981 168.40903969 112.4182982 177.87691594 112.4249962 187.34488511 C112.4289124 192.35964428 112.43813746 197.37426865 112.45992088 202.38898468 C112.48024928 207.10686693 112.4865719 211.82455858 112.48205376 216.54248047 C112.48288059 218.2759225 112.48886793 220.00937075 112.50034714 221.74277496 C112.51523441 224.10630464 112.51169842 226.46911106 112.50349426 228.83265686 C112.51223279 229.52137619 112.52097131 230.21009552 112.52997464 230.91968513 C112.50186435 233.9079507 112.2746015 235.91063617 110.80768299 238.54182816 C107.89458927 241.35062591 104.95504145 241.28218946 101.10806274 241.32417297 C100.08334869 241.33700821 99.05863464 241.34984344 98.00286865 241.36306763 C96.89660126 241.37045456 95.79033386 241.37784149 94.65054321 241.38545227 C93.51245209 241.39352402 92.37436096 241.40159576 91.20178223 241.40991211 C88.7926282 241.42374786 86.3834546 241.43447229 83.97427368 241.44233704 C80.28916414 241.45957079 76.6049468 241.50346537 72.92007446 241.54756165 C70.58023731 241.55768678 68.24039254 241.56620344 65.90054321 241.57295227 C64.24721481 241.5992144 64.24721481 241.5992144 62.56048584 241.62600708 C54.93135423 241.60435903 54.93135423 241.60435903 50.97036743 239.30805969 C47.68844104 235.42770563 48.01902477 231.93332279 48.0224762 227.02883911 C48.02162177 226.29940352 48.02076735 225.56996792 48.01988703 224.81842822 C48.01823649 222.3678444 48.02374666 219.91732864 48.02920532 217.4667511 C48.02948731 215.71263633 48.02932923 213.95852144 48.02876282 212.20440674 C48.0284753 207.43613112 48.03436466 202.66788054 48.04133677 197.89961076 C48.04757791 192.91879289 48.04817472 187.93797449 48.04936218 182.95715332 C48.05247325 173.52243399 48.06068363 164.08772621 48.07071167 154.65301198 C48.08187976 143.91312413 48.08738502 133.17323574 48.09240711 122.43334353 C48.10286641 100.33794624 48.12046153 78.24255936 48.14273071 56.14717102 C47.47731766 56.15605347 46.8119046 56.16493591 46.12632751 56.17408752 C39.19967235 56.26259292 32.27317787 56.32291893 25.34609985 56.36689758 C22.76107254 56.38701074 20.17609072 56.41430489 17.59121704 56.44892883 C13.87520116 56.49745756 10.15978694 56.52014337 6.44351196 56.53779602 C5.28813431 56.55844116 4.13275665 56.5790863 2.94236755 56.60035706 C-5.0623357 56.60259479 -5.0623357 56.60259479 -9.06356812 54.31025696 C-11.59852496 51.25326531 -11.98306834 48.77916326 -12.0184021 44.93867493 C-12.02800964 44.09414764 -12.03761719 43.24962036 -12.04751587 42.37950134 C-12.05176575 41.47009796 -12.05601562 40.56069458 -12.06039429 39.62373352 C-12.0689444 38.21624344 -12.0689444 38.21624344 -12.07766724 36.78031921 C-12.08711323 34.79486721 -12.09364963 32.80939956 -12.09750366 30.82392883 C-12.10720976 27.79077238 -12.13823715 24.75829346 -12.16976929 21.72529602 C-12.17629952 19.79561254 -12.18154991 17.86592422 -12.18539429 15.93623352 C-12.19774109 15.0308786 -12.21008789 14.12552368 -12.22280884 13.19273376 C-12.2057999 8.37058613 -12.05491867 5.03475753 -8.85726929 1.14717102 C-5.91198425 -0.3254715 -3.28916858 0.01095171 0 0 Z "
        fill="#000000" transform="translate(818.8572692871094,672.8528289794922)" />
    <path
        d="M0 0 C5.30210611 0.4865074 9.92573781 2.33222429 14.8125 4.3125 C15.67343262 4.66006348 16.53436523 5.00762695 17.42138672 5.36572266 C48.44055154 18.13183227 77.34860677 34.6537925 104 55 C104.60038086 55.45616699 105.20076172 55.91233398 105.81933594 56.38232422 C112.93268958 61.80753814 119.75883147 67.41177211 126.3046875 73.515625 C128.41363643 75.45952575 130.54880863 77.33804755 132.72265625 79.20703125 C137.54382806 83.41083026 142.05189369 87.90529462 146.5625 92.4375 C147.37396484 93.24509766 148.18542969 94.05269531 149.02148438 94.88476562 C153.88829759 99.75943487 158.55378292 104.73899219 163 110 C163.51151611 110.60481201 164.02303223 111.20962402 164.55004883 111.83276367 C205.98427031 161.3182792 257.68169928 243.69327111 252 311 C250.45844148 313.03646131 249.55389974 313.88927488 247.02697754 314.39440918 C246.27879761 314.40282837 245.53061768 314.41124756 244.75976562 314.41992188 C243.90878296 314.43583374 243.05780029 314.45174561 242.18103027 314.46813965 C241.26535278 314.46834106 240.34967529 314.46854248 239.40625 314.46875 C238.46317993 314.47636353 237.52010986 314.48397705 236.54846191 314.49182129 C234.55463306 314.50262638 232.56074759 314.50547373 230.56689453 314.50097656 C227.51108869 314.50000353 224.45778731 314.54163431 221.40234375 314.5859375 C219.46615108 314.59114383 217.52994967 314.5938327 215.59375 314.59375 C214.67807251 314.61014526 213.76239502 314.62654053 212.81896973 314.64343262 C210.44399784 314.61746251 208.31249431 314.54081144 206 314 C203.20315294 310.9522875 202.54346789 307.82848719 201.89453125 303.80859375 C201.72026611 302.79603516 201.54600098 301.78347656 201.36645508 300.74023438 C201.1836499 299.65033203 201.00084473 298.56042969 200.8125 297.4375 C190.02115519 237.99939158 161.76843967 181.90651217 121.10546875 137.32421875 C119.26022445 135.28726075 117.4691833 133.21729153 115.6875 131.125 C112.60944655 127.59597593 109.36387195 124.25588136 106.0625 120.9375 C105.58449951 120.45490723 105.10649902 119.97231445 104.61401367 119.47509766 C100.57629485 115.45432979 96.3221911 111.71098255 92 108 C91.36505615 107.45303467 90.7301123 106.90606934 90.07592773 106.3425293 C79.2394171 97.07568341 67.94006505 88.78621712 56 81 C55.30519531 80.54641113 54.61039063 80.09282227 53.89453125 79.62548828 C51.91596848 78.34296246 49.92845012 77.07569092 47.9375 75.8125 C46.98012939 75.19217896 46.98012939 75.19217896 46.00341797 74.55932617 C42.53165528 72.36587851 39.15083036 70.60015418 35.3203125 69.109375 C29.17214767 66.56508995 23.77752268 64.24551805 20.46337891 58.19433594 C17.68844826 51.39108131 15.83210352 44.33473138 13.94140625 37.24560547 C12.64818112 32.78706427 10.90687905 28.66600625 8.875 24.5 C8.55200928 23.83121826 8.22901855 23.16243652 7.89624023 22.47338867 C5.39575106 17.46923952 2.44553076 12.82230485 -0.84765625 8.296875 C-2.295971 5.41006457 -1.99408806 4.01869672 -1 1 C-0.67 0.67 -0.34 0.34 0 0 Z "
        fill="#00A5F0" transform="translate(850,289)" />
    <path
        d="M0 0 C0.77734375 2.02734375 0.77734375 2.02734375 1 5 C-0.37964758 7.67288094 -1.79558051 10.06130445 -3.4375 12.5625 C-10.05994207 23.23309212 -15.15459455 34.69332357 -18.32421875 46.87109375 C-18.52684326 47.64130859 -18.72946777 48.41152344 -18.93823242 49.20507812 C-19.2993707 50.64021434 -19.63154573 52.08311953 -19.92700195 53.53320312 C-20.89585056 57.50138589 -22.18923868 59.49047829 -25.54296875 61.62890625 C-27.0180188 62.4389309 -28.50447223 63.22843714 -30 64 C-31.57094586 64.88197815 -33.13989334 65.76752331 -34.70703125 66.65625 C-35.53130615 67.11459229 -36.35558105 67.57293457 -37.20483398 68.04516602 C-53.81249726 77.31069035 -69.30913753 87.93250583 -84 100 C-84.79083984 100.64437012 -84.79083984 100.64437012 -85.59765625 101.30175781 C-103.43115249 115.88184595 -119.71398004 131.91965388 -134 150 C-134.75410156 150.93585938 -135.50820313 151.87171875 -136.28515625 152.8359375 C-169.68879895 195.09290338 -191.03111338 244.32405599 -201.73828125 296.90234375 C-204.53593088 310.53593088 -204.53593088 310.53593088 -207 313 C-208.85276794 313.26742554 -208.85276794 313.26742554 -211.12670898 313.29052734 C-211.97776718 313.30328705 -212.82882538 313.31604675 -213.70567322 313.32919312 C-215.08693138 313.33253159 -215.08693138 313.33253159 -216.49609375 313.3359375 C-217.44057877 313.3425943 -218.38506378 313.3492511 -219.35816956 313.35610962 C-221.35798186 313.36624581 -223.35782805 313.37092634 -225.35766602 313.37060547 C-228.42195204 313.37497782 -231.48479724 313.41128477 -234.54882812 313.44921875 C-236.48957839 313.45508679 -238.43033552 313.45905627 -240.37109375 313.4609375 C-241.28990829 313.47530853 -242.20872284 313.48967957 -243.15538025 313.50448608 C-249.45439107 313.45911149 -249.45439107 313.45911149 -252.11132812 311.22338867 C-253.08584886 308.78521275 -253.23503002 307.54340434 -252.84765625 304.96484375 C-252.73397705 304.16989502 -252.62029785 303.37494629 -252.50317383 302.5559082 C-252.35775146 301.6918335 -252.2123291 300.82775879 -252.0625 299.9375 C-251.91772217 299.0199292 -251.77294434 298.1023584 -251.6237793 297.15698242 C-241.47096274 235.57827747 -216.62374004 176.18491896 -178 127 C-177.360625 126.18015625 -176.72125 125.3603125 -176.0625 124.515625 C-160.98335933 105.42348721 -144.61431086 86.73273605 -126 71 C-125.06929688 70.19175781 -124.13859375 69.38351562 -123.1796875 68.55078125 C-102.85410433 50.97595682 -80.52644565 35.94552563 -57 23 C-56.13213867 22.51821289 -55.26427734 22.03642578 -54.37011719 21.54003906 C-9.79827518 -3.04084402 -9.79827518 -3.04084402 0 0 Z "
        fill="#00A5F0" transform="translate(596,290)" />
    <path
        d="M0 0 C1.24861313 -0.00241196 2.49722626 -0.00482391 3.78367615 -0.00730896 C6.42136145 -0.00633001 9.05677374 0.00447221 11.6940918 0.03198242 C15.06937577 0.06610192 18.44314045 0.06003125 21.81849766 0.04131985 C25.04575338 0.02819594 28.27277712 0.04646659 31.5 0.0625 C32.71047501 0.05754013 33.92095001 0.05258026 35.16810608 0.04747009 C36.29284836 0.06330643 37.41759064 0.07914276 38.57641602 0.09545898 C40.05936913 0.10475685 40.05936913 0.10475685 41.57228088 0.11424255 C45.10155149 0.80982656 46.04895536 1.72067485 48.18359375 4.62890625 C48.7862984 7.70931052 48.72732097 10.75337514 48.69825745 13.88389587 C48.70520297 14.83116989 48.7121485 15.77844391 48.7193045 16.7544232 C48.73763813 19.93669889 48.72729232 23.11823444 48.71704102 26.30053711 C48.72409626 28.57870545 48.7328396 30.85686909 48.7431488 33.13502502 C48.76569679 39.32921768 48.76269034 45.52315548 48.75382733 51.71737361 C48.74872596 56.8841182 48.7560031 62.05081453 48.76329941 67.21755415 C48.78128923 80.10135351 48.77487022 92.98497553 48.7571296 105.86876345 C48.74243384 117.05878966 48.75705832 128.24854734 48.78589977 139.43853896 C48.81529149 150.92756403 48.82575835 162.41643535 48.81671757 173.90549952 C48.811781 180.35609893 48.81404359 186.80648958 48.83450508 193.25706291 C48.85282147 199.32201984 48.84695247 205.38647665 48.82230568 211.45140648 C48.81728504 213.67947386 48.82081981 215.90757908 48.83345413 218.1356163 C48.8493191 221.17330162 48.83449488 224.20932691 48.81178284 227.24693298 C48.82361857 228.1323403 48.83545429 229.01774762 48.84764868 229.92998546 C48.78056529 234.33470916 48.60278472 236.09045384 45.81072998 239.6768589 C42.78026794 241.9285904 41.36531855 242.24812403 37.63061523 242.22827148 C36.5427623 242.23434921 35.45490936 242.24042694 34.33409119 242.24668884 C32.58703636 242.21739037 32.58703636 242.21739037 30.8046875 242.1875 C29.60046646 242.18516861 28.39624542 242.18283722 27.15553284 242.18043518 C24.61281234 242.17070164 22.07011342 242.14892397 19.52758789 242.1159668 C15.63199832 242.06654459 11.7376717 242.05448466 7.84179688 242.04882812 C5.37108029 242.03474258 2.90037469 242.01853835 0.4296875 242 C-0.73703995 241.9946373 -1.9037674 241.9892746 -3.10585022 241.98374939 C-4.73290138 241.9597683 -4.73290138 241.9597683 -6.39282227 241.93530273 C-7.34592789 241.92466293 -8.29903351 241.91402313 -9.28102112 241.90306091 C-11.99391058 241.60971246 -13.57262321 241.1752224 -15.81640625 239.62890625 C-17.72183566 236.55985661 -18.06869719 234.20748996 -18.07710266 230.62586975 C-18.08418747 229.61789841 -18.09127228 228.60992706 -18.09857178 227.57141113 C-18.09609436 226.47155884 -18.09361694 225.37170654 -18.09106445 224.23852539 C-18.09617538 223.07554428 -18.10128632 221.91256317 -18.10655212 220.71434021 C-18.12046942 216.86419551 -18.11948975 213.01422938 -18.1171875 209.1640625 C-18.1200913 207.16669109 -18.12299957 205.16931961 -18.12659425 203.17194933 C-18.13768583 196.89203976 -18.13812881 190.61219001 -18.13208008 184.33227539 C-18.12603968 177.85771826 -18.13835361 171.38337842 -18.15965015 164.90885836 C-18.17727359 159.34609883 -18.18326635 153.78340842 -18.1800124 148.220622 C-18.17820057 144.89994746 -18.18214028 141.57946241 -18.19472694 138.25880623 C-18.20704194 134.55526031 -18.20032883 130.85221927 -18.1887207 127.14868164 C-18.19636444 126.05085358 -18.20400818 124.95302551 -18.21188354 123.82192993 C-18.16826977 117.53700636 -17.78031617 113.61424202 -13.1953125 108.99609375 C-12.59589844 108.50367188 -11.99648438 108.01125 -11.37890625 107.50390625 C-7.77538865 104.4644752 -4.27831033 101.32776419 -0.81640625 98.12890625 C3.09271467 94.5280336 7.04227676 90.98471431 11.05859375 87.50390625 C13.80182831 85.08340517 16.49242281 82.60688215 19.18359375 80.12890625 C23.06714795 76.55338919 26.98313719 73.02507826 30.97460938 69.5703125 C33.65438284 67.21514467 36.2920824 64.81634224 38.9296875 62.4140625 C39.43657104 61.95261841 39.94345459 61.49117432 40.46569824 61.01574707 C41.70532146 59.88715669 42.94450284 58.75808103 44.18359375 57.62890625 C43.49312454 57.62526062 42.80265533 57.62161499 42.09126282 57.61785889 C34.90465641 57.57604816 27.71868949 57.5067118 20.5324707 57.42138672 C17.8504895 57.39095116 15.16869623 57.37027093 12.48657227 57.35791016 C8.63123816 57.33650353 4.77690889 57.28986117 0.921875 57.23828125 C-0.87681282 57.23643829 -0.87681282 57.23643829 -2.71183777 57.23455811 C-11.04036152 57.08802943 -11.04036152 57.08802943 -15.05004883 54.71582031 C-17.54903434 51.76332161 -17.94688776 50.13385219 -18.00927734 46.3503418 C-18.02534027 45.46569748 -18.0414032 44.58105316 -18.05795288 43.66960144 C-18.1024034 39.62194573 -18.14346766 35.57445403 -18.16650391 31.52661133 C-18.18306466 29.39173482 -18.21035613 27.25691379 -18.24853516 25.12231445 C-18.30329958 22.04479195 -18.32517738 18.96856914 -18.33984375 15.890625 C-18.36251312 14.93838547 -18.3851825 13.98614594 -18.40853882 13.00505066 C-18.39514874 8.80437534 -18.15722497 6.23942967 -16.0847168 2.52685547 C-10.91091291 -0.4776378 -5.87800163 -0.06448899 0 0 Z "
        fill="#000000" transform="translate(493.81640625,672.37109375)" />
    <path
        d="M0 0 C2.95959308 1.55672786 5.57902072 3.49616908 8.25 5.5 C9.00506836 6.05099365 9.76013672 6.6019873 10.53808594 7.16967773 C16.15300772 11.29287223 21.64614697 15.54280854 27 20 C27.88558594 20.70125 28.77117188 21.4025 29.68359375 22.125 C37.48735788 28.45731316 44.63311194 35.4174951 51.75 42.5 C52.48432755 43.22656296 52.48432755 43.22656296 53.23348999 43.96780396 C59.9502641 50.62857329 66.162982 57.5513102 72 65 C72.58394531 65.73959961 73.16789063 66.47919922 73.76953125 67.24121094 C97.89488612 98.20017286 135.52402107 156.37008449 130.75 198.0625 C130.5025 199.031875 130.255 200.00125 130 201 C127.71613197 202.14193402 126.41192908 202.13803338 123.87329102 202.16113281 C123.02223282 202.17074036 122.17117462 202.1803479 121.29432678 202.19024658 C119.91306862 202.1966214 119.91306862 202.1966214 118.50390625 202.203125 C117.55942123 202.20882507 116.61493622 202.21452515 115.64183044 202.22039795 C113.64200971 202.22985293 111.64217336 202.2363839 109.64233398 202.24023438 C106.57833823 202.24994978 103.51501038 202.28097244 100.45117188 202.3125 C98.51042066 202.31902895 96.56966464 202.32427985 94.62890625 202.328125 C93.71009171 202.3404718 92.79127716 202.3528186 91.84461975 202.36553955 C90.99040939 202.36253845 90.13619904 202.35953735 89.25610352 202.35644531 C88.12930931 202.36191376 88.12930931 202.36191376 86.97975159 202.36749268 C84.45418471 201.89868268 83.58498166 200.97922115 82 199 C81.2956543 197.10913086 81.2956543 197.10913086 80.82421875 194.96484375 C80.63964111 194.16522217 80.45506348 193.36560059 80.26489258 192.54174805 C80.07435303 191.68234619 79.88381348 190.82294434 79.6875 189.9375 C67.03073451 136.71209262 35.1867622 85.67221339 -9.54296875 53.43359375 C-10.13859619 52.9967627 -10.73422363 52.55993164 -11.34790039 52.10986328 C-12.50390689 51.26592613 -13.67071941 50.43653078 -14.84936523 49.62451172 C-17.3633038 47.78549471 -18.87159139 46.30053079 -20.1015625 43.421875 C-19.94286462 38.07497728 -18.06129722 33.43352958 -16.25 28.4375 C-13.55731596 20.75660575 -11.10782927 13.31504876 -9.66796875 5.29296875 C-8.13090697 0.01662218 -5.25172129 -0.83830293 0 0 Z "
        fill="#00A5F0" transform="translate(881,401)" />
    <path
        d="M0 0 C1.46874886 4.75253697 2.87842452 9.51696484 4.171875 14.3203125 C4.59340893 15.88030054 5.01529096 17.44019455 5.4375 19 C5.64930908 19.78463623 5.86111816 20.56927246 6.0793457 21.37768555 C7.46146668 26.38216991 9.09467793 31.09264879 11.3984375 35.76171875 C12.31434819 39.16962021 11.88113754 41.60402786 11 45 C8.84765625 47.37109375 8.84765625 47.37109375 6.0625 49.4375 C5.06089844 50.20320313 4.05929687 50.96890625 3.02734375 51.7578125 C2.02832031 52.49773437 1.02929688 53.23765625 0 54 C-8.08252794 60.24846448 -15.59440809 66.97488343 -23 74 C-23.75539063 74.71285156 -24.51078125 75.42570312 -25.2890625 76.16015625 C-30.67591882 81.38605072 -35.3474138 87.12018739 -40 93 C-40.78246094 93.96550781 -41.56492187 94.93101562 -42.37109375 95.92578125 C-63.42538988 122.43735094 -78.12799391 152.99583225 -86.70605469 185.66503906 C-86.96547852 186.65213867 -87.22490234 187.63923828 -87.4921875 188.65625 C-87.82259033 189.95272461 -87.82259033 189.95272461 -88.15966797 191.27539062 C-89.20000251 194.64846833 -90.5676364 197.7740724 -92 201 C-98.21129698 201.09877896 -104.42213818 201.17142631 -110.6340332 201.21972656 C-112.74772097 201.23985847 -114.86135294 201.26716643 -116.97485352 201.30175781 C-120.01071935 201.35020627 -123.04584978 201.37295276 -126.08203125 201.390625 C-127.5024749 201.42159271 -127.5024749 201.42159271 -128.95161438 201.45318604 C-135.40467403 201.45539979 -135.40467403 201.45539979 -138.15844727 199.34887695 C-139.27222073 196.24019853 -138.97808505 194.27240246 -138.3828125 191.02734375 C-138.17172852 189.87218262 -137.96064453 188.71702148 -137.74316406 187.52685547 C-136.61164187 182.15695742 -135.32476429 176.85519967 -133.875 171.5625 C-133.41432129 169.87761475 -133.41432129 169.87761475 -132.94433594 168.15869141 C-123.5778015 134.67640255 -108.53116389 103.08029124 -88 75 C-87.59072266 74.43909668 -87.18144531 73.87819336 -86.75976562 73.30029297 C-72.0389644 53.29920435 -54.82871001 34.02011276 -35 19 C-33.64744425 17.94397926 -32.29597414 16.88656724 -30.9453125 15.828125 C-26.67195216 12.49513145 -22.3557911 9.22444467 -18 6 C-17.43120117 5.57783203 -16.86240234 5.15566406 -16.27636719 4.72070312 C-6.73346128 -2.24448709 -6.73346128 -2.24448709 0 0 Z "
        fill="#00A5F0" transform="translate(572,402)" />
    <path
        d="M0 0 C9.57 0 19.14 0 29 0 C35.72563573 12.31682689 42.44170321 24.63839895 49.11279297 36.98486328 C51.88548246 42.11262318 54.67324879 47.23128238 57.48828125 52.3359375 C58.04644531 53.35042969 58.60460937 54.36492187 59.1796875 55.41015625 C60.24778538 57.34959714 61.31926647 59.28717964 62.39453125 61.22265625 C62.86890625 62.08503906 63.34328125 62.94742187 63.83203125 63.8359375 C64.25202393 64.59438965 64.6720166 65.3528418 65.10473633 66.13427734 C66 68 66 68 66 70 C66.99 70 67.98 70 69 70 C69 46.9 69 23.8 69 0 C75.93 0 82.86 0 90 0 C90 34.32 90 68.64 90 104 C80.43 104 70.86 104 61 104 C54.70437495 92.74418552 48.51381984 81.43942246 42.41699219 70.07470703 C39.36970643 64.39537188 36.30882872 58.72436823 33.21484375 53.0703125 C32.61196533 51.9663916 32.00908691 50.8624707 31.38793945 49.72509766 C30.23228183 47.6109532 29.07337794 45.4985793 27.91088867 43.38818359 C27.39631104 42.44539551 26.8817334 41.50260742 26.3515625 40.53125 C25.89604004 39.70173828 25.44051758 38.87222656 24.97119141 38.01757812 C24 36 24 36 24 34 C23.01 34 22.02 34 21 34 C21 57.1 21 80.2 21 104 C14.07 104 7.14 104 0 104 C0 69.68 0 35.36 0 0 Z "
        fill="#00A5F0" transform="translate(728,983)" />
    <path
        d="M0 0 C8.9925 -0.061875 17.985 -0.12375 27.25 -0.1875 C30.0643457 -0.21481201 32.87869141 -0.24212402 35.77832031 -0.27026367 C38.04491753 -0.27903729 40.31151953 -0.28667915 42.578125 -0.29296875 C43.72587402 -0.30831665 44.87362305 -0.32366455 46.05615234 -0.33947754 C59.00847563 -0.34361302 69.84287084 2.03630676 79.3125 11.25 C85.66693722 21.60537917 86.40657889 31.95770716 84.5625 43.8125 C82.48633729 51.28668574 77.0874781 56.50785556 71 61 C71.18792114 61.52395859 71.37584229 62.04791718 71.56945801 62.5877533 C73.5177647 68.0209592 75.46387649 73.45494756 77.40869141 78.8894043 C78.13566232 80.91988124 78.86320056 82.95015515 79.59130859 84.98022461 C80.63526775 87.89123725 81.67721212 90.80296406 82.71875 93.71484375 C83.21091003 95.08514992 83.21091003 95.08514992 83.7130127 96.48313904 C84.01332397 97.32393509 84.31363525 98.16473114 84.62304688 99.03100586 C84.88952026 99.77491074 85.15599365 100.51881561 85.43054199 101.28526306 C86 103 86 103 86 104 C78.41 104 70.82 104 63 104 C60.71793222 98.29483054 58.47299452 92.67395824 56.421875 86.8984375 C55.98359375 85.66738281 55.5453125 84.43632813 55.09375 83.16796875 C54.64579019 81.90366112 54.19787403 80.63933802 53.75 79.375 C53.2866379 78.07155073 52.82309738 76.76816488 52.359375 75.46484375 C51.23783639 72.31051642 50.11867417 69.15534433 49 66 C40.09 65.67 31.18 65.34 22 65 C22 77.87 22 90.74 22 104 C14.74 104 7.48 104 0 104 C0 69.68 0 35.36 0 0 Z M22 20 C22 28.58 22 37.16 22 46 C26.00229288 46.06922608 30.00304204 46.12884797 34.00561523 46.16479492 C35.36441117 46.17979409 36.72315941 46.20020038 38.08178711 46.22631836 C49.78775381 46.64306122 49.78775381 46.64306122 59.875 41.4375 C62.70340901 37.82342182 62.39019275 34.13840741 62.34375 29.703125 C62.18052948 26.75683055 62.18052948 26.75683055 59.875 23.9375 C54.74384543 20.47954801 50.18957742 19.75053471 44.0703125 19.8046875 C42.13671875 19.81435547 42.13671875 19.81435547 40.1640625 19.82421875 C38.81770558 19.84092537 37.47135141 19.85785521 36.125 19.875 C34.75521483 19.88504336 33.38542258 19.89416683 32.015625 19.90234375 C28.67700742 19.92585514 25.33848095 19.96172442 22 20 Z "
        fill="#00A5F0" transform="translate(520,983)" />
    <path
        d="M0 0 C25.41 0 50.82 0 77 0 C77 6.6 77 13.2 77 20 C59.18 20 41.36 20 23 20 C23 26.93 23 33.86 23 41 C36.86 41 50.72 41 65 41 C65 47.6 65 54.2 65 61 C51.14 61 37.28 61 23 61 C23 68.59 23 76.18 23 84 C41.48 84 59.96 84 79 84 C79 90.6 79 97.2 79 104 C52.93 104 26.86 104 0 104 C0 69.68 0 35.36 0 0 Z "
        fill="#00A5F0" transform="translate(946,983)" />
    <path
        d="M0 0 C11.55 0 23.1 0 35 0 C42.52667922 22.2158435 49.63867017 44.55152955 56.66552734 66.92944336 C57.41882215 69.32669886 58.17223708 71.72391662 58.92578125 74.12109375 C59.28472473 75.26392319 59.64366821 76.40675262 60.01348877 77.58421326 C62.32389258 84.91863142 64.70856966 92.22157115 67.21166992 99.49243164 C68 102 68 102 68 104 C60.41 104 52.82 104 45 104 C43.865625 100.679375 42.73125 97.35875 41.5625 93.9375 C41.20615479 92.90488037 40.84980957 91.87226074 40.48266602 90.80834961 C40.20092529 89.97311768 39.91918457 89.13788574 39.62890625 88.27734375 C39.1968689 87.01265259 39.1968689 87.01265259 38.75610352 85.72241211 C37.87481864 82.54927434 37.46573525 79.26014677 37 76 C24.13 76 11.26 76 -2 76 C-2.99 80.95 -2.99 80.95 -4 86 C-4.81804033 89.04025581 -5.6568707 92.05000608 -6.5625 95.0625 C-6.78357422 95.81982422 -7.00464844 96.57714844 -7.23242188 97.35742188 C-8.86842315 102.86842315 -8.86842315 102.86842315 -10 104 C-11.63472882 104.08700342 -13.27314055 104.10701063 -14.91015625 104.09765625 C-15.89951172 104.09443359 -16.88886719 104.09121094 -17.90820312 104.08789062 C-18.94912109 104.07951172 -19.99003906 104.07113281 -21.0625 104.0625 C-22.10728516 104.05798828 -23.15207031 104.05347656 -24.22851562 104.04882812 C-26.8190666 104.03699913 -29.40950559 104.02051689 -32 104 C-30.37326656 95.78347422 -27.84230479 87.90012464 -25.2734375 79.94140625 C-24.80182491 78.46968385 -24.3306114 76.99783351 -23.85977173 75.52586365 C-22.62012855 71.65339002 -21.37599913 67.78237387 -20.13061523 63.91174316 C-17.9230418 57.04829393 -15.72312132 50.18238722 -13.5234375 43.31640625 C-13.16831715 42.2087686 -13.16831715 42.2087686 -12.80602264 41.07875443 C-8.42795438 27.41817516 -4.18728767 13.72057802 0 0 Z M14 22 C10.7 33.22 7.4 44.44 4 56 C12.58 56 21.16 56 30 56 C28.41227827 47.8985571 28.41227827 47.8985571 26.30859375 40.02734375 C26.00373047 39.02638672 25.69886719 38.02542969 25.38476562 36.99414062 C25.07216797 35.98544922 24.75957031 34.97675781 24.4375 33.9375 C24.12103516 32.89400391 23.80457031 31.85050781 23.47851562 30.77539062 C22.37936412 26.04144483 22.37936412 26.04144483 20 22 C18.02 22 16.04 22 14 22 Z "
        fill="#00A5F0" transform="translate(647,983)" />
    <path
        d="M0 0 C7.11247604 5.61671928 10.8526822 12.93477395 13.0703125 21.625 C13.0703125 22.285 13.0703125 22.945 13.0703125 23.625 C9.17549034 23.85782073 5.28245396 23.99956639 1.3828125 24.125 C0.28001953 24.19203125 -0.82277344 24.2590625 -1.95898438 24.328125 C-5.13503593 24.40488758 -7.84185909 24.38480533 -10.9296875 23.625 C-12.88397733 21.7170696 -13.89023649 20.02839932 -15.00634766 17.54663086 C-15.88060348 15.33508717 -15.88060348 15.33508717 -18.6171875 13.6875 C-26.76991189 11.0724752 -34.08598924 10.90821488 -41.9296875 14.625 C-48.88762359 19.06368337 -52.24058909 24.67156937 -54.46020508 32.49487305 C-56.94641891 43.77527643 -55.62639452 56.86894924 -50.1171875 66.9375 C-45.30325361 72.85176164 -40.30894532 76.1763737 -32.7421875 77.4375 C-26.10937213 78.04652311 -20.27055966 76.41800846 -14.9921875 72.375 C-12.39379312 69.13615709 -12.39379312 69.13615709 -9.9296875 62.625 C-2.0096875 62.625 5.9103125 62.625 14.0703125 62.625 C11.53923267 74.71793695 7.59734157 84.4855616 -2.9296875 91.625 C-16.49642806 99.37742318 -30.57546181 100.1040227 -45.5390625 96.58984375 C-56.95799361 93.34044745 -66.45127556 86.55453365 -72.3671875 76.125 C-80.08581299 60.55692486 -82.29225617 40.02292984 -77.03515625 23.2890625 C-71.64713452 10.3045013 -64.97759463 0.52802969 -51.9296875 -5.375 C-33.93347826 -11.38614331 -15.95247972 -11.36694911 0 0 Z "
        fill="#00A5F0" transform="translate(914.9296875,990.375)" />
    <path
        d="M0 0 C25.08 0 50.16 0 76 0 C76 6.6 76 13.2 76 20 C58.18 20 40.36 20 22 20 C22 27.59 22 35.18 22 43 C36.19 43 50.38 43 65 43 C65 49.6 65 56.2 65 63 C50.81 63 36.62 63 22 63 C22 76.53 22 90.06 22 104 C14.74 104 7.48 104 0 104 C0 69.68 0 35.36 0 0 Z "
        fill="#00A5F0" transform="translate(427,983)" />
</svg>