<svg xmlns="http://www.w3.org/2000/svg" viewBox="0 0 1450 1295"><path d="m784 181 3.7.5c29.4 4.3 58.1 11 86.3 20.5l3.2 1A441.4 441.4 0 0 1 994 263l2.3 1.7c9.2 6.6 18.2 13.3 26.8 20.8l8.8 7.3a117.4 117.4 0 0 1 10.5 9.5c1.6 1.7 3.4 3.2 5.2 4.8a217 217 0 0 1 23.7 24l6.5 7a276 276 0 0 1 14.7 18 606.4 606.4 0 0 0 4.5 5.7 468.2 468.2 0 0 1 92 212.8l.6 3.8a84 84 0 0 1 1.4 22.6c-2.4 2.4-2.9 2.3-6.1 2.3h-8.3a1200 1200 0 0 1-21 .2h-2.8c-6.2 0-6.2 0-8.8-2a40 40 0 0 1-2.4-9.7l-.6-4.5-.4-2.3a416.6 416.6 0 0 0-84.6-196l-1.6-2a377.8 377.8 0 0 0-22-25.5 252.8 252.8 0 0 1-4-4.5c-62.5-69.8-155.5-114-282.6-130.4-98.5-5.2-197 24.3-302.8 105.4l-2.2 2a432.4 432.4 0 0 0-18.7 17.8 1331 1331 0 0 1-5 4.8A233.2 233.2 0 0 0 399 377a272.3 272.3 0 0 1-2.8 3.3A322.7 322.7 0 0 0 375 408l-1.3 2a412.7 412.7 0 0 0-71 187.2c-.8 3-1.2 3.9-3.7 5.8-2 .4-2 .4-4.3.4h-8.2a843.2 843.2 0 0 1-6 0 972.4 972.4 0 0 0-15-.1H257.9c-1.9-.3-1.9-.3-3.9-2.3-1.2-8.2.8-16.9 2.1-25l.4-2A466 466 0 0 1 337 377l1.7-2.4a368.7 368.7 0 0 1 26.4-33.2 216 216 0 0 1 15-16.5 146 146 0 0 1 16.7-17.3l2-2 4.3-3.8a757.4 757.4 0 0 0 4.9-4.6c6.4-6 13.1-11.3 20-16.7a621.5 621.5 0 0 0 6.3-4.9A380 380 0 0 1 466 253l2.4-1.6a478.3 478.3 0 0 1 197.3-71c38.3-5.4 80-5 118.3.6Z" fill="#00A5F0"/><path d="m756 271 2 .7a106.6 106.6 0 0 1 38 21.3l2.5 2a108.9 108.9 0 0 1 36.5 69c.3 5 .3 9.8.3 14.8v2c0 9.8-.5 18.8-3.3 28.2l-1 3.6c-4.3 14.2-11.2 27-20.6 38.4a15 15 0 0 0-3.8 8c2.3 5 6.8 6.4 11.5 8.7 15 7.8 28.2 17 40.9 28.3l1.6 1.4a201.7 201.7 0 0 1 57.7 88.8l1 2.8c2.3 8 2.3 8 .7 12-2.4 2.4-3 2.3-6.2 2.3h-2.6l-2.9.1h-2.9a1138 1138 0 0 1-21.5.3h-2.8c-2.5 0-4.7 0-7.1-.7-2.5-2.8-2.5-2.8-4-6l-1-2-.6-1.7-.8-2-.8-2.2A139.8 139.8 0 0 0 845 552l-1.4-1.7a157.2 157.2 0 0 0-105.3-56.8c-21-1.9-42.2 0-62.3 6.5l-2.2.7A156.6 156.6 0 0 0 613 538l-2.6 2.4a152.1 152.1 0 0 0-36.2 58.5C573 602 573 602 571 603l-4.2.1h-8.5a2523.4 2523.4 0 0 1-21.6.1H529c-1.9-.2-1.9-.2-3.9-2.2-.5-6 .5-10.7 2.5-16.4l.8-2.3a200 200 0 0 1 30.4-56.7 261.6 261.6 0 0 0 3.3-4.3 191.2 191.2 0 0 1 66-54.3l3.6-1.8 3-1.4c2.7-1.7 2.7-1.7 3.5-5.1-.1-4.5-1.7-6.5-4.5-9.8a395.4 395.4 0 0 1-2.8-3.4l-1.5-1.8c-17.8-23-22.2-54.1-18.8-82.3 5-30 21.7-56.7 46.1-74.7A116 116 0 0 1 756 271Zm-82.2 64.8A71.3 71.3 0 0 0 658 390a66.2 66.2 0 0 0 23.6 40.3 70 70 0 0 0 53.5 13.4 66.6 66.6 0 0 0 40.8-26.8 66.5 66.5 0 0 0 10.6-51.1 67.2 67.2 0 0 0-29.9-42.1 66.2 66.2 0 0 0-82.8 12.1Zm-76.4 336.7h32.4a4278 4278 0 0 1 40 0 4046.7 4046.7 0 0 1 29.5 0c27.4-.1 53.8 1.8 74.7 21.5a65.7 65.7 0 0 1 17.2 47.4c-1.1 13.6-5 28.2-15.5 37.7l-2.5 2c-3 2.5-4 3.5-5.4 7.2.2 3 .6 4.2 2.2 6.7 2.4 1.9 2.4 1.9 5.1 3.6A54.3 54.3 0 0 1 797 834a73.8 73.8 0 0 1-13.2 52.9 123 123 0 0 1-6.8 7.1l-1.6 1.7c-20.3 19.8-53.2 18.6-79.3 18.7a4622.5 4622.5 0 0 0-50 .1 3112.6 3112.6 0 0 1-40.8.1h-9.7c-3.9-.9-5.3-2.4-7.6-5.6-.7-3.1-.7-6.2-.6-9.4v-2.9a843.4 843.4 0 0 1 0-16.3v-38.1a10436.5 10436.5 0 0 1 0-66.2 14357.6 14357.6 0 0 1 0-89.8v-2.7c.1-3.8.2-6 2.3-9.1a12 12 0 0 1 7.7-2ZM651 729v35a3437.2 3437.2 0 0 0 45.9.5h3.8c9.2 0 16.2-1.5 23-8A29 29 0 0 0 725 741c-2.4-5.5-6.7-8.4-12-11-3.3-1-6.3-1.1-9.8-1.1H671.4l-20.4.1Zm0 87v42a8214.3 8214.3 0 0 0 44.4.2h3.7c11.7 0 20.1-1.7 29.3-9.1 3.6-4.6 4-9.4 3.6-15.1-1.3-5-3.2-9.4-7-13a38.6 38.6 0 0 0-20-5.1H672l-21.1.1Zm379.2-143.5h30.6a3829.9 3829.9 0 0 1 37.9 0 3621 3621 0 0 1 27.8 0c20.4-.1 39.7.8 58.5 9.5l2.8 1.3a70 70 0 0 1 34.4 41.2c6.8 22.5 4.9 49-6 70-3.2 6-7.3 10.8-12.2 15.5l-2 2.1a73 73 0 0 1-30.6 16.8l-1.9.6a130.6 130.6 0 0 1-36 3.7 2826 2826 0 0 1-15.6 0l-11.5-.1-22.4-.1v2.9a4541.6 4541.6 0 0 1 .5 58.5v7l.1 2.2c0 3.7-.5 5.3-2.8 8.3-3 2.3-4.4 2.7-8.2 2.7h-10a747 747 0 0 1-7.3 0 711 711 0 0 0-18.4 0h-9.3c-3.8-1-5.2-2.5-7.6-5.6-.7-3.1-.7-6.2-.6-9.4v-2.9a843.4 843.4 0 0 1 0-16.3v-38.1a10436.5 10436.5 0 0 1 0-66.2 14357.6 14357.6 0 0 1 0-89.8v-2.7c.1-3.8.2-6 2.3-9.1 2.7-1.8 4.3-2 7.5-2ZM1084 729v48a4762.8 4762.8 0 0 0 43.7.3c9.4 0 18.8-1 26.3-7.3 5-5.6 6.9-10.5 7-18-.5-6.6-2-12.3-7-17-8.7-6-18.4-6.3-28.6-6.2h-14.9l-7.7.1-18.8.1Zm-670-36 2.6 2.1c11.6 10 19.4 21.5 26.4 34.9l1.2 2.3c1.3 2.7 1.2 4.7.8 7.7-3 6-6.6 7.6-12.6 9.9l-2.5 1-5.4 2a564 564 0 0 0-8 3l-5.2 2-2.4 1c-5.3 1.9-10.3 3-15.9 2.1a22.9 22.9 0 0 1-7.3-9.2 51.1 51.1 0 0 0-30.8-25 56.4 56.4 0 0 0-42.2 5.6 61.1 61.1 0 0 0-25.6 37 91.2 91.2 0 0 0 8.2 68 53.4 53.4 0 0 0 31 23c15.5 2.7 31 1 44.4-7.7 8-5.9 12.5-13 17.3-21.4 3-5 3-5 5-6.3 6.7-1.5 11-.4 17.4 2l2.6 1a639.3 639.3 0 0 1 5.5 2.1 716.4 716.4 0 0 0 8.3 3.2l5.3 2 2.6 1A21 21 0 0 1 445 843c1.8 6.1.3 9.8-2.4 15.3l-1.1 2.2c-12.1 24-34 43-59.5 51.5-35 10.2-73 9.1-105.8-8-5.4-3.3-10.3-7-15.2-11l-2.6-2.1c-22.8-19.4-35.4-50-38.2-79.3-.4-5.9-.4-11.7-.4-17.5V792c0-11 .6-21.4 3.2-32l.5-2c7-29.5 24.7-56.5 50.5-72.8 41.9-25 102-24.6 140 7.8Zm404.9-20.1h9.3l5.2-.1h22.8a22718.8 22718.8 0 0 1 98-.3 1849.5 1849.5 0 0 1 18.8 0 512 512 0 0 1 6.9 0h3.9c3.8.6 5 1.5 7.2 4.5.5 2.3.5 2.3.5 4.8v9.2a777.5 777.5 0 0 1 0 6.6 810.3 810.3 0 0 0 0 16.7v3.1l-.1 3v2.4c-.5 2.7-1.3 3.6-3.4 5.2-3 1-5.1 1.1-8.3 1.1H950l-19-.1v2.8a42062.9 42062.9 0 0 1 .4 169.9v2c0 3-.3 5-1.7 7.7-3 2.8-5.9 2.7-9.7 2.8H910l-7.3.1-11 .1h-10.4c-7.6 0-7.6 0-11.6-2.2-3.3-4-3-7.4-3-12.3V885l.1-14.3v-15A38144.4 38144.4 0 0 1 867 729h-2a3272.4 3272.4 0 0 1-39.7.4h-3.5c-8 0-8 0-12-2.2-2.5-3-3-5.6-3-9.4V709.6a1969.7 1969.7 0 0 1-.1-15V686c0-4.8.1-8.1 3.3-12 3-1.5 5.6-1.1 8.9-1.1Z"/><path d="M850 289c5.3.5 10 2.3 14.8 4.3l2.6 1A381 381 0 0 1 954 344l1.8 1.4c7.1 5.4 14 11 20.5 17.1a247.5 247.5 0 0 0 6.4 5.7c4.8 4.2 9.4 8.7 13.9 13.2l2.4 2.5c4.9 4.9 9.6 9.8 14 15.1l1.6 1.8c41.4 49.5 93 131.9 87.4 199.2-1.5 2-2.4 2.9-5 3.4h-10.5a851.6 851.6 0 0 1-15.1.2h-8.6c-2.4 0-4.5 0-6.8-.6-2.8-3-3.5-6.2-4.1-10.2l-.5-3-.6-3.4a325.9 325.9 0 0 0-79.7-160 268.1 268.1 0 0 1-5.4-6.3c-3-3.5-6.3-6.8-9.6-10.2l-1.5-1.4c-4-4-8.3-7.8-12.6-11.5l-2-1.7a325.9 325.9 0 0 0-34-25.3l-2.1-1.4a726.2 726.2 0 0 0-6-3.8l-1.9-1.2a61 61 0 0 0-10.7-5.5c-6.1-2.5-11.5-4.9-14.8-11-2.8-6.7-4.7-13.8-6.6-20.9a79 79 0 0 0-5-12.7l-1-2a100 100 0 0 0-8.7-14.2c-1.5-2.9-1.2-4.3-.2-7.3l1-1Zm-254 1c.8 2 .8 2 1 5a82 82 0 0 1-4.4 7.6 124.4 124.4 0 0 0-15 34.3l-.5 2.3a97.5 97.5 0 0 0-1 4.3c-1 4-2.3 6-5.6 8.1L566 354l-4.7 2.7-2.5 1.3a315.8 315.8 0 0 0-46.8 32l-1.6 1.3A316.3 316.3 0 0 0 462 440l-2.3 2.8A339.4 339.4 0 0 0 394.3 587c-2.8 13.6-2.8 13.6-5.3 16.1-1.9.3-1.9.3-4.1.3h-8.3a1200 1200 0 0 1-21 .2h-2.8c-6.3 0-6.3 0-9-2.3a10 10 0 0 1-.6-6.2l.3-2.4.4-2.7.5-2.7c10.1-61.6 35-121 73.6-170.2l2-2.5a368 368 0 0 1 50-53.5l2.8-2.5A383.4 383.4 0 0 1 539 313l2.6-1.5C586.2 287 586.2 287 596 290Z" fill="#00A5F0"/><path d="M493.8 672.4h3.8a744.8 744.8 0 0 1 18 0H535.4c3.5.8 4.5 1.7 6.6 4.6.6 3 .5 6.1.5 9.3v19.2a3596.8 3596.8 0 0 1 0 34 14228.4 14228.4 0 0 1 .1 72.3 10153.6 10153.6 0 0 1 0 87.8v2.7c0 4.4-.2 6.2-3 9.7-3 2.3-4.4 2.6-8.2 2.6H521a843.5 843.5 0 0 1-19.3-.2 4112.8 4112.8 0 0 1-7.5 0h-6.8l-2.9-.1c-2.7-.3-4.3-.8-6.5-2.3a15 15 0 0 1-2.3-9v-27.5a6959.7 6959.7 0 0 1 0-38.2 4446.6 4446.6 0 0 1 0-16.7 2544.7 2544.7 0 0 0 0-21v-3.4c0-6.3.3-10.2 5-14.8l1.7-1.5c3.6-3 7.1-6.2 10.6-9.4l11.9-10.6 8.1-7.4a517 517 0 0 1 11.8-10.6l8-7.1 1.5-1.4 3.7-3.4h-2a3522 3522 0 0 1-41.3-.4h-3.6c-8.3-.1-8.3-.1-12.3-2.5-2.5-3-3-4.6-3-8.4V716a2340.8 2340.8 0 0 1-.2-18.5 708.5 708.5 0 0 1-.1-9.2v-3c0-4.1.2-6.7 2.2-10.4 5.2-3 10.2-2.6 16.1-2.5Z"/><path d="M881 401c3 1.6 5.6 3.5 8.3 5.5l2.2 1.7c5.7 4 11.1 8.3 16.5 12.8l2.7 2.1c7.8 6.4 15 13.3 22 20.4l1.5 1.5c6.7 6.6 13 13.6 18.8 21l1.8 2.2c24.1 31 61.7 89.2 57 130.9l-.8 2.9c-2.3 1.1-3.6 1.1-6.1 1.2h-14.3l-9.1.1H968c-2.5-.4-3.4-1.3-5-3.3-.7-1.9-.7-1.9-1.2-4l-.5-2.5-.6-2.6a238.5 238.5 0 0 0-89.2-136.5l-1.8-1.3a157 157 0 0 0-3.5-2.5c-2.6-1.8-4-3.3-5.3-6.2.2-5.3 2-10 3.9-15 2.6-7.6 5-15 6.5-23.1 1.6-5.3 4.4-6.1 9.7-5.3Zm-309 1c1.5 4.8 2.9 9.5 4.2 14.3a11201.2 11201.2 0 0 0 1.9 7c1.4 5 3 9.8 5.3 14.5 1 3.4.5 5.8-.4 9.2-2.2 2.4-2.2 2.4-5 4.4l-3 2.4-3 2.2a300.7 300.7 0 0 0-25.3 22.2c-5.4 5.2-10 11-14.7 16.8l-2.4 3c-21 26.4-35.7 57-44.3 89.7l-.8 3-.7 2.6c-1 3.3-2.4 6.5-3.8 9.7a2314.8 2314.8 0 0 1-34 .4h-3c-6.4 0-6.4 0-9.2-2-1-3.2-.8-5.1-.2-8.4l.7-3.5a274.7 274.7 0 0 1 3.8-16l1-3.3c9.3-33.5 24.4-65.1 44.9-93.2l1.2-1.7a264.3 264.3 0 0 1 55.9-57.5A646 646 0 0 1 554 408l1.7-1.3c9.6-7 9.6-7 16.3-4.7Zm156 581h29a9517.1 9517.1 0 0 1 20.1 37l8.4 15.3 1.7 3.1 3.2 5.8 1.4 2.6 1.3 2.3c.9 1.9.9 1.9.9 3.9h3v-70h21v104h-29a2200.4 2200.4 0 0 1-18.6-34c-3-5.6-6-11.3-9.2-17l-1.8-3.3a2234.9 2234.9 0 0 0-3.5-6.3l-1.5-2.9-1.4-2.5c-1-2-1-2-1-4h-3v70h-21V983Zm-208 0 27.3-.2h15.3l3.5-.1c13 0 23.7 2.3 33.2 11.5a45 45 0 0 1 5.3 32.6A33 33 0 0 1 591 1044l.6 1.6a26946.7 26946.7 0 0 1 5.8 16.3l2.2 6 3.1 8.8 1 2.8 1 2.5.7 2.3c.6 1.7.6 1.7.6 2.7h-23c-2.3-5.7-4.5-11.3-6.6-17.1l-1.3-3.7-1.3-3.8-1.4-4c-1.2-3-2.3-6.2-3.4-9.4l-27-1v39h-22V983Zm22 20v26a1413 1413 0 0 0 16 .2c11.8.4 11.8.4 21.9-4.8 2.8-3.6 2.5-7.3 2.4-11.7-.1-3-.1-3-2.4-5.8a25 25 0 0 0-15.8-4.1h-8a2264.9 2264.9 0 0 0-14.1.2Zm404-20h77v20h-54v21h42v20h-42v23h56v20h-79V983Zm-299 0h35c7.5 22.2 14.6 44.6 21.7 67a72471 72471 0 0 0 3.3 10.6 873.6 873.6 0 0 0 7.2 21.9c.8 2.5.8 2.5.8 4.5h-23l-3.4-10-1.1-3.2-.9-2.5-.8-2.6c-1-3.2-1.3-6.4-1.8-9.7h-39l-2 10-2.6 9-.6 2.4c-1.7 5.5-1.7 5.5-2.8 6.6a83.4 83.4 0 0 1-5 .1h-9.2l-7.8-.1c1.6-8.2 4.2-16.1 6.7-24l1.4-4.5 3.8-11.6a18820.1 18820.1 0 0 0 6.6-20.6l.7-2.2c4.4-13.7 8.6-27.4 12.8-41.1Zm14 22-10 34h26c-1.6-8.1-1.6-8.1-3.7-16l-1-3-.9-3-1-3.2c-1-4.8-1-4.8-3.4-8.8h-6Zm254-14.6a38 38 0 0 1 13 21.6v2l-11.7.5-3.3.2c-3.2 0-6 0-9-.7-2-2-3-3.6-4-6-1-2.3-1-2.3-3.7-4a29.8 29.8 0 0 0-23.3 1c-7 4.4-10.3 10-12.5 17.9a51.2 51.2 0 0 0 4.3 34.4c4.8 6 9.8 9.3 17.4 10.5 6.6.6 12.5-1 17.7-5 2.6-3.3 2.6-3.3 5.1-9.8h24c-2.5 12-6.5 21.9-17 29a56.2 56.2 0 0 1-42.6 5c-11.4-3.3-21-10-26.8-20.5a74.4 74.4 0 0 1-4.7-52.8c5.4-13 12-22.8 25.1-28.7 18-6 36-6 52 5.4ZM427 983h76v20h-54v23h43v20h-43v41h-22V983Z" fill="#00A5F0"/></svg>