<svg
    id="Calque_1"
    data-name="Calque 1"
    xmlns="http://www.w3.org/2000/svg"
    width="100%"
    height="100%"
    viewBox="0 0 2146 626"
    fill="#a9131e"
  >
    <g className="cls-2">
      <path
        className="cls-3"
        d="M1789.7 185a32.1 32.1 0 01-11.4-2 27.3 27.3 0 01-9.4-5.8l5.7-8.1a27.2 27.2 0 007 4.6 17.8 17.8 0 007.3 1.8 5.9 5.9 0 003.3-.8 2.6 2.6 0 001.2-2.3 2.5 2.5 0 00-1.4-2 31.8 31.8 0 00-4.6-2.2 61.3 61.3 0 01-6.1-2.7 12.7 12.7 0 01-4.2-3.6 9.2 9.2 0 01-1.8-5.7 12.3 12.3 0 012-7 13.5 13.5 0 015.8-4.8 20.4 20.4 0 018.6-1.6 30.4 30.4 0 0110.1 1.7 32.5 32.5 0 019.2 5l-6 8a37.8 37.8 0 00-7-3.8 15.9 15.9 0 00-5.9-1.5 4.8 4.8 0 00-2.8.8 2.4 2.4 0 00-1.2 2 2.6 2.6 0 001.5 2.2 30.8 30.8 0 004.6 2.1 65.8 65.8 0 016.3 2.9 13.3 13.3 0 014.2 3.6 9.2 9.2 0 011.8 5.8 12 12 0 01-2.1 7 13.9 13.9 0 01-6 4.8 21.4 21.4 0 01-8.7 1.6m-34-24.8a9.6 9.6 0 00.2-1.4 6.2 6.2 0 00-1.8-4.6 6.5 6.5 0 00-4.7-1.8 8.9 8.9 0 00-5.8 2.2 13.5 13.5 0 00-4 5.6zm-7.1-17.4a23.4 23.4 0 0110.7 2.3 16.5 16.5 0 017 6.5 18.9 18.9 0 012.4 9.7 30.4 30.4 0 01-.8 6.2h-29.3a7.8 7.8 0 002.7 5.4 9.4 9.4 0 006.2 2 15 15 0 009.4-3.5l6.8 7.4a24 24 0 01-16.8 6.2 26.7 26.7 0 01-11.4-2.2 17.3 17.3 0 01-7.6-6.6 18.3 18.3 0 01-2.7-10 24 24 0 013-12 21.9 21.9 0 018.4-8.3 23.7 23.7 0 0112-3m-36.9 6.7a17.5 17.5 0 0114.3-7l-1.6 12.5a19.4 19.4 0 00-2 0 14.9 14.9 0 00-8.8 2.6 11.8 11.8 0 00-4.8 6.9l-4 20h-13.6l8.2-41.4h13.6zm-44.7 3.6a9.3 9.3 0 00-5.3 1.7 11.5 11.5 0 00-3.8 4.3 12.8 12.8 0 00-1.4 6 9 9 0 002 6.2 7.2 7.2 0 005.7 2.3 9.2 9.2 0 005.2-1.6 11.3 11.3 0 003.8-4.3 13 13 0 001.4-6 9 9 0 00-2-6.3 7.1 7.1 0 00-5.6-2.3m5.3-10.4a15 15 0 0114 8.7 21.2 21.2 0 012 9.4 26.3 26.3 0 01-2.9 12.3 22.3 22.3 0 01-7.8 8.7 20 20 0 01-11 3.2 15.4 15.4 0 01-7.9-1.9 12.4 12.4 0 01-5-5.4l-1.3 6.7h-13.6l11.3-56.6h13.6l-4 20.3a19.8 19.8 0 015.8-4 16.8 16.8 0 016.8-1.4m-52-.1q6.5 0 10.3 3.7a13 13 0 013.8 9.7 18.8 18.8 0 01-.4 4l-4.9 24.4h-13.5l4.4-22.4a10.6 10.6 0 00.2-2.1 5.6 5.6 0 00-1.6-4.2 6 6 0 00-4.4-1.6 8.6 8.6 0 00-6 2.6 12.5 12.5 0 00-3.6 6.7l-4.2 21h-13.6l4.5-22.4a9.5 9.5 0 00.2-2 5.8 5.8 0 00-1.6-4.3 6 6 0 00-4.4-1.6 8.7 8.7 0 00-6.2 2.6 12.5 12.5 0 00-3.5 6.7l-4.2 21H1558l8.2-41.3h13.6l-1.1 5.5a15.8 15.8 0 0112.8-6 15.2 15.2 0 018.8 2.4 11.7 11.7 0 014.7 6.6q6.1-9 15.3-9m-92.7 31.9a9.4 9.4 0 005.2-1.6 11.2 11.2 0 003.9-4.4 13 13 0 001.4-6 9 9 0 00-2.1-6.2 7.2 7.2 0 00-5.6-2.3 9 9 0 00-5.2 1.6 11.6 11.6 0 00-3.9 4.4 12.8 12.8 0 00-1.4 6 9 9 0 002.1 6.2 7.1 7.1 0 005.6 2.3m-5.3 10.4a15.1 15.1 0 01-14-8.7 21.2 21.2 0 01-2-9.4 26 26 0 012.8-12.2 22.4 22.4 0 017.9-8.7 20 20 0 0111-3.2q9.3 0 12.8 7.3l1.4-6.9h13.5l-8.1 41.3H1534l1-4.9a17.4 17.4 0 01-12.7 5.4m-34.8-42.3q6.5 0 10.3 3.7a13 13 0 013.9 9.9 22 22 0 01-.4 3.8l-5 24.4h-13.5l4.5-22.4a9.5 9.5 0 00.2-2 5.7 5.7 0 00-1.6-4.3 6 6 0 00-4.4-1.6 8.7 8.7 0 00-6.2 2.6 12 12 0 00-3.5 6.7l-4.2 21h-13.5l11.1-56.6h13.7l-4.2 20.8a15.6 15.6 0 0112.8-6m-55.1-12.5a28 28 0 0111.5 2.4 25 25 0 019.2 6.8l-9.2 9.8a17.6 17.6 0 00-5.6-5.3 13.5 13.5 0 00-7-2 15.4 15.4 0 00-8 2.3 16.3 16.3 0 00-6 6.2 17.2 17.2 0 00-2.1 8.5 15.2 15.2 0 001.7 7.2 12.7 12.7 0 004.6 5 12.6 12.6 0 006.8 1.9 17.5 17.5 0 007-1.7 25.1 25.1 0 007-4.6l7.2 8.8a37.5 37.5 0 01-11 7.3 30.5 30.5 0 01-12.2 2.7 26.3 26.3 0 01-13.2-3.3 23.1 23.1 0 01-9-9 26.3 26.3 0 01-3.2-13 28.7 28.7 0 014.2-15.3 29.8 29.8 0 0111.4-10.8 32.8 32.8 0 0115.9-4M1330.2 311a13.9 13.9 0 00-9.1 3.2 14.4 14.4 0 00-5 8.4h24.8q0-5.4-2.8-8.5-2.8-3-8-3m-14.4 15v.1a11.7 11.7 0 003.2 8.7 11.5 11.5 0 008.6 3.2 16.8 16.8 0 006-1 15 15 0 004.9-3l2 2.8a17.4 17.4 0 01-5.9 3.6 20.8 20.8 0 01-7.2 1.2 17.3 17.3 0 01-8.3-1.9 13.8 13.8 0 01-5.6-5.4 16.2 16.2 0 01-2-8.2 19 19 0 012.5-9.6 17.9 17.9 0 016.8-6.8 18.8 18.8 0 019.5-2.4q6.7 0 10.7 4t3.9 10.8a28 28 0 01-.3 3.8zm-32.5 12a13.4 13.4 0 007.2-2 14.6 14.6 0 005.2-5.6 15.7 15.7 0 001.9-7.6 11.5 11.5 0 00-3.2-8.5 11.1 11.1 0 00-8.3-3.2 13.6 13.6 0 00-7.3 2 14.9 14.9 0 00-5.2 5.6 15.5 15.5 0 00-2 7.6 11.5 11.5 0 003.3 8.5 11.3 11.3 0 008.4 3.2m-1.4 3.7a15 15 0 01-7.6-1.9 13.3 13.3 0 01-5.2-5.4 16.3 16.3 0 01-1.9-7.8 20 20 0 012.5-9.8 18.6 18.6 0 016.7-7 17.6 17.6 0 019.3-2.6 14.5 14.5 0 018.7 2.5 12 12 0 014.7 7l4.7-23.4h4.4l-9.6 48.2h-4.4l1.4-6.6a17 17 0 01-6 5 16.9 16.9 0 01-7.7 1.8M1919.4 341.8a64.2 64.2 0 01-23-4.2 54.5 54.5 0 01-18.6-11.5L1889 310a54.4 54.4 0 0014.2 9.3 35.5 35.5 0 0014.5 3.5 11.7 11.7 0 006.7-1.6 5.1 5.1 0 002.4-4.5q0-2.4-3-4.2a63.7 63.7 0 00-9.1-4.2 123 123 0 01-12.2-5.5 25.3 25.3 0 01-8.4-7.2 18.3 18.3 0 01-3.5-11.4 24.5 24.5 0 014-14 27 27 0 0111.6-9.5 40.8 40.8 0 0117-3.3 60.8 60.8 0 0120.4 3.5 65 65 0 0118.3 9.9l-12 16.2a75.5 75.5 0 00-14-7.8q-6.9-3-11.7-3a9.6 9.6 0 00-5.7 1.7 4.8 4.8 0 00-2.3 4q0 2.5 3 4.3a61.4 61.4 0 009.2 4.3 131.7 131.7 0 0112.5 5.7 26.7 26.7 0 018.5 7.3 18.3 18.3 0 013.6 11.6 23.9 23.9 0 01-4.3 14 27.8 27.8 0 01-11.9 9.5 42.8 42.8 0 01-17.4 3.3m-62.1-70.8q11.1-13.9 28.5-13.9l-3.2 24.9a38.5 38.5 0 00-4-.2 29.8 29.8 0 00-17.6 5.4 23.6 23.6 0 00-9.7 13.7l-7.9 39.9h-27.2l16.5-82.6h27.2zm-72.4 21.2a19.6 19.6 0 00.2-2.9 12.3 12.3 0 00-3.5-9.2q-3.5-3.5-9.5-3.5a17.8 17.8 0 00-11.6 4.3 27 27 0 00-8 11.3zm-14.3-34.8q12.2 0 21.3 4.6a33 33 0 0114 12.9 37.7 37.7 0 014.8 19.5 60.7 60.7 0 01-1.5 12.3h-58.6q.8 7 5.3 10.9 4.6 3.8 12.4 3.8a30 30 0 0019-6.9l13.5 14.8q-13.7 12.5-33.6 12.5-13.1 0-22.9-4.6a34.7 34.7 0 01-15-13 36.7 36.7 0 01-5.4-20 48 48 0 016-23.9 43.8 43.8 0 0116.7-16.8 47.4 47.4 0 0124-6m-58.8-37.3a11.6 11.6 0 018.7 3.2 11.8 11.8 0 013.2 8.7 16.3 16.3 0 01-5 12.1 17.2 17.2 0 01-12.5 5 11.4 11.4 0 01-8.6-3.3 11.8 11.8 0 01-3.2-8.6 16.3 16.3 0 015.1-12.2 17 17 0 0112.3-5m6.1 38l-16.3 82.7h-27.2l16.5-82.6zm-74.5 54.3a13.6 13.6 0 00-.3 3.2q0 2.6 1.2 3.6a5 5 0 003.6.8q4.5 0 11.4-3.2l2.9 20.1a43.2 43.2 0 01-10.8 3.8 56.1 56.1 0 01-11.8 1.3q-11.1 0-17.7-5.7-6.6-5.8-6.6-15.7a29.6 29.6 0 01.6-6.1l7-34.3h-11.4l3.5-18h11.5l4.6-23h27l-4.6 23h21.4l-3.5 18h-21.6zM1568 223l22.4 8.5-22.1 17.6-18.7-1.6zm7.7 69.1a19.4 19.4 0 00.2-2.9 12.3 12.3 0 00-3.5-9.2q-3.5-3.5-9.5-3.5a17.8 17.8 0 00-11.6 4.3 27 27 0 00-8 11.3zm-14.3-34.8q12.2 0 21.3 4.6a33 33 0 0114 12.9 37.7 37.7 0 014.8 19.5 60.8 60.8 0 01-1.5 12.3h-58.6q.8 7 5.3 10.9 4.6 3.8 12.4 3.8a30 30 0 0019-6.9l13.5 14.8q-13.7 12.5-33.6 12.5-13 0-22.9-4.6a34.7 34.7 0 01-15-13 36.7 36.7 0 01-5.4-20 48 48 0 016-23.9 43.8 43.8 0 0116.7-16.8 47.4 47.4 0 0124-6m-78.5-23.8h30.3l-20.8 107h-24.6l13.5-68.6-39.1 58h-17.9l-16.3-58.2-13.5 68.9H1370l20.7-107h30.1l19 63.3zM1331.3 442.3a2.6 2.6 0 011.8.7 2.4 2.4 0 01.8 1.8 3.2 3.2 0 01-.3 1.3l-.8 1.5-3.9 7.1h-2.6l3.2-7a2.6 2.6 0 01-1.3-2.4 3 3 0 01.9-2.1 3 3 0 012.2-1m-12.4 0l-9.6 48.2h-4.3l9.6-48.1zm-52.2 17.7a13.9 13.9 0 00-9.2 3.2 14.4 14.4 0 00-5 8.3h24.9q0-5.3-2.8-8.4-2.8-3.1-8-3.1m-14.4 15v.2a11.7 11.7 0 003.2 8.6 11.5 11.5 0 008.6 3.3 16.8 16.8 0 005.9-1 15 15 0 005-3l2 2.8a17.4 17.4 0 01-5.9 3.6 20.8 20.8 0 01-7.2 1.2 17.3 17.3 0 01-8.3-2 13.8 13.8 0 01-5.6-5.4 16.2 16.2 0 01-2-8.1 19 19 0 012.5-9.7 17.9 17.9 0 016.7-6.7 18.8 18.8 0 019.6-2.5q6.7 0 10.6 4 4 4 4 10.8a28 28 0 01-.4 3.9zm-32.6 12a13.5 13.5 0 007.2-2 14.7 14.7 0 005.2-5.5 15.7 15.7 0 002-7.7 11.5 11.5 0 00-3.2-8.4 11.1 11.1 0 00-8.3-3.3 13.6 13.6 0 00-7.3 2 14.9 14.9 0 00-5.3 5.6 15.5 15.5 0 00-1.9 7.7 11.5 11.5 0 003.2 8.4 11.3 11.3 0 008.4 3.3m-1.3 3.7a15 15 0 01-7.7-2 13.3 13.3 0 01-5.2-5.3 16.3 16.3 0 01-1.8-7.9 20 20 0 012.5-9.8 18.6 18.6 0 016.6-7 17.6 17.6 0 019.4-2.6 14.5 14.5 0 018.6 2.6 12 12 0 014.7 7l4.8-23.4h4.3l-9.6 48h-4.3l1.3-6.5a17.1 17.1 0 01-6 5 16.9 16.9 0 01-7.6 1.9m-50-10.2a11.6 11.6 0 00-.2 2.4 3.9 3.9 0 00.9 2.8 3.7 3.7 0 002.7.9 13.1 13.1 0 006-2l1 3.5a16.2 16.2 0 01-8 2.5 7.3 7.3 0 01-5.1-1.8 6.7 6.7 0 01-2-5 16.6 16.6 0 01.4-3l4-20h-4.9l.7-3.5h4.9l1.7-8.7h4.4l-1.8 8.7h11l-.7 3.4h-11zm-27.6-20.6a13.9 13.9 0 00-9 3.2 14.4 14.4 0 00-5 8.3h24.7q0-5.3-2.7-8.4-2.9-3.1-8-3.1m-14.4 15v.2a11.7 11.7 0 003.2 8.6 11.5 11.5 0 008.6 3.3 16.8 16.8 0 005.9-1 15 15 0 004.9-3l2 2.8a17.4 17.4 0 01-5.8 3.6 20.8 20.8 0 01-7.2 1.2 17.3 17.3 0 01-8.4-2 13.8 13.8 0 01-5.5-5.4 16.2 16.2 0 01-2-8.1 19 19 0 012.4-9.7 18 18 0 016.8-6.7 18.8 18.8 0 019.5-2.5q6.8 0 10.7 4t4 10.8a28.2 28.2 0 01-.4 3.9zM2075.6 465a13.6 13.6 0 00-.3 3.2q0 2.6 1.1 3.6a5 5 0 003.6.9q4.6 0 11.5-3.3l2.9 20.2a43.2 43.2 0 01-10.8 3.7 56.1 56.1 0 01-11.8 1.3q-11.2 0-17.7-5.7-6.6-5.7-6.6-15.6a29.6 29.6 0 01.6-6.1l6.9-34.4h-11.3l3.5-18h11.4l4.6-22.9h27l-4.5 22.9h21.3l-3.5 18H2082zm-97.3 8.6a18.8 18.8 0 0010.6-3.2 22.5 22.5 0 007.7-8.7 26 26 0 002.8-12.1q0-7.8-4.2-12.4a14.4 14.4 0 00-11.2-4.7 18.2 18.2 0 00-10.5 3.3 23.3 23.3 0 00-7.6 8.8 25.7 25.7 0 00-2.8 11.9q0 7.8 4.2 12.4a14.2 14.2 0 0011 4.7m-10.5 20.9a30.2 30.2 0 01-28-17.4 42.5 42.5 0 01-4-19 52 52 0 015.7-24.4 44.8 44.8 0 0115.7-17.4 40 40 0 0122-6.4q18.7 0 25.7 14.7l2.8-13.8h27l-16.4 82.6h-27.1l2-9.8q-10.9 10.9-25.4 10.9m-69.6-84.7q13 0 20.6 7.4t7.6 19.4a37.5 37.5 0 01-.7 8l-9.8 48.8h-27.2l9-44.9a19 19 0 00.5-4q0-5.4-3.2-8.6t-8.9-3a17.3 17.3 0 00-12.2 5.1 25 25 0 00-7.1 13.4l-8.4 42h-27.2l16.3-82.6h27.2l-2.1 11a31.7 31.7 0 0125.6-12m-128 63.8a18.8 18.8 0 0010.6-3.2 22.5 22.5 0 007.7-8.7 26 26 0 002.8-12.1q0-7.8-4.2-12.4a14.4 14.4 0 00-11.2-4.7 18.2 18.2 0 00-10.4 3.3 23.3 23.3 0 00-7.7 8.8 25.7 25.7 0 00-2.8 11.9q0 7.8 4.2 12.4a14.2 14.2 0 0011 4.7m-10.5 20.9a30.2 30.2 0 01-28-17.4 42.4 42.4 0 01-4-19 52 52 0 015.7-24.4 44.8 44.8 0 0115.7-17.4 40 40 0 0122.1-6.4q18.6 0 25.6 14.7l2.8-13.8h27l-16.3 82.6H1783l2-9.8q-10.9 10.9-25.4 10.9m-76.7 0a64.3 64.3 0 01-23-4.2 54.5 54.5 0 01-18.7-11.5l11.3-16.2a54.4 54.4 0 0014.2 9.3 35.5 35.5 0 0014.5 3.5 11.7 11.7 0 006.6-1.6 5.1 5.1 0 002.4-4.5q0-2.4-3-4.2a63.7 63.7 0 00-9-4.2 123.2 123.2 0 01-12.3-5.5 25.3 25.3 0 01-8.4-7.2 18.3 18.3 0 01-3.5-11.4 24.5 24.5 0 014.1-14 27 27 0 0111.6-9.5 40.8 40.8 0 0117-3.4 60.8 60.8 0 0120.4 3.6 65 65 0 0118.2 9.8l-12 16.2a75.5 75.5 0 00-13.9-7.8q-7-2.9-11.8-2.9a9.6 9.6 0 00-5.7 1.6 4.8 4.8 0 00-2.2 4q0 2.5 3 4.4a61.3 61.3 0 009.2 4.2 132.3 132.3 0 0112.4 5.8 26.7 26.7 0 018.6 7.3 18.3 18.3 0 013.5 11.5 23.9 23.9 0 01-4.2 14 27.8 27.8 0 01-12 9.5 42.8 42.8 0 01-17.3 3.4m-47.2-121.7a11.6 11.6 0 018.7 3.3 11.8 11.8 0 013.2 8.6 16.3 16.3 0 01-5.1 12.2 17.2 17.2 0 01-12.5 5 11.4 11.4 0 01-8.5-3.4 11.8 11.8 0 01-3.2-8.6 16.3 16.3 0 015.1-12.1 17 17 0 0112.3-5m6.1 38l-16.3 82.6h-27.2l16.5-82.6zm-74.5 54.2a13.6 13.6 0 00-.3 3.2q0 2.6 1.1 3.6a5 5 0 003.6.9q4.6 0 11.5-3.3l2.9 20.2a43.2 43.2 0 01-10.8 3.7 56.1 56.1 0 01-11.8 1.3q-11.2 0-17.7-5.7t-6.6-15.6a29.6 29.6 0 01.6-6.1l6.9-34.4h-11.3l3.5-18h11.5l4.5-22.9h27l-4.5 22.9h21.3l-3.5 18h-21.5zm-62-41.3q11.2-14 28.6-14l-3.2 25a38.7 38.7 0 00-4-.2 29.8 29.8 0 00-17.6 5.3 23.6 23.6 0 00-9.7 13.8l-8 39.8h-27.1l16.4-82.6h27.2zM1386.2 453h30l-8.5-38.8zm38.6 40.3l-4.1-19h-46.4l-10.5 19h-28.6l63.7-107h28.7l27.1 107z"
      />
    </g>
    <g className="cls-2">
      <path
        className="cls-3"
        d="M924.1 376H778.4l-32.9 96.7s115.5 14.5 192.1-58l-13.5-38.6M651.3 321.1A284.2 284.2 0 00673 430.4L800 71.6a282.7 282.7 0 00-148.7 249.5M1004.4 95.4a333.6 333.6 0 00-105.7-31h-1l92.7 271.8c27.4-49.2 53.6-154.5 14-240.8M514.5 278.2l-58.9 155.9a459.2 459.2 0 0076.1-28.3l-17.2-127.6M346.9 443a250 250 0 0083.3-3.5c-7-19.6-55.8-153.5-58.6-161.2-4 25.6-5.4 36.4-24.7 164.7M328.8 194.9c-13.2 9-35 28.3-51.8 65.3-30.6 68-2 126.2 15 152.1L328.8 195M383.1 172.8l64.6 159.8L510 171.3c-52.2-8-98.3-6.8-126.9 1.5M613.5 248.7C605 216 589 194 557.1 184l28.4 188.4c39-37.2 36.5-91 28-123.7"
      />
      <path
        className="cls-3"
        d="M649.2 547.8c-333.7 0-525.5-88-525.5-224.2 0-135.8 180.8-221.6 481-231.4q12.7-.4 35.4-.8A11.7 11.7 0 00651 76a22.1 22.1 0 00-21.3-15l-28.5.6C245 72.7 31.6 181.7 31.6 322.8c0 178 289.4 256.2 590 256.2q198 0 420.4-41a14.2 14.2 0 0010.9-18.6 18.8 18.8 0 00-21.4-12.4q-215.1 40.8-382.3 40.8"
      />
      <path className="cls-3" d="M800 307.2h101.4l-50.5-155.8-51 155.8z" />
    </g>
  </svg>