<svg xmlns="http://www.w3.org/2000/svg" viewBox="0 0 1439 1411" xml:space="preserve"><path fill="#FFF" d="M816 1412H1V1h1439v1411H816M554.829 720.091c.007-13.989.034-27.977.012-41.966-.011-6.92-2.46-9.583-9.156-9.624a3487.533 3487.533 0 0 0-42.465 0c-6.543.04-9.046 2.668-9.062 9.148-.026 10.824-.014 21.65-.004 32.474.007 7.403 2.428 9.866 9.819 9.879 14.988.026 29.976-.022 44.964.054 1.465.008 2.927.665 3.753 1.29-18.06 16.245-36.076 32.536-54.218 48.688-3.12 2.778-4.396 5.805-4.38 9.989.125 33.979.065 67.959.075 101.938.002 7.14 2.385 9.524 9.584 9.54 13.492.028 26.984.017 40.476.007 8.518-.007 10.61-2.104 10.61-10.615.002-51.635.003-103.27-.008-154.906 0-1.66-.133-3.318 0-5.896m40.93-491.904c-3.959 1.266-7.953 2.43-11.871 3.812-123.683 43.634-211.95 125.542-264.558 245.617-16.457 37.564-26.175 77.095-31.147 117.788-.717 5.868.954 8.312 6.218 8.396 10.33.166 20.664.09 30.996.027 4.118-.026 6.238-2 6.71-6.363a269.168 269.168 0 0 1 3.257-21.71c17.228-89.813 59.911-165.304 128.792-225.417 71.863-62.716 156.092-94.584 251.325-97.073 29.69-.776 59.132 2.368 88.252 8.545 139.122 29.512 252.46 132.942 294.353 268.79 6.681 21.665 11.596 43.712 14.255 66.239.485 4.104 1.987 7.02 6.7 7.015 10.332-.012 20.666.114 30.996-.047 5.34-.083 6.995-2.201 6.202-7.747-1.578-11.026-2.937-22.107-5.112-33.02-20.144-101.04-69.613-185.16-148.447-251.18C919.708 242.37 823.47 208.537 715.03 209.8c-40.393.47-79.823 6.734-119.27 18.387m-4.588 281.48c-1.178 1.178-2.362 2.35-3.534 3.534-23.046 23.295-39.07 50.688-47.925 82.247-1.678 5.98-.096 8.03 6.15 8.053 10.331.037 20.67-.202 30.992.106 4.525.135 6.552-1.76 7.964-5.752 1.932-5.463 4.113-10.881 6.701-16.062 28.505-57.033 89.534-88.977 152.665-79.577 31.938 4.755 59.32 19.054 82.037 41.95 15.318 15.439 26.663 33.516 33.803 54.137.973 2.81 2.136 5.234 5.733 5.22 11.498-.046 22.998.068 34.495-.065 4.261-.05 5.851-2.27 4.922-6.631-.688-3.233-1.667-6.422-2.743-9.553-17.02-49.53-48.858-86.284-95.353-110.335-9.36-4.841-9.963-7.175-3.577-15.287 16.873-21.435 24.582-45.717 22.677-72.999-4.454-63.77-65.048-108.65-126.982-94.032-76.253 18-106.424 107.251-56.934 168.422 4.664 5.765 3.785 9.712-2.846 12.942-17.634 8.587-33.527 19.68-48.245 33.682m29.332 158.824c-4.167 0-8.333-.012-12.499.005-8.287.032-10.504 2.16-10.505 10.272-.014 67.492-.013 134.984-.004 202.476.002 8.08 2.248 10.258 10.498 10.26 35.996.008 71.996.322 107.985-.198 10.191-.148 20.628-1.725 30.465-4.423 23.723-6.507 38.683-22.112 43.308-46.546 4.497-23.755-2.241-43.356-22.71-57.474-5.24-3.615-5.091-8.624-.234-12.893 2.491-2.19 5.077-4.365 7.135-6.935 20.301-25.349 12.435-65.846-16.06-83.06-14.584-8.811-30.745-11.354-47.391-11.44-29.663-.155-59.326-.044-89.988-.044m436.665 205.988v-57.643c2.378 0 4.19.023 6.003-.003 18.313-.268 36.66.067 54.928-.987 18.503-1.068 35.68-6.838 49.379-20.022 18.675-17.973 22.513-40.822 19.933-65.29-2.367-22.447-12.97-39.96-33.032-51.05-11.84-6.546-24.763-10.15-38.182-10.355-36.148-.553-72.306-.504-108.46-.6-6.255-.016-8.729 2.67-8.73 8.912-.015 68.33-.014 136.658-.001 204.987.001 6.55 2.471 9.035 9.05 9.065 11 .051 21.999.015 32.998.016 16.112 0 16.112 0 16.114-17.03m-606.27-135.11c2.335-.862 4.696-1.66 7-2.6 5.957-2.425 7.972-7.41 5.219-13.395-6.568-14.28-15.804-26.547-28.13-36.37-18.503-14.745-39.895-21.508-63.284-22.344-38.699-1.385-71.024 11.645-93.66 43.925-22.75 32.443-26.233 68.693-17.335 106.38 7.502 31.773 25.214 56.111 55.304 70.355 19.96 9.45 41.177 11.712 62.847 9.605 38.738-3.766 67.576-22.334 84.48-58.042 3.635-7.68 1.791-11.964-6.304-15.034-9.62-3.648-19.253-7.259-28.891-10.857-8.999-3.359-11.58-2.347-15.94 6-9.51 18.204-24.566 27.573-45.095 27.434-20.584-.14-35.562-9.89-44.573-28.247-8.528-17.37-9.67-35.773-5.765-54.526 3.117-14.978 10.007-27.882 22.593-37.04 24.366-17.727 58.178-9.054 72.65 18.446 3.85 7.314 7.154 8.54 14.96 5.558 7.747-2.96 15.496-5.919 23.925-9.248M857 875.467v5.499c.004 8.606 1.926 10.534 10.554 10.54 12.164.007 24.33.004 36.494.001 9.243-.002 11.119-1.86 11.12-11.04V719.835c16.038 0 31.513.02 46.987-.01 6.512-.012 8.979-2.5 9.002-9.081.04-10.998.039-21.997 0-32.995-.023-6.644-2.419-9.229-8.898-9.234-50.659-.041-101.318-.044-151.977.002-6.594.006-9.082 2.615-9.108 9.131-.042 10.499-.012 20.997-.01 31.496.002 8.563 2.083 10.69 10.476 10.691 14.961.003 29.923 0 45.36 0v155.63M570.775 375.244c2.347-1.26 4.595-2.773 7.06-3.723 4.687-1.805 6.594-5.23 7.907-9.952 2.22-7.98 4.948-15.884 8.243-23.482 2.832-6.531 6.86-12.535 10.109-18.9.714-1.4.37-3.34.512-5.032-1.543-.115-3.1-.405-4.625-.286-1.122.088-2.212.685-3.3 1.1-44.091 16.862-83.493 41.324-117.643 73.886-59.4 56.639-95.259 125.697-107.757 206.845-.883 5.733 1.033 8.05 6.978 8.13 7.831.104 15.666-.022 23.499.036 13.196.099 12.184-.037 14.53-11.992 18.687-95.22 70.227-167.176 154.487-216.63m345.083-25.593c-22.049-14.495-45.48-26.275-70.212-35.43-1.682-.623-3.895.19-5.861.335.355 1.784.237 3.864 1.14 5.305 8.458 13.506 14.895 27.858 18.4 43.428.86 3.818 3.049 5.9 6.368 7.657 59.484 31.508 104.528 77.292 134.904 137.349 14.204 28.081 23.742 57.753 28.515 88.9.644 4.2 2.5 6.712 7.092 6.683 10.326-.067 20.655.089 30.98-.078 5.056-.082 6.878-2.353 6.005-7.402-1.813-10.476-3.36-21.034-5.895-31.343-22.423-91.171-73.058-162.628-151.436-215.404m-64.585 104.149c-.559 3.743 1.751 5.695 4.454 7.644 19.87 14.328 37.038 31.402 51.401 51.25 18.466 25.518 31.39 53.57 38.016 84.416 1.056 4.916 3.525 6.963 8.621 6.823 9.65-.265 19.313-.012 28.969-.101 6.19-.057 8.007-2.463 6.835-8.512-5.127-26.456-13.879-51.64-26.52-75.447-21.99-41.41-52.616-74.986-91.7-100.85-6.175-4.087-8.718-2.687-10.727 4.575-2.741 9.903-6.045 19.651-9.35 30.202m-300.191 41.795c12.569-11.382 25.034-22.881 37.761-34.082 4.685-4.123 5.17-5.473 3.104-11.555-2.882-8.482-5.663-17.032-7.825-25.717-2.014-8.095-4.612-9.457-11.596-4.792-36.944 24.676-66.41 56.304-88.123 95.081-13.923 24.864-23.492 51.356-29.13 79.275-1.63 8.066-.16 9.811 8.137 9.819 9.497.009 18.995-.073 28.491.037 4.112.048 6.327-1.42 7.273-5.724 8.421-38.323 25.692-72.216 51.908-102.342m67.718 669.169c6.32 11.686 12.604 23.392 19.011 35.03.7 1.269 2.089 3.037 3.196 3.065 9.592.243 19.192.14 28.612.14V1091.42h-21.08v75.012c-3.632 1.586-4.58-.693-5.802-2.96a14386.01 14386.01 0 0 0-37.29-68.772c-.768-1.405-2.317-3.344-3.552-3.38-9.434-.284-18.881-.156-28.386-.156v111.506h21.397v-74.693l1.188-.995c1.428 1.289 3.321 2.318 4.209 3.908 6.148 11.018 12.088 22.153 18.497 33.873m135.687-8.761h12.083v-20.538h-45.647v-23.483h58.521v-20.526H697.35v111.352h83.923v-20.882h-60.489v-25.923h33.702m147.342-11.502v58.168h23.5v-39.665c10.518 0 20.807.319 31.07-.079 13.79-.534 25.94-4.769 32.898-17.901 12.61-23.8-1.105-50.39-27.791-52.998-12.546-1.226-25.269-.678-37.913-.848-7.114-.096-14.231-.018-21.764-.018v53.341m-425.196-9.03c1.466-6.984 4.23-13.263 9.547-18.263 12.04-11.323 30.109-8.929 39.064 5.18.451.71 1.43 1.532 2.174 1.543 7.551.114 15.105.07 22.922.07-.296-1.677-.39-2.675-.652-3.626-4.937-17.86-18.306-28.705-39.723-30.807-25.513-2.505-48.353 9.593-55.972 36.842-2.763 9.883-3.332 19.918-2.225 30.164 4.852 44.917 43.86 54.931 72.109 45.362 15.357-5.201 26.944-20.248 27.114-34.777h-23.799c-2.276 8.309-6.963 13.826-15.204 16.02-13.93 3.705-27.392-2.936-32.978-16.442-4.079-9.86-4.157-20.08-2.377-31.265M832.5 1091.16h-40.03v21.009h34.463v90.518h23.508v-90.802h34.25v-20.725H832.5m83.335-117.66v54.388c14.919 0 29.078.592 43.156-.222 8.42-.487 15.186-5.274 17.563-14.067 2.304-8.528 1.023-16.244-6.848-21.68-2.194-1.515-2.105-2.623-.365-4.727 2.26-2.732 4.727-5.862 5.464-9.184 2.853-12.849-5.822-23.387-19.86-23.937-12.478-.49-24.99-.14-37.486-.128-.437 0-.873.352-1.625.675V973.5M333.71 997.727c.622-.732 1.14-1.6 1.883-2.175 8.487-6.569 9.867-15.49 7.798-25.15-2.116-9.876-9.284-15.379-18.748-15.985-13.704-.876-27.507-.224-41.531-.224v74.434c3.827 0 7.467-.204 11.073.057 3.545.257 4.607-1.093 4.51-4.554-.215-7.782-.067-15.574-.067-23.977 5.136 0 9.768.263 14.356-.08 3.934-.293 5.97.85 7.141 4.86 2 6.845 4.617 13.516 7.127 20.202.473 1.26 1.595 3.15 2.526 3.216 4.68.33 9.398.152 14.571.152-3.7-10.597-7.09-20.302-10.64-30.776m861.034-16.674c-2.17-2.023-5.262-3.705-6.184-6.19-.6-1.62 1.387-5.149 3.2-6.54 6.34-4.87 16.98-2.484 21.34 4.264.495.766 1.316 1.847 2.017 1.87 4.858.164 9.725.087 14.771.087-2.48-11.625-7.972-18.467-18.44-20.444-7.13-1.347-14.951-1.373-22.058.045-11.095 2.214-17.659 11.466-17.186 21.5.503 10.664 6.504 16.95 18.588 19.44 6.34 1.307 12.848 2.096 18.95 4.115 2.416.8 5.071 4.102 5.527 6.64.413 2.302-1.334 5.958-3.31 7.551-7.322 5.905-21.113 2.64-25.672-5.485-.602-1.074-1.978-2.333-3.068-2.404-4.275-.278-8.58-.114-12.83-.114-.647 8.816 5.504 17.692 14.767 21.385 9.084 3.622 18.451 4.103 27.9 1.559 11.886-3.2 18.851-11.832 18.574-22.814-.284-11.22-6.347-18.026-18.98-20.955-5.658-1.312-11.405-2.242-17.906-3.51m-343.585 12.403v-39.33h-15.01c0 18.54-.716 36.832.295 55.029.524 9.45 7.533 15.725 16.661 18.664 8.265 2.661 16.706 2.804 25.11.52 11.785-3.203 19.109-11.366 19.507-23.573.542-16.636.14-33.303.113-49.957 0-.252-.399-.503-.458-.573h-15.24c0 2.196.003 4.002 0 5.809-.016 13.659.086 27.32-.096 40.977-.099 7.399-3.827 12.257-9.968 13.875-12.268 3.23-20.872-3.337-20.912-15.963-.005-1.5-.001-2.999-.002-5.478m-267.79 26.621c9.02 9.726 20.481 10.817 32.642 9.044 15.136-2.206 23.34-11.277 23.885-26.539.286-7.981.1-15.98.11-23.97.011-8.109.003-16.217.003-24.32h-15.904c0 15.585.133 30.722-.047 45.855-.12 10.17-5.642 15.41-15.572 15.38-9.768-.03-15.29-5.636-15.318-15.667-.037-13.486-.008-26.971-.007-40.457v-5.256h-15.435c0 17.563-.348 34.833.237 52.071.153 4.483 3.222 8.868 5.406 13.86m176.63-38.578v46.748h16.014v-26.388c6.55 0 12.527.141 18.495-.037 7.09-.21 14.036-1.351 19.457-6.44 8.01-7.521 8.731-17 5.732-26.742-3.032-9.85-11.08-14.031-20.668-14.516-11.798-.596-23.645-.238-35.471-.257-1.096-.002-2.193.251-3.56.419V981.5m-401.059 26.906-6.36 20.217c4.78 0 8.626.29 12.388-.145 1.472-.17 3.464-1.691 3.996-3.07 1.73-4.48 2.95-9.162 4.253-13.799.65-2.31 1.583-3.622 4.407-3.532 7.151.229 14.322-.09 21.467.219 1.412.06 3.455 1.68 3.985 3.052 1.731 4.48 2.805 9.209 4.34 13.771.423 1.257 1.515 3.176 2.407 3.238 4.684.326 9.403.152 14.666.152-7.846-24.658-15.352-48.39-23.066-72.056-.381-1.171-2.535-2.42-3.922-2.491-5.479-.285-10.994.108-16.47-.193-3.572-.197-5.153.924-6.233 4.462-5.042 16.521-10.43 32.937-15.858 50.175m187.589 7.572c.94 3.185 1.732 6.427 2.9 9.528.446 1.187 1.697 2.856 2.676 2.923 4.537.312 9.108.138 14.266.138-7.052-22.194-13.826-43.528-20.614-64.857-.806-2.534-1.436-5.176-2.655-7.503-.58-1.109-2.328-2.205-3.59-2.256-5.815-.237-11.654.077-17.468-.177-3.094-.134-4.274 1.057-5.161 3.893-6.144 19.653-12.484 39.244-18.732 58.864-1.19 3.74-2.252 7.522-3.61 12.077 4.93 0 9.209.221 13.435-.15 1.103-.097 2.518-1.87 2.974-3.16 1.6-4.537 2.936-9.175 4.185-13.825.658-2.451 1.82-3.476 4.503-3.38 5.818.21 11.698.534 17.46-.072 5.871-.618 8.683 1.51 9.43 7.957m161.254-43.674 9.363-18.46c-4.585 0-8.255.205-11.89-.063-3.122-.23-4.784.949-6.139 3.732-3.345 6.873-6.973 13.612-10.607 20.34-.643 1.192-2.11 3.056-2.764 2.89-1.305-.328-2.701-1.642-3.372-2.912-3.65-6.908-7.015-13.966-10.667-20.872-.67-1.27-2.15-2.868-3.359-2.96-4.567-.35-9.177-.14-14.531-.14 5.503 10.917 10.566 21.163 15.841 31.297 1.453 2.792 1.53 5.034-.044 7.863-4.608 8.278-8.91 16.729-13.298 25.13-1.726 3.303-3.362 6.653-5.291 10.482 4.976 0 9.165.332 13.259-.147 1.882-.22 4.341-1.6 5.23-3.187 4.468-7.973 8.44-16.222 12.755-24.284.68-1.271 2.106-2.575 3.421-2.893.662-.16 2.132 1.712 2.757 2.915 4.14 7.965 8.1 16.024 12.254 23.982.704 1.35 1.991 3.284 3.124 3.366 5.039.368 10.12.16 16.093.16-4.579-8.765-7.963-17-12.862-24.205-7.134-10.491-8.415-20.294-.085-30.494.204-.25.29-.597.812-1.54m428.85-3.825c1.533 1.704 3.02 3.453 4.617 5.094.837.858 1.84 2.126 2.82 2.176 4.587.23 9.191.102 15.335.102-2.177-4.574-3.385-8.377-5.57-11.495-12.849-18.344-45.842-15.31-56.584 5.178-4.872 9.291-5.782 19.234-4.34 29.578 4.385 31.432 35.263 35.78 52.281 26.538 8.087-4.392 12.508-11.466 14.067-21.258-5.151 0-9.76-.134-14.35.107-.967.05-2.426 1.31-2.707 2.286-3.255 11.338-23.026 11.512-29.233 1.011-4.892-8.276-5.372-17.044-3.126-26 3.204-12.783 13.571-18.065 26.79-13.317m-645.102-4.414 2.816-9.914h-16c-.483 1.552-1.01 3.098-1.449 4.669-4.562 16.324-9.067 32.664-13.715 48.964-.596 2.091.046 5.904-3.713 5.11-1.458-.307-2.91-3.028-3.452-4.912-4.776-16.611-9.307-33.293-14.04-49.916-.434-1.525-1.667-3.895-2.702-3.99-4.698-.432-9.457-.19-14.365-.19.124 1.37.075 2.056.257 2.673 6.769 22.957 13.597 45.896 20.293 68.874.765 2.622 2.163 3.29 4.666 3.239 6.16-.13 12.329-.162 18.487.013 2.783.079 4.13-.81 4.93-3.582 5.809-20.12 11.776-40.193 17.987-61.038m-234.987 3.79h14.935v-13.743h-61.26v13.822h22.603v60.692c4.128 0 7.761-.202 11.36.057 3.531.255 4.55-1.077 4.515-4.54-.157-15.803-.07-31.607-.07-47.41v-8.878h7.917m767.96 60.774c6.492 0 12.991.145 19.472-.124 1.251-.052 3.362-1.622 3.482-2.673.427-3.741.167-7.561.167-11.861h-39.675v-59.68h-15.532v74.338h32.086m53.177-66.996V954.1h-15.988v74.213h15.987v-66.68z"/><path fill="#F9B81F" d="M596.15 228.097c39.057-11.563 78.487-17.827 118.88-18.297 108.44-1.263 204.678 32.571 287.65 102.059 78.834 66.02 128.303 150.14 148.447 251.18 2.175 10.913 3.534 21.994 5.112 33.02.793 5.546-.862 7.664-6.202 7.747-10.33.161-20.664.035-30.996.047-4.713.006-6.215-2.911-6.7-7.015-2.66-22.527-7.574-44.574-14.255-66.238-41.893-135.85-155.23-239.279-294.353-268.79-29.12-6.178-58.562-9.322-88.252-8.546-95.233 2.489-179.462 34.357-251.325 97.073-68.88 60.113-111.564 135.604-128.792 225.417a269.168 269.168 0 0 0-3.256 21.71c-.473 4.363-2.593 6.337-6.711 6.363-10.332.064-20.667.14-30.996-.027-5.264-.084-6.935-2.528-6.218-8.396 4.972-40.693 14.69-80.224 31.147-117.788C371.938 357.541 460.205 275.633 583.888 232c3.918-1.382 7.912-2.546 12.262-3.902z"/><path fill="#010101" d="M591.422 509.418c14.468-13.752 30.361-24.846 47.995-33.433 6.631-3.23 7.51-7.177 2.846-12.942-49.49-61.17-19.32-150.423 56.934-168.422 61.934-14.618 122.528 30.262 126.982 94.032 1.905 27.282-5.804 51.564-22.677 72.999-6.386 8.112-5.783 10.446 3.577 15.287 46.495 24.05 78.334 60.805 95.353 110.335 1.076 3.131 2.055 6.32 2.743 9.553.93 4.36-.66 6.581-4.922 6.63-11.497.134-22.997.02-34.495.066-3.597.014-4.76-2.41-5.733-5.22-7.14-20.62-18.485-38.698-33.803-54.137-22.717-22.896-50.1-37.195-82.037-41.95-63.13-9.4-124.16 22.544-152.665 79.577-2.588 5.18-4.77 10.599-6.701 16.062-1.412 3.992-3.44 5.887-7.964 5.752-10.323-.308-20.66-.069-30.992-.106-6.246-.023-7.828-2.074-6.15-8.053 8.855-31.56 24.88-58.952 47.925-82.247 1.172-1.184 2.356-2.356 3.784-3.783M767.953 356.57c-15.787-17.21-35.246-23.904-58.14-19.506-32.76 6.294-54.056 39.781-46.656 72.788 7.253 32.348 40.817 53.319 72.71 45.429 44.652-11.046 61.602-62.15 32.086-98.711zM621.003 668.491c30.163 0 59.826-.11 89.489.044 16.646.086 32.807 2.629 47.392 11.44 28.494 17.214 36.36 57.711 16.06 83.06-2.059 2.57-4.645 4.746-7.136 6.935-4.857 4.27-5.007 9.278.234 12.893 20.469 14.118 27.207 33.719 22.71 57.474-4.625 24.434-19.585 40.04-43.308 46.546-9.837 2.698-20.274 4.275-30.465 4.423-35.989.52-71.989.206-107.985.198-8.25-.002-10.496-2.18-10.498-10.26-.01-67.492-.01-134.984.004-202.476.001-8.112 2.218-10.24 10.505-10.272 4.166-.017 8.332-.004 12.998-.005m44.515 171.673c12.989 0 25.98.175 38.964-.095 4.59-.096 9.323-.739 13.698-2.085 8.983-2.765 13.192-9.002 12.93-17.832-.27-9.15-5.365-15.758-14.407-17.94-3.837-.926-7.889-1.277-11.849-1.317-14.819-.148-29.64-.065-44.46-.048-1.437.001-2.874.147-4.2.22v39.097h9.324m59.556-105.334c-1.756-9.46-8.341-14.57-19.977-14.778-15.291-.274-30.589-.172-45.883-.203-1.09-.002-2.181.234-2.988.327v32.894c18.15 0 35.927.533 53.65-.201 10.473-.434 15.072-6.61 15.198-18.04zM1057.169 874.973c-.002 16.536-.002 16.536-16.114 16.536-11 0-21.999.035-32.998-.016-6.579-.03-9.049-2.516-9.05-9.065-.013-68.329-.014-136.658.001-204.987.001-6.242 2.475-8.928 8.73-8.911 36.154.095 72.312.046 108.46.6 13.42.205 26.342 3.808 38.182 10.353 20.062 11.09 30.665 28.604 33.032 51.051 2.58 24.468-1.258 47.317-19.933 65.29-13.698 13.184-30.876 18.954-49.38 20.022-18.267 1.054-36.614.72-54.927.987-1.812.026-3.625.003-6.003.003v58.137m48.132-109.967c1.967-.32 3.957-.54 5.898-.976 11.987-2.685 17.399-9.568 17.305-21.924-.09-11.891-5.685-19.725-17.74-20.802-17.63-1.575-35.415-1.433-53.375-2.03v45.773c15.82 0 31.417 0 47.912-.041zM450.56 739.554c-8.09 3.144-15.838 6.103-23.585 9.063-7.806 2.983-11.11 1.756-14.96-5.558-14.472-27.5-48.284-36.173-72.65-18.445-12.586 9.157-19.476 22.061-22.593 37.039-3.904 18.753-2.763 37.156 5.765 54.526 9.011 18.356 23.99 28.108 44.573 28.247 20.529.139 35.584-9.23 45.095-27.434 4.36-8.347 6.941-9.359 15.94-6a5894.078 5894.078 0 0 1 28.89 10.857c8.096 3.07 9.94 7.354 6.304 15.034-16.903 35.708-45.74 54.276-84.48 58.042-21.669 2.107-42.886-.156-62.846-9.605-30.09-14.244-47.802-38.582-55.304-70.356-8.898-37.686-5.415-73.936 17.336-106.379 22.635-32.28 54.96-45.31 93.66-43.925 23.388.836 44.78 7.6 63.283 22.344 12.326 9.823 21.562 22.09 28.13 36.37 2.753 5.984.738 10.97-5.22 13.396-2.303.938-4.664 1.737-7.339 2.784zM857 874.972V719.837c-15.437 0-30.399.002-45.36-.001-8.393-.002-10.474-2.128-10.476-10.691-.002-10.499-.032-20.997.01-31.496.026-6.516 2.514-9.125 9.108-9.13 50.66-.047 101.318-.044 151.977-.003 6.48.005 8.875 2.59 8.899 9.234.038 10.998.039 21.997 0 32.995-.024 6.581-2.491 9.069-9.003 9.081-15.474.03-30.949.01-46.987.01v160.63c-.001 9.18-1.877 11.039-11.12 11.041-12.165.003-24.33.006-36.494-.002-8.628-.005-10.55-1.933-10.554-10.54v-5.993z"/><path fill="#F9B81F" d="M570.467 375.443c-83.952 49.254-135.492 121.21-154.179 216.43-2.346 11.955-1.334 12.09-14.53 11.992-7.833-.058-15.668.068-23.5-.037-5.944-.079-7.86-2.396-6.977-8.13 12.498-81.147 48.357-150.205 107.757-206.844 34.15-32.562 73.552-57.024 117.644-73.885 1.087-.416 2.177-1.013 3.299-1.1 1.525-.12 3.082.17 4.625.285-.143 1.692.202 3.632-.512 5.032-3.249 6.365-7.277 12.369-10.11 18.9-3.294 7.598-6.023 15.501-8.242 23.482-1.313 4.722-3.22 8.147-7.907 9.952-2.465.95-4.713 2.464-7.368 3.923zM916.164 349.843c78.072 52.583 128.707 124.04 151.13 215.211 2.535 10.309 4.082 20.867 5.895 31.343.873 5.049-.949 7.32-6.005 7.402-10.325.167-20.654.011-30.98.078-4.593.03-6.448-2.483-7.092-6.684-4.773-31.146-14.311-60.818-28.515-88.899-30.376-60.057-75.42-105.841-134.904-137.349-3.32-1.758-5.508-3.84-6.368-7.657-3.505-15.57-9.942-29.922-18.4-43.428-.903-1.441-.785-3.521-1.14-5.305 1.966-.145 4.179-.958 5.86-.336 24.734 9.156 48.164 20.936 70.519 35.624zM851.394 453.43c3.183-10.182 6.487-19.93 9.228-29.833 2.01-7.262 4.553-8.662 10.727-4.576 39.084 25.865 69.71 59.442 91.7 100.85 12.641 23.807 21.393 48.992 26.52 75.448 1.172 6.05-.645 8.455-6.835 8.512-9.656.089-19.319-.164-28.969.101-5.096.14-7.565-1.907-8.621-6.823-6.625-30.846-19.55-58.898-38.016-84.416-14.363-19.848-31.53-36.922-51.401-51.25-2.703-1.95-5.013-3.901-4.333-8.012zM550.859 495.87c-25.994 29.85-43.265 63.743-51.686 102.066-.946 4.305-3.161 5.772-7.273 5.724-9.496-.11-18.994-.028-28.491-.037-8.297-.008-9.766-1.753-8.138-9.819 5.64-27.919 15.208-54.411 29.13-79.275 21.715-38.777 51.18-70.405 88.124-95.081 6.984-4.665 9.582-3.303 11.596 4.792 2.162 8.685 4.943 17.235 7.825 25.717 2.067 6.082 1.58 7.432-3.104 11.555-12.727 11.201-25.192 22.7-37.983 34.358z"/><path fill="#010101" d="M554.626 721.01c.07 1.659.203 3.318.203 4.977.011 51.635.01 103.27.008 154.906 0 8.511-2.092 10.608-10.61 10.615-13.492.01-26.984.021-40.476-.008-7.199-.015-9.582-2.398-9.584-9.539-.01-33.98.05-67.96-.075-101.938-.016-4.184 1.26-7.21 4.38-9.99 18.142-16.151 36.159-32.442 54.753-48.829.824-.153 1.113-.17 1.4-.194z"/><path fill="#030303" d="M618.598 1164.452c-6.208-11.409-12.148-22.544-18.296-33.562-.888-1.59-2.781-2.619-4.209-3.908l-1.188.995v74.693h-21.397v-111.506c9.505 0 18.952-.128 28.386.155 1.235.037 2.784 1.976 3.551 3.381a14386.01 14386.01 0 0 1 37.291 68.772c1.223 2.267 2.17 4.546 5.801 2.96v-75.012h21.08v111.578c-9.42 0-19.02.103-28.61-.14-1.108-.028-2.498-1.796-3.197-3.066-6.407-11.637-12.691-23.343-19.212-35.34z"/><path fill="#010101" d="M753.988 1156.002h-33.204v25.923h60.489v20.882H697.35v-111.352h82.093v20.526h-58.521v23.483h45.647v20.538h-12.581z"/><path fill="#020202" d="M901.828 1144v-52.84c7.533 0 14.65-.08 21.764.017 12.644.17 25.367-.378 37.913.848 26.686 2.608 40.402 29.198 27.791 52.998-6.958 13.132-19.108 17.367-32.899 17.901-10.262.398-20.551.079-31.069.079v39.665h-23.5V1144m48.545-1.735c2.949-.38 5.982-.44 8.829-1.2 6.916-1.849 10.002-6.424 9.953-14.088-.047-7.274-3.196-12.825-9.84-13.608-11.23-1.326-22.62-1.306-33.912-1.85v30.948c8.158 0 16.09 0 24.97-.202z"/><path fill="#030303" d="M476.504 1135.888c-1.652 10.768-1.574 20.987 2.505 30.848 5.586 13.506 19.047 20.147 32.978 16.441 8.241-2.193 12.928-7.71 15.204-16.019h23.799c-.17 14.53-11.757 29.576-27.114 34.777-28.25 9.57-67.257-.445-72.11-45.362-1.106-10.246-.537-20.281 2.226-30.164 7.62-27.25 30.459-39.347 55.972-36.842 21.417 2.102 34.786 12.948 39.723 30.807.262.951.356 1.95.652 3.626-7.817 0-15.37.044-22.922-.07-.744-.01-1.723-.832-2.174-1.544-8.955-14.108-27.023-16.502-39.064-5.18-5.317 5-8.08 11.28-9.675 18.682z"/><path fill="#020202" d="M833 1091.16h51.69v20.725h-34.249v90.803h-23.508v-90.52H792.47v-21.008H833z"/><path fill="#F9B921" d="M915.836 973v-18.382c.751-.323 1.187-.675 1.624-.675 12.497-.012 25.008-.361 37.486.128 14.038.55 22.713 11.088 19.86 23.937-.737 3.322-3.204 6.452-5.464 9.184-1.74 2.104-1.83 3.212.365 4.727 7.87 5.436 9.152 13.152 6.848 21.68-2.377 8.793-9.143 13.58-17.563 14.067-14.078.814-28.237.222-43.156.222V973m44.756 36.589c1.234-6.965-.2-11.515-5.186-12.034-7.755-.806-15.655-.213-23.371-.213v17.525c6.685 0 13.018.487 19.219-.205 3.103-.346 5.966-2.843 9.338-5.073m-13.31-42.586h-15.217v16.017c6.748 0 13.077.295 19.366-.081 6.555-.392 9.874-6.403 6.816-11.803-2.22-3.92-6.095-4.188-10.965-4.133z"/><path fill="#050505" d="M554.727 720.55c-.39.484-.678.501-1.183.52-1.68-.349-3.142-1.006-4.607-1.014-14.988-.076-29.976-.028-44.964-.054-7.391-.013-9.812-2.476-9.819-9.879-.01-10.825-.022-21.65.004-32.474.016-6.48 2.519-9.109 9.062-9.148 14.154-.086 28.31-.086 42.465 0 6.695.04 9.145 2.705 9.156 9.624.022 13.989-.005 27.977-.114 42.426z"/><path fill="#F9B920" d="M333.789 998.111c3.47 10.09 6.859 19.795 10.56 30.392-5.174 0-9.891.178-14.572-.152-.931-.065-2.053-1.956-2.526-3.216-2.51-6.686-5.127-13.357-7.127-20.202-1.171-4.01-3.207-5.153-7.141-4.86-4.588.343-9.22.08-14.356.08 0 8.403-.148 16.195.068 23.977.096 3.46-.966 4.811-4.51 4.554-3.607-.261-7.247-.057-11.074-.057v-74.434c14.024 0 27.827-.652 41.531.224 9.464.606 16.632 6.109 18.748 15.985 2.069 9.66.689 18.581-7.798 25.15-.744.575-1.261 1.443-1.803 2.56m-10.221-12.724c4.484-2.357 5.397-6.626 4.065-10.66-.832-2.522-3.841-5.84-6.156-6.08-7.46-.776-15.051-.29-22.572-.29v19.168c8.205-.607 16.076-1.19 24.663-2.138z"/><path fill="#F9B921" d="M1195.139 981.136c6.104 1.185 11.85 2.115 17.509 3.427 12.633 2.929 18.696 9.734 18.98 20.955.277 10.982-6.688 19.614-18.574 22.814-9.449 2.544-18.816 2.063-27.9-1.559-9.263-3.693-15.414-12.569-14.766-21.385 4.25 0 8.554-.164 12.83.114 1.089.07 2.465 1.33 3.067 2.404 4.559 8.125 18.35 11.39 25.672 5.485 1.976-1.593 3.723-5.249 3.31-7.551-.456-2.538-3.111-5.84-5.526-6.64-6.103-2.02-12.61-2.808-18.951-4.114-12.084-2.49-18.085-8.777-18.588-19.442-.473-10.033 6.091-19.285 17.186-21.499 7.107-1.418 14.928-1.392 22.058-.045 10.468 1.977 15.96 8.819 18.44 20.444-5.046 0-9.913.077-14.771-.086-.7-.024-1.522-1.105-2.017-1.871-4.36-6.748-15-9.134-21.34-4.265-1.813 1.392-3.8 4.92-3.2 6.54.922 2.486 4.013 4.168 6.581 6.274zM851.157 993.946c0 1.99-.003 3.489.002 4.988.04 12.626 8.644 19.194 20.912 15.963 6.141-1.618 9.869-6.476 9.968-13.875.182-13.657.08-27.318.096-40.977.003-1.807 0-3.613 0-5.809h15.24c.059.07.457.321.458.573.028 16.654.429 33.32-.113 49.957-.398 12.207-7.722 20.37-19.507 23.573-8.404 2.284-16.845 2.141-25.11-.52-9.128-2.94-16.137-9.214-16.661-18.664-1.01-18.197-.295-36.489-.295-55.029h15.01v39.82zM583.14 1019.796c-1.957-4.71-5.026-9.095-5.179-13.578-.585-17.238-.237-34.508-.237-52.071h15.435v5.256c0 13.486-.03 26.971.007 40.457.028 10.031 5.55 15.637 15.318 15.666 9.93.03 15.452-5.21 15.572-15.38.18-15.132.047-30.269.047-45.854h15.904c0 8.103.008 16.211-.003 24.32-.01 7.99.176 15.989-.11 23.97-.546 15.262-8.749 24.333-23.885 26.54-12.16 1.772-23.622.681-32.87-9.326z"/><path fill="#F9B920" d="M759.997 981v-26.713c1.366-.168 2.463-.42 3.559-.419 11.826.02 23.673-.339 35.471.257 9.589.485 17.636 4.667 20.668 14.516 3 9.742 2.278 19.22-5.732 26.741-5.42 5.09-12.367 6.23-19.457 6.441-5.968.178-11.945.037-18.495.037v26.388h-16.014V981m17.82 6.825c6.798-.265 13.663-.04 20.372-.958 4.87-.666 6.963-4.502 6.8-9.604-.155-4.783-2.546-8.462-7.163-8.873-7.182-.639-14.462-.169-22.474-.169.536 6.801 1.036 13.136 2.465 19.604zM359.02 1008.014c5.346-16.846 10.733-33.262 15.775-49.783 1.08-3.538 2.661-4.66 6.233-4.462 5.476.301 10.991-.092 16.47.193 1.387.072 3.54 1.32 3.922 2.49 7.714 23.666 15.22 47.4 23.066 72.057-5.263 0-9.982.174-14.666-.152-.892-.062-1.984-1.981-2.407-3.238-1.535-4.562-2.609-9.291-4.34-13.77-.53-1.373-2.573-2.992-3.985-3.053-7.145-.31-14.316.01-21.467-.22-2.824-.09-3.757 1.223-4.407 3.533-1.304 4.637-2.523 9.32-4.253 13.8-.532 1.378-2.524 2.9-3.996 3.069-3.762.434-7.608.145-12.388.145 2.241-7.123 4.3-13.67 6.443-20.61m29.445-39.023c-.948.451-2.524.699-2.748 1.386-2.533 7.781-4.86 15.629-7.368 23.877h19.727c-2.393-7.891-4.6-15.304-6.929-22.678-.3-.953-1.239-1.705-2.682-2.585zM546.38 1015.602c-.602-6.07-3.414-8.199-9.286-7.58-5.761.605-11.641.28-17.46.071-2.682-.096-3.844.929-4.502 3.38-1.249 4.65-2.586 9.288-4.185 13.825-.456 1.29-1.871 3.063-2.974 3.16-4.226.371-8.504.15-13.434.15 1.357-4.555 2.418-8.337 3.61-12.077 6.247-19.62 12.587-39.211 18.73-58.864.888-2.836 2.068-4.027 5.162-3.893 5.814.254 11.653-.06 17.468.177 1.262.051 3.01 1.147 3.59 2.256 1.22 2.327 1.849 4.97 2.655 7.503 6.788 21.33 13.562 42.663 20.614 64.857-5.158 0-9.729.174-14.266-.138-.98-.067-2.23-1.736-2.677-2.923-1.167-3.1-1.958-6.343-3.044-9.904m-11.444-38.11c-.681-2.227-1.202-4.523-2.124-6.645-.357-.821-1.658-1.78-2.462-1.724-1.064.074-2.713.874-2.987 1.724-2.481 7.694-4.716 15.468-7.106 23.496h19.708c-1.71-5.63-3.292-10.845-5.029-16.85z"/><path fill="#F9B921" d="M707.589 972.625c-.332.622-.418.969-.622 1.219-8.33 10.2-7.049 20.003.085 30.494 4.9 7.205 8.283 15.44 12.862 24.205-5.974 0-11.054.208-16.093-.16-1.133-.082-2.42-2.017-3.124-3.366-4.154-7.958-8.113-16.017-12.254-23.982-.625-1.203-2.095-3.075-2.757-2.915-1.315.318-2.74 1.622-3.42 2.893-4.316 8.062-8.288 16.31-12.755 24.284-.89 1.587-3.35 2.967-5.231 3.187-4.094.479-8.283.147-13.26.147 1.93-3.83 3.566-7.18 5.292-10.483 4.388-8.4 8.69-16.85 13.298-25.13 1.575-2.828 1.497-5.07.044-7.862-5.275-10.134-10.338-20.38-15.841-31.298 5.354 0 9.964-.208 14.531.14 1.21.093 2.688 1.692 3.359 2.96 3.652 6.907 7.018 13.965 10.667 20.873.67 1.27 2.067 2.584 3.372 2.913.653.165 2.12-1.699 2.764-2.891 3.634-6.728 7.262-13.467 10.607-20.34 1.355-2.783 3.017-3.963 6.14-3.732 3.634.268 7.304.062 11.889.062a5864.556 5864.556 0 0 1-9.553 18.782zM1136.28 968.29c-12.87-4.56-23.237.723-26.441 13.505-2.246 8.957-1.766 17.725 3.126 26.001 6.207 10.5 25.978 10.327 29.233-1.01.28-.977 1.74-2.236 2.707-2.287 4.59-.24 9.199-.107 14.35-.107-1.559 9.792-5.98 16.866-14.067 21.258-17.018 9.241-47.896 4.894-52.28-26.538-1.443-10.344-.533-20.287 4.339-29.578 10.742-20.487 43.735-23.522 56.585-5.178 2.184 3.118 3.392 6.921 5.569 11.495-6.144 0-10.748.129-15.334-.102-.98-.05-1.984-1.318-2.821-2.176-1.598-1.64-3.084-3.39-4.966-5.283zM491.38 964.444c-6.064 20.466-12.031 40.54-17.84 60.659-.8 2.772-2.147 3.66-4.93 3.582-6.158-.175-12.326-.142-18.487-.013-2.503.052-3.901-.617-4.666-3.24-6.696-22.977-13.524-45.916-20.293-68.873-.182-.617-.133-1.302-.257-2.673 4.908 0 9.667-.242 14.365.19 1.035.095 2.268 2.465 2.702 3.99 4.733 16.623 9.264 33.305 14.04 49.916.541 1.884 1.994 4.605 3.452 4.913 3.759.793 3.117-3.02 3.713-5.11 4.648-16.3 9.153-32.641 13.715-48.965.44-1.571.966-3.117 1.45-4.67h16c-1.018 3.581-1.917 6.748-2.964 10.294z"/><path fill="#F9B81F" d="M256.046 967.855h-7.422v8.877c0 15.804-.088 31.608.069 47.41.034 3.464-.984 4.796-4.515 4.541-3.599-.26-7.232-.057-11.36-.057v-60.692h-22.604v-13.822h61.26v13.743h-15.428z"/><path fill="#F9B921" d="m1024 1028.63-31.586-.001v-74.337h15.532v59.679h39.675c0 4.3.26 8.12-.167 11.86-.12 1.052-2.231 2.622-3.482 2.674-6.481.27-12.98.125-19.972.124z"/><path fill="#F9BC2C" d="M1077.676 962.116v66.197h-15.987V954.1h15.988v8.016z"/><path fill="#FEFEFE" d="M768.192 356.835c29.277 36.297 12.327 87.4-32.325 98.447-31.893 7.89-65.457-13.081-72.71-45.429-7.4-33.007 13.896-66.494 46.656-72.788 22.894-4.398 42.353 2.295 58.38 19.77zM665.02 840.164h-8.826v-39.098c1.326-.072 2.763-.218 4.2-.22 14.82-.016 29.641-.099 44.46.05 3.96.039 8.012.39 11.849 1.316 9.042 2.182 14.136 8.79 14.408 17.94.261 8.83-3.948 15.067-12.931 17.832-4.375 1.346-9.109 1.989-13.698 2.085-12.983.27-25.975.095-39.462.095z"/><path fill="#FDFDFD" d="M725.117 735.263c-.17 10.997-4.768 17.172-15.24 17.606-17.724.734-35.5.201-53.651.201v-32.894c.807-.093 1.898-.329 2.988-.327 15.294.031 30.592-.07 45.883.203 11.636.209 18.221 5.318 20.02 15.211zM1104.852 765.026c-16.046.02-31.643.02-47.463.02v-45.773c17.96.598 35.745.456 53.376 2.031 12.054 1.077 17.648 8.91 17.739 20.802.094 12.356-5.318 19.24-17.305 21.924-1.941.435-3.93.656-6.347.996zM949.899 1142.366c-8.406.101-16.338.101-24.496.101v-30.948c11.292.544 22.682.524 33.913 1.85 6.643.783 9.792 6.334 9.839 13.608.049 7.664-3.037 12.24-9.953 14.087-2.847.76-5.88.822-9.303 1.302z"/><path fill="#FFFEFD" d="M960.392 1009.942c-3.172 1.877-6.035 4.374-9.138 4.72-6.201.692-12.534.205-19.219.205v-17.525c7.716 0 15.616-.593 23.37.213 4.987.519 6.42 5.069 4.987 12.387zM947.749 967.003c4.403-.055 8.278.213 10.498 4.133 3.058 5.4-.261 11.41-6.816 11.803-6.29.376-12.618.081-19.366.081v-16.017h15.684zM323.21 985.571c-8.229.765-16.1 1.348-24.305 1.955v-19.167c7.52 0 15.112-.487 22.572.289 2.315.24 5.324 3.558 6.156 6.08 1.332 4.034.42 8.303-4.423 10.843z"/><path fill="#FFFEFB" d="M777.352 987.758c-.964-6.401-1.464-12.736-2-19.537 8.012 0 15.292-.47 22.474.169 4.617.41 7.008 4.09 7.162 8.873.164 5.102-1.929 8.938-6.799 9.604-6.709.918-13.574.693-20.837.891z"/><path fill="#FEFBF3" d="M388.865 969.007c1.043.863 1.981 1.615 2.282 2.568 2.33 7.374 4.536 14.787 6.929 22.678h-19.727c2.509-8.248 4.835-16.096 7.368-23.877.224-.687 1.8-.935 3.148-1.369zM535.014 977.888c1.66 5.61 3.243 10.824 4.952 16.455h-19.708c2.39-8.028 4.625-15.802 7.106-23.496.274-.85 1.923-1.65 2.987-1.724.804-.057 2.105.903 2.462 1.724.922 2.122 1.443 4.418 2.201 7.041z"/></svg>