<svg version="1.1" id="Layer_1" xmlns="http://www.w3.org/2000/svg" xmlns:xlink="http://www.w3.org/1999/xlink" x="0px" y="0px"
	 width="100%" viewBox="0 0 1439 1411" enable-background="new 0 0 1439 1411" xml:space="preserve">
<path fill="#FFFFFF" opacity="1.000000" stroke="none" 
	d="
M816.000000,1412.000000 
	C544.000061,1412.000000 272.500092,1412.000000 1.000109,1412.000000 
	C1.000073,941.666809 1.000073,471.333588 1.000036,1.000299 
	C480.666473,1.000199 960.332947,1.000199 1439.999512,1.000100 
	C1439.999756,471.333038 1439.999756,941.666077 1439.999878,1411.999512 
	C1232.166626,1412.000000 1024.333374,1412.000000 816.000000,1412.000000 
M554.828918,720.091187 
	C554.835754,706.102356 554.862854,692.113525 554.840759,678.124756 
	C554.829834,671.205872 552.380249,668.541870 545.685364,668.501038 
	C531.530518,668.414551 517.374390,668.414795 503.219513,668.500671 
	C496.676605,668.540344 494.174103,671.169006 494.158203,677.648804 
	C494.131592,688.473450 494.143616,699.298279 494.153961,710.122986 
	C494.161041,717.526245 496.581818,719.988892 503.972687,720.001709 
	C518.960693,720.027771 533.948914,719.980103 548.936646,720.056335 
	C550.401794,720.063721 551.863586,720.721375 552.690063,721.346558 
	C534.630920,737.590698 516.613831,753.882019 498.472443,770.033752 
	C495.351532,772.812256 494.076080,775.839172 494.091522,780.022766 
	C494.217102,814.001892 494.156799,847.981628 494.167297,881.961182 
	C494.169495,889.101685 496.551971,891.484802 503.751129,891.500244 
	C517.242920,891.529175 530.734863,891.517822 544.226746,891.507690 
	C552.744629,891.501343 554.836060,889.404419 554.836548,880.893433 
	C554.839355,829.257874 554.840088,777.622253 554.829224,725.986694 
	C554.828857,724.327820 554.696472,722.668884 554.828918,720.091187 
M595.759155,228.187149 
	C591.800293,229.452972 587.805603,230.617142 583.887817,231.999313 
	C460.205475,275.632812 371.937592,357.540985 319.330261,477.616241 
	C302.872833,515.179993 293.154877,554.711365 288.183289,595.404053 
	C287.466431,601.271545 289.137177,603.715820 294.401001,603.800354 
	C304.730499,603.966309 315.064819,603.890625 325.396606,603.826782 
	C329.515076,603.801392 331.635468,601.826843 332.107941,597.463562 
	C332.895203,590.193604 333.985657,582.936462 335.363586,575.753601 
	C352.592499,485.941437 395.275360,410.450226 464.156067,350.337097 
	C536.019287,287.621124 620.248108,255.752899 715.480774,253.264069 
	C745.171021,252.488144 774.613464,255.632217 803.732788,261.809296 
	C942.855164,291.321381 1056.192749,394.750549 1098.086426,530.599670 
	C1104.767334,552.263733 1109.681641,574.310852 1112.341187,596.837952 
	C1112.825684,600.941772 1114.327881,603.858826 1119.040894,603.853271 
	C1129.373047,603.841064 1139.707031,603.967163 1150.036621,603.805908 
	C1155.376709,603.722595 1157.032227,601.604675 1156.238647,596.058838 
	C1154.660889,585.032593 1153.302368,573.951599 1151.126587,563.038086 
	C1130.983398,461.998199 1081.513550,377.879822 1002.680481,311.858643 
	C919.708496,242.371246 823.470215,208.537033 715.029846,209.800003 
	C674.637451,210.270447 635.207092,216.533615 595.759155,228.187149 
M591.172424,509.667114 
	C589.994141,510.844818 588.809937,512.016724 587.638367,513.201050 
	C564.592468,536.496460 548.568420,563.888733 539.712952,595.448303 
	C538.035217,601.427490 539.616638,603.478027 545.862549,603.500671 
	C556.194214,603.538208 566.532410,603.299011 576.855042,603.606812 
	C581.379822,603.741760 583.406616,601.847473 584.818665,597.854614 
	C586.750610,592.391907 588.931580,586.973572 591.520386,581.793457 
	C620.024658,524.759583 681.054077,492.816345 744.185425,502.215790 
	C776.122925,506.970886 803.505432,521.270142 826.221558,544.165649 
	C841.539856,559.604858 852.885498,577.682312 860.025208,598.302795 
	C860.998413,601.113342 862.161011,603.537476 865.758362,603.523071 
	C877.256470,603.477051 888.755981,603.591187 900.252686,603.457581 
	C904.514404,603.408020 906.104492,601.187744 905.175415,596.826965 
	C904.486572,593.593750 903.507629,590.405029 902.431885,587.274170 
	C885.412598,537.743530 853.574158,500.989899 807.078979,476.939240 
	C797.719482,472.097809 797.115967,469.764313 803.502197,461.651672 
	C820.375122,440.217316 828.084290,415.935272 826.178894,388.653442 
	C821.725037,324.882965 761.130798,280.002655 699.196655,294.621460 
	C622.943665,312.620087 592.772888,401.872070 642.263245,463.043060 
	C646.927246,468.807861 646.048462,472.755310 639.416504,475.984985 
	C621.783386,484.572021 605.889954,495.665924 591.172424,509.667114 
M620.503540,668.491455 
	C616.337402,668.491943 612.171265,668.479431 608.005188,668.495728 
	C599.717529,668.528015 597.501221,670.656006 597.499634,678.768066 
	C597.486267,746.260071 597.486633,813.752014 597.496460,881.244019 
	C597.497681,889.324585 599.743713,891.501770 607.994446,891.503662 
	C643.990173,891.511963 679.990479,891.826233 715.978699,891.305603 
	C726.170410,891.158142 736.606628,889.580933 746.443542,886.882996 
	C770.167175,880.376221 785.126648,864.771179 789.752197,840.337097 
	C794.249146,816.581970 787.511047,796.981140 767.042419,782.862793 
	C761.801270,779.247742 761.950806,774.239075 766.808472,769.969727 
	C769.299011,767.780884 771.885376,765.605286 773.943420,763.035339 
	C794.244019,737.686096 786.377502,697.189331 757.883606,679.974976 
	C743.298767,671.163574 727.138489,668.621033 710.491638,668.534546 
	C680.829285,668.380432 651.165588,668.491394 620.503540,668.491455 
M1057.168701,874.478638 
	C1057.168701,855.370178 1057.168701,836.261658 1057.168701,816.836182 
	C1059.546509,816.836182 1061.359741,816.859192 1063.172241,816.832703 
	C1081.484741,816.565125 1099.832397,816.899658 1118.099854,815.845581 
	C1136.603149,814.777893 1153.780518,809.007507 1167.478882,795.824280 
	C1186.154419,777.851013 1189.991699,755.002136 1187.411743,730.534119 
	C1185.044800,708.087097 1174.442139,690.573547 1154.379883,679.483215 
	C1142.539551,672.937988 1129.617432,669.334595 1116.198120,669.129211 
	C1080.050171,668.575806 1043.892456,668.625061 1007.738220,668.529907 
	C1001.483154,668.513428 999.009399,671.198730 999.008057,677.441223 
	C998.993469,745.770264 998.994080,814.099365 999.006836,882.428406 
	C999.008057,888.977051 1001.478149,891.462891 1008.057068,891.493286 
	C1019.056152,891.544250 1030.055664,891.508362 1041.054932,891.508545 
	C1057.166992,891.508789 1057.166992,891.508667 1057.168701,874.478638 
M450.899811,739.369141 
	C453.234283,738.506897 455.594543,737.708069 457.898102,736.769897 
	C463.855591,734.343872 465.870575,729.358093 463.117920,723.373840 
	C456.549866,709.094788 447.313995,696.827026 434.987946,687.004150 
	C416.485321,672.259094 395.093292,665.496338 371.704346,664.659546 
	C333.005463,663.274841 300.680267,676.305237 278.044525,708.585144 
	C255.294235,741.028320 251.811493,777.278442 260.709442,814.964172 
	C268.211487,846.737671 285.923309,871.076111 316.013153,885.320251 
	C335.972992,894.769104 357.190094,897.032104 378.859680,894.925232 
	C417.598450,891.158630 446.436127,872.590820 463.339417,836.883179 
	C466.974976,829.203186 465.131256,824.919434 457.035553,821.849121 
	C447.416473,818.200867 437.783081,814.590027 428.145020,810.992188 
	C419.146271,807.632996 416.565704,808.644958 412.204865,816.991821 
	C402.694092,835.195801 387.638916,844.564880 367.109985,844.426025 
	C346.526337,844.286804 331.548157,834.535217 322.536560,816.178955 
	C314.009094,798.808899 312.867767,780.405945 316.771545,761.652893 
	C319.889374,746.675415 326.778595,733.770874 339.364685,724.613892 
	C363.730804,706.886475 397.542603,715.559326 412.015228,743.059204 
	C415.864258,750.372925 419.168701,751.599792 426.974823,748.617004 
	C434.722321,745.656555 442.470642,742.698181 450.899811,739.369141 
M856.999573,875.466675 
	C856.999634,877.299683 856.998779,879.132751 856.999756,880.965759 
	C857.004456,889.572083 858.926086,891.499512 867.553650,891.505188 
	C879.718445,891.513245 891.883301,891.509705 904.048096,891.507019 
	C913.291382,891.504944 915.166626,889.646790 915.167053,880.466431 
	C915.169373,828.807617 915.168152,777.148743 915.168152,725.489929 
	C915.168152,723.712891 915.168152,721.935791 915.168152,719.835632 
	C931.206299,719.835632 946.680542,719.855469 962.154724,719.826172 
	C968.666504,719.813904 971.133972,717.326355 971.157410,710.744873 
	C971.196594,699.746704 971.195984,688.748169 971.157593,677.750000 
	C971.134399,671.105652 968.738464,668.521240 962.259033,668.515991 
	C911.600037,668.474792 860.941101,668.472046 810.282104,668.518311 
	C803.687744,668.524353 801.200012,671.132690 801.174011,677.649353 
	C801.132141,688.147583 801.161560,698.646118 801.163757,709.144531 
	C801.165527,717.708069 803.247009,719.834351 811.639771,719.835999 
	C826.601379,719.838928 841.562988,719.836792 856.999573,719.836792 
	C856.999573,771.593018 856.999573,823.034973 856.999573,875.466675 
M570.775452,375.242737 
	C573.121704,373.983765 575.369934,372.470306 577.835327,371.520416 
	C582.521973,369.714722 584.429443,366.289948 585.742126,361.568420 
	C587.961060,353.587372 590.690125,345.683685 593.984741,338.085724 
	C596.816589,331.554871 600.845276,325.551239 604.093872,319.186432 
	C604.808411,317.786499 604.463379,315.845795 604.606323,314.154083 
	C603.063049,314.039337 601.505981,313.748871 599.981018,313.868134 
	C598.859009,313.955963 597.768555,314.552765 596.681580,314.968506 
	C552.589661,331.830444 513.187927,356.292053 479.038177,388.854126 
	C419.637573,445.492950 383.779449,514.550598 371.281097,595.698914 
	C370.398071,601.432373 372.314117,603.749084 378.258728,603.828308 
	C386.090424,603.932678 393.924927,603.806580 401.757538,603.865173 
	C414.953705,603.963928 413.941895,603.828003 416.288086,591.872559 
	C434.974823,496.652374 486.515320,424.697083 570.775452,375.242737 
M915.858337,349.649719 
	C893.808960,335.154602 870.378601,323.374725 845.645569,314.219055 
	C843.963928,313.596527 841.750732,314.409912 839.784790,314.555450 
	C840.140137,316.338867 840.022034,318.418762 840.924377,319.859619 
	C849.382935,333.365875 855.819641,347.717865 859.325317,363.287750 
	C860.184998,367.105896 862.373840,369.187378 865.692871,370.945404 
	C925.177368,402.452881 970.220825,448.236816 1000.597412,508.293976 
	C1014.800842,536.375427 1024.339233,566.047363 1029.112305,597.193420 
	C1029.755981,601.394043 1031.611450,603.906250 1036.203735,603.876709 
	C1046.530396,603.810181 1056.859497,603.965881 1067.183838,603.798645 
	C1072.240356,603.716797 1074.062012,601.445740 1073.188599,596.397339 
	C1071.376099,585.921326 1069.828735,575.362732 1067.293579,565.054199 
	C1044.871216,473.882690 994.235535,402.425629 915.858337,349.649719 
M851.272949,453.798676 
	C850.714294,457.541809 853.024170,459.493744 855.726746,461.442566 
	C875.597900,475.770996 892.765076,492.844818 907.128174,512.692932 
	C925.594421,538.211182 938.518555,566.262878 945.143921,597.108704 
	C946.200012,602.025391 948.669373,604.072388 953.765320,603.932495 
	C963.414978,603.667480 973.077698,603.919556 982.733765,603.830566 
	C988.923584,603.773560 990.740967,601.368286 989.568665,595.318542 
	C984.442017,568.862976 975.690186,543.678467 963.048462,519.871643 
	C941.059937,478.462738 910.432922,444.885895 871.349365,419.021118 
	C865.174500,414.934723 862.631226,416.334747 860.621582,423.596588 
	C857.880737,433.500397 854.577026,443.248383 851.272949,453.798676 
M551.080811,495.593506 
	C563.649719,484.212433 576.114502,472.713043 588.842041,461.512177 
	C593.526917,457.389160 594.012573,456.039276 591.945862,449.956970 
	C589.063599,441.474640 586.283081,432.925476 584.121399,424.240082 
	C582.106689,416.145386 579.508667,414.783112 572.524963,419.447845 
	C535.581299,444.124023 506.115906,475.752228 484.401794,514.529114 
	C470.478607,539.392944 460.910156,565.885010 455.271484,593.804138 
	C453.642517,601.869873 455.112274,603.615234 463.408691,603.622925 
	C472.905975,603.631836 482.404083,603.550476 491.900116,603.660217 
	C496.011902,603.707764 498.227478,602.240540 499.173431,597.935608 
	C507.594360,559.612793 524.864929,525.719849 551.080811,495.593506 
M618.799133,1164.762817 
	C625.118958,1176.448853 631.402771,1188.154663 637.810242,1199.792480 
	C638.509155,1201.061890 639.898804,1202.829834 641.006226,1202.857788 
	C650.597595,1203.100586 660.197754,1202.997559 669.617920,1202.997559 
	C669.617920,1165.385376 669.617920,1128.341064 669.617920,1091.420166 
	C662.465637,1091.420166 655.703125,1091.420166 648.537109,1091.420166 
	C648.537109,1116.609619 648.537109,1141.541260 648.537109,1166.432129 
	C644.905884,1168.018311 643.958557,1165.738892 642.736206,1163.471802 
	C630.360535,1140.518188 617.945312,1117.585938 605.445129,1094.700195 
	C604.677673,1093.295044 603.129089,1091.356445 601.894348,1091.319214 
	C592.459717,1091.036255 583.012817,1091.164062 573.507629,1091.164062 
	C573.507629,1128.766724 573.507629,1165.806763 573.507629,1202.669678 
	C580.780884,1202.669678 587.699829,1202.669678 594.905396,1202.669678 
	C594.905396,1177.549927 594.905396,1152.763428 594.905396,1127.976807 
	C595.301270,1127.645386 595.697144,1127.313843 596.093079,1126.982422 
	C597.520874,1128.270996 599.414246,1129.299805 600.301575,1130.889893 
	C606.450195,1141.908325 612.389587,1153.043457 618.799133,1164.762817 
M754.485901,1156.001953 
	C758.563232,1156.001953 762.640503,1156.001953 766.569397,1156.001953 
	C766.569397,1148.795776 766.569397,1142.368896 766.569397,1135.464355 
	C751.220337,1135.464355 736.131104,1135.464355 720.921814,1135.464355 
	C720.921814,1127.464355 720.921814,1119.953979 720.921814,1111.981445 
	C740.734070,1111.981445 760.138245,1111.981445 779.443481,1111.981445 
	C779.443481,1104.784790 779.443481,1098.066040 779.443481,1091.454834 
	C751.789612,1091.454834 724.532104,1091.454834 697.349976,1091.454834 
	C697.349976,1128.803101 697.349976,1165.857300 697.349976,1202.807129 
	C725.491943,1202.807129 753.281616,1202.807129 781.272827,1202.807129 
	C781.272827,1195.850708 781.272827,1189.090332 781.272827,1181.924805 
	C760.934143,1181.924805 740.829346,1181.924805 720.784058,1181.924805 
	C720.784058,1173.110229 720.784058,1164.704346 720.784058,1156.001953 
	C731.866394,1156.001953 742.677917,1156.001953 754.485901,1156.001953 
M901.828064,1144.500000 
	C901.828064,1163.913086 901.828064,1183.326172 901.828064,1202.667969 
	C909.966431,1202.667969 917.530029,1202.667969 925.328491,1202.667969 
	C925.328491,1189.383545 925.328491,1176.433594 925.328491,1163.002563 
	C935.845764,1163.002563 946.135437,1163.321777 956.397278,1162.924072 
	C970.187866,1162.389893 982.337830,1158.155273 989.296204,1145.022583 
	C1001.906677,1121.222900 988.190857,1094.632690 961.504822,1092.024902 
	C948.959045,1090.798950 936.236206,1091.346802 923.592407,1091.176514 
	C916.477722,1091.080688 909.360718,1091.159302 901.828064,1091.159302 
	C901.828064,1108.931152 901.828064,1126.215576 901.828064,1144.500000 
M476.632324,1135.470581 
	C478.098297,1128.485962 480.862091,1122.206909 486.179016,1117.206909 
	C498.219818,1105.883789 516.287903,1108.277954 525.242615,1122.386475 
	C525.694031,1123.097656 526.672546,1123.919312 527.417053,1123.930420 
	C534.968140,1124.044189 542.521545,1124.000000 550.338989,1124.000000 
	C550.042908,1122.323364 549.949463,1121.325439 549.686584,1120.374390 
	C544.749817,1102.514893 531.381226,1091.669067 509.963654,1089.566528 
	C484.450958,1087.061890 461.611084,1099.159790 453.992157,1126.409424 
	C451.229065,1136.291748 450.659973,1146.326904 451.766724,1156.572632 
	C456.618683,1201.489746 495.626190,1211.504272 523.875732,1201.935425 
	C539.233093,1196.733521 550.819702,1181.687256 550.990356,1167.157959 
	C547.026917,1167.157959 543.062500,1167.157959 539.098145,1167.157959 
	C535.144104,1167.157959 531.190063,1167.157959 527.190613,1167.157959 
	C524.915161,1175.466797 520.227966,1180.984375 511.986511,1183.177124 
	C498.056366,1186.883057 484.595398,1180.242432 479.008575,1166.735718 
	C474.930084,1156.875488 474.851501,1146.656372 476.632324,1135.470581 
M832.500061,1091.159912 
	C819.222351,1091.159912 805.944702,1091.159912 792.470215,1091.159912 
	C792.470215,1098.349609 792.470215,1105.055664 792.470215,1112.168945 
	C804.023682,1112.168945 815.272217,1112.168945 826.932861,1112.168945 
	C826.932861,1142.618652 826.932861,1172.661255 826.932861,1202.687500 
	C834.925537,1202.687500 842.489014,1202.687500 850.441284,1202.687500 
	C850.441284,1172.311401 850.441284,1142.249634 850.441284,1111.885254 
	C862.104187,1111.885254 873.372864,1111.885254 884.690674,1111.885254 
	C884.690674,1104.859497 884.690674,1098.147339 884.690674,1091.159912 
	C867.419983,1091.159912 850.460022,1091.159912 832.500061,1091.159912 
M915.835571,973.500366 
	C915.835571,991.745422 915.835571,1009.990479 915.835571,1027.888184 
	C930.754822,1027.888184 944.914001,1028.479858 958.991821,1027.665771 
	C967.411682,1027.178711 974.178406,1022.392273 976.554504,1013.598633 
	C978.858765,1005.070801 977.577698,997.355042 969.706543,991.918884 
	C967.512512,990.403625 967.601501,989.295532 969.341797,987.191650 
	C971.601868,984.459595 974.068848,981.330200 974.806458,978.007751 
	C977.658813,965.159424 968.984131,954.621338 954.946106,954.070923 
	C942.467957,953.581665 929.956726,953.930786 917.460083,953.942688 
	C917.023376,953.943115 916.587036,954.294739 915.835449,954.618347 
	C915.835449,960.548462 915.835449,966.524536 915.835571,973.500366 
M333.708527,997.726624 
	C334.331024,996.994690 334.848480,996.127136 335.592072,995.551697 
	C344.079010,988.983398 345.458893,980.062378 343.389648,970.402466 
	C341.273926,960.525574 334.106293,955.023132 324.642334,954.417480 
	C310.937714,953.540588 297.135223,954.192871 283.110535,954.192871 
	C283.110535,978.940918 283.110535,1003.490051 283.110535,1028.626587 
	C286.937683,1028.626587 290.577850,1028.422852 294.184265,1028.684448 
	C297.728577,1028.941284 298.790588,1027.590698 298.694763,1024.130371 
	C298.479248,1016.348328 298.627167,1008.556274 298.627167,1000.153381 
	C303.762512,1000.153381 308.395233,1000.415527 312.982941,1000.073486 
	C316.916840,999.780212 318.952972,1000.923767 320.124298,1004.932739 
	C322.124420,1011.778076 324.740570,1018.448669 327.250793,1025.135254 
	C327.723694,1026.394897 328.845825,1028.285522 329.776520,1028.351196 
	C334.457947,1028.681274 339.175232,1028.502563 344.348328,1028.502563 
	C340.647552,1017.905701 337.258331,1008.200928 333.708527,997.726624 
M1194.741577,981.053467 
	C1192.571167,979.030334 1189.479980,977.348450 1188.558472,974.862488 
	C1187.958252,973.242859 1189.945435,969.714233 1191.757690,968.322388 
	C1198.097900,963.453064 1208.737061,965.839172 1213.098022,972.586975 
	C1213.593262,973.353149 1214.414307,974.433960 1215.114990,974.457581 
	C1219.973389,974.621399 1224.839844,974.544006 1229.885986,974.544006 
	C1227.405151,962.918579 1221.914307,956.077271 1211.446045,954.099976 
	C1204.316406,952.753296 1196.494507,952.727478 1189.387939,954.145203 
	C1178.293213,956.358582 1171.729370,965.611328 1172.202271,975.644165 
	C1172.704956,986.309265 1178.706177,992.595886 1190.789917,995.085693 
	C1197.130371,996.392090 1203.638428,997.180847 1209.740845,999.200500 
	C1212.156006,999.999817 1214.811157,1003.302124 1215.266602,1005.840027 
	C1215.679932,1008.142395 1213.933105,1011.797974 1211.956909,1013.391418 
	C1204.634521,1019.295837 1190.843628,1016.031006 1186.285156,1007.905823 
	C1185.682861,1006.832214 1184.306641,1005.572632 1183.217285,1005.501892 
	C1178.941772,1005.224365 1174.637695,1005.388367 1170.387573,1005.388367 
	C1169.739868,1014.204407 1175.890991,1023.079956 1185.153687,1026.773071 
	C1194.237549,1030.394775 1203.605347,1030.876465 1213.054443,1028.332031 
	C1224.939819,1025.131592 1231.905151,1016.500305 1231.627563,1005.518005 
	C1231.344116,994.297485 1225.281250,987.491760 1212.647583,984.562683 
	C1206.989624,983.250793 1201.242920,982.321350 1194.741577,981.053467 
M851.157288,993.455811 
	C851.157288,980.367798 851.157288,967.279785 851.157288,954.126099 
	C845.513489,954.126099 840.594543,954.126099 836.147156,954.126099 
	C836.147156,972.666016 835.431335,990.958374 836.441650,1009.154907 
	C836.966309,1018.605164 843.974609,1024.879761 853.103088,1027.819092 
	C861.367737,1030.480103 869.808899,1030.623169 878.213257,1028.338867 
	C889.998352,1025.135742 897.321838,1016.973450 897.719666,1004.766113 
	C898.261902,988.129883 897.860535,971.462830 897.832764,954.809021 
	C897.832397,954.557007 897.434021,954.305664 897.375244,954.236084 
	C892.301514,954.236084 887.395142,954.236084 882.135742,954.236084 
	C882.135742,956.431641 882.137573,958.238159 882.135498,960.044678 
	C882.119446,973.703979 882.220764,987.364807 882.038635,1001.021912 
	C881.940002,1008.420593 878.212219,1013.279480 872.070618,1014.896851 
	C859.802979,1018.127502 851.199036,1011.560120 851.158752,998.933716 
	C851.153992,997.434509 851.157654,995.935242 851.157288,993.455811 
M583.367371,1020.077332 
	C592.387146,1029.803467 603.848267,1030.894287 616.009460,1029.121216 
	C631.144958,1026.914551 639.348328,1017.844299 639.894226,1002.582214 
	C640.179688,994.600708 639.993347,986.601990 640.004211,978.611084 
	C640.015198,970.502991 640.006653,962.394836 640.006653,954.291748 
	C634.423462,954.291748 629.405762,954.291748 624.102783,954.291748 
	C624.102783,969.877441 624.235535,985.013916 624.056335,1000.146729 
	C623.935913,1010.316772 618.414490,1015.556641 608.483826,1015.526428 
	C598.716125,1015.496704 593.193787,1009.891296 593.166138,999.859680 
	C593.129028,986.374207 593.158325,972.888550 593.159119,959.403015 
	C593.159241,957.651245 593.159119,955.899536 593.159119,954.146729 
	C587.468994,954.146729 582.552917,954.146729 577.724060,954.146729 
	C577.724060,971.709839 577.375610,988.979858 577.961426,1006.218140 
	C578.113770,1010.701477 581.182678,1015.085754 583.367371,1020.077332 
M759.996582,981.500000 
	C759.996582,997.079163 759.996582,1012.658386 759.996582,1028.248291 
	C765.621277,1028.248291 770.531982,1028.248291 776.010803,1028.248291 
	C776.010803,1019.315125 776.010803,1010.746765 776.010803,1001.860107 
	C782.560669,1001.860107 788.538269,1002.001221 794.506409,1001.823425 
	C801.595581,1001.612366 808.542114,1000.471619 813.962646,995.382324 
	C821.973022,987.861511 822.694092,978.383179 819.694946,968.640564 
	C816.663330,958.791931 808.615845,954.610046 799.027222,954.125427 
	C787.228882,953.529175 775.381775,953.887146 763.555786,953.868042 
	C762.459778,953.866272 761.363342,954.119141 759.996582,954.287048 
	C759.996582,963.219910 759.996582,971.859985 759.996582,981.500000 
M358.937164,1008.405884 
	C356.877655,1014.952820 354.818115,1021.499756 352.577362,1028.622803 
	C357.356567,1028.622803 361.202576,1028.912354 364.964996,1028.478027 
	C366.436920,1028.308228 368.428894,1026.786743 368.960999,1025.408813 
	C370.690918,1020.928589 371.910156,1016.245544 373.214417,1011.609192 
	C373.864410,1009.298706 374.796753,1007.986633 377.621185,1008.076904 
	C384.772186,1008.305603 391.942596,1007.986267 399.087524,1008.295715 
	C400.500214,1008.356934 402.542816,1009.975769 403.073212,1011.348328 
	C404.804108,1015.827881 405.877625,1020.556885 407.413483,1025.119385 
	C407.836395,1026.375854 408.927612,1028.295166 409.820038,1028.357178 
	C414.504242,1028.682617 419.223083,1028.509277 424.486084,1028.509277 
	C416.639832,1003.851318 409.133728,980.118225 401.420258,956.452637 
	C401.038727,955.282043 398.885376,954.033875 397.497833,953.961670 
	C392.019135,953.676819 386.504425,954.070496 381.027557,953.768677 
	C377.456177,953.571777 375.875092,954.692810 374.795105,958.231262 
	C369.752563,974.752319 364.365723,991.168213 358.937164,1008.405884 
M546.525940,1015.977783 
	C547.466919,1019.163269 548.257996,1022.405273 549.425110,1025.505615 
	C549.871948,1026.692749 551.122925,1028.362061 552.102417,1028.429443 
	C556.639343,1028.741211 561.209595,1028.567261 566.367676,1028.567261 
	C559.315796,1006.372742 552.542297,985.039124 545.754150,963.710144 
	C544.947754,961.176392 544.318176,958.533569 543.099426,956.206970 
	C542.518555,955.098145 540.771057,954.002075 539.509216,953.950745 
	C533.693665,953.713989 527.855164,954.028076 522.041016,953.774475 
	C518.946960,953.639587 517.766663,954.831116 516.879944,957.667175 
	C510.735657,977.319519 504.396149,996.910828 498.148499,1016.531006 
	C496.957458,1020.271301 495.896057,1024.052856 494.538574,1028.608154 
	C499.468658,1028.608154 503.746674,1028.829102 507.972748,1028.458130 
	C509.075684,1028.361328 510.491425,1026.588867 510.946564,1025.297852 
	C512.546387,1020.760681 513.883057,1016.122925 515.131775,1011.472900 
	C515.789978,1009.021973 516.951904,1007.996948 519.634949,1008.093445 
	C525.452576,1008.302612 531.332764,1008.627197 537.094421,1008.021118 
	C542.966125,1007.403381 545.778259,1009.531555 546.525940,1015.977783 
M707.779419,972.304077 
	C710.808411,966.331360 713.837402,960.358704 717.141541,953.843445 
	C712.557007,953.843445 708.887451,954.049255 705.252930,953.780884 
	C702.130432,953.550354 700.467834,954.729919 699.113464,957.512634 
	C695.767883,964.386108 692.140015,971.124573 688.506287,977.852844 
	C687.862549,979.044983 686.395325,980.908569 685.741882,980.743713 
	C684.437195,980.414612 683.040894,979.101196 682.369995,977.831116 
	C678.720886,970.922913 675.354980,963.865112 671.703003,956.958557 
	C671.032104,955.689819 669.553406,954.091187 668.344055,953.998718 
	C663.777039,953.649536 659.167236,953.858398 653.812805,953.858398 
	C659.315918,964.776489 664.378601,975.021851 669.654114,985.156372 
	C671.107422,987.948364 671.184937,990.190430 669.610474,993.018677 
	C665.001587,1001.297302 660.699951,1009.747559 656.311646,1018.148132 
	C654.585876,1021.451599 652.949768,1024.801880 651.020691,1028.631470 
	C655.997437,1028.631470 660.185913,1028.962524 664.279663,1028.483887 
	C666.161865,1028.263794 668.621277,1026.883911 669.510559,1025.296875 
	C673.978027,1017.323669 677.950256,1009.074585 682.265381,1001.012939 
	C682.945740,999.741882 684.370911,998.438049 685.686401,998.119812 
	C686.348389,997.959717 687.817688,999.832275 688.442810,1001.034729 
	C692.583618,1008.999573 696.543457,1017.058655 700.696960,1025.016724 
	C701.401184,1026.366089 702.688232,1028.300903 703.821228,1028.383423 
	C708.859802,1028.750610 713.940186,1028.542847 719.913940,1028.542847 
	C715.335327,1019.777771 711.951477,1011.542786 707.052368,1004.338196 
	C699.918030,993.846680 698.637024,984.043579 706.966614,973.843689 
	C707.170837,973.593689 707.256958,973.247192 707.779419,972.304077 
M1136.629883,968.479370 
	C1138.162231,970.183289 1139.648071,971.932495 1141.245972,973.572510 
	C1142.082764,974.431213 1143.086426,975.699280 1144.066772,975.748657 
	C1148.652954,975.979858 1153.257080,975.851379 1159.400757,975.851379 
	C1157.224121,971.277100 1156.016357,967.474487 1153.831787,964.355957 
	C1140.982056,946.012024 1107.988647,949.046753 1097.246582,969.534180 
	C1092.375000,978.825317 1091.464844,988.767517 1092.907715,999.111755 
	C1097.291748,1030.543701 1128.169556,1034.891479 1145.188110,1025.649658 
	C1153.274902,1021.258179 1157.696289,1014.183655 1159.254639,1004.391602 
	C1154.103516,1004.391602 1149.494629,1004.258484 1144.905273,1004.499084 
	C1143.937500,1004.549805 1142.478638,1005.809143 1142.198364,1006.785095 
	C1138.942749,1018.122620 1119.172485,1018.296875 1112.965332,1007.796204 
	C1108.073120,999.520081 1107.593384,990.752014 1109.838501,981.795166 
	C1113.042603,969.012756 1123.410034,963.730591 1136.629883,968.479370 
M491.527130,964.064880 
	C492.426727,960.898132 493.326294,957.731384 494.343384,954.150879 
	C488.753754,954.150879 483.669830,954.150879 478.343872,954.150879 
	C477.859833,955.702576 477.333282,957.248962 476.894318,958.819824 
	C472.332336,975.144043 467.827423,991.484497 463.179443,1007.784180 
	C462.583191,1009.875183 463.224976,1013.687561 459.465912,1012.894531 
	C458.008209,1012.587036 456.555237,1009.866150 456.013611,1007.982178 
	C451.238007,991.370850 446.706604,974.689392 441.973572,958.065552 
	C441.539581,956.541321 440.307007,954.170837 439.272186,954.075684 
	C434.574402,953.643616 429.814514,953.886414 424.906982,953.886414 
	C425.030579,955.256531 424.981995,955.941528 425.163910,956.558594 
	C431.932617,979.515503 438.760559,1002.455078 445.457458,1025.432861 
	C446.221741,1028.055054 447.619843,1028.723755 450.123047,1028.671509 
	C456.283539,1028.542847 462.451935,1028.510254 468.610199,1028.684814 
	C471.392639,1028.763672 472.739807,1027.875244 473.540253,1025.102539 
	C479.348541,1004.983398 485.316193,984.910095 491.527130,964.064880 
M256.540131,967.854675 
	C261.479584,967.854675 266.419006,967.854675 271.474731,967.854675 
	C271.474731,962.879211 271.474731,958.509460 271.474731,954.111633 
	C250.853012,954.111633 230.619492,954.111633 210.214325,954.111633 
	C210.214325,958.743042 210.214325,963.102844 210.214325,967.933777 
	C217.817810,967.933777 225.064499,967.933777 232.817642,967.933777 
	C232.817642,988.281006 232.817642,1008.161316 232.817642,1028.625977 
	C236.946381,1028.625977 240.579086,1028.423584 244.178436,1028.683472 
	C247.709335,1028.938232 248.727081,1027.606201 248.692810,1024.142578 
	C248.536484,1008.340454 248.623840,992.535950 248.623611,976.732239 
	C248.623581,973.956970 248.623596,971.181641 248.623596,967.854553 
	C251.318939,967.854553 253.435806,967.854553 256.540131,967.854675 
M1024.500000,1028.629395 
	C1030.992432,1028.629639 1037.490967,1028.774292 1043.972168,1028.504517 
	C1045.223022,1028.452515 1047.333618,1026.883057 1047.453857,1025.831665 
	C1047.881470,1022.090576 1047.620850,1018.270874 1047.620850,1013.970947 
	C1034.208862,1013.970947 1021.319458,1013.970947 1007.945801,1013.970947 
	C1007.945801,993.734131 1007.945801,974.012756 1007.945801,954.291748 
	C1002.424927,954.291748 997.407715,954.291748 992.414062,954.291748 
	C992.414062,979.149109 992.414062,1003.554016 992.414062,1028.629028 
	C1002.952332,1028.629028 1013.226196,1028.629028 1024.500000,1028.629395 
M1077.676880,961.633423 
	C1077.676880,959.177612 1077.676880,956.721802 1077.676880,954.100464 
	C1071.964844,954.100464 1066.789185,954.100464 1061.689453,954.100464 
	C1061.689453,979.120361 1061.689453,1003.682861 1061.689453,1028.313477 
	C1067.123657,1028.313477 1072.182861,1028.313477 1077.675903,1028.313477 
	C1077.675903,1006.167725 1077.675903,984.382690 1077.676880,961.633423 
z"/>
<path fill="#F9B81F" opacity="1.000000" stroke="none" 
	d="
M596.150269,228.096634 
	C635.207092,216.533615 674.637451,210.270447 715.029846,209.800003 
	C823.470215,208.537033 919.708496,242.371246 1002.680481,311.858643 
	C1081.513550,377.879822 1130.983398,461.998199 1151.126587,563.038086 
	C1153.302368,573.951599 1154.660889,585.032593 1156.238647,596.058838 
	C1157.032227,601.604675 1155.376709,603.722595 1150.036621,603.805908 
	C1139.707031,603.967163 1129.373047,603.841064 1119.040894,603.853271 
	C1114.327881,603.858826 1112.825684,600.941772 1112.341187,596.837952 
	C1109.681641,574.310852 1104.767334,552.263733 1098.086426,530.599670 
	C1056.192749,394.750549 942.855164,291.321381 803.732788,261.809296 
	C774.613464,255.632217 745.171021,252.488144 715.480774,253.264069 
	C620.248108,255.752899 536.019287,287.621124 464.156067,350.337097 
	C395.275360,410.450226 352.592499,485.941437 335.363586,575.753601 
	C333.985657,582.936462 332.895203,590.193604 332.107941,597.463562 
	C331.635468,601.826843 329.515076,603.801392 325.396606,603.826782 
	C315.064819,603.890625 304.730499,603.966309 294.401001,603.800354 
	C289.137177,603.715820 287.466431,601.271545 288.183289,595.404053 
	C293.154877,554.711365 302.872833,515.179993 319.330261,477.616241 
	C371.937592,357.540985 460.205475,275.632812 583.887817,231.999313 
	C587.805603,230.617142 591.800293,229.452972 596.150269,228.096634 
z"/>
<path fill="#010101" opacity="1.000000" stroke="none" 
	d="
M591.422180,509.417786 
	C605.889954,495.665924 621.783386,484.572021 639.416504,475.984985 
	C646.048462,472.755310 646.927246,468.807861 642.263245,463.043060 
	C592.772888,401.872070 622.943665,312.620087 699.196655,294.621460 
	C761.130798,280.002655 821.725037,324.882965 826.178894,388.653442 
	C828.084290,415.935272 820.375122,440.217316 803.502197,461.651672 
	C797.115967,469.764313 797.719482,472.097809 807.078979,476.939240 
	C853.574158,500.989899 885.412598,537.743530 902.431885,587.274170 
	C903.507629,590.405029 904.486572,593.593750 905.175415,596.826965 
	C906.104492,601.187744 904.514404,603.408020 900.252686,603.457581 
	C888.755981,603.591187 877.256470,603.477051 865.758362,603.523071 
	C862.161011,603.537476 860.998413,601.113342 860.025208,598.302795 
	C852.885498,577.682312 841.539856,559.604858 826.221558,544.165649 
	C803.505432,521.270142 776.122925,506.970886 744.185425,502.215790 
	C681.054077,492.816345 620.024658,524.759583 591.520386,581.793457 
	C588.931580,586.973572 586.750610,592.391907 584.818665,597.854614 
	C583.406616,601.847473 581.379822,603.741760 576.855042,603.606812 
	C566.532410,603.299011 556.194214,603.538208 545.862549,603.500671 
	C539.616638,603.478027 538.035217,601.427490 539.712952,595.448303 
	C548.568420,563.888733 564.592468,536.496460 587.638367,513.201050 
	C588.809937,512.016724 589.994141,510.844818 591.422180,509.417786 
M767.953247,356.570587 
	C752.165527,339.360474 732.706848,332.666718 709.813171,337.065002 
	C677.053040,343.358765 655.757080,376.846497 663.157227,409.853455 
	C670.409546,442.200897 703.973938,463.171783 735.866821,455.282013 
	C780.518860,444.235901 797.468933,393.131958 767.953247,356.570587 
z"/>
<path fill="#010101" opacity="1.000000" stroke="none" 
	d="
M621.002991,668.491455 
	C651.165588,668.491394 680.829285,668.380432 710.491638,668.534546 
	C727.138489,668.621033 743.298767,671.163574 757.883606,679.974976 
	C786.377502,697.189331 794.244019,737.686096 773.943420,763.035339 
	C771.885376,765.605286 769.299011,767.780884 766.808472,769.969727 
	C761.950806,774.239075 761.801270,779.247742 767.042419,782.862793 
	C787.511047,796.981140 794.249146,816.581970 789.752197,840.337097 
	C785.126648,864.771179 770.167175,880.376221 746.443542,886.882996 
	C736.606628,889.580933 726.170410,891.158142 715.978699,891.305603 
	C679.990479,891.826233 643.990173,891.511963 607.994446,891.503662 
	C599.743713,891.501770 597.497681,889.324585 597.496460,881.244019 
	C597.486633,813.752014 597.486267,746.260071 597.499634,678.768066 
	C597.501221,670.656006 599.717529,668.528015 608.005188,668.495728 
	C612.171265,668.479431 616.337402,668.491943 621.002991,668.491455 
M665.517883,840.163574 
	C678.506531,840.163513 691.498901,840.339478 704.481934,840.068542 
	C709.071167,839.972778 713.805176,839.329956 718.179626,837.983582 
	C727.162598,835.218811 731.372253,828.982483 731.110535,820.151733 
	C730.839294,811.002808 725.745239,804.393921 716.702698,802.211670 
	C712.866150,801.285767 708.814087,800.934692 704.854248,800.895203 
	C690.035339,800.747314 675.214050,800.829773 660.393616,800.846680 
	C658.956543,800.848328 657.519592,800.993713 656.194214,801.066223 
	C656.194214,814.291748 656.194214,827.166809 656.194214,840.163574 
	C659.208496,840.163574 661.865295,840.163574 665.517883,840.163574 
M725.073853,734.829834 
	C723.318359,725.369873 716.732605,720.260742 705.096558,720.052246 
	C689.805786,719.778320 674.508240,719.880127 659.213501,719.849365 
	C658.123535,719.847168 657.032959,720.082947 656.225708,720.175598 
	C656.225708,731.571167 656.225708,742.607178 656.225708,753.070374 
	C674.376404,753.070374 692.152588,753.603149 709.876282,752.868652 
	C720.349060,752.434631 724.947876,746.259766 725.073853,734.829834 
z"/>
<path fill="#010101" opacity="1.000000" stroke="none" 
	d="
M1057.168701,874.973328 
	C1057.166992,891.508667 1057.166992,891.508789 1041.054932,891.508545 
	C1030.055664,891.508362 1019.056152,891.544250 1008.057068,891.493286 
	C1001.478149,891.462891 999.008057,888.977051 999.006836,882.428406 
	C998.994080,814.099365 998.993469,745.770264 999.008057,677.441223 
	C999.009399,671.198730 1001.483154,668.513428 1007.738220,668.529907 
	C1043.892456,668.625061 1080.050171,668.575806 1116.198120,669.129211 
	C1129.617432,669.334595 1142.539551,672.937988 1154.379883,679.483215 
	C1174.442139,690.573547 1185.044800,708.087097 1187.411743,730.534119 
	C1189.991699,755.002136 1186.154419,777.851013 1167.478882,795.824280 
	C1153.780518,809.007507 1136.603149,814.777893 1118.099854,815.845581 
	C1099.832397,816.899658 1081.484741,816.565125 1063.172241,816.832703 
	C1061.359741,816.859192 1059.546509,816.836182 1057.168701,816.836182 
	C1057.168701,836.261658 1057.168701,855.370178 1057.168701,874.973328 
M1105.300781,765.005920 
	C1107.268188,764.686157 1109.257812,764.465332 1111.199341,764.030396 
	C1123.185913,761.345093 1128.597534,754.461548 1128.503662,742.105713 
	C1128.413330,730.214661 1122.819092,722.381409 1110.764648,721.304138 
	C1093.133789,719.728638 1075.349365,719.871094 1057.389160,719.273315 
	C1057.389160,735.211243 1057.389160,750.097900 1057.389160,765.046631 
	C1073.209351,765.046631 1088.806274,765.046631 1105.300781,765.005920 
z"/>
<path fill="#010101" opacity="1.000000" stroke="none" 
	d="
M450.559204,739.554016 
	C442.470642,742.698181 434.722321,745.656555 426.974823,748.617004 
	C419.168701,751.599792 415.864258,750.372925 412.015228,743.059204 
	C397.542603,715.559326 363.730804,706.886475 339.364685,724.613892 
	C326.778595,733.770874 319.889374,746.675415 316.771545,761.652893 
	C312.867767,780.405945 314.009094,798.808899 322.536560,816.178955 
	C331.548157,834.535217 346.526337,844.286804 367.109985,844.426025 
	C387.638916,844.564880 402.694092,835.195801 412.204865,816.991821 
	C416.565704,808.644958 419.146271,807.632996 428.145020,810.992188 
	C437.783081,814.590027 447.416473,818.200867 457.035553,821.849121 
	C465.131256,824.919434 466.974976,829.203186 463.339417,836.883179 
	C446.436127,872.590820 417.598450,891.158630 378.859680,894.925232 
	C357.190094,897.032104 335.972992,894.769104 316.013153,885.320251 
	C285.923309,871.076111 268.211487,846.737671 260.709442,814.964172 
	C251.811493,777.278442 255.294235,741.028320 278.044525,708.585144 
	C300.680267,676.305237 333.005463,663.274841 371.704346,664.659546 
	C395.093292,665.496338 416.485321,672.259094 434.987946,687.004150 
	C447.313995,696.827026 456.549866,709.094788 463.117920,723.373840 
	C465.870575,729.358093 463.855591,734.343872 457.898102,736.769897 
	C455.594543,737.708069 453.234283,738.506897 450.559204,739.554016 
z"/>
<path fill="#010101" opacity="1.000000" stroke="none" 
	d="
M856.999573,874.971802 
	C856.999573,823.034973 856.999573,771.593018 856.999573,719.836792 
	C841.562988,719.836792 826.601379,719.838928 811.639771,719.835999 
	C803.247009,719.834351 801.165527,717.708069 801.163757,709.144531 
	C801.161560,698.646118 801.132141,688.147583 801.174011,677.649353 
	C801.200012,671.132690 803.687744,668.524353 810.282104,668.518311 
	C860.941101,668.472046 911.600037,668.474792 962.259033,668.515991 
	C968.738464,668.521240 971.134399,671.105652 971.157593,677.750000 
	C971.195984,688.748169 971.196594,699.746704 971.157410,710.744873 
	C971.133972,717.326355 968.666504,719.813904 962.154724,719.826172 
	C946.680542,719.855469 931.206299,719.835632 915.168152,719.835632 
	C915.168152,721.935791 915.168152,723.712891 915.168152,725.489929 
	C915.168152,777.148743 915.169373,828.807617 915.167053,880.466431 
	C915.166626,889.646790 913.291382,891.504944 904.048096,891.507019 
	C891.883301,891.509705 879.718445,891.513245 867.553650,891.505188 
	C858.926086,891.499512 857.004456,889.572083 856.999756,880.965759 
	C856.998779,879.132751 856.999634,877.299683 856.999573,874.971802 
z"/>
<path fill="#F9B81F" opacity="1.000000" stroke="none" 
	d="
M570.467407,375.443359 
	C486.515320,424.697083 434.974823,496.652374 416.288086,591.872559 
	C413.941895,603.828003 414.953705,603.963928 401.757538,603.865173 
	C393.924927,603.806580 386.090424,603.932678 378.258728,603.828308 
	C372.314117,603.749084 370.398071,601.432373 371.281097,595.698914 
	C383.779449,514.550598 419.637573,445.492950 479.038177,388.854126 
	C513.187927,356.292053 552.589661,331.830444 596.681580,314.968506 
	C597.768555,314.552765 598.859009,313.955963 599.981018,313.868134 
	C601.505981,313.748871 603.063049,314.039337 604.606323,314.154083 
	C604.463379,315.845795 604.808411,317.786499 604.093872,319.186432 
	C600.845276,325.551239 596.816589,331.554871 593.984741,338.085724 
	C590.690125,345.683685 587.961060,353.587372 585.742126,361.568420 
	C584.429443,366.289948 582.521973,369.714722 577.835327,371.520416 
	C575.369934,372.470306 573.121704,373.983765 570.467407,375.443359 
z"/>
<path fill="#F9B81F" opacity="1.000000" stroke="none" 
	d="
M916.163940,349.843292 
	C994.235535,402.425629 1044.871216,473.882690 1067.293579,565.054199 
	C1069.828735,575.362732 1071.376099,585.921326 1073.188599,596.397339 
	C1074.062012,601.445740 1072.240356,603.716797 1067.183838,603.798645 
	C1056.859497,603.965881 1046.530396,603.810181 1036.203735,603.876709 
	C1031.611450,603.906250 1029.755981,601.394043 1029.112305,597.193420 
	C1024.339233,566.047363 1014.800842,536.375427 1000.597412,508.293976 
	C970.220825,448.236816 925.177368,402.452881 865.692871,370.945404 
	C862.373840,369.187378 860.184998,367.105896 859.325317,363.287750 
	C855.819641,347.717865 849.382935,333.365875 840.924377,319.859619 
	C840.022034,318.418762 840.140137,316.338867 839.784790,314.555450 
	C841.750732,314.409912 843.963928,313.596527 845.645569,314.219055 
	C870.378601,323.374725 893.808960,335.154602 916.163940,349.843292 
z"/>
<path fill="#F9B81F" opacity="1.000000" stroke="none" 
	d="
M851.393799,453.430939 
	C854.577026,443.248383 857.880737,433.500397 860.621582,423.596588 
	C862.631226,416.334747 865.174500,414.934723 871.349365,419.021118 
	C910.432922,444.885895 941.059937,478.462738 963.048462,519.871643 
	C975.690186,543.678467 984.442017,568.862976 989.568665,595.318542 
	C990.740967,601.368286 988.923584,603.773560 982.733765,603.830566 
	C973.077698,603.919556 963.414978,603.667480 953.765320,603.932495 
	C948.669373,604.072388 946.200012,602.025391 945.143921,597.108704 
	C938.518555,566.262878 925.594421,538.211182 907.128174,512.692932 
	C892.765076,492.844818 875.597900,475.770996 855.726746,461.442566 
	C853.024170,459.493744 850.714294,457.541809 851.393799,453.430939 
z"/>
<path fill="#F9B81F" opacity="1.000000" stroke="none" 
	d="
M550.858826,495.870361 
	C524.864929,525.719849 507.594360,559.612793 499.173431,597.935608 
	C498.227478,602.240540 496.011902,603.707764 491.900116,603.660217 
	C482.404083,603.550476 472.905975,603.631836 463.408691,603.622925 
	C455.112274,603.615234 453.642517,601.869873 455.271484,593.804138 
	C460.910156,565.885010 470.478607,539.392944 484.401794,514.529114 
	C506.115906,475.752228 535.581299,444.124023 572.524963,419.447845 
	C579.508667,414.783112 582.106689,416.145386 584.121399,424.240082 
	C586.283081,432.925476 589.063599,441.474640 591.945862,449.956970 
	C594.012573,456.039276 593.526917,457.389160 588.842041,461.512177 
	C576.114502,472.713043 563.649719,484.212433 550.858826,495.870361 
z"/>
<path fill="#010101" opacity="1.000000" stroke="none" 
	d="
M554.625671,721.010010 
	C554.696472,722.668884 554.828857,724.327820 554.829224,725.986694 
	C554.840088,777.622253 554.839355,829.257874 554.836548,880.893433 
	C554.836060,889.404419 552.744629,891.501343 544.226746,891.507690 
	C530.734863,891.517822 517.242920,891.529175 503.751129,891.500244 
	C496.551971,891.484802 494.169495,889.101685 494.167297,881.961182 
	C494.156799,847.981628 494.217102,814.001892 494.091522,780.022766 
	C494.076080,775.839172 495.351532,772.812256 498.472443,770.033752 
	C516.613831,753.882019 534.630920,737.590698 553.225098,721.204102 
	C554.049072,721.051025 554.337585,721.033813 554.625671,721.010010 
z"/>
<path fill="#030303" opacity="1.000000" stroke="none" 
	d="
M618.597656,1164.451904 
	C612.389587,1153.043457 606.450195,1141.908325 600.301575,1130.889893 
	C599.414246,1129.299805 597.520874,1128.270996 596.093079,1126.982422 
	C595.697144,1127.313843 595.301270,1127.645386 594.905396,1127.976807 
	C594.905396,1152.763428 594.905396,1177.549927 594.905396,1202.669678 
	C587.699829,1202.669678 580.780884,1202.669678 573.507629,1202.669678 
	C573.507629,1165.806763 573.507629,1128.766724 573.507629,1091.164062 
	C583.012817,1091.164062 592.459717,1091.036255 601.894348,1091.319214 
	C603.129089,1091.356445 604.677673,1093.295044 605.445129,1094.700195 
	C617.945312,1117.585938 630.360535,1140.518188 642.736206,1163.471802 
	C643.958557,1165.738892 644.905884,1168.018311 648.537109,1166.432129 
	C648.537109,1141.541260 648.537109,1116.609619 648.537109,1091.420166 
	C655.703125,1091.420166 662.465637,1091.420166 669.617920,1091.420166 
	C669.617920,1128.341064 669.617920,1165.385376 669.617920,1202.997559 
	C660.197754,1202.997559 650.597595,1203.100586 641.006226,1202.857788 
	C639.898804,1202.829834 638.509155,1201.061890 637.810242,1199.792480 
	C631.402771,1188.154663 625.118958,1176.448853 618.597656,1164.451904 
z"/>
<path fill="#010101" opacity="1.000000" stroke="none" 
	d="
M753.987671,1156.001953 
	C742.677917,1156.001953 731.866394,1156.001953 720.784058,1156.001953 
	C720.784058,1164.704346 720.784058,1173.110229 720.784058,1181.924805 
	C740.829346,1181.924805 760.934143,1181.924805 781.272827,1181.924805 
	C781.272827,1189.090332 781.272827,1195.850708 781.272827,1202.807129 
	C753.281616,1202.807129 725.491943,1202.807129 697.349976,1202.807129 
	C697.349976,1165.857300 697.349976,1128.803101 697.349976,1091.454834 
	C724.532104,1091.454834 751.789612,1091.454834 779.443481,1091.454834 
	C779.443481,1098.066040 779.443481,1104.784790 779.443481,1111.981445 
	C760.138245,1111.981445 740.734070,1111.981445 720.921814,1111.981445 
	C720.921814,1119.953979 720.921814,1127.464355 720.921814,1135.464355 
	C736.131104,1135.464355 751.220337,1135.464355 766.569397,1135.464355 
	C766.569397,1142.368896 766.569397,1148.795776 766.569397,1156.001953 
	C762.640503,1156.001953 758.563232,1156.001953 753.987671,1156.001953 
z"/>
<path fill="#020202" opacity="1.000000" stroke="none" 
	d="
M901.828064,1144.000000 
	C901.828064,1126.215576 901.828064,1108.931152 901.828064,1091.159302 
	C909.360718,1091.159302 916.477722,1091.080688 923.592407,1091.176514 
	C936.236206,1091.346802 948.959045,1090.798950 961.504822,1092.024902 
	C988.190857,1094.632690 1001.906677,1121.222900 989.296204,1145.022583 
	C982.337830,1158.155273 970.187866,1162.389893 956.397278,1162.924072 
	C946.135437,1163.321777 935.845764,1163.002563 925.328491,1163.002563 
	C925.328491,1176.433594 925.328491,1189.383545 925.328491,1202.667969 
	C917.530029,1202.667969 909.966431,1202.667969 901.828064,1202.667969 
	C901.828064,1183.326172 901.828064,1163.913086 901.828064,1144.000000 
M950.373169,1142.264771 
	C953.321655,1141.885620 956.355164,1141.824707 959.201721,1141.064087 
	C966.117798,1139.216064 969.203552,1134.640625 969.154663,1126.977173 
	C969.108215,1119.703247 965.959106,1114.152466 959.315796,1113.368652 
	C948.084595,1112.043213 936.694702,1112.062988 925.403320,1111.518677 
	C925.403320,1122.489502 925.403320,1132.237305 925.403320,1142.467285 
	C933.561462,1142.467285 941.492676,1142.467285 950.373169,1142.264771 
z"/>
<path fill="#030303" opacity="1.000000" stroke="none" 
	d="
M476.504272,1135.887695 
	C474.851501,1146.656372 474.930084,1156.875488 479.008575,1166.735718 
	C484.595398,1180.242432 498.056366,1186.883057 511.986511,1183.177124 
	C520.227966,1180.984375 524.915161,1175.466797 527.190613,1167.157959 
	C531.190063,1167.157959 535.144104,1167.157959 539.098145,1167.157959 
	C543.062500,1167.157959 547.026917,1167.157959 550.990356,1167.157959 
	C550.819702,1181.687256 539.233093,1196.733521 523.875732,1201.935425 
	C495.626190,1211.504272 456.618683,1201.489746 451.766724,1156.572632 
	C450.659973,1146.326904 451.229065,1136.291748 453.992157,1126.409424 
	C461.611084,1099.159790 484.450958,1087.061890 509.963654,1089.566528 
	C531.381226,1091.669067 544.749817,1102.514893 549.686584,1120.374390 
	C549.949463,1121.325439 550.042908,1122.323364 550.338989,1124.000000 
	C542.521545,1124.000000 534.968140,1124.044189 527.417053,1123.930420 
	C526.672546,1123.919312 525.694031,1123.097656 525.242615,1122.386475 
	C516.287903,1108.277954 498.219818,1105.883789 486.179016,1117.206909 
	C480.862091,1122.206909 478.098297,1128.485962 476.504272,1135.887695 
z"/>
<path fill="#020202" opacity="1.000000" stroke="none" 
	d="
M833.000122,1091.159912 
	C850.460022,1091.159912 867.419983,1091.159912 884.690674,1091.159912 
	C884.690674,1098.147339 884.690674,1104.859497 884.690674,1111.885254 
	C873.372864,1111.885254 862.104187,1111.885254 850.441284,1111.885254 
	C850.441284,1142.249634 850.441284,1172.311401 850.441284,1202.687500 
	C842.489014,1202.687500 834.925537,1202.687500 826.932861,1202.687500 
	C826.932861,1172.661255 826.932861,1142.618652 826.932861,1112.168945 
	C815.272217,1112.168945 804.023682,1112.168945 792.470215,1112.168945 
	C792.470215,1105.055664 792.470215,1098.349609 792.470215,1091.159912 
	C805.944702,1091.159912 819.222351,1091.159912 833.000122,1091.159912 
z"/>
<path fill="#F9B921" opacity="1.000000" stroke="none" 
	d="
M915.835510,973.000488 
	C915.835449,966.524536 915.835449,960.548462 915.835449,954.618347 
	C916.587036,954.294739 917.023376,953.943115 917.460083,953.942688 
	C929.956726,953.930786 942.467957,953.581665 954.946106,954.070923 
	C968.984131,954.621338 977.658813,965.159424 974.806458,978.007751 
	C974.068848,981.330200 971.601868,984.459595 969.341797,987.191650 
	C967.601501,989.295532 967.512512,990.403625 969.706543,991.918884 
	C977.577698,997.355042 978.858765,1005.070801 976.554504,1013.598633 
	C974.178406,1022.392273 967.411682,1027.178711 958.991821,1027.665771 
	C944.914001,1028.479858 930.754822,1027.888184 915.835571,1027.888184 
	C915.835571,1009.990479 915.835571,991.745422 915.835510,973.000488 
M960.592224,1009.588623 
	C961.825745,1002.623779 960.392151,998.073914 955.405945,997.555176 
	C947.651489,996.748596 939.751404,997.341919 932.034973,997.341919 
	C932.034973,1003.285095 932.034973,1008.983704 932.034973,1014.867493 
	C938.719788,1014.867493 945.052551,1015.354248 951.253845,1014.662354 
	C954.357056,1014.316101 957.220337,1011.819397 960.592224,1009.588623 
M947.282104,967.003235 
	C942.167969,967.003235 937.053894,967.003235 932.064941,967.003235 
	C932.064941,972.737915 932.064941,977.786255 932.064941,983.020447 
	C938.813049,983.020447 945.141846,983.315430 951.430542,982.939026 
	C957.986023,982.546631 961.304565,976.535706 958.246948,971.135925 
	C956.027222,967.215881 952.151917,966.948059 947.282104,967.003235 
z"/>
<path fill="#050505" opacity="1.000000" stroke="none" 
	d="
M554.727295,720.550598 
	C554.337585,721.033813 554.049072,721.051025 553.543579,721.069397 
	C551.863586,720.721375 550.401794,720.063721 548.936646,720.056335 
	C533.948914,719.980103 518.960693,720.027771 503.972687,720.001709 
	C496.581818,719.988892 494.161041,717.526245 494.153961,710.122986 
	C494.143616,699.298279 494.131592,688.473450 494.158203,677.648804 
	C494.174103,671.169006 496.676605,668.540344 503.219513,668.500671 
	C517.374390,668.414795 531.530518,668.414551 545.685364,668.501038 
	C552.380249,668.541870 554.829834,671.205872 554.840759,678.124756 
	C554.862854,692.113525 554.835754,706.102356 554.727295,720.550598 
z"/>
<path fill="#F9B920" opacity="1.000000" stroke="none" 
	d="
M333.788818,998.111389 
	C337.258331,1008.200928 340.647552,1017.905701 344.348328,1028.502563 
	C339.175232,1028.502563 334.457947,1028.681274 329.776520,1028.351196 
	C328.845825,1028.285522 327.723694,1026.394897 327.250793,1025.135254 
	C324.740570,1018.448669 322.124420,1011.778076 320.124298,1004.932739 
	C318.952972,1000.923767 316.916840,999.780212 312.982941,1000.073486 
	C308.395233,1000.415527 303.762512,1000.153381 298.627167,1000.153381 
	C298.627167,1008.556274 298.479248,1016.348328 298.694763,1024.130371 
	C298.790588,1027.590698 297.728577,1028.941284 294.184265,1028.684448 
	C290.577850,1028.422852 286.937683,1028.626587 283.110535,1028.626587 
	C283.110535,1003.490051 283.110535,978.940918 283.110535,954.192871 
	C297.135223,954.192871 310.937714,953.540588 324.642334,954.417480 
	C334.106293,955.023132 341.273926,960.525574 343.389648,970.402466 
	C345.458893,980.062378 344.079010,988.983398 335.592072,995.551697 
	C334.848480,996.127136 334.331024,996.994690 333.788818,998.111389 
M323.567902,985.388489 
	C328.052277,983.031006 328.965240,978.762085 327.633392,974.728088 
	C326.800598,972.205627 323.791840,968.888123 321.476746,968.647583 
	C314.016785,967.872375 306.425781,968.358765 298.904785,968.358765 
	C298.904785,974.650085 298.904785,980.569031 298.904785,987.525879 
	C307.110138,986.918579 314.981140,986.336060 323.567902,985.388489 
z"/>
<path fill="#F9B921" opacity="1.000000" stroke="none" 
	d="
M1195.139038,981.135925 
	C1201.242920,982.321350 1206.989624,983.250793 1212.647583,984.562683 
	C1225.281250,987.491760 1231.344116,994.297485 1231.627563,1005.518005 
	C1231.905151,1016.500305 1224.939819,1025.131592 1213.054443,1028.332031 
	C1203.605347,1030.876465 1194.237549,1030.394775 1185.153687,1026.773071 
	C1175.890991,1023.079956 1169.739868,1014.204407 1170.387573,1005.388367 
	C1174.637695,1005.388367 1178.941772,1005.224365 1183.217285,1005.501892 
	C1184.306641,1005.572632 1185.682861,1006.832214 1186.285156,1007.905823 
	C1190.843628,1016.031006 1204.634521,1019.295837 1211.956909,1013.391418 
	C1213.933105,1011.797974 1215.679932,1008.142395 1215.266602,1005.840027 
	C1214.811157,1003.302124 1212.156006,999.999817 1209.740845,999.200500 
	C1203.638428,997.180847 1197.130371,996.392090 1190.789917,995.085693 
	C1178.706177,992.595886 1172.704956,986.309265 1172.202271,975.644165 
	C1171.729370,965.611328 1178.293213,956.358582 1189.387939,954.145203 
	C1196.494507,952.727478 1204.316406,952.753296 1211.446045,954.099976 
	C1221.914307,956.077271 1227.405151,962.918579 1229.885986,974.544006 
	C1224.839844,974.544006 1219.973389,974.621399 1215.114990,974.457581 
	C1214.414307,974.433960 1213.593262,973.353149 1213.098022,972.586975 
	C1208.737061,965.839172 1198.097900,963.453064 1191.757690,968.322388 
	C1189.945435,969.714233 1187.958252,973.242859 1188.558472,974.862488 
	C1189.479980,977.348450 1192.571167,979.030334 1195.139038,981.135925 
z"/>
<path fill="#F9B921" opacity="1.000000" stroke="none" 
	d="
M851.157349,993.945923 
	C851.157654,995.935242 851.153992,997.434509 851.158752,998.933716 
	C851.199036,1011.560120 859.802979,1018.127502 872.070618,1014.896851 
	C878.212219,1013.279480 881.940002,1008.420593 882.038635,1001.021912 
	C882.220764,987.364807 882.119446,973.703979 882.135498,960.044678 
	C882.137573,958.238159 882.135742,956.431641 882.135742,954.236084 
	C887.395142,954.236084 892.301514,954.236084 897.375244,954.236084 
	C897.434021,954.305664 897.832397,954.557007 897.832764,954.809021 
	C897.860535,971.462830 898.261902,988.129883 897.719666,1004.766113 
	C897.321838,1016.973450 889.998352,1025.135742 878.213257,1028.338867 
	C869.808899,1030.623169 861.367737,1030.480103 853.103088,1027.819092 
	C843.974609,1024.879761 836.966309,1018.605164 836.441650,1009.154907 
	C835.431335,990.958374 836.147156,972.666016 836.147156,954.126099 
	C840.594543,954.126099 845.513489,954.126099 851.157288,954.126099 
	C851.157288,967.279785 851.157288,980.367798 851.157349,993.945923 
z"/>
<path fill="#F9B921" opacity="1.000000" stroke="none" 
	d="
M583.139648,1019.796387 
	C581.182678,1015.085754 578.113770,1010.701477 577.961426,1006.218140 
	C577.375610,988.979858 577.724060,971.709839 577.724060,954.146729 
	C582.552917,954.146729 587.468994,954.146729 593.159119,954.146729 
	C593.159119,955.899536 593.159241,957.651245 593.159119,959.403015 
	C593.158325,972.888550 593.129028,986.374207 593.166138,999.859680 
	C593.193787,1009.891296 598.716125,1015.496704 608.483826,1015.526428 
	C618.414490,1015.556641 623.935913,1010.316772 624.056335,1000.146729 
	C624.235535,985.013916 624.102783,969.877441 624.102783,954.291748 
	C629.405762,954.291748 634.423462,954.291748 640.006653,954.291748 
	C640.006653,962.394836 640.015198,970.502991 640.004211,978.611084 
	C639.993347,986.601990 640.179688,994.600708 639.894226,1002.582214 
	C639.348328,1017.844299 631.144958,1026.914551 616.009460,1029.121216 
	C603.848267,1030.894287 592.387146,1029.803467 583.139648,1019.796387 
z"/>
<path fill="#F9B920" opacity="1.000000" stroke="none" 
	d="
M759.996582,981.000000 
	C759.996582,971.859985 759.996582,963.219910 759.996582,954.287048 
	C761.363342,954.119141 762.459778,953.866272 763.555786,953.868042 
	C775.381775,953.887146 787.228882,953.529175 799.027222,954.125427 
	C808.615845,954.610046 816.663330,958.791931 819.694946,968.640564 
	C822.694092,978.383179 821.973022,987.861511 813.962646,995.382324 
	C808.542114,1000.471619 801.595581,1001.612366 794.506409,1001.823425 
	C788.538269,1002.001221 782.560669,1001.860107 776.010803,1001.860107 
	C776.010803,1010.746765 776.010803,1019.315125 776.010803,1028.248291 
	C770.531982,1028.248291 765.621277,1028.248291 759.996582,1028.248291 
	C759.996582,1012.658386 759.996582,997.079163 759.996582,981.000000 
M777.817383,987.824768 
	C784.615417,987.560242 791.480408,987.785156 798.189087,986.867432 
	C803.059021,986.201172 805.152283,982.364807 804.988220,977.262512 
	C804.834473,972.480103 802.442932,968.800659 797.825806,968.389954 
	C790.644348,967.751160 783.364258,968.221130 775.351685,968.221130 
	C775.888000,975.022095 776.387573,981.356995 777.817383,987.824768 
z"/>
<path fill="#F9B920" opacity="1.000000" stroke="none" 
	d="
M359.019531,1008.013794 
	C364.365723,991.168213 369.752563,974.752319 374.795105,958.231262 
	C375.875092,954.692810 377.456177,953.571777 381.027557,953.768677 
	C386.504425,954.070496 392.019135,953.676819 397.497833,953.961670 
	C398.885376,954.033875 401.038727,955.282043 401.420258,956.452637 
	C409.133728,980.118225 416.639832,1003.851318 424.486084,1028.509277 
	C419.223083,1028.509277 414.504242,1028.682617 409.820038,1028.357178 
	C408.927612,1028.295166 407.836395,1026.375854 407.413483,1025.119385 
	C405.877625,1020.556885 404.804108,1015.827881 403.073212,1011.348328 
	C402.542816,1009.975769 400.500214,1008.356934 399.087524,1008.295715 
	C391.942596,1007.986267 384.772186,1008.305603 377.621185,1008.076904 
	C374.796753,1007.986633 373.864410,1009.298706 373.214417,1011.609192 
	C371.910156,1016.245544 370.690918,1020.928589 368.960999,1025.408813 
	C368.428894,1026.786743 366.436920,1028.308228 364.964996,1028.478027 
	C361.202576,1028.912354 357.356567,1028.622803 352.577362,1028.622803 
	C354.818115,1021.499756 356.877655,1014.952820 359.019531,1008.013794 
M388.464905,968.989502 
	C387.516876,969.441345 385.940826,969.688721 385.716949,970.376404 
	C383.183838,978.156982 380.857788,986.004944 378.348969,994.253479 
	C385.371735,994.253479 391.500671,994.253479 398.076019,994.253479 
	C395.682953,986.362000 393.476807,978.949036 391.147461,971.574951 
	C390.846375,970.621704 389.908173,969.869690 388.464905,968.989502 
z"/>
<path fill="#F9B920" opacity="1.000000" stroke="none" 
	d="
M546.380859,1015.601501 
	C545.778259,1009.531555 542.966125,1007.403381 537.094421,1008.021118 
	C531.332764,1008.627197 525.452576,1008.302612 519.634949,1008.093445 
	C516.951904,1007.996948 515.789978,1009.021973 515.131775,1011.472900 
	C513.883057,1016.122925 512.546387,1020.760681 510.946564,1025.297852 
	C510.491425,1026.588867 509.075684,1028.361328 507.972748,1028.458130 
	C503.746674,1028.829102 499.468658,1028.608154 494.538574,1028.608154 
	C495.896057,1024.052856 496.957458,1020.271301 498.148499,1016.531006 
	C504.396149,996.910828 510.735657,977.319519 516.879944,957.667175 
	C517.766663,954.831116 518.946960,953.639587 522.041016,953.774475 
	C527.855164,954.028076 533.693665,953.713989 539.509216,953.950745 
	C540.771057,954.002075 542.518555,955.098145 543.099426,956.206970 
	C544.318176,958.533569 544.947754,961.176392 545.754150,963.710144 
	C552.542297,985.039124 559.315796,1006.372742 566.367676,1028.567261 
	C561.209595,1028.567261 556.639343,1028.741211 552.102417,1028.429443 
	C551.122925,1028.362061 549.871948,1026.692749 549.425110,1025.505615 
	C548.257996,1022.405273 547.466919,1019.163269 546.380859,1015.601501 
M534.937012,977.492065 
	C534.255859,975.265442 533.734619,972.969299 532.812988,970.847168 
	C532.456238,970.025757 531.155151,969.066345 530.350952,969.122620 
	C529.287048,969.197021 527.637695,969.997009 527.363525,970.847412 
	C524.882996,978.541382 522.647949,986.314575 520.257996,994.343384 
	C527.047058,994.343384 533.260742,994.343384 539.965698,994.343384 
	C538.256592,988.712158 536.674133,983.498169 534.937012,977.492065 
z"/>
<path fill="#F9B921" opacity="1.000000" stroke="none" 
	d="
M707.588745,972.624878 
	C707.256958,973.247192 707.170837,973.593689 706.966614,973.843689 
	C698.637024,984.043579 699.918030,993.846680 707.052368,1004.338196 
	C711.951477,1011.542786 715.335327,1019.777771 719.913940,1028.542847 
	C713.940186,1028.542847 708.859802,1028.750610 703.821228,1028.383423 
	C702.688232,1028.300903 701.401184,1026.366089 700.696960,1025.016724 
	C696.543457,1017.058655 692.583618,1008.999573 688.442810,1001.034729 
	C687.817688,999.832275 686.348389,997.959717 685.686401,998.119812 
	C684.370911,998.438049 682.945740,999.741882 682.265381,1001.012939 
	C677.950256,1009.074585 673.978027,1017.323669 669.510559,1025.296875 
	C668.621277,1026.883911 666.161865,1028.263794 664.279663,1028.483887 
	C660.185913,1028.962524 655.997437,1028.631470 651.020691,1028.631470 
	C652.949768,1024.801880 654.585876,1021.451599 656.311646,1018.148132 
	C660.699951,1009.747559 665.001587,1001.297302 669.610474,993.018677 
	C671.184937,990.190430 671.107422,987.948364 669.654114,985.156372 
	C664.378601,975.021851 659.315918,964.776489 653.812805,953.858398 
	C659.167236,953.858398 663.777039,953.649536 668.344055,953.998718 
	C669.553406,954.091187 671.032104,955.689819 671.703003,956.958557 
	C675.354980,963.865112 678.720886,970.922913 682.369995,977.831116 
	C683.040894,979.101196 684.437195,980.414612 685.741882,980.743713 
	C686.395325,980.908569 687.862549,979.044983 688.506287,977.852844 
	C692.140015,971.124573 695.767883,964.386108 699.113464,957.512634 
	C700.467834,954.729919 702.130432,953.550354 705.252930,953.780884 
	C708.887451,954.049255 712.557007,953.843445 717.141541,953.843445 
	C713.837402,960.358704 710.808411,966.331360 707.588745,972.624878 
z"/>
<path fill="#F9B921" opacity="1.000000" stroke="none" 
	d="
M1136.280151,968.290161 
	C1123.410034,963.730591 1113.042603,969.012756 1109.838501,981.795166 
	C1107.593384,990.752014 1108.073120,999.520081 1112.965332,1007.796204 
	C1119.172485,1018.296875 1138.942749,1018.122620 1142.198364,1006.785095 
	C1142.478638,1005.809143 1143.937500,1004.549805 1144.905273,1004.499084 
	C1149.494629,1004.258484 1154.103516,1004.391602 1159.254639,1004.391602 
	C1157.696289,1014.183655 1153.274902,1021.258179 1145.188110,1025.649658 
	C1128.169556,1034.891479 1097.291748,1030.543701 1092.907715,999.111755 
	C1091.464844,988.767517 1092.375000,978.825317 1097.246582,969.534180 
	C1107.988647,949.046753 1140.982056,946.012024 1153.831787,964.355957 
	C1156.016357,967.474487 1157.224121,971.277100 1159.400757,975.851379 
	C1153.257080,975.851379 1148.652954,975.979858 1144.066772,975.748657 
	C1143.086426,975.699280 1142.082764,974.431213 1141.245972,973.572510 
	C1139.648071,971.932495 1138.162231,970.183289 1136.280151,968.290161 
z"/>
<path fill="#F9B921" opacity="1.000000" stroke="none" 
	d="
M491.380280,964.443604 
	C485.316193,984.910095 479.348541,1004.983398 473.540253,1025.102539 
	C472.739807,1027.875244 471.392639,1028.763672 468.610199,1028.684814 
	C462.451935,1028.510254 456.283539,1028.542847 450.123047,1028.671509 
	C447.619843,1028.723755 446.221741,1028.055054 445.457458,1025.432861 
	C438.760559,1002.455078 431.932617,979.515503 425.163910,956.558594 
	C424.981995,955.941528 425.030579,955.256531 424.906982,953.886414 
	C429.814514,953.886414 434.574402,953.643616 439.272186,954.075684 
	C440.307007,954.170837 441.539581,956.541321 441.973572,958.065552 
	C446.706604,974.689392 451.238007,991.370850 456.013611,1007.982178 
	C456.555237,1009.866150 458.008209,1012.587036 459.465912,1012.894531 
	C463.224976,1013.687561 462.583191,1009.875183 463.179443,1007.784180 
	C467.827423,991.484497 472.332336,975.144043 476.894318,958.819824 
	C477.333282,957.248962 477.859833,955.702576 478.343872,954.150879 
	C483.669830,954.150879 488.753754,954.150879 494.343384,954.150879 
	C493.326294,957.731384 492.426727,960.898132 491.380280,964.443604 
z"/>
<path fill="#F9B81F" opacity="1.000000" stroke="none" 
	d="
M256.046387,967.854614 
	C253.435806,967.854553 251.318939,967.854553 248.623596,967.854553 
	C248.623596,971.181641 248.623581,973.956970 248.623611,976.732239 
	C248.623840,992.535950 248.536484,1008.340454 248.692810,1024.142578 
	C248.727081,1027.606201 247.709335,1028.938232 244.178436,1028.683472 
	C240.579086,1028.423584 236.946381,1028.625977 232.817642,1028.625977 
	C232.817642,1008.161316 232.817642,988.281006 232.817642,967.933777 
	C225.064499,967.933777 217.817810,967.933777 210.214325,967.933777 
	C210.214325,963.102844 210.214325,958.743042 210.214325,954.111633 
	C230.619492,954.111633 250.853012,954.111633 271.474731,954.111633 
	C271.474731,958.509460 271.474731,962.879211 271.474731,967.854675 
	C266.419006,967.854675 261.479584,967.854675 256.046387,967.854614 
z"/>
<path fill="#F9B921" opacity="1.000000" stroke="none" 
	d="
M1024.000000,1028.629150 
	C1013.226196,1028.629028 1002.952332,1028.629028 992.414062,1028.629028 
	C992.414062,1003.554016 992.414062,979.149109 992.414062,954.291748 
	C997.407715,954.291748 1002.424927,954.291748 1007.945801,954.291748 
	C1007.945801,974.012756 1007.945801,993.734131 1007.945801,1013.970947 
	C1021.319458,1013.970947 1034.208862,1013.970947 1047.620850,1013.970947 
	C1047.620850,1018.270874 1047.881470,1022.090576 1047.453857,1025.831665 
	C1047.333618,1026.883057 1045.223022,1028.452515 1043.972168,1028.504517 
	C1037.490967,1028.774292 1030.992432,1028.629639 1024.000000,1028.629150 
z"/>
<path fill="#F9BC2C" opacity="1.000000" stroke="none" 
	d="
M1077.676392,962.115540 
	C1077.675903,984.382690 1077.675903,1006.167725 1077.675903,1028.313477 
	C1072.182861,1028.313477 1067.123657,1028.313477 1061.689453,1028.313477 
	C1061.689453,1003.682861 1061.689453,979.120361 1061.689453,954.100464 
	C1066.789185,954.100464 1071.964844,954.100464 1077.676880,954.100464 
	C1077.676880,956.721802 1077.676880,959.177612 1077.676392,962.115540 
z"/>
<path fill="#FEFEFE" opacity="1.000000" stroke="none" 
	d="
M768.192383,356.835449 
	C797.468933,393.131958 780.518860,444.235901 735.866821,455.282013 
	C703.973938,463.171783 670.409546,442.200897 663.157227,409.853455 
	C655.757080,376.846497 677.053040,343.358765 709.813171,337.065002 
	C732.706848,332.666718 752.165527,339.360474 768.192383,356.835449 
z"/>
<path fill="#FEFEFE" opacity="1.000000" stroke="none" 
	d="
M665.020020,840.163574 
	C661.865295,840.163574 659.208496,840.163574 656.194214,840.163574 
	C656.194214,827.166809 656.194214,814.291748 656.194214,801.066223 
	C657.519592,800.993713 658.956543,800.848328 660.393616,800.846680 
	C675.214050,800.829773 690.035339,800.747314 704.854248,800.895203 
	C708.814087,800.934692 712.866150,801.285767 716.702698,802.211670 
	C725.745239,804.393921 730.839294,811.002808 731.110535,820.151733 
	C731.372253,828.982483 727.162598,835.218811 718.179626,837.983582 
	C713.805176,839.329956 709.071167,839.972778 704.481934,840.068542 
	C691.498901,840.339478 678.506531,840.163513 665.020020,840.163574 
z"/>
<path fill="#FDFDFD" opacity="1.000000" stroke="none" 
	d="
M725.116577,735.263367 
	C724.947876,746.259766 720.349060,752.434631 709.876282,752.868652 
	C692.152588,753.603149 674.376404,753.070374 656.225708,753.070374 
	C656.225708,742.607178 656.225708,731.571167 656.225708,720.175598 
	C657.032959,720.082947 658.123535,719.847168 659.213501,719.849365 
	C674.508240,719.880127 689.805786,719.778320 705.096558,720.052246 
	C716.732605,720.260742 723.318359,725.369873 725.116577,735.263367 
z"/>
<path fill="#FDFDFD" opacity="1.000000" stroke="none" 
	d="
M1104.851929,765.026245 
	C1088.806274,765.046631 1073.209351,765.046631 1057.389160,765.046631 
	C1057.389160,750.097900 1057.389160,735.211243 1057.389160,719.273315 
	C1075.349365,719.871094 1093.133789,719.728638 1110.764648,721.304138 
	C1122.819092,722.381409 1128.413330,730.214661 1128.503662,742.105713 
	C1128.597534,754.461548 1123.185913,761.345093 1111.199341,764.030396 
	C1109.257812,764.465332 1107.268188,764.686157 1104.851929,765.026245 
z"/>
<path fill="#FDFDFD" opacity="1.000000" stroke="none" 
	d="
M949.898560,1142.365967 
	C941.492676,1142.467285 933.561462,1142.467285 925.403320,1142.467285 
	C925.403320,1132.237305 925.403320,1122.489502 925.403320,1111.518677 
	C936.694702,1112.062988 948.084595,1112.043213 959.315796,1113.368652 
	C965.959106,1114.152466 969.108215,1119.703247 969.154663,1126.977173 
	C969.203552,1134.640625 966.117798,1139.216064 959.201721,1141.064087 
	C956.355164,1141.824707 953.321655,1141.885620 949.898560,1142.365967 
z"/>
<path fill="#FFFEFD" opacity="1.000000" stroke="none" 
	d="
M960.392212,1009.942017 
	C957.220337,1011.819397 954.357056,1014.316101 951.253845,1014.662354 
	C945.052551,1015.354248 938.719788,1014.867493 932.034973,1014.867493 
	C932.034973,1008.983704 932.034973,1003.285095 932.034973,997.341919 
	C939.751404,997.341919 947.651489,996.748596 955.405945,997.555176 
	C960.392151,998.073914 961.825745,1002.623779 960.392212,1009.942017 
z"/>
<path fill="#FFFEFD" opacity="1.000000" stroke="none" 
	d="
M947.748535,967.003418 
	C952.151917,966.948059 956.027222,967.215881 958.246948,971.135925 
	C961.304565,976.535706 957.986023,982.546631 951.430542,982.939026 
	C945.141846,983.315430 938.813049,983.020447 932.064941,983.020447 
	C932.064941,977.786255 932.064941,972.737915 932.064941,967.003235 
	C937.053894,967.003235 942.167969,967.003235 947.748535,967.003418 
z"/>
<path fill="#FFFEFD" opacity="1.000000" stroke="none" 
	d="
M323.210022,985.571045 
	C314.981140,986.336060 307.110138,986.918579 298.904785,987.525879 
	C298.904785,980.569031 298.904785,974.650085 298.904785,968.358765 
	C306.425781,968.358765 314.016785,967.872375 321.476746,968.647583 
	C323.791840,968.888123 326.800598,972.205627 327.633392,974.728088 
	C328.965240,978.762085 328.052277,983.031006 323.210022,985.571045 
z"/>
<path fill="#FFFEFB" opacity="1.000000" stroke="none" 
	d="
M777.352234,987.758362 
	C776.387573,981.356995 775.888000,975.022095 775.351685,968.221130 
	C783.364258,968.221130 790.644348,967.751160 797.825806,968.389954 
	C802.442932,968.800659 804.834473,972.480103 804.988220,977.262512 
	C805.152283,982.364807 803.059021,986.201172 798.189087,986.867432 
	C791.480408,987.785156 784.615417,987.560242 777.352234,987.758362 
z"/>
<path fill="#FEFBF3" opacity="1.000000" stroke="none" 
	d="
M388.864990,969.006958 
	C389.908173,969.869690 390.846375,970.621704 391.147461,971.574951 
	C393.476807,978.949036 395.682953,986.362000 398.076019,994.253479 
	C391.500671,994.253479 385.371735,994.253479 378.348969,994.253479 
	C380.857788,986.004944 383.183838,978.156982 385.716949,970.376404 
	C385.940826,969.688721 387.516876,969.441345 388.864990,969.006958 
z"/>
<path fill="#FEFBF3" opacity="1.000000" stroke="none" 
	d="
M535.014343,977.888184 
	C536.674133,983.498169 538.256592,988.712158 539.965698,994.343384 
	C533.260742,994.343384 527.047058,994.343384 520.257996,994.343384 
	C522.647949,986.314575 524.882996,978.541382 527.363525,970.847412 
	C527.637695,969.997009 529.287048,969.197021 530.350952,969.122620 
	C531.155151,969.066345 532.456238,970.025757 532.812988,970.847168 
	C533.734619,972.969299 534.255859,975.265442 535.014343,977.888184 
z"/>
</svg>