<svg xmlns="http://www.w3.org/2000/svg" viewBox="0 0 1439 1411" xml:space="preserve"><path fill="#FFF" d="M816 1412H1V1h1439v1411H816M554.8 720v-41.9c0-6.9-2.4-9.6-9.1-9.6a3487.5 3487.5 0 0 0-42.5 0c-6.5 0-9 2.7-9 9.1v32.5c0 7.4 2.4 9.9 9.8 9.9h45c1.4 0 2.9.7 3.7 1.3-18 16.3-36 32.6-54.2 48.7a12.2 12.2 0 0 0-4.4 10v102c0 7.1 2.5 9.5 9.7 9.5h40.4c8.5 0 10.6-2.1 10.6-10.6V720m41-492-12 3.9C460.3 275.6 372 357.5 319.4 477.6a418 418 0 0 0-31.1 117.8c-.7 5.9 1 8.3 6.2 8.4 10.3.2 20.7 0 31 0 4.1 0 6.2-2 6.7-6.3a269.2 269.2 0 0 1 3.3-21.7 388.2 388.2 0 0 1 128.8-225.5 386.6 386.6 0 0 1 251.3-97 394.6 394.6 0 0 1 396.9 343.6c.4 4 2 7 6.6 7h31c5.4-.2 7-2.3 6.2-7.8-1.5-11-2.9-22.1-5-33a428 428 0 0 0-148.5-251.2A427 427 0 0 0 715 209.8c-40.4.5-79.8 6.7-119.2 18.4m-4.6 281.5-3.6 3.5a187 187 0 0 0-47.9 82.2c-1.7 6 0 8 6.2 8.1 10.3 0 20.6-.2 31 .1 4.5.1 6.5-1.8 8-5.7a146 146 0 0 1 275.2.4c.9 2.8 2 5.2 5.7 5.2h34.5c4.2 0 5.8-2.3 4.9-6.7A189.2 189.2 0 0 0 807 477c-9.4-4.8-10-7.1-3.6-15.2a102.7 102.7 0 0 0 22.7-73 103.8 103.8 0 0 0-127-94 104.2 104.2 0 0 0-57 168.3c4.7 5.8 3.8 9.8-2.8 13a190 190 0 0 0-48.2 33.7m29.3 158.8H608c-8.3 0-10.5 2.2-10.5 10.3v202.4c0 8.1 2.2 10.3 10.5 10.3 36 0 72 .3 108-.2 10.2-.1 20.6-1.7 30.4-4.4a56.4 56.4 0 0 0 43.4-46.6c4.4-23.7-2.3-43.3-22.8-57.4-5.2-3.7-5-8.7-.2-13 2.5-2.1 5-4.3 7.1-6.9 20.3-25.3 12.5-65.8-16-83a90 90 0 0 0-47.4-11.5h-90m436.7 206v-57.7h6c18.3-.2 36.6.1 54.9-1a75 75 0 0 0 49.4-20c18.7-18 22.5-40.8 20-65.3-2.5-22.4-13-40-33.1-51a81 81 0 0 0-38.2-10.4c-36.2-.5-72.3-.5-108.5-.6-6.2 0-8.7 2.7-8.7 9v205c0 6.5 2.5 9 9 9h33c16.2 0 16.2 0 16.2-17M450.9 739.4l7-2.6c6-2.5 8-7.4 5.2-13.4A98.1 98.1 0 0 0 435 687a104.6 104.6 0 0 0-63.3-22.3c-38.7-1.4-71 11.6-93.7 43.9-22.7 32.4-26.2 68.7-17.3 106.4a98.7 98.7 0 0 0 55.3 70.3c20 9.5 41.2 11.7 62.9 9.6 38.7-3.7 67.5-22.3 84.4-58 3.7-7.7 1.8-12-6.3-15l-28.9-11c-9-3.3-11.5-2.3-15.9 6a47.4 47.4 0 0 1-45 27.5 47 47 0 0 1-44.7-28.2 82.5 82.5 0 0 1-5.7-54.5c3-15 10-28 22.6-37A49.1 49.1 0 0 1 412 743c3.9 7.3 7.2 8.5 15 5.5l23.9-9.2m406.1 136v5.6c0 8.6 2 10.5 10.6 10.5H904c9.3 0 11.2-1.9 11.2-11V719.8h47c6.5 0 9-2.5 9-9v-33c0-6.7-2.5-9.3-9-9.3h-152c-6.5 0-9 2.6-9 9.1v31.5c0 8.6 2 10.7 10.4 10.7H857v155.7M570.8 375.2c2.3-1.2 4.6-2.7 7-3.7 4.7-1.8 6.6-5.2 8-10 2.2-8 4.9-15.8 8.2-23.4 2.8-6.5 6.8-12.5 10-19 .8-1.3.5-3.3.6-5-1.5 0-3-.3-4.6-.2-1.1 0-2.2.7-3.3 1A349.7 349.7 0 0 0 479 389a352.6 352.6 0 0 0-107.7 206.8c-.9 5.7 1 8 7 8.1h23.5c13.2.2 12.1 0 14.5-12 18.7-95.1 70.2-167.1 154.5-216.6m345-25.5a346.1 346.1 0 0 0-70.2-35.5c-1.6-.6-3.8.2-5.8.4.3 1.7.2 3.8 1.1 5.3a139.2 139.2 0 0 1 18.4 43.4c.9 3.8 3 5.9 6.4 7.6A310.7 310.7 0 0 1 1029 597.2c.7 4.2 2.5 6.7 7.1 6.7l31-.1c5 0 6.9-2.4 6-7.4-1.8-10.5-3.4-21-6-31.3-22.3-91.2-73-162.7-151.3-215.4m-64.6 104.1c-.6 3.7 1.7 5.7 4.4 7.6 19.9 14.4 37 31.4 51.4 51.3a222.5 222.5 0 0 1 38 84.4c1.1 5 3.6 7 8.7 6.8 9.6-.2 19.3 0 29 0 6.1-.1 8-2.5 6.8-8.6A272.4 272.4 0 0 0 871.4 419c-6.2-4-8.8-2.7-10.8 4.6-2.7 9.9-6 19.6-9.3 30.2M551 495.6c12.6-11.4 25-22.9 37.7-34 4.7-4.2 5.2-5.6 3.1-11.6-2.8-8.5-5.6-17-7.8-25.8-2-8-4.6-9.4-11.6-4.8a273.8 273.8 0 0 0-117.2 174.4c-1.7 8-.2 9.8 8.1 9.8H492c4.1.1 6.3-1.4 7.3-5.7A227.9 227.9 0 0 1 551 495.6m67.7 669.2 19 35c.7 1.3 2.1 3 3.2 3 9.6.3 19.2.2 28.6.2v-111.6h-21v75c-3.7 1.6-4.6-.7-5.9-3a14386 14386 0 0 0-37.3-68.7c-.7-1.4-2.3-3.3-3.5-3.4-9.4-.3-18.9-.1-28.4-.1v111.5H595V1128l1.2-1c1.4 1.3 3.3 2.3 4.2 3.9 6.2 11 12 22.1 18.5 33.9m135.7-8.8h12v-20.5H721V1112h58.5v-20.5h-82v111.3h83.9V1182h-60.5V1156h33.7m147.3-11.5v58.2h23.5V1163c10.5 0 20.8.3 31.1 0 13.8-.6 26-4.8 32.9-18 12.6-23.8-1.1-50.4-27.8-53-12.5-1.2-25.3-.7-38-.8h-21.7v53.3m-425.2-9c1.5-7 4.3-13.3 9.6-18.3a25 25 0 0 1 39 5.2c.5.7 1.5 1.5 2.2 1.5l23 .1-.7-3.6c-5-17.9-18.3-28.7-39.7-30.8-25.5-2.5-48.4 9.6-56 36.8-2.8 9.9-3.3 20-2.2 30.2 4.8 44.9 43.8 54.9 72 45.3 15.4-5.2 27-20.2 27.2-34.7h-23.8c-2.3 8.3-7 13.8-15.2 16-14 3.7-27.4-3-33-16.5-4-9.8-4.1-20-2.4-31.2m355.9-44.3h-40v21h34.4v90.5h23.5v-90.8h34.3v-20.7h-52.2m83.3-117.7v54.4c15 0 29.1.6 43.2-.2 8.4-.5 15.2-5.3 17.6-14.1 2.3-8.5 1-16.2-6.9-21.7-2.2-1.5-2.1-2.6-.4-4.7a24 24 0 0 0 5.5-9.2c2.9-12.8-5.8-23.4-19.9-24-12.4-.4-25 0-37.4 0-.5 0-1 .3-1.7.6v18.9m-582 24.2c.5-.7 1-1.6 1.8-2.1 8.5-6.6 9.9-15.5 7.8-25.2a19.3 19.3 0 0 0-18.8-16c-13.7-.9-27.5-.2-41.5-.2v74.4c3.8 0 7.5-.2 11 0 3.6.3 4.7-1 4.6-4.5-.2-7.8 0-15.5 0-24 5 0 9.7.3 14.3 0 4-.3 6 .8 7.1 4.8 2 6.9 4.6 13.5 7.2 20.2.4 1.3 1.5 3.2 2.5 3.3 4.7.3 9.4.1 14.5.1l-10.6-30.8m861-16.6c-2.1-2-5.2-3.8-6.1-6.2-.6-1.7 1.3-5.2 3.2-6.6 6.3-4.8 17-2.5 21.3 4.3.5.8 1.3 1.8 2 1.9h14.8c-2.5-11.6-8-18.4-18.5-20.4-7-1.3-14.9-1.4-22 0a20.7 20.7 0 0 0-17.2 21.5c.5 10.7 6.5 17 18.6 19.5 6.3 1.3 12.8 2 19 4.1 2.4.8 5 4.1 5.5 6.6.4 2.3-1.4 6-3.3 7.6-7.4 5.9-21.2 2.6-25.7-5.5-.6-1-2-2.3-3-2.4-4.4-.3-8.7-.1-13-.1-.6 8.8 5.6 17.7 14.9 21.4 9 3.6 18.4 4 27.9 1.5 11.8-3.2 18.8-11.8 18.5-22.8-.3-11.2-6.3-18-19-21-5.6-1.2-11.4-2.2-17.9-3.4m-343.5 12.4V954h-15c0 18.6-.8 36.9.2 55 .6 9.5 7.6 15.8 16.7 18.7a43.4 43.4 0 0 0 25.1.5c11.8-3.2 19.1-11.3 19.5-23.5.6-16.7.2-33.3.1-50 0-.2-.4-.5-.4-.6H882v5.8c0 13.7.1 27.4 0 41-.2 7.4-3.9 12.3-10 13.9-12.3 3.2-20.9-3.3-21-16v-5.4M583.5 1020c9 9.7 20.4 10.8 32.6 9 15.1-2.2 23.4-11.3 23.9-26.5.3-8 .1-16 .1-24v-24.3h-15.9v45.8c-.2 10.2-5.7 15.5-15.6 15.4-9.8 0-15.3-5.6-15.3-15.6V954h-15.5c0 17.6-.3 34.9.3 52.1.1 4.5 3.2 8.9 5.4 13.9M760 981.5v46.7h16V1002h18.5c7.1-.3 14-1.4 19.5-6.5 8-7.5 8.7-17 5.7-26.8-3-9.8-11-14-20.7-14.5-11.8-.6-23.6-.2-35.4-.2-1.1 0-2.2.2-3.6.4v27.2m-401 27-6.4 20.1c4.8 0 8.6.3 12.4-.1a5.8 5.8 0 0 0 4-3c1.7-4.6 3-9.3 4.2-13.9.7-2.3 1.6-3.6 4.4-3.5 7.2.2 14.3-.1 21.5.2 1.4 0 3.4 1.7 4 3 1.7 4.5 2.8 9.3 4.3 13.8.4 1.3 1.5 3.2 2.4 3.3 4.7.3 9.4.1 14.7.1l-23-72c-.5-1.2-2.6-2.5-4-2.5-5.5-.3-11 0-16.5-.2-3.5-.2-5.1.9-6.2 4.4-5 16.6-10.4 33-15.9 50.2m187.6 7.6c1 3.2 1.8 6.4 3 9.5.4 1.2 1.6 2.9 2.6 3 4.5.2 9.1 0 14.3 0l-20.6-64.8c-.9-2.5-1.5-5.2-2.7-7.5a5 5 0 0 0-3.6-2.2c-5.8-.3-11.6 0-17.5-.2-3-.2-4.2 1-5.1 3.9l-18.8 58.8-3.6 12.1c5 0 9.2.2 13.5-.1 1-.1 2.5-2 3-3.2 1.5-4.5 2.9-9.2 4.1-13.8.7-2.5 1.9-3.5 4.5-3.4 5.9.2 11.7.5 17.5 0 5.9-.7 8.7 1.4 9.4 7.9m161.3-43.7 9.3-18.5c-4.5 0-8.2.2-11.8 0-3.2-.2-4.8 1-6.2 3.7-3.3 6.9-7 13.6-10.6 20.4-.6 1.1-2.1 3-2.8 2.8a6 6 0 0 1-3.3-2.9c-3.7-6.9-7-14-10.7-20.8-.7-1.3-2.1-3-3.4-3-4.5-.4-9.1-.1-14.5-.1 5.5 10.9 10.6 21.1 15.9 31.3 1.4 2.7 1.5 5 0 7.8-4.7 8.3-9 16.7-13.4 25.1l-5.3 10.5c5 0 9.2.4 13.3-.1 1.9-.2 4.3-1.6 5.2-3.2 4.5-8 8.5-16.2 12.8-24.3a6 6 0 0 1 3.4-2.9c.6-.1 2.1 1.7 2.7 3 4.2 7.9 8.1 16 12.3 24 .7 1.3 2 3.2 3.1 3.3 5 .4 10.1.1 16.1.1-4.6-8.7-8-17-12.8-24.2-7.2-10.5-8.5-20.3-.1-30.5l.8-1.5m428.8-3.8 4.6 5c.9 1 1.9 2.2 2.9 2.2 4.6.3 9.2.2 15.3.2-2.2-4.6-3.4-8.4-5.6-11.5-12.8-18.4-45.8-15.4-56.6 5.1a47.7 47.7 0 0 0-4.3 29.6c4.4 31.4 35.3 35.8 52.3 26.6 8-4.4 12.5-11.5 14-21.3-5 0-9.7-.1-14.3.1-1 0-2.4 1.3-2.7 2.3-3.3 11.3-23 11.5-29.2 1-5-8.3-5.4-17-3.2-26 3.2-12.8 13.6-18 26.8-13.3m-645-4.4 2.7-10h-16l-1.4 4.7c-4.6 16.3-9 32.7-13.7 49-.6 2 0 5.9-3.7 5-1.5-.2-3-3-3.5-4.8-4.8-16.6-9.3-33.3-14-50-.5-1.5-1.7-3.8-2.7-4-4.7-.4-9.5-.1-14.4-.1.1 1.4 0 2 .3 2.7l20.3 68.8c.7 2.7 2.1 3.3 4.6 3.3 6.2-.2 12.4-.2 18.5 0 2.8 0 4.1-.8 5-3.6a7470 7470 0 0 1 18-61m-235 3.8h14.9V954h-61.3V968h22.6v60.7c4.1 0 7.8-.2 11.4 0 3.5.3 4.5-1 4.5-4.5-.2-15.8 0-31.6 0-47.4V968h7.8m768 60.7c6.5 0 13 .2 19.5-.1 1.2 0 3.3-1.6 3.5-2.7.4-3.7.1-7.5.1-11.8H1008v-59.7h-15.5v74.3h32.1m53.2-67v-7.5h-16v74.2h16v-66.7z"/><path fill="#F9B81F" d="M596.1 228.1a434 434 0 0 1 119-18.3 427 427 0 0 1 287.6 102A428 428 0 0 1 1151 563c2.2 11 3.6 22 5.1 33 .8 5.6-.8 7.7-6.2 7.8-10.3.2-20.6 0-31 0-4.7 0-6.2-2.9-6.7-7a394.6 394.6 0 0 0-396.9-343.6 386.6 386.6 0 0 0-251.2 97.1 388.2 388.2 0 0 0-128.8 225.5 269.2 269.2 0 0 0-3.3 21.7c-.5 4.3-2.6 6.3-6.7 6.3-10.3 0-20.7.2-31 0-5.3 0-7-2.5-6.2-8.4a418 418 0 0 1 31.1-117.8C372 357.6 460.2 275.6 584 232c4-1.4 7.9-2.5 12.3-3.9z"/><path fill="#010101" d="M591.4 509.4a189.7 189.7 0 0 1 48-33.4c6.6-3.2 7.5-7.2 2.9-13a104.2 104.2 0 0 1 56.9-168.4 103.8 103.8 0 0 1 127 94c1.9 27.3-5.8 51.6-22.7 73-6.4 8.2-5.8 10.5 3.6 15.3a189.2 189.2 0 0 1 98 120c1 4.3-.6 6.5-4.8 6.6h-34.5c-3.6 0-4.8-2.4-5.8-5.2a142 142 0 0 0-33.8-54.1 146 146 0 0 0-241.4 53.7c-1.4 4-3.4 5.8-8 5.7-10.3-.3-20.6 0-31-.1-6.2 0-7.8-2-6-8a187 187 0 0 1 47.8-82.3l3.8-3.8M768 356.6a60.7 60.7 0 0 0-104.8 53.3 60.8 60.8 0 0 0 72.7 45.4c44.6-11 61.6-62.2 32-98.7zM621 668.5h89.5a90 90 0 0 1 47.4 11.5c28.5 17.2 36.3 57.7 16 83-2 2.6-4.6 4.8-7 7-5 4.2-5.1 9.2.1 12.9 20.5 14 27.2 33.7 22.8 57.4a56.3 56.3 0 0 1-43.4 46.6c-9.8 2.7-20.2 4.3-30.4 4.4-36 .5-72 .2-108 .2-8.3 0-10.5-2.2-10.5-10.3V678.8c0-8.1 2.2-10.3 10.5-10.3h13m44.5 171.7c13 0 26 .1 39-.1 4.6-.1 9.3-.8 13.7-2.1 9-2.8 13.2-9 13-17.8a17.9 17.9 0 0 0-14.5-18c-3.8-1-7.9-1.3-11.8-1.3-14.9-.2-29.7 0-44.5 0-1.4 0-2.9 0-4.2.2v39h9.3m59.6-105.3c-1.8-9.4-8.4-14.5-20-14.7-15.3-.3-30.6-.2-45.9-.3-1 0-2.2.3-3 .4V753c18.2 0 36 .5 53.7-.2 10.4-.5 15-6.6 15.2-18zM1057 875c0 16.5 0 16.5-16 16.5h-33c-6.6 0-9-2.5-9-9v-205c0-6.3 2.4-9 8.6-9 36.2.1 72.4 0 108.5.6a81 81 0 0 1 38.2 10.4c20 11 30.6 28.6 33 51 2.6 24.5-1.2 47.4-20 65.3a75 75 0 0 1-49.3 20c-18.3 1.1-36.6.8-55 1h-6V875m48.2-110c2-.3 4-.5 5.9-1 12-2.7 17.4-9.5 17.3-21.9 0-11.9-5.7-19.7-17.7-20.8-17.7-1.6-35.5-1.4-53.4-2V765h47.9zm-654.7-25.4-23.6 9c-7.8 3-11.1 1.8-15-5.5a49.1 49.1 0 0 0-72.6-18.5 58.5 58.5 0 0 0-22.6 37 82.5 82.5 0 0 0 5.7 54.6 47 47 0 0 0 44.6 28.2c20.5.2 35.6-9.2 45.1-27.4 4.4-8.4 7-9.4 16-6a5894 5894 0 0 1 28.8 10.8c8.1 3.1 10 7.4 6.3 15-16.9 35.8-45.7 54.4-84.4 58.1-21.7 2.1-43-.1-62.9-9.6a98.7 98.7 0 0 1-55.3-70.3c-8.9-37.7-5.4-74 17.3-106.4 22.7-32.3 55-45.3 93.7-44 23.4.9 44.8 7.7 63.3 22.4a98.1 98.1 0 0 1 28.1 36.4c2.8 6 .8 11-5.2 13.4-2.3 1-4.7 1.7-7.3 2.8zM857 875V719.8h-45.4c-8.4 0-10.4-2-10.4-10.7v-31.5c0-6.5 2.5-9 9-9h152c6.5 0 9 2.5 9 9.1v33c0 6.6-2.5 9.1-9 9.1h-47v160.7c0 9.1-2 11-11.2 11h-36.4c-8.7 0-10.6-2-10.6-10.5v-6z"/><path fill="#F9B81F" d="M570.5 375.4C486.5 424.7 435 496.7 416.3 592c-2.4 12-1.3 12-14.5 12h-23.5c-6-.2-7.9-2.5-7-8.2A352.6 352.6 0 0 1 479 388.9c34.2-32.6 73.6-57 117.7-74 1-.3 2.2-1 3.3-1 1.5-.2 3 .1 4.6.3-.1 1.6.2 3.6-.5 5-3.3 6.4-7.3 12.4-10.1 18.9-3.3 7.6-6 15.5-8.3 23.5-1.3 4.7-3.2 8.1-7.9 10-2.4.9-4.7 2.4-7.3 3.8zm345.7-25.6c78 52.6 128.7 124 151 215.3 2.6 10.3 4.2 20.8 6 31.3.9 5-1 7.3-6 7.4-10.3.2-20.7 0-31 0-4.6.1-6.4-2.4-7-6.6A310.7 310.7 0 0 0 865.7 371c-3.4-1.8-5.6-3.9-6.5-7.7-3.5-15.6-10-30-18.4-43.4-.9-1.5-.8-3.6-1.1-5.3 2-.2 4.2-1 5.8-.4 24.8 9.2 48.2 21 70.6 35.6zm-64.8 103.6c3.2-10.2 6.5-19.9 9.2-29.8 2-7.3 4.6-8.7 10.7-4.6a272.4 272.4 0 0 1 118.3 176.3c1.1 6-.7 8.5-6.9 8.5-9.6.1-19.3-.1-29 .1-5 .2-7.5-1.9-8.6-6.8a222.5 222.5 0 0 0-38-84.4 226.7 226.7 0 0 0-51.4-51.3c-2.7-2-5-3.9-4.3-8zM550.9 496a227.3 227.3 0 0 0-51.7 102c-1 4.3-3.2 5.8-7.3 5.8h-28.5c-8.3 0-9.8-1.8-8.1-9.9a273.8 273.8 0 0 1 117.3-174.4c7-4.6 9.5-3.3 11.5 4.8 2.2 8.7 5 17.3 7.8 25.8 2.1 6 1.6 7.4-3 11.5-12.8 11.2-25.2 22.7-38 34.4z"/><path fill="#010101" d="m554.6 721 .2 5v154.9c0 8.5-2 10.6-10.6 10.6h-40.4c-7.2 0-9.6-2.4-9.6-9.5l-.1-102c0-4.2 1.3-7.2 4.4-10 18.1-16.1 36.1-32.4 54.7-48.8l1.4-.2z"/><path fill="#030303" d="m618.6 1164.5-18.3-33.6c-.9-1.6-2.8-2.6-4.2-4l-1.2 1v74.8h-21.4v-111.5c9.5 0 19-.2 28.4.1 1.2 0 2.8 2 3.5 3.4a14386 14386 0 0 1 37.3 68.8c1.3 2.2 2.2 4.5 5.8 3v-75h21.1V1203c-9.4 0-19 .1-28.6-.1-1.1 0-2.5-1.8-3.2-3.1l-19.2-35.3z"/><path fill="#010101" d="M754 1156h-33.2v26h60.5v20.8h-84v-111.3h82.1v20.5H721v23.5h45.7v20.5H754z"/><path fill="#020202" d="M901.8 1144v-52.8h21.8c12.6.1 25.4-.4 37.9.8 26.7 2.6 40.4 29.2 27.8 53-7 13.2-19.1 17.4-32.9 18-10.3.3-20.6 0-31 0v39.7h-23.6V1144m48.6-1.7c3-.4 6-.5 8.8-1.2 7-1.9 10-6.5 10-14.1 0-7.3-3.2-12.8-9.9-13.6-11.2-1.4-22.6-1.3-33.9-1.9v31c8.2 0 16 0 25-.2z"/><path fill="#030303" d="M476.5 1135.9a56.3 56.3 0 0 0 2.5 30.8 27.2 27.2 0 0 0 33 16.5c8.2-2.2 13-7.7 15.2-16H551c-.2 14.5-11.8 29.5-27.1 34.7-28.3 9.6-67.3-.4-72.1-45.3a79.2 79.2 0 0 1 2.2-30.2c7.6-27.2 30.5-39.3 56-36.8 21.4 2 34.7 13 39.7 30.8l.6 3.6h-22.9c-.7 0-1.7-.9-2.2-1.6a25 25 0 0 0-39-5.2c-5.3 5-8.1 11.3-9.7 18.7z"/><path fill="#020202" d="M833 1091.2h51.7v20.7h-34.3v90.8H827v-90.5h-34.4v-21H833z"/><path fill="#F9B921" d="M915.8 973v-18.4c.8-.3 1.2-.7 1.7-.7 12.5 0 25-.3 37.4.2 14 .5 22.8 11 20 24a24 24 0 0 1-5.6 9c-1.7 2.2-1.8 3.3.4 4.8 7.9 5.5 9.2 13.2 6.9 21.7a18.4 18.4 0 0 1-17.6 14c-14 .9-28.2.3-43.2.3V973m44.8 36.6c1.2-7-.2-11.5-5.2-12-7.7-.9-15.6-.3-23.4-.3v17.6c6.7 0 13 .5 19.3-.2 3-.4 6-2.9 9.3-5.1M947.3 967H932v16c6.7 0 13 .3 19.3 0 6.6-.5 10-6.5 6.8-11.9-2.2-3.9-6-4.2-11-4.1z"/><path fill="#050505" d="M554.7 720.5c-.4.5-.7.6-1.2.6-1.6-.4-3.1-1-4.6-1l-45-.1c-7.3 0-9.7-2.5-9.7-9.9v-32.5c0-6.4 2.5-9 9-9.1h42.5c6.7 0 9.1 2.7 9.1 9.6v42.5z"/><path fill="#F9B920" d="m333.8 998.1 10.5 30.4c-5.1 0-9.8.2-14.5-.1-1-.1-2-2-2.5-3.3-2.6-6.7-5.2-13.3-7.2-20.2-1.1-4-3.2-5.1-7.1-4.8-4.6.3-9.2 0-14.4 0v24c.2 3.5-.9 4.8-4.4 4.6-3.6-.3-7.3 0-11 0v-74.5c14 0 27.7-.7 41.4.2 9.5.6 16.7 6.1 18.8 16 2 9.7.7 18.6-7.8 25.2-.8.5-1.3 1.4-1.8 2.5m-10.2-12.7c4.5-2.4 5.4-6.6 4-10.7-.8-2.5-3.8-5.8-6.1-6-7.5-.8-15-.3-22.6-.3v19.1c8.2-.6 16-1.2 24.7-2.1z"/><path fill="#F9B921" d="M1195.1 981.1c6.1 1.2 11.9 2.2 17.5 3.5 12.7 2.9 18.7 9.7 19 21 .3 10.9-6.7 19.5-18.5 22.7-9.5 2.6-18.9 2.1-28-1.5-9.2-3.7-15.4-12.6-14.7-21.4 4.2 0 8.5-.2 12.8.1 1.1 0 2.5 1.3 3 2.4 4.6 8.1 18.4 11.4 25.8 5.5 2-1.6 3.7-5.3 3.3-7.6a10 10 0 0 0-5.6-6.6c-6-2-12.6-2.8-19-4.1-12-2.5-18-8.8-18.5-19.5-.5-10 6-19.2 17.2-21.5 7-1.4 15-1.3 22 0 10.5 2 16 8.8 18.5 20.4H1215c-.7 0-1.5-1.1-2-2-4.4-6.7-15-9-21.3-4.2-1.9 1.4-3.8 5-3.2 6.6.9 2.4 4 4.1 6.5 6.2zm-344 12.8v5c.1 12.7 8.7 19.2 21 16 6.1-1.6 9.8-6.5 10-13.9.1-13.6 0-27.3 0-41v-5.8h15.3c0 .1.4.4.4.6 0 16.7.5 33.3 0 50-.5 12.2-7.8 20.3-19.6 23.5a43.4 43.4 0 0 1-25.1-.5c-9.1-3-16.1-9.2-16.7-18.6-1-18.2-.3-36.5-.3-55h15v39.7zm-268 25.9c-2-4.7-5-9.1-5.1-13.6-.6-17.2-.3-34.5-.3-52h15.5v45.7c0 10 5.5 15.6 15.3 15.6 10 0 15.4-5.2 15.6-15.4v-45.8h16l-.1 24.3c0 8 .2 16-.1 24-.6 15.2-8.8 24.3-23.9 26.5-12.2 1.8-23.6.7-32.9-9.3z"/><path fill="#F9B920" d="M760 981v-26.7c1.4-.2 2.5-.4 3.6-.4 11.8 0 23.6-.4 35.4.2 9.6.5 17.7 4.7 20.7 14.5s2.3 19.3-5.7 26.8c-5.5 5-12.4 6.2-19.5 6.4-6 .2-12 0-18.5 0v26.4h-16V981m17.8 6.8c6.8-.2 13.7 0 20.4-1 4.9-.6 7-4.4 6.8-9.5-.2-4.8-2.6-8.5-7.2-9-7.2-.5-14.4 0-22.4 0 .5 6.7 1 13 2.4 19.5zM359 1008c5.4-16.8 10.8-33.2 15.8-49.8 1-3.5 2.7-4.6 6.2-4.4 5.5.3 11-.1 16.5.2 1.4 0 3.5 1.3 4 2.5l23 72c-5.3 0-10 .2-14.7-.1-.9-.1-2-2-2.4-3.3-1.5-4.5-2.6-9.3-4.3-13.8-.6-1.3-2.6-3-4-3-7.2-.3-14.3 0-21.5-.2-2.8-.1-3.7 1.2-4.4 3.5-1.3 4.6-2.5 9.3-4.2 13.8a5.8 5.8 0 0 1-4 3c-3.8.5-7.6.2-12.4.2a3992 3992 0 0 0 6.4-20.6m29.5-39c-1 .4-2.6.7-2.8 1.4l-7.4 23.9h19.8c-2.4-8-4.6-15.4-7-22.7-.3-1-1.2-1.7-2.6-2.6zm157.9 46.6c-.6-6-3.4-8.2-9.3-7.6-5.8.6-11.6.3-17.5 0-2.6 0-3.8 1-4.5 3.5-1.2 4.6-2.6 9.3-4.2 13.8-.4 1.3-1.8 3-3 3.2-4.2.3-8.4.1-13.4.1l3.6-12 18.8-59c.9-2.8 2-4 5.1-3.8 5.9.2 11.7 0 17.5.2a5 5 0 0 1 3.6 2.2c1.2 2.3 1.8 5 2.7 7.5l20.6 64.9c-5.2 0-9.8.1-14.3-.2-1 0-2.2-1.7-2.7-2.9-1.1-3-2-6.3-3-9.9m-11.5-38.1c-.6-2.2-1.2-4.5-2-6.7-.4-.8-1.7-1.7-2.5-1.7-1.1.1-2.8.9-3 1.7-2.5 7.7-4.8 15.5-7.1 23.5H540l-5-16.8z"/><path fill="#F9B921" d="m707.6 972.6-.6 1.2c-8.4 10.2-7 20 0 30.5 5 7.2 8.3 15.5 13 24.2-6 0-11.1.3-16.2-.1-1.1-.1-2.4-2-3.1-3.4l-12.3-24c-.6-1.2-2-3-2.7-2.9a6 6 0 0 0-3.4 3c-4.3 8-8.3 16.2-12.8 24.2-.9 1.6-3.3 3-5.2 3.2-4.1.5-8.3.1-13.3.1l5.3-10.5c4.4-8.4 8.7-16.8 13.3-25 1.6-3 1.5-5.2 0-8-5.2-10-10.3-20.3-15.8-31.2 5.4 0 10-.2 14.5.1 1.3 0 2.7 1.7 3.4 3 3.7 6.9 7 14 10.7 20.8a6 6 0 0 0 3.3 3c.7.1 2.2-1.8 2.8-3 3.6-6.7 7.3-13.4 10.6-20.3 1.4-2.8 3-4 6.2-3.7 3.6.2 7.3 0 11.8 0a5864.6 5864.6 0 0 1-9.5 18.8zm428.7-4.3c-12.9-4.6-23.3.7-26.5 13.5-2.2 9-1.7 17.7 3.2 26 6.2 10.5 26 10.3 29.2-1 .3-1 1.7-2.3 2.7-2.3 4.6-.2 9.2-.1 14.4-.1-1.6 9.8-6 16.9-14.1 21.2-17 9.3-48 5-52.3-26.5a47.7 47.7 0 0 1 4.3-29.6c10.8-20.5 43.8-23.5 56.6-5.1 2.2 3 3.4 6.9 5.6 11.5-6.1 0-10.7 0-15.3-.2-1 0-2-1.3-2.9-2.1-1.6-1.7-3-3.4-5-5.3zm-645-3.9-17.8 60.7c-.8 2.8-2.1 3.7-4.9 3.6-6.1-.2-12.3-.2-18.5 0-2.5 0-3.9-.6-4.6-3.3l-20.3-68.8c-.2-.7-.2-1.3-.3-2.7 5 0 9.7-.3 14.4.2 1 0 2.2 2.4 2.7 4 4.7 16.6 9.2 33.3 14 49.9.6 1.9 2 4.6 3.5 4.9 3.7.8 3-3 3.7-5.1l13.7-49 1.4-4.6h16l-3 10.2z"/><path fill="#F9B81F" d="M256 967.9h-7.4v56.2c.1 3.5-.9 4.8-4.4 4.6-3.6-.3-7.3 0-11.4 0v-60.8h-22.6v-13.8h61.3V968H256z"/><path fill="#F9B921" d="M1024 1028.6h-31.6v-74.3h15.5v59.7h39.7c0 4.3.3 8-.1 11.8-.2 1-2.3 2.7-3.5 2.7-6.5.3-13 .1-20 .1z"/><path fill="#F9BC2C" d="M1077.7 962.1v66.2h-16v-74.2h16v8z"/><path fill="#FEFEFE" d="M768.2 356.8a60.5 60.5 0 0 1-32.3 98.5 60.8 60.8 0 0 1-72.7-45.4 60.7 60.7 0 0 1 105-53zM665 840.2h-8.8V801l4.2-.3 44.5.1c4 0 8 .4 11.8 1.3 9 2.2 14.1 8.8 14.4 18 .3 8.8-4 15-13 17.8-4.3 1.3-9 2-13.6 2-13 .3-26 .2-39.5.2z"/><path fill="#FDFDFD" d="M725.1 735.3c-.2 11-4.8 17.1-15.2 17.6-17.7.7-35.5.2-53.7.2v-33l3-.3c15.3 0 30.6 0 45.9.3 11.6.2 18.2 5.3 20 15.2zM1105 765h-47.5v-45.7c18 .6 35.7.4 53.4 2 12 1 17.6 9 17.7 20.8.1 12.4-5.3 19.2-17.3 22l-6.3 1zm-155 377.4h-24.5v-30.9c11.3.6 22.7.5 34 1.9 6.6.8 9.7 6.3 9.8 13.6 0 7.6-3 12.2-10 14-2.8.8-5.9.9-9.3 1.4z"/><path fill="#FFFEFD" d="M960.4 1010c-3.2 1.8-6 4.3-9.1 4.7-6.2.7-12.6.2-19.3.2v-17.6c7.8 0 15.7-.6 23.4.3 5 .5 6.4 5 5 12.3zm-12.7-43c4.5 0 8.3.2 10.5 4.1 3.1 5.4-.2 11.4-6.8 11.8-6.3.4-12.6.1-19.3.1v-16h15.6zm-624.5 18.6-24.3 2v-19.2c7.5 0 15.1-.5 22.6.2 2.3.3 5.3 3.6 6.1 6.1 1.4 4 .5 8.3-4.4 10.9z"/><path fill="#FFFEFB" d="M777.4 987.8c-1-6.4-1.5-12.8-2-19.6 8 0 15.2-.4 22.4.2 4.6.4 7 4 7.2 8.9.2 5-2 8.9-6.8 9.6-6.7.9-13.6.7-20.8.9z"/><path fill="#FEFBF3" d="M388.9 969c1 .9 2 1.6 2.2 2.6 2.4 7.3 4.6 14.8 7 22.7h-19.8l7.4-24c.2-.6 1.8-.9 3.2-1.3zM535 978l5 16.4h-19.7c2.3-8 4.6-15.8 7-23.5.3-.8 2-1.6 3-1.7.9 0 2.2 1 2.5 1.7 1 2.2 1.5 4.5 2.2 7z"/></svg>