<svg xmlns="http://www.w3.org/2000/svg" xml:space="preserve" id="Calque_1" x="0" y="0" version="1.1" viewBox="0 0 1564.3 814">
  <g id="g84" transform="translate(-261.5 -321.7) scale(11.3687)">
    <path id="path4" fill="#004d9d" d="M24 84.8c-.6-.6-1-1.5-1-2.6 0-1.2.3-2.1.9-2.7.6-.6 1.5-1 2.7-1 .8 0 1.5.1 2.1.3v1.3c-.6-.3-1.3-.4-2-.4-.8 0-1.4.2-1.7.6-.4.4-.5 1-.5 1.8s.2 1.3.6 1.7c.4.4 1 .6 1.7.6s1.4-.1 2-.4v1.3l-2.1.3c-1.2.1-2.1-.2-2.7-.8z" class="st0"/>
    <path id="path6" fill="#004d9d" d="M29.9 82.2c0-1.3.3-2.2.9-2.8.6-.6 1.4-.9 2.6-.9 1.2 0 2 .3 2.6.9.6.6.9 1.5.9 2.8 0 2.4-1.2 3.6-3.5 3.6-2.4-.1-3.5-1.2-3.5-3.6zm4.9 1.7c.3-.4.5-1 .5-1.7 0-.9-.2-1.5-.5-1.8-.3-.4-.8-.5-1.5-.5s-1.2.2-1.5.5a3 3 0 0 0-.5 1.8c0 .8.2 1.4.5 1.7.3.4.8.6 1.5.6s1.2-.2 1.5-.6z" class="st0"/>
    <path id="path8" fill="#004d9d" d="M38.2 78.7h1.5l2.1 4.2 2.1-4.2h1.5v7h-1.5v-4.5l-1.7 3.3h-.9l-1.7-3.3v4.5h-1.5v-7z" class="st0"/>
    <path id="path10" fill="#004d9d" d="M47.3 78.7h1.5l2.1 4.2 2.1-4.2h1.5v7H53v-4.5l-1.7 3.3h-.9l-1.7-3.3v4.5h-1.5v-7z" class="st0"/>
    <path id="path12" fill="#004d9d" d="M56.5 78.7H58v7h-1.5z" class="st0"/>
    <path id="path14" fill="#004d9d" d="M59.9 85.4v-1.3l1.1.3 1.1.1 1.2-.2c.3-.1.3-.3.3-.6l-.2-.5-.5-.3-1.1-.3a4 4 0 0 1-1.6-.8c-.3-.3-.5-.7-.5-1.3 0-.6.2-1.1.7-1.5.5-.4 1.2-.5 2.1-.5l1.2.1.9.2v1.3c-.6-.2-1.2-.3-1.9-.3l-1.1.2c-.2.1-.4.3-.4.6l.1.4.5.3 1 .3c.8.2 1.4.5 1.7.8.3.3.5.8.5 1.3 0 .6-.2 1.1-.7 1.5-.5.4-1.2.5-2.2.5-.9 0-1.6-.1-2.2-.3z" class="st0"/>
    <path id="path16" fill="#004d9d" d="M66.4 85.4v-1.3l1.1.3 1.1.1 1.2-.2c.3-.1.3-.3.3-.6l-.2-.5-.5-.3-1.1-.3a4 4 0 0 1-1.6-.8c-.3-.3-.5-.7-.5-1.3 0-.6.2-1.1.7-1.5.5-.4 1.2-.5 2.1-.5l1.2.1.9.2v1.3c-.6-.2-1.2-.3-1.9-.3l-1.1.2c-.2.1-.4.3-.4.6l.1.4.5.3 1 .3c.8.2 1.4.5 1.7.8.3.3.5.8.5 1.3 0 .6-.2 1.1-.7 1.5-.5.4-1.2.5-2.2.5-.9 0-1.7-.1-2.2-.3z" class="st0"/>
    <path id="path18" fill="#004d9d" d="M73.3 78.7h1.5v7h-1.5z" class="st0"/>
    <path id="path20" fill="#004d9d" d="M76.6 82.2c0-1.3.3-2.2.9-2.8.6-.6 1.4-.9 2.6-.9 1.2 0 2 .3 2.6.9.6.6.9 1.5.9 2.8 0 2.4-1.2 3.6-3.5 3.6-2.4-.1-3.5-1.2-3.5-3.6zm4.9 1.7c.3-.4.5-1 .5-1.7 0-.9-.2-1.5-.5-1.8-.3-.4-.8-.5-1.5-.5s-1.2.2-1.5.5a3 3 0 0 0-.5 1.8c0 .8.2 1.4.5 1.7.3.4.8.6 1.5.6s1.2-.2 1.5-.6z" class="st0"/>
    <path id="path22" fill="#004d9d" d="M85.3 78.7h1.3l3.4 4.6v-4.6h1.5v7h-1.3L86.7 81v4.6h-1.5v-6.9z" class="st0"/>
    <path id="path24" fill="#004d9d" d="M98.1 78.7h1.3l3.4 4.6v-4.6h1.5v7H103L99.6 81v4.6h-1.5z" class="st0"/>
    <path id="path26" fill="#004d9d" d="M108.7 78.7h1.6l2.7 7h-1.5l-.7-1.7h-2.6l-.7 1.7H106Zm1.9 4.1-1.1-2.8-1.1 2.8z" class="st0"/>
    <path id="path28" fill="#004d9d" d="M115.2 79.8H113v-1.1h5.8v1.1h-2.2v5.8h-1.5v-5.8z" class="st0"/>
    <path id="path30" fill="#004d9d" d="M120.4 78.7h1.5v7h-1.5z" class="st0"/>
    <path id="path32" fill="#004d9d" d="M123.7 82.2c0-1.3.3-2.2.9-2.8.6-.6 1.4-.9 2.6-.9 1.2 0 2 .3 2.6.9.6.6.9 1.5.9 2.8 0 2.4-1.2 3.6-3.5 3.6-2.4-.1-3.5-1.2-3.5-3.6zm4.9 1.7c.3-.4.5-1 .5-1.7 0-.9-.2-1.5-.5-1.8-.3-.4-.8-.5-1.5-.5s-1.2.2-1.5.5a3 3 0 0 0-.5 1.8c0 .8.2 1.4.5 1.7.3.3.8.6 1.5.6s1.2-.2 1.5-.6z" class="st0"/>
    <path id="path34" fill="#004d9d" d="M132.4 78.7h1.3l3.4 4.6v-4.6h1.5v7h-1.3l-3.4-4.6v4.6h-1.5z" class="st0"/>
    <path id="path36" fill="#004d9d" d="M143 78.7h1.6l2.7 7h-1.5l-.7-1.7h-2.6l-.7 1.7h-1.6zm1.9 4.1-1.1-2.8-1.1 2.8z" class="st0"/>
    <path id="path38" fill="#004d9d" d="M149.1 78.7h1.5v5.8h3.5v1.1h-5z" class="st0"/>
    <path id="path40" fill="#004d9d" d="M155.5 78.7h5.1v1.1H157v1.8h3.2v1.1H157v1.8h3.6v1.1h-5.1z" class="st0"/>
    <path id="path42" fill="#004d9d" d="M23.2 91h1.5v7h-1.5z" class="st0"/>
    <path id="path44" fill="#004d9d" d="M26.2 91h1.3l3.4 4.6V91h1.5v7h-1.3l-3.4-4.6V98h-1.5z" class="st0"/>
    <path id="path46" fill="#004d9d" d="M33.8 91h5v1.1h-3.5v1.8h3.1V95h-3.1v3h-1.5z" class="st0"/>
    <path id="path48" fill="#004d9d" d="M39 94.5c0-1.3.3-2.2.9-2.8.6-.6 1.4-.9 2.6-.9 1.2 0 2 .3 2.6.9.6.6.9 1.5.9 2.8 0 2.4-1.2 3.6-3.5 3.6S39 96.9 39 94.5zm5 1.8c.3-.4.5-1 .5-1.7 0-.9-.2-1.5-.5-1.8-.3-.4-.8-.5-1.5-.5s-1.2.2-1.5.5a3 3 0 0 0-.5 1.8c0 .8.2 1.4.5 1.7.3.4.8.6 1.5.6s1.1-.2 1.5-.6z" class="st0"/>
    <path id="path50" fill="#004d9d" d="M47.2 91h3.4c.8 0 1.4.2 1.8.6.4.4.6 1 .6 1.7 0 .5-.1.9-.4 1.2-.2.3-.6.6-1 .7l.3.3.2.4.9 1.9h-1.5l-.8-1.9-.2-.3-.4-.1h-1.2V98h-1.5v-7zm3 3.5c.4 0 .7-.1.9-.3.2-.2.3-.5.3-.8 0-.3-.1-.7-.3-.9-.2-.2-.5-.3-.9-.3h-1.6v2.2h1.6z" class="st0"/>
    <path id="path52" fill="#004d9d" d="M54.2 91h1.5l2.1 4.2 2.1-4.2h1.5v7h-1.5v-4.5l-1.7 3.3h-.9l-1.7-3.3V98h-1.5v-7z" class="st0"/>
    <path id="path54" fill="#004d9d" d="M65.1 91h1.6l2.7 7h-1.5l-.7-1.7h-2.6l-.7 1.7h-1.6zm1.9 4.2-1.1-2.8-1.1 2.8z" class="st0"/>
    <path id="path56" fill="#004d9d" d="M71 92.2h-2.2V91h5.8v1.1h-2.2V98H71Z" class="st0"/>
    <path id="path58" fill="#004d9d" d="M75.7 91h1.5v7h-1.5z" class="st0"/>
    <path id="path60" fill="#004d9d" d="M81.7 99.4c-.3-.3-.4-.8-.4-1.3-1.8-.2-2.7-1.4-2.7-3.5 0-1.3.3-2.2.9-2.8.6-.6 1.4-.9 2.6-.9 1.2 0 2 .3 2.6.9.6.6.9 1.5.9 2.8 0 2.2-1 3.4-2.9 3.5l.2.6.6.2.8-.1v1l-.5.1h-.6c-.8-.1-1.3-.2-1.5-.5zm1.7-3.1c.3-.4.5-1 .5-1.7 0-.9-.2-1.5-.5-1.8-.3-.4-.8-.5-1.5-.5s-1.2.2-1.5.5a3 3 0 0 0-.5 1.8c0 .8.2 1.4.5 1.7.3.4.8.6 1.5.6s1.2-.2 1.5-.6z" class="st0"/>
    <path id="path62" fill="#004d9d" d="M87.4 97.4c-.6-.5-.8-1.1-.8-2V91h1.5v4.2c0 .5.1.9.4 1.2.3.3.7.4 1.3.4.5 0 1-.1 1.2-.4.3-.3.4-.7.4-1.2V91h1.5v4.3c0 .9-.3 1.5-.8 2-.6.5-1.3.7-2.3.7-1 0-1.8-.1-2.4-.6z" class="st0"/>
    <path id="path64" fill="#004d9d" d="M94.4 91h5.1v1.1h-3.6v1.8h3.2V95h-3.2v1.8h3.6V98h-5.1z" class="st0"/>
    <path id="path66" fill="#e30613" d="M107.9 97.3c-.3.3-.6.4-1 .6l-1.3.2c-.8 0-1.4-.2-1.9-.5s-.7-.8-.7-1.4c0-.5.1-.9.4-1.2l1.2-.9-.7-.8-.2-.8c0-.5.2-.9.5-1.2.4-.3.8-.5 1.4-.5.6 0 1.1.1 1.4.4.4.3.5.7.5 1.2 0 .4-.1.7-.3.9a3 3 0 0 1-.8.8l1.5 1.5.2-.7v-.2h1.1v.2l-.1.8-.3.7.7.7-.9.8zm-1.5-.4.6-.4-1.6-1.5-.8.5a1 1 0 0 0-.3.7c0 .3.1.5.3.7.2.2.5.2.9.2l.9-.2zm-.2-3.7.2-.6-.2-.5-.6-.2-.6.2-.2.5.2.5.6.5c.3-.1.5-.2.6-.4z" class="st1"/>
    <path id="path68" fill="#004d9d" d="M113.5 91h1.5v5.8h3.5V98h-5z" class="st0"/>
    <path id="path70" fill="#004d9d" d="M119.5 91h1.5v7h-1.5z" class="st0"/>
    <path id="path72" fill="#004d9d" d="M122.5 91h3.6c.7 0 1.2.2 1.6.5.4.3.5.8.5 1.4l-.2.9c-.1.3-.3.5-.6.6.4.1.6.3.8.5.2.2.3.6.3 1 0 .7-.2 1.2-.6 1.5-.4.3-.9.5-1.7.5h-3.7zm3.3 2.9c.7 0 1-.3 1-.9l-.2-.7a2 2 0 0 0-.9-.2H124v1.8zm0 3 .8-.2c.1-.1.3-.4.3-.8a1 1 0 0 0-.3-.7 2 2 0 0 0-.9-.2H124v1.9z" class="st0"/>
    <path id="path74" fill="#004d9d" d="M129.7 91h5.1v1.1h-3.6v1.8h3.2V95h-3.2v1.8h3.6V98h-5.1z" class="st0"/>
    <path id="path76" fill="#004d9d" d="M136 91h3.4c.8 0 1.4.2 1.8.6.4.4.6 1 .6 1.7 0 .5-.1.9-.4 1.2-.2.3-.6.6-1 .7l.3.3.2.4.9 1.9h-1.5l-.8-1.9-.2-.3-.4-.1h-1.2V98H136Zm3.1 3.5c.4 0 .7-.1.9-.3.2-.2.3-.5.3-.8 0-.3-.1-.7-.3-.9-.2-.2-.5-.3-.9-.3h-1.6v2.2h1.6z" class="st0"/>
    <path id="path78" fill="#004d9d" d="M144.4 92.2h-2.2V91h5.8v1.1h-2.2V98h-1.5v-5.8z" class="st0"/>
    <path id="path80" fill="#004d9d" d="M149.1 91h5.1v1.1h-3.6v1.8h3.2V95h-3.2v1.8h3.6V98h-5.1zm2.7-2.5h1.3l-1 2H151Z" class="st0"/>
    <path id="path82" fill="#004d9d" d="M155.4 97.7v-1.3l1.1.3 1.1.1c.6 0 .9 0 1.2-.2.2-.1.3-.3.3-.6l-.2-.5-.5-.3-1.1-.3a4 4 0 0 1-1.6-.8c-.3-.3-.5-.7-.5-1.3 0-.6.2-1.1.7-1.5a4 4 0 0 1 2.1-.5l1.2.1.9.2v1.3c-.6-.2-1.2-.3-1.9-.3l-1.1.2c-.2.1-.4.3-.4.6l.1.4.5.3 1 .3c.8.2 1.4.5 1.7.8.3.3.5.8.5 1.3 0 .6-.2 1.1-.7 1.5-.5.4-1.2.5-2.2.5a4 4 0 0 1-2.2-.3z" class="st0"/>
  </g>
  <path id="rect86" fill="#e30613" stroke-width="11.4" d="M1481.3 389.9h83v83h-83z" class="st1"/>
  <g id="g98" transform="translate(-261.5 -321.7) scale(11.3687)">
    <g id="g96">
      <path id="path88" fill="#004d9d" d="m52.5 62.1.8 6.7a44.8 44.8 0 0 1-13.1 1.7c-6.3 0-10.8-1.6-13.3-4.7-2.6-3.2-3.9-8.6-3.9-16.4 0-7.8 1.3-13.2 3.9-16.4 2.6-3.2 7-4.7 13.3-4.7 4.6 0 8.7.5 12.3 1.4l-.8 6.7c-3.2-.2-7-.3-11.5-.3-3 0-5 .9-6.1 2.8a23.2 23.2 0 0 0-1.6 10.5c0 5.1.5 8.6 1.6 10.5 1.1 1.9 3.1 2.8 6.1 2.8 5.5 0 9.6-.2 12.3-.6z" class="st0"/>
      <path id="path90" fill="#004d9d" d="M93.6 29v37.5c0 2.2-1.1 3.3-3.2 3.3h-5.6c-.9 0-1.6-.2-2.1-.6-.5-.4-1-1.1-1.5-2L70.4 45.4c-1.3-2.9-2.2-5-2.5-6.3h-.7c.3 2 .4 4.1.4 6.5v24.2H59V32.2c0-2.2 1.1-3.3 3.3-3.3h5.5c.9 0 1.6.2 2.1.6.5.4 1 1.1 1.5 2l10.4 21.1 3 6.6h.6l-.4-6.9V29Z" class="st0"/>
      <path id="path92" fill="#004d9d" d="M110.9 69.8h-9V29h9z" class="st0"/>
      <path id="path94" fill="#004d9d" d="M145.2 69.9h-16.8c-3.2 0-5.5-.8-7.1-2.4a8.9 8.9 0 0 1-2.3-6.3V29h9v30.4c0 1.1.2 1.8.7 2.3.5.5 1.3.7 2.5.7h14z" class="st0"/>
    </g>
  </g>
  <path id="rect100" fill="none" d="M2910.8-230.1h184.1V-107h-184.1z"/>
</svg>
