<svg xmlns="http://www.w3.org/2000/svg" width="1333" height="787" viewBox="0 0 1333 787">
<g>
<path d="M 310.00 192.00 L 310.00 448.00 L 276.17 448.00 C257.56,448.00 242.03,447.70 241.67,447.33 C241.30,446.97 241.00,405.57 241.00,355.33 L 241.00 264.00 L 275.00 264.00 L 275.00 192.00 ZM 591.54 304.33 C584.55,306.71 578.48,306.43 572.00,303.43 C560.79,298.22 556.54,291.64 556.53,279.50 C556.53,270.47 557.78,267.28 563.67,261.40 C568.91,256.16 574.23,254.05 582.28,254.02 C590.40,254.00 595.12,255.77 600.33,260.80 C608.06,268.25 610.51,277.29 607.56,287.44 C605.42,294.80 598.70,301.89 591.54,304.33 ZM 1012.53 303.22 C1008.02,305.55 998.14,306.45 993.36,304.97 C987.32,303.11 980.63,297.60 977.59,291.99 C975.16,287.53 974.67,285.44 974.65,279.56 C974.61,271.51 976.64,266.59 982.16,261.31 C992.75,251.17 1010.99,251.39 1020.09,261.75 C1031.80,275.09 1028.14,295.18 1012.53,303.22 ZM 534.50 383.88 C532.30,384.49 526.34,384.99 521.25,384.99 L 512.00 385.00 L 512.00 335.00 L 522.25 335.01 C530.94,335.02 533.28,335.38 537.62,337.40 C545.91,341.27 550.87,349.49 550.95,359.50 C551.01,367.70 549.28,372.00 543.64,377.64 C540.33,380.95 537.08,383.17 534.50,383.88 ZM 679.96 383.52 C678.02,384.52 674.03,385.00 667.55,385.00 L 658.00 385.00 L 658.00 334.80 L 667.08 335.15 C676.11,335.50 676.17,335.52 679.58,339.24 C682.53,342.46 683.00,343.67 683.00,348.02 C683.00,350.82 682.33,354.09 681.51,355.35 C680.10,357.49 680.19,357.77 682.97,359.82 C690.59,365.45 688.88,378.91 679.96,383.52 ZM 238.00 192.00 L 238.00 225.00 L 202.00 225.00 L 202.00 192.00 ZM 265.00 159.47 C261.47,161.29 255.01,162.03 251.63,160.99 C243.25,158.42 237.00,150.36 237.00,142.15 C237.00,137.55 239.09,131.66 241.79,128.68 C247.11,122.79 259.10,121.14 266.50,125.27 C271.14,127.86 276.00,136.27 276.00,141.71 C276.00,148.28 270.99,156.38 265.00,159.47 ZM 794.00 375.00 L 794.00 385.00 L 786.00 385.00 L 786.00 335.00 L 794.75 335.00 C801.10,335.00 804.44,335.48 806.93,336.75 C817.04,341.91 817.52,355.62 807.81,361.88 L 804.11 364.26 L 809.34 371.38 C812.22,375.30 815.60,379.96 816.86,381.75 L 819.14 385.00 L 814.32 384.98 L 809.50 384.96 L 802.69 374.98 C798.95,369.49 795.46,365.00 794.94,365.00 C794.42,365.00 794.00,369.41 794.00,375.00 ZM 663.00 281.00 C663.00,295.30 662.66,307.00 662.25,307.00 C661.84,306.99 653.85,298.91 644.50,289.03 C635.15,279.15 627.16,271.05 626.75,271.03 C626.34,271.01 626.00,278.65 626.00,288.00 L 626.00 305.00 L 618.00 305.00 L 618.00 278.42 C618.00,261.02 618.35,251.95 619.01,252.17 C619.56,252.35 627.50,260.38 636.65,270.00 C645.80,279.63 653.67,287.65 654.14,287.83 C654.61,288.02 655.00,280.70 655.00,271.58 L 655.00 255.00 L 663.00 255.00 ZM 754.00 375.00 L 754.00 385.00 L 746.00 385.00 L 746.00 335.00 L 754.53 335.00 C759.70,335.00 764.42,335.57 766.51,336.44 C770.36,338.05 773.49,342.48 774.47,347.71 C775.34,352.35 771.65,359.92 767.50,362.00 C765.85,362.82 764.34,363.59 764.13,363.70 C763.80,363.88 770.36,373.23 776.79,381.75 L 779.24 385.00 L 769.35 385.00 L 762.50 375.00 C758.73,369.50 755.28,365.00 754.82,365.00 C754.37,365.00 754.00,369.50 754.00,375.00 ZM 866.00 281.00 C866.00,295.30 865.66,306.98 865.25,306.95 C864.84,306.93 856.85,298.83 847.50,288.96 C838.15,279.09 830.16,271.02 829.75,271.01 C829.34,271.00 829.00,278.68 829.00,288.06 L 829.00 305.12 L 821.50 304.50 L 821.23 278.25 C821.09,263.81 821.31,252.00 821.73,251.99 C822.16,251.98 830.46,260.20 840.20,270.24 L 857.90 288.50 L 857.95 271.75 L 858.00 255.00 L 866.00 255.00 ZM 576.64 297.54 C581.37,299.22 582.50,299.27 587.22,297.96 C601.84,293.89 605.67,273.71 593.57,264.48 C589.30,261.23 582.12,260.15 576.68,261.94 C559.77,267.52 559.74,291.51 576.64,297.54 ZM 993.31 296.57 C996.17,297.89 999.45,298.98 1000.60,298.99 C1006.51,299.02 1014.45,293.79 1017.59,287.80 C1019.39,284.36 1019.41,275.89 1017.62,271.72 C1013.54,262.18 1002.16,258.32 992.25,263.12 C985.75,266.27 982.50,271.73 982.50,279.50 C982.50,287.72 985.92,293.12 993.31,296.57 ZM 1081.00 281.00 C1081.00,295.30 1080.81,307.00 1080.58,307.00 C1080.34,307.00 1072.37,298.90 1062.86,289.00 C1053.35,279.10 1045.22,271.00 1044.79,271.00 C1044.35,271.00 1044.00,278.68 1044.00,288.06 L 1044.00 305.12 L 1036.92 304.50 L 1036.71 278.25 C1036.60,263.81 1036.72,251.98 1037.00,251.96 C1037.28,251.94 1045.47,260.15 1055.22,270.21 L 1072.93 288.50 L 1072.97 271.75 L 1073.00 255.00 L 1081.00 255.00 ZM 702.00 379.00 C699.05,384.84 698.86,385.00 694.95,385.00 C691.46,385.00 691.04,384.77 691.78,383.25 C692.26,382.29 697.78,370.36 704.07,356.75 C710.36,343.14 715.72,332.02 716.00,332.03 C716.39,332.05 731.83,366.03 738.75,382.09 L 740.01 385.00 L 735.74 385.00 C731.49,385.00 731.46,384.98 728.82,379.00 L 726.17 373.00 L 705.03 373.00 ZM 1098.66 299.00 C1096.10,304.91 1096.00,305.00 1092.03,305.00 C1089.81,305.00 1088.00,304.76 1088.00,304.47 C1088.00,302.56 1112.46,252.06 1113.07,252.70 C1113.49,253.14 1118.87,264.75 1125.02,278.50 C1131.17,292.25 1136.41,303.84 1136.66,304.25 C1136.91,304.66 1135.14,305.00 1132.72,305.00 L 1128.33 305.00 L 1123.15 293.00 L 1101.26 293.00 ZM 883.51 298.97 C880.73,304.79 880.50,305.00 876.82,305.00 C874.72,305.00 873.00,304.65 873.00,304.23 C873.00,302.57 896.65,252.82 897.42,252.85 C898.24,252.89 921.00,302.47 921.00,304.20 C921.00,304.70 919.16,304.98 916.91,304.81 C912.98,304.51 912.72,304.28 910.50,299.00 L 908.18 293.50 L 897.29 293.22 L 886.40 292.94 ZM 869.82 379.00 C867.19,384.96 867.14,385.00 862.98,385.00 C860.02,385.00 858.93,384.63 859.29,383.75 C863.06,374.31 883.55,332.16 884.08,332.73 C884.49,333.15 888.63,342.05 893.31,352.50 C897.98,362.95 903.18,374.54 904.86,378.25 L 907.92 385.00 L 899.33 385.00 L 894.15 373.00 L 872.47 373.00 ZM 937.68 384.94 C929.91,387.88 919.75,384.60 915.17,377.68 C912.54,373.72 912.50,373.35 912.19,354.33 L 911.88 335.00 L 920.00 335.00 L 920.00 352.43 C920.00,362.02 920.44,371.02 920.98,372.43 C922.14,375.49 927.50,378.99 931.00,378.99 C935.26,378.99 939.77,375.51 940.93,371.30 C941.51,369.21 941.99,360.19 941.99,351.25 L 942.00 335.00 L 950.22 335.00 L 949.82 353.75 C949.39,374.05 948.96,375.87 943.34,381.19 C941.78,382.66 939.23,384.35 937.68,384.94 ZM 970.21 376.03 L 964.91 385.00 L 956.08 385.00 L 963.99 371.83 C969.72,362.28 971.66,358.23 971.04,357.07 C970.57,356.19 967.46,350.86 964.14,345.23 L 958.10 335.00 L 967.50 335.03 L 971.79 343.01 C974.16,347.41 976.25,351.00 976.45,351.00 C976.65,351.00 978.92,347.40 981.50,343.00 L 986.19 335.00 L 990.71 335.00 C995.16,335.00 995.21,335.04 993.78,337.25 C992.99,338.49 989.77,343.83 986.62,349.12 L 980.91 358.74 L 988.08 371.12 C992.03,377.93 995.45,383.84 995.69,384.25 C995.92,384.66 994.12,385.00 991.67,385.00 L 987.23 385.00 L 982.28 376.31 C979.56,371.52 976.92,367.49 976.42,367.33 C975.91,367.18 973.12,371.09 970.21,376.03 ZM 588.00 378.00 L 588.00 385.00 L 560.00 385.00 L 560.00 335.00 L 588.00 335.00 L 588.00 342.00 L 568.00 342.00 L 568.00 354.00 L 588.00 354.00 L 588.00 361.00 L 568.00 361.00 L 568.00 378.00 ZM 742.00 298.07 L 742.00 305.00 L 714.00 305.00 L 714.00 255.00 L 742.13 255.00 L 741.50 261.50 L 731.20 261.79 L 720.90 262.07 L 721.20 267.79 L 721.50 273.50 L 731.25 273.79 L 741.00 274.07 L 741.00 281.00 L 720.92 281.00 L 721.21 289.25 L 721.50 297.50 L 731.75 297.78 ZM 855.00 378.00 L 855.00 385.00 L 827.00 385.00 L 827.00 335.00 L 855.00 335.00 L 855.00 342.00 L 833.90 342.00 L 834.20 347.75 L 834.50 353.50 L 844.25 353.79 L 854.00 354.07 L 854.00 361.00 L 834.00 361.00 L 834.00 378.00 ZM 696.08 303.96 C691.09,306.51 685.61,306.50 680.76,303.94 C676.68,301.78 674.41,298.91 673.06,294.19 C672.10,290.88 673.03,290.00 677.48,290.00 C679.15,290.00 680.09,290.83 680.83,292.94 C681.81,295.75 686.35,299.00 689.32,299.00 C691.81,299.00 695.83,295.07 696.51,291.95 C697.51,287.39 694.99,284.52 686.00,280.00 C676.96,275.46 674.46,272.49 674.59,266.50 C674.77,258.46 680.45,254.00 690.50,254.00 C695.65,254.00 696.53,254.33 699.60,257.40 C701.47,259.27 703.00,261.18 702.99,261.65 C702.99,262.12 701.68,263.24 700.09,264.15 C697.29,265.74 697.12,265.72 695.10,263.40 C692.27,260.14 687.15,260.15 684.08,263.41 C680.41,267.32 681.97,269.50 691.83,274.29 C699.68,278.10 700.72,278.95 702.84,283.22 C704.64,286.85 705.03,288.84 704.53,291.81 C703.59,297.40 700.65,301.63 696.08,303.96 ZM 619.62 384.38 C615.71,386.23 608.46,386.47 605.50,384.84 C601.70,382.74 598.04,378.66 596.92,375.27 C595.60,371.25 595.71,371.08 600.23,370.35 C603.48,369.82 603.75,369.99 604.32,372.85 C604.97,376.09 609.07,379.00 613.00,379.00 C616.17,379.00 620.00,374.62 620.00,370.98 C620.00,366.02 618.41,364.25 610.72,360.66 C602.12,356.64 599.00,353.54 598.37,348.35 C597.36,340.09 603.88,334.00 613.73,334.00 C618.37,334.00 619.47,334.43 623.00,337.62 C625.20,339.61 627.00,341.52 626.99,341.87 C626.99,342.21 625.68,343.24 624.08,344.15 C621.27,345.75 621.09,345.73 618.91,343.40 C614.77,339.00 606.00,341.36 606.00,346.88 C606.00,349.38 607.86,350.84 616.35,355.00 C625.73,359.59 628.33,363.25 627.79,371.07 C627.33,377.62 624.65,381.99 619.62,384.38 ZM 544.32 304.41 C537.03,306.89 531.25,306.46 524.15,302.91 C514.53,298.11 509.83,290.65 509.77,280.11 C509.72,269.20 515.91,259.57 525.60,255.52 C529.85,253.75 541.28,253.51 545.85,255.10 C548.74,256.10 549.00,256.56 549.00,260.60 C549.00,263.02 548.87,265.00 548.71,265.00 C548.55,265.00 546.66,264.10 544.50,263.00 C536.89,259.12 527.96,260.86 522.28,267.34 C512.24,278.77 518.57,296.15 533.66,298.56 C537.46,299.17 540.16,298.36 548.25,294.22 C548.66,294.01 549.00,295.85 549.00,298.32 C549.00,302.77 548.96,302.83 544.32,304.41 ZM 520.00 341.72 L 520.00 378.00 L 523.75 377.99 C532.22,377.98 539.35,373.55 541.94,366.68 C543.72,361.97 543.19,354.89 540.73,350.56 C537.83,345.42 533.41,342.94 525.99,342.27 ZM 939.00 262.10 L 939.00 305.00 L 931.00 305.00 L 931.00 262.00 L 920.00 262.00 L 920.00 255.00 L 951.13 255.00 L 950.81 258.25 C950.50,261.46 950.43,261.50 944.75,261.80 ZM 794.00 298.09 L 794.00 305.00 L 771.00 305.00 L 771.00 255.00 L 778.96 255.00 L 779.50 297.50 L 786.75 297.79 ZM 1165.00 298.00 L 1165.00 305.00 L 1143.00 305.00 L 1143.00 255.00 L 1151.00 255.00 L 1151.00 298.00 ZM 965.00 255.00 L 965.00 305.00 L 957.00 305.00 L 957.00 255.00 ZM 759.00 255.00 L 759.00 305.00 L 755.67 305.00 C753.83,305.00 752.03,304.70 751.67,304.33 C751.30,303.97 751.00,292.72 751.00,279.33 L 751.00 255.00 ZM 666.00 363.00 L 666.00 378.25 L 671.01 377.77 C677.16,377.18 680.00,374.86 680.00,370.42 C680.00,365.93 676.20,363.00 670.37,363.00 ZM 794.67 357.33 C796.47,359.14 804.53,356.74 806.02,353.96 C809.19,348.04 805.07,342.00 797.87,342.00 L 794.00 342.00 L 794.00 349.33 C794.00,353.37 794.30,356.97 794.67,357.33 ZM 754.00 350.00 C754.00,357.73 754.08,358.00 756.35,358.00 C760.07,358.00 764.95,355.96 766.02,353.96 C769.06,348.29 764.86,342.00 758.05,342.00 L 754.00 342.00 ZM 890.56 285.10 C890.87,285.59 894.07,286.00 897.67,286.00 C904.02,286.00 904.20,285.93 903.63,283.68 C902.74,280.13 897.94,269.99 897.18,270.04 C896.10,270.10 889.95,284.10 890.56,285.10 ZM 1105.68 285.25 C1106.19,286.12 1118.39,286.28 1119.24,285.43 C1119.83,284.83 1114.46,272.19 1112.93,270.57 C1111.99,269.59 1104.91,283.93 1105.68,285.25 ZM 876.76 365.42 C877.07,365.74 880.18,366.00 883.67,366.00 C888.44,366.00 890.00,365.65 890.00,364.59 C890.00,361.98 883.94,349.66 883.12,350.58 C881.54,352.35 876.18,364.85 876.76,365.42 ZM 709.00 364.73 C709.00,366.13 721.52,366.62 722.32,365.25 C722.56,364.84 721.19,361.12 719.27,357.00 L 715.78 349.50 L 712.39 356.48 C710.53,360.32 709.00,364.03 709.00,364.73 ZM 666.58 356.24 C667.55,357.21 673.43,355.11 674.75,353.31 C678.08,348.80 674.62,342.00 669.00,342.00 L 666.00 342.00 L 666.00 348.83 C666.00,352.59 666.26,355.93 666.58,356.24 Z" fill="rgb(16,16,16)"/>
<path d="M 166.00 412.00 L 166.00 484.00 L 130.00 484.00 L 130.00 228.00 L 238.00 228.00 L 238.00 484.00 L 203.00 484.00 L 203.00 412.00 ZM 665.79 649.41 C656.58,651.31 643.82,651.35 635.31,649.49 C621.45,646.48 605.64,636.73 595.56,624.99 C590.23,618.78 583.85,606.19 581.88,598.00 C579.95,589.99 580.23,570.95 582.38,563.08 C588.51,540.72 605.88,522.79 629.50,514.44 C636.97,511.80 660.32,511.24 669.00,513.49 C690.47,519.05 710.76,538.17 717.59,559.29 C721.13,570.22 721.96,585.58 719.59,596.25 C713.77,622.38 691.86,644.04 665.79,649.41 ZM 639.34 630.58 C664.77,636.75 691.15,621.21 698.49,595.72 C700.63,588.32 700.63,574.40 698.51,566.50 C695.10,553.84 684.59,541.38 672.10,535.20 L 664.60 531.50 L 637.50 531.50 L 629.67 535.24 C620.62,539.56 611.14,548.39 606.77,556.57 C599.10,570.95 599.05,590.26 606.63,605.27 C612.16,616.21 626.79,627.53 639.34,630.58 ZM 364.16 632.75 L 356.71 649.00 L 346.52 649.00 C340.92,649.00 336.08,648.74 335.76,648.43 C335.45,648.11 338.67,640.35 342.92,631.18 C382.89,545.00 401.40,506.01 402.01,506.69 C402.41,507.14 414.32,533.38 428.48,565.00 C442.64,596.62 456.85,628.26 460.05,635.30 C464.17,644.34 465.51,648.25 464.62,648.59 C463.93,648.86 458.89,648.95 453.43,648.79 L 443.50 648.50 L 429.50 615.97 L 400.55 616.24 L 371.60 616.50 ZM 888.97 632.24 L 881.49 648.50 L 870.67 648.78 C861.63,649.02 859.89,648.83 860.17,647.62 C861.07,643.67 925.48,506.99 926.32,507.27 C927.25,507.58 990.00,646.37 990.00,648.13 C990.00,648.61 985.28,649.00 979.51,649.00 C970.59,649.00 968.85,648.74 967.94,647.25 C967.34,646.29 964.02,638.97 960.56,631.00 L 954.26 616.50 L 925.36 616.24 L 896.45 615.97 ZM 1140.80 647.02 C1134.56,649.90 1132.41,650.36 1124.07,650.63 C1113.42,650.98 1108.17,649.85 1100.10,645.46 C1090.61,640.29 1083.63,630.54 1080.40,617.90 C1079.54,614.56 1078.99,611.70 1079.17,611.54 C1079.49,611.26 1098.60,607.00 1099.53,607.00 C1099.79,607.00 1100.00,607.82 1100.00,608.82 C1100.00,613.18 1103.36,621.39 1106.62,625.00 C1116.00,635.39 1134.49,633.55 1141.54,621.52 C1147.36,611.59 1145.13,599.25 1136.30,592.50 C1133.88,590.66 1126.86,587.04 1120.70,584.46 C1105.94,578.28 1100.47,575.11 1094.79,569.43 C1087.56,562.19 1085.59,557.29 1085.58,546.50 C1085.57,538.73 1085.93,536.82 1088.18,532.50 C1095.92,517.67 1113.18,509.59 1132.05,511.94 C1135.65,512.39 1140.83,513.89 1143.55,515.27 C1148.40,517.74 1158.51,527.34 1160.85,531.72 C1160.94,531.88 1161.02,532.03 1161.10,532.17 C1161.37,532.65 1161.57,533.00 1161.57,533.35 C1161.55,534.40 1159.65,535.42 1152.23,539.85 C1149.34,541.58 1146.60,543.00 1146.15,543.00 C1145.70,543.00 1143.86,541.16 1142.05,538.92 C1137.07,532.71 1133.60,531.01 1125.96,531.00 C1110.77,531.00 1101.35,542.86 1107.96,553.70 C1110.56,557.96 1112.65,559.22 1128.62,566.09 C1144.50,572.92 1150.28,576.41 1156.01,582.63 C1163.09,590.30 1164.50,594.61 1164.50,608.50 C1164.50,619.46 1164.26,621.00 1161.79,626.28 C1157.80,634.81 1149.49,643.02 1140.80,647.02 ZM 824.84 649.47 C821.36,650.30 814.45,650.94 809.50,650.91 C790.01,650.77 774.01,644.13 760.57,630.62 C746.68,616.65 741.08,604.20 740.23,585.40 C739.86,577.16 740.17,572.36 741.40,566.79 C745.91,546.52 760.43,527.79 778.50,518.93 C789.57,513.50 797.32,511.76 810.49,511.74 C822.75,511.73 830.80,513.37 839.83,517.75 L 845.50 520.50 L 845.78 532.25 C845.94,538.71 845.79,544.00 845.46,544.00 C845.13,544.00 842.86,542.62 840.41,540.94 C837.96,539.25 832.97,536.48 829.31,534.77 C823.61,532.10 821.23,531.59 812.51,531.21 C796.56,530.50 787.69,533.68 776.52,544.13 C764.39,555.48 759.05,571.10 761.17,589.00 C764.66,618.48 795.31,638.63 823.43,629.95 C827.32,628.75 833.38,625.65 838.04,622.47 L 846.00 617.05 L 846.00 641.81 L 838.59 644.90 C834.52,646.59 828.33,648.65 824.84,649.47 ZM 536.80 608.50 C525.81,634.90 516.50,656.84 516.11,657.25 C515.72,657.66 509.49,643.48 502.25,625.75 C495.02,608.01 481.87,575.80 473.05,554.17 C464.22,532.53 457.00,514.63 457.00,514.38 C457.00,514.14 462.00,514.06 468.10,514.22 L 479.21 514.50 L 497.18 559.50 C507.07,584.25 515.47,604.83 515.85,605.22 C516.24,605.62 524.89,585.37 535.08,560.22 L 553.62 514.50 L 564.93 514.22 C573.82,513.99 576.13,514.21 575.73,515.22 C575.46,515.92 571.08,526.40 566.01,538.50 C560.94,550.60 547.79,582.10 536.80,608.50 ZM 1037.00 533.00 L 1037.00 649.00 L 1017.00 649.00 L 1017.00 533.00 L 986.00 533.00 L 986.00 514.00 L 1068.00 514.00 L 1068.00 533.00 ZM 227.00 637.05 L 227.00 649.00 L 204.17 649.00 C191.61,649.00 181.03,648.70 180.67,648.33 C180.30,647.97 180.00,628.84 180.00,605.83 L 180.00 564.00 L 227.00 564.00 L 227.00 576.00 L 193.00 576.00 L 193.00 596.00 L 226.00 596.00 L 226.00 608.00 L 192.95 608.00 L 193.22 622.25 L 193.50 636.50 ZM 278.00 647.92 C274.96,649.30 271.40,649.96 267.00,649.96 C253.79,649.96 242.82,641.22 240.50,628.84 C239.83,625.30 239.85,625.28 244.36,624.14 C251.88,622.24 252.64,622.49 253.84,627.29 C256.14,636.42 266.77,640.88 274.70,636.04 C278.88,633.49 281.00,629.23 281.00,623.38 C281.00,619.10 280.59,618.27 276.66,614.58 C273.96,612.04 269.25,609.24 264.17,607.15 C249.13,600.96 244.00,595.23 244.00,584.60 C244.00,577.79 245.24,574.43 249.31,570.16 C253.86,565.40 259.51,562.81 266.58,562.24 C275.63,561.52 281.79,563.86 287.47,570.18 C289.96,572.95 292.00,575.55 292.00,575.95 C292.00,576.35 289.71,577.93 286.91,579.45 L 281.81 582.23 L 278.86 578.65 C272.08,570.42 257.00,574.41 257.00,584.45 C257.00,588.70 260.85,592.27 269.04,595.59 C288.26,603.40 293.94,609.65 293.97,623.00 C293.99,634.12 288.06,643.37 278.00,647.92 ZM 168.00 637.06 L 168.00 649.00 L 149.67 649.00 C139.58,649.00 131.03,648.70 130.67,648.33 C130.30,647.97 130.00,628.84 130.00,605.83 L 130.00 564.00 L 142.98 564.00 L 143.24 600.25 L 143.50 636.50 L 155.75 636.78 ZM 192.30 186.38 C184.61,190.27 173.06,187.07 168.17,179.68 C165.95,176.33 165.50,174.53 165.50,169.00 C165.50,163.46 165.95,161.68 168.18,158.30 C176.01,146.48 194.60,147.45 201.01,160.02 C203.58,165.05 203.62,172.86 201.11,177.79 C198.94,182.03 196.84,184.08 192.30,186.38 ZM 906.00 595.78 C906.00,596.70 910.80,597.00 925.50,597.00 C937.13,597.00 945.00,596.62 945.00,596.05 C945.00,594.78 927.15,553.75 926.17,552.77 C925.42,552.02 906.00,593.41 906.00,595.78 ZM 380.99 596.25 C381.00,596.66 389.75,597.00 400.44,597.00 C411.13,597.00 420.07,596.66 420.29,596.25 C420.86,595.20 402.55,553.68 401.34,553.28 C400.48,552.99 380.98,594.19 380.99,596.25 Z" fill="rgb(173,27,46)"/>
<path d="M 347.90 499.12 C326.12,511.70 307.89,521.97 307.40,521.94 C306.90,521.90 291.76,513.31 273.75,502.85 L 241.00 483.82 L 241.00 475.91 C241.00,471.56 241.39,468.00 241.86,468.00 C242.33,468.00 256.84,476.16 274.11,486.13 C291.37,496.10 306.06,504.47 306.75,504.73 C306.80,504.75 306.85,504.77 306.91,504.79 C308.20,505.23 309.99,504.19 361.80,474.23 L 362.50 473.83 C383.95,461.43 411.62,445.44 424.00,438.32 C436.38,431.19 451.34,422.52 457.25,419.07 L 468.00 412.78 L 468.00 229.14 L 465.25 227.21 C463.74,226.15 450.12,218.18 435.00,209.49 C419.88,200.81 398.05,188.22 386.50,181.52 C374.95,174.82 353.91,162.65 339.75,154.47 L 314.00 139.59 L 314.00 131.26 C314.00,122.93 314.00,122.93 316.25,124.13 C317.49,124.79 332.23,133.28 349.00,142.99 C382.25,162.24 463.00,208.85 474.98,215.72 L 482.45 220.00 L 823.81 220.00 C1096.45,220.00 1165.08,220.25 1164.75,221.25 C1164.42,222.25 1095.03,222.55 823.17,222.75 L 482.00 223.00 L 482.00 419.00 L 823.50 419.00 C1126.39,419.00 1165.00,419.17 1165.00,420.50 C1165.00,421.83 1126.36,422.00 823.20,422.00 L 481.39 422.00 L 434.45 449.12 C408.63,464.03 369.68,486.53 347.90,499.12 Z" fill="rgb(214,178,81)"/>
<path d="M 0.00 393.50 L 0.00 0.00 L 666.50 0.00 L 1333.00 0.00 L 1333.00 393.50 L 1333.00 787.00 L 666.50 787.00 L 0.00 787.00 L 0.00 393.50 ZM 536.80 608.50 C547.79,582.10 560.94,550.60 566.01,538.50 C571.08,526.40 575.46,515.92 575.73,515.22 C576.13,514.21 573.82,513.99 564.93,514.22 L 553.62 514.50 L 535.08 560.22 C524.89,585.37 516.24,605.62 515.85,605.22 C515.47,604.83 507.07,584.25 497.18,559.50 L 479.21 514.50 L 468.10 514.22 C462.00,514.06 457.00,514.14 457.00,514.38 C457.00,514.63 464.22,532.53 473.05,554.17 C481.87,575.80 495.02,608.01 502.25,625.75 C509.49,643.48 515.72,657.66 516.11,657.25 C516.50,656.84 525.81,634.90 536.80,608.50 ZM 665.79 649.41 C691.86,644.04 713.77,622.38 719.59,596.25 C721.96,585.58 721.13,570.22 717.59,559.29 C710.76,538.17 690.47,519.05 669.00,513.49 C660.32,511.24 636.97,511.80 629.50,514.44 C605.88,522.79 588.51,540.72 582.38,563.08 C580.23,570.95 579.95,589.99 581.88,598.00 C583.85,606.19 590.23,618.78 595.56,624.99 C605.64,636.73 621.45,646.48 635.31,649.49 C643.82,651.35 656.58,651.31 665.79,649.41 ZM 824.84 649.47 C828.33,648.65 834.52,646.59 838.59,644.90 L 846.00 641.81 L 846.00 629.43 L 846.00 617.05 L 838.04 622.47 C833.38,625.65 827.32,628.75 823.43,629.95 C795.31,638.63 764.66,618.48 761.17,589.00 C759.05,571.10 764.39,555.48 776.52,544.13 C787.69,533.68 796.56,530.50 812.51,531.21 C821.23,531.59 823.61,532.10 829.31,534.77 C832.97,536.48 837.96,539.25 840.41,540.94 C842.86,542.62 845.13,544.00 845.46,544.00 C845.79,544.00 845.94,538.71 845.78,532.25 L 845.50 520.50 L 839.83 517.75 C830.80,513.37 822.75,511.73 810.49,511.74 C797.32,511.76 789.57,513.50 778.50,518.93 C760.43,527.79 745.91,546.52 741.40,566.79 C740.17,572.36 739.86,577.16 740.23,585.40 C741.08,604.20 746.68,616.65 760.57,630.62 C774.01,644.13 790.01,650.77 809.50,650.91 C814.45,650.94 821.36,650.30 824.84,649.47 ZM 1140.80 647.02 C1149.49,643.02 1157.80,634.81 1161.79,626.28 C1164.26,621.00 1164.50,619.46 1164.50,608.50 C1164.50,594.61 1163.09,590.30 1156.01,582.63 C1150.28,576.41 1144.50,572.92 1128.62,566.09 C1112.65,559.22 1110.56,557.96 1107.96,553.70 C1101.35,542.86 1110.77,531.00 1125.96,531.00 C1133.60,531.01 1137.07,532.71 1142.05,538.92 C1143.86,541.16 1145.70,543.00 1146.15,543.00 C1146.60,543.00 1149.34,541.58 1152.23,539.85 C1162.82,533.53 1162.16,534.16 1160.85,531.72 C1158.51,527.34 1148.40,517.74 1143.55,515.27 C1140.83,513.89 1135.65,512.39 1132.05,511.94 C1113.18,509.59 1095.92,517.67 1088.18,532.50 C1085.93,536.82 1085.57,538.73 1085.58,546.50 C1085.59,557.29 1087.56,562.19 1094.79,569.43 C1100.47,575.11 1105.94,578.28 1120.70,584.46 C1126.86,587.04 1133.88,590.66 1136.30,592.50 C1145.13,599.25 1147.36,611.59 1141.54,621.52 C1134.49,633.55 1116.00,635.39 1106.62,625.00 C1103.36,621.39 1100.00,613.18 1100.00,608.82 C1100.00,607.82 1099.79,607.00 1099.53,607.00 C1098.60,607.00 1079.49,611.26 1079.17,611.54 C1078.99,611.70 1079.54,614.56 1080.40,617.90 C1083.63,630.54 1090.61,640.29 1100.10,645.46 C1108.17,649.85 1113.42,650.98 1124.07,650.63 C1132.41,650.36 1134.56,649.90 1140.80,647.02 ZM 278.00 647.92 C288.06,643.37 293.99,634.12 293.97,623.00 C293.94,609.65 288.26,603.40 269.04,595.59 C260.85,592.27 257.00,588.70 257.00,584.45 C257.00,574.41 272.08,570.42 278.86,578.65 L 281.81 582.23 L 286.91 579.45 C289.71,577.93 292.00,576.35 292.00,575.95 C292.00,575.55 289.96,572.95 287.47,570.18 C281.79,563.86 275.63,561.52 266.58,562.24 C259.51,562.81 253.86,565.40 249.31,570.16 C245.24,574.43 244.00,577.79 244.00,584.60 C244.00,595.23 249.13,600.96 264.17,607.15 C269.25,609.24 273.96,612.04 276.66,614.58 C280.59,618.27 281.00,619.10 281.00,623.38 C281.00,629.23 278.88,633.49 274.70,636.04 C266.77,640.88 256.14,636.42 253.84,627.29 C252.64,622.49 251.88,622.24 244.36,624.14 C239.85,625.28 239.83,625.30 240.50,628.84 C242.82,641.22 253.79,649.96 267.00,649.96 C271.40,649.96 274.96,649.30 278.00,647.92 ZM 168.00 643.03 L 168.00 637.06 L 155.75 636.78 L 143.50 636.50 L 143.24 600.25 L 142.98 564.00 L 136.49 564.00 L 130.00 564.00 L 130.00 605.83 C130.00,628.84 130.30,647.97 130.67,648.33 C131.03,648.70 139.58,649.00 149.67,649.00 L 168.00 649.00 L 168.00 643.03 ZM 227.00 643.02 L 227.00 637.05 L 210.25 636.77 L 193.50 636.50 L 193.22 622.25 L 192.95 608.00 L 209.47 608.00 L 226.00 608.00 L 226.00 602.00 L 226.00 596.00 L 209.50 596.00 L 193.00 596.00 L 193.00 586.00 L 193.00 576.00 L 210.00 576.00 L 227.00 576.00 L 227.00 570.00 L 227.00 564.00 L 203.50 564.00 L 180.00 564.00 L 180.00 605.83 C180.00,628.84 180.30,647.97 180.67,648.33 C181.03,648.70 191.61,649.00 204.17,649.00 L 227.00 649.00 L 227.00 643.02 ZM 364.16 632.75 L 371.60 616.50 L 400.55 616.24 L 429.50 615.97 L 436.50 632.24 L 443.50 648.50 L 453.43 648.79 C458.89,648.95 463.93,648.86 464.62,648.59 C465.51,648.25 464.17,644.34 460.05,635.30 C456.85,628.26 442.64,596.62 428.48,565.00 C414.32,533.38 402.41,507.14 402.01,506.69 C401.40,506.01 382.89,545.00 342.92,631.18 C338.67,640.35 335.45,648.11 335.76,648.43 C336.08,648.74 340.92,649.00 346.52,649.00 L 356.71 649.00 L 364.16 632.75 ZM 888.97 632.24 L 896.45 615.97 L 925.36 616.24 L 954.26 616.50 L 960.56 631.00 C964.02,638.97 967.34,646.29 967.94,647.25 C968.85,648.74 970.59,649.00 979.51,649.00 C985.28,649.00 990.00,648.61 990.00,648.13 C990.00,646.37 927.25,507.58 926.32,507.27 C925.48,506.99 861.07,643.67 860.17,647.62 C859.89,648.83 861.63,649.02 870.67,648.78 L 881.49 648.50 L 888.97 632.24 ZM 1037.00 591.00 L 1037.00 533.00 L 1052.50 533.00 L 1068.00 533.00 L 1068.00 523.50 L 1068.00 514.00 L 1027.00 514.00 L 986.00 514.00 L 986.00 523.50 L 986.00 533.00 L 1001.50 533.00 L 1017.00 533.00 L 1017.00 591.00 L 1017.00 649.00 L 1027.00 649.00 L 1037.00 649.00 L 1037.00 591.00 ZM 347.90 499.12 C369.68,486.53 408.63,464.03 434.45,449.12 L 481.39 422.00 L 823.20 422.00 C1126.36,422.00 1165.00,421.83 1165.00,420.50 C1165.00,419.17 1126.39,419.00 823.50,419.00 L 482.00 419.00 L 482.00 321.00 L 482.00 223.00 L 823.17 222.75 C1095.03,222.55 1164.42,222.25 1164.75,221.25 C1165.08,220.25 1096.45,220.00 823.81,220.00 L 482.45 220.00 L 474.98 215.72 C463.00,208.85 382.25,162.24 349.00,142.99 C332.23,133.28 317.49,124.79 316.25,124.13 C314.00,122.93 314.00,122.93 314.00,131.26 L 314.00 139.59 L 339.75 154.47 C353.91,162.65 374.95,174.82 386.50,181.52 C398.05,188.22 419.88,200.81 435.00,209.49 C450.12,218.18 463.74,226.15 465.25,227.21 L 468.00 229.14 L 468.00 320.96 L 468.00 412.78 L 457.25 419.07 C451.34,422.52 436.38,431.19 424.00,438.32 C411.62,445.44 383.95,461.43 362.50,473.83 C307.90,505.40 308.14,505.27 306.75,504.73 C306.06,504.47 291.37,496.10 274.11,486.13 C256.84,476.16 242.33,468.00 241.86,468.00 C241.39,468.00 241.00,471.56 241.00,475.91 L 241.00 483.82 L 273.75 502.85 C291.76,513.31 306.90,521.90 307.40,521.94 C307.89,521.97 326.12,511.70 347.90,499.12 ZM 166.00 448.00 L 166.00 412.00 L 184.50 412.00 L 203.00 412.00 L 203.00 448.00 L 203.00 484.00 L 220.50 484.00 L 238.00 484.00 L 238.00 356.00 L 238.00 228.00 L 184.00 228.00 L 130.00 228.00 L 130.00 356.00 L 130.00 484.00 L 148.00 484.00 L 166.00 484.00 L 166.00 448.00 ZM 310.00 320.00 L 310.00 192.00 L 292.50 192.00 L 275.00 192.00 L 275.00 228.00 L 275.00 264.00 L 258.00 264.00 L 241.00 264.00 L 241.00 355.33 C241.00,405.57 241.30,446.97 241.67,447.33 C242.03,447.70 257.56,448.00 276.17,448.00 L 310.00 448.00 L 310.00 320.00 ZM 619.62 384.38 C624.65,381.99 627.33,377.62 627.79,371.07 C628.33,363.25 625.73,359.59 616.35,355.00 C607.86,350.84 606.00,349.38 606.00,346.88 C606.00,341.36 614.77,339.00 618.91,343.40 C621.09,345.73 621.27,345.75 624.08,344.15 C625.68,343.24 626.99,342.21 626.99,341.87 C627.00,341.52 625.20,339.61 623.00,337.62 C619.47,334.43 618.37,334.00 613.73,334.00 C603.88,334.00 597.36,340.09 598.37,348.35 C599.00,353.54 602.12,356.64 610.72,360.66 C618.41,364.25 620.00,366.02 620.00,370.98 C620.00,374.62 616.17,379.00 613.00,379.00 C609.07,379.00 604.97,376.09 604.32,372.85 C603.75,369.99 603.48,369.82 600.23,370.35 C595.71,371.08 595.60,371.25 596.92,375.27 C598.04,378.66 601.70,382.74 605.50,384.84 C608.46,386.47 615.71,386.23 619.62,384.38 ZM 937.68 384.94 C939.23,384.35 941.78,382.66 943.34,381.19 C948.96,375.87 949.39,374.05 949.82,353.75 L 950.22 335.00 L 946.11 335.00 L 942.00 335.00 L 941.99 351.25 C941.99,360.19 941.51,369.21 940.93,371.30 C939.77,375.51 935.26,378.99 931.00,378.99 C927.50,378.99 922.14,375.49 920.98,372.43 C920.44,371.02 920.00,362.02 920.00,352.43 L 920.00 335.00 L 915.94 335.00 L 911.88 335.00 L 912.19 354.33 C912.50,373.35 912.54,373.72 915.17,377.68 C919.75,384.60 929.91,387.88 937.68,384.94 ZM 534.50 383.88 C537.08,383.17 540.33,380.95 543.64,377.64 C549.28,372.00 551.01,367.70 550.95,359.50 C550.87,349.49 545.91,341.27 537.62,337.40 C533.28,335.38 530.94,335.02 522.25,335.01 L 512.00 335.00 L 512.00 360.00 L 512.00 385.00 L 521.25 384.99 C526.34,384.99 532.30,384.49 534.50,383.88 ZM 588.00 381.50 L 588.00 378.00 L 578.00 378.00 L 568.00 378.00 L 568.00 369.50 L 568.00 361.00 L 578.00 361.00 L 588.00 361.00 L 588.00 357.50 L 588.00 354.00 L 578.00 354.00 L 568.00 354.00 L 568.00 348.00 L 568.00 342.00 L 578.00 342.00 L 588.00 342.00 L 588.00 338.50 L 588.00 335.00 L 574.00 335.00 L 560.00 335.00 L 560.00 360.00 L 560.00 385.00 L 574.00 385.00 L 588.00 385.00 L 588.00 381.50 ZM 679.96 383.52 C688.88,378.91 690.59,365.45 682.97,359.82 C680.19,357.77 680.10,357.49 681.51,355.35 C682.33,354.09 683.00,350.82 683.00,348.02 C683.00,343.67 682.53,342.46 679.58,339.24 C676.17,335.52 676.11,335.50 667.08,335.15 L 658.00 334.80 L 658.00 359.90 L 658.00 385.00 L 667.55 385.00 C674.03,385.00 678.02,384.52 679.96,383.52 ZM 702.00 379.00 L 705.03 373.00 L 715.60 373.00 L 726.17 373.00 L 728.82 379.00 C731.46,384.98 731.49,385.00 735.74,385.00 L 740.01 385.00 L 738.75 382.09 C731.83,366.03 716.39,332.05 716.00,332.03 C715.72,332.02 710.36,343.14 704.07,356.75 C697.78,370.36 692.26,382.29 691.78,383.25 C691.04,384.77 691.46,385.00 694.95,385.00 C698.86,385.00 699.05,384.84 702.00,379.00 ZM 754.00 375.00 C754.00,369.50 754.37,365.00 754.82,365.00 C755.28,365.00 758.73,369.50 762.50,375.00 L 769.35 385.00 L 774.29 385.00 L 779.24 385.00 L 776.79 381.75 C770.36,373.23 763.80,363.88 764.13,363.70 C764.34,363.59 765.85,362.82 767.50,362.00 C771.65,359.92 775.34,352.35 774.47,347.71 C773.49,342.48 770.36,338.05 766.51,336.44 C764.42,335.57 759.70,335.00 754.53,335.00 L 746.00 335.00 L 746.00 360.00 L 746.00 385.00 L 750.00 385.00 L 754.00 385.00 L 754.00 375.00 ZM 794.00 375.00 C794.00,369.41 794.42,365.00 794.94,365.00 C795.46,365.00 798.95,369.49 802.69,374.98 L 809.50 384.96 L 814.32 384.98 L 819.14 385.00 L 816.86 381.75 C815.60,379.96 812.22,375.30 809.34,371.38 L 804.11 364.26 L 807.81 361.88 C817.52,355.62 817.04,341.91 806.93,336.75 C804.44,335.48 801.10,335.00 794.75,335.00 L 786.00 335.00 L 786.00 360.00 L 786.00 385.00 L 790.00 385.00 L 794.00 385.00 L 794.00 375.00 ZM 855.00 381.50 L 855.00 378.00 L 844.50 378.00 L 834.00 378.00 L 834.00 369.50 L 834.00 361.00 L 844.00 361.00 L 854.00 361.00 L 854.00 357.54 L 854.00 354.07 L 844.25 353.79 L 834.50 353.50 L 834.20 347.75 L 833.90 342.00 L 844.45 342.00 L 855.00 342.00 L 855.00 338.50 L 855.00 335.00 L 841.00 335.00 L 827.00 335.00 L 827.00 360.00 L 827.00 385.00 L 841.00 385.00 L 855.00 385.00 L 855.00 381.50 ZM 869.82 379.00 L 872.47 373.00 L 883.31 373.00 L 894.15 373.00 L 896.74 379.00 L 899.33 385.00 L 903.62 385.00 L 907.92 385.00 L 904.86 378.25 C903.18,374.54 897.98,362.95 893.31,352.50 C888.63,342.05 884.49,333.15 884.08,332.73 C883.55,332.16 863.06,374.31 859.29,383.75 C858.93,384.63 860.02,385.00 862.98,385.00 C867.14,385.00 867.19,384.96 869.82,379.00 ZM 970.21 376.03 C973.12,371.09 975.91,367.18 976.42,367.33 C976.92,367.49 979.56,371.52 982.28,376.31 L 987.23 385.00 L 991.67 385.00 C994.12,385.00 995.92,384.66 995.69,384.25 C995.45,383.84 992.03,377.93 988.08,371.12 L 980.91 358.74 L 986.62 349.12 C989.77,343.83 992.99,338.49 993.78,337.25 C995.21,335.04 995.16,335.00 990.71,335.00 L 986.19 335.00 L 981.50 343.00 C978.92,347.40 976.65,351.00 976.45,351.00 C976.25,351.00 974.16,347.41 971.79,343.01 L 967.50 335.03 L 962.80 335.01 L 958.10 335.00 L 964.14 345.23 C967.46,350.86 970.57,356.19 971.04,357.07 C971.66,358.23 969.72,362.28 963.99,371.83 L 956.08 385.00 L 960.50 385.00 L 964.91 385.00 L 970.21 376.03 ZM 663.00 281.00 L 663.00 255.00 L 659.00 255.00 L 655.00 255.00 L 655.00 271.58 C655.00,280.70 654.61,288.02 654.14,287.83 C653.67,287.65 645.80,279.63 636.65,270.00 C627.50,260.38 619.56,252.35 619.01,252.17 C618.35,251.95 618.00,261.02 618.00,278.42 L 618.00 305.00 L 622.00 305.00 L 626.00 305.00 L 626.00 288.00 C626.00,278.65 626.34,271.01 626.75,271.03 C627.16,271.05 635.15,279.15 644.50,289.03 C653.85,298.91 661.84,306.99 662.25,307.00 C662.66,307.00 663.00,295.30 663.00,281.00 ZM 866.00 281.00 L 866.00 255.00 L 862.00 255.00 L 858.00 255.00 L 857.95 271.75 L 857.90 288.50 L 840.20 270.24 C830.46,260.20 822.16,251.98 821.73,251.99 C821.31,252.00 821.09,263.81 821.23,278.25 L 821.50 304.50 L 825.25 304.81 L 829.00 305.12 L 829.00 288.06 C829.00,278.68 829.34,271.00 829.75,271.01 C830.16,271.02 838.15,279.09 847.50,288.96 C856.85,298.83 864.84,306.93 865.25,306.95 C865.66,306.98 866.00,295.30 866.00,281.00 ZM 1081.00 281.00 L 1081.00 255.00 L 1077.00 255.00 L 1073.00 255.00 L 1072.97 271.75 L 1072.93 288.50 L 1055.22 270.21 C1045.47,260.15 1037.28,251.94 1037.00,251.96 C1036.72,251.98 1036.60,263.81 1036.71,278.25 L 1036.92 304.50 L 1040.46 304.81 L 1044.00 305.12 L 1044.00 288.06 C1044.00,278.68 1044.35,271.00 1044.79,271.00 C1045.22,271.00 1053.35,279.10 1062.86,289.00 C1072.37,298.90 1080.34,307.00 1080.58,307.00 C1080.81,307.00 1081.00,295.30 1081.00,281.00 ZM 544.32 304.41 C548.96,302.83 549.00,302.77 549.00,298.32 C549.00,295.85 548.66,294.01 548.25,294.22 C540.16,298.36 537.46,299.17 533.66,298.56 C518.57,296.15 512.24,278.77 522.28,267.34 C527.96,260.86 536.89,259.12 544.50,263.00 C546.66,264.10 548.55,265.00 548.71,265.00 C548.87,265.00 549.00,263.02 549.00,260.60 C549.00,256.56 548.74,256.10 545.85,255.10 C541.28,253.51 529.85,253.75 525.60,255.52 C515.91,259.57 509.72,269.20 509.77,280.11 C509.83,290.65 514.53,298.11 524.15,302.91 C531.25,306.46 537.03,306.89 544.32,304.41 ZM 591.54 304.33 C598.70,301.89 605.42,294.80 607.56,287.44 C610.51,277.29 608.06,268.25 600.33,260.80 C595.12,255.77 590.40,254.00 582.28,254.02 C574.23,254.05 568.91,256.16 563.67,261.40 C557.78,267.28 556.53,270.47 556.53,279.50 C556.54,291.64 560.79,298.22 572.00,303.43 C578.48,306.43 584.55,306.71 591.54,304.33 ZM 696.08 303.96 C700.65,301.63 703.59,297.40 704.53,291.81 C705.03,288.84 704.64,286.85 702.84,283.22 C700.72,278.95 699.68,278.10 691.83,274.29 C681.97,269.50 680.41,267.32 684.08,263.41 C687.15,260.15 692.27,260.14 695.10,263.40 C697.12,265.72 697.29,265.74 700.09,264.15 C701.68,263.24 702.99,262.12 702.99,261.65 C703.00,261.18 701.47,259.27 699.60,257.40 C696.53,254.33 695.65,254.00 690.50,254.00 C680.45,254.00 674.77,258.46 674.59,266.50 C674.46,272.49 676.96,275.46 686.00,280.00 C694.99,284.52 697.51,287.39 696.51,291.95 C695.83,295.07 691.81,299.00 689.32,299.00 C686.35,299.00 681.81,295.75 680.83,292.94 C680.09,290.83 679.15,290.00 677.48,290.00 C673.03,290.00 672.10,290.88 673.06,294.19 C674.41,298.91 676.68,301.78 680.76,303.94 C685.61,306.50 691.09,306.51 696.08,303.96 ZM 1012.53 303.22 C1028.14,295.18 1031.80,275.09 1020.09,261.75 C1010.99,251.39 992.75,251.17 982.16,261.31 C976.64,266.59 974.61,271.51 974.65,279.56 C974.67,285.44 975.16,287.53 977.59,291.99 C980.63,297.60 987.32,303.11 993.36,304.97 C998.14,306.45 1008.02,305.55 1012.53,303.22 ZM 742.00 301.53 L 742.00 298.07 L 731.75 297.78 L 721.50 297.50 L 721.21 289.25 L 720.92 281.00 L 730.96 281.00 L 741.00 281.00 L 741.00 277.54 L 741.00 274.07 L 731.25 273.79 L 721.50 273.50 L 721.20 267.79 L 720.90 262.07 L 731.20 261.79 L 741.50 261.50 L 741.81 258.25 L 742.13 255.00 L 728.06 255.00 L 714.00 255.00 L 714.00 280.00 L 714.00 305.00 L 728.00 305.00 L 742.00 305.00 L 742.00 301.53 ZM 759.00 280.00 L 759.00 255.00 L 755.00 255.00 L 751.00 255.00 L 751.00 279.33 C751.00,292.72 751.30,303.97 751.67,304.33 C752.03,304.70 753.83,305.00 755.67,305.00 L 759.00 305.00 L 759.00 280.00 ZM 794.00 301.54 L 794.00 298.09 L 786.75 297.79 L 779.50 297.50 L 779.23 276.25 L 778.96 255.00 L 774.98 255.00 L 771.00 255.00 L 771.00 280.00 L 771.00 305.00 L 782.50 305.00 L 794.00 305.00 L 794.00 301.54 ZM 883.51 298.97 L 886.40 292.94 L 897.29 293.22 L 908.18 293.50 L 910.50 299.00 C912.72,304.28 912.98,304.51 916.91,304.81 C919.16,304.98 921.00,304.70 921.00,304.20 C921.00,302.47 898.24,252.89 897.42,252.85 C896.65,252.82 873.00,302.57 873.00,304.23 C873.00,304.65 874.72,305.00 876.82,305.00 C880.50,305.00 880.73,304.79 883.51,298.97 ZM 939.00 283.55 L 939.00 262.10 L 944.75 261.80 C950.43,261.50 950.50,261.46 950.81,258.25 L 951.13 255.00 L 935.56 255.00 L 920.00 255.00 L 920.00 258.50 L 920.00 262.00 L 925.50 262.00 L 931.00 262.00 L 931.00 283.50 L 931.00 305.00 L 935.00 305.00 L 939.00 305.00 L 939.00 283.55 ZM 965.00 280.00 L 965.00 255.00 L 961.00 255.00 L 957.00 255.00 L 957.00 280.00 L 957.00 305.00 L 961.00 305.00 L 965.00 305.00 L 965.00 280.00 ZM 1098.66 299.00 L 1101.26 293.00 L 1112.21 293.00 L 1123.15 293.00 L 1125.74 299.00 L 1128.33 305.00 L 1132.72 305.00 C1135.14,305.00 1136.91,304.66 1136.66,304.25 C1136.41,303.84 1131.17,292.25 1125.02,278.50 C1118.87,264.75 1113.49,253.14 1113.07,252.70 C1112.46,252.06 1088.00,302.56 1088.00,304.47 C1088.00,304.76 1089.81,305.00 1092.03,305.00 C1096.00,305.00 1096.10,304.91 1098.66,299.00 ZM 1165.00 301.50 L 1165.00 298.00 L 1158.00 298.00 L 1151.00 298.00 L 1151.00 276.50 L 1151.00 255.00 L 1147.00 255.00 L 1143.00 255.00 L 1143.00 280.00 L 1143.00 305.00 L 1154.00 305.00 L 1165.00 305.00 L 1165.00 301.50 ZM 238.00 208.50 L 238.00 192.00 L 220.00 192.00 L 202.00 192.00 L 202.00 208.50 L 202.00 225.00 L 220.00 225.00 L 238.00 225.00 L 238.00 208.50 ZM 192.30 186.38 C196.84,184.08 198.94,182.03 201.11,177.79 C203.62,172.86 203.58,165.05 201.01,160.02 C194.60,147.45 176.01,146.48 168.18,158.30 C165.95,161.68 165.50,163.46 165.50,169.00 C165.50,174.53 165.95,176.33 168.17,179.68 C173.06,187.07 184.61,190.27 192.30,186.38 ZM 265.00 159.47 C270.99,156.38 276.00,148.28 276.00,141.71 C276.00,136.27 271.14,127.86 266.50,125.27 C259.10,121.14 247.11,122.79 241.79,128.68 C239.09,131.66 237.00,137.55 237.00,142.15 C237.00,150.36 243.25,158.42 251.63,160.99 C255.01,162.03 261.47,161.29 265.00,159.47 ZM 639.34 630.58 C626.79,627.53 612.16,616.21 606.63,605.27 C599.05,590.26 599.10,570.95 606.77,556.57 C611.14,548.39 620.62,539.56 629.67,535.24 L 637.50 531.50 L 651.05 531.50 L 664.60 531.50 L 672.10 535.20 C684.59,541.38 695.10,553.84 698.51,566.50 C700.63,574.40 700.63,588.32 698.49,595.72 C691.15,621.21 664.77,636.75 639.34,630.58 ZM 380.99 596.25 C380.98,594.19 400.48,552.99 401.34,553.28 C402.55,553.68 420.86,595.20 420.29,596.25 C420.07,596.66 411.13,597.00 400.44,597.00 C389.75,597.00 381.00,596.66 380.99,596.25 ZM 906.00 595.78 C906.00,593.41 925.42,552.02 926.17,552.77 C927.15,553.75 945.00,594.78 945.00,596.05 C945.00,596.62 937.13,597.00 925.50,597.00 C910.80,597.00 906.00,596.70 906.00,595.78 ZM 520.00 359.86 L 520.00 341.72 L 525.99 342.27 C533.41,342.94 537.83,345.42 540.73,350.56 C543.19,354.89 543.72,361.97 541.94,366.68 C539.35,373.55 532.22,377.98 523.75,377.99 L 520.00 378.00 L 520.00 359.86 ZM 666.00 370.63 L 666.00 363.00 L 670.37 363.00 C676.20,363.00 680.00,365.93 680.00,370.42 C680.00,374.86 677.16,377.18 671.01,377.77 L 666.00 378.25 L 666.00 370.63 ZM 666.58 356.24 C666.26,355.93 666.00,352.59 666.00,348.83 L 666.00 342.00 L 669.00 342.00 C674.62,342.00 678.08,348.80 674.75,353.31 C673.43,355.11 667.55,357.21 666.58,356.24 ZM 709.00 364.73 C709.00,364.03 710.53,360.32 712.39,356.48 L 715.78 349.50 L 719.27 357.00 C721.19,361.12 722.56,364.84 722.32,365.25 C721.52,366.62 709.00,366.13 709.00,364.73 ZM 754.00 350.00 L 754.00 342.00 L 758.05 342.00 C764.86,342.00 769.06,348.29 766.02,353.96 C764.95,355.96 760.07,358.00 756.35,358.00 C754.08,358.00 754.00,357.73 754.00,350.00 ZM 794.67 357.33 C794.30,356.97 794.00,353.37 794.00,349.33 L 794.00 342.00 L 797.87 342.00 C805.07,342.00 809.19,348.04 806.02,353.96 C804.53,356.74 796.47,359.14 794.67,357.33 ZM 876.76 365.42 C876.18,364.85 881.54,352.35 883.12,350.58 C883.94,349.66 890.00,361.98 890.00,364.59 C890.00,365.65 888.44,366.00 883.67,366.00 C880.18,366.00 877.07,365.74 876.76,365.42 ZM 576.64 297.54 C559.74,291.51 559.77,267.52 576.68,261.94 C582.12,260.15 589.30,261.23 593.57,264.48 C605.67,273.71 601.84,293.89 587.22,297.96 C582.50,299.27 581.37,299.22 576.64,297.54 ZM 993.31 296.57 C985.92,293.12 982.50,287.72 982.50,279.50 C982.50,271.73 985.75,266.27 992.25,263.12 C1002.16,258.32 1013.54,262.18 1017.62,271.72 C1019.41,275.89 1019.39,284.36 1017.59,287.80 C1014.45,293.79 1006.51,299.02 1000.60,298.99 C999.45,298.98 996.17,297.89 993.31,296.57 ZM 890.56 285.10 C889.95,284.10 896.10,270.10 897.18,270.04 C897.94,269.99 902.74,280.13 903.63,283.68 C904.20,285.93 904.02,286.00 897.67,286.00 C894.07,286.00 890.87,285.59 890.56,285.10 ZM 1105.68 285.25 C1104.91,283.93 1111.99,269.59 1112.93,270.57 C1114.46,272.19 1119.83,284.83 1119.24,285.43 C1118.39,286.28 1106.19,286.12 1105.68,285.25 Z" fill="rgb(254,254,254)"/>
</g>
</svg>