<svg xmlns="http://www.w3.org/2000/svg" viewBox="0 0 212 32" fill="none">
    <path
        d="M209.134 31.3655C209.445 31.7549 209.872 31.9716 210.415 31.9716C211.053 31.9716 211.561 31.5696 211.568 30.929C211.568 29.7577 209.853 30.0026 209.853 29.2332C209.853 28.9663 210.048 28.7496 210.415 28.7496C210.714 28.7496 210.971 28.9129 211.153 29.1736L211.552 28.8344C211.313 28.5015 210.896 28.2691 210.406 28.2691C209.749 28.2691 209.294 28.7119 209.294 29.2521C209.294 30.4642 210.999 30.1942 210.999 30.9636C210.999 31.265 210.783 31.4943 210.403 31.4943C210.057 31.4943 209.771 31.3247 209.536 31.0232L209.131 31.3718L209.134 31.3655ZM205.362 31.8366H205.937V29.4593C206.154 29.0982 206.465 28.8124 206.961 28.8124C207.488 28.8124 207.834 29.1673 207.834 29.7796V31.8366H208.409V29.7577C208.409 28.7842 207.84 28.266 207.074 28.266C206.565 28.266 206.213 28.4827 205.934 28.7904V28.401H205.359V31.8366H205.362ZM202.659 31.4283C201.927 31.4283 201.406 30.8348 201.406 30.1188C201.406 29.4028 201.927 28.8093 202.659 28.8093C203.39 28.8093 203.893 29.4028 203.893 30.1188C203.893 30.8348 203.371 31.4283 202.659 31.4283ZM202.652 28.266C201.547 28.266 200.803 29.117 200.803 30.1188C200.803 31.1206 201.547 31.9716 202.652 31.9716C203.758 31.9716 204.502 31.1206 204.502 30.1188C204.502 29.117 203.751 28.266 202.652 28.266ZM199.367 31.8366H199.942V28.401H199.367V31.8366ZM199.66 27.5092C199.882 27.5092 200.058 27.327 200.058 27.1009C200.058 26.8748 199.882 26.699 199.66 26.699C199.437 26.699 199.254 26.8843 199.254 27.1009C199.254 27.3176 199.437 27.5092 199.66 27.5092ZM196.786 30.6841C196.786 31.5225 197.213 31.9025 197.97 31.9025C198.215 31.9025 198.397 31.8743 198.56 31.8083V31.2901C198.432 31.3435 198.275 31.3718 198.052 31.3718C197.64 31.3718 197.367 31.2211 197.367 30.6841V28.9255H198.551V28.401H197.367V27.5437H196.783V28.401H196.139V28.9255H196.783V30.6841H196.786ZM192.452 31.8366H193.027V29.4593C193.244 29.0982 193.555 28.8124 194.051 28.8124C194.578 28.8124 194.924 29.1673 194.924 29.7796V31.8366H195.499V29.7577C195.499 28.7842 194.93 28.266 194.164 28.266C193.655 28.266 193.303 28.4827 193.024 28.7904V28.401H192.449V31.8366H192.452ZM190 28.7559C190.603 28.7559 190.948 29.1798 190.967 29.6823H188.923C189.045 29.0888 189.438 28.7559 190 28.7559ZM191.617 31.2713L191.19 30.9384C190.967 31.2462 190.593 31.4503 190.154 31.4503C189.422 31.4503 188.901 30.9541 188.879 30.1282H191.501C191.52 30.034 191.542 29.9021 191.542 29.7671C191.542 28.9223 190.939 28.2691 190.012 28.2691C188.957 28.2691 188.292 29.0794 188.292 30.1219C188.292 31.1645 189.001 31.9747 190.154 31.9747C190.791 31.9747 191.3 31.7015 191.617 31.2744M184.573 28.4073L185.908 31.8428H186.668L188.003 28.4073H187.381L186.291 31.2336L185.201 28.4073H184.576H184.573ZM182.4 28.8156C183.126 28.8156 183.619 29.3934 183.619 30.1251C183.619 30.8568 183.126 31.4346 182.4 31.4346C181.932 31.4346 181.521 31.2085 181.254 30.8003V29.4499C181.505 29.0479 181.923 28.8156 182.4 28.8156ZM184.222 30.1251C184.222 29.1233 183.537 28.2723 182.466 28.2723C181.957 28.2723 181.559 28.4701 181.254 28.8187V26.7335H180.679V31.8428H181.254V31.4346C181.559 31.7832 181.957 31.9779 182.466 31.9779C183.537 31.9779 184.222 31.1269 184.222 30.1251ZM179.034 30.37C179.034 31.0452 178.666 31.4346 178.098 31.4346C177.53 31.4346 177.156 31.0452 177.156 30.37V28.4073H176.581V30.348C176.581 31.3781 177.172 31.9779 178.092 31.9779C179.012 31.9779 179.608 31.3781 179.608 30.348V28.4073H179.034V30.37ZM173.356 31.3718C173.667 31.7612 174.094 31.9779 174.637 31.9779C175.275 31.9779 175.784 31.5759 175.79 30.9353C175.79 29.7639 174.075 30.0089 174.075 29.2395C174.075 28.9726 174.273 28.7559 174.637 28.7559C174.936 28.7559 175.193 28.9192 175.375 29.1798L175.774 28.8407C175.539 28.5078 175.118 28.2754 174.628 28.2754C173.972 28.2754 173.516 28.7182 173.516 29.2583C173.516 30.4705 175.225 30.2005 175.225 30.9698C175.225 31.2713 175.008 31.5006 174.628 31.5006C174.282 31.5006 173.997 31.331 173.761 31.0295L173.356 31.3781V31.3718ZM168.661 31.3718C168.972 31.7612 169.399 31.9779 169.942 31.9779C170.58 31.9779 171.089 31.5759 171.095 30.9353C171.095 29.7639 169.38 30.0089 169.38 29.2395C169.38 28.9726 169.575 28.7559 169.942 28.7559C170.241 28.7559 170.498 28.9192 170.68 29.1798L171.079 28.8407C170.844 28.5078 170.423 28.2754 169.933 28.2754C169.277 28.2754 168.821 28.7182 168.821 29.2583C168.821 30.4705 170.53 30.2005 170.53 30.9698C170.53 31.2713 170.313 31.5006 169.933 31.5006C169.588 31.5006 169.302 31.331 169.066 31.0295L168.661 31.3781V31.3718ZM166.406 31.8428H166.981V29.4845C167.192 29.1359 167.48 28.9035 167.93 28.9035C168.065 28.9035 168.168 28.9161 168.269 28.9443V28.3791C168.187 28.3508 168.087 28.3382 167.977 28.3382C167.543 28.3382 167.232 28.5361 166.981 28.8344V28.4042H166.406V31.8397V31.8428ZM164.761 30.37C164.761 31.0452 164.397 31.4346 163.825 31.4346C163.254 31.4346 162.883 31.0452 162.883 30.37V28.4073H162.308V30.348C162.308 31.3781 162.899 31.9779 163.819 31.9779C164.739 31.9779 165.336 31.3781 165.336 30.348V28.4073H164.761V30.37ZM159.988 28.7622C160.591 28.7622 160.936 29.1861 160.958 29.6886H158.914C159.036 29.0951 159.429 28.7622 159.991 28.7622M161.611 31.2776L161.184 30.9447C160.961 31.2525 160.587 31.4566 160.148 31.4566C159.416 31.4566 158.895 30.9604 158.876 30.1345H161.498C161.517 30.0403 161.539 29.9084 161.539 29.7734C161.539 28.9286 160.936 28.2754 160.006 28.2754C158.951 28.2754 158.286 29.0856 158.286 30.1282C158.286 31.1708 158.995 31.981 160.148 31.981C160.785 31.981 161.294 31.7078 161.611 31.2807M156.85 31.846H157.425V26.7367H156.85V31.846ZM152.51 30.6935C152.51 31.532 152.938 31.9119 153.694 31.9119C153.939 31.9119 154.121 31.8837 154.285 31.8177V31.2996C154.156 31.353 153.999 31.3812 153.776 31.3812C153.362 31.3812 153.091 31.2305 153.091 30.6935V28.9349H154.275V28.4105H153.091V27.5531H152.51V28.4105H151.867V28.9349H152.51V30.6935ZM149.882 28.7653C150.485 28.7653 150.83 29.1893 150.852 29.6917H148.808C148.93 29.0982 149.323 28.7653 149.885 28.7653M151.506 31.2807L151.078 30.9479C150.856 31.2556 150.482 31.4597 150.042 31.4597C149.31 31.4597 148.789 30.9636 148.767 30.1376H151.389C151.408 30.0434 151.43 29.9115 151.43 29.7765C151.43 28.9318 150.827 28.2786 149.898 28.2786C148.843 28.2786 148.177 29.0888 148.177 30.1314C148.177 31.174 148.887 31.9842 150.039 31.9842C150.677 31.9842 151.182 31.711 151.502 31.2839M143.41 31.3781C143.721 31.7675 144.148 31.9842 144.691 31.9842C145.329 31.9842 145.837 31.5822 145.844 30.9416C145.844 29.7702 144.129 30.0152 144.129 29.2458C144.129 28.9789 144.324 28.7622 144.691 28.7622C144.989 28.7622 145.247 28.9255 145.429 29.1861L145.828 28.847C145.589 28.5141 145.172 28.2817 144.682 28.2817C144.025 28.2817 143.57 28.7245 143.57 29.2646C143.57 30.4768 145.278 30.2067 145.278 30.9761C145.278 31.2776 145.062 31.5068 144.682 31.5068C144.336 31.5068 144.05 31.3373 143.815 31.0358L143.41 31.3844V31.3781ZM139.638 31.8491H140.213V29.4719C140.43 29.1108 140.741 28.825 141.237 28.825C141.764 28.825 142.11 29.1798 142.11 29.7922V31.8491H142.684V29.7702C142.684 28.7967 142.116 28.2786 141.35 28.2786C140.841 28.2786 140.489 28.4952 140.213 28.803V28.4136H139.638V31.8491ZM136.934 31.4409C136.203 31.4409 135.681 30.8474 135.681 30.1314C135.681 29.4154 136.203 28.8218 136.934 28.8218C137.666 28.8218 138.169 29.4154 138.169 30.1314C138.169 30.8474 137.647 31.4409 136.934 31.4409ZM136.928 28.2786C135.823 28.2786 135.078 29.1296 135.078 30.1314C135.078 31.1331 135.823 31.9842 136.928 31.9842C138.034 31.9842 138.778 31.1331 138.778 30.1314C138.778 29.1296 138.027 28.2786 136.928 28.2786ZM133.643 31.8491H134.218V28.4136H133.643V31.8491ZM133.935 27.5217C134.158 27.5217 134.334 27.3396 134.334 27.1135C134.334 26.8874 134.158 26.7115 133.935 26.7115C133.712 26.7115 133.53 26.8968 133.53 27.1135C133.53 27.3302 133.712 27.5217 133.935 27.5217ZM131.065 30.6966C131.065 31.5351 131.492 31.9151 132.249 31.9151C132.494 31.9151 132.676 31.8868 132.839 31.8209V31.3027C132.711 31.3561 132.554 31.3844 132.331 31.3844C131.916 31.3844 131.646 31.2336 131.646 30.6966V28.938H132.83V28.4136H131.646V27.5563H131.065V28.4136H130.421V28.938H131.065V30.6966ZM127.517 30.9636C127.517 30.6715 127.727 30.4611 128.195 30.3763L129.203 30.2067V30.8819C128.98 31.2493 128.606 31.4691 128.154 31.4691C127.755 31.4691 127.517 31.2587 127.517 30.9636ZM128.06 31.9465C128.499 31.9465 128.945 31.7486 129.206 31.4158V31.8523H129.781V29.5473C129.781 28.7904 129.266 28.2786 128.399 28.2786C127.802 28.2786 127.322 28.5298 127.024 28.938L127.457 29.2709C127.667 28.9789 127.984 28.7936 128.377 28.7936C128.864 28.7936 129.203 29.0668 129.203 29.5441V29.7828L128.05 29.9743C127.325 30.0968 126.932 30.4642 126.932 30.9824C126.932 31.5696 127.388 31.9433 128.057 31.9433M125.403 31.8491H125.978V28.4136H125.403V31.8491ZM125.695 27.5217C125.918 27.5217 126.094 27.3396 126.094 27.1135C126.094 26.8874 125.918 26.7115 125.695 26.7115C125.472 26.7115 125.287 26.8968 125.287 27.1135C125.287 27.3302 125.469 27.5217 125.695 27.5217ZM123.249 31.4409C122.511 31.4409 121.99 30.8693 121.99 30.1314C121.99 29.3934 122.511 28.8218 123.243 28.8218C123.67 28.8218 124.015 29.026 124.225 29.3243L124.678 28.9757C124.361 28.5549 123.858 28.2754 123.243 28.2754C122.112 28.2754 121.387 29.1265 121.387 30.1282C121.387 31.13 122.112 31.981 123.243 31.981C123.864 31.981 124.361 31.7078 124.678 31.2807L124.225 30.9322C124.015 31.2336 123.67 31.4377 123.249 31.4377M118.94 31.4377C118.209 31.4377 117.687 30.8442 117.687 30.1282C117.687 29.4122 118.209 28.8187 118.94 28.8187C119.672 28.8187 120.174 29.4122 120.174 30.1282C120.174 30.8442 119.653 31.4377 118.94 31.4377ZM118.934 28.2754C117.829 28.2754 117.084 29.1265 117.084 30.1282C117.084 31.13 117.829 31.981 118.934 31.981C120.039 31.981 120.784 31.13 120.784 30.1282C120.784 29.1265 120.033 28.2754 118.934 28.2754ZM114.117 31.3749C114.428 31.7643 114.855 31.981 115.398 31.981C116.035 31.981 116.544 31.5791 116.547 30.9384C116.547 29.7671 114.833 30.012 114.833 29.2426C114.833 28.9757 115.027 28.759 115.395 28.759C115.693 28.759 115.951 28.9223 116.133 29.183L116.532 28.8438C116.293 28.5109 115.875 28.2786 115.385 28.2786C114.729 28.2786 114.274 28.7214 114.274 29.2615C114.274 30.4737 115.982 30.2036 115.982 30.973C115.982 31.2744 115.765 31.5037 115.385 31.5037C115.04 31.5037 114.754 31.3341 114.519 31.0326L114.114 31.3812L114.117 31.3749ZM111.212 31.3749C111.523 31.7643 111.95 31.981 112.493 31.981C113.131 31.981 113.639 31.5791 113.646 30.9384C113.646 29.7671 111.931 30.012 111.931 29.2426C111.931 28.9757 112.129 28.759 112.493 28.759C112.792 28.759 113.049 28.9223 113.231 29.183L113.63 28.8438C113.394 28.5109 112.974 28.2786 112.484 28.2786C111.827 28.2786 111.372 28.7214 111.372 29.2615C111.372 30.4737 113.077 30.2036 113.077 30.973C113.077 31.2744 112.861 31.5037 112.481 31.5037C112.135 31.5037 111.849 31.3341 111.614 31.0326L111.206 31.3812L111.212 31.3749ZM108.225 30.9604C108.225 30.6684 108.436 30.458 108.904 30.3732L109.912 30.2036V30.8788C109.689 31.2462 109.315 31.466 108.863 31.466C108.464 31.466 108.225 31.2556 108.225 30.9604ZM108.766 31.9433C109.205 31.9433 109.654 31.7455 109.912 31.4126V31.8491H110.486V29.5441C110.486 28.7873 109.971 28.2754 109.105 28.2754C108.508 28.2754 108.028 28.5267 107.729 28.9349L108.163 29.2678C108.373 28.9757 108.69 28.7904 109.083 28.7904C109.57 28.7904 109.909 29.0636 109.909 29.541V29.7796L108.756 29.9712C108.031 30.0937 107.638 30.4611 107.638 30.9793C107.638 31.5665 108.094 31.9402 108.762 31.9402M102.774 31.3749C103.085 31.7643 103.512 31.981 104.055 31.981C104.693 31.981 105.201 31.5791 105.204 30.9384C105.204 29.7671 103.49 30.012 103.49 29.2426C103.49 28.9757 103.688 28.759 104.052 28.759C104.35 28.759 104.608 28.9223 104.79 29.183L105.189 28.8438C104.953 28.5109 104.532 28.2786 104.043 28.2786C103.386 28.2786 102.931 28.7214 102.931 29.2615C102.931 30.4737 104.639 30.2036 104.639 30.973C104.639 31.2744 104.423 31.5037 104.043 31.5037C103.697 31.5037 103.411 31.3341 103.176 31.0326L102.768 31.3812L102.774 31.3749ZM100.714 28.7653C101.317 28.7653 101.662 29.1893 101.684 29.6917H99.6398C99.7622 29.0982 100.155 28.7653 100.717 28.7653M102.337 31.2807L101.91 30.9479C101.687 31.2556 101.314 31.4597 100.874 31.4597C100.142 31.4597 99.6209 30.9636 99.5989 30.1376H102.221C102.24 30.0434 102.262 29.9115 102.262 29.7765C102.262 28.9318 101.659 28.2786 100.733 28.2786C99.6743 28.2786 99.0117 29.0888 99.0117 30.1314C99.0117 31.174 99.7214 31.9842 100.874 31.9842C101.511 31.9842 102.02 31.711 102.337 31.2839M97.5766 31.8491H98.1512V26.7398H97.5766V31.8491ZM93.1958 31.8491H93.7705V29.4907C93.9809 29.1422 94.2698 28.9098 94.7189 28.9098C94.8539 28.9098 94.9575 28.9223 95.058 28.9506V28.3853C94.9764 28.3571 94.8759 28.3445 94.766 28.3445C94.3326 28.3445 94.0217 28.5424 93.7705 28.8407V28.4105H93.1958V31.846V31.8491ZM91.5503 30.3763C91.5503 31.0515 91.186 31.4409 90.6144 31.4409C90.0429 31.4409 89.6723 31.0515 89.6723 30.3763V28.4136H89.0977V30.3543C89.0977 31.3844 89.688 31.9842 90.6082 31.9842C91.5283 31.9842 92.1249 31.3844 92.1249 30.3543V28.4136H91.5503V30.3763ZM85.8757 31.3781C86.1866 31.7675 86.6136 31.9842 87.1569 31.9842C87.7944 31.9842 88.3031 31.5822 88.3094 30.9416C88.3094 29.7702 86.5948 30.0152 86.5948 29.2458C86.5948 28.9789 86.7895 28.7622 87.1569 28.7622C87.4553 28.7622 87.7128 28.9255 87.8949 29.1861L88.2937 28.847C88.0551 28.5141 87.6374 28.2817 87.1475 28.2817C86.4912 28.2817 86.0358 28.7245 86.0358 29.2646C86.0358 30.4768 87.7442 30.2067 87.7442 30.9761C87.7442 31.2776 87.5275 31.5068 87.1475 31.5068C86.8021 31.5068 86.5163 31.3373 86.2808 31.0358L85.8757 31.3844V31.3781ZM81.1809 31.3781C81.4918 31.7675 81.9188 31.9842 82.4621 31.9842C83.0996 31.9842 83.6083 31.5822 83.6146 30.9416C83.6146 29.7702 81.9 30.0152 81.9 29.2458C81.9 28.9789 82.0947 28.7622 82.4621 28.7622C82.7605 28.7622 83.018 28.9255 83.2001 29.1861L83.5989 28.847C83.3603 28.5141 82.9426 28.2817 82.4527 28.2817C81.7964 28.2817 81.341 28.7245 81.341 29.2646C81.341 30.4768 83.0494 30.2067 83.0494 30.9761C83.0494 31.2776 82.8327 31.5068 82.4527 31.5068C82.1073 31.5068 81.8215 31.3373 81.586 31.0358L81.1809 31.3844V31.3781ZM77.4093 31.8491H77.984V29.4719C78.2007 29.1108 78.5116 28.825 79.0078 28.825C79.5353 28.825 79.8808 29.1798 79.8808 29.7922V31.8491H80.4555V29.7702C80.4555 28.7967 79.887 28.2786 79.1208 28.2786C78.6121 28.2786 78.2604 28.4952 77.984 28.803V28.4136H77.4093V31.8491ZM74.7055 31.4409C73.9738 31.4409 73.4525 30.8474 73.4525 30.1314C73.4525 29.4154 73.9738 28.8218 74.7055 28.8218C75.4372 28.8218 75.9396 29.4154 75.9396 30.1314C75.9396 30.8474 75.4183 31.4409 74.7055 31.4409ZM74.6992 28.2786C73.5938 28.2786 72.8495 29.1296 72.8495 30.1314C72.8495 31.1331 73.5938 31.9842 74.6992 31.9842C75.8046 31.9842 76.5489 31.1331 76.5489 30.1314C76.5489 29.1296 75.7983 28.2786 74.6992 28.2786ZM71.4144 31.8491H71.9891V28.4136H71.4144V31.8491ZM71.7065 27.5217C71.9294 27.5217 72.1053 27.3396 72.1053 27.1135C72.1053 26.8874 71.9294 26.7115 71.7065 26.7115C71.4835 26.7115 71.3014 26.8968 71.3014 27.1135C71.3014 27.3302 71.4835 27.5217 71.7065 27.5217ZM68.8362 30.6966C68.8362 31.5351 69.2633 31.9151 70.0201 31.9151C70.2651 31.9151 70.4472 31.8868 70.6105 31.8209V31.3027C70.4817 31.3561 70.3247 31.3844 70.1018 31.3844C69.6872 31.3844 69.4172 31.2336 69.4172 30.6966V28.938H70.6011V28.4136H69.4172V27.5563H68.8362V28.4136H68.1924V28.938H68.8362V30.6966ZM65.2876 30.9636C65.2876 30.6715 65.498 30.4611 65.9659 30.3763L66.974 30.2067V30.8819C66.751 31.2493 66.3773 31.4691 65.9251 31.4691C65.5263 31.4691 65.2876 31.2587 65.2876 30.9636ZM65.8309 31.9465C66.2705 31.9465 66.7165 31.7486 66.9771 31.4158V31.8523H67.5518V29.5473C67.5518 28.7904 67.0368 28.2786 66.1701 28.2786C65.5734 28.2786 65.0929 28.5298 64.7946 28.938L65.228 29.2709C65.4384 28.9789 65.7555 28.7936 66.1481 28.7936C66.6348 28.7936 66.974 29.0668 66.974 29.5441V29.7828L65.8215 29.9743C65.0961 30.0968 64.7035 30.4642 64.7035 30.9824C64.7035 31.5696 65.1589 31.9433 65.8278 31.9433M58.5673 31.8491H59.142V29.4719C59.3367 29.117 59.6287 28.825 60.0966 28.825C60.5897 28.825 60.9037 29.1516 60.9037 29.7231V31.8491H61.4784V29.7043C61.4784 29.6226 61.4721 29.5473 61.4658 29.4719C61.6888 29.0699 61.9934 28.825 62.4268 28.825C62.9135 28.825 63.2338 29.1516 63.2338 29.7231V31.8491H63.8085V29.7043C63.8085 28.7716 63.2747 28.2786 62.543 28.2786C61.9526 28.2786 61.5946 28.5643 61.3245 28.938C61.1141 28.5015 60.709 28.2786 60.2128 28.2786C59.7167 28.2786 59.3995 28.489 59.142 28.7904V28.4167H58.5673V31.8523V31.8491ZM55.9451 31.8491H56.5198V29.4907C56.7302 29.1422 57.0222 28.9098 57.4682 28.9098C57.6032 28.9098 57.7037 28.9223 57.8073 28.9506V28.3853C57.7257 28.3571 57.6252 28.3445 57.5153 28.3445C57.0819 28.3445 56.771 28.5424 56.5198 28.8407V28.4105H55.9451V31.846V31.8491ZM53.2413 31.4409C52.5096 31.4409 51.9883 30.8474 51.9883 30.1314C51.9883 29.4154 52.5096 28.8218 53.2413 28.8218C53.973 28.8218 54.4754 29.4154 54.4754 30.1314C54.4754 30.8474 53.9541 31.4409 53.2413 31.4409ZM53.235 28.2786C52.1296 28.2786 51.3853 29.1296 51.3853 30.1314C51.3853 31.1331 52.1296 31.9842 53.235 31.9842C54.3404 31.9842 55.0847 31.1331 55.0847 30.1314C55.0847 29.1296 54.331 28.2786 53.235 28.2786ZM48.8197 28.4167V28.9412H49.4635V31.8523H50.0444V28.9412H51.2283V28.4167H50.0444V27.9802C50.0444 27.5312 50.3019 27.2642 50.6882 27.2642C50.8829 27.2642 51.0399 27.3239 51.1687 27.4213L51.4262 26.9376C51.2377 26.8277 50.9865 26.7398 50.6756 26.7398C49.9314 26.7398 49.4635 27.2642 49.4635 27.9928V28.4167H48.8197ZM45.1298 31.8523H45.7045V29.475C45.9212 29.1139 46.232 28.8281 46.7282 28.8281C47.2558 28.8281 47.6012 29.183 47.6012 29.7953V31.8523H48.1759V29.7734C48.1759 28.7999 47.6075 28.2817 46.8413 28.2817C46.3325 28.2817 45.9808 28.4984 45.7045 28.8061V28.4167H45.1298V31.8523ZM43.4026 31.8523H43.9773V28.4167H43.4026V31.8523ZM43.6947 27.5249C43.9176 27.5249 44.0935 27.3427 44.0935 27.1166C44.0935 26.8905 43.9176 26.7147 43.6947 26.7147C43.4717 26.7147 43.2896 26.9 43.2896 27.1166C43.2896 27.3333 43.4717 27.5249 43.6947 27.5249ZM38.3435 31.3812C38.6544 31.7706 39.0815 31.9873 39.6248 31.9873C40.2623 31.9873 40.771 31.5853 40.7773 30.9447C40.7773 29.7734 39.0627 30.0183 39.0627 29.2489C39.0627 28.982 39.2605 28.7653 39.6248 28.7653C39.9231 28.7653 40.1806 28.9286 40.3628 29.1893L40.7616 28.8501C40.5261 28.5172 40.1053 28.2848 39.6154 28.2848C38.959 28.2848 38.5037 28.7276 38.5037 29.2678C38.5037 30.4799 40.212 30.2099 40.212 30.9793C40.212 31.2807 39.9953 31.51 39.6154 31.51C39.2699 31.51 38.9841 31.3404 38.7486 31.0389L38.3404 31.3875L38.3435 31.3812ZM36.2835 28.7716C36.8864 28.7716 37.2318 29.1955 37.2538 29.698H35.2095C35.3319 29.1045 35.7245 28.7716 36.2866 28.7716M37.907 31.287L37.4799 30.9541C37.257 31.2619 36.8833 31.466 36.4436 31.466C35.7119 31.466 35.1906 30.9698 35.1686 30.1439H37.7908C37.8097 30.0497 37.8316 29.9178 37.8316 29.7828C37.8316 28.938 37.2287 28.2848 36.3023 28.2848C35.244 28.2848 34.5814 29.0951 34.5814 30.1376C34.5814 31.1802 35.2911 31.9904 36.4436 31.9904C37.0811 31.9904 37.5898 31.7172 37.907 31.2901M32.4554 31.8554H33.0301V29.497C33.2405 29.1484 33.5294 28.9161 33.9785 28.9161C34.1135 28.9161 34.2171 28.9286 34.3176 28.9569V28.3916C34.236 28.3634 34.1355 28.3508 34.0256 28.3508C33.5922 28.3508 33.2813 28.5486 33.0301 28.847V28.4167H32.4554V31.8523V31.8554ZM30.0028 28.7747C30.6057 28.7747 30.9512 29.1987 30.9731 29.7011H28.9288C29.0513 29.1076 29.4438 28.7747 30.0059 28.7747M31.6263 31.2901L31.1993 30.9573C30.9763 31.265 30.6026 31.4691 30.1629 31.4691C29.4312 31.4691 28.9099 30.973 28.8911 30.1471H31.5133C31.5321 30.0529 31.5541 29.921 31.5541 29.7859C31.5541 28.9412 30.9512 28.288 30.0248 28.288C28.9696 28.288 28.3039 29.0982 28.3039 30.1408C28.3039 31.1834 29.0136 31.9936 30.1661 31.9936C30.8036 31.9936 31.3123 31.7204 31.6295 31.2933M29.739 27.8797H30.2948L29.5914 26.7492H28.9476L29.739 27.8797ZM26.8687 31.8585H27.4434V28.423H26.8687V31.8585ZM27.1608 27.5312C27.3837 27.5312 27.5596 27.349 27.5596 27.1229C27.5596 26.8968 27.3837 26.721 27.1608 26.721C26.9378 26.721 26.7525 26.9062 26.7525 27.1229C26.7525 27.3396 26.9347 27.5312 27.1608 27.5312ZM22.7298 31.8585H23.3044V29.4813C23.5211 29.1202 23.832 28.8344 24.3282 28.8344C24.8558 28.8344 25.2012 29.1893 25.2012 29.8016V31.8585H25.7759V29.7796C25.7759 28.8061 25.2075 28.288 24.4412 28.288C23.9325 28.288 23.5808 28.5047 23.3013 28.8124V28.423H22.7266V31.8585H22.7298ZM20.1076 31.8585H20.6823V29.5002C20.8927 29.1516 21.1816 28.9192 21.6306 28.9192C21.7657 28.9192 21.8693 28.9318 21.9698 28.96V28.3948C21.8882 28.3665 21.7877 28.3539 21.6777 28.3539C21.2444 28.3539 20.9335 28.5518 20.6823 28.8501V28.4199H20.1076V31.8554V31.8585ZM17.655 28.7779C18.2579 28.7779 18.6034 29.2018 18.6253 29.7043H16.581C16.7035 29.1108 17.096 28.7779 17.6581 28.7779M19.2785 31.2933L18.8514 30.9604C18.6285 31.2682 18.2548 31.4723 17.8151 31.4723C17.0834 31.4723 16.5621 30.9761 16.5433 30.1502H19.1655C19.1843 30.056 19.2063 29.9241 19.2063 29.7891C19.2063 28.9443 18.6034 28.2911 17.677 28.2911C16.6218 28.2911 15.9561 29.1013 15.9561 30.1439C15.9561 31.1865 16.6689 31.9967 17.8183 31.9967C18.4558 31.9967 18.9645 31.7235 19.2817 31.2964M12.1688 30.1439C12.1688 29.4154 12.6556 28.8344 13.381 28.8344C13.8489 28.8344 14.2603 29.0605 14.5272 29.4688V30.8191C14.276 31.2211 13.8583 31.4534 13.381 31.4534C12.6556 31.4534 12.1688 30.8725 12.1688 30.1439ZM11.5596 30.1439C11.5596 31.1457 12.2442 31.9967 13.315 31.9967C13.8238 31.9967 14.2226 31.7989 14.5272 31.4534V31.8617H15.1019V26.7524H14.5272V28.8375C14.2226 28.489 13.8238 28.2911 13.315 28.2911C12.2442 28.2911 11.5596 29.1422 11.5596 30.1439ZM6.78941 31.3906C7.1003 31.78 7.52739 31.9967 8.07067 31.9967C8.70816 31.9967 9.21689 31.5948 9.22317 30.9541C9.22317 29.7828 7.50855 30.0277 7.50855 29.2583C7.50855 28.9914 7.70325 28.7747 8.07067 28.7747C8.369 28.7747 8.62651 28.938 8.80865 29.1987L9.20747 28.8595C8.9688 28.5267 8.55114 28.2943 8.06125 28.2943C7.40492 28.2943 6.94957 28.7371 6.94957 29.2772C6.94957 30.4894 8.65791 30.2193 8.65791 30.9887C8.65791 31.2901 8.44123 31.5194 8.06125 31.5194C7.71581 31.5194 7.43004 31.3498 7.19451 31.0483L6.78941 31.3969V31.3906ZM4.72935 28.781C5.33229 28.781 5.67773 29.205 5.69971 29.7074H3.65535C3.77783 29.1139 4.17037 28.781 4.73249 28.781M6.3529 31.2964L5.92582 30.9636C5.70285 31.2713 5.32915 31.4754 4.88951 31.4754C4.15781 31.4754 3.63651 30.9793 3.61767 30.1533H6.23985C6.25869 30.0591 6.28067 29.9272 6.28067 29.7922C6.28067 28.9475 5.67773 28.2943 4.75133 28.2943C3.69618 28.2943 3.03043 29.1045 3.03043 30.1471C3.03043 31.1897 3.74014 31.9999 4.89265 31.9999C5.53013 31.9999 6.03887 31.7267 6.35604 31.2996M0.037684 31.8648H2.54681V31.2776H0.637488V27.0947H0V31.8648H0.037684Z"
        fill="#000091"></path>
    <path
        d="M78.7593 8.70529C76.6018 7.8103 74.7396 7.03777 74.7396 5.15357C74.7396 3.69017 76.1465 2.17339 78.5049 2.17339C80.8633 2.17339 82.4837 3.68075 82.4994 3.69646L82.7004 3.88488L83.8403 1.97869L83.7241 1.8625C83.6488 1.78713 81.8462 0.00341797 78.508 0.00341797C75.1698 0.00341797 72.3938 2.28958 72.3938 5.20696C72.3938 8.37556 75.1698 9.55005 77.6193 10.5864C79.7924 11.5065 81.8431 12.3732 81.8431 14.449C81.8431 16.2201 80.3828 17.4543 78.2945 17.4543C75.4399 17.4543 73.518 15.5073 73.4992 15.4884L73.0972 15.0708C72.6858 15.6925 72.1614 16.2295 71.5459 16.6598L72.0703 17.1779C72.1614 17.2784 74.3063 19.6274 78.238 19.6274C81.7426 19.6274 84.192 17.4763 84.192 14.3956C84.192 10.9569 81.3061 9.76045 78.7624 8.70529H78.7593Z"
        fill="#000091"></path>
    <path
        d="M96.7097 5.77832H98.977V13.3089C98.977 17.2971 96.6563 19.6241 92.9978 19.6241C89.3393 19.6241 87.0469 17.3002 87.0469 13.3089V5.77832H89.3142V13.3874C89.3142 16.0033 90.7274 17.5106 93.0261 17.5106C95.3248 17.5106 96.7097 16.0033 96.7097 13.3874V5.77832Z"
        fill="#000091"></path>
    <path
        d="M110.075 19.6271C108.071 19.6271 106.498 18.8483 105.299 17.4823V19.2063H103.031V0H105.299V7.17881C106.501 5.80962 108.075 5.03396 110.075 5.03396C114.293 5.03396 116.99 8.38784 116.99 12.329C116.99 16.2701 114.293 19.6271 110.075 19.6271ZM105.299 9.67538V14.9857C106.341 16.5967 107.968 17.4791 109.811 17.4791C112.669 17.4791 114.616 15.1992 114.616 12.329C114.616 9.4587 112.669 7.17881 109.811 7.17881C107.943 7.17881 106.288 8.08951 105.299 9.67538Z"
        fill="#000091"></path>
    <path
        d="M120.664 5.77832L124.963 16.8574L129.259 5.77832H131.715L126.458 19.2315H123.468L118.208 5.77832H120.664Z"
        fill="#000091"></path>
    <path
        d="M140.473 19.6273C135.935 19.6273 133.134 16.2734 133.134 12.3292C133.134 8.38489 135.75 5.03101 139.914 5.03101C143.572 5.03101 145.946 7.60608 145.946 10.9348C145.946 11.4718 145.865 11.9806 145.786 12.3574H135.454C135.536 15.6045 137.59 17.5641 140.473 17.5641C142.209 17.5641 143.676 16.7602 144.555 15.5511L146.238 16.8669C144.982 18.5564 142.982 19.6304 140.473 19.6304V19.6273ZM135.615 10.6114H143.676C143.594 8.62669 142.234 6.96231 139.857 6.96231C137.643 6.96231 136.092 8.27812 135.612 10.6114H135.615Z"
        fill="#000091"></path>
    <path
        d="M149.351 5.76871H151.618V7.08451C152.714 5.88176 154.099 5.02759 156.102 5.02759C159.117 5.02759 161.362 7.05625 161.362 10.8718V19.2062H159.095V10.9534C159.095 8.55105 157.735 7.16302 155.65 7.16302C153.7 7.16302 152.475 8.28412 151.621 9.70041V19.2094H149.354V5.76871H149.351Z"
        fill="#000091"></path>
    <path
        d="M166.265 7.88534H164.167V5.81586H166.265V0.0187988H168.56V5.81586H173.233V7.88534H168.56V14.8161C168.56 16.9389 169.628 17.5293 171.258 17.5293C172.137 17.5293 172.753 17.4225 173.258 17.2059V19.2471C172.618 19.514 171.899 19.6239 170.938 19.6239C167.948 19.6239 166.265 18.1197 166.265 14.8161V7.88534Z"
        fill="#000091"></path>
    <path
        d="M175.814 1.58255C175.814 0.728381 176.534 0.00610352 177.416 0.00610352C178.298 0.00610352 178.989 0.728381 178.989 1.58255C178.989 2.43673 178.295 3.18413 177.416 3.18413C176.537 3.18413 175.814 2.46185 175.814 1.58255ZM176.267 5.77804H178.534V19.2313H176.267V5.77804Z"
        fill="#000091"></path>
    <path
        d="M196.33 12.3292C196.33 16.2734 193.365 19.6273 189.044 19.6273C184.723 19.6273 181.759 16.2734 181.759 12.3292C181.759 8.38489 184.695 5.03101 189.044 5.03101C193.394 5.03101 196.33 8.38489 196.33 12.3292ZM193.928 12.3292C193.928 9.51227 191.871 7.179 189.07 7.179C186.268 7.179 184.13 9.51227 184.13 12.3292C184.13 15.146 186.187 17.4793 189.07 17.4793C191.952 17.4793 193.928 15.1178 193.928 12.3292Z"
        fill="#000091"></path>
    <path
        d="M199.553 5.76871H201.82V7.08451C202.916 5.88176 204.301 5.02759 206.304 5.02759C209.319 5.02759 211.565 7.05625 211.565 10.8718V19.2062H209.297V10.9534C209.297 8.55105 207.937 7.16302 205.852 7.16302C203.902 7.16302 202.677 8.28412 201.823 9.70041V19.2094H199.556V5.76871H199.553Z"
        fill="#000091"></path>
    <path
        d="M70.9464 11.66C70.9464 13.3024 69.706 14.6998 67.8971 14.6998C66.0757 14.6998 64.8447 13.3024 64.8447 11.66C64.8447 10.0176 66.0726 8.62012 67.894 8.62012C69.706 8.62012 70.9464 10.0176 70.9464 11.66Z"
        fill="#E1000F"></path>
    <path
        d="M0 0H7.4426C13.4532 0 17.5105 4.4216 17.5105 9.60944C17.5105 14.7973 13.4501 19.2189 7.4426 19.2189H0V0ZM3.84377 3.5423V15.6766H7.49913C11.0163 15.6766 13.5631 13.0136 13.5631 9.60944C13.5631 6.20531 11.0163 3.5423 7.49599 3.5423H3.84377Z"
        fill="#34BAB5"></path>
    <path
        d="M19.6242 15.5384C19.6242 13.4815 21.2195 11.9396 24.1432 11.4528L28.3104 10.7494V10.3977C28.3104 8.96253 27.227 8.04241 25.6568 8.04241C24.3316 8.04241 23.3016 8.6642 22.5699 9.66597L20.0513 7.74408C21.2698 6.06714 23.2733 5.03711 25.7636 5.03711C29.7141 5.03711 31.7459 7.39236 31.7459 10.3945V19.2189H28.3073V17.8937C27.4405 18.9488 25.817 19.6271 24.2217 19.6271C21.4896 19.6271 19.6211 18.0569 19.6211 15.5415L19.6242 15.5384ZM24.9283 16.8919C26.4984 16.8919 27.6352 16.1602 28.3104 15.0768V13.1549L25.0633 13.695C23.6282 13.94 23.0346 14.5335 23.0346 15.372C23.0346 16.2921 23.7663 16.8887 24.9283 16.8887V16.8919Z"
        fill="#34BAB5"></path>
    <path
        d="M36.5407 8.85575H33.9971V5.7688H36.5407V0H40.0045V5.77194H44.1718V8.85889H40.0045V14.2414C40.0045 15.7582 40.8147 16.3517 42.1714 16.3517C43.1198 16.3517 43.7415 16.245 44.2 16.0534V19.0587C43.5217 19.357 42.7115 19.4921 41.5747 19.4921C38.1643 19.4921 36.5407 17.5702 36.5407 14.2414V8.85575Z"
        fill="#34BAB5"></path>
    <path
        d="M61.7174 10.8844C61.7363 10.7336 61.7645 10.5861 61.796 10.4385C60.8162 10.4322 59.6951 10.4353 58.6305 10.4667V10.3914C58.6305 7.38605 56.6018 5.03394 52.6481 5.03394C50.1579 5.03394 48.1543 6.06397 46.9359 7.74091L49.4544 9.66279C50.1861 8.66103 51.213 8.03924 52.5414 8.03924C54.1115 8.03924 55.195 8.95936 55.195 10.3945V10.7462L51.0277 11.4496C48.1041 11.9364 46.5088 13.4783 46.5088 15.5352C46.5088 18.0538 48.3773 19.6208 51.1094 19.6208C52.7078 19.6208 54.3314 18.9456 55.195 17.8873V19.2126H58.6336V12.913C59.6825 12.8785 60.8099 12.8754 61.7834 12.8816C61.6609 12.2347 61.6358 11.5596 61.7206 10.8781L61.7174 10.8844ZM55.1918 15.0767C54.5166 16.1602 53.3798 16.8919 51.8097 16.8919C50.6446 16.8919 49.9161 16.2952 49.9161 15.3751C49.9161 14.5366 50.5127 13.9399 51.9447 13.6981L55.1918 13.158V15.0799V15.0767Z"
        fill="#34BAB5"></path>
</svg>