<svg xmlns="http://www.w3.org/2000/svg" fill="#000091" viewBox="0 0 586 184" xmlns:v="https://vecta.io/nano"><path d="M452.393 93.048h7.538l21.656 53.483 21.537-53.483h7.658l-24.528 60.303h-9.333l-24.528-60.303zm-16.561 34.698V93.048h6.94v34.579c0 17.947-10.29 28.117-25.725 28.117-15.554 0-25.963-10.17-25.963-28.117V93.048h7.059v34.698c0 13.64 7.538 21.298 18.904 21.298 11.128 0 18.785-7.658 18.785-21.298zm-90.041-37.094c19.383 0 32.425 15.315 32.425 32.544s-13.042 32.544-32.425 32.544c-19.263 0-32.305-15.315-32.305-32.544s13.042-32.544 32.305-32.544zm.12 58.388c14.238 0 24.767-12.204 24.767-25.844 0-13.879-10.529-25.844-24.767-25.844-14.717 0-25.127 12.084-25.127 25.844s10.41 25.844 25.127 25.844zm-94.549 15.441c0-6.222 3.111-11.127 9.333-15.674-2.992-2.034-4.427-5.265-4.427-8.495 0-4.666 2.871-8.734 7.537-11.486-5.384-3.949-8.495-10.17-8.495-16.871 0-11.366 8.974-21.417 22.853-21.417 4.188 0 8.017.957 11.247 2.513h22.614v6.221h-15.076c2.632 3.59 4.188 8.017 4.188 12.683 0 11.367-8.974 21.417-22.973 21.417-3.589 0-6.82-.718-9.691-1.794-3.59 2.034-5.504 5.025-5.504 7.657 0 2.752 1.316 4.906 5.743 4.906h18.426c16.392 0 23.212 7.537 23.212 17.947 0 12.204-12.444 21.178-30.152 21.178-16.99 0-28.835-7.179-28.835-18.785zm26.921-37.091c10.17 0 15.794-7.299 15.794-15.435 0-8.375-5.624-15.434-15.794-15.434-10.409 0-16.033 7.059-16.033 15.434 0 8.256 5.624 15.435 16.033 15.435zm-19.862 36.493c0 8.136 8.854 13.281 21.657 13.281 13.879 0 23.211-5.624 23.211-14.717 0-6.581-3.589-11.845-16.391-11.845h-19.982c-5.504 3.709-8.495 7.896-8.495 13.281zm-50.544-8.741c-12.084 0-20.34-6.939-20.34-18.067 0-9.093 7.059-15.913 19.981-18.067l18.426-3.111v-1.555c0-6.341-4.786-10.409-11.726-10.409-5.862 0-10.409 2.752-13.64 7.179l-11.127-8.496c5.384-7.418 14.238-11.964 25.246-11.964 17.469 0 26.442 10.409 26.442 23.69v39.005h-15.195v-5.862c-3.829 4.666-11.008 7.657-18.067 7.657zm-5.265-18.785c0 4.068 3.231 6.701 8.376 6.701 6.939 0 11.965-3.231 14.956-8.017v-8.495l-14.358 2.393c-6.341 1.077-8.974 3.709-8.974 7.418zm-55.484-5.019V106.69h-11.247V93.05h11.247V77.975h15.315V93.05h18.426v13.64h-18.426v24.648c0 6.7 3.589 9.332 9.572 9.332 4.188 0 6.939-.478 8.973-1.316v13.281c-2.991 1.316-6.58 1.915-11.605 1.915-15.076 0-22.255-8.495-22.255-23.212zm-50.901 23.804c-12.085 0-20.34-6.939-20.34-18.067 0-9.093 7.059-15.913 19.98-18.067l18.427-3.111v-1.555c0-6.341-4.786-10.409-11.726-10.409-5.863 0-10.41 2.752-13.64 7.179l-11.127-8.496c5.384-7.418 14.238-11.964 25.246-11.964 17.468 0 26.442 10.409 26.442 23.69v39.005h-15.195v-5.862c-3.829 4.666-11.008 7.657-18.067 7.657zm-5.265-18.785c0 4.068 3.23 6.701 8.376 6.701 6.939 0 11.964-3.231 14.956-8.017v-8.495l-14.358 2.393c-6.342 1.077-8.974 3.709-8.974 7.418zM0 123.2c0-17.588 11.606-32.544 30.63-32.544 8.136 0 13.999 2.513 18.665 7.179v-34.22H64.61v89.737H49.295v-4.786c-4.666 4.666-10.529 7.179-18.665 7.179C11.606 155.745 0 140.789 0 123.2zm15.913 0c0 10.53 6.58 18.187 16.87 18.187 6.82 0 12.444-2.872 16.512-8.375v-19.623c-4.068-5.504-9.691-8.375-16.511-8.375-10.29 0-16.87 7.657-16.87 18.186zm548.572-86.173v-.07c-.029-2.291-1.255-4.412-3.229-5.543l-9.868-5.711a6.374 6.374 0 0 0-3.059-.848c-.155 0-.296 0-.451.014a6.817 6.817 0 0 0-2.157.452 7.75 7.75 0 0 0-.776.382l-9.741 5.64a4.991 4.991 0 0 0-.635.425s-.084.056-.098.056a6.3 6.3 0 0 0-1.847 2.163c-.028.057-.071.113-.099.17s-.056.113-.07.17a6.88 6.88 0 0 0-.607 2.87v11.112c0 .198.015.41.043.664 0 .128.028.269.056.425a6.49 6.49 0 0 0 .719 2.134 6.529 6.529 0 0 0 2.495 2.573l9.7 5.613a8.31 8.31 0 0 0 .888.438 6.115 6.115 0 0 0 2.129.467h.084c.691.014 1.396-.057 2.072-.269.466-.141.931-.34 1.354-.594l9.798-5.669a6.634 6.634 0 0 0 3.299-5.712V37.028zM531.85 58.032V76.04l15.561 9.01V67.042l-15.561-9.01zm30.562-27.498l.184.14a.2.2 0 0 0 .042.03l.297.224.028.028c.015.015.043.029.057.043l.339.295.085.085.212.211.071.07.297.338c.057.057.099.127.142.183.028.043.07.085.099.127.028.028.056.07.084.099.099.126.184.267.269.408l.255.408.24.465.184.408c.057.127.099.268.141.394 0 .028.015.042.029.07 0 .029.014.057.028.071l.127.38c.057.211.099.422.128.648v.028c0 .028.014.07.014.098 0 .07.028.127.042.198.043.323.071.661.071 1V47.92l2.178 1.253V31.168l-15.67-9.01v2.576l9.546 5.49a4.31 4.31 0 0 1 .467.296l.014.014zm-51.631-8.377v18.079l15.67 9.046V31.204l-15.67-9.047zm53.555 30.931c-.126.184-.267.34-.408.51l-.295.34c-.154.17-.337.31-.506.466-.084.071-.169.156-.253.24l2.671 1.558a.714.714 0 0 1 .351.608v15.1l2.165 1.26v-18.1l-3.613-2.11-.098.128h-.014zM544.82 24.21s.099-.028.155-.056c.281-.127.59-.226.885-.31a6.07 6.07 0 0 1 .73-.169l.702-.113c.085 0 .155-.028.239-.042v-4.238l-15.562-9.012v2.83l12.5 7.238a.71.71 0 0 1 .351.605v3.267zm-34.039 39.844l15.67 9V55.04l-15.67-9v18.015zm74.237 0V46.038l-15.562 9v18.017l15.562-9.001zm-36.204 20.995l15.669-9.01V58.032l-15.669 9.01V85.05zm-20.961-35.767l2.571-1.498V37.07a7.91 7.91 0 0 1 3.131-6.29s.029-.015.043-.029c0 0 .014 0 .028-.014.028-.014.056-.042.07-.042l.646-.438 9.073-5.273v-2.827l-15.562 9.047v18.078zm57.165-9.046V22.157l-15.562 9.047v18.078l15.562-9.046zm-35.822-16.692c.155.014.295.057.45.07l.562.113c.168.042.323.098.477.155l.379.112v-3.076c0-.253.141-.478.352-.604l13.188-7.614v-2.43l-15.562 8.99v4.256a.99.99 0 0 0 .169.028h-.015zm-18.632 32.91a.758.758 0 0 1 .184-.182c.014 0 .028-.029.042-.042l2.683-1.544-.184-.169-.663-.617c-.099-.098-.184-.21-.269-.309a6.466 6.466 0 0 1-.466-.603c-.028-.042-.07-.084-.113-.14l-.07.041-3.855 2.218v17.949l2.584-1.488V56.833a.83.83 0 0 1 .085-.323c0-.028.028-.042.042-.07v.014zm12.211-35.55l-15.609-9.016-15.623 9.016 15.623 9.031 15.609-9.03zM563.95 9.03L548.28 0l-15.669 9.03 15.669 9.017 15.67-9.016zm3.777 20.298l1.029.607 15.623-9.03-15.623-9.017-15.609 9.016 6.599 3.824 7.981 4.6zm.691 21.728l-2.607-1.5c-.014.098-.056.21-.07.308a10.94 10.94 0 0 1-.155.702l-.141.406-.24.617a.684.684 0 0 0-.056.155l3.622 2.075 15.614-8.976-2.241-1.29-13.007 7.476a.784.784 0 0 1-.352.098.64.64 0 0 1-.353-.099l-.014.029zm-16.386 9.901a8.987 8.987 0 0 1-1.649.715 7.172 7.172 0 0 1-1.213.253l-.423.028-.62.042h-.367a6.988 6.988 0 0 1-1.325-.168 7.77 7.77 0 0 1-1.269-.393l-.973-.463-9.447-5.427-.748.434-1.494.856 15.623 8.976 1.692-.982 1.593-.912 3.186-1.837 9.137-5.245-1.494-.856-.748-.434-9.447 5.427-.014-.014zm-21.479-11.373c0-.098-.028-.182-.042-.28l-3.004 1.724a.777.777 0 0 1-.352.099.64.64 0 0 1-.353-.099l-13.016-7.475-2.243 1.29 15.626 8.976 3.934-2.258a8.114 8.114 0 0 1-.535-1.921v-.042l-.015-.014z"/></svg>