<svg xmlns="http://www.w3.org/2000/svg" fill="none" viewBox="0 0 75 86"><path fill="#000091" d="M53.704 37.027v-.07c-.029-2.291-1.255-4.412-3.229-5.543l-9.868-5.711a6.371 6.371 0 0 0-3.06-.848c-.154 0-.295 0-.45.014a6.825 6.825 0 0 0-2.157.452c-.268.113-.522.24-.776.382l-9.741 5.64a4.977 4.977 0 0 0-.635.425s-.084.056-.098.056a6.304 6.304 0 0 0-1.847 2.163c-.028.057-.07.113-.099.17-.028.057-.056.113-.07.17a6.884 6.884 0 0 0-.607 2.87v11.112c0 .198.015.41.043.664 0 .128.028.269.056.425.113.763.367 1.484.72 2.134a6.527 6.527 0 0 0 2.494 2.573l9.7 5.613c.352.198.62.325.888.438a6.122 6.122 0 0 0 2.129.467h.084c.69.014 1.396-.057 2.073-.269.465-.141.93-.34 1.353-.594l9.798-5.669a6.633 6.633 0 0 0 3.299-5.712V37.028ZM21.069 58.032V76.04l15.562 9.01V67.042l-15.562-9.01Z"/><path fill="#000091" d="M51.631 30.534s.127.099.184.14c0 0 .028.015.042.03.1.07.198.154.297.224l.028.028c.015.015.043.029.057.043.113.098.24.197.34.295a67.48 67.48 0 0 0 .297.296l.07.07.297.338c.057.057.1.127.142.183.028.043.07.085.099.127.028.028.056.07.084.099.1.126.184.267.27.408.084.14.169.267.254.408.085.155.155.31.24.465.07.14.127.267.184.408.057.127.099.268.141.394 0 .028.015.042.029.07 0 .029.014.057.028.071l.127.38c.057.211.1.422.128.648v.028c0 .028.014.07.014.098 0 .07.028.127.042.198.043.323.07.661.07 1V47.92l2.179 1.253V31.168l-15.67-9.01v2.576l9.546 5.49c.156.085.311.183.467.296l.014.014ZM0 22.157v18.079l15.67 9.046V31.204L0 22.157ZM53.555 53.088c-.126.184-.267.34-.408.51l-.295.34c-.154.17-.337.31-.506.466-.084.071-.168.156-.253.24l2.671 1.558c.21.127.351.353.351.608v15.1l2.165 1.26v-18.1l-3.613-2.11s-.07.086-.098.128h-.014ZM34.04 24.21s.098-.028.154-.056c.28-.127.59-.226.885-.31.238-.07.477-.127.73-.169.239-.042.464-.085.702-.113.085 0 .155-.028.239-.042v-4.238L21.188 10.27v2.83l12.5 7.238a.71.71 0 0 1 .351.605v3.267ZM0 64.054l15.67 9V55.04l-15.67-9v18.015ZM74.237 64.054V46.038l-15.562 9v18.017l15.562-9.001Z"/><path fill="#000091" d="m38.033 85.049 15.67-9.01V58.032l-15.67 9.01V85.05ZM17.072 49.282l2.57-1.498V37.07a7.91 7.91 0 0 1 3.133-6.29s.028-.015.042-.029c0 0 .014 0 .028-.014.028-.014.056-.042.07-.042a8.77 8.77 0 0 1 .646-.438l9.073-5.273v-2.827l-15.562 9.047v18.078ZM74.237 40.236V22.157l-15.562 9.047v18.078l15.562-9.046ZM38.416 23.544c.154.014.295.057.449.07.183.029.38.07.562.113.168.042.323.098.477.155.127.042.253.07.38.112v-3.076c0-.253.14-.478.35-.604L53.824 12.7v-2.43L38.26 19.26v4.256s.112.028.169.028h-.014ZM19.783 56.454a.75.75 0 0 1 .184-.182c.014 0 .028-.029.042-.042l2.683-1.544s-.113-.112-.184-.169c-.226-.196-.451-.393-.663-.617-.1-.098-.184-.21-.269-.309a6.267 6.267 0 0 1-.466-.603c-.028-.042-.07-.084-.113-.14l-.07.041-3.855 2.218v17.949l2.584-1.488V56.833a.84.84 0 0 1 .085-.323c0-.028.028-.042.042-.07v.014ZM31.994 20.904l-15.609-9.016L.762 20.904l15.623 9.031 15.609-9.03ZM53.169 9.03 37.499 0 21.83 9.03l15.67 9.017 15.67-9.016Z"/><path fill="#000091" d="m56.946 29.328 1.03.607 15.622-9.03-15.623-9.017-15.608 9.016 6.598 3.824 7.98 4.6ZM57.637 51.056l-2.607-1.5c-.014.098-.056.21-.07.308a10.24 10.24 0 0 1-.155.702c-.042.14-.099.28-.141.406-.07.21-.141.407-.24.617a.68.68 0 0 0-.056.155l3.622 2.075 15.614-8.976-2.24-1.29-13.008 7.476a.781.781 0 0 1-.352.098.639.639 0 0 1-.353-.099l-.014.029ZM41.251 60.957a9.014 9.014 0 0 1-1.65.715 7.165 7.165 0 0 1-1.212.253c-.141.014-.282.014-.423.028-.212.014-.409.042-.62.042H36.979a6.99 6.99 0 0 1-1.325-.168 7.825 7.825 0 0 1-1.27-.393c-.324-.14-.648-.295-.972-.463l-9.447-5.427-.747.434-1.495.856 15.623 8.976 1.692-.982 1.593-.912 3.186-1.837 9.137-5.245-1.494-.856-.748-.434-9.447 5.427-.014-.014ZM19.773 49.584c0-.098-.029-.182-.043-.28l-3.004 1.724a.783.783 0 0 1-.352.099.64.64 0 0 1-.353-.099L3.005 43.553l-2.243 1.29 15.626 8.976 3.934-2.258a8.119 8.119 0 0 1-.535-1.921v-.042l-.014-.014Z"/></svg>