<svg width="196" height="196" viewBox="0 0 196 196" fill="none" xmlns="http://www.w3.org/2000/svg">
<g clip-path="url(#clip0_112_5)">
<mask id="mask0_112_5" style="mask-type:alpha" maskUnits="userSpaceOnUse" x="0" y="0" width="196" height="196">
<circle cx="98" cy="98" r="98" fill="white"/>
</mask>
<g mask="url(#mask0_112_5)">
<circle cx="98" cy="98" r="98" fill="white"/>
<path d="M34.838 165.82C36.7415 163.905 38.6662 161.862 40.5909 159.798C44.0357 155.704 47.7677 151.863 51.7582 148.306C52.9157 147.251 54.1377 146.27 55.4172 145.369C55.7344 145.05 55.7344 144.369 56.0728 144.028C54.402 144.709 53.3868 146.157 51.7159 146.731C51.3775 146.731 51.0602 146.391 51.3775 146.05L54.973 143.347H54.7404C54.402 143.347 54.402 143.028 54.402 142.688C50.045 142.007 46.6821 145.05 43.6788 147.731C43.002 148.072 42.3252 147.412 42.0079 147.412C36.9742 149.093 33.294 153.477 28.2603 155.499V154.754C26.251 155.435 24.284 156.648 22.2324 157.116C19.4359 157.568 16.5958 157.682 13.7723 157.457C9.67403 157.929 5.60635 158.639 1.5898 159.585H1.25139C-0.959976 160.161 -3.09142 161.011 -5.09369 162.117L-5.32634 162.245C-5.47096 162.445 -5.62628 162.637 -5.79164 162.82C-6.4193 163.669 -7.2016 164.392 -8.097 164.948C-10.0971 166.211 -11.9612 167.68 -13.6595 169.332C-13.8109 169.448 -13.9978 169.508 -14.1883 169.502C-15.9861 171.247 -17.7627 172.992 -19.6028 174.694C-19.9178 174.849 -20.2748 174.894 -20.618 174.822C-20.5549 174.711 -20.4842 174.604 -20.4065 174.503C-20.1315 174.013 -19.8566 173.545 -19.5605 173.077C-19.2643 172.609 -18.9048 172.034 -18.5664 171.502C-18.228 170.97 -17.6358 170.119 -17.1282 169.374C-17.0701 169.315 -17.0375 169.234 -17.0375 169.151C-17.0375 169.067 -17.0701 168.987 -17.1282 168.927C-17.2552 168.812 -17.4222 168.75 -17.5935 168.757C-15.8795 167.134 -13.9928 165.707 -11.9675 164.501C-12.2002 164.501 -12.5174 164.501 -12.3482 164.182C-12.179 163.862 -11.9675 163.564 -11.7772 163.245L-11.6503 162.947L-11.9041 162.692C-12.4652 163.011 -12.9962 163.382 -13.4903 163.799C-14.294 164.522 -14.9285 165.927 -16.1341 165.927H-16.6417C-16.77 165.914 -16.8933 165.87 -17.0013 165.799C-16.9529 165.695 -16.8963 165.596 -16.832 165.501L-16.684 165.224L-16.5571 164.99L-16.3244 164.565L-16.1341 164.245C-16.0072 163.99 -15.8591 163.756 -15.7111 163.501L-15.4996 163.139L-15.14 162.543C-14.9708 162.245 -15.1401 162.032 -15.3939 161.926C-14.7776 161.108 -13.9999 160.427 -13.1096 159.925C-11.8406 159.266 -10.5504 158.478 -9.26028 157.797L-8.71037 157.308C-10.5949 157.956 -12.3868 158.851 -14.0402 159.968C-14.2428 160.042 -14.4348 160.142 -14.6113 160.266C-14.7659 160.301 -14.9272 160.292 -15.0767 160.239C-15.2263 160.186 -15.3582 160.092 -15.4573 159.968C-15.482 159.885 -15.482 159.796 -15.4573 159.713C-15.1189 159.032 -14.1248 158.691 -13.3423 158.031C-13.0039 158.031 -12.6866 158.031 -12.6866 158.372C-1.94228 149.859 12.6937 151.988 25.1935 147.582L28.218 145.454C29.8888 144.795 31.2213 143.113 33.2517 142.092C35.9521 140.21 37.9537 137.477 38.9411 134.324C38.901 134.074 38.7825 133.843 38.6027 133.665C34.371 138.238 29.3561 142.008 23.7976 144.795C16.7545 148.497 8.9924 147.816 1.67442 148.838C2.01282 148.157 2.66846 148.157 3.34526 148.157C3.34526 147.157 4.02208 146.816 4.69888 146.135H5.69295C6.03136 146.135 6.03136 145.454 6.36975 145.454C7.02542 145.454 8.04063 145.135 7.70224 145.135C6.70818 143.773 4.69888 146.135 3.00687 145.135C3.68367 144.454 3.34526 143.433 4.02206 143.113H5.35455C5.42607 142.597 5.66382 142.119 6.03136 141.751C11.0651 138.708 15.7605 136.367 20.4347 133.665C19.4406 133.665 18.7638 134.665 17.7697 134.005C18.4254 134.005 17.7697 132.984 18.4254 132.984C22.1267 131.983 25.13 129.94 28.8313 128.6C27.4777 128.6 26.4836 129.621 25.13 128.6C25.8068 128.259 26.1452 127.6 27.2451 127.6V126.578C27.2451 126.238 27.5835 126.238 27.9219 126.238C27.6653 126.202 27.4276 126.082 27.2451 125.897C27.5835 125.237 28.5987 125.557 29.3601 124.897C29.0428 124.897 28.366 124.897 28.366 124.556C29.5196 123.363 31.072 122.643 32.723 122.535C32.3846 121.854 31.3693 122.535 31.3693 121.854C31.3693 121.513 31.7077 121.513 32.0461 121.513H31.3693C30.7137 121.173 31.0521 120.513 31.0521 120.172C33.1671 117.81 33.1671 114.767 34.0554 112.086C33.717 112.086 33.3998 112.086 33.3998 111.745C30.0369 115.448 24.6859 116.789 19.6521 118.129H17.8332C16.912 118.484 15.9261 118.638 14.9414 118.579C13.9567 118.52 12.9957 118.251 12.1226 117.789C10.9083 116.955 9.77519 116.007 8.73859 114.959C6.08728 113.279 3.24742 111.922 0.278488 110.915C-8.04961 108.177 -16.7892 106.924 -25.546 107.212C-21.8447 105.084 -17.7838 105.084 -13.8076 103.829C-8.11816 102.147 -2.746 100.126 3.28181 100.466C2.17433 100.296 1.04755 100.296 -0.0599365 100.466C-4.75529 100.126 -9.45064 101.466 -14.4844 102.594C-17.8261 103.254 -20.8295 104.616 -24.1924 105.297C-26.2016 105.957 -27.2168 107.978 -29.5645 107.659V106.638C-26.2016 102.594 -22.1831 98.5508 -16.8744 98.1252C-10.8254 97.1037 -5.13597 98.1252 0.891846 98.7849C5.17435 99.2541 9.41614 100.044 13.582 101.147C15.274 101.147 15.697 103.85 16.9449 104.19C19.0599 104.871 20.9634 104.19 22.9727 105.531C22.9727 104.871 22.6343 104.19 22.9727 103.509C24.3263 102.169 25.9972 103.85 27.3297 103.169C30.0157 101.488 24.982 98.4657 23.6495 96.1035C23.6853 95.8454 23.8041 95.6062 23.9879 95.4225C26.6528 97.7847 28.6833 100.487 32.025 102.169C33.6959 102.85 37.7144 103.85 37.0588 101.828C35.3879 98.1252 32.025 95.082 29.3389 91.7196V90.3576C28.6833 90.3576 28.6833 90.0171 28.3449 89.6979V88.3359C26.9912 87.6549 27.3297 86.3142 26.6528 85.314C25.6588 83.6115 26.3356 81.2493 25.6588 79.2276C25.0451 77.3635 24.5991 75.4476 24.3263 73.503C23.5438 67.7359 22.1901 62.6923 21.4287 57.2869C20.7519 50.9025 25.1089 45.8164 28.1334 40.0918C30.3151 35.76 33.5444 32.0498 37.5241 29.3023C38.8408 25.2873 52.1277 12.5106 62.5533 8.34042C72.9788 4.17021 83.4043 -1.90735e-06 95.9149 -1.90735e-06L-166.808 -27.1064V186.803L-28.0417 208.511C-21.6966 203.893 8.73857 179.993 17.7063 175.567C21.9575 173.481 31.5809 169.055 34.838 165.82ZM-16.6417 141.602C-17.2974 141.602 -18.7567 141.943 -18.3126 141.262C-17.9742 139.581 -15.6265 139.581 -14.294 138.9C-13.6172 138.559 -12.6232 137.9 -11.9464 138.24C-11.2695 139.24 -10.2755 138.9 -9.59866 139.581C-11.6714 141.602 -14.3575 140.602 -16.6417 141.602ZM-67.9734 134.175C-68.1583 134.001 -68.2778 133.768 -68.3118 133.516C-64.1961 128.144 -60.6051 122.386 -57.5886 116.321C-53.3354 113.796 -49.5087 110.607 -46.2521 106.872C-40.9692 100.78 -34.6079 95.7291 -27.4918 91.975C-24.6372 91.0695 -21.5595 91.1822 -18.7779 92.2942C-19.772 93.6562 -21.464 93.3157 -22.7964 94.4223C-22.9785 94.4448 -23.1632 94.4279 -23.3383 94.3729C-23.5133 94.3178 -23.6747 94.2259 -23.8116 94.1031C-23.6835 93.9687 -23.5866 93.8074 -23.5281 93.6307C-23.4696 93.454 -23.4508 93.2665 -23.4733 93.0816C-26.815 96.7845 -31.5103 98.487 -34.1964 102.871C-36.1422 106.233 -37.4747 110.49 -41.8317 111.596C-43.1853 111.937 -41.4932 110.575 -42.1701 110.915C-52.5971 117.321 -59.9363 125.088 -67.9734 134.175ZM-40.1608 111.937C-40.4992 112.596 -40.8587 112.681 -41.176 113.277C-41.429 113.882 -41.9072 114.364 -42.5085 114.618C-42.8469 114.618 -43.1853 114.618 -43.1853 114.278C-43.0226 113.589 -42.6918 112.952 -42.2228 112.424C-41.7538 111.896 -41.1614 111.495 -40.4992 111.256C-40.1608 111.256 -40.1608 111.596 -40.1608 111.937ZM-24.5942 162.458C-24.7947 162.841 -25.0762 163.175 -25.4191 163.437C-24.9961 163.437 -24.7 163.713 -24.9749 163.969C-25.6898 164.729 -26.5542 165.33 -27.5129 165.735C-27.6883 165.76 -27.8663 165.76 -28.0417 165.735C-28.4435 166.139 -28.8666 166.523 -29.2896 166.906C-29.7126 167.289 -31.5315 166.906 -30.9604 166.501C-30.3894 166.097 -29.3319 164.926 -28.4858 164.16C-28.0205 163.713 -27.513 163.309 -27.09 162.82C-26.8837 162.534 -26.6421 162.277 -26.3708 162.054C-26.0959 161.947 -24.3193 161.798 -24.5942 162.458ZM-30.6009 159.67C-31.8487 160.564 -33.0966 161.458 -34.4291 162.224C-35.7615 162.99 -37.369 163.713 -38.8495 164.352C-38.9131 164.265 -39.0061 164.204 -39.1112 164.18C-39.2162 164.157 -39.3261 164.172 -39.4205 164.224C-40.6541 164.922 -41.7858 165.789 -42.7834 166.799C-42.9489 166.944 -43.1044 167.101 -43.2487 167.267L-43.714 167.736C-43.9467 167.97 -44.1793 168.204 -44.4543 168.523C-44.568 168.709 -44.7194 168.868 -44.8984 168.991C-45.1099 169.119 -45.681 169.119 -45.6176 168.736L-46.2098 169.034C-46.3929 169.12 -46.5696 169.22 -46.7385 169.332C-46.8145 169.31 -46.8951 169.31 -46.9712 169.332C-47.0459 169.302 -47.1291 169.302 -47.2038 169.332C-47.6268 169.651 -48.0287 169.991 -48.4305 170.353C-49.1332 171.004 -49.7772 171.716 -50.3552 172.481L-50.461 172.609V172.758L-50.6936 173.077C-50.769 173.152 -50.8645 173.204 -50.9686 173.226L-51.0955 173.013C-51.1354 172.96 -51.1708 172.903 -51.2012 172.843C-51.2012 172.673 -51.3916 172.503 -51.4762 172.311C-51.4837 172.255 -51.4837 172.197 -51.4762 172.141C-51.1166 171.758 -50.7782 171.353 -50.4187 170.928L-50.0803 170.502L-50.0591 170.076L-49.8688 169.821C-49.4881 169.332 -49.1496 168.863 -48.8112 168.395L-48.6632 168.182C-48.494 167.948 -48.3459 167.693 -48.1979 167.459C-48.0655 167.239 -47.9455 167.012 -47.8383 166.778V166.65L-47.5211 165.863C-47.5298 165.785 -47.5298 165.707 -47.5211 165.629C-47.5277 165.508 -47.5277 165.387 -47.5211 165.267L-47.3942 164.778C-47.3772 164.741 -47.3684 164.701 -47.3684 164.66C-47.3684 164.62 -47.3772 164.58 -47.3942 164.543C-47.0093 163.892 -46.5631 163.279 -46.0617 162.713L-46.2098 162.82C-46.6962 163.118 -47.0135 163.564 -47.4576 163.884C-47.9018 164.203 -48.494 163.713 -48.071 163.394C-47.8029 163.176 -47.5486 162.942 -47.3096 162.692C-46.7758 162.088 -46.2036 161.519 -45.5964 160.989C-45.2157 160.713 -44.8773 160.457 -44.5812 160.202C-44.5217 160.164 -44.4712 160.113 -44.4331 160.053C-44.1965 159.754 -43.9423 159.47 -43.6717 159.202C-40.478 156.074 -35.0636 156.223 -30.8335 154.243C-29.1627 153.562 -27.1534 154.563 -25.4825 154.243C-24.4308 154.143 -23.3739 154.373 -22.458 154.903C-25.1018 156.074 -27.8513 157.946 -30.6009 159.67ZM-23.7482 136.261C-24.0654 135.92 -22.733 136.261 -22.3946 135.58H-25.1018C-25.4402 135.58 -25.4402 135.239 -25.4402 134.899C-27.1111 135.239 -29.1204 135.92 -30.7912 136.261C-33.1389 136.921 -35.1482 138.602 -37.8343 139.283C-41.5144 140.645 -44.5389 143.667 -48.5574 145.029C-48.8958 145.029 -48.8958 144.688 -48.8958 144.348C-48.5574 143.326 -47.225 143.007 -46.5482 141.985C-46.5482 141.645 -46.5482 141.305 -46.8866 141.305C-44.2005 137.602 -40.5415 135.58 -37.1575 132.537V131.536C-36.1634 130.175 -34.4925 129.515 -33.8157 127.812C-33.1291 126.402 -31.9224 125.318 -30.4528 124.79C-30.7912 124.45 -31.468 124.45 -31.468 123.769C-32.8005 123.769 -34.1541 124.45 -35.4866 123.428C-34.8934 122.857 -34.1656 122.447 -33.3716 122.237C-33.678 122.177 -33.9503 122.002 -34.133 121.747C-34.4714 121.066 -33.4773 120.321 -32.4621 120.066C-31.1085 119.725 -29.4376 119.725 -28.4224 118.704C-30.7701 118.385 -33.4562 119.385 -35.8038 118.044C-34.362 113.711 -31.338 110.09 -27.3437 107.915C-27.0053 107.915 -26.3285 107.915 -26.3285 108.255C-26.2997 109.049 -26.5549 109.827 -27.0478 110.448C-27.5406 111.069 -28.2385 111.492 -29.0146 111.639C-26.2634 111.979 -23.5642 112.658 -20.9775 113.66C-21.3159 114.32 -21.9716 114.001 -22.31 114.001C-20.6391 115.001 -18.6298 114.32 -16.959 115.682C-17.953 116.682 -19.074 115.682 -19.9623 115.682C-9.57753 118.704 1.48405 121.066 10.198 127.812C2.8369 131.191 -4.93642 133.574 -12.9193 134.899C-13.8279 134.955 -14.7391 134.84 -15.6054 134.558C-15.6054 134.899 -15.6053 135.58 -15.9438 135.58C-17.1014 135.44 -18.273 135.679 -19.2855 136.261C-19.9594 136.673 -20.7343 136.887 -21.5229 136.88C-22.3114 136.872 -23.0822 136.643 -23.7482 136.218V136.261Z" fill="#000091"/>
<path d="M308.596 -41.7021L102.17 -1.52588e-05C102.807 0.213375 112.596 -1.52588e-05 131.982 9.19165L136.783 11.7667C139.335 12.9638 141.524 14.8219 143.128 17.1508C143.783 18.1723 144.799 20.194 144.122 21.5347C143.445 23.2372 143.128 25.9186 141.436 26.5996C139.212 27.5122 136.77 27.749 134.414 27.2806C133.045 27.219 131.688 26.9903 130.374 26.5996C135.408 28.6213 140.103 30.9835 143.445 35.7079C143.783 36.3888 145.137 36.7294 146.469 36.7294C146.808 36.7294 146.808 37.3891 146.808 37.7296C146.131 38.4106 145.475 38.751 145.793 39.7513H146.808C148.479 39.0703 148.14 35.7079 150.488 36.7294C151.31 37.2381 151.908 38.0435 152.159 38.9809C152.411 39.9183 152.297 40.9171 151.842 41.773C150.58 43 149.23 44.131 147.802 45.1567C147.645 45.5305 147.565 45.9321 147.565 46.3378C147.565 46.7434 147.645 47.145 147.802 47.5189C148.651 48.7271 149.228 50.1069 149.494 51.5622C150.488 53.9244 150.826 56.6272 151.842 58.9681C153.425 63.8745 154.217 69.0043 154.189 74.1627C154.189 76.8442 152.836 79.2064 153.851 81.909C154.736 84.4355 155.975 86.8218 157.531 88.9957C158.871 90.709 160.101 92.5074 161.211 94.3798C163.22 97.7634 166.922 101.126 165.251 105.191C164.236 107.553 160.555 107.319 158.208 108.553C156.199 110.234 157.869 112.937 158.863 114.618C160.555 117.661 156.854 119.683 154.507 120.704C155.183 121.705 156.622 121.364 156.854 122.045C157.193 123.726 158.863 124.748 157.869 126.429C156.516 128.451 152.497 129.472 154.507 132.494C155.86 134.856 154.993 137.474 154.189 139.921C153.68 141.206 152.86 142.342 151.804 143.226C150.747 144.111 149.488 144.716 148.14 144.986C146.079 145.586 143.906 145.696 141.795 145.305C141.15 144.925 140.426 144.7 139.68 144.646C133.991 143.965 128.28 142.283 122.591 142.283C120.977 142.536 119.4 142.986 117.895 143.624C116.438 144.707 115.079 145.917 113.835 147.242L113.116 148.051L112.671 148.583C112.671 148.583 112.481 148.795 112.396 148.923C111.422 150.155 110.538 151.456 109.753 152.818L109.605 153.073L109.351 153.541C108.286 155.508 107.436 157.584 106.813 159.734C104.529 167.459 105.523 174.077 107.13 175.695C107.574 176.142 118.192 179.44 125.594 182.739C128.328 183.907 156.317 196.547 158.863 198.085L243.958 239.787L308.596 -41.7021Z" fill="#E1000F"/>
<path d="M141.52 73.4393C142.852 73.7798 144.862 73.7798 144.862 74.4608C144.206 77.1635 140.166 77.8232 138.157 80.5259H137.163C136.148 81.2069 136.486 82.8881 135.471 82.8881C134.46 82.6622 133.403 82.782 132.468 83.2286C133.066 83.9751 133.839 84.5604 134.718 84.9319C135.596 85.3033 136.553 85.4493 137.501 85.3567C137.782 85.4607 138.025 85.6452 138.202 85.8874C138.379 86.1296 138.481 86.4187 138.495 86.7187C138.755 86.6931 138.996 86.5718 139.172 86.3782C139.511 86.3782 139.849 86.3782 139.849 86.7187V88.0594C138.834 89.4001 137.163 88.7404 135.809 89.0596C138.338 89.7415 141.001 89.7415 143.529 89.0596C145.644 88.3999 143.529 85.0162 144.862 83.335C144.206 83.335 144.862 82.3348 144.206 82.3348C144.862 81.6538 145.539 80.6323 146.215 80.2067C146.606 80.218 146.993 80.1327 147.344 79.9584C147.694 79.784 147.997 79.5258 148.225 79.2065C148.225 78.5255 146.871 78.185 147.209 77.5253C149.219 76.1633 150.89 74.1416 150.234 72.1199C149.895 71.1197 147.209 71.1197 145.539 70.4387C143.645 70.0502 141.683 70.1676 139.849 70.7792C138.132 71.0634 136.447 71.5123 134.815 72.1199C132.537 72.9064 130.396 74.0483 128.47 75.5036C130.863 74.5956 133.324 73.8839 135.831 73.3755C137.722 73.1538 139.634 73.1753 141.52 73.4393Z" fill="#9D9D9C"/>
</g>
</g>
<defs>
<clipPath id="clip0_112_5">
<rect width="196" height="196" fill="white"/>
</clipPath>
</defs>
</svg>
