  <svg
    width="100%"
    height="100%"
    fill="none"
    xmlns="http://www.w3.org/2000/svg"
    viewBox="0 0 875 141"
  >
    <path
      d="M2 52.4h19c15.2 0 25.7-11 25.7-23.8C46.7 15.2 36.2 4.3 21 4.3H2v48.1Zm19-39.5c9 0 15.7 6.6 15.7 15.2S30 43.3 21 43.3h-9.6V13H21Zm38.5-1.5a5.7 5.7 0 1 0 0-11.4 6.1 6.1 0 0 0-5.7 5.7c0 3.4 2.9 5.7 5.7 5.7Zm-4.2 41h9V17.6h-9v34.8Zm20 0h8.5V30c1.5-1.9 4.3-4.8 8.6-4.8l3.8 1v-9a9.5 9.5 0 0 0-3.3 0c-3.8 0-6.7 1.4-9 3.8v-3.4h-8.2v34.8h-.4Zm59-5.7-6.2-4.8c-1.9 2.4-5.2 3.8-9.5 3.8-4.8 0-9.5-2.4-9.5-9h23.8l.5-4.8c0-9.5-6.2-15.7-15.7-15.7-11.5 0-18.1 8.6-18.1 19 0 9.6 7.1 18.6 19 18.6a19 19 0 0 0 15.7-7.1Zm-17.1-23.4c4.7 0 7.6 3.4 7.6 7.2h-15.7c1-4.8 3.8-7.2 8-7.2Zm41.9 22c-5.7 0-10-4.3-10-10.5 0-5.7 4.3-10.5 9.5-10.5a9.5 9.5 0 0 1 8.1 4.3l7.2-5.3a18.1 18.1 0 0 0-14.8-7.1c-12 0-19 8.6-19 19 0 9.6 7 18.6 19 18.6a17 17 0 0 0 14.3-7.1l-6.7-4.8a9.5 9.5 0 0 1-7.6 3.8v-.4Zm23.8-5.8c0 8.6 4.8 13.4 13.3 13.4 2.9 0 4.8 0 6.7-1v-7.6l-4.8 1c-3.8 0-6.1-2-6.1-5.8V25.2h11v-7.6h-11V9.1h-8.6v8.5h-6.7v7.6h6.7v14.3h-.5Zm32.9-28c2.8 0 5.2-2.4 5.2-5.8 0-2.8-2.4-5.7-5.2-5.7a5.8 5.8 0 0 0-5.7 5.7c0 3.4 2.3 5.7 5.7 5.7ZM211 52.3h9V17.6h-9v34.8Zm36.7-36.2c-11.4 0-19 8.6-19 19 0 10 7.6 18.6 19 18.6a18.8 18.8 0 1 0 0-37.6Zm0 29c-5.7 0-10-4.2-10-10.4 0-5.7 4.3-10.5 9.5-10.5 6.2 0 10 4.8 10 10.5 0 6.2-3.8 11-9.5 11v-.5Zm27.1 7.2h9V29.5c1.5-1.9 3.9-4.7 8.2-4.7 4.3 0 6.7 2.8 6.7 7.1v20.5h9v-21c0-10-6.2-15.2-13.8-15.2-3.8 0-7.4 1.6-10 4.3v-2.9h-9v34.8Zm60-17.6c0 10.5 6.7 19 17.7 19a14.3 14.3 0 0 0 10.5-4.3v2.9h9V.4h-9v20a14.3 14.3 0 0 0-10.5-4.2c-11 0-17.6 8.6-17.6 19v-.4Zm9.1 0c0-5.7 3.8-10.5 9.5-10.5 4.3 0 7.2 1.9 9.6 4.8v11.4a10.6 10.6 0 0 1-9.6 4.8c-5.7 0-9.5-4.3-9.5-10.5Zm71.5 11.9-6.7-4.8c-2 2.4-4.8 3.8-9 3.8-5.3 0-9.6-2.4-10-9h23.7l1-4.8c0-9.5-6.2-15.7-16.2-15.7-11.4 0-17.6 8.6-17.6 19 0 9.6 6.6 18.6 19 18.6 6.7 0 12-2.8 15.3-7.1h.5Zm-17.2-23.4c4.8 0 7.6 3.4 7.6 7.2h-16.2c1-4.8 3.8-7.2 8.6-7.2Zm44.3 29.1h8.6V.4h-8.6v52Zm24.3-28.6 8-19.5h-9.4l-6.7 19.5h8Zm20-12.4c3.3 0 5.7-2.3 5.7-5.7 0-2.8-2.4-5.7-5.7-5.7a6.1 6.1 0 0 0-5.7 5.7c0 3.4 2.8 5.7 5.7 5.7Zm-4.8 41h9.6V17.6H482v34.8Zm20 0h9V29.5c1.5-1.9 3.4-4.7 8.2-4.7 4.3 0 6.7 2.8 6.7 7.1v20.5h9v-21c0-10-6.2-15.2-13.8-15.2-3.8 0-7.4 1.6-10 4.3v-2.9h-9v34.8Zm39.1-34.8v7.6h6.2v27.2h9V25.2h10.5v-7.6h-10v-3.8c0-3.3 2-5.2 4.8-5.2 1.9 0 3.3.5 4.7 1.4l3.4-7.6c-2.4-1-4.8-2-8.1-2-8.6 0-13.8 6.3-13.8 13.4v3.8H541Zm47.6-1.4c-11.4 0-19 8.6-19 19 0 10 7.6 18.6 19 18.6 11.5 0 19-8.5 19-19 0-10-7.5-18.6-19-18.6Zm0 29c-5.7 0-10-4.2-10-10.4 0-5.7 4.3-10.5 10-10.5s9.6 4.8 9.6 10.5c0 6.2-3.9 11-9.6 11v-.5Zm27.7 7.2h8.5V30c1.5-1.9 4.3-4.8 8.6-4.8l3.8 1v-9a9.5 9.5 0 0 0-3.3 0c-3.8 0-6.7 1.4-9 3.8v-3.4h-8.6v34.8Zm28.5 0h8.6V29.5c1.4-1.9 3.3-4.7 7.6-4.7 3.8 0 6.2 2.4 6.2 6.6v21h8.6V29.5c1.4-2.3 3.3-4.7 7.1-4.7 4.3 0 6.2 2.4 6.2 6.6v21h9V31c0-9.6-5.6-14.8-12.8-14.8a14.3 14.3 0 0 0-11.9 5.7 12 12 0 0 0-10.5-5.7c-4.2 0-7.1 1.9-9.5 3.8v-2.4H645v34.8Zm73.4 1a14.3 14.3 0 0 0 10.5-4.8v3.8h9V30c0-7.6-5.2-13.8-15.2-13.8-6.7 0-11.5 2.9-14.3 7.1l6.2 4.8a9.5 9.5 0 0 1 7.6-4.3c4.3 0 6.7 2.4 6.7 6.2v1l-10.5 1.4c-7.6 1.4-11.4 5.2-11.4 10.5 0 6.6 4.7 10.5 11.4 10.5Zm-2.9-11c0-2 1.5-3.3 5.3-4.3l8-1V42c-1.4 2.9-4.7 4.8-8.5 4.8-2.9 0-4.8-2-4.8-4.3Zm34.8-2.9c0 8.6 4.8 13.4 12.9 13.4 3.3 0 4.7 0 7.1-1v-7.6l-5.2 1c-3.8 0-5.7-2-5.7-5.8V25.2h10.4v-7.6h-10.4V9.1h-9.1v8.5H744v7.6h6.2v14.3Zm32.4-28c3.3 0 5.7-2.4 5.7-5.8 0-2.8-2.4-5.7-5.7-5.7a6.1 6.1 0 0 0-5.7 5.7c0 3.4 2.8 5.7 5.7 5.7Zm-4.8 40.9h9.6V17.6h-9.6v34.8Zm36.7-36.2c-11.4 0-19 8.6-19 19 0 10 7.6 18.6 19 18.6s19-8.5 19-19c0-10-7.6-18.6-19-18.6Zm0 29c-5.7 0-9.5-4.2-9.5-10.4 0-5.7 3.8-10.5 9.5-10.5s10 4.8 10 10.5c0 6.2-4.3 11-9.5 11l-.5-.5Zm28.1 7.2h8.6V29.5c1.4-1.9 3.8-4.7 8-4.7 4.8 0 7.2 2.8 7.2 7.1v20.5h8.6v-21c0-10-5.7-15.2-13.3-15.2a14.3 14.3 0 0 0-10.5 4.3v-2.9h-8.6v34.8ZM0 123.9h8.6v-52H0v52Zm40-40.5 8.1-11.5h-9.5l-7.2 11.5H40ZM52 118l-6.3-4.7c-1.9 2.4-5.2 3.8-9.5 3.8-4.8 0-9.5-2.4-9.5-9h23.8l.5-4.8c0-9.6-6.2-15.8-15.8-15.8-11.4 0-18 8.6-18 19.1 0 9.5 7 18.6 19 18.6a19 19 0 0 0 15.7-7.2ZM34.7 94.8c4.7 0 7.6 3.3 7.6 7.1H26.7c1-4.7 3.8-7.1 8-7.1ZM56.7 130c0 7.2 6.2 11 17.6 11 11 0 18.1-5.7 18.1-13.3 0-6.7-4.8-11.5-13.3-11.5h-9c-1.5 0-2.5-.4-2.5-1.9 0-1 .5-1.4 1.5-2.4h3.3c9 0 14.3-5.2 14.3-11.9l-1-3.3H92v-7.6H79.5l-7.1-1.5c-9 0-14.3 5.3-14.3 12.4 0 3.8 2 7.2 4.8 9.6-2.4 1.9-3.8 4.2-3.8 6.6 0 2 1 3.8 2.3 4.8-3.3 2.9-4.7 5.7-4.7 9Zm15.7-24.3c-3.8 0-6.2-2.3-6.2-5.7 0-3.3 2.4-5.7 6.2-5.7 3.8 0 6.2 2 6.2 5.7 0 3.4-2.4 5.8-6.2 5.8Zm-7.6 23c0-2 1-3.9 2.4-4.8h11c3.7 0 5.6 1.9 5.6 4.7 0 3.3-3.3 5.3-9.5 5.3s-9.5-2-9.5-4.8v-.5Zm42.8-3.9a14.3 14.3 0 0 0 10.5-4.8v3.9h8.6v-22.4c0-7.7-4.8-13.9-15.2-13.9a17 17 0 0 0-14.3 7.2l6.2 4.8a9.5 9.5 0 0 1 7.6-4.3c4.3 0 7.1 2.4 7.1 6.2v1l-11 1.3c-7 1.5-11.4 5.3-11.4 10.5 0 6.7 4.8 10.5 12 10.5Zm-3.3-10.5c0-1.9 1.4-3.3 5.3-4.3l8.5-1v4.8c-1.9 3-4.7 4.8-9 4.8-2.9 0-4.8-1.9-4.8-4.3Zm33.4 10h8V72h-8v52.4Zm51.4-5.7-6.2-4.8c-1.9 2.4-5.2 3.9-9.5 3.9-4.8 0-9.5-2.4-9.5-9h23.8l1-4.9c0-9.5-6.7-15.7-16.3-15.7-11.4 0-18 8.6-18 19 0 9.6 7 18.7 19 18.7a19 19 0 0 0 15.7-7.2ZM172 95.3c4.7 0 7.6 3.3 7.6 7.1h-15.7c1-4.7 3.8-7.1 8-7.1Zm76.2 23.8-5.8-5.3c-1.9 2.4-5.2 3.9-9.5 3.9-4.7 0-9-2.4-9.5-9h23.8l1-4.9c0-9.5-6.7-15.7-16.2-15.7-11.5 0-18.1 8.6-18.1 19 0 9.6 7.1 18.7 19.5 18.7 6.7 0 12-2.9 15.2-7.2l-.4.5ZM232 95.3c4.7 0 7.1 3.3 7.1 7.1h-15.7c1-4.7 3.8-7.1 8.6-7.1Zm27.1 16.2c0 8.5 4.3 13.3 12.9 13.3 2.8 0 4.7 0 6.6-1v-7.6l-4.7 1c-3.8 0-5.7-2-5.7-5.7V97.2h10.4v-7.6h-10.4V81h-9v8.6h-6.8v7.6h6.7v14.3Zm57.2 14.3a14.3 14.3 0 0 0 10-4.8v3.3h8.6V102c0-7.6-4.8-13.8-15.3-13.8a17 17 0 0 0-14.3 7.2l6.2 4.7a9.5 9.5 0 0 1 8.1-4.3c3.8 0 6.7 2.4 6.7 6.2v1l-10.5 1.4c-7.6 1.5-12 5.3-12 10.5 0 6.7 4.9 10.5 12 10.5l.5.5Zm-3.4-11.5c0-1.9 1.5-3.3 4.8-4.3l8.6-1v4.8a10 10 0 0 1-8.6 4.8c-2.9 0-4.8-1.9-4.8-4.3Zm30-7.6c0 10.5 6.7 19 17.7 19a14.3 14.3 0 0 0 11-4.2v2.8h9V72H371v20a14.3 14.3 0 0 0-11-4.3c-11 0-17.6 8.6-17.6 19.1h.4Zm9.6 0c0-5.7 3.8-10.5 9.5-10.5 3.8 0 7.1 2 9.5 4.8v11.4a11.1 11.1 0 0 1-9.5 4.8c-5.7 0-9.5-4.3-9.5-10.5Zm39 17.6h8.6v-22.8c1.4-2 3.3-4.8 7.6-4.8 3.8 0 6.2 2.4 6.2 6.7v20.5h8.6v-23c1.4-2.3 3.3-4.7 7.1-4.7 4.3 0 6.2 2.4 6.2 6.7v21h9v-21.5c0-9.5-5.6-14.8-12.8-14.8a14.3 14.3 0 0 0-11.9 5.8 12 12 0 0 0-10.5-5.8c-4.3 0-7.1 2-9.5 3.9V89h-8.6V124.3Zm68.1-41a5.7 5.7 0 0 0 0-11.4 6.1 6.1 0 0 0-5.7 5.7c0 3.4 2.9 5.8 5.7 5.8Zm-4.7 41h9.5V89.6H455V124.3Zm20 0h9v-22.8c1.5-2 3.9-4.8 8.1-4.8 4.3 0 6.7 2.9 6.7 7.1v20h9v-20.4c0-10.5-6.1-15.8-13.8-15.8-3.7.1-7.3 1.6-10 4.3v-2.8h-9V124.3Zm47.6-41a5.7 5.7 0 0 0 0-11.4 6.1 6.1 0 0 0-5.7 5.7c0 3.4 2.9 5.8 5.7 5.8Zm-4.7 41h9.5V89.6h-9.5V124.3Zm16.6-4.7c3.4 3.8 7.7 6.2 14.3 6.2a12 12 0 0 0 12.4-11.5c0-11.9-16.7-9.5-16.7-15.7 0-1.9 1-3.3 3.8-3.3 2.9 0 4.8 1.9 6.7 3.8l6.2-4.8a16.2 16.2 0 0 0-12.9-6.2c-7.1 0-12.3 4.8-12.3 11 0 11.9 16.6 9.5 16.6 15.7 0 2.4-1.4 3.8-4.7 3.8-2.9 0-5.3-1.9-7.7-4.8l-5.7 5.3v.5Zm38.1-8.1c0 8.5 3.8 13.3 12.4 13.3 2.9 0 4.8 0 6.7-1v-7.6l-4.8 1c-3.8 0-5.7-2-5.7-5.7V97.2h10.5v-7.6H581V81h-9v8.6h-5.8v7.6h6.2v14.3Zm27.2 12.4h8.6v-22.4c1.4-2 4.2-4.8 8.5-4.8l3.8 1v-9.1a9.5 9.5 0 0 0-3.3 0c-3.8 0-6.7 1.4-9 3.8v-3.3h-8.6v34.8Zm36.7.9a14.3 14.3 0 0 0 10.4-4.8v3.9h8.6v-22.4c0-7.7-4.7-13.9-15.2-13.9a17 17 0 0 0-14.3 7.2l6.2 4.8a9.5 9.5 0 0 1 7.6-4.3c4.3 0 7.1 2.4 7.1 6.2v1l-11 1.3c-7 1.5-11.3 5.3-11.3 10.5 0 6.7 4.7 10.5 11.9 10.5Zm-3.4-10.5c0-1.9 1.5-3.3 5.3-4.3l8.5-1v4.8c-1.9 3-4.7 4.8-9 4.8-2.9 0-4.8-1.9-4.8-4.3Zm35.3-2.8c0 8.5 3.8 13.3 12.8 13.3 2.9 0 4.8 0 6.7-1v-7.6l-5.2 1c-3.4 0-5.7-2-5.7-5.7V97.2h11v-7.6h-11V81h-8.6v8.6h-6.7v7.6h6.7v14.3Zm31.9-28.1c3.3 0 5.7-2.4 5.7-5.8 0-2.8-2.4-5.7-5.7-5.7a6.1 6.1 0 0 0-5.7 5.7c0 3.4 2.8 5.8 5.7 5.8Zm-4.3 41h9V89.5h-9V124.3Zm14.8-34.8 12.8 34.7H735l12.8-34.7h-9.5l-9.5 24.7-8.6-24.7h-9.5Zm74.8 29-6.7-4.8c-1.4 2.4-4.8 3.9-8.6 3.9-5.7 0-9.5-2.4-10.5-9H784l.5-4.9c0-9.5-6.2-15.7-15.7-15.7-11.5 0-18.1 8.6-18.1 19 0 9.6 7.1 18.7 19 18.7 6.7 0 12.4-2.9 15.8-7.2Zm-17.2-23.3c4.8 0 7.6 3.3 7.6 7.1h-15.7c1-4.7 3.8-7.1 8.1-7.1Z"
      fill="#000"
    />
  </svg>