<svg xmlns="http://www.w3.org/2000/svg" xml:space="preserve" viewBox="0 0 180.4 220.9"><defs><clipPath clipPathUnits="userSpaceOnUse" id="a"><path d="M0 0h567v779.5H0Z"/></clipPath></defs><g style="stroke-width:.53482413"><path style="fill:#1d4e9e;fill-opacity:1;fill-rule:nonzero;stroke:#fff;stroke-width:.53482413;stroke-linecap:butt;stroke-linejoin:miter;stroke-miterlimit:10;stroke-dasharray:none;stroke-opacity:1" d="M315.7 35.3h-70.2v86.5h70.2z" transform="matrix(2.5 0 0 -2.5 -609.9 306)"/><g clip-path="url(#a)" style="stroke-width:.53482413" transform="matrix(2.5 0 0 -2.5 -609.9 306)"><g style="stroke-width:.53482413"><path style="fill:#fff;fill-opacity:1;fill-rule:nonzero;stroke:none;stroke-width:.53482413" d="M0 0c0 1-.1 1.2-.4 1.2h-.3c-.2 0-.3 0-.3.2V1.7c.5.3 2.7.4 3.3.4 2.7 0 5.2-1.1 5.2-5 0-3.1-2.3-4.7-4.6-4.7H-.8l-.2.1v.3l.1.1c.6 0 .9.3.9 1.2zm1.5-5.8C1.5-6.8 2-7 2.9-7c1.9 0 3 2 3 4.1 0 2.4-1 4.4-3.1 4.4-.7 0-1.3 0-1.3-1z" transform="translate(251.9 78.2)"/></g><g style="stroke-width:.53482413"><path style="fill:#fff;fill-opacity:1;fill-rule:nonzero;stroke:none;stroke-width:.53482413" d="M0 0c2.4 0 4.5-1.7 4.5-4.3C4.5-7.3 2.3-9-.2-9c-2.3 0-4.2 1.7-4.2 4.4S-2.4 0 0 0m.2-8.4c1.7 0 2.7 1.5 2.7 3.3C2.9-3 2-.6-.1-.6c-2 0-2.7-1.5-2.7-3.5 0-1.9 1-4.3 3-4.3" transform="translate(264.7 79.4)"/></g><g style="stroke-width:.53482413"><path style="fill:#fff;fill-opacity:1;fill-rule:nonzero;stroke:none;stroke-width:.53482413" d="M0 0c0-1.5.8-2 2-2 1.6 0 2.5.7 2.5 2.5v4c0 .8-.2 1-.9 1h-.1V6H6.2v-.4c-.9 0-1-.3-1-1.1V.7c0-1 0-2-.8-2.7-.6-.6-1.6-.9-2.4-.9-1.9 0-3.4.6-3.4 2.9v4.7c0 .7-.3.7-.9.7l-.1.1v.3l.1.1H1v-.4H1c-.7 0-.9-.2-.9-1Z" transform="translate(272.5 73.2)"/></g><g style="stroke-width:.53482413"><path style="fill:#fff;fill-opacity:1;fill-rule:nonzero;stroke:none;stroke-width:.53482413" d="M0 0h-.1l-.4-1.3-.3-1c0-.5.3-.6.8-.6L.1-3v-.3h-2.6v.4c.5 0 .8.2 1 .7l.7 2L.3 3.4l.4 1.2c0 .2.1.3.5.6l.5.3v-.2l2.7-7.2c.3-.9.4-1 .8-1l.4-.2v-.2l-.2-.1H2.2v.3l.1.1c.6 0 .7.3.7.5L2.2 0zm2 .6L1 3.4H.8L.1.6Z" transform="translate(281.6 73.9)"/></g><g style="stroke-width:.53482413"><path style="fill:#fff;fill-opacity:1;fill-rule:nonzero;stroke:none;stroke-width:.53482413" d="m0 0 1.2-1.5 2.4-3 .1-.2v4.6c0 .7 0 1-.8 1 0 0-.2 0-.2.2v.2l.2.1h2.4l.2-.1v-.2c0-.1 0-.2-.4-.2-.5 0-.7-.2-.7-1.5v-6.8c-.5 0-.5 0-.7.2-.3.3-.5.5-.6.8L-1.4-.7l-.3.3v-5c0-1.2.1-1.3.8-1.3l.2-.1v-.3l-.2-.1h-2.5l-.2.1v.2l.1.2c.7 0 1 0 1 1.2v4.3c0 2 0 2.1-1.2 2.1l-.1.1v.3l.1.1H-1.1l.2-.3z" transform="translate(291.6 77.8)"/></g><g style="stroke-width:.53482413"><path style="fill:#fff;fill-opacity:1;fill-rule:nonzero;stroke:none;stroke-width:.53482413" d="M0 0c0-.7.1-1 .9-1h1.5c.5 0 .6.2.8.6l.4.6c0 .2.1.2.2.2 0 0 .4 0 .4-.2V0l-.5-1.5a59 59 0 0 0-5.1 0h-1v.3l.3.2c.3 0 .6.1.6 1v6c0 .6-.4.6-.8.6l-.1.1V7l.2.1h5.4l.1-.1V5.4l-.1-.2h-.3v.3c-.1.9-.4 1-1.1 1h-1c-.7 0-.8 0-.8-1V3.4h.8c.8 0 1.1 0 1.3 1h.4V1.6H2l-.1.8c-.1.3-.5.3-1 .3H0Z" transform="translate(300.2 72)"/></g><g style="stroke-width:.53482413"><path style="fill:#fff;fill-opacity:1;fill-rule:nonzero;stroke:none;stroke-width:.53482413" d="M0 0c.3-.8.7-1.6 1.8-1.6.9 0 1.6.5 1.6 1.4C3.4 2-.4 1.4-.4 4.3-.4 6 .8 6.9 2.2 6.9c.7 0 1.7-.4 1.9-.7V4.7h-.5c-.1 1-.6 1.6-1.5 1.6C1.4 6.3.8 6 .8 5 .8 2.9 4.6 3.5 4.6.5c0-1.7-1.4-2.7-2.8-2.7a4 4 0 0 0-2 .5L-.5 0z" transform="translate(305.8 72.5)"/></g><g style="stroke-width:.53482413"><path style="fill:#fff;fill-opacity:1;fill-rule:nonzero;stroke:none;stroke-width:.53482413" d="M0 0c-.6.4-1.1.9-1.1 1.6 0 1.2 1 2 2 2S3 3 3 2C2.8 1.4 2 .8 1.4.6a7 7 0 0 0 2.4-2.1C4.3-1 5-.2 5 .5c0 .5-.3.6-.8.6v.4h3.2v-.3L7.4 1C6.7 1 6.3.9 6 .4L4.2-2c.5-.8 1-2 2-2 .7 0 .9.3 1.3.7l.3-.2c0-.1 0-.3-.2-.4a2.4 2.4 0 0 0-2-1H4.5c-.4.2-.5.2-.8.8l-.4 1C2.4-4.2 1.8-5 .3-5-1-4.9-2-4-2-2.7c0 1.3 1 2.1 2.1 2.7m-.7-1.9c0-1 1-1.8 2-1.8.8 0 1.3.6 1.7 1C2.4-1.6 1.4-.8.3-.2c-.6-.3-1-.8-1-1.6m2.4 3.7c0 .6-.2 1.3-1 1.3C.4 3 0 2.6 0 2c0-.6.7-1 1.2-1.3.3.3.5.5.5 1" transform="translate(253.5 63.5)"/></g><g style="stroke-width:.53482413"><path style="fill:#fff;fill-opacity:1;fill-rule:nonzero;stroke:none;stroke-width:.53482413" d="M0 0c0 1-.1 1.2-.4 1.2h-.3c-.2 0-.3 0-.3.2V1.7c.5.2 2.8.4 3.3.4C5 2 7.5.9 7.5-3c0-3-2.3-4.6-4.6-4.6H-.8l-.2.1v.3l.1.1c.6 0 .9.3.9 1.2zm1.5-5.7C1.5-6.7 2-7 2.9-7c1.9 0 3 2 3 4 0 2.4-1 4.4-3.1 4.4-.7 0-1.3 0-1.3-1z" transform="translate(266.2 66.3)"/></g><g style="stroke-width:.53482413"><path style="fill:#fff;fill-opacity:1;fill-rule:nonzero;stroke:none;stroke-width:.53482413" d="M0 0c0-1 .4-1.2.9-1.2v-.5h-3.4v.3l.1.2c.8 0 1 .2 1 1.3V5c0 1.2-.2 1.5-.7 1.5h-.3l-.1.1V7h4c.7 0 2.2-.4 2.2-2C3.7 3.8 3 3.2 2 3c.5-.4.8-1 1.1-1.5l1.2-2c.3-.5.6-.8 1.2-.8v-.5H3.4c-.2 0-.3.2-.6.8L1.2 2c-.3.5-.4.7-1.2.7Zm0 3.2h.4c1 0 1.7.5 1.7 1.6 0 .9-.4 1.6-1.4 1.6-.7 0-.7-.5-.7-1Z" transform="translate(277.2 60.5)"/></g><g style="stroke-width:.53482413"><path style="fill:#fff;fill-opacity:1;fill-rule:nonzero;stroke:none;stroke-width:.53482413" d="M0 0c2.4 0 4.5-1.7 4.5-4.3C4.5-7.3 2.3-9-.2-9c-2.3 0-4.2 1.7-4.2 4.4S-2.4 0 0 0m.2-8.4c1.7 0 2.7 1.5 2.7 3.3C2.9-3 2-.6-.1-.6c-2 0-2.7-1.5-2.7-3.5 0-1.9 1-4.3 3-4.3" transform="translate(287.7 67.6)"/></g><g style="stroke-width:.53482413"><path style="fill:#fff;fill-opacity:1;fill-rule:nonzero;stroke:none;stroke-width:.53482413" d="M0 0c0 .7-.3.7-.8.7l-.2.1v.3l.1.1H2.5V.7h-.2c-.5 0-.8-.3-.8-.8v-6.1c0-.7.3-.8.9-.8l.1-.1v-.3l-.1-.1H-1v.4h.1c.6 0 .9.2.9.9z" transform="translate(294.1 66.2)"/></g><g style="stroke-width:.53482413"><path style="fill:#fff;fill-opacity:1;fill-rule:nonzero;stroke:none;stroke-width:.53482413" d="M0 0c0-.9.3-1.1 1-1.1v-.5h-3.5v.5c.9 0 1 .1 1 1v6.5h-1.3c-.7 0-1-.8-1.1-1.2H-4c-.3 0-.4 0-.4.2l.3 2 .1.1h.4c0-.3.3-.5.7-.5h4.2c.7 0 1 .2 1 .5h.3l.2-.1-.3-2v-.1l-.5.1V6c0 .4-.4.5-.8.5H0Z" transform="translate(301.6 60.4)"/></g><g style="stroke-width:.53482413"><path style="fill:#fff;fill-opacity:1;fill-rule:nonzero;stroke:none;stroke-width:.53482413" d="M0 0c.3-.8.7-1.6 1.8-1.6.9 0 1.6.5 1.6 1.4C3.4 2-.4 1.4-.4 4.3-.4 6 .8 6.9 2.2 6.9c.7 0 1.7-.4 1.9-.7V4.7h-.5c-.1 1-.6 1.6-1.5 1.6C1.4 6.3.8 6 .8 5 .8 2.9 4.6 3.5 4.6.5c0-1.7-1.4-2.7-2.8-2.7-.7 0-1.4.2-2 .5L-.5 0Z" transform="translate(305.6 60.7)"/></g><g style="stroke-width:.53482413"><path style="fill:#fff;fill-opacity:1;fill-rule:nonzero;stroke:none;stroke-width:.53482413" d="M0 0c0 .7-.3.8-.8.8h-.1v.5h3.2V.8L2.1.8c-.5 0-.7-.2-.7-.8v-6.7c0-.7.3-.8.8-.8l.1-.1V-8L2.2-8H-1v.4h.1c.5 0 .8.2.8 1z" transform="translate(251.9 55)"/></g><g style="stroke-width:.53482413"><path style="fill:#fff;fill-opacity:1;fill-rule:nonzero;stroke:none;stroke-width:.53482413" d="m0 0 1-1.5 2.3-3 .1-.2V0c0 .7 0 1-.7 1 0 0-.2 0-.2.2v.2H5V1h-.3C4.2.8 4.1.5 4.1-.7v-6.6h-.7l-.6.9-4.1 5.6-.3.3v-4.9c0-1.2.2-1.3.8-1.3l.2-.1V-7h-2.7v.3c.7 0 1 .1 1 1.3v4.2c0 2 0 2.1-1.1 2.1l-.1.1v.3H-1c.2 0 .2-.1.3-.2z" transform="translate(258.2 54)"/></g><g style="stroke-width:.53482413"><path style="fill:#fff;fill-opacity:1;fill-rule:nonzero;stroke:none;stroke-width:.53482413" d="M0 0c0 1-.1 1-.4 1h-.3c-.1 0-.2.1-.2.3v.2c.4.3 2.5.4 3 .4 2.5 0 4.8-1 4.8-4.4 0-2.9-2-4.3-4.2-4.3H-.8l-.1.1v.4c.7 0 .9.2.9 1zm1.4-5.2c0-.8.5-1 1.3-1 1.7 0 2.7 1.7 2.7 3.6 0 2.1-1 4-2.8 4-.6 0-1.2 0-1.2-1z" transform="translate(264.7 53.8)"/></g><g style="stroke-width:.53482413"><path style="fill:#fff;fill-opacity:1;fill-rule:nonzero;stroke:none;stroke-width:.53482413" d="M0 0c0 .7-.3.7-.8.7l-.1.1v.4h3.2V.7h-.2c-.5 0-.7-.3-.7-.8v-6c0-.7.3-.8.8-.8l.1-.1v-.3H-.9v.3l.1.1c.5 0 .8.1.8.8z" transform="translate(273.2 54.3)"/></g><g style="stroke-width:.53482413"><path style="fill:#fff;fill-opacity:1;fill-rule:nonzero;stroke:none;stroke-width:.53482413" d="M0 0c0-1 .3-1.2.8-1.2v-.4h-3.1v.4c.9 0 1 .2 1 1.3v4.7c0 1.2-.1 1.5-.6 1.5h-.3l-.1.1v.4h3.7c.6 0 2-.4 2-2 0-1-.8-1.6-1.6-1.8.4-.3.7-.9 1-1.4l1-2c.3-.5.6-.8 1.2-.8v-.5H3.1c-.2 0-.3.2-.6.8L1 2c-.2.5-.3.7-1.1.7Zm0 3.1h.4c.9 0 1.6.5 1.6 1.6 0 .9-.4 1.6-1.3 1.6-.7 0-.7-.5-.7-1Z" transform="translate(278.7 48.7)"/></g><g style="stroke-width:.53482413"><path style="fill:#fff;fill-opacity:1;fill-rule:nonzero;stroke:none;stroke-width:.53482413" d="M0 0c0-.7.1-1 .8-1h1.4c.5 0 .5.3.8.6l.3.6c0 .2.1.2.2.2 0 0 .3 0 .3-.2V0l-.4-1.5a48 48 0 0 0-4.7 0h-1v.3c0 .1 0 .2.3.2s.6.1.6 1v5.9c0 .6-.4.6-.7.6l-.2.1V7H3V5h-.3v.3c-.1.9-.4 1-1 1h-1c-.6 0-.7 0-.7-1V3.3h.7c.8 0 1 0 1.2 1h.4V1.5H2l-.1.1v.7c-.2.4-.5.4-1 .4H0Z" transform="translate(286.3 48.5)"/></g><g style="stroke-width:.53482413"><path style="fill:#fff;fill-opacity:1;fill-rule:nonzero;stroke:none;stroke-width:.53482413" d="M0 0c-.8-.4-1.6-.6-2.5-.6C-4.9-.6-6.8 1-6.8 4A4.3 4.3 0 0 0-.3 7.6c.2 0 .2-.1.2-.2a55.9 55.9 0 0 0 .2-1.6h-.4c-.5 1-1 1.9-2.2 1.9-1.8 0-2.8-1.8-2.8-3.8 0-2 1.2-4 3-4C-1.2 0-.7.5-.2 1.7c0 0 0 .3.2.3 0 0 .4 0 .4-.2v-.3z" transform="translate(297.6 47.4)"/></g><g style="stroke-width:.53482413"><path style="fill:#fff;fill-opacity:1;fill-rule:nonzero;stroke:none;stroke-width:.53482413" d="M0 0c0-.9.3-1.1.8-1.1l.2-.1v-.3l-.2-.1h-3.1v.5c.8 0 1 .2 1 1v6.4h-1.3c-.6 0-.8-.8-1-1.1l-.1-.1C-4 5-4 5-4 5.3l.2 2 .1.1h.4c0-.3.3-.5.6-.5h3.9c.6 0 .9.2 1 .5h.2l.2-.1-.3-2v-.1l-.4.1v.5c0 .4-.5.5-.8.5H0Z" transform="translate(302.5 48.6)"/></g><g style="stroke-width:.53482413"><path style="fill:#fff;fill-opacity:1;fill-rule:nonzero;stroke:none;stroke-width:.53482413" d="M0 0c.3-.7.6-1.6 1.7-1.6C2.5-1.6 3-1 3-.2 3.1 2-.4 1.4-.4 4.2-.4 6 .7 6.8 2 6.8c.7 0 1.6-.4 1.8-.7V4.6h-.5c-.1 1-.5 1.6-1.3 1.6C1.3 6.2.7 5.8.7 5c0-2 3.5-1.4 3.5-4.4C4.2-1.2 3-2 1.6-2 1-2.1.3-2-.3-1.6L-.4 0z" transform="translate(306 49)"/></g><g style="stroke-width:.53482413"><path style="fill:#fff;fill-opacity:1;fill-rule:nonzero;stroke:none;stroke-width:.53482413" d="M0 0s2-4.6 2-6.5C2-6.5 3.5-4 1.2.3c0 0-1.5 3.3-.3 5.2 0 0 .8 1.8 2.8 2.3 0 0 .2 0-.1-.4 0 0-1.3-2 .5-3.8 0 0 2.3-2.5 2.2-4.7 0 0 .2-3.6-3.8-7.2h-1l-2.5 4S-2.4-1.6-1.8.4c0 0 .6 2.2 1.5 3 0 0 0-2.4.3-3.3" transform="translate(279.4 110.3)"/></g><g style="stroke-width:.53482413"><path style="fill:#fff;fill-opacity:1;fill-rule:nonzero;stroke:none;stroke-width:.53482413" d="M0 0c.4-1.1.7-2.3.7-3.6 0-5.3-4.2-9.6-9.4-9.6h-1c-5.5.3-9 4.5-9 4.5-3.6 4.1-4.9 10-4.9 10h9.2a8 8 0 0 1 4-12.5c.7-.2 1.3-.3 2-.3 4.2 0 7.6 3.6 7.6 7.9A8 8 0 0 1-2.2 1h1.7z" transform="translate(289.7 97.4)"/></g><g style="stroke-width:.53482413"><path style="fill:#ed1639;fill-opacity:1;fill-rule:nonzero;stroke:none;stroke-width:.53482413" d="M0 0a1.8 1.8 0 1 0-3.6 0A1.8 1.8 0 1 0 0 0" transform="translate(282.4 42.4)"/></g><g style="stroke-width:.53482413"><path style="fill:#ed1639;fill-opacity:1;fill-rule:nonzero;stroke:none;stroke-width:.53482413" d="M0 0a5 5 0 0 0-5.1-5 5 5 0 0 0-5.2 5A5 5 0 0 0-5 5 5 5 0 0 0 0 0" transform="translate(286.4 93.6)"/></g></g></g></svg>