<svg xmlns="http://www.w3.org/2000/svg" viewBox="0 0 465.4 380"><g data-name="Calque 3"><path d="M0 0h465.4v380H0z" style="fill:#fff"/><path d="m77.6 72.5.3-.2a1.5 1.5 0 0 1-.3.2M87.3 72.8a18.9 18.9 0 0 1-3.8 2 32.4 32.4 0 0 0-4.7 2.5H43V38.6h50.5a19.4 19.4 0 0 0-2 .8 6 6 0 0 0-2.2 1.4 6.4 6.4 0 0 0-1.4 2.4 6.2 6.2 0 0 0-2 2.3c-.7 1.2-1.7 2.3-1.5 3.7.1 1.2.4 2.3.6 3.5a8.3 8.3 0 0 0 .3 1.3c.2.4 0 1 .2 1.3.2.2.1.5.4.6v.3c0 .1 0 .2.2.2v.3a11.2 11.2 0 0 1 1.7 2.2c.1.4-.7.2-1 0a8.2 8.2 0 0 1-1.8-1.4.2.2 0 0 0-.1.1c.3.5 1.4 1.2.8 1.6-.3.1-.7-.3-1 0v.5c-.4-.3-.8-.2-1.3-.3-.3-.1-.3-.7-.7-.7a18.8 18.8 0 0 0-2.8-.5 13.9 13.9 0 0 0-3.9-.1 4.2 4.2 0 0 0-2.7 1.8v.2c.5 0 .7-.4 1.1-.5l2.2-.6a12 12 0 0 1 3-.4 2.5 2.5 0 0 1 .8 0 10.8 10.8 0 0 0-3.7.7 12.4 12.4 0 0 0-2.6.7 16.4 16.4 0 0 1 5.7.8 8.3 8.3 0 0 1 1.8 1 5.1 5.1 0 0 0 .7.5 1.5 1.5 0 0 0 1.3 0h.3a6 6 0 0 0 3-1.3h.2a5.2 5.2 0 0 1-.7 1.8v.3h.2-.1c0 .2.2 0 .3.2a1.4 1.4 0 0 0-1 .5h.2c-.1.2-.3.1-.4.2a.2.2 0 0 0 .2.1h-.2v.3l-.4.2c.3.3.5 0 .8 0-.8.3-1.5.8-2.3 1l-.1.2h.6L81 67.4a.5.5 0 0 0-.1.3h-.3c-.2 0-.1.3-.2.4.3.2.8-.3 1 0H81s0 .2-.2.2h-.2c-.1.2-.3.2-.3.5l-.3.1c1.6-.2 3.2 0 4.8-.9a11.3 11.3 0 0 0 3.2-2.4.3.3 0 0 1 0 .2 3.2 3.2 0 0 1-1.2 1.7l-1 .7-.7.4c-2.7 1-6 .5-8.3 2.4l-.1-.1-.5.4a.2.2 0 0 0 .2 0 .6.6 0 0 1 .2 0 5 5 0 0 1 1.1-.6 1 1 0 0 0-.1.1l-.8.5a1.6 1.6 0 0 0-.5.4V72.1l-.2.2v.2a.4.4 0 0 1-.1.1v.1H76a.4.4 0 0 0 .2 0c.3 0 .4-.2.6-.4a2.8 2.8 0 0 1 .3-.2v.3c-.1 0 0 0 0 0a6.5 6.5 0 0 0-1.2 1v.1l-.2.5-.2.3-.2.3a.3.3 0 0 0 .1 0l1.2-1a.2.2 0 0 0 .1-.1 7.5 7.5 0 0 1 1.2-1 1.6 1.6 0 0 0 .5-.4l.2-.1a6.3 6.3 0 0 1 1.4-.6 24 24 0 0 1 2.7-.5 7.7 7.7 0 0 0 1.8 0l1.3-.6v.2c1.1-.5 2-1.4 3-1.8.1 0 .2.2.4 0a3 3 0 0 1 2.3-1l.1.1-.7.6c-.1.1 0 .2 0 .2.4-.2.6-.5 1-.6 0 0 0 .2-.2.3a6.9 6.9 0 0 0-.8.6 24.2 24.2 0 0 0-2.4 2.5l-1.2 1.3M76 67.5c.6-.2 1.1 0 1.6-.5-.2-.1-.4 0-.5-.3l-.5.2c-.3.1-.8.1-1 .5 0 .2.3 0 .4 0M65 66a24.7 24.7 0 0 1 5.6-5c.1-.1-.2.2 0 0 1-.1 1.3-1 1.8-1.8.5-1 1.6-1.3 2.3-2.1a.3.3 0 0 1 0 .2.3.3 0 0 0 .1 0c.3-.2.7 0 1-.4a2.8 2.8 0 0 0-2 0 14.3 14.3 0 0 0-4 3.2 9.9 9.9 0 0 1-2.6 2 22.2 22.2 0 0 1-2.3 3.7.3.3 0 0 0 0 .2M71 61v-.2a1 1 0 0 0-.6.7h.1a.6.6 0 0 0 .3-.3l.2-.2M74.3 72c0-.2-.3-.1-.4 0a1 1 0 0 0-.1 0 3.3 3.3 0 0 1-.3.4l-.6.5s.3.2.4 0l.3-.2a1.6 1.6 0 0 0 .6-.4c.1 0 0 0 0-.1a.7.7 0 0 0 .1-.2m-1.3-.6 1.9-1.2a1.1 1.1 0 0 0-.7-.1h-1.1c-1 .4-2.1.4-2.8 1a1.1 1.1 0 0 0-.2.3l-.3.2a3.6 3.6 0 0 0-.3.3l-.2.2c-.1 0 0 .2.1.1l.3-.2a2.4 2.4 0 0 0-.3.4v.1a.5.5 0 0 1 0 .1 1.4 1.4 0 0 1-.1.2v.1a1.6 1.6 0 0 1-.1.1l-.1.2-.3.4-.1.2a1 1 0 0 0-.1 0l-.3.4a.7.7 0 0 0 .1.1h.2v-.1a3.4 3.4 0 0 1 .5-.5l.2-.2a.1.1 0 0 1 .1 0h.2a1.1 1.1 0 0 1 0-.1h.2a.7.7 0 0 0 .1 0l.2-.2.1-.1.1-.2a3.7 3.7 0 0 1 .8-.5h.1l1-.4.8-.6m1.5-5h1a1.2 1.2 0 0 1 .7-.2v-.3a1.5 1.5 0 0 0 .6.1 20.2 20.2 0 0 0 5-1.5c-1.8-1.5-4.2-2-6.5-2.6.2 0 .5.2.7 0-.4-.3-.8-.2-1.2-.4h.3a8.5 8.5 0 0 0-1.8-.5.7.7 0 0 0 .6-.7l-.2-.1a4 4 0 0 0-1.8 2.2c.5.3 1 0 1.6.1-.2.2-.6.2-.9.3-.2 0-.4.2-.3.4a.3.3 0 0 0 .1 0 1 1 0 0 0-.4.3c.3.3.5.1.8.1 0 .2.2.2.3.2a1.3 1.3 0 0 0-.8.7c-.1.4-.5.5-.7.8v.2a12.8 12.8 0 0 0-2.1 2c-.1.3-.4.3-.5.6l.1.1c.9-.3 1.5-1 2.3-1.2l1.6-.7L74 66l.1.2h.6c0 .1-.4 0-.3.1" style="fill:#000091"/><path d="M149.6 38.6H108a1.5 1.5 0 0 1 .4.2l1 .6a3.5 3.5 0 0 1 1.5 1.1c.1.3.3.7.2 1-.2.4-.2 1-.6 1a2.7 2.7 0 0 1-1.5.2 3.6 3.6 0 0 1-.9-.1 6 6 0 0 1 2.8 2l.7.2v.2c0 .1-.2.2-.1.4h.2c.3-.1.3-.8.8-.6a.8.8 0 0 1 .3 1 7.8 7.8 0 0 1-1 .8.6.6 0 0 0 0 .5 2.3 2.3 0 0 1 .5.9c.2.5.2 1 .5 1.6a10.1 10.1 0 0 1 .5 3.3c0 .6-.3 1 0 1.7a6.2 6.2 0 0 0 .7 1.5 11 11 0 0 1 .8 1.2c.4.7 1.3 1.4.9 2.3-.2.5-1 .4-1.5.7-.5.4-.1 1 .1 1.3.4.7-.4 1.1-1 1.4.2.2.5.1.6.2 0 .4.4.6.2 1-.3.4-1.2.7-.7 1.3a2 2 0 0 1-.1 1.6 1.8 1.8 0 0 1-1.3 1.1 3 3 0 0 1-1.4 0 1 1 0 0 0-.5 0 32.8 32.8 0 0 0-3.7-.6 4.2 4.2 0 0 0-1 .3 6.6 6.6 0 0 0-.9.8 2 2 0 0 0-.2.2v.1h-.1a8.6 8.6 0 0 0-.6 1 7.2 7.2 0 0 0-.6 1.4c-.5 1.7-.3 3.1 0 3.5l4 1.5a13.5 13.5 0 0 1 1.8.9h40.8Z" style="fill:#e1000f"/><path d="m110.5 52.7.7.2c-.1.6-1 .8-1.4 1.4h-.2c-.3.1-.2.5-.4.5a1 1 0 0 0-.7 0 1.2 1.2 0 0 0 1.1.5.3.3 0 0 1 .3.3.2.2 0 0 0 0-.1h.2v.4c-.2.3-.5.1-.8.2a3.3 3.3 0 0 0 1.6 0c.5-.2 0-.9.3-1.3l-.1-.2.4-.4a.5.5 0 0 0 .5-.2c0-.2-.3-.3-.3-.4.5-.3.9-.7.7-1.2 0-.2-.7-.2-1-.3a2.5 2.5 0 0 0-1.3 0 5.5 5.5 0 0 0-1 .3 5.1 5.1 0 0 0-1.4.8 10.2 10.2 0 0 1 1.6-.5 4.7 4.7 0 0 1 1.2 0" style="fill:gray"/><path d="M137.3 331.4c.8 0 1.5.6 1.1 2.1l-3.6.9c.6-1.7 1.7-3 2.5-3m2 5.9h-.7c-.9 1-1.9 2-2.8 2-1 0-1.5-.7-1.5-2a8.2 8.2 0 0 1 .1-1.6l6-2c1-2.7-.3-3.9-2-3.9-2.7 0-5.9 4.7-5.9 8.8 0 1.8.9 2.8 2.2 2.8 1.6 0 3.3-1.6 4.7-4.1m-1.2-8.6 4.1-3.8v-.5h-2.2l-2.5 4.3Zm-12.7 2.8h2l-3.2 8.5a1 1 0 0 0 .9 1.4 7.2 7.2 0 0 0 5.6-4.1h-.6a7.7 7.7 0 0 1-3.6 2.1l2.9-8h3l.3-1.1h-2.9l1.1-3.1H130l-2 3-2.4.4Zm-2.7-.4a.9.9 0 0 0-.7-1.3c-1.7 0-3.7 1.6-4.5 3.7h.6a4.3 4.3 0 0 1 2.3-1.8l-3.2 8.5a.8.8 0 0 0 .7 1.2c1.6 0 3.5-1.6 4.3-3.7h-.6a4.4 4.4 0 0 1-2.3 1.8Zm.6-4.3a1.4 1.4 0 1 0-1.4-1.4 1.4 1.4 0 0 0 1.4 1.4m-18.7 13c-.4 1 0 1.6 1 1.6a1 1 0 0 0 1-.8l2.3-6c1-1.2 3.2-2.6 4-2.6.6 0 .5.5.1 1.3l-3.4 6.7a1 1 0 0 0 .8 1.4c1.7 0 3.7-1.5 4.5-3.7h-.5a4.4 4.4 0 0 1-2.4 1.8l3-6a4.9 4.9 0 0 0 .6-2 1.5 1.5 0 0 0-1.6-1.7c-1.5 0-3 1.7-4.7 3.7V332c0-1.2-.4-2.2-1.4-2.2-.6 0-1.3.6-1.8 1.4v.2c1 0 1.6 1.6.8 3.3Zm0-7.4c.3-1.4.1-2.6-1-2.6-1.2 0-1.5 1-2.8 3.7V332c0-1.2-.3-2.2-1.4-2.2-1.2 0-2.2 1.9-3 3.7h.5c.6-.8 1-1.3 1.5-1.3s.8.8 0 2.5l-2.3 5.1c-.4 1 0 1.6 1 1.6a1 1 0 0 0 1-.8l2.3-6 2-2.2Zm-13.1-1c.8 0 1.4.6 1 2.1l-3.6.9c.7-1.7 1.7-3 2.6-3m2 5.9h-.7c-1 1-2 2-3 2-.9 0-1.4-.7-1.4-2a7.7 7.7 0 0 1 .2-1.6l5.9-2c1.1-2.7-.3-3.9-1.9-3.9-2.8 0-6 4.7-6 8.8 0 1.8 1 2.8 2.3 2.8 1.6 0 3.2-1.6 4.6-4.1m-13.9-5.8h2l-3.1 8.5a1 1 0 0 0 .8 1.4 7.2 7.2 0 0 0 5.6-4.1h-.5a7.8 7.8 0 0 1-3.6 2.1l2.8-8h3l.3-1.1h-2.8l1-3.1h-1l-2.1 3-2.4.4ZM69 338c0-2.6 2.9-6.2 4.5-6.2a3.7 3.7 0 0 1 1 .1l-1.7 4.6c-1 1.2-2.5 2.6-3.2 2.6-.4 0-.6-.3-.6-1.1m9-8.8h-1l-1 1h-.2c-4.8 0-9 5.4-9 9.4a1.6 1.6 0 0 0 1.7 1.7c1.3 0 2.5-1.8 3.9-3.7v.7c-.3 2 .3 3 1.4 3 1.2 0 2.2-1.9 3-3.7h-.5c-.6.8-1 1.3-1.5 1.3s-.8-.8 0-2.5Zm-10.4 3.1c.4-1.4.2-2.6-.9-2.6-1.3 0-1.6 1-2.9 3.7V332c0-1.2-.3-2.2-1.3-2.2-1.2 0-2.3 1.9-3.1 3.7h.5c.6-.8 1.1-1.3 1.5-1.3.6 0 .8.8 0 2.5l-2.3 5.1c-.4 1 0 1.6 1 1.6a1 1 0 0 0 1-.8l2.3-6 2-2.2ZM51.3 341l.2-.7c-2.8-.5-3.2-.5-2-3.6l1-3.2h3.2c1.4 0 1.4.6 1.2 2.1h.8l1.9-5.1h-.8c-.7 1.2-1.3 2.1-2.8 2.1h-3l1.5-4.5c.6-1.4.9-1.7 2.8-1.7h1.3c2 0 2.2.5 2.2 2.5h.8l.7-3.5H48.5l-.2.7c2.3.5 2.5.7 1.5 3.6l-2.6 7c-1 3-1.5 3.1-4.1 3.6l-.2.7ZM108.9 304.8c.7 0 1.4.6 1 2.1l-3.6.9c.6-1.7 1.7-3 2.6-3m2 5.9h-.8c-.9 1-1.8 2-2.8 2-1 0-1.5-.7-1.5-2a7.8 7.8 0 0 1 .1-1.6l6-2c1-2.7-.3-3.9-2-3.9-2.7 0-5.9 4.7-5.9 8.8 0 1.8.9 2.8 2.3 2.8 1.6 0 3.2-1.6 4.6-4.1m-1.2-8.6 4.2-3.8v-.5h-2.3l-2.5 4.3ZM97 305h2l-3.2 8.5a1 1 0 0 0 .9 1.4 7.2 7.2 0 0 0 5.6-4.1h-.6a7.7 7.7 0 0 1-3.5 2.1l2.8-8h3l.3-1.1h-2.8l1-3.1h-1.1l-2 3-2.4.4Zm-2.7-.4a.9.9 0 0 0-.7-1.3c-1.7 0-3.7 1.6-4.5 3.7h.6a4.3 4.3 0 0 1 2.3-1.8l-3.2 8.5a.8.8 0 0 0 .7 1.2c1.6 0 3.5-1.6 4.3-3.7h-.6A4.3 4.3 0 0 1 91 313Zm.6-4.3a1.4 1.4 0 0 0 1.4-1.4 1.4 1.4 0 0 0-2.8 0 1.4 1.4 0 0 0 1.4 1.4m-11.3 12.7 6-15.5-.2-.3-3.8.5v.4l.8.6c.6.5.4 1-.2 2.5l-4.6 12.3a1 1 0 0 0 .8 1.4c1.7 0 3.5-1.5 4.3-3.7h-.5a4.8 4.8 0 0 1-2.6 1.8m-11.3-1.4c0-2.6 3-6.2 4.6-6.2a3.7 3.7 0 0 1 1 .1l-1.7 4.6c-1 1.2-2.5 2.6-3.2 2.6-.4 0-.7-.3-.7-1.1m9-8.8h-.9l-1 1h-.2c-4.9 0-9 5.4-9 9.4a1.6 1.6 0 0 0 1.7 1.7c1.2 0 2.5-1.8 3.9-3.7l-.1.7c-.2 2 .4 3 1.4 3 1.2 0 2.3-1.9 3.2-3.7h-.6c-.6.8-1.1 1.3-1.5 1.3-.5 0-.8-.8 0-2.5ZM59.6 317c0-1.2 1.1-1.9 2.7-2.5a18.1 18.1 0 0 0 2.3.9c1.6.5 2.2.7 2.2 1.2 0 1-1.8 1.9-4.2 1.9-2 0-3-.5-3-1.5m4.4-7c-.7 0-1-.5-1-1.2 0-1.9 1-4.7 2.7-4.7.7 0 1 .6 1 1.3 0 1.9-1 4.7-2.7 4.7m4.7 5.8c0-1.3-1.3-1.8-3.2-2.4-1.7-.5-2.5-.7-2.5-1.2a1.7 1.7 0 0 1 1-1.4 5 5 0 0 0 4.7-4.8 3 3 0 0 0-.3-1.1h2.4l.4-1.2h-3.8a2.9 2.9 0 0 0-1.5-.5A5 5 0 0 0 61 308a2.7 2.7 0 0 0 2.3 2.9c-1.4.6-2.2 1.3-2.2 2.1a1.3 1.3 0 0 0 .6 1.2c-3.2 1-4.4 2-4.4 3.5s2 2 4.2 2c3.9 0 7.2-2 7.2-3.8m-15-9c1.5 0 1.5.5 1.3 2h.8l1.9-5.1h-.8c-.7 1.2-1.3 2.1-2.8 2.1H51l1.6-4.3c.5-1.4.8-1.7 2.7-1.7h1.3c2 0 2.3.6 2.3 2.5h.7l.7-3.5H48.6l-.3.7c2.3.5 2.5.7 1.5 3.6l-2.6 7c-1 3-1.5 3.1-4.1 3.6l-.2.7h13l2.4-3.7h-.9a8.6 8.6 0 0 1-6 2.7c-3.4 0-3.1-.1-2-3.3l1.3-3.4Zm1.8-9 4.1-2.9v-.4h-2.5l-2.3 3.3ZM107.5 278.2c.8 0 1.4.6 1 2.1l-3.6.9c.7-1.7 1.7-3 2.6-3m2 5.9h-.7c-1 1-2 2-3 2s-1.4-.7-1.4-2a8.2 8.2 0 0 1 .1-1.6l6-2c1.1-2.7-.3-3.9-2-3.9-2.7 0-5.9 4.7-5.9 8.8 0 1.8 1 2.8 2.3 2.8 1.6 0 3.2-1.6 4.6-4.1m-1.2-8.6 4.2-3.8v-.5h-2.3l-2.5 4.3Zm-12.2 2.8h1.6l-3.1 8.5a1 1 0 0 0 .8 1.4 7.2 7.2 0 0 0 5.6-4.1h-.5a7.8 7.8 0 0 1-3.6 2.1l2.8-8h3l.3-1.1h-2.8l1-3.1h-1l-2 3-2 .4Zm-1.5 1c.4-1.5.2-2.7-.9-2.7-1.2 0-1.5 1-2.8 3.7v-1.5c0-1.2-.4-2.2-1.4-2.2-1.2 0-2.3 1.9-3.1 3.7h.5c.6-.8 1.1-1.3 1.6-1.3s.8.8 0 2.5l-2.3 5.1c-.5 1 0 1.6 1 1.6.5 0 .8-.1 1-.8l2.2-6a37 37 0 0 1 2-2.2Zm-13-1.1c.7 0 1.4.6 1 2.1l-3.6.9c.6-1.7 1.7-3 2.5-3m2 5.9h-.7c-.9 1-1.9 2-2.8 2-1 0-1.6-.7-1.6-2a8.2 8.2 0 0 1 .2-1.6l6-2c1-2.7-.3-3.9-2-3.9-2.7 0-5.9 4.7-5.9 8.8 0 1.8.9 2.8 2.2 2.8 1.6 0 3.3-1.6 4.7-4.1M69 286.5c-.6 0-1.4-.6-1.4-1a12 12 0 0 1 .6-1.7l1-2.5c1-1.2 2.5-2.5 3.4-2.5.5 0 1 .3 1 1.1 0 2.3-2.3 6.6-4.6 6.6m6.7-7.5c0-1.7-.6-2.4-1.8-2.4-1.5 0-3 1.6-4.3 3.5l3.5-9.3-.2-.3-3.7.5v.4l.7.6c.7.5.5 1-.1 2.5l-3.8 10a10.9 10.9 0 0 0-.7 1.7c0 1 1.4 2 2.7 2 2.9 0 7.7-5.2 7.7-9.2m-11.6-1.1a.9.9 0 0 0-.7-1.3c-1.7 0-3.7 1.6-4.5 3.7h.6a4.3 4.3 0 0 1 2.3-1.8l-3.2 8.5a.9.9 0 0 0 .7 1.2c1.6 0 3.5-1.6 4.3-3.7H63a4.3 4.3 0 0 1-2.3 1.8Zm.6-4.3a1.4 1.4 0 0 0 1.4-1.4 1.4 1.4 0 1 0-2.8 0 1.4 1.4 0 0 0 1.4 1.4m-8.5-1.4h-7.8l-.2.7c2.3.5 2.5.7 1.4 3.6l-2.5 7c-1 3-1.5 3.1-4.1 3.6l-.2.7h11.8l2.5-4.6h-.9c-1.4 1.6-3.1 3.6-5.7 3.6-2 0-2.2-.3-1.2-3.3l2.5-7c1-2.9 1.5-3.1 4.2-3.6ZM42.9 96.6h7.3l7 12.2 7.2-12.2h7.3v29h-5.9v-20.8l-6.5 10.8h-4l-6.5-10.8v20.8h-6ZM79.7 96.6h6v29h-6ZM93.7 96.6h7.5l13 21v-21h5.9v29h-7.6l-13-21v21h-5.8ZM128.2 96.6h5.8v29h-5.8ZM143.8 117.6a8.3 8.3 0 0 0 6.4 3.6c2.3 0 3.7-1.3 3.7-3.3 0-5.4-13.1-4-13.1-13.7 0-4.6 3.8-8.4 9.3-8.4a12.8 12.8 0 0 1 10.1 4.9l-4.3 3.8c-1.7-2.1-3.6-3.6-5.7-3.6a3.1 3.1 0 0 0-3.5 3c0 5.3 13.2 3.8 13.2 13.8-.1 5.4-4.3 8.7-9.7 8.7a13 13 0 0 1-10.7-4.9ZM163 96.6h23.8v5.3h-9v23.7H172v-23.7h-9ZM192 96.6h16.8v4.9h-11v6.9h9.4v4.8h-9.4v7.5h11v4.9H192Zm.5-8h6l4.7 5.5h-5.4ZM215.7 96.6h8.8c6.4 0 10.3 3.3 10.3 8.6a7.8 7.8 0 0 1-4.7 7.5l9 12.9h-6.8l-7.8-11.7h-3v11.7h-5.8Zm5.8 4.9v7.5h3.3c2.5 0 4-1.5 4-3.8 0-2.2-1.5-3.7-4-3.7ZM242.9 96.6h16.9v4.9h-11v6.9h9.3v4.8h-9.3v7.5h11v4.9h-16.9ZM42.9 138.6h11.4c9.1 0 15.3 6.7 15.3 14.5s-6.2 14.5-15.3 14.5H42.9Zm5.9 5.3v18.3h5.5a9.1 9.1 0 1 0 0-18.3ZM75.3 138.6h16.9v4.9h-11v6.9h9.3v4.8h-9.3v7.5h11v4.9H75.3ZM109.8 138.6h5.8v23.6h11v5.4h-16.8ZM128.3 150.5l3.7-11.9h6l-4.8 12ZM142.5 138.6h17v4.9h-11v6.9h9.3v4.8h-9.4v7.5h11v4.9h-16.9Zm5.8-2.5 4.6-5.6h6l-5.3 5.6ZM166.2 138.6h11.4c9.2 0 15.4 6.7 15.4 14.5s-6.2 14.5-15.4 14.5h-11.4Zm6 5.3v18.3h5.5a9.1 9.1 0 1 0 0-18.3ZM215.4 138.6h5.9v17.6c0 7.6-4.5 12.2-11.8 12.2-7.2 0-11.7-4.6-11.7-12.2v-17.6h5.9v18.1c0 4 2.2 6.2 5.9 6.2 3.6 0 5.8-2.3 5.8-6.2ZM249 159l4.7 3.5a14.8 14.8 0 0 1-12.2 5.9 15.3 15.3 0 1 1 12.2-24.7l-4.7 3.5a9 9 0 0 0-7.5-4c-5.5 0-9.4 4.3-9.4 9.9s3.9 9.8 9.4 9.8a9 9 0 0 0 7.5-4ZM266 138.6h7.7l11 29h-6.2l-2.8-7.6H264l-2.8 7.6h-6.2ZM274 155l-4-10.9-4 11ZM286.2 138.6h23.7v5.3H301v23.7h-5.9v-23.7h-8.9ZM315.1 138.6h5.9v29H315ZM357.3 153a15.4 15.4 0 1 1-15.3-15.2 15 15 0 0 1 15.3 15.3Zm-6 0c0-5.5-4-9.7-9.3-9.7-5.5 0-9.4 4.2-9.4 9.8s4 9.8 9.4 9.8 9.3-4.3 9.3-9.8ZM363 138.6h7.5l13 21v-21h5.8v29h-7.5l-13-21v21H363ZM42.9 180.6h7.5l13 21v-21h5.8v29h-7.5l-13-21v21H43ZM84.7 180.6h7.6l11 29h-6.2l-2.8-7.6H82.7l-2.8 7.6h-6.2Zm7.8 16.4-4-10.9-4 11ZM104.8 180.6h23.7v5.3h-9v23.7h-5.8v-23.7h-9ZM133.7 180.6h5.9v29h-5.9ZM176 195a15.4 15.4 0 1 1-15.4-15.2 15 15 0 0 1 15.3 15.3Zm-6.1 0c0-5.5-4-9.7-9.3-9.7-5.5 0-9.4 4.2-9.4 9.8 0 5.5 4 9.8 9.4 9.8s9.3-4.3 9.3-9.8ZM181.5 180.6h7.6l13 21v-21h5.8v29h-7.5l-13-21v21h-5.9ZM223.3 180.6h7.7l11 29h-6.3L233 202h-11.5l-2.8 7.6h-6.3Zm7.8 16.4-4-10.9-4 11ZM246.4 180.6h5.9v23.6h11v5.4h-16.9ZM268.5 180.6h16.8v4.9h-11v6.9h9.4v4.8h-9.4v7.5h11v4.9h-16.8ZM42.9 222.6h16.9v4.9h-11v6.9H58v4.8h-9.3v7.5h11v4.9h-17ZM63.6 222.6h23.7v5.3h-8.9v23.7h-5.9v-23.7h-8.9ZM103.3 222.6h11.3c9.2 0 15.4 6.7 15.4 14.5s-6.2 14.5-15.4 14.5h-11.3Zm5.8 5.3v18.3h5.6a9.1 9.1 0 1 0 0-18.3ZM135.7 222.6h16.9v4.9h-11v6.9h9.3v4.8h-9.3v7.5h11v4.9h-17ZM170.1 222.6h5.9v23.6h11v5.4h-16.9ZM199.5 222.6h7.7l11 29h-6.3L209 244h-11.6l-2.7 7.6h-6.3Zm7.8 16.4-4-10.9-4 11ZM230.7 258.7a9.3 9.3 0 0 1-2.4-.1v-5.2a7.7 7.7 0 0 0 1.5.1c2.6 0 4-1 4-4v-26.9h5.9v26.6c0 6.4-3 9.5-9 9.5ZM247.8 222.6h16.9v4.9h-11v6.9h9.3v4.8h-9.3v7.5h11v4.9h-17ZM288.2 222.6h5.9v17.6c0 7.6-4.5 12.2-11.8 12.2-7.2 0-11.7-4.6-11.7-12.2v-17.6h6v18.1c0 4 2.1 6.2 5.8 6.2 3.6 0 5.8-2.3 5.8-6.2ZM301.4 222.6h7.5l13 21v-21h5.8v29h-7.5l-13-21v21h-5.8ZM335.8 222.6h16.9v4.9h-11v6.9h9.3v4.8h-9.3v7.5h11v4.9h-16.9ZM361.2 243.6a8.3 8.3 0 0 0 6.4 3.6c2.3 0 3.7-1.3 3.7-3.3 0-5.4-13.2-4-13.2-13.7 0-4.6 3.8-8.4 9.4-8.4a12.8 12.8 0 0 1 10.1 4.9l-4.3 3.8c-1.7-2.1-3.6-3.6-5.8-3.6a3.1 3.1 0 0 0-3.4 3c0 5.3 13.1 3.8 13.1 13.8 0 5.4-4.3 8.7-9.6 8.7a13 13 0 0 1-10.7-4.9ZM385 243.6a8.3 8.3 0 0 0 6.5 3.6c2.3 0 3.7-1.3 3.7-3.3 0-5.4-13.2-4-13.2-13.7 0-4.6 3.9-8.4 9.4-8.4a12.8 12.8 0 0 1 10.1 4.9l-4.3 3.8c-1.7-2.1-3.6-3.6-5.8-3.6a3.1 3.1 0 0 0-3.4 3c0 5.3 13.2 3.8 13.2 13.8-.1 5.4-4.4 8.7-9.7 8.7a13 13 0 0 1-10.7-4.9ZM407.3 222.6h16.9v4.9h-11v6.9h9.3v4.8h-9.3v7.5h11v4.9h-16.9Z"/></g></svg>