<svg fill="none" xmlns="http://www.w3.org/2000/svg"><g clip-path="url(#a)" fill="#00618b"><g opacity=".3" fill-rule="evenodd" clip-rule="evenodd"><path opacity=".3" d="M31 51.6a49.3 49.3 0 0 0 13.3 18.6c6.5 6 26.5 20.7 40 10 9-7.2 3.7-23.3-4-28.4-.6-.4 3.8 2.8 3.7 11.8 0 5.8-3.6 11.7-15 12.6-6.7.5-16-1.3-22.8-6.6a47.3 47.3 0 0 1-15.2-18z"/><path opacity=".3" d="M45 58.5a49.2 49.2 0 0 0 18.7-13.2c6-6.5 20-27.4 9.1-40.9-7.1-8.9-22.5-2.9-27.5 5-.4.5 2.8-4 11.8-3.9 5.8.1 11.6 3.7 12.6 15 .5 6.8-1.3 16.1-6.7 22.8-9.3 12-18 15.2-18 15.2z"/><path opacity=".3" d="M58.7 31A49.3 49.3 0 0 0 36 27c-8.8.4-34.1 4.7-36 22-1.3 11.3 14.5 18.4 23.6 16.5.7-.1-4.7.8-11-5.7-4-4-5.7-10.8 1.7-19.5A34.5 34.5 0 0 1 35.2 29c15-1.8 23.5 2 23.5 2z"/></g><path d="M4.8 55.8a.6.6 0 0 1 .6-.6h10.2c.3 0 .5.3.5.6a.6.6 0 0 1-.5.5H6v6.5h8.6c.3 0 .5.3.5.6s-.2.5-.5.5H6v6.7c0 .3-.2.6-.6.6a.6.6 0 0 1-.6-.6V55.8zM20.6 60c0-.3.3-.5.6-.5s.5.2.5.5v2.8c1-2.2 3-3.4 4.7-3.4.3 0 .6.2.6.6 0 .3-.3.6-.6.6-2.5.2-4.7 2-4.7 5.8v4.2c0 .4-.2.6-.5.6a.5.5 0 0 1-.6-.6V60zm9.3 7.8c0-2.5 2-3.8 5-3.8 1.7 0 2.8.2 3.9.5V64c0-2.4-1.4-3.6-3.8-3.6-1.3 0-2.4.3-3.3.8a.6.6 0 0 1-.3 0 .5.5 0 0 1-.5-.5c0-.2.2-.4.3-.5a9 9 0 0 1 3.8-.8c1.6 0 2.9.4 3.7 1.2.8.8 1.2 1.9 1.2 3.3v6.7c0 .4-.2.6-.6.6-.3 0-.5-.2-.5-.6v-1.4a5.3 5.3 0 0 1-4.4 2.2c-2.2 0-4.5-1.2-4.5-3.6zm8.9-1v-1.3c-1-.3-2.3-.5-4-.5-2.4 0-3.7 1-3.7 2.6 0 1.8 1.6 2.7 3.3 2.7 2.4 0 4.4-1.4 4.4-3.5zM45 60c0-.3.2-.5.5-.5.4 0 .6.2.6.5v1.7c.8-1.3 2-2.4 4.2-2.4 3 0 4.6 2 4.6 4.7v6.6c0 .4-.2.6-.5.6a.5.5 0 0 1-.6-.6v-6.4c0-2.3-1.3-3.9-3.7-3.9a4 4 0 0 0-4 4.1v6.2c0 .4-.2.6-.5.6a.5.5 0 0 1-.6-.6V60zm14.3 5.4a6 6 0 0 1 5.9-6.1c2 0 3.3.9 4.3 1.8l.2.4c0 .4-.3.6-.6.6l-.4-.1a5 5 0 0 0-3.6-1.7c-2.6 0-4.6 2.2-4.6 5s2 5 4.7 5c1.5 0 2.7-.7 3.7-1.6l.3-.2c.3 0 .6.3.6.6 0 0 0 .2-.2.3a6 6 0 0 1-10.3-4zm19.7 6c-3 0-5.6-2.4-5.6-6 0-3.4 2.3-6.1 5.4-6.1 3.3 0 5.4 2.7 5.4 6 0 .2-.3.5-.6.5h-9c.1 2.9 2.2 4.6 4.5 4.6 1.6 0 2.8-.7 3.7-1.6l.4-.2c.3 0 .5.2.5.5a.5.5 0 0 1-.2.4 5.9 5.9 0 0 1-4.5 1.9zm4-6.6c-.2-2.3-1.5-4.5-4.2-4.5-2.3 0-4 2-4.3 4.5H83zM9 35v3.7a6.7 6.7 0 0 0 5 6.6c1.5.4 2.8.3 4-.4a6.2 6.2 0 0 0 3.1-3.4c.5-1 1.2-1.5 2-1.8.8-.3 1.6-.2 2.4.1.8.4 1.4 1 1.8 1.7.3.9.3 1.8-.2 2.7a13.1 13.1 0 0 1-25-5.5v-13c0-3.6 1.4-6.7 4-9.3 2.5-2.5 5.6-3.8 9.2-3.8 3.6 0 6.7 1.3 9.2 3.8 2.6 2.6 3.8 5.7 3.8 9.3v5.9c0 1-.3 1.7-1 2.4a3.2 3.2 0 0 1-2.4 1H9zm0-6h12.5v-3.3a6 6 0 0 0-1.8-4.4 6 6 0 0 0-4.4-1.9c-1.7 0-3.2.7-4.4 1.9S9 24 9 25.7V29zm22.1 14c.2-.8.5-1.5 1.2-2.1.7-.7 1.4-.9 2.2-.5.5.2 1.4.7 2.5 1.7 2.8 2.3 5.3 3.5 7.6 3.5 1.7 0 3.1-.4 4.3-1.3a5 5 0 0 0 2-4c0-1.8-1-3.1-3-4-.6-.4-2.7-1-6.5-2a18 18 0 0 1-6.5-3c-2-1.8-3-4.1-3-7.2 0-3 1.5-5.8 4.4-8.3 2.8-2.3 6-3.3 9.6-3.2a12 12 0 0 1 9 4.3c.5.6.8 1.5.8 2.4 0 1-.4 1.7-1.1 2.4-.7.5-1.5.7-2.2.5-.6-.2-1.3-.5-2.1-1.1-2.2-1.6-4-2.5-5.4-2.6a6 6 0 0 0-4.2 1.4 5.3 5.3 0 0 0-1.9 4.2c0 1.9 1 3.3 3 4.1.5.3 2.7.8 6.5 1.7 3 .7 5.1 1.7 6.5 2.9 2 1.7 3 4.2 3 7.5 0 3.1-1.5 5.9-4.3 8.3-2.5 2-5.3 3.1-8.6 3.2a18.3 18.3 0 0 1-7.4-1.7 14.3 14.3 0 0 1-5.8-4.6c-.6-.8-.7-1.6-.6-2.5zm29 0c.2-.8.6-1.5 1.2-2.1.7-.7 1.5-.9 2.3-.5.5.2 1.3.7 2.5 1.7 2.7 2.3 5.3 3.5 7.5 3.5 1.8 0 3.2-.4 4.4-1.3a5 5 0 0 0 2-4c0-1.8-1-3.1-3-4-.6-.4-2.8-1-6.5-2a18 18 0 0 1-6.5-3c-2-1.8-3-4.1-3-7.2 0-3 1.5-5.8 4.4-8.3 2.8-2.3 6-3.3 9.6-3.2a12 12 0 0 1 8.9 4.3c.6.6.9 1.5.8 2.4 0 1-.3 1.7-1 2.4-.8.5-1.5.7-2.3.5-.5-.2-1.2-.5-2-1.1-2.2-1.6-4-2.5-5.4-2.6a6 6 0 0 0-4.2 1.4 5.3 5.3 0 0 0-2 4.2c0 1.9 1 3.3 3 4.1.6.3 2.7.8 6.5 1.7 3 .7 5.2 1.7 6.5 2.9 2 1.7 3 4.2 3 7.5 0 3.1-1.4 5.9-4.3 8.3-2.4 2-5.3 3.1-8.6 3.2a18.3 18.3 0 0 1-7.3-1.7 14.3 14.3 0 0 1-5.9-4.6c-.5-.8-.7-1.6-.5-2.5z"/></g><defs><clipPath id="a"><path fill="#fff" d="M0 0h89v84H0z"/></clipPath></defs></svg>