<svg xmlns="http://www.w3.org/2000/svg" fill="none" viewBox="0 0 84 72"><g clip-path="url(#a)" fill-rule="evenodd" clip-rule="evenodd"><g fill="#316395"><path d="M60.2 42.8v-3.7h.6c1 0 1 1 1 1.9 0 .8 0 1.8-1 1.8h-.6Zm2.3-1.8c0-1.3-.2-2.3-1.6-2.3h-1.2v4.6h1.2c1.3 0 1.6-1.2 1.6-2.3ZM64.6 37.5l-.5 1h.4l.8-1h-.7ZM65.7 42.8h-2V41h1.9v-.5h-1.8v-1.4h1.9v-.5h-2.5v4.6h2.5v-.5ZM67.5 40.7H67v-1.6h.7c.5 0 .8.3.8.8 0 .8-.6.8-1 .8Zm1.5 1.9v-.8c0-.4-.3-.8-.6-.8.5-.2.6-.7.6-1.2 0-.7-.4-1.1-1.1-1.1h-1.4v4.6h.5v-2h.7c.3 0 .7 0 .7.6v.7l.2.7h.7c-.2-.1-.3-.2-.3-.7Z"/><path d="m71 39.3.5 2.2h-1.2l.6-2.2Zm-1.7 4h.5l.4-1.3h1.4l.3 1.3h.6l-1.2-4.6h-.7l-1.3 4.6ZM74 43.3v-4.1H75v-.5h-2.8v.5h1.1v4h.6ZM75.6 43.3h.4v-4.6h-.4v4.6ZM77.4 41c0-1 0-1.9.9-1.9.8 0 .9.9.9 2 0 1-.1 2-1 2-.7 0-.8-1-.8-2Zm2.4 0c0-1.1-.2-2.3-1.5-2.3s-1.6 1.2-1.6 2.4.3 2.4 1.6 2.4 1.5-1.2 1.5-2.4ZM82.7 42.5l-1.5-3.8h-.7v4.6h.6v-3.8l1.4 3.8h.8v-4.6h-.6v3.8ZM53.8 49.8h.6V46l1.4 3.8h.8V45h-.5V49L54.4 45h-.7v4.7ZM59 45.8l.6 2.2h-1.2l.6-2.2Zm-.8 2.7h1.5l.3 1.3h.6L59.4 45h-.8l-1.3 4.7h.6l.3-1.3ZM62.5 49.8v-4.2h1.1v-.5h-2.8v.5H62v4.2h.5ZM64.3 49.8h.5V45h-.5v4.7ZM67.5 49.5c-.8 0-1-.9-1-2 0-1 .2-1.9 1-1.9s1 .9 1 2c0 1-.2 2-1 2Zm0-4.4c-1.3 0-1.5 1.3-1.5 2.5 0 1.1.2 2.4 1.5 2.4s1.5-1.3 1.5-2.4c0-1.2-.2-2.5-1.5-2.5ZM72.2 49 70.7 45H70v4.7h.5V46l1.5 3.8h.8V45h-.6V49ZM74.7 48l.7-2.2.6 2.2h-1.3Zm.3-2.9-1.3 4.7h.6l.3-1.3h1.5l.3 1.3h.6L75.8 45H75ZM78.2 45.1h-.5v4.7H80v-.6h-1.8v-4ZM81.3 47.6h1.8V47h-1.8v-1.5h2v-.5h-2.6v4.7h2.6v-.6h-2v-1.6ZM5.6 33.2H3.5v-9.6H0v12h5.6v-2.4ZM12.4 33.2H9.8v-2.6H12v-2.3H9.8V26h2.4v-2.4H6.3v12h6.1v-2.4ZM13.2 31.3v.8c0 1 0 1.6.3 2 .2.6.6 1 1.3 1.3.7.3 1.5.5 2.4.5.8 0 1.6-.2 2.2-.4.7-.3 1.1-.6 1.3-1 .2-.5.4-1 .4-2 0-1.1-.2-2-.6-2.5a10 10 0 0 0-3-2l-1-.8-.2-.9.2-.7.5-.2c.2 0 .3 0 .4.2l.1.8v.9h3.3v-.5c0-1-.1-1.6-.3-2-.3-.4-.7-.8-1.3-1a6 6 0 0 0-2.3-.4c-.8 0-1.6.1-2.1.3-.6.3-1 .6-1.3 1a4 4 0 0 0-.4 2c0 .7 0 1.2.3 1.6.2.4.4.8.7 1l1.7 1.1 1.6 1.1c.2.2.4.7.4 1.4l-.2.7c-.1.2-.3.2-.6.2l-.5-.1v-2.4h-3.3ZM32 23.6h-7.4V26h2v9.6H30V26h2v-2.4ZM36.2 25.7c.4 0 .7 0 .8.2.2 0 .3.3.3.7v.7c0 .5-.1.8-.3 1h-.8v-2.6Zm0 4.5c.5 0 .8.1.9.3.1.1.2.5.2 1.1v4h3.2v-3.1l-.1-1.8c0-.2-.2-.5-.5-.7-.2-.3-.6-.5-1.3-.6.7-.1 1.2-.3 1.5-.6.2-.3.4-1 .4-1.9 0-1-.2-1.8-.6-2.2-.3-.5-.8-.8-1.4-1H32.8v12h3.4v-5.5ZM45.5 26.3l.6 5h-1.2c0-1 .3-2.7.6-5Zm-.6 7.2h1.3l.1 2.1h3.5l-2-12H43l-1.7 12h3.5l.2-2.1ZM54.7 23.6l-.2 2.2a165 165 0 0 0-.6 6.2l-1-8.4h-3.5l2 12h5.1l1.8-12h-3.6ZM61.5 31.4l.7-5.1.5 5h-1.2Zm3-7.8h-5l-1.7 12h3.5l.2-2.1h1.3l.2 2.1h3.4l-2-12ZM74.4 34.7l.6-1.1.1-2v-8h-3.5v10c-.1.2-.3.2-.5.2s-.3 0-.4-.2v-10h-3.5v9.8c0 .4.3.8.6 1.2.3.4.7.7 1.3 1 .7.2 1.4.3 2.2.3.7 0 1.3-.1 1.8-.3a3 3 0 0 0 1.3-1ZM79 35.6l.3-2 .4-2.4c.3 1.8.7 3.2 1 4.4H84L82.1 29l1.3-5.3h-3l-.7 3.3-.4-1.6-.3-1.7h-3.4l1.3 5.3-1.3 6.7H79ZM56.2 39.2v-.5h-2.4v4.6h.6V41H56v-.5h-1.7v-1.4h1.8ZM58 37.3l-.4.9h.4l.7-1H58ZM59.2 42.8h-2V41H59v-.5h-1.8v-1.4h2v-.5h-2.6v4.6h2.6v-.5ZM48.3 66.5c-7.8 0-15-3-20.1-8l-.7-.6a10 10 0 0 0-5-2.6h-11a36.4 36.4 0 0 0 61.3 0h-1.5a29.1 29.1 0 0 1-23 11.2Z"/></g><g fill="#EF7B1B"><path d="M4.6 41.8c0 .4 0 .7-.2.9-.1 0-.3.2-.7.2h-.2v-3.1c.4 0 .7 0 .9.2l.2.8v1Zm2.2-3.3L5.7 38l-2.2-.2H0v12h3.5V45h1a5 5 0 0 0 1.8-.3c.4-.1.7-.4 1-.8l.2-1.7v-1l-.1-1.7a2 2 0 0 0-.6-.9ZM14 49.7a3 3 0 0 0 1.2-.9c.4-.4.5-.8.6-1.1l.1-2v-8h-3.5v10c-.1.2-.3.3-.5.3s-.3-.1-.4-.3v-10H8v9.8c0 .4.3.8.6 1.2.3.4.7.7 1.3 1 .7.2 1.4.3 2.2.3.7 0 1.3-.1 1.8-.3ZM20 44.3l1 .2.1 1v1c0 .5 0 .9-.2 1 0 .1-.4.2-.9.2v-3.4Zm0-4.5h.7l.3.3.1.8-.1 1.3c0 .2-.3.3-.6.3H20v-2.7Zm3.3 9.7c.4-.1.8-.4 1-.8.2-.4.3-1 .3-1.8v-1c0-.9-.2-1.5-.5-1.8-.2-.4-.8-.7-1.6-.8.7-.2 1.2-.4 1.4-.7.3-.3.4-.8.4-1.5 0-1-.2-1.7-.5-2.2-.3-.5-.8-.8-1.3-1l-2.5-.2h-3.4v12h4c1.3 0 2.2 0 2.7-.2ZM25 37.7v12h5.7v-2.4h-2.2v-9.6H25ZM30.9 49.8h3.5v-12h-3.5v12ZM43.3 43v-1.2c0-1-.1-2-.3-2.4-.2-.6-.7-1-1.3-1.4-.7-.3-1.5-.5-2.6-.5-.7 0-1.4.1-2 .3-.5.3-1 .6-1.3 1l-.6 1.2-.1 2v3.5c0 1.1.1 2 .3 2.6.2.6.7 1 1.3 1.4.7.3 1.5.5 2.5.5s1.8-.2 2.5-.6c.7-.4 1.1-.8 1.3-1.4.2-.5.3-1.4.3-2.6v-.5h-3.5v1.5l-.1 1.3c0 .2-.2.3-.5.3s-.4-.1-.5-.3l-.1-1.2v-6.7c.2-.2.3-.3.6-.3s.4.1.5.2l.1 1.2v2h3.5ZM43.8 45.4v.8c0 1 .1 1.6.4 2.1.2.5.6.9 1.2 1.2.7.3 1.5.5 2.4.5.9 0 1.6-.2 2.3-.4.6-.3 1-.6 1.3-1 .2-.5.3-1 .3-2 0-1.1-.2-2-.6-2.5a10 10 0 0 0-3-2l-1-.8-.1-.9c0-.3 0-.5.2-.7 0-.1.2-.2.5-.2.1 0 .3 0 .4.2l.1.8v.9h3.2v-.5c0-1 0-1.6-.3-2-.2-.4-.6-.8-1.3-1a6 6 0 0 0-2.3-.4c-.8 0-1.5.1-2 .4-.7.2-1 .5-1.4 1a4 4 0 0 0-.3 2c0 .6 0 1.1.2 1.5l.7 1 1.8 1.1 1.6 1.1c.2.2.3.7.3 1.4 0 .3 0 .5-.2.7 0 .2-.3.3-.5.3l-.5-.2-.1-1v-1.4h-3.3ZM36 6.4c7.7 0 14.8 3 20 8h.1s2.6 3 6.2 3.2h10.5a36.4 36.4 0 0 0-61.3 0h1.4A29.1 29.1 0 0 1 36 6.4Z"/></g></g><defs><clipPath id="a"><path fill="#316395" transform="translate(0 1)" d="M0 0h84v71H0z"/></clipPath></defs></svg>