<svg xmlns="http://www.w3.org/2000/svg" viewBox="0 0 149 51"><g fill="none" fill-rule="nonzero"><path d="M6.7 11.7V27a.3.3 0 0 1-.3.3H.7a.3.3 0 0 1-.2-.3V11.7c0-.2 0-.3.3-.3h5.6c.2 0 .3.1.3.3ZM15.4 12v2c1-1.7 2.6-2.6 4.8-2.6 1.7 0 3.2.6 4.4 1.8a6.8 6.8 0 0 1 1.7 5V27c0 .2-.2.3-.3.3h-3.4a.3.3 0 0 1-.3-.3v-8.3c.1-1-.2-2-.9-2.8-.7-.7-1.6-1-2.5-1-1 0-1.9.3-2.6 1-.6.7-1 1.7-.9 2.8V27a.3.3 0 0 1-.3.3h-3.4a.3.3 0 0 1-.3-.3V12c0-.2.1-.3.3-.3H15c.1 0 .3.1.3.3ZM38.2 12v2.6c0 .2-.1.3-.3.3H36c-.2 0-.3.1-.3.3V27c0 .2-.1.3-.3.3H32a.3.3 0 0 1-.2-.3V15.2c0-.2-.2-.3-.3-.3h-1.1a.3.3 0 0 1-.3-.3V12c0-.2.1-.3.3-.3h1c.2 0 .4-.2.4-.3v-.6c0-1.9.5-3.3 1.5-4.1 1-.9 2.4-1.3 4.4-1.3a.3.3 0 0 1 .3.3v2.7c0 .2-.2.3-.3.3-.5 0-1 .2-1.5.5-.4.4-.5 1-.5 1.6v.6c0 .1.1.3.3.3h1.9a.3.3 0 0 1 .3.3ZM43.3 25.3a7.8 7.8 0 0 1-2.3-5.8c0-2.4.7-4.4 2.3-5.9 3.2-2.9 8.2-2.9 11.5 0a7.7 7.7 0 0 1 2.3 5.9 7.8 7.8 0 0 1-8.1 8c-2.1.1-4.2-.7-5.7-2.2Zm5.7-1.1c1 0 2.1-.5 2.9-1.3.8-.8 1.2-2 1.2-3.4 0-1.5-.4-2.7-1.2-3.5a3.9 3.9 0 0 0-2.9-1.2c-1 0-2 .4-2.8 1.2-.8.8-1.2 2-1.2 3.5s.4 2.6 1.2 3.5c.7.7 1.7 1.2 2.8 1.2ZM62.4 25.3a8.2 8.2 0 0 1-2.1-5.8c0-2.4.7-4.3 2-5.8a7 7 0 0 1 5.4-2.3c2 0 3.9 1 5 2.7V12c0-.2 0-.3.2-.3h3.4c.1 0 .3.1.3.3v15.4c0 2-.7 4-2 5.5A7.2 7.2 0 0 1 69 35c-2.3 0-4.2-.5-5.6-1.4a5.5 5.5 0 0 1-2.4-4 .3.3 0 0 1 .3-.3h3.4l.3.2a3 3 0 0 0 1.3 1.5c.8.4 1.7.6 2.6.6 1 0 2-.4 2.7-1 .7-.7 1-1.8 1-3.2v-1.8a.3.3 0 0 0-.5-.2 5.4 5.4 0 0 1-4.5 2.1c-2 0-3.9-.8-5.2-2.2Zm9-2.4c.8-1 1.3-2.2 1.2-3.4 0-1.3-.4-2.5-1.2-3.4a4 4 0 0 0-5.8 0c-.9 1-1.3 2.1-1.3 3.4 0 1.2.4 2.4 1.3 3.4a4 4 0 0 0 5.8 0ZM85.9 12v2.4c1-1.9 2.4-2.9 4.3-3a.3.3 0 0 1 .3.3v3.5c0 .2-.2.3-.3.3h-.7c-1.2 0-2 .3-2.7.9-.6.6-1 1.6-1 3V27c0 .2 0 .3-.2.3h-3.4a.3.3 0 0 1-.3-.3V12c0-.2.2-.3.3-.3h3.4c.2 0 .3.1.3.3ZM101 27.5c-2 .1-4-.7-5.5-2.2a8 8 0 0 1-2.2-5.8 8 8 0 0 1 2.2-5.9 7.5 7.5 0 0 1 5.6-2.2c2 0 4.1.7 5.6 2.2a7.5 7.5 0 0 1 2.2 5.7v1.2c0 .2-.2.3-.3.3H97.7a.3.3 0 0 0-.3.3 3.5 3.5 0 0 0 3.6 3c1.2.1 2.4-.5 3-1.5l.2-.1h3.8a.3.3 0 0 1 .2.4 6.9 6.9 0 0 1-2.5 3.2c-1.3 1-3 1.5-4.7 1.4Zm2.6-11.8c-.7-.6-1.6-1-2.5-.9-1 0-1.8.3-2.5 1-.6.5-1 1.2-1.2 2a.3.3 0 0 0 .3.4h6.8a.3.3 0 0 0 .3-.3c-.1-.8-.5-1.6-1.2-2.2ZM119.9 12v2.6c0 .2-.2.3-.3.3h-2s-.2.1-.2.3V27c0 .2-.2.3-.3.3h-3.4a.3.3 0 0 1-.3-.3V15.2c0-.2-.1-.3-.3-.3h-1a.3.3 0 0 1-.4-.3V12c0-.2.2-.3.3-.3h1.1c.2 0 .3-.2.3-.3v-.6c0-1.9.5-3.3 1.5-4.1 1-.9 2.4-1.3 4.4-1.3a.3.3 0 0 1 .3.3v2.7c0 .2 0 .3-.3.3-.5 0-1 .2-1.4.5-.4.4-.6 1-.5 1.6v.6c0 .1.1.3.3.3h1.9a.3.3 0 0 1 .3.3ZM130.4 12v2.6c0 .2-.1.3-.3.3h-1.9c-.1 0-.3.1-.3.3V27c0 .2-.1.3-.3.3h-3.3a.3.3 0 0 1-.3-.3V15.2c0-.2-.1-.3-.3-.3h-1.1a.3.3 0 0 1-.3-.3V12c0-.2.1-.3.3-.3h1c.3 0 .4-.2.4-.3v-.6c0-1.9.5-3.3 1.5-4.1 1-.9 2.4-1.3 4.4-1.3a.3.3 0 0 1 .3.3v2.7c0 .2-.1.3-.3.3-.5 0-1 .2-1.5.5-.3.4-.5 1-.5 1.6v.6l.3.3h2a.3.3 0 0 1 .2.3ZM141 27.5c-2.2.1-4.2-.7-5.6-2.2a8 8 0 0 1-2.2-5.8 8 8 0 0 1 2.2-5.9 7.5 7.5 0 0 1 5.6-2.2c2 0 4 .7 5.6 2.2a7.6 7.6 0 0 1 2.2 5.7l-.1 1.2c0 .2-.2.3-.3.3h-10.8a.3.3 0 0 0-.3.3c.1.8.5 1.6 1 2.1.8.7 1.7 1 2.6 1 1.2 0 2.3-.6 3-1.6l.2-.1h3.7a.3.3 0 0 1 .3.4 6.9 6.9 0 0 1-2.5 3.2c-1.4 1-3 1.5-4.7 1.4Zm2.5-11.8c-.7-.6-1.6-1-2.5-.9-1 0-1.8.3-2.5 1-.6.5-1 1.2-1.2 2a.3.3 0 0 0 .3.4h6.7a.3.3 0 0 0 .3-.3c0-.9-.5-1.6-1-2.2Z" fill="#1C246B"/><circle fill="#4696D7" cx="3.6" cy="3.6" r="3.6"/><path d="M.5 32.3v2.1a.3.3 0 0 0 .2.3H61a7.9 7.9 0 0 1-1.7-2.6H.7l-.2.2ZM148.5 32H78c-.4 1-1 1.8-1.6 2.6l-.2.1h72.3a.3.3 0 0 0 .3-.3v-2a.3.3 0 0 0-.3-.3Z" fill="#4696D7"/></g></svg>