<svg xmlns="http://www.w3.org/2000/svg" viewBox="0 0 1000 626"><path d="M297.8 260c-.2-135 .1-126.1-4.6-136-5.3-11.1-20.6-19.2-42.4-22.5-7.5-1-27.7-.9-35.7.4-24.4 4-43.4 12.8-58 27.2-7.3 7.2-9.8 11.5-11 18.6-.4 2.7-.6 28.6-.6 73.1v69H91.7V54.3H145v16.4c0 9 .1 16.4.4 16.4a165.1 165.1 0 0 1 52-26.8c24.4-7.6 56.5-9.3 85.8-4.4 37.1 6.2 59.8 23.2 67 50.4 2.4 8.5 2.9 16.5 3.5 56.3.6 39.6.7 40.7 4.8 48.3 4 7.3 12 13.7 21 16.7 14.4 4.8 54 8.2 80.3 6.7 29.7-1.6 44.8-5.8 53-14.6 7.1-7.7 10.6-17.7 11.8-34.5.8-10.8.4-33-.7-41.7-3-22.6-12.5-34.5-31.3-38.5-3.6-.8-13.2-1-52.2-1.4-43.4-.4-48-.5-51.2-1.6-16.7-5.4-28.3-20.6-32.6-42.8-.7-3.8-.7-4.4 0-4.7 1.8-.6 139.5.3 147.2 1a77.2 77.2 0 0 1 48 21.6 65.4 65.4 0 0 1 13.6 19.7c7 14.9 9.9 29.8 11.1 58.4 1.8 41.5-4.1 75.2-16 92.2a81.5 81.5 0 0 1-30.8 25.8 119.2 119.2 0 0 1-39.3 9c-33.8 2.8-103.8.2-116-4.4a47.4 47.4 0 0 1-19.5-15.4L353 260v120.8h-55zM0 172.4V54.9h53.1v235H0zm607.3-.4V54.3l26.4.2 26.5.1.1 117.6.2 117.6h-53.2zM.4 32.4C.2 32.2 0 24.8 0 16V0h53.2L53 16.3l-.2 16.2-26 .2c-14.2 0-26.1 0-26.4-.3zm606.3-16V0h53.2l-.2 16.3-.2 16.2-26.4.2-26.4.1z" fill="#292e30"/><path d="M0 358.3V336h257.5v44.8H0z" fill="#00889d"/><path d="M523 518.4c-5-1.3-8.4-4-10.4-8.5-1-2.2-1.1-4.9-1.3-18.2l-.2-15.6h12l.2 15.2.2 15.2 2 1.8c2.6 2.3 6.2 2.5 8.6.6 2.4-1.9 3-5.6 3-19.8v-13l5.7-.1 5.7-.2v15.1c0 8.4-.3 16.1-.6 17.3-1 3.5-3.7 6.7-7.1 8.6-2.8 1.5-4.1 1.8-9.3 2-3.4 0-7.2-.1-8.5-.4zm38 0c-1.6-.3-3.2-.7-3.5-.9-.5-.3 0-9 .6-9.6l3.7 1c4.3 1.5 11.2 1.7 13.1.3 3.4-2.4.7-6-5.8-8-8.9-2.5-11.8-5.4-12.3-12-.6-9 5.7-13.8 18.5-13.7 5 0 10.2.6 10.8 1.3l-.1 4.5c-.3 4.3-.3 4.4-2 4-1-.3-4-.6-6.9-.8-4.2-.3-5.5-.2-6.8.7-3.5 2.3-1.2 5 6.3 7.2 8.4 2.5 11.2 5.4 11.6 11.7.2 2.2 0 5-.5 6.3-1 3-5 6.4-9 7.6-3.5 1-12.4 1.2-17.7.4zm-169.4-21.2v-21.1H403v42.3h-11.4zm22.1 0v-21.1h14.6l7 13.7 6.8 13.7v-13.7l.1-13.7H453v42.3H438l-1.4-3-7-14-5.6-11 .3 14 .3 14h-11v-21.2zm48.8 0v-21.1h11c12.6 0 16.8.7 21.4 3.4 4.5 2.7 7 6.7 8 12.5 1.9 10.6-1.8 19.6-9.5 23.3-5.1 2.5-9 3-20.5 3h-10.4zm23.2 10.8c1.1-.6 2.7-2 3.5-3 1.2-1.8 1.4-2.9 1.4-7.8 0-5-.2-6-1.5-7.8-2-2.9-5.8-4.5-10.7-4.5h-4v24.8l4.7-.3c2.5-.2 5.5-.8 6.6-1.4zm118.5-6.4V485H594v-8.8h32.3v8.8h-10.1v33.5h-12zm28.4-4.4v-21.1h12.6c12.1 0 12.6 0 15.7 1.6 2.6 1.3 3.6 2.2 4.7 4.5 2.4 4.9.7 11.8-3.4 13.8-2.7 1.4-2.7 1.4-1.5 2.3.8.6 8 18.5 8 19.9 0 0-2.8.2-6.2.2h-6.1l-2.1-6.7c-2.4-7.6-4-9.7-7.5-9.7h-2.1v16.4h-12zm21-5.3a5 5 0 0 0 1.2-3.2c0-2.5-2.3-4-6.7-4.3l-3.4-.3v9h3.7c3 0 4.1-.3 5.1-1.2zm22.7 5.3v-21.1h11.4v42.3h-11.4zm21.5 0v-21.1h30.4v8.2h-18.4v8.2h17v8.8h-17v8.9h19v8.2h-31zm39.2 0v-21.1h12v33.5l8.6-.2 8.5-.2v9.2h-29v-21.2zm36 0-.2-21.1H785v33.4h17v8.9h-29zm35.5 0v-21.1h30.4v8.2h-18.4v8.2h17.8l-.2 4.3-.2 4.2-8.7.2-8.7.2v8.8h19v8.2h-31zm-107.2-48.5a16 16 0 0 1-9.4-5.4c-4.3-4.8-5.8-10-5.3-18 .5-8.9 3.7-14.3 10.4-17.5 3.8-1.9 4.7-2 10.2-2.1 7.2 0 11.3 1.2 15.1 4.4 8.4 7.2 9.1 25.6 1.3 33.3-3 3-5 4.2-9.5 5.2a25.7 25.7 0 0 1-12.8 0zm11-9.7c2.8-2 4.5-6.2 4.5-11.1 0-5.7-1-8.7-3.6-11.3-1.9-1.8-2.6-2-5.3-2-6 0-9.2 4.3-9.2 12.9 0 4.5.3 5.8 1.6 8.2 2.7 4.8 8 6.2 12 3.3zM391 448.7c-.1-.2-.2-9.9 0-21.6l.1-21.3 11.8.4c17.5.4 22.7 2.5 26.6 10.4 1.6 3.3 1.7 4.2 1.7 10.9 0 6.6-.1 7.5-1.7 10.5-2.9 5.5-8.4 9-16.3 10.3-4 .6-21.6 1-22.2.4zm22.9-10.5c3.7-2 5.3-5.1 5.3-10.4 0-8.3-3.6-12-12.3-12.8l-4.4-.4v25.6l4.5-.4c2.5-.2 5.6-1 6.9-1.6zm26.3 10.3c-.2-.2-.4-9.9-.4-21.5v-21H470v8.8h-18.3v8.2h17v8.2h-17v8.9h18.9l.2 4.1v4.5c-.5.4-30.3.3-30.7-.2zm60.3-21V406h11.4v34h17.8l-.2 4.3-.2 4.3-14.4.2-14.4.2zm32.7 21c-.2-.4 2-6.6 4.7-13.8a5932 5932 0 0 0 8-21l2.9-7.7h14.2l2.9 7.7c1.5 4.3 5 13.2 7.6 20 2.7 6.7 5 12.8 5.2 13.7l.4 1.5h-12.6l-1.4-3.7c-.7-2-1.3-4-1.3-4.4 0-.5-2.2-.7-8-.6l-8 .2-1.6 4.3-1.6 4.2H539c-3.1 0-5.8-.2-6-.5zm25.7-22.5a1564 1564 0 0 1-2.4-7.7l-.8-2.5-2.5 7.7-2.6 7.7h10zm47 22.5c-.2-.2-.4-10-.4-21.5v-21.2l10.6.3c14.5.5 18.8 2 21.3 8.2 1.3 3 1.3 8.1 0 11.1-2.3 5.7-7.4 8.4-15.5 8.4h-4.3l-.2 7.4-.2 7.4-5.4.2c-3 0-5.6 0-5.8-.3zm18.4-24.2c1.9-1.1 2.1-1.6 2.1-4 0-3.7-2-5.5-6-5.5h-2.9v10.8h2.4c1.3 0 3.3-.6 4.5-1.3zm21 3.1v-21.5l12.6.2c11 .2 12.8.4 15.4 1.6 4 1.8 6 5 5.9 9.7-.1 4.4-1.7 7.3-4.9 9.1-2 1.2-2.2 1.4-1.1 2 1 .7 6.6 14.6 7.4 18.6l.4 1.9-6-.2-5.9-.2-2-5.8c-1-3.2-2.3-6.6-2.8-7.5-1-1.8-4-3.4-6.2-3.4-1.3 0-1.3.4-1.3 8.5v8.5h-11.4zm21-5.3c.6-.6 1.2-2 1.2-2.8 0-2.8-2-4-6.7-4.4l-4-.2v9.1l4-.2c2.9-.2 4.5-.7 5.4-1.5zm70.5 26c-.2-.4-.3-10-.2-21.3l.2-20.5h10.1c10.7 0 13.9.6 17.5 3 6 4 6.7 14.9 1.4 20.3-2.7 2.8-6.9 4.2-12.7 4.2h-4.6v15.1h-5.7c-4 0-5.8-.2-6-.8zm18.5-23.8c1.8-1.1 2-1.6 2-4 0-3.7-2-5.5-6-5.5h-2.8v10.8h2.4a10 10 0 0 0 4.4-1.3zm21 3.1v-21.5l12.5.2c11.7.2 12.7.3 15.6 1.7 5.2 2.6 7.3 8.2 5.2 13.7-1 2.7-4.3 6-6 6-.5 0-.2.5.5 1a74.4 74.4 0 0 1 7.8 20c-.3.2-3 .4-6.1.3l-5.6-.2-2.3-6.8a35 35 0 0 0-3.7-8.1 8 8 0 0 0-3.9-1.6l-2.6-.4V449h-11.4zm20.1-5c1.6-1 2-1.7 2-3.1 0-2.9-2.4-4.5-7-4.5h-3.7v8.9h3.3c2.2 0 4-.5 5.4-1.3zm23.2 25.7c-.1-.4-.2-10 0-21.3v-20.5l6-.2 5.8-.2v43h-5.7c-4 0-5.8-.2-6-.8zm21.9.6c-.2-.2-.2-9.8-.1-21.5l.1-21.2h30.4l-.2 4.3-.1 4.2-9.4.2-9.3.2v8.1h17.7v8.2h-17.7v8.9l9.6.1 9.7.2v8.2l-15.2.2-15.5-.1zm46.8-16.8v-17h-10.7v-9l16.2.2 16.3.2.2 4.3.2 4.2h-10.8V449h-11.4zm28.3 16.6c-.3-.2-.4-9.9-.4-21.5v-21h30.3v8.8h-18.3v8.2h17.7v8.2H928v8.9h19v8.8H932c-8.3 0-15.3-.2-15.5-.4zm-65.1-44.1c-.2-.2.6-2.4 1.8-4.8l2.1-4.3h12.2l-4.3 4.7-4.2 4.7h-3.7c-2 0-3.7-.1-4-.3zm74.9-.2 2-4.7 2-4.2h5.8c3.2 0 5.9.1 5.9.3a41 41 0 0 1-3.9 4.7l-3.8 4.2-4.1.2c-2.3 0-4-.2-4-.5zM393.7 379l-2.1-.2v-42.3h4.4V358l-.1 21.4-2.2-.4zm57.5-.3c-1.8-.6-2-1-2-3.2 0-2.1.1-2.4 1-2 7.8 3.3 14.7 2.2 17-2.6 2.2-4.7.4-7.5-7.7-12-6.3-3.4-8.8-5.6-10-8.6-3-7.4 3.2-14.4 12.6-14.4 2.1 0 4.9.2 6.2.4 2.2.4 2.4.6 2.4 2.4 0 1.1-.2 2.2-.3 2.4-.2.2-1.9 0-3.7-.6-7.2-1.9-13.1 1.1-13.1 6.6 0 2 3 5 8 7.6 8.7 4.6 11 7.4 11 13.6 0 7-5.5 11.2-14.4 11.1-2.7 0-5.8-.4-7-.7zM491 360V341l-6.1-.2-6.2-.2-.2-2-.2-2H508l-.2 2-.2 2-6.2.2-6.2.2v37.7l-2.2.3-2.2.2zm80.6 17.9c-3.4-1.6-6-4.4-7.1-8-.5-1.3-.7-7.7-.7-17.8v-15.7h4.4v14.8c0 9.3.3 15.5.7 16.9 3 8.7 15.4 9.9 19.5 1.9 1.2-2.4 1.3-3.7 1.3-18v-15.6h5v15c0 16.5-.3 19.2-3.3 23.1-3.7 4.8-13.2 6.4-19.8 3.4zm44.8 1-2-.2V341l-6.2-.2-6.2-.2-.1-2-.2-2h29.8l-.2 2-.1 2-6.2.2-6.2.2-.1 19-.2 19.2zm130.8-19v-19h-12.6v-4.5h29.8l-.2 2-.2 2.1-6.2.2-6.1.2v37.7l-2.2.3-2.3.2zm26.1 19-2-.2v-42.3h4.4V358c0 11.8 0 21.4-.2 21.4l-2.2-.4zm25.2 0c-8.4-2.8-12.7-10.2-12.7-21.8 0-8.8 3.4-15.7 9.4-19.2 2.7-1.6 3.6-2.1 9.3-2.1 5.6 0 6.6.5 8.8 1.8 3.4 2 5.7 4.7 7.8 9 1.5 3.1 1.7 4 1.7 10.7 0 6-.2 7.8-1.5 11-1.5 3.9-5 7.8-8.4 9.6a25.1 25.1 0 0 1-14.4 1zm9.7-4c1.5-.5 3.7-2 5.2-3.5 3.4-3.3 4.9-7.6 4.8-14.2 0-11.1-7-18.6-16-17.2-8 1.3-13.5 11.8-11.4 22 1.4 6.7 4.6 11 9.3 12.7 3.1 1 4.8 1 8.1.1zm95.7-1.2-2.2-5.4h-21.2l-2 5c-2 5-2.2 5.1-4.4 5.3-2.9.3-3.6 2.5 6.6-22.3l8-19.5h5.5l8.1 20.2a567 567 0 0 1 8.1 20.9c0 .4-1 .8-2.1 1l-2.2.2zm-4.2-10.4-2.5-6.4a2422.5 2422.5 0 0 1-4.2-10.8l-1.8-4.6-4 10-4.3 11c-.3 1 .3 1 8.2 1 4.7 0 8.6 0 8.6-.2zm-492.2-5.7v-21.2l3 .2 3 .2 4.2 7.2a6428 6428 0 0 0 9.1 15.8l6 10.4c1 1.8 1 .8 1.1-16l.2-17.8h5v42.3h-6.6L422.3 361l-10.1-17.6-.2 17.7-.2 17.6h-4.4zm107.6 0v-21.2h5v42.3h-5zm24 2.2v-19h-12v-4.4h29v4.5h-12v37.8h-5zm118.3-2.2v-21.2h6l5 8.7a1027.3 1027.3 0 0 0 12.6 21.6c3.8 7 3.6 7.8 3.6-12.1v-18.2h4.4v42.3h-6l-10.2-17.3-10-17.4-.2 17.4-.2 17.3h-5v-21.1zm39.2 20.7c0-.3 3.8-9.7 8.5-21l8.4-20.5 3-.2c1.7-.2 2.9 0 2.9.4 0 .7 13.7 35.8 15.5 39.7l1 2h-3c-1.5 0-2.7-.3-2.7-.6 0-.4-1-2.8-2-5.4l-2-4.7-10.4.2-10.5.1-2.2 5.2c-2.1 5.1-2.2 5.2-4.3 5.2-1.2 0-2.2-.2-2.2-.4zm27.8-15.3-4.3-11c-2.3-5.8-4.1-10.4-4.2-10.3-.2.2-8.5 21.3-8.5 21.6 0 .2 3.8.3 8.6.3s8.5-.3 8.4-.6zm108.2-5.4v-21.2h6l4.2 7.1 10.5 18 6.2 10.9.2-18 .2-18h4.4v42.3h-6l-8.6-14.6-10.2-17.5-1.8-2.8v35h-5zm85.4 0v-21.2h5.1v38.6h17v3.7h-22z" fill="#292e30"/></svg>