<svg xmlns="http://www.w3.org/2000/svg" width="957.7" height="320.9" viewBox="0 0 253.4 84.9"><path d="M205 73.3c1.3 0 2.2 1 2.2 2.2h-5c.4-1.5 1.3-2.2 2.7-2.2m4 6.1-1.1-.8a3 3 0 0 1-2.5 1.2c-1.9 0-3.2-1.3-3.2-3.2h6.5v-.9c0-2.1-1.4-3.7-3.7-3.7-2.6 0-4.2 2-4.2 4.6 0 2.5 1.7 4.5 4.6 4.5 1.5 0 2.8-.6 3.6-1.7m-13.7 1.4h1.4V75c.5-.9 1.2-1.4 2.3-1.4h.9v-1.4h-.8a3 3 0 0 0-2.4 1.1v-1h-1.4v8.4zM185 76.6c0-1.8 1.2-3.2 3-3.2 1.1 0 2.1.5 2.8 1.6v3.2c-.7 1-1.7 1.6-2.8 1.6-1.8 0-3-1.4-3-3.2m-1.5 0c0 2.4 1.7 4.5 4.3 4.5a4 4 0 0 0 3-1.2v.9h1.4V68.3h-1.4v5a4 4 0 0 0-3-1.2c-2.6 0-4.3 2-4.3 4.5m-9.7 4.2h1.4V75c.6-1 1.3-1.6 2.6-1.6s2.1.9 2.1 2.4v5h1.4v-5.1c0-2.4-1.4-3.7-3.3-3.7-1.2 0-2 .6-2.8 1.3v-1h-1.4zm-6.1-7.5c1.4 0 2.2 1 2.3 2.2h-5c.3-1.5 1.3-2.2 2.7-2.2m4 6.1-1.1-.8a3 3 0 0 1-2.6 1.2c-1.8 0-3.1-1.3-3.1-3.2h6.4l.1-.9c0-2.1-1.5-3.7-3.7-3.7-2.6 0-4.3 2-4.3 4.6 0 2.5 1.8 4.5 4.6 4.5 1.6 0 2.8-.6 3.6-1.7M158 80.8h1.5V75c.5-.9 1.2-1.4 2.3-1.4h.8v-1.4h-.7a3 3 0 0 0-2.4 1.1v-1h-1.5v8.4zm-9.6-2.6V75c.7-1 1.7-1.6 2.9-1.6 1.7 0 3 1.4 3 3.2 0 1.8-1.3 3.2-3 3.2-1.2 0-2.2-.6-2.9-1.6m-1.4 6.7h1.4v-5a4 4 0 0 0 3 1.2c2.7 0 4.3-2 4.3-4.5S154 72 151.3 72a4 4 0 0 0-3 1.3v-1H147V85zm-15.7-4.1h1.4V75c.5-.9 1.2-1.6 2.3-1.6 1.2 0 2 .8 2 2.2v5.2h1.4V75c.6-1 1.3-1.6 2.4-1.6 1.2 0 2 .8 2 2.2v5.2h1.4v-5.3c0-2.3-1.3-3.5-3.1-3.5-1.4 0-2.4.8-3 1.7a2.9 2.9 0 0 0-2.8-1.7c-1.2 0-2 .6-2.6 1.3v-1h-1.4zm-6.9-1c-1.8 0-3-1.5-3-3.2a3 3 0 0 1 3-3.2c1.8 0 3 1.4 3 3.2 0 1.7-1.2 3.2-3 3.2m0-7.8c-2.7 0-4.5 2.1-4.5 4.6 0 2.4 1.8 4.5 4.5 4.5s4.6-2 4.6-4.5-1.9-4.6-4.6-4.6m-9 7.8c-1.8 0-3-1.4-3-3.2 0-1.8 1.2-3.2 3-3.2 1 0 2 .5 2.4 1.2l1.2-.8c-.8-1-2-1.8-3.6-1.8-2.7 0-4.5 2.1-4.5 4.6 0 2.4 1.8 4.5 4.5 4.5 1.6 0 2.8-.6 3.6-1.7l-1.2-.9c-.5.8-1.3 1.3-2.3 1.3m-15 1h1.4V75c.5-.9 1.2-1.4 2.3-1.4h.8v-1.4h-.7a3 3 0 0 0-2.4 1.1v-1h-1.4v8.4zM96 77.2c0 1.6-.9 2.6-2.3 2.6s-2.3-1-2.3-2.6v-4.8h-1.4V77c0 2.6 1.5 4 3.7 4 2.3 0 3.8-1.4 3.8-4v-4.7H96zm-12.6 2.6c-1.8 0-3.1-1.5-3.1-3.2a3 3 0 0 1 3-3.2c1.9 0 3.1 1.4 3.1 3.2 0 1.7-1.3 3.2-3 3.2m0-7.8c-2.8 0-4.6 2.1-4.6 4.6 0 2.4 1.8 4.5 4.5 4.5 2.8 0 4.6-2 4.6-4.5S86.1 72 83.4 72M70 78.2V75c.7-1 1.7-1.6 2.9-1.6 1.7 0 3 1.4 3 3.2 0 1.8-1.3 3.2-3 3.2-1.2 0-2.2-.6-2.9-1.6m-1.4 6.7H70v-5a4 4 0 0 0 3 1.2c2.7 0 4.3-2 4.3-4.5S75.6 72 73 72a4 4 0 0 0-3 1.3v-1h-1.4V85zm-11.1-4.1h1.4V75c.5-.9 1.2-1.4 2.3-1.4h.9v-1.4h-.7a3 3 0 0 0-2.5 1.1v-1h-1.4v8.4zm-6.2-7.5c1.4 0 2.3 1 2.4 2.2h-5c.3-1.5 1.3-2.2 2.6-2.2m4 6.1-1-.8a3 3 0 0 1-2.6 1.2c-1.9 0-3.1-1.3-3.1-3.2h6.4v-.9c0-2.1-1.4-3.7-3.7-3.7-2.6 0-4.2 2-4.2 4.6 0 2.5 1.7 4.5 4.6 4.5 1.5 0 2.8-.6 3.6-1.7m-13.7 1.4h1.4V75c.5-.9 1.2-1.4 2.4-1.4h.8v-1.4h-.7a3 3 0 0 0-2.5 1.1v-1h-1.4v8.4zm-4.2-3.6c0 1.6-1 2.6-2.3 2.6-1.4 0-2.3-1-2.3-2.6v-4.8h-1.5V77c0 2.6 1.5 4 3.8 4 2.2 0 3.7-1.4 3.7-4v-4.7h-1.4zM23 79.6c.8 1 1.9 1.5 3.2 1.5 1.6 0 2.8-1 2.8-2.5 0-3-4.1-2.3-4.1-4.2 0-.7.5-1.2 1.3-1.2s1.4.4 1.9 1l1-.8a3.5 3.5 0 0 0-2.9-1.4c-1.6 0-2.7 1-2.7 2.4 0 3 4.1 2.3 4.1 4.2 0 .8-.5 1.3-1.4 1.3-.9 0-1.6-.4-2.2-1.1zM18 73.3c1.4 0 2.3 1 2.4 2.2h-5c.3-1.5 1.3-2.2 2.6-2.2m4 6.1-1-.8a3 3 0 0 1-2.6 1.2c-1.9 0-3.1-1.3-3.1-3.2h6.4l.1-.9c0-2.1-1.5-3.7-3.8-3.7-2.6 0-4.2 2-4.2 4.6 0 2.5 1.7 4.5 4.6 4.5 1.5 0 2.8-.6 3.6-1.7M0 80.8h1.6v-9.5L5 76.8h1.2l3.4-5.5v9.5H11V69h-2L5.6 75 2 69.1H0zM181.3 36.3c.8-5.3 4.3-8.2 9.7-8.2 5 0 8 3.2 8.3 8.2zm11.4 23.6c6.1 0 11.3-1.7 14.8-4.3v-9.1a21 21 0 0 1-13.6 5.4c-7.7 0-11.6-3.2-12.6-9.2h27.4c.3-1 .5-2.5.5-4.4 0-10.8-7-17.8-18-17.8-12.2 0-19.8 8.2-19.8 19.7 0 13 8.7 19.7 21.3 19.7zm-54.5-23.6c.9-5.3 4.3-8.2 9.8-8.2 5 0 7.9 3.2 8.2 8.2zm11.5 23.6c6 0 11.3-1.7 14.8-4.3v-9.1a21 21 0 0 1-13.6 5.4c-7.8 0-11.7-3.2-12.7-9.2h27.4c.3-1 .5-2.5.5-4.4 0-10.8-6.9-17.8-18-17.8-12.2 0-19.8 8.2-19.8 19.7 0 13 8.8 19.7 21.4 19.7zM105 60c10.4 0 17.6-4 17.6-12.8s-7.8-10.2-16.6-11.5c-6.6-1-9.8-1.3-9.8-3.8s3-3.5 8-3.5a34 34 0 0 1 16.8 5v-8.8c-4.6-2.5-10.4-4-16.7-4-10 0-17.3 3.8-17.3 11.7 0 9 8.4 11 16.5 12.1 6 .9 9.6 1 9.6 4 0 2.8-3 3.6-8.2 3.6A26 26 0 0 1 86.8 45v10c4 2.8 11 5 18.2 5zm-61-.6h9.8V37.9c.1-6 3-9.7 8-9.7 5.6 0 7.4 3.5 7.4 8.7v22.4h9.7V35.5c0-10-5.9-15-14-15A13 13 0 0 0 53.8 26v-4.7H44v38zm-44 0h36.5v-7.6H23.4V14.3h13V6.7H0v7.6h13v37.4H0z"/><path d="M1082.4 136.1h36.8v125h-36.8z" class="st1" style="fill:#c869ff" transform="matrix(.26458 0 0 .26458 -42.7 -36)"/><path d="M1032.4 184h36.8v77h-36.8z" class="st0" style="fill:#7a57ff" transform="matrix(.26458 0 0 .26458 -42.7 -36)"/><path d="M1019.3 161.4h-36.8v137.2h2.7l34.1-37.5z" class="st2" style="fill:#248bff" transform="matrix(.26458 0 0 .26458 -42.7 -36)"/></svg>