<svg id="Marché-Horizontal-Couleur" xmlns="http://www.w3.org/2000/svg" viewBox="0 0 1325 483.3"><defs><style>.cls-1{fill:#fdd}.cls-2{fill:#fe5455}</style></defs><path class="cls-1" d="M213.6 238a49 49 0 1 0 14.4 95.8 49 49 0 0 0-14.3-95.8"/><path class="cls-2" d="M200.1 259.1a37.4 37.4 0 0 1-11.7 40 37.4 37.4 0 0 1-41.5 4.4 37.4 37.4 0 0 1-19.7-36.7 37.4 37.4 0 0 1 72.9-7.7zm106.2 117.6a36.7 36.7 0 1 1-70.3 21.5 36.7 36.7 0 0 1 70.3-21.5zm-227-54.3a25.3 25.3 0 1 0 0 50.6 25.3 25.3 0 0 0 0-50.7"/><path class="cls-1" d="M313.2 277c-1.8 0-3.7.3-5.5.8a18.8 18.8 0 0 0 11 35.9 18.8 18.8 0 0 0-5.5-36.7M112 132a42 42 0 1 0-.3 84 42 42 0 0 0 .3-84m167-72.8a75.7 75.7 0 0 0-23 3.5A77.8 77.8 0 0 0 279 215a77.9 77.9 0 0 0 0-155.7"/><path class="cls-2" d="M355 103a32.2 32.2 0 1 0 .2 64.4 32.2 32.2 0 0 0-.1-64.3"/><path d="M480 422h3.6v-17.8h6.8c7.4 0 12-4.2 12-10.4s-4.6-10.5-12-10.5H480V422zm10.5-35.6c5 0 8.1 2.7 8.1 7.3s-3 7.4-8.1 7.4h-7v-14.7h7zm19.3 35.6h3.2v-41.5h-3.2V422zm21.5.8c4 0 7.7-1.7 10-4.9v4h3.3v-19c0-6.1-4.2-9.9-10.6-9.9-4.9 0-8.7 2-11 5.3l2.4 2a10 10 0 0 1 8.4-4.3c4.4 0 7.6 2.4 7.6 7v2.5l-10 1.7c-5.9 1-9 3.8-9 8 0 4.6 3.5 7.6 9 7.6zm-5.6-7.6c0-2.8 2-4.8 6.4-5.6l9.3-1.6v6.4a10.8 10.8 0 0 1-9.7 5.5c-3.7 0-6-2-6-4.7zm30.7-2c0 6.8 3.7 9.3 9.4 9.3 1.8 0 3.1-.2 4.4-.6v-3c-1 .4-2.3.6-4 .6-3.8 0-6.4-1.2-6.4-6.3V397h10.4v-2.9h-10.4v-7h-3.4v7h-5.2v3h5.2v16zm45.2 4.2-2.5-2c-2 2.9-5.3 4.7-9.2 4.7-6.9 0-11.7-5.2-11.7-12.2v-.7h22.5c.2-.7.2-1.5.2-2.3 0-6.6-4.7-12-12.2-12-8.3 0-13.9 6.5-13.9 15.1 0 8.2 6 15 15 15 5.2 0 9.2-2.1 11.8-5.6zm-13-21.5c5.5 0 8.8 3.8 9 8.7h-19c1-5.5 4.8-8.7 10-8.7zM606 394v3h5.2V422h3.3v-25H625v-2.9h-10.5v-3.8c0-4.3 2.5-6.8 6.1-6.8 1.8 0 3.2.5 4.4 1.4l1.4-2.8c-1.3-.8-3.3-1.6-5.9-1.6-5.5 0-9.3 4-9.3 9.9v3.7H606zm35.7-1.1c-8.9 0-15 7-15 15s6.1 15 15 15 15-7 15-15-6-15-15-15zm0 27c-6.7 0-11.5-5.6-11.5-12s4.8-12 11.6-12 11.4 5.6 11.4 12-4.8 12-11.4 12zm23.3 2h3.3v-20c2-3.5 4.5-5.4 8.4-5.4 1 0 1.7.2 2.5.4V394c-.7-.2-1.5-.3-2.3-.3-3.8 0-6.4 1.6-8.6 4.5v-4h-3.3V422zm21.6 0h3.3v-20c1.8-3.6 4.7-6 9-6 4.5 0 7.5 3 7.5 8.4V422h3.3v-17.7c0-.7 0-1.5-.2-2.2 2.3-4 5.2-6 9-6 4.6 0 7.7 3 7.7 8.3V422h3.2v-17.7c0-7.3-4.3-11.3-10.4-11.3-4.8 0-8 2.3-10.3 6-1.6-4-5.1-6-9.4-6s-7.2 1.9-9.4 4.8V394h-3.3V422zm77.3-4.6-2.4-2c-2 2.9-5.4 4.7-9.3 4.7-6.8 0-11.7-5.2-11.7-12.2v-.7H763l.2-2.3c0-6.6-4.8-12-12.2-12-8.4 0-14 6.5-14 15.1 0 8.2 6 15 15.1 15 5.1 0 9.2-2.1 11.7-5.6zM751 395.9c5.4 0 8.8 3.8 9 8.7h-19.1c1-5.5 4.9-8.7 10-8.7zm33.3 12.1c0 8.2 5.7 15 14.4 15 4.4 0 8.1-1.7 10.7-5v4h3.3v-41.5h-3.3V398c-2.6-3.3-6.3-5.1-10.7-5.1-8.7 0-14.4 6.9-14.4 15zm3.5 0c0-6.5 4.6-12 11.2-12 4.3 0 8 2 10.4 5.9v12.3c-2.3 3.7-6 5.8-10.4 5.8-6.6 0-11.2-5.4-11.2-12zm59.9 9.4-2.5-2c-2 2.9-5.3 4.7-9.2 4.7-6.9 0-11.7-5.1-11.7-12.2v-.7h22.5c.2-.6.2-1.5.2-2.3 0-6.6-4.7-12-12.2-12-8.3 0-13.9 6.5-13.9 15.1 0 8.2 6 15 15 15 5.2 0 9.2-2.1 11.8-5.6zm-13-21.5c5.5 0 8.8 3.8 9 8.7h-19c1-5.5 4.8-8.7 10-8.7zm36 26h3.2v-41.4h-3.2V422zm15.2-24.5 5.2-14.1h-3.7l-4.5 14.1h3zm15.8-12.1c1.4 0 2.5-1 2.5-2.5 0-1.3-1.1-2.4-2.5-2.4s-2.6 1-2.6 2.4 1.2 2.5 2.6 2.5zm-1.7 36.7h3.3v-28h-3.3v28zm14.2 0h3.3v-20c2.2-3.7 5-6 9.5-6 4.9 0 8.1 3.2 8.1 9v17h3.3v-17.1c0-7.7-4.6-12-11-12-4.3 0-7.5 2-9.9 5v-3.8h-3.3V422zm47-2c-6.9 0-11.7-5.4-11.7-12s4.8-12 11.7-12c3.8 0 7 2 9 4.7l2.6-2a14.2 14.2 0 0 0-11.6-5.7c-9 0-15 6.9-15 15s6 15 15 15c5 0 9-2.2 11.6-5.6l-2.6-2c-2 2.8-5.1 4.6-9 4.6zm19 2h3.2v-41.5h-3.2V422zm34.2-11.9c0 6.3-3.5 9.9-8.7 9.9s-8.7-3.6-8.7-9.9v-16h-3.3v16c0 8.3 4.8 13 12 13s12-4.7 12-13v-16h-3.3v16zm10.1 8.2c2.5 3.1 6 4.8 10 4.8 5.1 0 9-3.3 9-8.1 0-9.5-14.4-7.2-14.4-14.5 0-2.5 2-4.7 5.5-4.7 2.5 0 4.8 1.3 6.3 3.6l2.4-2a10.9 10.9 0 0 0-8.8-4.4c-5.2 0-8.6 3.5-8.6 7.5 0 9.9 14.4 7.5 14.4 14.6 0 2.8-2.1 5.2-5.8 5.2-3 0-5.4-1.3-7.5-4l-2.4 2zm29-33c1.4 0 2.6-1 2.6-2.5 0-1.3-1.2-2.4-2.5-2.4s-2.6 1-2.6 2.4 1.2 2.5 2.6 2.5zm-1.6 36.7h3.3v-28h-3.3v28zm26.6-29c-9 0-15 7-15 15s6 15 15 15 15-7 15-15-6-15-15-15zm0 27c-6.8 0-11.6-5.6-11.6-12s4.8-12 11.6-12 11.5 5.6 11.5 12-4.9 12-11.5 12zm23.2 2h3.3v-20c2.1-3.7 5-6 9.5-6 4.9 0 8.1 3.2 8.1 9v17h3.3v-17.1c0-7.7-4.6-12-11-12-4.3 0-7.5 2-10 5v-3.8h-3.2V422zM480 78h18v72h33.5v16.3H480V78zm96.3 90.9c-22.6 0-35.4-15.8-35.4-34.3s11.9-34.4 32.7-34.4c17.7 0 29.3 12 29.3 28.7 0 3.5-.5 6.8-1 9h-44.6c1.5 11.8 8.9 16.6 18.8 16.6 7 0 13-3 16.4-7.6l11.5 9c-6 8-15.8 13-27.7 13zm-18.5-42.7h29.3c-.3-6.4-5-12.8-13.9-12.8-8.2 0-13.6 4.5-15.4 12.8zm94.8-23.4h16v4.8c4.3-4.2 9.7-7.4 17.5-7.4s15.2 3.6 19.3 10.4a25.6 25.6 0 0 1 21.3-10.4c13.2 0 23.5 9.1 23.5 27v39.1h-16.1V128c0-7.7-4.2-12.5-11.4-12.5s-10.7 4.8-13.2 9l.1 2.8v39.1h-16.1V128c0-7.7-4.2-12.5-11.4-12.5s-11 5.4-13.5 9.4v41.5h-16v-63.5zM765 149.2c0-9.6 7.4-16.8 21-19l19.4-3.3v-1.7c0-6.7-5-11-12.3-11-6.2 0-11 3-14.4 7.6l-11.7-9c5.6-7.8 15-12.6 26.6-12.6 18.4 0 27.8 11 27.8 25v41.1h-16v-6.2c-4 5-11.6 8.1-19 8.1-12.8 0-21.5-7.3-21.5-19zm24.7 6.3c7.3 0 12.6-3.4 15.7-8.5v-9l-15.1 2.6c-6.7 1.1-9.5 4-9.5 7.8 0 4.3 3.5 7 8.9 7zm50-52.7h16v6.3c4.2-4.3 9.7-7.6 16.8-7.6 2.2 0 4 .4 5.6.9v15.8c-2-.5-4.2-1-7-1-7.9 0-13 4.4-15.3 8.4v40.7h-16v-63.5zm93.5 43.6 12.5 9.6a32.9 32.9 0 0 1-26.9 12.9c-22 0-35-15.8-35-34.3s13-34.3 35-34.3c11.6 0 21 5 26.9 12.8l-12.5 9.6c-3-4.4-8-7.3-14.6-7.3-10.5 0-18.2 8-18.2 19.2s7.7 19.1 18.4 19.1a17 17 0 0 0 14.4-7.3zm24.5-74.7h16v36.1a25.8 25.8 0 0 1 18.8-7.6c13.7 0 24.7 9.5 24.7 28.3v37.8h-16.1v-37.2c0-8.4-4.7-13.7-12.6-13.7s-12.4 5.4-14.8 9.4v41.5h-16V71.7zm108.5 97.2c-22.6 0-35.4-15.8-35.4-34.3s11.9-34.4 32.7-34.4c17.7 0 29.3 12 29.3 28.7 0 3.5-.5 6.8-1 9h-44.6c1.5 11.8 8.9 16.6 18.8 16.6 7 0 13-3 16.4-7.6l11.5 9c-6 8-15.8 13-27.7 13zm-18.5-42.7h29.3c-.3-6.4-5-12.8-13.9-12.8-8.2 0-13.6 4.5-15.4 12.8zm9.2-33.5 13.2-21h17.4l-15.2 21H1057zM504.4 251.6c8.6 0 14.7 2.6 19.7 7.6V223h16v94.6h-16v-5c-5 4.9-11.2 7.5-19.7 7.5-20 0-32.3-15.7-32.3-34.3s12.2-34.3 32.3-34.3zm2.2 53.5c7.2 0 13.2-3 17.4-8.9v-20.6a20.8 20.8 0 0 0-17.4-8.9c-10.8 0-17.7 8.1-17.7 19.2s6.9 19.2 17.7 19.2zm83.5 15.1c-22.5 0-35.3-15.8-35.3-34.3s11.9-34.3 32.7-34.3c17.6 0 29.2 12 29.2 28.6 0 3.6-.5 6.8-1 9h-44.5c1.5 11.8 8.8 16.6 18.8 16.6 7 0 13-3 16.4-7.5l11.5 9c-6 8-15.8 13-27.8 13zm-18.4-42.6H601c-.3-6.4-5-12.9-13.9-12.9-8.2 0-13.6 4.6-15.4 12.9zm94.7-54.5h16v94.6h-16v-94.6zm29 42.6 11.3-36.3h18.1l-14.6 36.3h-14.9zm40-33.1c0-5.7 4.7-10.5 10.4-10.5a10.5 10.5 0 0 1 0 21c-5.7 0-10.5-4.9-10.5-10.5zm2.3 21.5h16v63.6h-16v-63.6zm35.2 0h16v5a25.8 25.8 0 0 1 18.8-7.5c13.7 0 24.7 9.5 24.7 28.2v37.9h-16.1v-37.2c0-8.5-4.8-13.8-12.6-13.8s-12.4 5.4-14.8 9.5v41.5h-16V254zm122.6 43.7 12.5 9.6a32.9 32.9 0 0 1-26.9 12.8c-22 0-35-15.7-35-34.3s13-34.3 35-34.3c11.6 0 21 5 26.9 12.9l-12.5 9.6c-3-4.5-8-7.4-14.6-7.4-10.5 0-18.2 8.1-18.2 19.2s7.7 19.2 18.4 19.2a17 17 0 0 0 14.4-7.3zM920 223h16v94.6h-16v-94.6zm77 31h16.2v35.3c0 19.1-11.1 30.8-29.8 30.8s-29.6-11.7-29.6-30.8v-35.3h16.1v36.1c0 9.2 4.8 14.9 13.6 14.9s13.5-5.7 13.5-14.9v-36zm38.5 44.8c4 5 8.6 8.4 14.6 8.4 5.2 0 7.9-3 7.9-6.8 0-11-30.4-6.9-30.4-29.2 0-11.3 9.4-19.7 22.7-19.7 9.7 0 18.5 4.7 23 10.8l-10.6 9.4c-3.2-4-7.4-7.3-12.3-7.3s-7.5 2.7-7.5 6c0 10.9 30.4 7 30.4 29-.2 13.4-11 20.7-23 20.7a31.6 31.6 0 0 1-25.4-11.7l10.6-9.6zm50.2-66.3c0-5.7 4.8-10.5 10.5-10.5a10.5 10.5 0 0 1 0 21c-5.7 0-10.5-4.9-10.5-10.5zm2.4 21.5h16v63.6h-16v-63.6zm100.3 31.8c0 19-14.2 34.3-34.8 34.3s-34.9-15.2-34.9-34.3 14.2-34.3 34.9-34.3 34.8 15.3 34.8 34.3zm-16.7 0c0-11-7.7-19.2-17.9-19.2s-18.4 8.1-18.4 19.2 7.8 19.2 18.4 19.2 18-8.2 18-19.2zm31.3-31.8h16v5a25.8 25.8 0 0 1 18.8-7.5c13.8 0 24.7 9.5 24.7 28.2v37.9h-16.1v-37.2c0-8.5-4.8-13.8-12.6-13.8s-12.4 5.4-14.8 9.5v41.5h-16V254z"/></svg>