<svg xmlns="http://www.w3.org/2000/svg" xml:space="preserve" viewBox="0 0 71.7 65.9"><path fill="#1D508E" d="M1.4 1.2h65.1v63.5H1.4z"/><path fill="#FFF" d="M55.7 49.1v5H42a2.7 2.7 0 0 1-2.7-2.6c0-1.5 1.2-2.6 2.7-2.6h11.7c.7 0 1.3 0 1.9-.2v.4m5.4 5V41.7c0-4-3.2-7.3-7.3-7.3h-17V21c0-5 4-9.2 9.3-9.2 5.3 0 9.6 4.2 9.6 9.2v13.2H61V21.2c0-8-6.7-14.6-14.9-14.6-5.3 0-9.3 2.1-12.2 6.2a15 15 0 0 0-12.2-6.2c-3.6 0-7 1.3-9.6 3.3V6.6H6.8v27.7h5.4V21c.1-5 4.3-9 9.5-9 5.3 0 9.5 4.1 9.5 9.2v13.3h-17a7.4 7.4 0 0 0-7.4 7.3c0 4 3.4 7.2 7.5 7.2H26c1.5 0 2.6 1.2 2.6 2.7 0 1.5-1.1 2.5-2.6 2.5H6.8v5.3h19.5c4.5 0 7.7-3.6 7.7-8 0-4.3-3.6-7.8-8-7.8H14.3c-1.2 0-2.2-.9-2.2-2 0-1 1-2 2.2-2h39.3a2 2 0 0 1 2 2c0 1.1-1 2-2 2H42a8 8 0 0 0-8.1 7.8 8 8 0 0 0 8 8h24.3c-5.4 0-5.2-5.3-5.2-5.3z"/></svg>