<svg id="Calque_4" xmlns="http://www.w3.org/2000/svg" viewBox="0 0 715.1 181.1"><defs><style>.cls-1{fill:#00304a}</style></defs><path class="cls-1" d="M188.7 0h33.8c22 0 43.6 7.7 43.6 35v1.4c0 27.1-21.7 35.1-43.3 35.1-3.5 0-8.2-.3-11.8-.4v35.3a3 3 0 0 1-2.9 2.9h-18.7c-1.6 0-3-1.2-3-2.8V2.2s0-2.2 2.3-2.2Zm52.7 35c0-10.3-6.4-14.3-18.6-14.3L211 21v29.6c1.6.2 10.2.3 11.8.3 13 0 18.6-4.8 18.6-14.6V35ZM352 109.3h-22.2c-1.6 0-2.2-1.5-3-3l-19.4-36.7-1.6.2-10.3-.3v36.9a3 3 0 0 1-3 2.9h-18.8a3 3 0 0 1-3-3V9c0-5 2-6.2 6.6-7 6.7-1 19-1.8 29.5-1.8 24.7 0 43.7 8.2 43.7 34v1.8c0 15.4-8.1 24.9-18.7 29.1l22 41c.2.5.4 1.1.4 1.6 0 1-.6 1.7-2.2 1.7ZM325.9 34c0-8.8-6.8-12.9-19-12.9-2 0-9.6.3-11.3.5v27.8c1.6.2 8.7.3 10.3.3 15.2 0 20-3.9 20-13.8V34Zm71 76.6c-23.9 0-43-13-43-46.6V46.7C354 13 373 0 397 0s43 13 43 46.7V64c0 33.7-19 46.6-43 46.6Zm18-64c0-17.4-5.7-24.8-18-24.8s-17.8 7.4-17.8 24.9V64c0 17.4 5.7 24.8 17.9 24.8s18-7.4 18-24.8V46.7Zm92 64c-9.6 0-21-.7-26.6-1.7-5.8-1-8-3-8-9.5V11.1c0-6.6 2-8.6 7.7-9.5C485 1 496.7 0 506 0c27.5 0 45.9 7.3 45.9 30.4V33a23 23 0 0 1-12.2 21.4c7.7 3.7 13 11.4 13 21.5V78c0 25.6-20.7 32.6-45.8 32.6Zm21-78.6c0-8-5-11.6-20-11.6l-11 .1v25.2H513c11.5 0 14.8-5.3 14.8-11.5V32Zm.6 43.9c0-7-3.8-13-15.4-13H497v27.2l11.9.2c15 0 19.7-4.7 19.7-12.8v-1.6Zm100.4-54h-23.6v84.5a3 3 0 0 1-2.9 2.9h-19a3 3 0 0 1-3-3V21.9h-23.6c-1.6 0-3-1.1-3-2.7V4c0-1.6 1.4-2.8 3-2.8h72c1.7 0 3.1 1.2 3.1 2.8v15c0 1.6-1.4 2.7-3 2.7Zm43 49.6c-3.5 0-8.2-.3-11.8-.4v35.3a3 3 0 0 1-3 2.9h-18.7c-1.6 0-2.9-1.2-2.9-2.8V9c0-5 2-6.2 6.6-7C649.5.8 661 .1 671.6.1 693.5 0 715 7.8 715 35v1.3c0 27.1-21.6 35.1-43.3 35.1Zm18.6-36.4c0-10.4-6.4-14.4-18.6-14.4L660 21v29.7l11.8.2c12.9 0 18.6-4.7 18.6-14.6V35Z"/><path class="cls-1" d="M125.3 0h42.6L44.6 123.3c-.6.6-.6 1.6 0 2.2L91 172c.6.6 1.6.6 2.2 0l1.3-1.2 44.8-44.8c4.5-4.6 12-4.6 16.6 0l46 45.9v.1c.7.6 1.6.6 2.2 0l.4-.3 1-1 44.7-44.7c4.6-4.6 12-4.6 16.6 0l46 46c.7.6 1.7.6 2.3 0l.3-.3 1-1 32-32v12l-27.7 27.8c-3.2 3.1-8.2 2.7-8.2 2.7h-34.4c-3.4 0-6.4-2.7-6.4-2.7l-29.9-29.9c-.6-.6-1.5-.6-2.1 0l-30 29.9c-3 3.1-8.1 2.7-8.1 2.7h-34.4c-3.5 0-6.4-2.7-6.4-2.7l-29.9-29.9c-.6-.6-1.6-.6-2.2 0l-29.9 29.9c-3.1 3.1-8.1 2.7-8.1 2.7H56c-3.2 0-5.5-2.6-5.5-2.6L1.8 129.7a6.4 6.4 0 0 1 0-9L121.3 1.3S123 0 125.3 0Z"/></svg>