<svg id="Calque_4" xmlns="http://www.w3.org/2000/svg" viewBox="0 0 715.15 181.1"><defs><style>.cls-1{fill:#00304a}</style></defs><path class="cls-1" d="m188.72 0 33.78.04c21.94 0 43.58 7.7 43.58 35.01v1.31c0 27.17-21.65 35.16-43.29 35.16-3.49 0-8.14-.29-11.77-.44v35.3c0 1.6-1.31 2.91-2.91 2.91h-18.74c-1.6 0-2.91-1.16-2.91-2.76V2.17s0-2.16 2.25-2.16Zm52.67 35.05c0-10.31-6.39-14.38-18.6-14.38-2.03 0-10.02.29-11.77.44v29.64c1.6.15 10.17.29 11.77.29 12.93 0 18.6-4.79 18.6-14.67v-1.31ZM352.09 109.29h-22.23c-1.6 0-2.18-1.45-2.91-2.91l-19.47-36.76-1.6.15c-3.05 0-7.55-.29-10.31-.29v36.9c0 1.6-1.31 2.91-2.91 2.91h-18.89a2.92 2.92 0 0 1-2.91-2.91V8.91c0-4.94 2.03-6.25 6.54-6.97C284.08.92 296.43.05 306.89.05c24.7 0 43.73 8.28 43.73 34v1.89c0 15.4-8.14 24.84-18.74 29.06l21.94 40.97c.29.58.44 1.16.44 1.6 0 1.02-.58 1.74-2.18 1.74Zm-26.15-75.25c0-8.86-6.83-12.93-19.03-12.93-2.03 0-9.59.29-11.33.44v27.89c1.6.15 8.72.29 10.31.29 15.25 0 20.05-3.92 20.05-13.8v-1.89ZM396.98 110.6c-23.97 0-43-12.93-43-46.63V46.68c0-33.71 19.03-46.64 43-46.64s43 12.93 43 46.63v17.29c0 33.71-19.03 46.63-43 46.63Zm18.01-63.92c0-17.43-5.81-24.84-18.01-24.84s-17.87 7.41-17.87 24.84v17.29c0 17.43 5.67 24.84 17.87 24.84s18.01-7.41 18.01-24.84V46.68ZM506.87 110.6c-9.59 0-20.92-.73-26.59-1.74-5.81-1.02-7.99-2.91-7.99-9.44V11.08c0-6.54 2.03-8.57 7.7-9.44 4.94-.73 16.71-1.6 26-1.6 27.46 0 45.91 7.26 45.91 30.36v2.61c0 9.44-4.5 17.58-12.2 21.36 7.7 3.78 12.93 11.48 12.93 21.5v2.18c0 25.57-20.63 32.54-45.76 32.54ZM527.94 32c0-7.99-5.08-11.62-20.05-11.62-2.32 0-9.01 0-11.04.15v25.13h16.27c11.48 0 14.82-5.23 14.82-11.48V32Zm.58 43.87c0-6.97-3.78-12.93-15.4-12.93h-16.27v27.17c2.32 0 9.88.15 11.91.15 14.96 0 19.76-4.65 19.76-12.78v-1.6ZM628.86 21.84h-23.54v84.55c0 1.6-1.31 2.91-2.91 2.91h-19.03a2.92 2.92 0 0 1-2.91-2.91V21.84h-23.68c-1.6 0-2.91-1.16-2.91-2.76V4.11c0-1.6 1.31-2.76 2.91-2.76h72.06c1.6 0 3.05 1.16 3.05 2.76v14.96c0 1.6-1.45 2.76-3.05 2.76ZM671.86 71.52c-3.49 0-8.14-.29-11.77-.44v35.3c0 1.6-1.31 2.91-2.91 2.91h-18.74c-1.6 0-2.91-1.16-2.91-2.76V8.91c0-4.94 2.03-6.25 6.54-6.97C649.48.78 661.1.05 671.56.05c21.94 0 43.58 7.7 43.58 35.01v1.31c0 27.17-21.65 35.16-43.29 35.16Zm18.6-36.46c0-10.31-6.39-14.38-18.6-14.38-2.03 0-10.02.29-11.77.44v29.64c1.6.15 10.17.29 11.77.29 12.93 0 18.6-4.79 18.6-14.67v-1.31Z"/><path class="cls-1" d="M125.3 0h42.63L44.6 123.33c-.6.6-.6 1.58 0 2.18l46.41 46.41c.6.6 1.58.6 2.18 0l1.3-1.26 44.79-44.79c4.57-4.57 12.05-4.57 16.62 0l45.93 45.93.13.13c.6.6 1.58.6 2.18 0l.33-.32.94-.94 44.79-44.79c4.57-4.57 12.05-4.57 16.62 0l45.93 45.93.13.13c.6.6 1.58.6 2.18 0l.33-.32.92-.94 32.14-32.14v12.08l-27.77 27.77c-3.14 3.14-8.18 2.71-8.18 2.71h-34.38c-3.46 0-6.4-2.7-6.4-2.7l-29.89-29.89c-.6-.6-1.58-.6-2.18 0l-29.88 29.88c-3.14 3.14-8.18 2.71-8.18 2.71h-34.4c-3.46 0-6.4-2.7-6.4-2.7l-29.89-29.89c-.6-.6-1.58-.6-2.18 0l-29.88 29.88c-3.14 3.14-8.18 2.71-8.18 2.71H56.08c-3.2 0-5.45-2.62-5.45-2.62l-48.78-48.8c-2.47-2.47-2.47-6.51 0-8.98L121.21 1.35S122.97 0 125.3 0Z"/></svg>