<svg version="1.1" id="layer" xmlns="http://www.w3.org/2000/svg" x="0" y="0" viewBox="0 0 652 652" style="enable-background:new 0 0 652 652" xml:space="preserve"><style>.st1{fill:#fff}</style><path d="M564.2 552.4a24.3 24.3 0 0 1-24.3 24.3H112.8a24.3 24.3 0 0 1-24.3-24.3V101a24.3 24.3 0 0 1 24.3-24.3h427.1a24.3 24.3 0 0 1 24.3 24.3v451.4z" style="fill:#008bd0"/><path class="st1" d="M148.1 352.1 319 416.4V135.7z"/><path style="fill:#82d0f5" d="m506.5 356.4-187.5 60V135.7z"/><path class="st1" d="m177 504.1-6.3 6.6-6.9-6.5a28 28 0 0 1-14.8 3.9c-3.7 0-7.3-.6-10.6-1.9a24.5 24.5 0 0 1-11.7-8.7 33.5 33.5 0 0 1-5.6-20.1c0-8.3 1.8-15 5.5-20.1 2.8-3.9 6.8-6.8 11.8-8.7 3.4-1.2 6.9-1.9 10.6-1.9 3.6 0 7.2.6 10.5 1.9 4.9 1.8 8.8 4.7 11.7 8.7a34.2 34.2 0 0 1 5.5 20.1c0 4.6-.5 8.7-1.5 12-1 3.4-2.5 6.3-4.4 8.7l6.2 6zm-27.4-13.4 6.3-6.6 6.1 5.7a30.2 30.2 0 0 0 2.6-12.5c0-7.3-1.8-12.8-5.3-16.3a14 14 0 0 0-10.3-4c-4.1 0-7.5 1.4-10.3 4-3.6 3.5-5.5 8.9-5.5 16.3 0 7.3 1.8 12.8 5.4 16.3 2.8 2.7 6.2 4 10.4 4 1.1 0 2.2-.1 3.3-.4 1.1-.2 2.2-.6 3.2-1.2l-5.9-5.3zm71.2-42.3v38.2c0 3.6-.9 6.4-2.8 8.2-1.9 1.9-4.8 2.8-8.8 2.8-3 0-5.5-1-7.4-3-1.9-2-2.9-4.9-2.9-8.7v-37.7h-12.3v38.5a21 21 0 0 0 4.5 14.1c2.4 2.6 5.5 4.5 9.2 5.7 2.7.9 5.8 1.3 9.2 1.3 7.6 0 13.3-1.7 17.3-5.2 4.2-3.7 6.4-9.2 6.4-16.7v-37.8h-12.4zm36.9 46.1-3.9 12H241l20.7-58.1h14l20.2 58.1h-13.1l-3.8-12h-21.3zm3.3-10h14.7l-7.2-22.9-7.5 22.9zm43.2-36.1v58.1H345V496h-28.7v-47.5h-12.1zm60.9 0H353v58.1h12.1v-58.1zm11.8 58.1v-58.1H405c6.3 0 11.1 1.7 14.2 5.2a14 14 0 0 1 3.6 9.7c0 3.6-.9 6.5-2.6 8.6-1 1.2-2.5 2.3-4.5 3.3a13 13 0 0 1 7.1 5.8c1.2 2.3 1.9 5 1.9 8.3a16 16 0 0 1-4.9 12 16 16 0 0 1-5.9 3.8c-2.8 1-7 1.5-12.4 1.5h-24.6zm11.5-48 .1 12.6h14.2a11 11 0 0 0 6-1.4c1.7-1.1 2.5-2.8 2.5-5s-.8-3.8-2.3-4.7c-1.6-1-3.8-1.4-6.6-1.4h-13.9zm0 22.4.1 15.6h14.8c3 0 5.3-.7 6.9-2.1 1.6-1.4 2.4-3.5 2.4-6.4a6 6 0 0 0-2.6-5.3 10.5 10.5 0 0 0-6.2-1.7h-15.4zm59.3 13.6-3.9 12H431l20.7-58.1h14l20.2 58.1h-13.1l-3.8-12h-21.3zm3.3-10h14.7l-7.2-22.9-7.5 22.9zm85.2-25.8v-10.3h-47v10.3h17.5v47.8h12.1v-47.8h17.4zm-397.3 60.4-9.9 25.1-9.9-25.1h-4l13.8 34.1 13.9-34.1h-3.9zm24.5 22.9c0 3.1-1.1 5.7-3.2 7.8a10.6 10.6 0 0 1-7.8 3.2c-3 0-5.6-1.1-7.7-3.2a10.6 10.6 0 0 1-3.2-7.8c0-3.1 1-5.6 3.1-7.7 2.1-2.1 4.7-3.1 7.7-3.1 3.1 0 5.7 1 7.8 3.1 2.2 2.1 3.3 4.7 3.3 7.7m-3.5 0c0-2.2-.7-4-2.1-5.4a7.2 7.2 0 0 0-5.3-2.1c-2.1 0-3.9.7-5.3 2.1a7.3 7.3 0 0 0-2.1 5.4c0 2.2.7 4 2.2 5.5a6.9 6.9 0 0 0 5.2 2.2 7 7 0 0 0 5.3-2.2 7.7 7.7 0 0 0 2.1-5.5m15-10.2h-3.2v-8.3h-3.5v8.3h-2.5v3.2h2.5v17.4h3.5V535h3.2v-3.2zm15.4-.2-.8-.3-1.1-.1c-1.6 0-2.8.3-3.8 1a7 7 0 0 0-2.2 3.2v-3.6h-3.5v20.6h3.5v-8.9c0-3 .4-5.2 1.3-6.7a4.3 4.3 0 0 1 3.9-2.2l1 .1.8.4.9-3.5m20.4 11h-16.4c.1 2.2.8 3.9 2 5.2a6.3 6.3 0 0 0 4.7 1.8c1.5 0 2.8-.3 3.8-.9 1-.6 1.9-1.5 2.5-2.7l2.9 1.6a10 10 0 0 1-3.8 4.1 11 11 0 0 1-5.5 1.4c-3.1 0-5.5-1-7.4-3-1.8-2-2.8-4.7-2.8-8 0-3.1 1-5.7 2.9-7.7a9.2 9.2 0 0 1 7.2-3.1c2.9 0 5.3.9 7.1 2.8 1.8 1.9 2.7 4.4 2.7 7.4v1.1zm-3.5-2.5a5.8 5.8 0 0 0-2-4.1 6.3 6.3 0 0 0-4.4-1.5c-1.7 0-3.2.5-4.4 1.5a6 6 0 0 0-2.1 4.1h12.9zM233 516h-3.5v36.4h3.5V516zm25.6 36.4h-3.5V549a7.6 7.6 0 0 1-2.9 3c-1.3.7-2.8 1-4.5 1-2.9 0-5.2-1-7-3.1a11.8 11.8 0 0 1-2.8-8c0-3.2.9-5.8 2.8-7.8 1.8-2 4.2-3 7.1-3 1.6 0 3.1.3 4.3 1 1.3.6 2.2 1.6 3 2.8v-3.1h3.5v20.6zm-3.5-10.6c0-2.3-.6-4-1.8-5.3a6.5 6.5 0 0 0-4.9-2c-2 0-3.7.7-5 2a7.6 7.6 0 0 0-1.9 5.4c0 2.3.6 4.1 1.9 5.5s2.9 2.1 4.8 2.1c2 0 3.6-.7 5-2.2a8 8 0 0 0 1.9-5.5m30.5.1c0 3.2-.9 5.9-2.8 8a8.9 8.9 0 0 1-7.1 3.1c-1.7 0-3.2-.3-4.4-1a7 7 0 0 1-2.9-3v3.4h-3.5V516h3.5v18.9a7.4 7.4 0 0 1 3-2.8 10 10 0 0 1 4.3-1c2.9 0 5.3 1 7.1 3 1.9 2.1 2.8 4.7 2.8 7.8m-3.5.1c0-2.2-.6-4-1.9-5.4a6.3 6.3 0 0 0-5-2c-2.1 0-3.7.7-4.9 2a7.6 7.6 0 0 0-1.8 5.3c0 2.3.7 4.1 2 5.6 1.3 1.4 3 2.2 5 2.2 1.9 0 3.6-.7 4.8-2.1a9.4 9.4 0 0 0 1.8-5.6m26.5.6h-16.4c.1 2.2.8 3.9 2 5.2a6.3 6.3 0 0 0 4.7 1.8c1.5 0 2.8-.3 3.8-.9 1-.6 1.9-1.5 2.5-2.7l2.9 1.6a10 10 0 0 1-3.8 4.1 11 11 0 0 1-5.5 1.4c-3.1 0-5.5-1-7.4-3-1.8-2-2.7-4.7-2.7-8 0-3.1 1-5.7 2.9-7.7a9.2 9.2 0 0 1 7.2-3.1c2.9 0 5.3.9 7.1 2.8 1.8 1.9 2.7 4.4 2.7 7.4v1.1zm-3.5-2.5a5.8 5.8 0 0 0-2-4.1 6.3 6.3 0 0 0-4.4-1.5c-1.7 0-3.2.5-4.4 1.5a6 6 0 0 0-2.1 4.1h12.9zm11.8-24.1h-3.5v36.4h3.5V516zm39.4 36.4h-3.5V549a7.6 7.6 0 0 1-2.9 3 9 9 0 0 1-4.5 1c-2.8 0-5.2-1-7-3.1a11.7 11.7 0 0 1-2.7-8c0-3.2.9-5.8 2.8-7.8 1.8-2 4.2-3 7.1-3 1.6 0 3.1.3 4.3 1 1.3.6 2.2 1.6 3 2.8V516h3.5v36.4zm-3.5-10.6c0-2.3-.6-4-1.9-5.3a6.5 6.5 0 0 0-4.9-2c-2 0-3.7.7-5 2a7.6 7.6 0 0 0-1.9 5.4c0 2.3.6 4.1 1.9 5.5s2.9 2.1 4.8 2.1c2 0 3.7-.7 5-2.2 1.3-1.3 2-3.2 2-5.5m28.3.8h-16.4c.1 2.2.8 3.9 2 5.2a6.3 6.3 0 0 0 4.7 1.8c1.5 0 2.8-.3 3.8-.9a6 6 0 0 0 2.5-2.7l2.9 1.6c-.9 1.8-2.2 3.1-3.7 4.1a11 11 0 0 1-5.5 1.4c-3.1 0-5.5-1-7.4-3-1.8-2-2.7-4.7-2.7-8 0-3.1 1-5.7 2.9-7.7a9.2 9.2 0 0 1 7.2-3.1c2.9 0 5.3.9 7.1 2.8 1.8 1.9 2.7 4.4 2.7 7.4v1.1zm-3.5-2.5a5.8 5.8 0 0 0-2-4.1 6.3 6.3 0 0 0-4.4-1.5c-1.7 0-3.2.5-4.4 1.5a6 6 0 0 0-2.1 4.1h12.9zm30.5-24.3a3 3 0 0 0-1-.2l-1.2-.1c-2 0-3.5.6-4.4 1.9-.9 1.3-1.3 3.4-1.3 6.4v8h-2.4v3.2h2.4v17.4h3.5V535h4.1v-3.2h-4.1v-7.9c0-2 .2-3.4.5-4.2.3-.7 1-1.1 2.1-1.1l.9.1.8.3v-3.2zm7.9 7.9c0 .7-.2 1.2-.7 1.7-.5.5-1 .7-1.7.7s-1.2-.2-1.7-.7c-.5-.5-.7-1-.7-1.7s.2-1.2.7-1.7c.5-.5 1-.7 1.7-.7.6 0 1.2.2 1.7.7.5.5.7 1 .7 1.7m-.6 28.7h-3.5v-20.6h3.5v20.6zm25.9 0h-3.5V549a7.6 7.6 0 0 1-2.9 3 9 9 0 0 1-4.5 1c-2.9 0-5.2-1-7-3.1a11.8 11.8 0 0 1-2.8-8c0-3.2.9-5.8 2.8-7.8 1.8-2 4.2-3 7.1-3 1.6 0 3.1.3 4.3 1 1.3.6 2.2 1.6 3 2.8v-3.1h3.5v20.6zm-3.6-10.6c0-2.3-.6-4-1.8-5.3a6.5 6.5 0 0 0-4.9-2c-2 0-3.7.7-5 2a7.6 7.6 0 0 0-1.9 5.4c0 2.3.6 4.1 1.9 5.5a6.3 6.3 0 0 0 4.8 2.1c2 0 3.7-.7 5-2.2 1.3-1.3 1.9-3.2 1.9-5.5m30.6.1a12 12 0 0 1-2.7 8 8.9 8.9 0 0 1-7.1 3.1c-1.7 0-3.2-.3-4.4-1a7 7 0 0 1-2.9-3v3.4h-3.5V516h3.5v18.9a7.4 7.4 0 0 1 3-2.8 10 10 0 0 1 4.3-1c2.9 0 5.3 1 7.1 3 1.8 2.1 2.7 4.7 2.7 7.8m-3.6.1c0-2.2-.6-4-1.9-5.4a6.3 6.3 0 0 0-4.9-2c-2.1 0-3.7.7-4.9 2a7.6 7.6 0 0 0-1.8 5.3c0 2.3.7 4.1 2 5.6 1.3 1.4 3 2.2 5 2.2 1.9 0 3.6-.7 4.8-2.1a9.3 9.3 0 0 0 1.7-5.6m12.9-18.3c0 .7-.2 1.2-.7 1.7-.5.5-1 .7-1.7.7s-1.2-.2-1.7-.7c-.5-.5-.7-1-.7-1.7s.2-1.2.7-1.7c.5-.5 1-.7 1.7-.7.6 0 1.2.2 1.7.7.5.5.7 1 .7 1.7m-.7 28.7h-3.5v-20.6h3.5v20.6zM488 516h-3.5v36.4h3.5V516zm11.6 7.7c0 .7-.2 1.2-.7 1.7-.5.5-1 .7-1.7.7s-1.2-.2-1.7-.7c-.5-.5-.7-1-.7-1.7s.2-1.2.7-1.7c.5-.5 1-.7 1.7-.7.6 0 1.2.2 1.7.7.5.5.7 1 .7 1.7m-.6 28.7h-3.5v-20.6h3.5v20.6zm14.3-20.6h-3.2v-8.3h-3.5v8.3h-2.5v3.2h2.5v17.4h3.5V535h3.2v-3.2zm22.1 10.8H519c.1 2.2.8 3.9 2 5.2a6.3 6.3 0 0 0 4.7 1.8c1.5 0 2.8-.3 3.8-.9a6 6 0 0 0 2.5-2.7l2.9 1.6a10 10 0 0 1-3.8 4.1 11 11 0 0 1-5.5 1.4c-3.1 0-5.5-1-7.4-3-1.8-2-2.7-4.7-2.7-8 0-3.1 1-5.7 2.9-7.7a9.2 9.2 0 0 1 7.2-3.1c2.9 0 5.3.9 7.1 2.8 1.8 1.9 2.7 4.3 2.7 7.4v1.1zm-3.5-2.5a5.8 5.8 0 0 0-2-4.1 6.3 6.3 0 0 0-4.4-1.5c-1.7 0-3.2.5-4.4 1.5a6 6 0 0 0-2.1 4.1h12.9zm-1.6-16.5-6.3 5.8-1.3-1.4 5.7-6.5 1.9 2.1z"/></svg>