<svg xmlns="http://www.w3.org/2000/svg" viewBox="0 0 246 316.4"><defs><clipPath clipPathUnits="userSpaceOnUse" id="a"><path d="M0 237.3h184.5V0H0Z"/></clipPath><clipPath clipPathUnits="userSpaceOnUse" id="c"><path d="M0 237.3h184.5V0H0Z"/></clipPath><radialGradient fx="0" fy="0" cx="0" cy="0" r="1" gradientUnits="userSpaceOnUse" gradientTransform="translate(46 200.7) scale(66.73149)" spreadMethod="pad" id="b"><stop style="stop-opacity:1;stop-color:#fff" offset="0"/><stop style="stop-opacity:1;stop-color:#fff" offset=".2"/><stop style="stop-opacity:1;stop-color:#0086c9" offset="1"/><stop style="stop-opacity:1;stop-color:#0086c9" offset="1"/></radialGradient></defs><g clip-path="url(#a)" transform="matrix(1.33333 0 0 -1.33333 0 316.4)"><path d="M0 0a5.8 5.8 0 1 0 11.6 0A5.8 5.8 0 0 0 0 0" style="fill:#fff;fill-opacity:1;fill-rule:nonzero;stroke:none" transform="translate(86.3 47)"/><path d="M0 0v.8h-70.4a.8.8 0 1 1 0-1.6H0V0" style="fill:#e54c3f;fill-opacity:1;fill-rule:nonzero;stroke:none" transform="translate(79 47)"/><path d="M0 0h-70.5v-1.6H0A.8.8 0 0 1 0 0" style="fill:#e54c3f;fill-opacity:1;fill-rule:nonzero;stroke:none" transform="translate(176 47.8)"/><path d="M0 0v-9.4c0-2.8 1.2-4.2 3.2-4.2s3.2 1.3 3.2 4.2V0h3.9v-9.2c0-5-2.7-7.4-7.3-7.4-4.4 0-7 2.3-7 7.5V0z" style="fill:#0086c9;fill-opacity:1;fill-rule:nonzero;stroke:none" transform="translate(47.2 81)"/><path d="m0 0-1.2-3.3h-4l6.4 16.4h3.6l6.3-16.4H6.8L5.7 0Zm4.5 3.7L2.9 8.2 1.3 3.7Z" style="fill:#0086c9;fill-opacity:1;fill-rule:nonzero;stroke:none" transform="translate(63.6 68)"/><path d="M0 0h3.7v-13.2h7.2l-1.8-3.1H0Z" style="fill:#0086c9;fill-opacity:1;fill-rule:nonzero;stroke:none" transform="translate(76 81)"/><path d="M92.5 64.7h-3.7V81h3.7z" style="fill:#0086c9;fill-opacity:1;fill-rule:nonzero;stroke:none"/><path d="M0 0h10v-3H3.7v-3.8h5.5v-3H3.7v-6.5H0Z" style="fill:#0086c9;fill-opacity:1;fill-rule:nonzero;stroke:none" transform="translate(96.2 81)"/><path d="M0 0h-6v-3.9h7l-1.8-3h-9V9.4h10v-3H-6V3h6z" style="fill:#0086c9;fill-opacity:1;fill-rule:nonzero;stroke:none" transform="translate(118 71.6)"/><path d="M0 0h3.7v-13.2h7.5l-1.9-3-9.3-.1Z" style="fill:#0086c9;fill-opacity:1;fill-rule:nonzero;stroke:none" transform="translate(121.1 81)"/><path d="M0 0h-6v-3.9h7.6l-1.7-3h-9.6V9.4h10v-3H-6V3h6z" style="fill:#0086c9;fill-opacity:1;fill-rule:nonzero;stroke:none" transform="translate(143.1 71.6)"/><path d="M0 0c-.7-.3-1.2-.5-3.2-.5-5.6 0-8.5 3.6-8.5 8.2 0 5.6 4 8.7 8.9 8.7 1.9 0 3.3-.4 4-.7v-3.3c-.7.3-2.6 1-3.9 1-2.9 0-5.2-1.8-5.2-5.5 0-3.2 2-5.3 5.2-5.3 1.2 0 3.9.4 4.6.7z" style="fill:#0086c9;fill-opacity:1;fill-rule:nonzero;stroke:none" transform="translate(158.3 64.9)"/><path d="m0 0-2.1 2.3A9 9 0 0 1-.3 8c0 4.5-3 8.3-8.5 8.3a8.3 8.3 0 0 1-8.8-8.6C-17.6 3-14.4-.7-9-.7c1.5 0 2.9.3 4 .8l2.6-2.6zm-9 2.3c-2.7 0-4.3 2.4-4.3 5.5 0 3 1.6 5.6 4.4 5.6 2.8 0 4.3-2.6 4.3-5.5 0-3.3-1.6-5.6-4.3-5.6" style="fill:#0086c9;fill-opacity:1;fill-rule:nonzero;stroke:none" transform="translate(41.2 65)"/></g><path d="M55.6 219.8a51 51 0 0 1-29.2-30.6 51 51 0 0 1 5-43.3 51 51 0 0 1 35.4-23.3c2.5-.4 5-.4 7.6-.6 2 0 3-1.5 5.5-5l11.3-16.3c4.2-6 7-7 10.8-7h14c4.3 0 4.2 1.9 2.5 4.6-1.8 2.6-29.2 41.1-31.2 43.6-2 2.6-5 2-6.2 1.9-2.8-.8-3.7-1-6.7-1a29.8 29.8 0 0 0-29.8 29.7A29 29 0 0 0 74 201.7c16.4 0 29.6-11.8 29.6-28.3 0-8.8-3.7-13.8-8.8-21-.8-1-2-4.9.4-8.3l10.7-14.8a13 13 0 0 1 10.3-5.2h38.1c3.4 0 6.5 2 6.5 6.1v9c0 3.8-2.4 5.9-6.1 5.9H131c-3.7 0-5.6 2.3-5.6 5v7.3c0 3 2 4.9 5.5 4.9h23c4.5 0 6.2 1.3 6.2 4.7v10.7c0 4.2-3.2 6.3-6.3 6.3h-23.1c-3.6 0-5.2 2.4-5.2 4.8v7c0 2.6 1.6 4.9 5 4.9h23.8c4.4 0 5.8 2.7 5.8 5.4v10.3c0 2.7-1.2 5.5-4.8 5.5h-49.8c-3.7 0-3.9-2.4-4-3.6-.2-1.2-1.2-1.6-1.6-1.5l-.8.1a50.5 50.5 0 0 1-43.4 2.8" style="fill:url(#b);stroke:none" transform="matrix(1.33333 0 0 -1.33333 0 316.4)"/><g clip-path="url(#c)" transform="matrix(1.33333 0 0 -1.33333 0 316.4)"><path d="m0 0-4.1-5.4-.4-.1a.4.4 0 0 0-.3.5l.8 3.2h-2.5a.4.4 0 0 0-.3.7l4.1 5.3.3.2a.4.4 0 0 0 .4-.5L-2.8.7h2.5A.4.4 0 0 0 0 0m-3.3 8.2a8.7 8.7 0 1 1 0-17.5 8.7 8.7 0 0 1 0 17.5" style="fill:#72c9f3;fill-opacity:1;fill-rule:evenodd;stroke:none" transform="translate(95.5 47.6)"/><path d="M0 0h2.2C3 0 3.4.2 3.8.6c.4.4.6 1 .6 1.7v.2c0 .8-.2 1.4-.6 1.8-.4.4-.9.6-1.6.6H0Zm-1.4-5.4v11c0 .2 0 .3.2.4l.4.1h3a4 4 0 0 0 2.6-.8c.6-.6 1-1.5 1-2.7v-.2c0-1.2-.4-2.1-1-2.7C4-.9 3.3-1 2.2-1H0v-4.3c0-.2 0-.3-.2-.4a.9.9 0 0 0-.5 0h-.5l-.2.4" style="fill:#008bcc;fill-opacity:1;fill-rule:nonzero;stroke:none" transform="translate(10.3 20)"/><path d="M0 0h2.1c1.5 0 2.3.7 2.3 2.2 0 1.4-.8 2-2.3 2H0Zm-1.4-6V5c0 .2 0 .3.2.4l.3.1h3c1.1 0 2-.2 2.7-.7.6-.5 1-1.4 1-2.5 0-1.9-.9-3-2.5-3.3l2.4-4.6.1-.2c0-.2 0-.3-.3-.5a.8.8 0 0 0-.5-.2c-.2 0-.4.2-.6.5L1.9-1H0v-5c0-.1 0-.2-.2-.3a.9.9 0 0 0-.5-.2c-.2 0-.3 0-.5.2l-.2.3" style="fill:#008bcc;fill-opacity:1;fill-rule:nonzero;stroke:none" transform="translate(19 20.6)"/><path d="M0 0c0 .2 0 .3.2.4l2 1h.1c.1 0 .2 0 .3-.2l.2-.3c0-.2-.1-.4-.3-.4L.7-.5H0V0m-2.3-13.8v11l.2.4.5.1h5.8l.4-.1.1-.5-.1-.4c-.1-.2-.2-.2-.4-.2h-5v-4.2h2.5c.1 0 .2 0 .3-.2l.2-.4-.2-.4-.3-.1H-1V-13h5.1c.2 0 .3 0 .4-.2l.1-.5-.1-.4-.4-.2h-5.8c-.2 0-.3 0-.5.2l-.1.3" style="fill:#008bcc;fill-opacity:1;fill-rule:nonzero;stroke:none" transform="translate(28.9 28.4)"/><path d="M0 0v11c0 .2 0 .3.2.4l.4.1h5.8c.2 0 .3 0 .4-.2v-.8c-.1-.2-.2-.2-.4-.2h-5V6h2.5c.2 0 .3 0 .4-.2l.1-.4-.1-.4-.4-.1H1.4V0c0-.2 0-.3-.2-.4a1 1 0 0 0-.5 0 1 1 0 0 0-.5 0L0 0" style="fill:#008bcc;fill-opacity:1;fill-rule:nonzero;stroke:none" transform="translate(35 14.6)"/><path d="M0 0c0 .2 0 .3.2.4l2 1h.1c.1 0 .2 0 .3-.2l.2-.3c0-.2-.1-.4-.3-.4L.7-.5H0V0m-2.3-13.8v11l.2.4.5.1h5.8l.4-.1v-.9c-.1-.2-.2-.2-.4-.2h-5v-4.2h2.5c.1 0 .2 0 .3-.2l.2-.4-.2-.4-.3-.1H-1V-13h5.1c.2 0 .3 0 .4-.2l.1-.5-.1-.4-.4-.2h-5.8c-.2 0-.3 0-.5.2l-.2.3" style="fill:#008bcc;fill-opacity:1;fill-rule:nonzero;stroke:none" transform="translate(45.5 28.4)"/><path d="M0 0h2.1c1.5 0 2.3.7 2.3 2.2 0 1.4-.8 2-2.3 2H0Zm-1.4-6V5c0 .2 0 .3.2.4l.3.1h3c1.1 0 2-.2 2.7-.7.6-.5 1-1.4 1-2.5 0-1.9-.9-3-2.5-3.3l2.4-4.6.1-.2c0-.2 0-.3-.3-.5a.8.8 0 0 0-.5-.2c-.2 0-.4.2-.6.5L1.9-1H0v-5c0-.1 0-.2-.2-.3a.9.9 0 0 0-.5-.2c-.2 0-.3 0-.5.2l-.2.3" style="fill:#008bcc;fill-opacity:1;fill-rule:nonzero;stroke:none" transform="translate(53 20.6)"/><path d="M0 0v11c0 .2 0 .3.2.4l.4.1h5.9c.1 0 .2 0 .3-.2L7 11v-.5l-.4-.1H1.4V6h2.5c.2 0 .3 0 .4-.2l.1-.4-.1-.4-.4-.2H1.4v-4h5l.4-.2L7 0v-.4l-.4-.2h-6l-.4.1L0 0" style="fill:#008bcc;fill-opacity:1;fill-rule:nonzero;stroke:none" transform="translate(60.6 14.6)"/><path d="m0 0 .1.5 5.3 9.8H.7c-.1 0-.3 0-.3.2l-.2.4c0 .2 0 .4.2.5l.3.2h6c.4 0 .5-.2.5-.5l-.1-.5L1.8.8H7c.1 0 .2 0 .3-.2l.2-.4c0-.2 0-.3-.2-.5L7-.4H.5C.2-.4 0-.3 0 0" style="fill:#008bcc;fill-opacity:1;fill-rule:nonzero;stroke:none" transform="translate(68.2 14.5)"/><path d="M0 0v10.7c0 .2.1.4.3.5l.8.1.7-.1c.2-.1.3-.3.3-.5V1.2h4c.2 0 .4 0 .5-.3l.2-.6c0-.3 0-.5-.2-.7a.5.5 0 0 0-.5-.3H1c-.2 0-.4 0-.6.2C0-.4 0-.2 0 0" style="fill:#008bcc;fill-opacity:1;fill-rule:nonzero;stroke:none" transform="translate(80.2 14.8)"/><path d="M0 0c0 .3.1.6.3.8.2.2.5.3.8.3.3 0 .5 0 .7-.3.2-.2.3-.5.3-.8l-.9-2.4c0-.2-.2-.3-.4-.3s-.3 0-.5.2l-.2.4v.2l.4.9C.2-.8 0-.4 0 0" style="fill:#008bcc;fill-opacity:1;fill-rule:nonzero;stroke:none" transform="translate(86.5 25.2)"/><path d="M0 0v10.7c0 .2 0 .3.3.4.2.2.4.2.6.2h5.9c.2 0 .4 0 .5-.3l.2-.6-.2-.7a.6.6 0 0 0-.5-.2H2V6.2h2.5c.2 0 .4-.1.5-.3l.2-.6c0-.2 0-.4-.2-.5a.6.6 0 0 0-.5-.3H2.1V1.2h4.7c.2 0 .4 0 .5-.3l.2-.7-.2-.6a.6.6 0 0 0-.5-.3H.9c-.2 0-.4 0-.6.2C0-.4 0-.2 0 0" style="fill:#008bcc;fill-opacity:1;fill-rule:nonzero;stroke:none" transform="translate(90 14.8)"/><path d="m0 0 .1.4L3 5 .2 9.6l-.1.5c0 .3.1.5.4.7.3.2.6.3 1 .3.3 0 .5-.2.6-.5l2.3-4 2.2 4c.2.3.4.5.7.5.4 0 .7-.1 1-.3.3-.2.4-.4.4-.7l-.1-.5L5.8 5 8.7.4V0c0-.3 0-.5-.4-.7-.3-.3-.6-.4-1-.4-.2 0-.4.1-.5.4L4.4 3.5 2-.7a.6.6 0 0 0-.6-.4c-.3 0-.6.1-1 .4-.2.2-.4.4-.4.7" style="fill:#008bcc;fill-opacity:1;fill-rule:nonzero;stroke:none" transform="translate(98 15)"/><path d="M0 0v4.6c0 1.3.4 2.2 1 2.8a4 4 0 0 0 2.8 1 4 4 0 0 0 2.8-1c.7-.5 1.1-1.2 1.1-2.2 0-.4 0-.7-.2-.8-.2-.2-.5-.2-.9-.2-.7 0-1 .2-1 .6v.4A1.9 1.9 0 0 1 5 6c0 .2-.3.3-.5.3l-.7.2c-1.2 0-1.8-.7-1.8-2V0c0-1.3.6-1.9 1.8-1.9.3 0 .6 0 .9.2.2 0 .4.2.5.4l.2.6v.6c.1.4.4.6 1.1.6.4 0 .7 0 .8-.2.2-.1.3-.4.3-.8 0-1-.4-1.8-1-2.4-.8-.6-1.8-.9-3-.9a4 4 0 0 0-2.7 1C.3-2.2 0-1.3 0 0" style="fill:#008bcc;fill-opacity:1;fill-rule:nonzero;stroke:none" transform="translate(107.6 17.8)"/><path d="M0 0v10.7c0 .2 0 .3.3.4.2.2.4.2.6.2h5.9c.2 0 .4 0 .5-.3l.2-.6-.2-.7a.6.6 0 0 0-.5-.2H2V6.2h2.5c.2 0 .4-.1.5-.3l.2-.6c0-.2 0-.4-.2-.5a.6.6 0 0 0-.5-.3H2.1V1.2h4.7c.2 0 .4 0 .5-.3l.2-.7-.2-.6a.6.6 0 0 0-.5-.3H.9c-.2 0-.4 0-.6.2C0-.4 0-.2 0 0" style="fill:#008bcc;fill-opacity:1;fill-rule:nonzero;stroke:none" transform="translate(116.8 14.8)"/><path d="M0 0v10.7c0 .2.1.4.3.5l.8.1.7-.1c.2-.1.3-.3.3-.5V1.2h4c.2 0 .4 0 .5-.3l.2-.6c0-.3 0-.5-.2-.7a.5.5 0 0 0-.5-.3H1c-.2 0-.4 0-.6.2C0-.4 0-.2 0 0" style="fill:#008bcc;fill-opacity:1;fill-rule:nonzero;stroke:none" transform="translate(125.5 14.8)"/><path d="M0 0v10.7c0 .2.1.4.3.5l.8.1.7-.1c.2-.1.3-.3.3-.5V1.2h4c.2 0 .4 0 .5-.3l.2-.6c0-.3 0-.5-.2-.7a.5.5 0 0 0-.5-.3H1c-.2 0-.4 0-.6.2C0-.4 0-.2 0 0" style="fill:#008bcc;fill-opacity:1;fill-rule:nonzero;stroke:none" transform="translate(133.4 14.8)"/><path d="M0 0v10.7c0 .2 0 .3.3.4.2.2.4.2.6.2h5.9c.2 0 .4 0 .5-.3l.2-.6-.2-.7a.6.6 0 0 0-.5-.2H2V6.2h2.5c.2 0 .4-.1.5-.3l.2-.6c0-.2 0-.4-.2-.5a.6.6 0 0 0-.5-.3H2.1V1.2h4.7c.2 0 .4 0 .5-.3l.2-.7-.2-.6a.6.6 0 0 0-.5-.3H.9c-.2 0-.4 0-.6.2C0-.4 0-.2 0 0" style="fill:#008bcc;fill-opacity:1;fill-rule:nonzero;stroke:none" transform="translate(141.4 14.8)"/><path d="M0 0v10.7c0 .2.1.3.3.5l.8.1c.4 0 .7 0 .9-.2.2-.1.4-.4.7-1l3.1-6v6.6c0 .2.1.4.3.5l.8.1.7-.1c.3-.1.4-.3.4-.5V0c0-.2-.1-.4-.4-.5L7-.7c-.6 0-1 .3-1.2.7L2 6.6V0c0-.2 0-.4-.3-.5L1-.7c-.3 0-.6 0-.8.2-.2.1-.3.3-.3.5" style="fill:#008bcc;fill-opacity:1;fill-rule:nonzero;stroke:none" transform="translate(150 14.8)"/><path d="M0 0v4.6c0 1.3.3 2.2 1 2.8a4 4 0 0 0 2.8 1 4 4 0 0 0 2.8-1c.7-.5 1.1-1.2 1.1-2.2 0-.4 0-.7-.2-.8-.2-.2-.5-.2-.9-.2-.7 0-1 .2-1 .6v.4A1.8 1.8 0 0 1 5 6c0 .2-.3.3-.5.3l-.7.2c-1.2 0-1.8-.7-1.8-2V0c0-1.3.6-1.9 1.8-1.9.3 0 .6 0 .9.2.2 0 .4.2.5.4A2.5 2.5 0 0 1 5.6 0c0 .4.3.6 1 .6.4 0 .7 0 .8-.2.2-.1.3-.4.3-.8 0-1-.4-1.8-1-2.4-.8-.6-1.8-.9-3-.9a4 4 0 0 0-2.7 1C.3-2.2 0-1.3 0 0" style="fill:#008bcc;fill-opacity:1;fill-rule:nonzero;stroke:none" transform="translate(159.9 17.8)"/><path d="M0 0v10.7c0 .2 0 .3.3.4.2.2.4.2.6.2h5.9c.2 0 .4 0 .5-.3l.2-.6-.2-.7a.6.6 0 0 0-.5-.2H2V6.2h2.5c.2 0 .4-.1.5-.3l.2-.6c0-.2 0-.4-.2-.5a.6.6 0 0 0-.5-.3H2.1V1.2h4.7c.2 0 .4 0 .5-.3l.2-.7-.2-.6a.6.6 0 0 0-.5-.3H.9c-.2 0-.4 0-.6.2C0-.4 0-.2 0 0" style="fill:#008bcc;fill-opacity:1;fill-rule:nonzero;stroke:none" transform="translate(169 14.8)"/></g></svg>