<svg
    fill="none"
    xmlns="http://www.w3.org/2000/svg"
    viewBox="0 0 100 100"
    width="100%"
    height="100%"
  >
    <circle cx="50" cy="50" r="50" fill="#039" />
    <path d="m50.1 6.6-2 6 3 .9-1-6.9Z" fill="#FC0" />
    <path d="m50.1 6.6 2 6-3 .9 1-6.9Z" fill="#FC0" />
    <path d="M56 11h-6.2v3l6.2-3Z" fill="#FC0" />
    <path d="m56 11-5 3.6-1.8-2.5 6.8-1.2Z" fill="#FC0" />
    <path d="m53.8 17.9-2-6-3 1 5 5Z" fill="#FC0" />
    <path d="m53.8 17.9-5-3.7 1.8-2.5 3.2 6.2Z" fill="#FC0" />
    <path d="M44.2 11h6.2v3l-6.2-3Z" fill="#FC0" />
    <path d="m44.2 11 5 3.6L51 12l-6.8-1.2Z" fill="#FC0" />
    <path d="m46.5 17.9 1.9-6 3 1-5 5Z" fill="#FC0" />
    <path
      d="m46.5 17.9 5-3.7-1.8-2.5-3.2 6.2ZM50.1 81.2l-2 5.9 3 1-1-7Z"
      fill="#FC0"
    />
    <path d="m50.1 81.2 2 5.9-3 1 1-7Z" fill="#FC0" />
    <path d="M56 85.5h-6.2v3l6.2-3Z" fill="#FC0" />
    <path d="m56 85.4-5 3.7-1.8-2.5 6.8-1.2Z" fill="#FC0" />
    <path d="m53.8 92.4-2-6-3 1 5 5Z" fill="#FC0" />
    <path d="m53.8 92.4-5-3.7 1.8-2.5 3.2 6.2Z" fill="#FC0" />
    <path d="M44.2 85.5h6.2v3l-6.2-3Z" fill="#FC0" />
    <path d="m44.2 85.4 5 3.7 1.8-2.5-6.8-1.2Z" fill="#FC0" />
    <path d="m46.5 92.4 1.9-6 3 1-5 5Z" fill="#FC0" />
    <path
      d="m46.5 92.4 5-3.7-1.8-2.5-3.2 6.2ZM12.8 43.9 11 49.8l3 1-1-7Z"
      fill="#FC0"
    />
    <path d="m12.8 43.9 2 5.9-3 1 1-7Z" fill="#FC0" />
    <path d="M18.7 48.2h-6.2v3l6.2-3Z" fill="#FC0" />
    <path d="m18.7 48.2-5 3.6-1.8-2.5 6.8-1.1Z" fill="#FC0" />
    <path d="m16.5 55.1-2-5.9-2.9 1 4.9 5Z" fill="#FC0" />
    <path d="m16.5 55.1-5-3.6 1.8-2.5 3.2 6.1Z" fill="#FC0" />
    <path d="M7 48.2H13v3l-6.2-3Z" fill="#FC0" />
    <path d="m7 48.2 5 3.6 1.8-2.5-6.9-1.1Z" fill="#FC0" />
    <path d="m9.2 55.1 1.9-5.9 3 1-5 5Z" fill="#FC0" />
    <path
      d="m9.2 55.1 5-3.6-1.8-2.5L9.2 55ZM27.8 22.9l5-3.7-1.8-2.5-3.2 6.2Z"
      fill="#FC0"
    />
    <path d="m27.8 22.9 2-6 2.9 1-4.9 5Z" fill="#FC0" />
    <path d="m25.6 16 5 3.6 1.8-2.6-6.8-1Z" fill="#FC0" />
    <path d="M25.6 16h6.2v3l-6.2-3Z" fill="#FC0" />
    <path d="m31.5 11.6-2 6 3 .9-1-6.9Z" fill="#FC0" />
    <path d="m31.5 11.6 1.9 6-3 .9 1-6.9Z" fill="#FC0" />
    <path d="m35.1 22.9-5-3.7 1.8-2.5 3.2 6.2Z" fill="#FC0" />
    <path d="m35.1 22.9-1.9-6-3 1 5 5Z" fill="#FC0" />
    <path d="m37.4 16-5 3.6-1.9-2.6 6.9-1Z" fill="#FC0" />
    <path d="M37.4 16h-6.2v3l6.2-3ZM21.5 36.5l-2-6-2.9 1 4.9 5Z" fill="#FC0" />
    <path d="m21.5 36.5-5-3.7 1.8-2.5 3.2 6.2Z" fill="#FC0" />
    <path d="m14.2 36.5 5-3.7-1.8-2.5-3.2 6.2Z" fill="#FC0" />
    <path d="m14.2 36.5 1.9-6 3 1-5 5Z" fill="#FC0" />
    <path d="m12 29.6 5 3.6 1.8-2.5-6.9-1.1Z" fill="#FC0" />
    <path d="M12 29.6H18v3l-6.2-3Z" fill="#FC0" />
    <path d="m23.7 29.6-5 3.6-1.8-2.5 6.8-1.1Z" fill="#FC0" />
    <path d="M23.7 29.6h-6.2v3l6.2-3Z" fill="#FC0" />
    <path d="m17.8 25.3 2 5.9-3 1 1-7Z" fill="#FC0" />
    <path
      d="M17.8 25.3 16 31.2l3 1-1-7ZM23.7 66.8h-6.2V70l6.2-3Z"
      fill="#FC0"
    />
    <path d="m23.7 66.8-5 3.7L17 68l6.8-1.2Z" fill="#FC0" />
    <path d="m21.5 73.8-2-6-2.9 1 4.9 5Z" fill="#FC0" />
    <path d="m21.5 73.8-5-3.7 1.8-2.5 3.2 6.2Z" fill="#FC0" />
    <path d="m14.2 73.8 5-3.7-1.8-2.5-3.2 6.2Z" fill="#FC0" />
    <path d="m14.2 73.8 1.9-6 3 1-5 5Z" fill="#FC0" />
    <path d="m17.8 62.5 2 6-3 .9 1-6.9Z" fill="#FC0" />
    <path d="m17.8 62.5-1.9 6 3 .9-1.1-6.9Z" fill="#FC0" />
    <path d="M12 66.9H18v3l-6.2-3Z" fill="#FC0" />
    <path
      d="m12 66.8 5 3.7 1.8-2.6-6.9-1ZM37.4 80.5h-6.2v3l6.2-3Z"
      fill="#FC0"
    />
    <path d="m37.4 80.4-5 3.7-1.9-2.5 6.9-1.2Z" fill="#FC0" />
    <path d="m35.1 87.4-2-5.9-2.9 1 5 4.9Z" fill="#FC0" />
    <path d="m35.1 87.4-5-3.6 1.8-2.6 3.2 6.2Z" fill="#FC0" />
    <path d="m27.8 87.4 5-3.7-1.8-2.5-3.2 6.2Z" fill="#FC0" />
    <path d="m27.8 87.4 2-5.9 2.9 1-4.9 5Z" fill="#FC0" />
    <path d="m31.4 76.2 2 5.9-3 1 1-7Z" fill="#FC0" />
    <path d="M31.4 76.2 29.6 82l3 1-1.2-7Z" fill="#FC0" />
    <path d="M25.6 80.5h6.1v3l-6.1-3Z" fill="#FC0" />
    <path
      d="m25.6 80.5 5 3.6 1.8-2.5-6.8-1.1ZM87.4 43.9l1.9 5.9-3 1 1-7Z"
      fill="#FC0"
    />
    <path d="m87.4 43.9-2 5.9 3 1-1-7Z" fill="#FC0" />
    <path d="M81.5 48.2h6.2v3l-6.2-3Z" fill="#FC0" />
    <path d="m81.5 48.2 5 3.6 1.8-2.5-6.8-1.1Z" fill="#FC0" />
    <path d="m83.7 55.1 2-5.9 2.9 1-4.9 5Z" fill="#FC0" />
    <path d="m83.7 55.1 5-3.6L87 49 83.7 55Z" fill="#FC0" />
    <path d="M93.3 48.2H87v3l6.2-3Z" fill="#FC0" />
    <path d="m93.3 48.2-5 3.6-1.9-2.5 6.9-1.1Z" fill="#FC0" />
    <path d="m91 55.1-1.9-5.9-3 1 5 5Z" fill="#FC0" />
    <path
      d="m91 55.1-5-3.6 1.8-2.5L91 55ZM72.4 22.9l-5-3.7 1.8-2.5 3.2 6.2Z"
      fill="#FC0"
    />
    <path d="m72.4 22.9-2-6-2.9 1 4.9 5Z" fill="#FC0" />
    <path d="m74.6 16-5 3.6-1.8-2.6 6.8-1Z" fill="#FC0" />
    <path d="M74.6 16h-6.2v3l6.2-3Z" fill="#FC0" />
    <path d="m68.7 11.6 2 6-3 .9 1-6.9Z" fill="#FC0" />
    <path d="m68.7 11.6-1.9 6 3 .9-1-6.9Z" fill="#FC0" />
    <path d="m65 22.9 5.1-3.7-1.8-2.5-3.2 6.2Z" fill="#FC0" />
    <path d="m65 22.9 2-6 3 1-5 5Z" fill="#FC0" />
    <path d="m62.8 16 5 3.6 1.9-2.6-6.9-1Z" fill="#FC0" />
    <path d="M62.8 16H69v3l-6.2-3ZM78.7 36.5l2-6 2.9 1-4.9 5Z" fill="#FC0" />
    <path d="m78.7 36.5 5-3.7-1.8-2.5-3.2 6.2Z" fill="#FC0" />
    <path d="m86 36.5-5-3.7 1.8-2.5 3.2 6.2Z" fill="#FC0" />
    <path d="m86 36.5-1.9-6-3 1 5 5Z" fill="#FC0" />
    <path d="m88.3 29.6-5 3.6-1.9-2.5 6.9-1.1Z" fill="#FC0" />
    <path d="M88.3 29.6H82v3l6.2-3Z" fill="#FC0" />
    <path d="m76.5 29.6 5 3.6 1.8-2.5-6.8-1.1Z" fill="#FC0" />
    <path d="M76.5 29.6h6.2v3l-6.2-3Z" fill="#FC0" />
    <path d="m82.4 25.3-2 5.9 3 1-1-7Z" fill="#FC0" />
    <path
      d="m82.4 25.3 1.9 5.9-3 1 1-7ZM76.5 66.8h6.2V70l-6.2-3Z"
      fill="#FC0"
    />
    <path d="m76.5 66.8 5 3.7 1.8-2.5-6.8-1.2Z" fill="#FC0" />
    <path d="m78.7 73.8 2-6 2.9 1-4.9 5Z" fill="#FC0" />
    <path d="m78.7 73.8 5-3.7-1.8-2.5-3.2 6.2Z" fill="#FC0" />
    <path d="M86 73.8 81 70l1.8-2.5 3.2 6.2Z" fill="#FC0" />
    <path d="m86 73.8-1.9-6-3 1 5 5Z" fill="#FC0" />
    <path d="m82.4 62.5-2 6 3 .9-1-6.9Z" fill="#FC0" />
    <path d="m82.4 62.5 1.9 6-3 .9 1.1-6.9Z" fill="#FC0" />
    <path d="M88.3 66.9H82v3l6.2-3Z" fill="#FC0" />
    <path
      d="m88.3 66.8-5 3.7-1.9-2.6 6.9-1ZM62.8 80.5H69v3l-6.2-3Z"
      fill="#FC0"
    />
    <path d="m62.8 80.4 5 3.7 1.9-2.5-6.9-1.2Z" fill="#FC0" />
    <path d="m65 87.4 2-5.9 3 1-5 4.9Z" fill="#FC0" />
    <path d="m65 87.4 5.1-3.6-1.8-2.6-3.2 6.2Z" fill="#FC0" />
    <path d="m72.4 87.4-5-3.7 1.8-2.5 3.2 6.2Z" fill="#FC0" />
    <path d="m72.4 87.4-1.9-5.9-3 1 4.9 5Z" fill="#FC0" />
    <path d="m68.8 76.2-2 5.9 3 1-1-7Z" fill="#FC0" />
    <path d="m68.8 76.2 1.9 5.9-3 1 1-7Z" fill="#FC0" />
    <path d="M74.6 80.5h-6.1v3l6.1-3Z" fill="#FC0" />
    <path d="m74.6 80.5-5 3.6-1.8-2.5 6.8-1.1Z" fill="#FC0" />
    <path
      d="m30.6 42.5 4.3 12.2h.2l4.3-12.2h1.9L35.9 57h-1.8l-5.3-14.5h1.8Zm14.7 0V57h-1.8V42.5h1.8ZM48.8 57V42.5h8.8V44h-7v5H57v1.5h-6.5v5h7.1V57h-8.9Zm20-11c-.2-.6-.5-1.2-1.1-1.6a4 4 0 0 0-2.2-.6c-.7 0-1.3.1-1.7.3-.5.2-.9.5-1.2.9a2 2 0 0 0 0 2.2c.1.3.4.5.6.7l1 .5.9.2 1.4.4 1.3.5c.5.1 1 .4 1.3.7.5.3.8.7 1.1 1.1.3.5.4 1 .4 1.8 0 .7-.2 1.4-.6 2-.4.7-1 1.2-1.8 1.6-.8.4-1.7.6-2.8.6-1 0-2-.2-2.7-.5-.8-.4-1.4-.9-1.8-1.5a4 4 0 0 1-.8-2H62c0 .5.2 1 .5 1.3.3.4.8.6 1.2.8.6.2 1 .3 1.7.3.6 0 1.2-.1 1.8-.4.5-.2 1-.5 1.2-.9.4-.4.5-.8.5-1.4 0-.5-.1-.9-.4-1.2a3 3 0 0 0-1-.7l-1.5-.5-1.8-.5c-1.1-.3-2-.8-2.7-1.4a3 3 0 0 1-1-2.4c0-.8.3-1.5.7-2.1.4-.6 1-1.1 1.8-1.4a6 6 0 0 1 2.5-.5c1 0 1.8.1 2.5.5.7.3 1.3.7 1.7 1.3.5.6.7 1.3.7 2h-1.7Z"
      fill="#fff"
    />
  </svg>