<svg width="352" height="352" viewBox="0 0 352 352" fill="none" xmlns="http://www.w3.org/2000/svg">
<mask id="mask0_33_10693" style="mask-type:luminance" maskUnits="userSpaceOnUse" x="0" y="0" width="352" height="352">
<path d="M176 352C273.202 352 352 273.202 352 176C352 78.7979 273.202 0 176 0C78.7979 0 0 78.7979 0 176C0 273.202 78.7979 352 176 352Z" fill="white"/>
</mask>
<g mask="url(#mask0_33_10693)">
<rect x="-43.5161" width="445.197" height="376.705" fill="#F5F5FE"/>
<path d="M359.112 307.385C335.562 307.385 316.472 288.295 316.472 264.745C316.472 241.195 335.562 222.104 359.112 222.104C382.662 222.104 401.752 241.195 401.752 264.745C401.729 288.287 382.646 307.361 359.112 307.385ZM359.112 223.02C336.064 223.02 317.388 241.704 317.388 264.745C317.388 287.793 336.072 306.469 359.112 306.469C382.153 306.469 400.837 287.785 400.837 264.745C400.813 241.712 382.145 223.044 359.112 223.02ZM3.624 307.385C-19.926 307.385 -39.0161 288.295 -39.0161 264.745C-39.0161 241.195 -19.926 222.104 3.624 222.104C27.174 222.104 46.2641 241.195 46.2641 264.745C46.2402 288.287 27.1581 307.361 3.624 307.385ZM3.624 223.02C-19.4243 223.02 -38.1002 241.704 -38.1002 264.745C-38.1002 287.785 -19.4163 306.469 3.624 306.469C26.6643 306.469 45.3482 287.785 45.3482 264.745C45.3244 241.712 26.6564 223.044 3.624 223.02Z" fill="#090909"/>
<path d="M250.481 265.207H3.62388C3.36903 265.207 3.16992 264.999 3.16992 264.745C3.16992 264.633 3.20974 264.522 3.28939 264.434L54.0211 208.51C54.1963 208.326 54.483 208.319 54.6662 208.494C54.8414 208.661 54.8573 208.94 54.698 209.123L4.65922 264.283H250.489C276.978 264.283 294.873 259.52 307.927 235.166C320.398 211.91 329.581 195.281 329.677 195.114C329.796 194.891 330.075 194.811 330.298 194.939C330.521 195.058 330.6 195.337 330.473 195.56C330.385 195.727 321.195 212.348 308.731 235.604C295.518 260.253 276.651 265.199 250.489 265.199L250.481 265.207Z" fill="#090909"/>
<path d="M359.112 265.206C358.977 265.206 358.849 265.15 358.762 265.047C344.219 247.876 320.136 165.622 318.392 159.609L300.671 153.565C300.432 153.493 300.289 153.238 300.361 152.991C300.432 152.752 300.687 152.609 300.934 152.681C300.942 152.681 300.958 152.681 300.966 152.689L318.909 158.805C319.053 158.853 319.164 158.964 319.204 159.116C319.459 159.992 344.817 247.151 359.463 264.45C359.63 264.641 359.598 264.927 359.407 265.095C359.327 265.166 359.216 265.206 359.112 265.206ZM166.841 265.206C166.634 265.206 166.451 265.071 166.403 264.872L143.061 178.508C142.997 178.262 143.148 178.015 143.387 177.951C143.626 177.887 143.873 178.031 143.945 178.269L167.128 264.059L249.143 217.039C249.366 216.92 249.645 216.999 249.764 217.222C249.884 217.437 249.812 217.708 249.597 217.835L167.072 265.15C167.001 265.19 166.921 265.214 166.841 265.214V265.206Z" fill="#090909"/>
<path d="M68.7071 265.207C68.5 265.207 68.3168 265.064 68.2611 264.865L47.9843 185.51C47.9206 185.263 48.0719 185.016 48.3109 184.952C48.5578 184.888 48.8046 185.04 48.8684 185.279L68.9938 264.044L153.374 215.359C153.597 215.24 153.876 215.327 153.995 215.55C154.107 215.757 154.035 216.02 153.836 216.148L68.938 265.135C68.8664 265.175 68.7867 265.199 68.7071 265.199V265.207ZM263.964 265.207C263.765 265.207 263.59 265.08 263.526 264.888L240.916 191.57C240.844 191.331 240.98 191.069 241.219 190.997C241.458 190.925 241.721 191.061 241.792 191.3L264.402 264.618C264.474 264.857 264.339 265.111 264.1 265.191C264.052 265.207 264.012 265.215 263.964 265.215V265.207Z" fill="#090909"/>
<path d="M258.549 247.646C258.294 247.646 258.087 247.447 258.079 247.2C258.079 246.945 258.278 246.738 258.525 246.73C258.867 246.714 292.643 245.297 306.764 237.372C306.979 237.237 307.258 237.301 307.393 237.516C307.528 237.731 307.465 238.009 307.25 238.145C307.234 238.153 307.218 238.161 307.202 238.169C292.898 246.205 258.891 247.63 258.549 247.646ZM198.937 244.524C167.128 244.524 157.492 230.913 157.085 230.308C156.95 230.093 157.022 229.814 157.237 229.679C157.436 229.552 157.699 229.607 157.842 229.798C157.945 229.95 168.514 244.755 203.031 243.545C203.285 243.537 203.492 243.736 203.5 243.983C203.508 244.237 203.309 244.445 203.062 244.452C201.645 244.5 200.275 244.524 198.937 244.524ZM100.006 242.342C71.8051 242.342 59.1341 228.548 58.9908 228.397C58.8235 228.206 58.8394 227.919 59.0306 227.752C59.2217 227.584 59.5084 227.6 59.6757 227.791C59.827 227.959 74.9509 244.357 109.085 240.972C109.332 240.948 109.555 241.123 109.587 241.37C109.587 241.37 109.587 241.37 109.587 241.378C109.611 241.633 109.428 241.856 109.181 241.88C105.955 242.199 102.897 242.35 100.006 242.35V242.342ZM51.9584 261.687C51.7195 261.687 51.5204 261.504 51.5044 261.265C51.4726 260.867 47.6578 221.046 8.85636 216.45C-30.8768 211.76 -42.5045 251.166 -42.624 251.564C-42.6957 251.803 -42.9585 251.939 -43.1974 251.867C-43.4284 251.795 -43.5637 251.549 -43.508 251.318C-43.3965 250.911 -31.5458 210.724 8.95193 215.543C48.502 220.226 52.3725 260.779 52.4044 261.185C52.4283 261.44 52.2371 261.655 51.9903 261.679H51.9504L51.9584 261.687ZM310.929 269.078C310.698 269.078 310.499 268.902 310.475 268.672C310.435 268.305 306.907 231.694 342.308 219.047C374.738 207.459 397.484 233.924 397.707 234.187C397.866 234.378 397.842 234.672 397.651 234.832C397.46 234.991 397.165 234.967 397.006 234.776C396.783 234.513 374.443 208.534 342.618 219.907C307.911 232.307 311.351 268.21 311.391 268.568C311.415 268.823 311.24 269.046 310.985 269.07C310.969 269.07 310.953 269.07 310.937 269.07L310.929 269.078ZM68.707 265.207C68.5 265.207 68.3168 265.064 68.261 264.865L60.9499 236.265C60.8862 236.018 61.0375 235.772 61.2844 235.708C61.5313 235.644 61.7782 235.795 61.8419 236.042L69.153 264.642C69.2167 264.889 69.0654 265.135 68.8185 265.199C68.7787 265.207 68.7469 265.215 68.707 265.215V265.207ZM247.686 265.207H243.735C243.481 265.207 243.281 265 243.281 264.753C243.281 264.506 243.488 264.299 243.735 264.299H247.686C247.94 264.299 248.14 264.506 248.14 264.753C248.14 265 247.933 265.207 247.686 265.207Z" fill="#090909"/>
<path d="M3.62421 275.703C9.67653 275.703 14.5829 270.797 14.5829 264.745C14.5829 258.693 9.67653 253.786 3.62421 253.786C-2.4281 253.786 -7.33447 258.693 -7.33447 264.745C-7.33447 270.797 -2.4281 275.703 3.62421 275.703Z" fill="#090909"/>
<path d="M359.112 275.703C365.164 275.703 370.071 270.797 370.071 264.745C370.071 258.693 365.164 253.786 359.112 253.786C353.06 253.786 348.153 258.693 348.153 264.745C348.153 270.797 353.06 275.703 359.112 275.703Z" fill="#090909"/>
<path d="M278.706 167.901C275.146 167.932 271.594 167.646 268.082 167.056C267.835 167.009 267.676 166.77 267.724 166.515C267.771 166.268 268.002 166.109 268.249 166.156C268.249 166.156 268.257 166.156 268.265 166.156C276.054 167.407 284.002 167.247 291.736 165.686C303.905 163.154 304.223 154.792 304.231 154.441C304.239 154.194 304.446 153.995 304.701 153.995C304.956 153.995 305.155 154.21 305.147 154.457C305.147 154.553 304.837 163.895 291.919 166.578C287.57 167.463 283.142 167.909 278.706 167.893V167.901ZM71.5663 263.55C71.3114 263.55 71.1123 263.343 71.1123 263.088C71.1123 262.929 71.1999 262.778 71.3433 262.698L75.7952 260.126C76.0103 259.99 76.289 260.054 76.4244 260.269C76.5598 260.484 76.4961 260.763 76.281 260.898C76.2731 260.898 76.2572 260.914 76.2492 260.914L71.7972 263.486C71.7255 263.526 71.6459 263.55 71.5663 263.55ZM319.029 160.9C319.029 160.9 320.279 156.735 323.146 156.806C326.013 156.878 326.244 166.459 319.029 160.9ZM215.144 237.515C214.921 237.515 214.738 237.356 214.698 237.141L199.765 156.902C199.71 156.655 199.861 156.408 200.108 156.353C200.355 156.297 200.602 156.448 200.657 156.695C200.657 156.711 200.657 156.727 200.657 156.735L215.59 236.974C215.638 237.221 215.471 237.46 215.224 237.507C215.192 237.507 215.168 237.515 215.136 237.515H215.144ZM118.268 236.607C118.029 236.607 117.83 236.416 117.814 236.177L112.629 156.846C112.614 156.591 112.805 156.376 113.06 156.36C113.306 156.353 113.521 156.536 113.545 156.791L118.73 236.122C118.746 236.376 118.555 236.591 118.3 236.607C118.292 236.607 118.284 236.607 118.268 236.607Z" fill="#090909"/>
<path d="M199.447 159.466C200.841 159.466 201.971 158.336 201.971 156.942C201.971 155.547 200.841 154.417 199.447 154.417C198.052 154.417 196.922 155.547 196.922 156.942C196.922 158.336 198.052 159.466 199.447 159.466Z" fill="#090909"/>
<path d="M114.596 156.488C114.596 157.635 113.673 158.559 112.526 158.559C111.379 158.559 110.455 157.635 110.455 156.488C110.455 155.341 111.379 154.417 112.526 154.417C113.673 154.417 114.596 155.341 114.596 156.488ZM303.108 152.323C303.108 153.868 301.858 155.118 300.313 155.118C298.768 155.118 297.517 153.868 297.517 152.323C297.517 150.778 298.768 149.527 300.313 149.527C301.858 149.527 303.108 150.778 303.108 152.323ZM271.132 167.455C271.132 168.888 269.969 170.059 268.536 170.059C267.102 170.059 265.931 168.896 265.931 167.463C265.931 166.029 267.094 164.858 268.528 164.858C269.961 164.858 271.124 166.021 271.124 167.455H271.132ZM357.057 264.745C357.057 266.314 358.332 267.588 359.901 267.588C361.47 267.588 362.744 266.314 362.744 264.745C362.744 263.176 361.47 261.902 359.901 261.902C358.332 261.902 357.057 263.176 357.057 264.745Z" fill="#090909"/>
<path d="M3.22562 267.469C4.62874 267.469 5.76619 266.331 5.76619 264.928C5.76619 263.525 4.62874 262.388 3.22562 262.388C1.82251 262.388 0.685059 263.525 0.685059 264.928C0.685059 266.331 1.82251 267.469 3.22562 267.469Z" fill="#090909"/>
<path d="M261.081 261.575L250.107 266.489L249.916 264.522L261.081 261.575ZM175.499 259.186L164.524 264.107L164.333 262.132L175.499 259.186ZM89.7165 259.743L78.7499 264.745L78.5508 262.69L89.7165 259.743Z" fill="#090909"/>
<path d="M68.5079 275.353C62.3039 275.353 57.2705 270.319 57.2705 264.115C57.2705 257.911 62.3039 252.878 68.5079 252.878V253.794C62.8056 253.794 58.1864 258.413 58.1864 264.115C58.1864 269.818 62.8056 274.437 68.5079 274.437C74.2103 274.437 78.8295 269.818 78.8295 264.115H79.7454C79.7454 270.319 74.712 275.345 68.5079 275.353Z" fill="#090909"/>
<path d="M248.132 275.353C241.928 275.353 236.895 270.32 236.895 264.115C236.895 260.524 238.615 257.147 241.514 255.028L242.055 255.769C237.444 259.13 236.433 265.581 239.786 270.192C243.146 274.803 249.597 275.815 254.209 272.462C256.877 270.519 258.454 267.421 258.454 264.115H259.369C259.369 270.32 254.336 275.345 248.132 275.353Z" fill="#090909"/>
<path d="M164.333 275.353C158.129 275.353 153.096 270.32 153.096 264.116C153.096 260.97 154.418 257.967 156.727 255.841L157.349 256.518C153.151 260.38 152.873 266.911 156.735 271.108C160.598 275.305 167.129 275.584 171.326 271.721C171.971 271.124 172.536 270.455 173.014 269.714L173.787 270.208C171.724 273.426 168.156 275.361 164.341 275.353H164.333Z" fill="#090909"/>
<path fill-rule="evenodd" clip-rule="evenodd" d="M67.0111 239.371L56.6577 249.884L75.7478 264.665C75.7478 264.665 77.1734 261.663 73.4541 256.494C69.7428 251.325 74.6567 245.711 74.6567 245.711L67.0032 239.371H67.0111Z" fill="#FCC63A"/>
<path fill-rule="evenodd" clip-rule="evenodd" d="M71.0726 234.313L67.0029 239.355L74.4415 245.639C73.5734 241.792 72.4504 238.009 71.0726 234.313Z" fill="#FF8066"/>
<path fill-rule="evenodd" clip-rule="evenodd" d="M73.7329 256.988C69.9579 256.55 69.1137 251.23 70.5552 247.073C71.9967 242.908 74.0196 242.78 76.7593 244.261C74.7603 245.528 73.3028 247.495 72.6657 249.773C71.9728 252.218 72.363 254.846 73.7329 256.988ZM56.6577 249.884L57.7249 248.817L75.8912 264.236C75.8673 264.379 75.8115 264.522 75.7398 264.65L56.6577 249.884Z" fill="white"/>
<path d="M73.7647 247.797C73.717 247.797 73.6692 247.781 73.6373 247.757L69.2411 244.699C69.1376 244.619 69.1216 244.476 69.2013 244.38C69.273 244.285 69.4004 244.261 69.5039 244.325L73.9001 247.383C74.0037 247.455 74.0276 247.598 73.9559 247.701C73.9161 247.765 73.8444 247.797 73.7727 247.797H73.7647ZM72.363 250.497C72.363 250.497 72.3153 250.497 72.2914 250.489L67.6562 249.031C67.5368 249 67.4571 248.88 67.489 248.753C67.5208 248.633 67.6403 248.554 67.7677 248.585C67.7757 248.585 67.7837 248.585 67.7916 248.593L72.4268 250.051C72.5462 250.091 72.6179 250.218 72.5781 250.338C72.5462 250.433 72.4586 250.497 72.3551 250.497H72.363ZM72.3073 252.496H72.2993L67.8075 252.273C67.6801 252.273 67.5846 252.161 67.5846 252.042C67.5846 251.922 67.696 251.819 67.8155 251.819H67.8235L72.3153 252.042C72.4427 252.042 72.5383 252.153 72.5383 252.273C72.5383 252.4 72.4268 252.496 72.3073 252.496ZM68.5084 254.67C68.381 254.67 68.2774 254.567 68.2774 254.439C68.2774 254.328 68.365 254.224 68.4765 254.216L72.2914 253.738C72.4188 253.722 72.5303 253.818 72.5383 253.945C72.5542 254.065 72.4666 254.176 72.3471 254.192L68.5323 254.67H68.5004H68.5084Z" fill="#090909"/>
<path fill-rule="evenodd" clip-rule="evenodd" d="M98.987 100.62C96.8526 98.7719 89.7804 96.4703 87.1204 99.9666C84.4603 103.463 84.6833 104.49 78.6783 102.826C72.6734 101.161 67.7675 102.428 66.8277 108.679C65.8879 114.931 59.3573 110.814 52.5081 117.91C45.6589 125.006 54.7301 135.136 54.7301 135.136C54.7301 135.136 79.4987 119.861 90.322 119.813C101.145 119.758 101.328 110.312 101.328 110.312C101.551 112.287 100.62 116.341 100.62 116.341C106.163 107.891 103.335 104.387 98.987 100.62Z" fill="#090909"/>
<path fill-rule="evenodd" clip-rule="evenodd" d="M152.793 238.821L142.439 249.342L161.53 264.123C161.53 264.123 162.955 261.121 159.236 255.952C155.517 250.783 160.438 245.169 160.438 245.169L152.785 238.829L152.793 238.821Z" fill="#506186"/>
<path fill-rule="evenodd" clip-rule="evenodd" d="M125.953 163.807C123.994 175.928 138.147 195.664 150.308 218.672C162.469 241.681 162.867 262.507 162.867 262.507L176.86 258.716C176.86 258.716 177.569 241.728 177.075 233.047C177.075 233.047 192.574 220.894 193.872 209.983C195.17 199.072 172.568 171.453 172.568 171.453C172.568 171.453 127.905 151.67 125.953 163.791V163.807Z" fill="white"/>
<path fill-rule="evenodd" clip-rule="evenodd" d="M176.654 130.556C172.911 130.413 169.176 130.907 165.6 132.03C165.6 132.03 166.707 143.53 172.958 147.361C179.21 151.192 192.869 153.517 195.768 156.225C198.667 158.933 202.45 163.982 203.278 163.751C204.106 163.52 200.164 158.765 201.056 159.06C201.94 159.355 204.879 163.401 205.333 162.787C205.787 162.174 201.526 157.077 202.243 156.989C202.952 156.902 205.89 161.155 206.559 160.852C207.228 160.549 204.202 156.719 203.119 155.564C202.036 154.409 207.969 159.172 208.096 158.296C208.216 157.428 202.721 153.772 203.509 153.366C204.297 152.968 207.666 153.621 207.579 152.721C207.491 151.821 203.501 151.319 200.363 150.682C197.225 150.053 185.263 141.483 181.711 139.078C178.159 136.673 176.67 130.556 176.67 130.556H176.654Z" fill="#FF8066"/>
<path fill-rule="evenodd" clip-rule="evenodd" d="M165.129 118.523C165.129 118.523 151.598 119.582 143.642 129.816C135.686 140.05 128.884 154.457 125.069 163.456C133.36 166.714 141.858 169.445 150.499 171.62C162.612 174.463 171.835 173.961 172.472 173.077C173.109 172.193 175.682 150.037 175.658 141.069C175.634 132.102 175.777 124.782 175.777 124.782C175.777 124.782 168.044 123.452 165.129 118.515V118.523Z" fill="#2052BE"/>
<path fill-rule="evenodd" clip-rule="evenodd" d="M175.339 123.611C177.49 126.574 182.587 138.186 182.587 138.186L175.355 144.35C175.355 144.35 173.181 120.657 175.331 123.611H175.339Z" fill="#2052BE"/>
<path fill-rule="evenodd" clip-rule="evenodd" d="M172.529 112.399C170.792 110.217 165.504 105.382 168.881 101.974C168.881 101.974 167.519 100.636 168.491 99.2977C168.491 99.2977 168.419 101.623 169.701 101.488C169.701 101.488 170.761 96.6855 175.3 97.9996C177.888 98.7721 180.572 99.2261 183.272 99.3455C183.272 99.3455 183.623 96.8209 186.378 97.8164C189.134 98.8119 187.111 100.962 187.111 100.962C189.03 101.177 190.472 102.81 190.456 104.745C190.488 108.17 184.738 107.588 184.738 107.588C184.738 107.588 174.273 114.581 172.537 112.407L172.529 112.399Z" fill="#090909"/>
<path fill-rule="evenodd" clip-rule="evenodd" d="M185.263 104.833C185.263 104.833 184.88 115.019 179.847 114.891C176.271 114.804 175.793 124.99 175.793 124.99C175.793 124.99 167.765 124.727 165.105 118.507C165.105 118.507 173.332 112.876 173.165 110.193C171.644 110.264 170.346 109.093 170.274 107.564C170.274 107.548 170.274 107.525 170.274 107.509C170.075 106.179 170.991 104.944 172.313 104.745C172.91 104.657 173.516 104.793 174.017 105.127C174.806 105.788 175.22 106.792 175.124 107.811L176.614 107.684C177.362 106.529 177.49 105.08 176.956 103.805C178.716 104.498 180.715 104.06 182.029 102.698C182.029 102.698 182.985 106.911 185.271 104.833H185.263Z" fill="#FF8066"/>
<path fill-rule="evenodd" clip-rule="evenodd" d="M175.068 108.002L176.637 107.883L176.518 108.209L175.021 108.281L175.068 107.994V108.002ZM179.584 114.899C178.15 114.915 176.629 112.956 176.629 112.956C176.359 114.366 176.629 115.831 177.41 117.042C177.617 116.564 177.912 116.126 178.27 115.743C178.66 115.385 179.106 115.098 179.592 114.899H179.584Z" fill="#090909"/>
<path fill-rule="evenodd" clip-rule="evenodd" d="M163.218 139.739C163.218 139.739 155.389 142.24 151.041 145.266C151.041 145.266 155.079 156.09 162.103 158.176C169.128 160.263 182.93 158.973 186.426 160.844C189.922 162.716 194.884 166.61 195.624 166.172C196.365 165.734 191.332 162.158 192.264 162.214C193.195 162.27 197.082 165.416 197.353 164.707C197.623 163.998 192.2 160.175 192.869 159.905C193.538 159.642 197.464 162.987 198.038 162.525C198.603 162.063 194.685 159.14 193.347 158.312C192.001 157.475 198.961 160.542 198.858 159.666C198.754 158.79 192.494 156.679 193.156 156.09C193.817 155.5 197.241 155.261 196.923 154.417C196.604 153.573 192.614 154.115 189.428 154.314C186.243 154.513 172.465 149.328 168.411 147.926C164.357 146.525 163.218 139.747 163.218 139.747V139.739Z" fill="#FF8066"/>
<path fill-rule="evenodd" clip-rule="evenodd" d="M175.857 125.045C173.707 124.925 171.613 124.376 169.685 123.42C167.662 122.329 166.054 120.617 165.09 118.53L165.743 118.068C166.778 119.884 168.26 121.421 170.036 122.528C171.836 123.484 173.827 124.041 175.865 124.161V125.045H175.857Z" fill="white"/>
<path fill-rule="evenodd" clip-rule="evenodd" d="M164.333 262.14L175.499 259.193L174.233 268.065L165.138 270.415L164.333 262.148V262.14ZM156.855 233.764L152.785 238.805L160.224 245.089C159.356 241.242 158.233 237.451 156.855 233.756V233.764Z" fill="#FF8066"/>
<path fill-rule="evenodd" clip-rule="evenodd" d="M165.097 269.969L165.065 286.128L188.257 280.704C188.257 280.704 187.915 278.315 181.663 277.296C175.411 276.276 173.762 272.031 174.304 268.033L165.097 269.969Z" fill="#506186"/>
<path fill-rule="evenodd" clip-rule="evenodd" d="M181.607 277.288C179.274 279.072 175.475 277.742 173.189 274.541C170.911 271.339 170.497 264.904 174.718 264.737C174.718 264.737 173.993 269.643 175.889 273.338C177.02 275.52 179.162 277.002 181.607 277.288ZM159.523 256.438C155.748 256 154.903 250.68 156.345 246.523C157.786 242.358 159.801 242.23 162.549 243.719C160.55 244.986 159.093 246.953 158.455 249.231C157.77 251.676 158.153 254.304 159.523 256.446V256.438ZM165.082 286.113V284.87L188.138 280.402C188.194 280.506 188.233 280.617 188.257 280.729L165.082 286.121V286.113ZM142.439 249.334L143.507 248.267L161.673 263.686C161.649 263.829 161.593 263.972 161.522 264.1L142.439 249.334Z" fill="white"/>
<path fill-rule="evenodd" clip-rule="evenodd" d="M177.075 233.088C176.948 229.432 177.298 224.223 173.253 215.75C173.253 215.75 176.701 218.115 181.121 229.536C181.121 229.536 180.245 230.356 179.242 231.248C178.238 232.14 177.075 233.095 177.075 233.095V233.088ZM163.592 141.388C164.914 140.44 165.918 138.999 163.25 139.748C160.582 140.496 154.601 142.694 151.025 145.235C147.449 147.767 150.682 147.576 152.004 147.457L151.789 147.043C153.709 145.195 155.923 143.674 158.336 142.543C162.605 140.456 163.361 140.488 163.361 140.488L163.584 141.404L163.592 141.388ZM175.586 144.136C175.483 141.882 175.228 139.636 174.837 137.414L177.681 142.368L175.586 144.136Z" fill="#090909"/>
<path d="M173.229 109.524C173.102 109.524 172.998 109.42 172.998 109.293C172.998 109.261 173.006 109.221 173.022 109.189C173.341 108.64 173.412 107.986 173.221 107.381C172.998 106.848 172.584 106.418 172.066 106.171C171.947 106.131 171.883 105.995 171.931 105.876C171.979 105.756 172.106 105.693 172.226 105.741C172.234 105.741 172.242 105.741 172.258 105.756C172.895 106.059 173.388 106.585 173.659 107.23C173.89 107.955 173.811 108.735 173.436 109.396C173.396 109.476 173.317 109.524 173.229 109.524Z" fill="#090909"/>
<path d="M171.549 108.687C171.421 108.687 171.318 108.584 171.318 108.456C171.318 108.385 171.349 108.313 171.413 108.273C171.994 107.835 172.656 107.509 173.348 107.301C173.468 107.278 173.587 107.349 173.611 107.469C173.611 107.469 173.611 107.477 173.611 107.485C173.635 107.612 173.555 107.732 173.428 107.755C172.799 107.955 172.21 108.257 171.676 108.647C171.636 108.679 171.588 108.695 171.541 108.695L171.549 108.687ZM181.504 113.147H181.488C180.835 113.052 180.261 112.685 179.895 112.144C179.823 112.04 179.855 111.897 179.959 111.825C180.062 111.753 180.206 111.785 180.277 111.889C180.564 112.311 181.01 112.606 181.52 112.693C181.647 112.693 181.743 112.805 181.743 112.932C181.743 113.06 181.631 113.155 181.504 113.155V113.147ZM175.985 221.954C175.897 221.954 175.809 221.898 175.777 221.818C171.326 211.433 159.108 184.076 158.989 183.797C158.941 183.678 158.989 183.55 159.108 183.495C159.228 183.447 159.355 183.495 159.411 183.614C159.531 183.885 171.748 211.25 176.2 221.635C176.247 221.754 176.2 221.882 176.08 221.938C176.048 221.954 176.024 221.954 175.992 221.954H175.985Z" fill="#090909"/>
<path d="M161.681 188.926C161.553 188.926 161.45 188.823 161.45 188.696C161.45 188.64 161.474 188.576 161.514 188.536C162.836 187.158 162.836 182.603 162.836 182.563C162.836 182.436 162.939 182.332 163.067 182.332C163.194 182.332 163.298 182.436 163.298 182.563C163.298 182.754 163.298 187.35 161.84 188.855C161.8 188.903 161.737 188.926 161.673 188.926H161.681ZM177.378 272.733C176.383 272.733 175.069 271.196 174.71 270.742L169.693 272.471C169.573 272.51 169.446 272.447 169.406 272.327C169.366 272.208 169.43 272.08 169.549 272.04L174.67 270.28C174.925 269.699 176.048 267.278 177.307 267.031C177.697 266.959 178.095 267.103 178.358 267.397C178.645 267.644 178.764 268.027 178.676 268.385C178.445 269.277 176.884 270.01 175.825 270.408C176.725 270.551 177.92 270.854 178.23 271.459C178.366 271.722 178.342 272.033 178.167 272.271C178.023 272.542 177.745 272.717 177.442 272.733H177.386H177.378ZM175.355 270.798C175.969 271.491 176.837 272.279 177.378 272.279H177.41C177.561 272.271 177.705 272.176 177.768 272.04C177.856 271.937 177.872 271.794 177.816 271.674C177.585 271.228 176.359 270.933 175.355 270.806V270.798ZM177.506 267.461C177.466 267.461 177.426 267.461 177.386 267.469C176.582 267.628 175.682 269.181 175.228 270.121C176.303 269.747 178.031 269.006 178.222 268.257C178.27 268.05 178.191 267.835 178.015 267.7C177.888 267.549 177.697 267.461 177.506 267.453V267.461ZM173.38 277.034C173.253 277.034 173.149 276.93 173.149 276.803C173.149 276.731 173.181 276.668 173.237 276.62L176.383 274.159C176.486 274.079 176.63 274.095 176.701 274.199C176.773 274.302 176.765 274.446 176.661 274.517L173.516 276.978C173.476 277.01 173.428 277.026 173.372 277.026L173.38 277.034ZM175.969 278.523C175.929 278.523 175.881 278.515 175.849 278.491C175.746 278.428 175.706 278.284 175.777 278.181L177.458 275.489C177.522 275.377 177.657 275.338 177.768 275.401C177.88 275.465 177.92 275.6 177.856 275.712C177.856 275.712 177.856 275.72 177.848 275.728L176.168 278.42C176.128 278.483 176.056 278.531 175.977 278.531L175.969 278.523ZM178.262 279.16C178.135 279.16 178.031 279.057 178.031 278.929C178.031 278.906 178.031 278.882 178.047 278.858L178.899 276.429C178.947 276.309 179.083 276.253 179.194 276.301C179.306 276.349 179.361 276.469 179.329 276.58L178.477 279.009C178.445 279.105 178.358 279.16 178.262 279.16ZM159.546 247.248C159.499 247.248 159.451 247.232 159.419 247.208L155.023 244.15C154.919 244.078 154.887 243.935 154.959 243.831C155.031 243.728 155.174 243.696 155.278 243.768L159.674 246.826C159.777 246.898 159.801 247.041 159.73 247.145C159.69 247.208 159.618 247.24 159.546 247.24V247.248ZM158.145 249.94C158.145 249.94 158.097 249.94 158.073 249.932L153.438 248.475C153.319 248.435 153.247 248.307 153.287 248.188C153.326 248.068 153.454 247.997 153.573 248.036L158.209 249.494C158.328 249.534 158.392 249.661 158.36 249.781C158.328 249.876 158.24 249.94 158.145 249.94ZM158.089 251.939H158.081L153.589 251.716C153.462 251.716 153.366 251.604 153.374 251.477C153.374 251.358 153.478 251.254 153.597 251.262C153.597 251.262 153.605 251.262 153.613 251.262L158.105 251.477C158.232 251.477 158.328 251.588 158.328 251.708C158.328 251.835 158.216 251.931 158.097 251.931L158.089 251.939ZM154.29 254.121C154.163 254.121 154.067 254.01 154.067 253.89C154.067 253.779 154.155 253.683 154.258 253.667L158.073 253.189C158.193 253.173 158.312 253.253 158.328 253.372C158.328 253.372 158.328 253.38 158.328 253.388C158.344 253.516 158.256 253.627 158.129 253.643L154.314 254.121H154.29ZM149.759 147.162C149.663 147.162 149.583 147.107 149.544 147.019C148.054 143.348 146.565 135.121 147.712 131.083C147.736 130.963 147.863 130.884 147.983 130.908C148.102 130.931 148.182 131.059 148.158 131.178C148.158 131.186 148.158 131.194 148.158 131.202C147.043 135.145 148.508 143.228 149.974 146.836C150.021 146.955 149.966 147.083 149.846 147.131C149.822 147.139 149.79 147.146 149.759 147.146V147.162Z" fill="#090909"/>
<path d="M147.489 135.104C147.489 135.104 147.449 135.104 147.433 135.104C145.689 134.674 145.211 132.085 145.188 131.974C145.172 131.847 145.251 131.735 145.379 131.711C145.498 131.695 145.61 131.775 145.634 131.894C145.634 131.918 146.08 134.299 147.537 134.658C147.656 134.69 147.736 134.809 147.704 134.937C147.68 135.04 147.585 135.112 147.481 135.112L147.489 135.104ZM164.485 140.097C164.381 140.097 164.286 140.026 164.262 139.922C163.641 137.493 163.505 130.493 163.505 130.19C163.505 130.063 163.601 129.959 163.728 129.959C163.856 129.959 163.959 130.055 163.959 130.182C163.959 130.254 164.102 137.429 164.708 139.811C164.74 139.93 164.668 140.058 164.54 140.089C164.525 140.089 164.501 140.089 164.485 140.089V140.097Z" fill="#090909"/>
<path fill-rule="evenodd" clip-rule="evenodd" d="M238.384 241.203L228.03 251.716L247.12 266.497C247.12 266.497 248.546 263.495 244.827 258.326C241.115 253.157 246.029 247.543 246.029 247.543L238.376 241.203H238.384Z" fill="#2052BE"/>
<path fill-rule="evenodd" clip-rule="evenodd" d="M211.536 166.197C209.577 178.318 223.73 198.053 235.891 221.062C248.052 244.07 248.45 264.896 248.45 264.896L262.443 261.105C262.443 261.105 263.152 244.126 262.658 235.437C262.658 235.437 278.157 223.284 279.455 212.373C280.753 201.462 258.151 173.842 258.151 173.842C258.151 173.842 213.488 154.059 211.536 166.181V166.197Z" fill="#506186"/>
<path fill-rule="evenodd" clip-rule="evenodd" d="M272.287 102.348C274.692 104.538 276.277 111.642 272.048 116.309C272.932 114.039 273.53 111.674 273.816 109.253C273.816 109.253 271.913 116.142 267.636 116.11C263.359 116.078 228.89 132.843 228.89 132.843C228.89 132.843 228.237 123.103 233.86 116.397C239.483 109.699 247.98 110.24 247.98 110.24C247.98 110.24 249.804 102.452 257.06 99.5526C263.327 97.0439 268.504 98.9155 272.279 102.348H272.287Z" fill="#090909"/>
<path fill-rule="evenodd" clip-rule="evenodd" d="M262.245 132.938C258.502 132.795 254.766 133.289 251.19 134.412C251.19 134.412 252.297 145.912 258.549 149.743C264.801 153.573 278.46 155.899 281.359 158.607C284.258 161.315 288.041 166.364 288.869 166.133C289.697 165.902 285.755 161.147 286.647 161.442C287.539 161.737 290.47 165.782 290.924 165.169C291.378 164.556 287.117 159.459 287.834 159.371C288.542 159.284 291.481 163.537 292.15 163.234C292.819 162.931 289.785 159.101 288.71 157.946C287.626 156.791 293.56 161.553 293.687 160.677C293.807 159.801 288.311 156.154 289.1 155.748C289.888 155.349 293.257 156.002 293.17 155.103C293.082 154.203 289.092 153.701 285.954 153.064C282.816 152.435 270.854 143.865 267.302 141.46C263.75 139.055 262.261 132.938 262.261 132.938H262.245Z" fill="#FF8066"/>
<path fill-rule="evenodd" clip-rule="evenodd" d="M250.712 120.903C250.712 120.903 237.181 121.963 229.217 132.197C221.261 142.431 214.459 156.838 210.645 165.837C218.935 169.095 227.433 171.826 236.074 174.001C248.188 176.844 257.41 176.342 258.047 175.458C258.684 174.574 261.257 152.418 261.233 143.45C261.209 134.482 261.352 127.163 261.352 127.163C261.352 127.163 253.619 125.833 250.704 120.896L250.712 120.903Z" fill="#FCC63A"/>
<path fill-rule="evenodd" clip-rule="evenodd" d="M260.922 126.001C263.073 128.964 268.17 140.576 268.17 140.576L260.938 146.74C260.938 146.74 258.764 123.046 260.914 126.001H260.922Z" fill="#FCC63A"/>
<path fill-rule="evenodd" clip-rule="evenodd" d="M270.846 107.213C270.846 107.213 270.463 117.399 265.43 117.272C261.854 117.184 261.376 127.371 261.376 127.371C261.376 127.371 253.349 127.108 250.688 120.888C250.688 120.888 258.915 115.257 258.748 112.573C257.227 112.645 255.929 111.474 255.857 109.945C255.857 109.929 255.857 109.905 255.857 109.889C255.658 108.559 256.574 107.325 257.896 107.126C258.493 107.038 259.099 107.173 259.6 107.508C260.875 108.36 260.914 109.18 260.914 109.18C264.283 108.83 267.604 108.177 270.846 107.213Z" fill="#FF8066"/>
<path fill-rule="evenodd" clip-rule="evenodd" d="M265.167 117.28C263.734 117.296 262.212 115.337 262.212 115.337C261.942 116.747 262.212 118.212 262.993 119.423C263.2 118.945 263.495 118.507 263.853 118.124C264.243 117.766 264.689 117.479 265.175 117.28H265.167Z" fill="#090909"/>
<path fill-rule="evenodd" clip-rule="evenodd" d="M248.801 142.128C248.801 142.128 240.972 144.629 236.624 147.655C236.624 147.655 240.662 158.478 247.694 160.565C254.719 162.652 268.52 161.361 272.017 163.233C275.513 165.105 280.475 168.999 281.215 168.561C281.956 168.123 276.923 164.547 277.854 164.603C278.786 164.659 282.673 167.812 282.944 167.096C283.214 166.379 277.791 162.564 278.46 162.293C279.129 162.03 283.055 165.375 283.628 164.913C284.202 164.451 280.284 161.529 278.938 160.7C277.592 159.864 284.552 162.93 284.449 162.054C284.345 161.178 278.085 159.068 278.746 158.478C279.408 157.889 282.832 157.65 282.514 156.806C282.195 155.962 278.205 156.503 275.019 156.702C271.826 156.901 258.056 151.717 254.002 150.315C249.948 148.913 248.809 142.136 248.809 142.136L248.801 142.128Z" fill="#FF8066"/>
<path fill-rule="evenodd" clip-rule="evenodd" d="M261.44 127.427C259.29 127.307 257.195 126.758 255.268 125.802C253.245 124.711 251.637 122.999 250.673 120.912L251.326 120.45C252.361 122.266 253.843 123.803 255.619 124.91C257.418 125.866 259.41 126.423 261.448 126.543V127.427H261.44Z" fill="white"/>
<path fill-rule="evenodd" clip-rule="evenodd" d="M249.916 264.522L261.082 261.575L259.815 270.447L250.72 272.797L249.916 264.53V264.522ZM242.446 236.146L238.376 241.187L245.814 247.478C244.946 243.632 243.823 239.849 242.446 236.146Z" fill="#FF8066"/>
<path fill-rule="evenodd" clip-rule="evenodd" d="M250.68 272.35L250.648 288.51L273.84 283.086C273.84 283.086 273.498 280.697 267.246 279.677C260.994 278.658 259.345 274.413 259.887 270.415L250.68 272.35Z" fill="#2052BE"/>
<path fill-rule="evenodd" clip-rule="evenodd" d="M267.19 279.669C264.857 281.453 261.05 280.123 258.772 276.922C256.494 273.72 256.08 267.285 260.301 267.118C260.301 267.118 259.576 272.024 261.472 275.719C262.603 277.901 264.745 279.383 267.19 279.669ZM245.106 258.819C241.331 258.381 240.486 253.061 241.928 248.904C243.369 244.739 245.384 244.611 248.132 246.092C246.133 247.359 244.676 249.326 244.038 251.604C243.345 254.049 243.736 256.677 245.106 258.819ZM250.665 288.494V287.251L273.721 282.783C273.777 282.887 273.816 282.99 273.84 283.11L250.665 288.502V288.494ZM228.022 251.715L229.09 250.648L247.256 266.067C247.232 266.21 247.176 266.353 247.105 266.481L228.022 251.715Z" fill="white"/>
<path fill-rule="evenodd" clip-rule="evenodd" d="M262.659 235.476C262.531 231.821 262.882 226.612 258.836 218.13C258.836 218.13 262.284 220.504 266.705 231.916C266.705 231.916 265.829 232.737 264.825 233.629C263.822 234.521 262.659 235.476 262.659 235.476ZM249.175 143.769C250.498 142.821 251.501 141.38 248.833 142.128C246.165 142.877 240.184 145.075 236.608 147.616C233.04 150.148 236.266 149.957 237.588 149.838L237.373 149.424C239.292 147.576 241.506 146.055 243.919 144.924C248.188 142.837 248.944 142.869 248.944 142.869L249.167 143.785L249.175 143.769ZM261.169 146.517C261.066 144.263 260.811 142.017 260.421 139.795L263.264 144.749L261.169 146.517Z" fill="#090909"/>
<path d="M261.568 224.335C261.48 224.335 261.392 224.279 261.36 224.199C256.908 213.814 244.691 186.457 244.572 186.186C244.524 186.067 244.572 185.939 244.691 185.884C244.811 185.836 244.938 185.884 244.994 186.003C245.114 186.274 257.331 213.639 261.783 224.024C261.83 224.143 261.783 224.271 261.663 224.327C261.631 224.342 261.599 224.342 261.575 224.342L261.568 224.335Z" fill="#090909"/>
<path d="M247.264 191.316C247.136 191.316 247.033 191.212 247.033 191.085C247.033 191.029 247.057 190.965 247.097 190.925C248.427 189.548 248.419 185 248.419 184.952C248.419 184.825 248.522 184.721 248.65 184.721C248.777 184.721 248.881 184.825 248.881 184.952C248.881 185.143 248.881 189.739 247.431 191.244C247.391 191.292 247.328 191.316 247.264 191.316ZM262.961 275.115C261.966 275.115 260.66 273.577 260.293 273.123L255.276 274.844C255.156 274.876 255.029 274.812 254.989 274.684C254.957 274.573 255.013 274.453 255.125 274.406L260.245 272.646C260.5 272.064 261.623 269.643 262.882 269.396C263.272 269.325 263.67 269.468 263.933 269.763C264.22 270.009 264.339 270.384 264.251 270.75C264.02 271.642 262.459 272.375 261.4 272.773C262.292 272.916 263.495 273.227 263.805 273.832C263.933 274.095 263.909 274.406 263.742 274.645C263.59 274.915 263.32 275.083 263.017 275.107H262.961V275.115ZM260.938 273.179C261.568 273.888 262.459 274.716 262.993 274.661C263.144 274.653 263.288 274.557 263.351 274.422C263.439 274.318 263.455 274.175 263.399 274.055C263.168 273.609 261.942 273.315 260.938 273.187V273.179ZM263.089 269.842C263.049 269.842 263.009 269.842 262.969 269.85C262.165 270.009 261.265 271.555 260.811 272.502C261.886 272.128 263.614 271.387 263.805 270.639C263.853 270.432 263.774 270.217 263.598 270.081C263.471 269.93 263.28 269.842 263.081 269.834L263.089 269.842ZM258.963 279.415C258.836 279.415 258.732 279.312 258.732 279.192C258.732 279.12 258.764 279.049 258.82 279.009L261.966 276.548C262.069 276.468 262.213 276.484 262.284 276.588C262.356 276.691 262.348 276.835 262.244 276.906L259.099 279.367C259.059 279.399 259.011 279.415 258.955 279.415H258.963ZM261.56 280.904C261.52 280.904 261.472 280.889 261.44 280.873C261.337 280.809 261.297 280.666 261.368 280.562L263.049 277.862C263.113 277.759 263.248 277.719 263.359 277.783C263.463 277.846 263.503 277.99 263.431 278.093L261.751 280.793C261.711 280.857 261.639 280.904 261.56 280.904ZM263.845 281.542C263.718 281.542 263.614 281.438 263.614 281.311C263.614 281.287 263.614 281.263 263.63 281.239L264.49 278.81C264.522 278.69 264.65 278.619 264.769 278.651C264.889 278.682 264.96 278.81 264.928 278.929C264.928 278.937 264.928 278.953 264.912 278.961L264.052 281.39C264.02 281.486 263.933 281.542 263.837 281.542H263.845ZM245.129 249.629C245.082 249.629 245.034 249.613 245.002 249.589L240.606 246.531C240.502 246.467 240.462 246.324 240.534 246.213C240.598 246.109 240.741 246.069 240.853 246.141C240.853 246.141 240.869 246.149 240.869 246.157L245.265 249.215C245.368 249.287 245.392 249.43 245.321 249.534C245.281 249.597 245.209 249.629 245.137 249.629H245.129ZM243.736 252.329C243.736 252.329 243.688 252.329 243.664 252.321L239.029 250.864C238.909 250.832 238.83 250.712 238.862 250.585C238.894 250.465 239.013 250.386 239.14 250.418C239.148 250.418 239.156 250.418 239.164 250.426L243.799 251.883C243.919 251.923 243.991 252.05 243.951 252.17C243.919 252.265 243.831 252.329 243.728 252.329H243.736ZM243.672 254.328H243.664L239.172 254.105C239.045 254.105 238.949 253.994 238.949 253.874C238.949 253.747 239.061 253.651 239.18 253.651H239.188L243.68 253.874C243.807 253.874 243.903 253.986 243.903 254.105C243.903 254.225 243.792 254.328 243.672 254.328ZM239.881 256.502C239.754 256.502 239.65 256.399 239.65 256.271C239.65 256.16 239.738 256.056 239.849 256.048L243.664 255.57C243.792 255.555 243.903 255.642 243.919 255.762C243.935 255.889 243.847 256.001 243.72 256.016L239.905 256.494H239.873L239.881 256.502ZM235.342 149.544C235.246 149.544 235.166 149.488 235.127 149.4C233.637 145.729 232.148 137.502 233.295 133.464C233.319 133.337 233.446 133.265 233.566 133.289C233.685 133.313 233.765 133.44 233.741 133.56C233.741 133.567 233.741 133.575 233.733 133.591C232.618 137.534 234.083 145.617 235.549 149.233C235.596 149.352 235.541 149.48 235.421 149.528C235.397 149.536 235.365 149.544 235.334 149.544H235.342Z" fill="#090909"/>
<path d="M233.072 137.486C233.072 137.486 233.032 137.486 233.016 137.486C231.264 137.063 230.786 134.467 230.77 134.356C230.746 134.228 230.826 134.109 230.945 134.085C231.073 134.061 231.192 134.141 231.216 134.26C231.216 134.26 231.216 134.268 231.216 134.276C231.216 134.3 231.662 136.681 233.119 137.04C233.239 137.071 233.318 137.191 233.287 137.318C233.263 137.422 233.167 137.493 233.064 137.493L233.072 137.486ZM250.067 142.487C249.963 142.487 249.868 142.415 249.844 142.312C249.231 139.875 249.087 132.882 249.087 132.58C249.087 132.452 249.183 132.349 249.31 132.349C249.438 132.349 249.541 132.444 249.541 132.572C249.541 132.643 249.685 139.819 250.29 142.2C250.322 142.32 250.25 142.447 250.123 142.479C250.107 142.479 250.083 142.479 250.067 142.479V142.487Z" fill="#090909"/>
<path fill-rule="evenodd" clip-rule="evenodd" d="M270.981 107.078C269.492 108.536 266.306 110.16 261.257 110.447C261.257 110.447 266.585 109.085 268.369 107.636C268.369 107.636 272.47 105.621 270.981 107.078Z" fill="#090909"/>
<path fill-rule="evenodd" clip-rule="evenodd" d="M40.1717 164.365C38.2126 176.486 52.3649 196.221 64.5261 219.23C76.6874 242.238 77.0856 263.064 77.0856 263.064L91.0787 259.273C91.0787 259.273 91.7875 242.294 91.2937 233.605C91.2937 233.605 106.792 221.452 108.09 210.541C109.388 199.63 86.786 172.01 86.786 172.01C86.786 172.01 42.123 152.227 40.1717 164.349V164.365Z" fill="#417DC4"/>
<path fill-rule="evenodd" clip-rule="evenodd" d="M90.8715 131.106C87.1283 130.963 83.3931 131.457 79.8252 132.58C79.8252 132.58 80.9322 144.08 87.1841 147.911C93.436 151.741 107.094 154.067 109.993 156.775C112.892 159.483 116.675 164.532 117.504 164.301C118.332 164.07 114.39 159.315 115.282 159.61C116.174 159.905 119.104 163.95 119.558 163.337C120.012 162.724 115.752 157.627 116.468 157.539C117.177 157.46 120.116 161.705 120.777 161.402C121.438 161.099 118.42 157.269 117.336 156.114C116.253 154.959 122.187 159.721 122.306 158.845C122.426 157.969 116.93 154.322 117.719 153.916C118.507 153.509 121.876 154.17 121.788 153.27C121.701 152.371 117.711 151.869 114.573 151.232C111.435 150.603 99.4728 142.033 95.9208 139.628C92.3688 137.223 90.8795 131.098 90.8795 131.098L90.8715 131.106Z" fill="#FF8066"/>
<path fill-rule="evenodd" clip-rule="evenodd" d="M79.3475 119.08C79.3475 119.08 65.8164 120.139 57.8522 130.373C49.888 140.607 43.0946 155.015 39.2798 164.014C47.5705 167.271 56.0682 170.003 64.7094 172.177C76.8228 175.021 86.0453 174.519 86.6825 173.635C87.3196 172.751 89.892 150.594 89.8681 141.627C89.8442 132.659 89.9876 125.34 89.9876 125.34C89.9876 125.34 82.2544 124.01 79.3395 119.072L79.3475 119.08Z" fill="#506186"/>
<path fill-rule="evenodd" clip-rule="evenodd" d="M89.5576 124.169C91.7079 127.132 96.805 138.744 96.805 138.744L89.5735 144.908C89.5735 144.908 87.3993 121.207 89.5496 124.169H89.5576Z" fill="#506186"/>
<path fill-rule="evenodd" clip-rule="evenodd" d="M99.3297 106.791C99.3297 106.791 98.2466 115.424 94.0654 115.44C90.4895 115.456 90.0116 125.539 90.0116 125.539C90.0116 125.539 81.9838 125.276 79.3237 119.056C79.3237 119.056 87.5507 113.425 87.3835 110.741C85.8623 110.821 84.5641 109.642 84.4845 108.121C84.4845 108.097 84.4845 108.081 84.4845 108.058C84.2854 106.727 85.2013 105.493 86.5233 105.294C87.1206 105.206 87.7259 105.342 88.2277 105.676C89.0161 106.337 89.4302 107.341 89.3347 108.36C89.3347 108.36 92.3053 108.416 95.3397 104.521C95.6184 104.171 96.1281 104.115 96.4865 104.394C96.59 104.474 96.6697 104.585 96.7254 104.705C97.1794 105.716 97.9917 106.863 99.3297 106.791Z" fill="#FF8066"/>
<path fill-rule="evenodd" clip-rule="evenodd" d="M93.7945 115.457C92.361 115.473 90.8398 113.514 90.8398 113.514C90.5691 114.923 90.8398 116.389 91.6203 117.599C91.8274 117.121 92.1221 116.683 92.4805 116.301C92.8707 115.943 93.3167 115.656 93.8025 115.457H93.7945Z" fill="#090909"/>
<path fill-rule="evenodd" clip-rule="evenodd" d="M77.436 140.297C77.436 140.297 69.6072 142.798 65.2588 145.824C65.2588 145.824 69.2966 156.647 76.321 158.734C83.3454 160.821 97.1473 159.53 100.644 161.402C104.14 163.273 109.101 167.168 109.842 166.73C110.583 166.292 105.549 162.716 106.481 162.772C107.413 162.827 111.3 165.981 111.57 165.265C111.849 164.556 106.418 160.725 107.087 160.462C107.756 160.199 111.682 163.544 112.255 163.082C112.821 162.62 108.91 159.706 107.564 158.869C106.218 158.033 113.179 161.099 113.076 160.223C112.972 159.347 106.712 157.237 107.373 156.647C108.034 156.058 111.459 155.819 111.14 154.975C110.822 154.131 106.832 154.672 103.646 154.871C100.452 155.07 86.6824 149.886 82.6286 148.484C78.5749 147.082 77.436 140.305 77.436 140.305V140.297Z" fill="#FF8066"/>
<path fill-rule="evenodd" clip-rule="evenodd" d="M90.0673 125.595C87.917 125.475 85.8224 124.926 83.8951 123.97C81.8722 122.879 80.2635 121.167 79.2998 119.08L79.9529 118.618C80.9882 120.442 82.4695 121.971 84.2455 123.078C86.0454 124.034 88.0365 124.591 90.0673 124.711V125.595Z" fill="white"/>
<path fill-rule="evenodd" clip-rule="evenodd" d="M78.5513 262.691L89.717 259.744L88.4507 268.616L79.3556 270.966L78.5513 262.699V262.691Z" fill="#FF8066"/>
<path fill-rule="evenodd" clip-rule="evenodd" d="M79.3155 270.519L79.2837 286.679L102.475 281.255C102.475 281.255 102.133 278.866 95.881 277.846C89.6291 276.827 87.9805 272.582 88.5221 268.584L79.3155 270.519Z" fill="#FCC63A"/>
<path fill-rule="evenodd" clip-rule="evenodd" d="M95.8251 277.838C93.4916 279.614 89.6847 278.292 87.407 275.091C85.1292 271.889 84.7151 265.454 88.9361 265.295C88.9361 265.295 88.2114 270.201 90.0989 273.896C91.2298 276.078 93.3721 277.56 95.8171 277.846L95.8251 277.838ZM79.2915 286.663V285.42L102.348 280.952C102.403 281.056 102.443 281.168 102.467 281.279L79.2915 286.671V286.663Z" fill="white"/>
<path fill-rule="evenodd" clip-rule="evenodd" d="M91.2937 233.645C91.1662 229.99 91.5167 224.773 87.4709 216.299C87.4709 216.299 90.9193 218.673 95.3395 230.085C95.3395 230.085 94.4634 230.914 93.4599 231.798C92.4564 232.682 91.2937 233.645 91.2937 233.645ZM77.8103 141.938C79.1324 140.99 80.1359 139.549 77.4679 140.297C74.7999 141.038 68.8188 143.244 65.2429 145.785C61.667 148.317 64.9004 148.126 66.2225 147.999L66.0075 147.585C67.9268 145.737 70.1409 144.216 72.554 143.085C76.8228 140.998 77.5794 141.03 77.5794 141.03L77.8024 141.946L77.8103 141.938ZM89.8044 144.686C89.7008 142.432 89.446 140.186 89.0557 137.964L91.8989 142.926L89.8044 144.694V144.686Z" fill="#090909"/>
<path d="M90.1945 222.511C90.1069 222.511 90.0193 222.455 89.9874 222.375C85.5355 211.99 73.3184 184.633 73.199 184.362C73.1512 184.243 73.199 184.116 73.3184 184.06C73.4379 184.004 73.5653 184.06 73.6211 184.179C73.7405 184.45 85.9576 211.815 90.4095 222.2C90.4573 222.32 90.4095 222.447 90.2901 222.503C90.2582 222.519 90.2343 222.519 90.2025 222.519L90.1945 222.511Z" fill="#090909"/>
<path d="M75.8992 189.484C75.7717 189.484 75.6682 189.38 75.6682 189.253C75.6682 189.197 75.6921 189.133 75.7319 189.093C77.054 187.716 77.054 183.16 77.054 183.12C77.054 182.993 77.1575 182.889 77.2849 182.889C77.4123 182.889 77.5159 182.993 77.5159 183.12C77.5159 183.311 77.5159 187.907 76.0584 189.412C76.0186 189.46 75.9549 189.484 75.8912 189.484H75.8992ZM91.5965 273.283C90.601 273.283 89.2869 271.745 88.9285 271.291L83.9111 273.02C83.7916 273.052 83.6642 272.98 83.6323 272.86C83.6005 272.749 83.6562 272.629 83.7677 272.59L88.8887 270.83C89.1436 270.248 90.2665 267.827 91.5248 267.58C91.9151 267.508 92.3133 267.652 92.5761 267.947C92.8628 268.193 92.9823 268.568 92.8947 268.934C92.6637 269.826 91.1027 270.559 90.0435 270.957C90.9355 271.1 92.1381 271.403 92.4487 272.008C92.5841 272.271 92.5602 272.582 92.385 272.829C92.2416 273.099 91.9629 273.267 91.6602 273.29H91.6045L91.5965 273.283ZM89.5657 271.347C90.1789 272.04 91.047 272.829 91.5885 272.829H91.6204C91.7717 272.821 91.9151 272.725 91.9788 272.59C92.0664 272.486 92.0823 272.343 92.0266 272.223C91.7956 271.777 90.5691 271.483 89.5657 271.355V271.347ZM91.7239 268.01C91.6841 268.01 91.6443 268.01 91.6045 268.018C90.8001 268.177 89.9001 269.73 89.4462 270.67C90.5213 270.296 92.2496 269.555 92.4407 268.807C92.4885 268.6 92.4089 268.385 92.2336 268.249C92.1062 268.098 91.9151 268.01 91.7239 268.002V268.01ZM87.5905 277.591C87.4631 277.591 87.3596 277.488 87.3596 277.36C87.3596 277.288 87.3914 277.225 87.4472 277.177L90.593 274.716C90.6966 274.636 90.8399 274.652 90.9116 274.756C90.9912 274.859 90.9753 275.003 90.8718 275.074L87.7259 277.535C87.6861 277.567 87.6383 277.583 87.5826 277.583L87.5905 277.591ZM90.1869 279.072C90.147 279.072 90.0992 279.064 90.0674 279.041C89.9639 278.977 89.924 278.834 89.9957 278.73L91.6762 276.03C91.7399 275.919 91.8753 275.879 91.9868 275.943C92.0983 276.006 92.1381 276.142 92.0744 276.253C92.0744 276.253 92.0744 276.269 92.0664 276.269L90.386 278.961C90.3461 279.025 90.2745 279.072 90.1948 279.072H90.1869ZM92.4805 279.71C92.3531 279.71 92.2496 279.606 92.2496 279.479C92.2496 279.455 92.2496 279.431 92.2655 279.407L93.1177 276.978C93.1495 276.858 93.277 276.787 93.3964 276.819C93.5159 276.85 93.5876 276.978 93.5557 277.097C93.5557 277.105 93.5557 277.121 93.5477 277.129L92.6956 279.558C92.6637 279.646 92.5761 279.71 92.4805 279.71ZM63.9768 147.712C63.8812 147.712 63.8016 147.656 63.7618 147.568C62.2725 143.897 60.7832 135.67 61.93 131.632C61.9539 131.504 62.0813 131.433 62.2008 131.457C62.3282 131.481 62.3999 131.608 62.376 131.727C62.376 131.735 62.376 131.743 62.368 131.759C61.2451 135.702 62.7185 143.785 64.1839 147.401C64.2317 147.52 64.1759 147.648 64.0564 147.696C64.0326 147.704 64.0007 147.712 63.9688 147.712H63.9768Z" fill="#090909"/>
<path d="M61.7068 135.654C61.7068 135.654 61.6669 135.654 61.651 135.654C59.9069 135.232 59.429 132.636 59.4051 132.524C59.3812 132.397 59.4609 132.278 59.5803 132.254C59.7078 132.23 59.8272 132.309 59.8511 132.429C59.8511 132.429 59.8511 132.437 59.8511 132.445C59.8511 132.469 60.2971 134.85 61.7545 135.208C61.874 135.24 61.9537 135.36 61.9218 135.487C61.8979 135.591 61.8023 135.662 61.6988 135.662L61.7068 135.654ZM78.7023 140.656C78.5988 140.656 78.5032 140.584 78.4793 140.481C77.8581 138.052 77.7227 131.051 77.7227 130.756C77.7227 130.629 77.8183 130.525 77.9457 130.525C78.0731 130.525 78.1687 130.629 78.1767 130.748C78.1767 130.82 78.312 137.988 78.9253 140.369C78.9571 140.489 78.8855 140.616 78.758 140.648C78.7421 140.648 78.7182 140.648 78.7023 140.648V140.656Z" fill="#090909"/>
<path d="M87.7259 110.105C87.5985 110.105 87.495 110.001 87.495 109.874C87.495 109.85 87.495 109.826 87.5109 109.802C87.8613 108.998 87.8613 108.082 87.5188 107.27C87.272 106.808 86.8578 106.449 86.364 106.266C86.2446 106.226 86.1729 106.107 86.2127 105.979C86.2525 105.86 86.372 105.788 86.4994 105.82C87.1127 106.035 87.6224 106.473 87.933 107.047C88.3392 107.97 88.3471 109.014 87.9569 109.938C87.925 110.033 87.8374 110.097 87.7418 110.097L87.7259 110.105Z" fill="#090909"/>
<path d="M85.5597 108.559C85.512 108.559 85.4562 108.543 85.4164 108.511C85.3208 108.432 85.2969 108.288 85.3766 108.193C86.0296 107.524 86.9614 107.213 87.8853 107.357C88.0127 107.357 88.1083 107.468 88.1003 107.596C88.0923 107.723 87.9888 107.819 87.8614 107.811C87.0889 107.675 86.2924 107.922 85.7349 108.472C85.6951 108.527 85.6234 108.559 85.5518 108.559H85.5597ZM95.1008 113.736C95.1008 113.736 95.0769 113.736 95.0689 113.736C94.2168 113.616 93.9699 112.581 93.9619 112.541C93.9301 112.422 94.0097 112.294 94.1371 112.27C94.2566 112.239 94.384 112.31 94.4079 112.438C94.4079 112.446 94.5911 113.202 95.1327 113.282C95.2601 113.298 95.3397 113.417 95.3238 113.545C95.3079 113.656 95.2123 113.736 95.1008 113.736ZM259.139 111.649C259.139 111.649 259.107 111.649 259.091 111.649C258.971 111.625 258.892 111.498 258.916 111.379C259.274 110.025 258.605 108.615 257.339 108.034C257.219 107.986 257.171 107.85 257.219 107.731C257.267 107.611 257.402 107.564 257.522 107.611C258.979 108.296 259.752 109.913 259.37 111.474C259.346 111.578 259.25 111.649 259.147 111.649H259.139Z" fill="#090909"/>
<path d="M257.187 110.862C257.187 110.862 257.155 110.862 257.139 110.862C257.02 110.838 256.932 110.719 256.964 110.591C257.211 109.691 258.055 109.094 258.979 109.165C259.106 109.165 259.21 109.269 259.21 109.396C259.21 109.524 259.106 109.627 258.979 109.627C258.27 109.548 257.601 109.994 257.402 110.687C257.378 110.79 257.283 110.87 257.179 110.87L257.187 110.862ZM267.763 111.857C267.763 112.049 267.612 112.2 267.421 112.2C267.23 112.2 267.079 112.049 267.079 111.857C267.079 111.666 267.23 111.515 267.421 111.515C267.612 111.515 267.763 111.666 267.763 111.857ZM267.086 116.214C267.039 116.214 266.991 116.198 266.951 116.166C266.664 115.943 266.418 115.664 266.226 115.354C266.171 115.242 266.21 115.107 266.322 115.043C266.433 114.987 266.569 115.027 266.633 115.139C266.792 115.393 266.991 115.616 267.23 115.8C267.333 115.879 267.349 116.023 267.278 116.118C267.238 116.174 267.166 116.214 267.094 116.206L267.086 116.214ZM181.089 107.875C181.089 108.082 180.922 108.25 180.715 108.25C180.508 108.25 180.341 108.082 180.341 107.875C180.341 107.668 180.508 107.501 180.715 107.501C180.922 107.501 181.089 107.668 181.089 107.875ZM184.53 108.759C184.53 108.966 184.363 109.134 184.156 109.134C183.949 109.134 183.781 108.966 183.781 108.759C183.781 108.552 183.949 108.385 184.156 108.385C184.363 108.385 184.53 108.552 184.53 108.759Z" fill="#090909"/>
<path fill-rule="evenodd" clip-rule="evenodd" d="M95.7615 108.624C95.7615 108.839 95.5862 109.014 95.3712 109.014C95.1562 109.014 94.981 108.839 94.981 108.624C94.981 108.409 95.1562 108.233 95.3712 108.233C95.5862 108.233 95.7615 108.409 95.7615 108.624Z" fill="#090909"/>
<path d="M97.9752 110.264C98.1907 110.264 98.3654 110.089 98.3654 109.874C98.3654 109.658 98.1907 109.483 97.9752 109.483C97.7597 109.483 97.585 109.658 97.585 109.874C97.585 110.089 97.7597 110.264 97.9752 110.264Z" fill="#090909"/>
<path d="M84.1339 253.563C84.0144 253.563 83.9189 253.476 83.9029 253.356C83.895 253.245 82.8357 241.657 80.9004 230.085C79.7934 223.491 73.0239 210.684 65.8561 197.137C60.4963 186.999 54.9452 176.518 51.879 168.681C51.8392 168.562 51.9029 168.434 52.0224 168.395C52.1339 168.355 52.2534 168.411 52.3011 168.514C55.3594 176.327 60.8945 186.8 66.2544 196.922C73.438 210.509 80.2315 223.339 81.3464 230.013C83.2897 241.601 84.341 253.205 84.3569 253.316C84.3648 253.444 84.2772 253.555 84.1498 253.563H84.1259H84.1339ZM169.908 256.502C169.78 256.502 169.685 256.391 169.693 256.263C169.701 256.072 170.497 236.958 165.4 225.163C163.76 221.364 160.582 216.012 156.902 209.808C149.002 196.492 139.182 179.927 138.354 168.283C138.338 168.156 138.426 168.044 138.553 168.028C138.68 168.012 138.792 168.1 138.808 168.227C138.808 168.235 138.808 168.243 138.808 168.251C139.62 179.791 149.416 196.309 157.293 209.577C160.98 215.789 164.166 221.157 165.814 224.98C170.951 236.87 170.147 256.088 170.139 256.287C170.139 256.407 170.035 256.502 169.908 256.502ZM255.26 258.796C255.132 258.796 255.029 258.692 255.029 258.565C254.885 236.154 250.011 218.537 240.55 206.192C232.594 195.744 227.067 183.662 224.351 170.816C224.327 170.688 224.415 170.569 224.542 170.553C224.669 170.529 224.789 170.617 224.805 170.744C227.497 183.519 233 195.528 240.908 205.914C250.434 218.346 255.331 236.058 255.483 258.565C255.483 258.692 255.379 258.796 255.252 258.796H255.26ZM263.232 227.035C263.232 227.035 263.176 227.035 263.144 227.019C263.025 226.971 262.969 226.836 263.017 226.724C269.221 211.178 260.341 193.267 248.562 188.233C248.442 188.186 248.387 188.05 248.435 187.939C248.482 187.827 248.618 187.763 248.729 187.811C248.729 187.811 248.729 187.811 248.737 187.811C254.885 190.439 260.118 196.182 263.081 203.556C266.203 210.995 266.33 219.357 263.431 226.891C263.399 226.979 263.312 227.035 263.216 227.035H263.232Z" fill="#090909"/>
<path d="M76.3931 256.024C76.2656 256.024 76.1621 255.921 76.1621 255.793C76.1621 255.69 76.2258 255.602 76.3293 255.57L91.3338 251.142C91.4533 251.11 91.5807 251.174 91.6205 251.302C91.6524 251.421 91.5887 251.548 91.4613 251.588L76.4568 256.016C76.4568 256.016 76.417 256.024 76.3931 256.024ZM162.541 258.398C162.414 258.398 162.31 258.302 162.31 258.175C162.31 258.071 162.382 257.976 162.486 257.952L176.957 254.224C177.076 254.193 177.203 254.272 177.235 254.392C177.267 254.511 177.195 254.631 177.076 254.662L162.605 258.39C162.605 258.39 162.565 258.39 162.549 258.39L162.541 258.398ZM177.649 222.79C177.522 222.79 177.418 222.686 177.418 222.559C177.418 222.503 177.434 222.455 177.466 222.416C177.522 222.352 182.874 215.694 181.377 207.467C179.871 199.216 162.884 185.709 162.717 185.573C162.621 185.494 162.597 185.35 162.677 185.255C162.756 185.159 162.9 185.135 162.995 185.215C163.704 185.772 180.294 198.961 181.823 207.387C183.36 215.829 177.872 222.639 177.817 222.71C177.777 222.766 177.705 222.798 177.641 222.798L177.649 222.79ZM248.132 260.795C248.005 260.795 247.901 260.691 247.901 260.572C247.901 260.468 247.965 260.381 248.069 260.349L262.332 256.056C262.452 256.016 262.579 256.08 262.619 256.2C262.659 256.319 262.587 256.446 262.468 256.486L248.204 260.779C248.204 260.779 248.164 260.787 248.14 260.787L248.132 260.795Z" fill="#090909"/>
</g>
</svg>
