<svg width="352" height="352" viewBox="0 0 352 352" fill="none" xmlns="http://www.w3.org/2000/svg">
<mask id="mask0_26_8688" style="mask-type:luminance" maskUnits="userSpaceOnUse" x="0" y="0" width="352" height="352">
<path d="M176 352C273.202 352 352 273.202 352 176C352 78.7979 273.202 0 176 0C78.7979 0 0 78.7979 0 176C0 273.202 78.7979 352 176 352Z" fill="white"/>
</mask>
<g mask="url(#mask0_26_8688)">
<rect x="-43.5161" width="445.197" height="376.705" fill="#F5F5FE"/>
<path d="M340.798 366.12H-21.9699C-24.9461 349.796 -26.1158 317.818 1.38142 291.869C40.0692 255.357 66.4652 257.876 111.248 217.285C156.031 176.694 190.737 143.016 251.535 180.153C312.333 217.291 281.964 239.923 312.44 279.109C329.059 300.509 339.086 336.217 340.798 366.12Z" fill="#F9E8E1"/>
<path d="M334.516 312.208C334.999 309.697 333.356 307.27 330.847 306.786C328.337 306.303 325.91 307.946 325.427 310.457C324.944 312.968 326.586 315.395 329.096 315.878C331.606 316.362 334.033 314.718 334.516 312.208Z" fill="#F37F68"/>
<path d="M40.563 324.452C40.563 326.565 38.8517 328.28 36.7386 328.283C34.6255 328.283 32.9112 326.571 32.9082 324.458C32.9082 322.344 34.6195 320.629 36.7326 320.626H36.7356C38.8487 320.626 40.56 322.335 40.563 324.449V324.452Z" fill="#F37F68"/>
<path d="M77.9146 350.764C77.9146 352.94 76.1527 354.703 73.9771 354.703C71.8015 354.703 70.0396 352.94 70.0396 350.764C70.0396 348.588 71.8015 346.825 73.9771 346.825C76.1527 346.825 77.9146 348.588 77.9146 350.764Z" fill="#6488D2"/>
<path d="M292.615 345.83C292.615 348.144 290.74 350.019 288.428 350.019C286.115 350.019 284.24 348.144 284.24 345.83C284.24 343.517 286.115 341.642 288.428 341.642C290.74 341.642 292.615 343.517 292.615 345.83Z" fill="#FCBB61"/>
<path d="M292.684 284.956C292.684 287.27 290.809 289.145 288.496 289.145C286.184 289.145 284.309 287.27 284.309 284.956C284.309 282.643 286.184 280.768 288.496 280.768C290.809 280.768 292.684 282.643 292.684 284.956Z" fill="#6488D2"/>
<path d="M264.684 168.465C264.684 170.779 262.809 172.654 260.496 172.654C258.184 172.654 256.309 170.779 256.309 168.465C256.309 166.152 258.184 164.276 260.496 164.276C262.809 164.276 264.684 166.152 264.684 168.465Z" fill="#FCBB61"/>
<path d="M4.14476 346.7C4.67601 344.449 3.28199 342.192 1.03113 341.661C-1.21974 341.13 -3.47509 342.524 -4.00634 344.776C-4.5376 347.027 -3.14357 349.283 -0.892708 349.815C1.35816 350.346 3.61351 348.952 4.14476 346.7Z" fill="#FCBB61"/>
<path d="M76.8936 226.559C76.8936 228.217 78.2358 229.563 79.8936 229.566C81.5513 229.569 82.8966 228.223 82.8996 226.565C82.8996 224.906 81.5573 223.561 79.8995 223.558H79.8966C78.2388 223.558 76.8965 224.9 76.8936 226.559Z" fill="#FCBB61"/>
<mask id="mask1_26_8688" style="mask-type:luminance" maskUnits="userSpaceOnUse" x="23" y="121" width="274" height="245">
<path d="M296.02 121H23.7715V365.537H296.02V121Z" fill="white"/>
</mask>
<g mask="url(#mask1_26_8688)">
<path d="M120.921 226.845C120.921 226.845 124.66 211.878 123.981 206.43C123.302 200.982 119.901 204.048 117.862 206.088C115.823 208.127 109.701 219.012 109.701 219.012L120.921 226.845Z" fill="#894037"/>
<path d="M123.299 216.642C123.299 216.642 117.861 244.529 111.394 252.693C104.927 260.856 77.0545 260.174 73.995 253.032C70.9354 245.89 67.4473 214.662 71.0545 213.781C74.6617 212.9 123.299 216.642 123.299 216.642Z" fill="#894037"/>
<path d="M193.187 202.426C182.032 209.074 171.892 217.297 163.079 226.839C159.032 231.23 155.285 235.889 151.859 240.784L116.882 241.117L72.6411 247.932C76.5786 254.934 81.7662 261.16 87.9418 266.295C91.8972 269.57 109.644 284.266 133.502 281.262C155.285 278.52 170.933 262.434 177.359 250.299C178.8 247.587 180.097 244.464 186.883 229.893L193.187 202.426Z" fill="#934747"/>
<path d="M154.579 232.965L155.662 235.749L157.284 239.917L162.067 252.225L164.091 257.423L168.746 269.4C172.445 264.97 175.865 260.314 178.984 255.458C179.499 254.663 180.017 253.847 180.535 253.011C181.291 251.805 182.053 250.542 182.803 249.235C183.532 247.985 184.255 246.69 184.966 245.365C186.454 242.584 187.904 239.646 189.216 236.603C189.639 235.624 190.05 234.635 190.439 233.626C191.386 231.244 192.225 228.782 192.954 226.302C193.187 225.51 193.407 224.712 193.609 223.921C193.809 223.182 193.984 222.441 194.139 221.7C194.312 220.905 194.469 220.113 194.612 219.318C194.913 217.648 195.139 215.974 195.291 214.298C195.425 212.81 195.493 211.342 195.484 209.874C195.487 207.093 195.207 204.322 194.645 201.601C194.645 201.601 192.859 201.693 189.472 203.119C188.758 203.417 187.969 203.771 187.112 204.203C184.198 205.691 181.413 207.418 178.779 209.362C178.127 209.838 177.454 210.342 176.761 210.88C175.442 211.893 174.058 213.021 172.615 214.268C171.987 214.81 171.347 215.376 170.695 215.965C169.865 216.713 169.014 217.499 168.148 218.329C167.023 219.401 165.865 220.541 164.677 221.75C161.523 224.96 158.159 228.669 154.579 232.965Z" fill="#6488D2"/>
<path d="M225.639 187.629C218.799 187.793 212.031 189.058 205.594 191.371L204.9 202.262L226.659 198.183C226.32 194.661 225.981 191.142 225.639 187.629Z" fill="#FFAF30"/>
<path d="M168.538 316.752C167.05 330.81 165.014 352.541 163.776 379.18C162.699 402.236 163.106 419.67 163.228 427.411C163.66 455.268 164.538 508.033 166.502 617.173C181.833 623.357 198.916 623.607 214.419 617.876C213.755 586.342 213.229 539.874 214.419 487.955C215.306 449.251 216.904 411.792 219.214 375.581L221.892 466.528C223.372 516.744 224.845 566.966 226.312 617.194C242.863 620.174 259.83 619.942 276.292 616.515C275.47 582.316 275.101 554.51 274.932 535.908C274.458 486.981 273.048 438.063 272.991 389.133C272.991 382.566 273.461 363.625 270.363 338.819L268.11 320.783L168.538 316.752Z" fill="#311716"/>
<path d="M268.243 320.953C233.21 329.848 211.419 328.443 197.802 325.296L168.275 318.074C168.275 318.074 170.138 308.547 172.144 298.261C174.978 283.69 176.397 276.405 176.85 273.886C180.764 252.183 179.258 246.017 183.945 223.733C185.773 215.048 187.219 210.201 191.273 205.572C193.921 202.586 197.16 200.18 200.782 198.504C204.073 196.986 207.558 195.932 211.139 195.369L229.591 197.468L235.934 198.192L251.955 224.968L259.097 236.91C262.148 264.928 265.199 292.94 268.243 320.953Z" fill="#F9E8E1"/>
<path d="M229.594 197.481C229.038 204.048 222.764 209.22 215.118 209.22C207.874 209.22 201.868 204.581 200.775 198.517C204.067 196.998 207.552 195.945 211.133 195.382L229.594 197.481Z" fill="#311716"/>
<path d="M225.535 166.58V200.026C225.535 203.083 222.518 205.682 218.431 206.15C216.753 206.34 215.056 206.364 213.372 206.224L212.666 206.156C208.613 205.7 205.654 203.074 205.654 200.044V166.58H225.535Z" fill="#894037"/>
<path d="M220.996 179.769C220.996 179.769 218.154 193.405 205.639 196.048V185.536C210.445 182.377 216.454 179.769 220.996 179.769ZM199.832 155.559C196.764 155.234 193.767 154.41 190.966 153.114C188.038 151.754 186.183 150.896 185.18 148.89C183.57 145.66 184.826 140.774 188.24 138.345C191.216 136.219 194.66 136.838 195.383 136.984C195.68 133.495 197.916 130.47 201.163 129.163C205.925 127.273 210.035 130.339 210.225 130.488C210.82 130.003 213.076 128.213 216.124 128.481C219.6 128.779 222.672 131.646 223.603 135.627C226.579 135.21 229.484 136.386 231.082 138.687C232.728 141.051 232.338 143.653 232.234 144.248C233.824 145.305 235.077 146.8 235.844 148.55C237.008 151.304 237.145 155.362 234.824 157.735C234.338 158.226 233.773 158.628 233.151 158.926C233.63 160.289 233.85 161.733 233.803 163.177C233.639 167.411 231.041 170.823 226.731 176.354C226.216 177.015 225.785 177.545 225.508 177.882L223.065 178.495C222.338 176.307 221.826 174.053 221.535 171.767C220.94 167.101 221.657 165.136 221.237 163.43C220.526 160.462 216.163 157.101 199.832 155.559Z" fill="#311716"/>
<path d="M190.966 151.277C191.481 156.702 191.597 162.156 191.308 167.595C191.165 170.126 190.987 171.62 191.308 174.056C191.63 176.491 192.391 182.347 197.085 186.134C198.546 187.394 200.299 188.269 202.186 188.68C206.439 189.537 209.924 187.45 213.133 185.518C215.987 183.803 219.499 181.692 220.927 177.575C221.305 176.488 221.365 175.125 221.472 172.442C221.752 165.395 222.621 160.236 219.246 158.574C218.713 158.315 218.029 157.681 216.424 156.74C210.472 153.239 206.719 151.03 202.894 151.891C202.043 152.081 201.475 152.361 198.615 153.114C196.088 153.778 195.406 153.859 194.641 153.725C193.918 153.6 192.442 153.171 190.966 151.277Z" fill="#894037"/>
<path d="M218.095 165.452C218.55 161.203 221.232 158.682 223.279 158.902C224.782 159.072 226.062 160.748 226.434 162.284C226.937 164.368 225.761 166.125 224.75 167.643C223.699 169.197 222.312 170.492 220.687 171.427C219.815 169.435 218.952 167.444 218.095 165.452Z" fill="#894037"/>
<path d="M206.939 176.777C207.02 177.587 206.904 178.403 206.6 179.159C206.442 179.552 205.88 180.945 204.561 181.541C202.478 182.488 200.133 180.77 199.526 180.329C198.645 179.68 197.913 178.849 197.386 177.891C198.493 178.269 199.651 178.468 200.82 178.486C202.981 178.501 205.1 177.909 206.939 176.777Z" fill="#311716"/>
<path d="M194.645 165.226C195.391 165.226 195.996 164.621 195.996 163.874C195.996 163.128 195.391 162.522 194.645 162.522C193.899 162.522 193.294 163.128 193.294 163.874C193.294 164.621 193.899 165.226 194.645 165.226Z" fill="#311716"/>
<path d="M207.716 164.324C207.716 165.071 207.112 165.675 206.365 165.675C205.618 165.675 205.014 165.071 205.014 164.324C205.014 163.576 205.618 162.972 206.365 162.972C207.112 162.972 207.713 163.576 207.716 164.324ZM222.368 168.432C222.475 168.429 222.579 168.391 222.666 168.325C224.576 166.798 225.297 164.359 224.377 162.522C223.835 161.525 222.919 160.787 221.829 160.465C221.559 160.412 221.291 160.587 221.237 160.858C221.19 161.09 221.315 161.326 221.532 161.421C221.957 161.555 222.996 161.981 223.49 162.972C224.199 164.386 223.594 166.309 222.05 167.542C221.832 167.712 221.797 168.027 221.966 168.245C222.062 168.367 222.207 168.435 222.362 168.435H222.368V168.432ZM217.755 154.401C217.005 154.38 216.377 154.972 216.356 155.723C216.353 155.866 216.371 156.011 216.413 156.148C216.815 157.491 217.151 159.37 216.642 161.064C216.094 162.895 215.66 164.657 215.401 165.777C215.243 166.461 215.627 167.152 216.294 167.375C216.99 167.605 217.746 167.241 217.999 166.551C219.225 163.174 222.612 154.088 223.356 154.344C223.99 154.544 220.222 154.469 217.755 154.401ZM210.445 159.849C210.722 159.843 210.945 159.617 210.939 159.337C210.937 159.143 210.823 158.971 210.651 158.89C208.445 157.926 206.014 157.595 203.63 157.938C203.359 157.988 203.178 158.247 203.228 158.518C203.279 158.789 203.538 158.971 203.808 158.923C205.993 158.631 208.216 158.938 210.237 159.816C210.303 159.84 210.374 159.852 210.445 159.849ZM190.814 160.188C190.901 160.188 190.984 160.168 191.058 160.126C193.624 158.697 197.115 159.259 197.151 159.262C197.422 159.322 197.686 159.152 197.746 158.881C197.805 158.61 197.636 158.345 197.365 158.286C197.347 158.283 197.329 158.28 197.314 158.277C197.16 158.25 193.445 157.655 190.57 159.251C190.329 159.385 190.24 159.688 190.374 159.929C190.463 160.09 190.63 160.188 190.814 160.188ZM199.761 175.033C199.963 175.033 200.121 175.033 200.21 175.015C200.487 174.994 200.692 174.753 200.669 174.479C200.648 174.202 200.407 173.997 200.133 174.017C200.041 174.017 197.889 174.178 197.243 173.047C197.061 172.722 197.058 172.401 197.07 171.856C197.094 170.888 197.368 170.26 197.785 169.388C197.975 168.971 198.192 168.495 198.401 167.935C198.734 167.021 198.969 166.074 199.106 165.113C199.145 164.839 198.954 164.586 198.683 164.547C198.41 164.508 198.157 164.699 198.115 164.97C197.99 165.863 197.773 166.741 197.46 167.59C197.267 168.117 197.067 168.548 196.865 168.968C196.448 169.876 196.088 170.659 196.061 171.832C195.993 172.419 196.097 173.011 196.359 173.538C197.121 174.854 198.874 175.033 199.761 175.033Z" fill="#311716"/>
<path d="M221.559 215.858C221.559 215.959 221.576 216.061 221.588 216.156C221.588 216.329 221.618 216.504 221.63 216.68C221.642 216.856 221.657 216.995 221.672 217.15C221.687 217.305 221.693 217.406 221.701 217.531C221.71 217.656 221.722 217.764 221.734 217.88L222.752 229.803L222.957 232.185C223.478 238.261 223.999 244.335 224.517 250.405C224.568 251.001 224.624 251.596 224.675 252.192C224.743 252.975 224.809 253.767 224.874 254.55L226.66 275.253C226.716 275.887 226.77 276.521 226.824 277.155C227.038 279.668 227.252 282.181 227.469 284.697C227.562 285.783 227.657 286.867 227.749 287.954C228.222 293.452 228.696 298.951 229.163 304.45C229.213 305.046 229.267 305.641 229.315 306.213L229.457 307.859C229.52 308.651 229.588 309.446 229.657 310.241C230.704 322.423 231.749 334.606 232.791 346.789C236.85 348.084 241.026 348.98 245.258 349.468C246.615 349.626 248.023 349.742 249.478 349.816C249.693 349.816 249.91 349.837 250.127 349.843C260.297 350.209 270.413 348.239 279.702 344.079L278.372 337.702L277.776 334.767L277.095 331.51C276.973 330.938 276.854 330.364 276.735 329.792C276.339 327.857 275.934 325.922 275.526 323.986C275.36 323.197 275.196 322.409 275.029 321.605L272.967 311.723C272.967 311.655 272.937 311.583 272.925 311.515C272.767 310.759 272.607 310.006 272.452 309.249L270.166 298.293L269.925 297.138C269.8 296.543 269.675 295.938 269.547 295.328L268.681 291.187C267.743 286.682 266.803 282.181 265.865 277.679C265.678 276.786 265.496 275.917 265.312 275.033C264.833 272.728 264.354 270.424 263.868 268.12C263.142 264.663 263.868 268.096 263.868 268.087C263.749 267.533 263.633 266.973 263.52 266.42C263.032 264.094 262.547 261.769 262.065 259.441C261.455 256.529 260.845 253.618 260.24 250.709C260.118 250.114 259.996 249.545 259.877 248.958C259.678 247.982 259.476 247.005 259.264 246.029C259.103 245.249 258.94 244.469 258.776 243.686L258.544 242.578C257.574 237.922 256.603 233.266 255.63 228.609C255.437 227.692 255.246 226.77 255.053 225.853C253.74 219.556 252.428 213.262 251.112 206.968C251.035 206.587 250.952 206.206 250.874 205.825C250.746 205.2 250.612 204.572 250.484 203.946L250.362 203.863C250.157 203.726 249.943 203.592 249.725 203.455C243.916 199.767 237.344 197.453 230.505 196.691H230.475L229.797 196.62C229.056 196.548 228.356 196.501 227.713 196.465C228.511 197.867 229.071 199.391 229.368 200.975C229.508 201.723 229.585 202.482 229.597 203.241C229.609 204.048 229.55 204.855 229.413 205.649C228.928 208.356 227.627 210.851 225.684 212.795L225.517 212.967C224.892 213.584 224.222 214.152 223.511 214.664C223.3 214.816 223.097 214.962 222.916 215.078C222.481 215.367 222.026 215.626 221.559 215.858Z" fill="#6488D2"/>
<path d="M161.38 343.046C165.109 344.827 169.014 346.223 173.026 347.214C173.88 347.429 174.755 347.625 175.66 347.81C176.139 347.905 176.615 347.997 177.085 348.081C179.624 348.527 182.187 348.813 184.761 348.935C185.785 348.98 186.776 349.004 187.737 349.001C190.3 348.995 192.862 348.828 195.404 348.501L196.029 341.081C196.112 340.117 196.193 339.152 196.273 338.185C196.318 337.682 196.359 337.175 196.404 336.672C196.452 336.092 196.499 335.511 196.55 334.934L197.74 320.923C197.794 320.357 197.841 319.789 197.889 319.22C197.928 318.741 197.969 318.261 198.011 317.782C198.074 316.99 198.142 316.201 198.211 315.4C198.588 310.878 198.969 306.359 199.353 301.839C199.422 301.044 199.49 300.252 199.556 299.457L199.77 296.9C199.824 296.287 199.874 295.676 199.925 295.066C200.148 292.402 200.374 289.734 200.6 287.066C200.669 286.245 200.737 285.426 200.809 284.604C201.083 281.323 201.359 278.043 201.639 274.759C201.69 274.163 201.737 273.592 201.788 273.011L202.205 268.057C202.273 267.235 202.341 266.42 202.413 265.604C202.69 262.32 202.966 259.039 203.243 255.758C203.306 254.961 203.374 254.166 203.443 253.377C203.589 251.632 203.74 249.887 203.886 248.143C203.916 247.774 203.946 247.404 203.978 247.035C203.978 246.839 204.011 246.645 204.029 246.44L204.181 244.633L204.895 236.169C204.964 235.374 205.029 234.576 205.094 233.787L205.523 228.726L205.666 227.035C205.734 226.24 205.8 225.442 205.868 224.653C205.937 223.864 206.002 223.063 206.068 222.271C206.133 221.479 206.199 220.753 206.261 219.991C206.285 219.729 206.306 219.47 206.33 219.208C206.33 219.154 206.33 219.097 206.33 219.044C206.425 217.886 206.523 216.722 206.627 215.561C204.773 213.953 203.27 211.979 202.208 209.767C201.972 209.27 201.758 208.761 201.568 208.243C201.568 208.228 201.568 208.216 201.568 208.201C201.368 207.653 201.202 207.114 201.065 206.587C200.94 206.102 200.841 205.626 200.767 205.164C200.517 203.723 200.437 202.258 200.529 200.8C200.529 200.779 200.529 200.758 200.529 200.737C200.571 200.058 200.648 199.383 200.764 198.713C200.797 198.513 200.833 198.332 200.862 198.177C200.612 198.311 200.368 198.451 200.121 198.588L193.755 202.133L191.077 203.622L188.618 204.992C188.535 205.236 188.443 205.492 188.35 205.76C188.178 206.263 187.99 206.805 187.794 207.382C187.082 209.466 186.228 212.012 185.309 214.929L185.219 215.227C184.862 216.352 184.517 217.466 184.187 218.57C183.303 221.476 182.484 224.302 181.734 227.044C181.588 227.573 181.443 228.1 181.303 228.624C181.225 228.907 181.148 229.187 181.076 229.47C180.853 230.304 180.636 231.128 180.425 231.947C180.088 233.248 179.767 234.537 179.454 235.817C179.118 237.187 178.8 238.535 178.49 239.872C177.419 244.517 176.499 248.956 175.678 253.243C175.508 254.136 175.338 255.029 175.175 255.922C174.207 261.192 173.371 266.241 172.57 271.18C172.478 271.737 172.386 272.297 172.3 272.85L172.157 273.744C171.082 280.406 170.044 286.924 169.035 293.298C168.898 294.161 168.764 295.024 168.627 295.882C167.74 301.515 166.877 307.052 166.038 312.495C165.91 313.301 165.788 314.105 165.666 314.903L165.514 315.892L165.216 317.767C164.889 319.905 164.564 322.027 164.243 324.138L163.886 326.499C163.561 328.616 163.243 330.724 162.93 332.829C162.841 333.424 162.755 334.002 162.666 334.585C162.225 337.411 161.797 340.233 161.38 343.046Z" fill="#6488D2"/>
<path d="M221.368 216.922C221.425 217.023 221.487 217.121 221.547 217.219L221.66 217.16C221.877 217.05 222.255 216.862 222.707 216.564C225.023 215.159 229.782 211.592 231.067 205.308C231.636 202.435 231.431 199.46 230.472 196.692C230.463 196.668 230.454 196.644 230.445 196.62C230.428 196.567 230.407 196.513 230.392 196.462C230.186 196.087 229.981 195.709 229.782 195.331L225.63 187.62C225.877 189.329 225.764 191.071 225.3 192.735C223.829 197.82 219.823 199.139 218.157 202.598C216.951 205.108 216.713 209.359 221.368 216.922Z" fill="#6488D2"/>
<path d="M221.368 216.922C221.425 217.023 221.487 217.121 221.547 217.219L221.66 217.16C221.66 217.288 221.681 217.416 221.69 217.541C221.722 217.52 221.749 217.496 221.776 217.469C222.106 217.172 222.416 216.874 222.707 216.576C223.761 215.484 224.693 214.278 225.484 212.98C226.097 211.962 226.657 210.914 227.16 209.839L227.306 209.541C228.282 207.529 229.041 205.418 229.565 203.241C230.08 201.095 230.38 198.901 230.458 196.692V196.623C230.458 196.602 230.419 196.516 230.404 196.465C230.199 196.09 229.993 195.712 229.794 195.334C229.794 195.748 229.794 196.177 229.776 196.62C229.731 198.079 229.585 199.535 229.338 200.976C228.856 203.843 227.966 206.626 226.696 209.24L226.55 209.538C225.728 211.363 224.699 213.084 223.481 214.671C222.913 215.382 222.297 216.052 221.633 216.677L221.368 216.922Z" fill="#311716"/>
<path d="M227.68 237.286C228.806 237.286 229.719 236.373 229.719 235.246C229.719 234.12 228.806 233.207 227.68 233.207C226.554 233.207 225.642 234.12 225.642 235.246C225.642 236.373 226.554 237.286 227.68 237.286Z" fill="#311716"/>
<path d="M145.811 294.665C129.484 315.654 118.993 315.94 117.424 315.848C115.868 315.981 105.373 315.981 88.4834 295.445C86.5608 293.09 84.8673 290.559 83.4239 287.883C83.1262 287.347 82.8286 286.799 82.5578 286.251C81.0221 283.194 79.7036 280.035 78.6084 276.793C78.522 276.546 78.4357 276.296 78.3554 276.049C77.9149 274.736 77.5131 273.411 77.1262 272.08C76.9714 271.532 76.8286 270.987 76.6708 270.437C76.5131 269.886 76.3732 269.326 76.2452 268.769C76.1173 268.213 75.9476 267.62 75.8226 267.046C75.778 266.882 75.7423 266.721 75.7036 266.554C75.5696 265.959 75.4387 265.363 75.3107 264.786C75.1976 264.271 75.0905 263.756 74.9893 263.241C74.8732 262.678 74.7661 262.115 74.6559 261.559C74.6173 261.341 74.5726 261.121 74.5339 260.901C74.4268 260.326 74.3286 259.757 74.2363 259.189C74.025 257.998 73.8345 256.807 73.6649 255.616C73.522 254.631 73.3881 253.666 73.269 252.704C73.269 252.621 73.2422 252.538 73.2363 252.451C73.1113 251.478 73.0012 250.519 72.9 249.57C72.2452 243.514 71.897 237.432 71.8643 231.34C71.8791 229.462 73.4119 227.949 75.2899 227.961C75.4298 227.961 75.5667 227.973 75.7065 227.991H75.7244C76.0875 228.042 76.4417 228.089 76.7929 228.131H76.8107L77.8822 228.247C78.2334 228.28 78.5756 228.315 78.9209 228.339C79.2661 228.363 79.5935 228.39 79.9238 228.417C84.0489 228.682 87.3435 228.417 89.9894 227.839C90.4805 227.732 90.9477 227.607 91.3971 227.482C91.8465 227.357 92.2662 227.214 92.6739 227.068C92.9448 226.97 93.2097 226.863 93.4656 226.77C94.9031 226.184 96.2394 225.38 97.4329 224.389C100.067 222.162 100.216 221.795 103.385 220.149C111.371 216.154 120.743 216.026 128.835 219.804C132.055 221.364 132.213 221.724 134.9 223.879C138.329 226.621 144.525 228.872 156.725 226.907C158.582 226.612 160.323 227.881 160.615 229.739C160.639 229.884 160.651 230.033 160.657 230.182C160.951 241.787 160.374 275.938 145.811 294.665Z" fill="#FCBB61"/>
<path d="M116.085 217.05L117.424 315.848C115.868 315.982 105.373 315.982 88.4834 295.445C86.5608 293.09 84.8673 290.559 83.4239 287.883C83.1262 287.347 82.8286 286.799 82.5578 286.251C81.0221 283.194 79.7036 280.035 78.6084 276.793C78.522 276.546 78.4357 276.296 78.3554 276.049C77.9149 274.736 77.5131 273.411 77.1262 272.08C76.9714 271.532 76.8286 270.987 76.6708 270.437C76.5131 269.886 76.3732 269.326 76.2452 268.769C76.1173 268.213 75.9476 267.62 75.8226 267.046C75.778 266.882 75.7423 266.721 75.7036 266.554C75.5696 265.959 75.4387 265.363 75.3107 264.786C75.1976 264.271 75.0905 263.756 74.9893 263.241C74.8732 262.678 74.7661 262.115 74.6559 261.559C74.6173 261.341 74.5726 261.121 74.5339 260.901C74.4268 260.326 74.3286 259.757 74.2363 259.189C74.025 257.998 73.8345 256.807 73.6649 255.616C73.522 254.631 73.3881 253.666 73.269 252.705C73.269 252.621 73.2422 252.538 73.2363 252.451C73.1113 251.478 73.0012 250.519 72.9 249.57C72.2452 243.514 71.897 237.432 71.8643 231.34C71.8791 229.462 73.4119 227.949 75.2899 227.961C75.4298 227.961 75.5667 227.973 75.7065 227.991H75.7244C76.0875 228.048 76.4417 228.089 76.7929 228.131H76.8107C77.1738 228.173 77.531 228.217 77.8822 228.247C78.2334 228.277 78.5816 228.315 78.9209 228.339C79.2602 228.363 79.5994 228.396 79.9238 228.417C84.0489 228.688 87.3435 228.417 89.9894 227.839C90.4805 227.732 90.9477 227.613 91.3971 227.482C91.8465 227.351 92.2662 227.214 92.6739 227.068C92.9448 226.97 93.2097 226.869 93.4656 226.77C94.9031 226.184 96.2394 225.38 97.4329 224.389C100.067 222.162 100.216 221.795 103.385 220.149C107.323 218.148 111.668 217.086 116.085 217.05Z" fill="#E89D43"/>
<path d="M117.879 287.805C116.361 287.826 114.9 287.239 113.817 286.173L94.5189 267.164C92.3254 264.916 92.373 261.317 94.6201 259.123C96.8016 256.994 100.278 256.964 102.492 259.06L117.076 273.416L140.451 241.111C142.29 238.568 145.844 238 148.385 239.839C150.927 241.679 151.495 245.234 149.656 247.777L122.406 285.453C121.436 286.796 119.927 287.647 118.278 287.787C118.144 287.796 118.013 287.802 117.879 287.805Z" fill="white"/>
<path d="M117.013 318.836C113.219 318.887 102.344 316.973 86.1916 297.329C84.1559 294.825 82.3613 292.134 80.8345 289.291C80.5368 288.749 80.2392 288.168 79.9416 287.591C78.3404 284.408 76.9654 281.116 75.8255 277.739C75.7362 277.489 75.6439 277.224 75.5576 276.956C75.1529 275.766 74.7511 274.453 74.2987 272.896C74.135 272.318 73.9832 271.764 73.8314 271.204L73.7868 271.032C73.6529 270.511 73.516 269.993 73.388 269.472C73.26 268.951 73.0904 268.334 72.9654 267.745C72.9177 267.566 72.8761 267.391 72.8344 267.209L72.7719 266.932C72.6588 266.417 72.5427 265.908 72.4326 265.393C72.3225 264.878 72.2064 264.342 72.1023 263.806C72.007 263.336 71.9118 262.851 71.8046 262.368L71.6261 261.41C71.5189 260.847 71.4177 260.26 71.3284 259.674C71.1231 258.51 70.9296 257.313 70.7332 256.03C70.5903 255.047 70.4564 254.077 70.3374 253.112C70.3195 252.996 70.3046 252.883 70.2927 252.767C70.1677 251.793 70.0576 250.829 69.9564 249.879C69.2868 243.722 68.9356 237.536 68.9028 231.343C68.9118 227.824 71.7719 224.975 75.2898 224.984C75.516 224.984 75.7392 224.996 75.9654 225.022L76.1231 225.04L76.2928 225.064L77.0666 225.165H77.1618L78.0547 225.264L78.5071 225.308L79.1261 225.362C79.3791 225.386 79.5696 225.398 79.76 225.41L80.144 225.439C83.6529 225.663 86.7601 225.49 89.3435 224.921C89.778 224.826 90.2006 224.713 90.5935 224.603C90.9863 224.493 91.3226 224.379 91.65 224.26C91.8822 224.174 92.1084 224.085 92.3256 223.995C93.4804 223.525 94.5548 222.879 95.5131 222.084C95.9626 221.703 96.3435 221.375 96.6768 221.087C98.4626 219.536 99.2334 218.925 102.019 217.481C110.838 213.057 121.195 212.917 130.129 217.103C132.954 218.47 133.734 219.059 135.57 220.563C135.909 220.843 136.293 221.158 136.76 221.53C140.591 224.597 147.15 225.401 156.255 223.942C159.731 223.388 162.996 225.755 163.552 229.232C163.6 229.524 163.624 229.816 163.63 230.11C163.927 243.683 163.034 277.32 148.153 296.502C131.862 317.446 120.802 318.95 117.466 318.83L117.013 318.836ZM75.257 230.932C75.1588 230.935 75.0636 230.974 74.9892 231.039C74.8939 231.12 74.8404 231.239 74.8404 231.364C74.8761 237.339 75.2154 243.308 75.8582 249.251C75.9594 250.183 76.0636 251.12 76.1886 252.073C76.1886 252.121 76.1886 252.171 76.2035 252.219V252.234L76.2213 252.341C76.3374 253.279 76.4654 254.226 76.6053 255.187C76.7838 256.414 76.9654 257.551 77.1648 258.674C77.26 259.245 77.3553 259.793 77.4624 260.35L77.6321 261.243C77.7213 261.707 77.8136 262.175 77.9088 262.645C78.0071 263.151 78.1112 263.642 78.2065 264.134C78.3017 264.625 78.4267 265.14 78.5368 265.622L78.5963 265.884C78.6231 266 78.6529 266.131 78.6886 266.265C78.6886 266.295 78.7035 266.328 78.7124 266.358C78.8374 266.902 78.9684 267.45 79.1112 267.995C79.2541 268.54 79.3761 269.034 79.5041 269.537L79.5398 269.671C79.6767 270.174 79.8374 270.71 79.9773 271.252C80.3999 272.711 80.7809 273.932 81.1678 275.084C81.2511 275.337 81.3315 275.566 81.4118 275.795C82.4625 278.909 83.7273 281.946 85.2035 284.885C85.4654 285.397 85.7363 285.912 86.0161 286.418C87.3702 288.934 88.9565 291.318 90.7601 293.536C107.165 313.483 116.757 312.903 117.159 312.87C117.302 312.858 117.445 312.858 117.588 312.87C117.987 312.894 127.6 313.21 143.457 292.828C157.579 274.667 157.924 240.325 157.695 230.23C157.695 230.105 157.639 229.985 157.54 229.905C157.445 229.825 157.32 229.789 157.198 229.81C146.219 231.578 138.323 230.387 133.052 226.169C132.57 225.782 132.159 225.451 131.814 225.162C130.257 223.885 129.885 223.582 127.549 222.45C120.302 219.077 111.915 219.187 104.757 222.748C102.448 223.939 102.079 224.257 100.561 225.576C100.213 225.874 99.8197 226.216 99.3435 226.618C97.9179 227.806 96.3197 228.771 94.6024 229.476C94.3048 229.601 94.0072 229.723 93.6828 229.837C93.2363 229.997 92.7601 230.152 92.2274 230.31C91.6947 230.468 91.1947 230.593 90.6203 230.718C87.4982 231.406 83.8345 231.611 79.7333 231.358L79.3553 231.331L78.644 231.275C78.4535 231.275 78.2065 231.239 77.9535 231.215L77.4416 231.164L76.5487 231.069H76.4267L75.4922 230.947H75.3076L75.257 230.932Z" fill="white"/>
<path d="M230.401 263.472C231.527 263.472 232.44 262.559 232.44 261.433C232.44 260.307 231.527 259.394 230.401 259.394C229.275 259.394 228.362 260.307 228.362 261.433C228.362 262.559 229.275 263.472 230.401 263.472Z" fill="#311716"/>
<path d="M233.119 289.66C234.245 289.66 235.157 288.747 235.157 287.62C235.157 286.494 234.245 285.581 233.119 285.581C231.993 285.581 231.08 286.494 231.08 287.62C231.08 288.747 231.993 289.66 233.119 289.66Z" fill="#231F20"/>
<path d="M235.839 315.85C236.964 315.85 237.877 314.937 237.877 313.811C237.877 312.685 236.964 311.771 235.839 311.771C234.713 311.771 233.8 312.685 233.8 313.811C233.8 314.937 234.713 315.85 235.839 315.85Z" fill="#311716"/>
<path d="M245.359 229.905L236.181 269.359L183.82 301.328L194.02 308.902L254.199 273.441C254.199 273.441 250.8 235.011 245.359 229.905Z" fill="#311716"/>
<path d="M199.901 207.918C200.377 210.264 201.252 212.509 202.488 214.557C203.529 216.284 204.794 217.862 206.255 219.252L206.288 219.199C206.309 219.16 206.33 219.127 206.351 219.095C211.318 210.666 211.035 206.349 209.654 203.95C208.952 202.726 207.94 201.97 206.934 199.868C205.425 196.721 205.366 193.583 205.574 191.365L200.752 198.659L200.723 198.71C200.443 199.133 200.16 199.552 199.886 199.975L199.83 200.053C199.36 202.655 199.383 205.325 199.901 207.918Z" fill="#6488D2"/>
<path d="M200.832 210.518C201.267 211.908 201.82 213.257 202.487 214.552C203.493 216.514 204.749 218.336 206.219 219.976C206.243 219.714 206.264 219.455 206.288 219.193C206.309 219.154 206.329 219.122 206.35 219.089C206.329 219.074 206.312 219.053 206.303 219.029C201.978 213.983 199.877 207.403 200.475 200.785C200.475 200.764 200.475 200.743 200.475 200.723C200.541 199.984 200.636 199.291 200.74 198.639L200.71 198.689C200.743 198.49 200.779 198.308 200.809 198.153C200.559 198.287 200.314 198.427 200.067 198.564C199.993 199.002 199.928 199.457 199.874 199.955C199.451 203.503 199.776 207.103 200.832 210.518Z" fill="#311716"/>
<path d="M179.062 274.39L179.359 276.244C180.707 284.721 182.053 293.197 183.395 301.67L184.323 307.505C184.377 307.85 184.434 308.202 184.49 308.55C184.603 309.255 184.716 309.964 184.826 310.676C184.826 310.708 184.826 310.747 184.844 310.78C187.684 311.965 190.591 312.989 193.547 313.843C200.005 315.716 206.681 316.746 213.404 316.901C219.842 317.044 248.729 317.687 266.782 297.251C293.455 267.051 271.696 218.865 268.485 217.326C267.943 217.07 264.857 215.593 261.684 216.647C255.357 218.749 254.244 229.062 251.485 241.474C249.098 252.129 245.913 262.588 241.961 272.764L193.011 274.032L182.315 274.309L181.326 274.336L179.82 274.375L179.062 274.39Z" fill="#894037"/>
<path d="M235.839 198.275C236.904 203.75 237.901 209.487 238.791 215.469C239.012 216.939 239.226 218.431 239.434 219.934C239.851 222.971 240.241 226.067 240.601 229.226C240.946 232.269 241.253 235.267 241.52 238.217C241.595 239.033 241.666 239.846 241.735 240.656C241.973 243.463 242.178 246.223 242.351 248.935C242.416 249.915 242.473 250.885 242.526 251.856C242.726 255.393 242.875 258.846 242.979 262.216C246.657 264.384 250.675 265.911 254.866 266.736C255.315 266.825 255.774 266.905 256.241 266.977C256.628 267.039 257.015 267.09 257.399 267.138C262.166 267.7 267 267.34 271.631 266.078C272.559 265.831 273.461 265.554 274.33 265.262C279.187 263.58 283.753 261.148 287.86 258.054C288.78 257.366 289.467 256.798 289.899 256.435C289.818 255.875 289.729 255.291 289.625 254.681C288.643 248.804 286.943 243.067 284.565 237.604C284.536 237.533 284.503 237.458 284.47 237.387C284.214 236.791 283.914 236.121 283.577 235.368C282.842 233.775 281.89 231.837 280.655 229.685C280.232 228.952 279.78 228.199 279.295 227.422C277.36 224.323 275.164 221.393 272.729 218.669C272.134 217.99 271.503 217.314 270.839 216.642C269.503 215.266 268.047 213.9 266.467 212.56C264.268 210.696 261.943 208.984 259.512 207.436C258.753 206.954 257.997 206.495 257.247 206.064C254.97 204.748 252.616 203.572 250.199 202.542C249.393 202.199 248.604 201.884 247.818 201.589C243.937 200.112 239.928 199.002 235.839 198.275Z" fill="#6488D2"/>
<path d="M162.055 343.574C166.421 302.59 182.645 226.323 182.808 225.558L181.487 225.275C181.323 226.041 165.085 302.384 160.713 343.428L162.055 343.574Z" fill="#311716"/>
<path d="M181.091 277.075C181.091 277.075 167.603 261.761 162.639 263.559C157.675 265.357 166.425 274.574 167.124 278.445C167.824 282.315 181.091 277.075 181.091 277.075Z" fill="#934747"/>
<path d="M129.972 286.114C130.364 287.442 131.18 288.606 132.293 289.431C133.323 290.22 134.492 290.809 135.74 291.167C135.353 291.211 134.972 291.298 134.603 291.423C133.766 291.697 132.701 292.259 132.174 293.385C131.867 294.075 131.787 294.846 131.945 295.585C132.501 298.431 136.347 300.071 137.71 300.646C157.886 308.961 171.493 310.486 171.493 310.486C173.835 310.751 176.779 311.03 180.219 311.239C180.517 311.26 180.814 311.274 181.112 311.292L182.094 311.143C182.603 311.063 183.127 310.983 183.665 310.89C184.046 310.825 184.442 310.762 184.838 310.688C185.877 310.506 186.969 310.298 188.112 310.069C193.746 289.202 187.907 282.155 185.889 280.184C185.293 279.621 184.127 278.859 182.237 277.802C181.71 277.504 181.124 277.189 180.481 276.846L179.383 276.251C177.002 275.001 173.96 273.443 170.156 271.487C165.18 268.951 162.636 267.662 159.463 266.239C159.463 266.239 141.686 258.322 138.12 261.407C137.879 261.618 136.823 262.538 136.751 263.86C136.71 264.601 136.891 267.135 150.144 273.783C152.603 275.021 154.683 275.983 156.141 276.638C154.835 276.209 152.835 275.522 150.433 274.554C142.046 271.175 138.347 268.242 134.299 269.525C133.731 269.707 132.356 270.163 131.504 271.455C130.314 273.241 130.909 275.399 131.04 275.852C131.198 276.427 131.436 276.977 131.748 277.486C131.992 277.888 132.281 278.266 132.606 278.609C132.498 278.695 132.359 278.811 132.201 278.96C131.082 279.975 130.296 281.306 129.945 282.777C129.683 283.875 129.692 285.022 129.972 286.114Z" fill="#934747"/>
<path d="M132.609 278.612C132.505 278.698 132.368 278.811 132.207 278.963C135.564 280.666 139.005 282.238 142.472 283.7C146.404 285.34 150.404 286.814 154.46 288.118L154.8 287.064C150.773 285.769 146.8 284.304 142.895 282.675C139.112 281.101 135.395 279.371 131.752 277.492C131.996 277.894 132.285 278.269 132.609 278.612ZM135.74 291.166C135.353 291.211 134.972 291.297 134.603 291.419C140.258 293.408 151.541 297.267 154.874 297.618L154.99 296.519C151.121 296.114 135.49 290.565 132.294 289.434C133.323 290.22 134.493 290.809 135.74 291.166Z" fill="#252122"/>
<path d="M72.6411 229.904C73.3197 230.932 74.4417 232.623 76.0399 232.626C77.1054 232.626 78.1858 231.881 79.0161 230.616C79.5012 229.872 79.8733 229.059 80.1143 228.204C80.1917 228.618 80.2989 229.029 80.4358 229.428C80.9685 231.071 82.0489 232.477 83.5013 233.412C84.156 233.819 86.0608 235.001 88.2632 234.326C89.2067 234.028 90.046 233.465 90.6739 232.7C90.8704 232.465 91.046 232.218 91.2037 231.956C91.5847 231.322 91.8555 230.628 92.0043 229.904C92.1591 230.411 92.3436 230.908 92.5549 231.393C93.0877 232.637 94.0192 234.37 95.4031 235.356C96.9716 236.475 99.2514 236.737 101.183 236.034C102.897 235.394 104.275 234.081 104.998 232.399C105.35 231.61 105.561 230.765 105.629 229.904C105.859 230.288 106.064 230.637 106.251 230.94C106.957 232.111 107.37 232.742 107.668 232.965C109.808 234.564 112.871 232.757 113.109 232.626C116.728 230.583 117.034 222.444 114.469 212.559C114.263 209.493 111.615 207.174 108.549 207.376C107.031 207.477 105.62 208.195 104.647 209.365C104.51 209.517 104.379 209.674 104.257 209.838C103.948 209.499 103.612 209.183 103.254 208.894C100.085 206.233 95.5073 206.075 92.1621 208.513C91.8763 208.716 91.6025 208.933 91.3406 209.168C91.171 208.99 90.9924 208.82 90.8049 208.659C89.6412 207.635 88.1323 207.087 86.5817 207.129C84.2632 207.284 82.2245 208.716 81.2959 210.848C81.2394 210.967 81.1888 211.089 81.1411 211.211C80.8822 210.517 80.4953 209.877 80.0012 209.323C79.5637 208.823 79.0251 208.424 78.4209 208.15C76.1768 207.138 73.6292 208.183 72.3018 209.511C71.4089 210.404 70.9625 211.538 70.9417 218.353C70.9178 226.132 71.4685 228.136 72.6411 229.904Z" fill="#894037"/>
<path d="M103.257 208.895L104.989 232.414C105.341 231.626 105.552 230.78 105.62 229.92C105.85 230.304 106.055 230.652 106.242 230.956L104.65 209.38C104.513 209.532 104.382 209.69 104.26 209.853C103.951 209.508 103.617 209.187 103.257 208.895ZM90.8048 208.648L91.2215 231.956C91.6024 231.322 91.8733 230.628 92.0221 229.905C92.1768 230.411 92.3614 230.908 92.5727 231.393L92.1619 208.514C91.8762 208.716 91.6024 208.933 91.3405 209.169C91.1709 208.984 90.9923 208.811 90.8048 208.648ZM79.022 230.616C79.5071 229.872 79.8791 229.059 80.1202 228.205C80.1976 228.619 80.3047 229.029 80.4416 229.428L81.2958 210.836C81.2392 210.955 81.1887 211.077 81.141 211.199C80.8821 210.505 80.4952 209.865 80.0011 209.312L79.022 230.616ZM184.487 308.547C184.228 309.494 183.987 310.268 183.82 310.777C185.475 311.274 187.145 311.786 188.829 312.319C190.416 312.822 191.987 313.331 193.544 313.84C198.749 298.27 195.841 283.068 193.011 274.024L182.314 274.3C184.038 278.933 185.186 283.762 185.737 288.674C186.142 292.315 186.895 299.708 184.487 308.547Z" fill="#311716"/>
<path d="M192.315 301.613C197.573 301.613 201.836 297.349 201.836 292.089C201.836 286.829 197.573 282.565 192.315 282.565C187.057 282.565 182.794 286.829 182.794 292.089C182.794 297.349 187.057 301.613 192.315 301.613Z" fill="white"/>
</g>
</g>
</svg>
