<svg width="353" height="353" viewBox="0 0 353 353" fill="none" xmlns="http://www.w3.org/2000/svg">
<g clip-path="url(#clip0_26_8331)">
<mask id="mask0_26_8331" style="mask-type:luminance" maskUnits="userSpaceOnUse" x="0" y="0" width="353" height="353">
<path d="M176.83 352.16C274.07 352.16 352.9 273.33 352.9 176.09C352.9 78.8487 274.07 0.0195312 176.83 0.0195312C79.589 0.0195312 0.759766 78.8487 0.759766 176.09C0.759766 273.33 79.589 352.16 176.83 352.16Z" fill="white"/>
</mask>
<g mask="url(#mask0_26_8331)">
<path d="M414.967 -19H-86V417.716H414.967V-19Z" fill="#F6F6F6"/>
<path d="M74.2768 103.26C75.0086 107.286 76.7976 110.985 78.0377 113.191C78.7899 114.523 79.3286 115.305 79.3286 115.305L100.654 109.674L106.092 108.241L106.58 108.109L111.581 106.787L114.681 105.974C114.681 105.974 121.085 104.267 122.783 100.028C124.49 95.7994 119.825 95.3928 119.825 95.3928C119.825 95.3928 122.986 84.5776 115.047 80.9793C107.119 77.381 101.965 85.4518 95.2262 86.1836C88.4972 86.9155 79.6031 86.2751 75.6287 93.0854C73.7787 96.2467 73.6567 99.8653 74.2666 103.27" fill="#161616"/>
<path d="M82.6625 95.2708C87.2062 96.2772 84.8175 104.907 84.9801 105.334C85.1529 105.761 87.9177 105.72 89.9303 103.88C91.9429 102.051 90.9163 101.177 92.6544 100.313C94.3824 99.4485 100.735 101.858 105.391 102.203C110.056 102.549 112.404 101.969 112.404 101.969C112.404 101.969 110.3 116.962 106.966 120.408C104.364 123.102 101.66 123.132 99.6376 124.403H99.6274C99.4648 124.505 99.3225 124.647 99.17 124.759C95.0431 123.01 91.5363 121.516 87.7754 118.731C84.1263 116.027 81.0057 113.74 78.495 109.908L78.6373 108.902C78.6373 108.902 74.1344 105.324 74.3682 101.024C74.5918 96.7142 78.1189 94.2645 82.6524 95.2708" fill="#EFCB3A"/>
<path d="M78.495 109.878V109.909C82.5507 109.258 89.605 110.122 93.2542 112.826C97.0151 115.611 98.0519 119.311 99.1598 124.759C98.7837 125.054 98.428 125.389 98.123 125.837C96.1917 128.632 94.5552 135.087 94.4434 135.544V135.564C94.4434 135.564 89.727 135.757 83.557 130.502C77.3871 125.267 71.9185 126.538 71.9185 126.538L78.495 109.868" fill="#EFCB3A"/>
<path d="M98.6414 125.227C98.4584 125.41 98.2856 125.613 98.123 125.847C96.212 128.622 94.5755 135.005 94.4434 135.544V135.554C94.5552 135.107 96.1917 128.652 98.123 125.847C98.2856 125.613 98.4482 125.41 98.6312 125.227" fill="#7F7F7F"/>
<path d="M99.6379 124.413C99.4956 124.444 99.3127 124.464 99.1094 124.494C99.1297 124.576 99.1399 124.667 99.1602 124.749C99.3127 124.627 99.4753 124.515 99.6379 124.413Z" fill="#F48A43"/>
<path d="M99.1093 124.495C97.8285 124.658 95.4195 124.749 92.6445 123.824C91.2825 123.367 90.1339 122.726 89.219 122.076C87.4504 120.826 86.4949 119.535 86.4136 119.423C86.4136 119.606 86.8303 125.471 89.0564 127.88C91.191 130.197 94.1184 135.005 94.4538 135.554C94.586 135.026 96.2123 128.642 98.1335 125.857C98.2961 125.623 98.4689 125.42 98.6519 125.237C98.8145 125.064 98.9873 124.902 99.1703 124.759C99.1499 124.678 99.1296 124.587 99.1194 124.505" fill="#F48A43"/>
<path d="M79.2676 106.249L79.2168 106.177L79.2981 105.995C79.2981 105.995 80.3044 105.618 81.3209 103.84C82.3475 102.051 81.9714 99.8246 81.9613 99.8042L82.0731 99.6416L82.2357 99.7534C82.256 99.8449 82.6321 102.101 81.5547 103.982C80.4874 105.862 79.4201 106.249 79.3794 106.269L79.2473 106.249H79.2676Z" fill="#161616"/>
<path d="M77.1128 101.329L77.062 101.248L77.1637 101.075C77.2348 101.055 78.851 100.607 80.2436 101.532C81.6361 102.468 81.7886 103.474 81.7886 103.515L81.6666 103.677L81.504 103.555C81.504 103.555 81.3617 102.62 80.0809 101.766C78.8103 100.912 77.2551 101.339 77.245 101.339L77.123 101.319M98.5095 115.641L98.4587 115.478L98.6416 115.387C99.0584 115.509 100.207 115.763 100.553 115.407C100.847 115.112 101.152 111.656 101.305 108.546L101.457 108.414L101.589 108.566C101.539 109.654 101.254 115.102 100.756 115.611C100.227 116.149 98.7331 115.712 98.5603 115.661L98.5197 115.641H98.5095ZM96.3241 107.936C96.2021 108.78 95.6939 109.4 95.1755 109.329C94.6571 109.258 94.342 108.516 94.4741 107.672C94.5859 106.838 95.1043 106.208 95.6126 106.29C96.131 106.361 96.4461 107.103 96.3241 107.936ZM107.292 109.746C107.17 110.589 106.662 111.209 106.143 111.138C105.625 111.067 105.32 110.325 105.432 109.481C105.554 108.648 106.072 108.018 106.58 108.099C107.089 108.17 107.404 108.912 107.282 109.746H107.292ZM93.6203 105.151L93.5898 105.121L93.6101 104.917C93.6101 104.917 94.6978 104.023 95.9175 103.931C97.117 103.84 97.6963 103.982 97.7167 103.992L97.8183 104.165L97.6455 104.267C97.6455 104.267 97.0763 104.124 95.9379 104.216C94.8096 104.307 93.8033 105.131 93.7931 105.141H93.6203V105.151ZM105.249 105.344L105.188 105.212L105.34 105.08C105.411 105.08 106.956 105.232 107.953 105.934L108.064 106.015C109.03 106.767 109.121 107.133 109.132 107.204L109.01 107.367L108.847 107.245C108.847 107.245 108.756 106.92 107.881 106.239C106.956 105.507 105.33 105.365 105.31 105.365L105.239 105.344H105.249Z" fill="#161616"/>
<path d="M116.603 81.8535C116.145 81.5282 115.627 81.2334 115.058 80.9793C107.129 77.381 101.976 85.4518 95.2365 86.1836C88.7921 86.885 80.3757 86.3259 76.1777 92.2418C75.9846 92.5061 75.8118 92.7907 75.639 93.0753C73.789 96.2365 73.667 99.8653 74.2769 103.26C74.3175 102.945 74.3785 102.64 74.4497 102.335C74.3785 101.908 74.3582 101.471 74.3785 101.034C74.5412 98.0661 76.259 95.9722 78.8103 95.2912C80.2741 93.9393 81.504 93.2379 81.504 93.2379C85.58 91.825 88.3347 93.1058 89.6459 94.0307C90.2355 94.4475 90.5404 94.7931 90.5404 94.7931C91.2824 92.3841 96.1106 91.8453 101.803 90.2698C107.505 88.6943 111.744 86.143 115.881 86.519C116.41 86.5699 116.877 86.7528 117.274 87.0273C119.967 88.9281 119.825 95.3725 119.825 95.3725C119.825 95.3725 122.549 86.0515 116.582 81.8433" fill="#000091"/>
<path d="M78.8104 95.292C76.2692 95.973 74.5412 98.0568 74.3786 101.035C74.3582 101.482 74.3786 101.909 74.4497 102.336V102.316C75.2121 99.1952 77.1535 96.8269 78.8002 95.3022" fill="#FDE8DA"/>
<path d="M215.19 381.844C215.19 381.844 216.552 371.009 210.067 365.815C203.572 360.62 192.421 362.084 190.988 361.342C190.307 360.986 190.063 359.35 189.768 357.652C189.433 355.802 189.026 353.891 187.878 353.576C185.682 352.966 178.902 352.895 178.902 352.895L169.846 350.141L146.589 360.427C146.589 360.427 144.891 360.661 143.915 364.788C142.929 368.915 141.364 383.572 143.224 385.249C145.084 386.916 178.841 392.192 190.012 390.505C201.173 388.807 214.743 384.06 215.2 381.854" fill="#18753C"/>
<path d="M179.227 343.014L178.892 352.884C178.892 352.884 171.553 352.407 170.191 355.232C168.829 358.058 171.187 362.053 169.906 363.608C168.636 365.174 157.688 365.356 152.89 364.289C148.093 363.222 146.578 360.406 146.578 360.406L147.178 342.496L179.217 343.004" fill="#EFCB3A"/>
<path d="M147.178 342.518L147.016 347.325L147.178 342.518Z" fill="#7F7F7F"/>
<path d="M179.228 343.015L147.178 342.507L147.016 347.315C147.087 347.345 152.962 349.947 164.865 349.124C176.839 348.291 179.095 346.613 179.095 346.613L179.217 343.005" fill="#EFCB3A"/>
<path d="M132.368 258.099C136.607 255.232 153.907 250.668 158.512 255.202C168.89 278.042 188.111 344.519 188.111 344.519L136.343 348.534L119.317 279.658C116.41 267.46 128.882 260.457 132.358 258.109L132.368 258.099ZM82.236 256.879C86.7796 257.336 99.0484 263.191 103.429 273.895C105.107 288.369 107.282 317.572 106.001 356.168L58.4506 361.118C58.4506 361.118 54.6287 305.852 50.7661 269.097C55.9094 258.048 76.8589 256.33 82.236 256.879Z" fill="#000091"/>
<path d="M90.7236 185.35C90.7236 185.35 93.9966 194.295 112.08 210.945C130.163 227.595 152.596 243.187 157.79 253.911C158.024 254.308 158.268 254.745 158.502 255.202C155.422 256.686 152.078 257.57 149.028 259.237C144.993 261.433 141.578 264.665 137.664 267.054C133.832 269.392 129.543 270.927 125.863 273.539C123.403 275.287 121.39 277.503 119.307 279.648L119.093 278.794L101.386 262.145C101.386 262.145 102.342 265.794 103.419 273.885C99.9023 273.112 96.4056 272.269 92.8378 271.791C87.4099 271.079 81.9108 271.201 76.4524 270.896C67.853 270.408 59.3248 269.28 50.756 269.097C48.967 252.712 47.1069 239.914 45.45 237.15C40.0831 228.133 25.6187 195.383 40.9572 177.696L90.7032 185.36L90.7236 185.35Z" fill="#000091"/>
<path d="M106.529 318.701L106.469 318.579C106.042 297.711 104.181 268.772 97.737 249.439C93.9049 237.942 90.205 235.239 90.1237 235.188L90.083 234.974L90.2965 234.934C90.4489 235.045 94.1082 237.627 98.0013 249.266C104.476 268.64 106.347 297.66 106.773 318.589L106.621 318.741L106.529 318.711V318.701ZM133.791 336.276L133.73 336.143L133.883 335.991C148.337 336.143 182.287 330.268 182.622 330.207L182.805 330.329L182.683 330.502C182.338 330.563 148.367 336.438 133.883 336.286L133.801 336.255L133.791 336.276Z" fill="#161616"/>
<path d="M57.9013 348.819L57.8403 348.707L57.9725 348.544L106.062 342.984L106.234 343.117L106.102 343.289L58.0131 348.849L57.9013 348.819Z" fill="#161616"/>
<path d="M335.387 202.336L313.33 196.268L307.566 174.119L329.624 180.198L335.387 202.336Z" fill="#18753C"/>
<path d="M329.624 180.198L307.566 174.119L313.33 196.268L335.387 202.336L329.624 180.198Z" fill="#BBDE03"/>
<path d="M313.33 196.268L297.036 212.328L291.272 190.179L307.566 174.119L313.33 196.268Z" fill="#18753C"/>
<path d="M307.566 174.119L291.272 190.179L297.036 212.328L313.33 196.268L307.566 174.119Z" fill="#000091"/>
<path d="M335.388 202.346L319.094 218.407L297.036 212.328L313.33 196.258L335.388 202.346Z" fill="#18753C"/>
<path d="M258.217 230.99L239.219 224.546L235.306 204.867L254.303 211.322L258.217 230.99Z" fill="#F5583A"/>
<path d="M254.303 211.322L235.306 204.867L239.219 224.546L258.217 230.99L254.303 211.322Z" fill="#FC9461"/>
<path d="M239.219 224.546L224.145 237.78L220.222 218.102L235.306 204.867L239.219 224.546Z" fill="#F5583A"/>
<path d="M235.306 204.867L220.222 218.102L224.145 237.78L239.219 224.546L235.306 204.867Z" fill="#F02C1D"/>
<path d="M258.217 230.99L243.133 244.225L224.135 237.78L239.219 224.546L258.217 230.99Z" fill="#F5583A"/>
<path d="M186.058 137.343L190.053 136.286C190.053 136.286 191.913 136.845 194.078 136.398C196.243 135.951 197.249 135.067 201.681 135.097C199.679 130.869 212.161 116.425 209.366 116.252C196.477 115.428 197.483 114.585 197.991 113.67C198.581 112.633 201.264 109.523 203.257 106.829C205.249 104.146 203.094 99.3275 201.173 99.6427C199.241 99.9578 197.402 103.658 194.881 105.599C192.36 107.541 188.009 109.431 186.688 110.864C185.367 112.288 185.346 113.202 185.346 113.202L178.688 114.991L186.068 137.343" fill="#EFCB3A"/>
<path d="M255.513 133.643L223.678 130.563L210.423 101.441L242.269 104.521L255.513 133.643Z" fill="#F6AB1C"/>
<path d="M242.269 104.521L210.423 101.441L223.678 130.563L255.513 133.643L242.269 104.521Z" fill="#FCE52F"/>
<path d="M223.677 130.563L205.086 156.595L191.831 127.473L210.422 101.441L223.677 130.563Z" fill="#F6AB1C"/>
<path d="M210.422 101.441L191.831 127.473L205.086 156.595L223.677 130.563L210.422 101.441Z" fill="#F2820E"/>
<path d="M255.513 133.642L236.922 159.674L205.086 156.594L223.677 130.562L255.513 133.642Z" fill="#F6AB1C"/>
<path d="M126.96 140.87C128.099 144.712 133.557 155.507 139.615 157.855L191.496 141.419C191.465 136.164 179.776 110.325 179.776 110.325C163.228 116.648 146.253 121.527 134.899 124.23C127.601 127.737 125.232 135.046 126.95 140.87H126.96Z" fill="#18753C"/>
<path d="M139.768 143.594C137.826 137.221 136.22 130.756 134.899 124.23C121.868 127.148 109.223 128.144 102.962 128.347C97.0864 131.823 93.2136 140.962 93.0815 147.111C92.9494 153.169 92.6343 161.626 99.3836 165.713L142.919 154.857C141.852 151.086 140.886 147.264 139.758 143.584L139.768 143.594Z" fill="#18753C"/>
<path d="M103.663 165.723C103.439 162.857 103.043 159.99 102.972 157.103C102.87 153.048 103.063 149.012 103.094 144.957C103.135 139.346 102.504 133.867 102.972 128.348C98.6824 128.327 96.6393 127.951 96.6393 127.951L70.5669 186.612L99.9123 197.244L103.175 165.865L103.663 165.733V165.723Z" fill="#18753C"/>
<path d="M181.637 143.675C181.637 143.675 184.402 143.848 186.922 142.466C189.433 141.093 188.396 133.612 189.26 131.518C190.114 129.424 194.007 129.302 195.013 129.902C196.02 130.492 195.288 138.999 198.053 140.524C200.818 142.049 206.408 138.156 208.35 136.062C210.291 133.968 210.84 130.756 212.456 130.39C214.072 130.024 215.404 131.366 215.729 132.108C216.054 132.86 216.105 133.765 216.105 133.765C216.105 133.765 217.549 133.998 218.799 135.411C220.049 136.824 219.724 139.467 219.724 139.467C219.724 139.467 221.472 140.351 221.736 142.455C222.011 144.559 220.354 147.914 220.354 147.914C220.354 147.914 222.946 150.404 221.452 153.372C219.958 156.34 212.202 162.226 207.17 163.832C202.139 165.448 195.766 165.041 194.515 164.716C193.255 164.391 186.191 165.946 186.191 165.946L181.637 143.655V143.675Z" fill="#EFCB3A"/>
<path d="M197.799 140.514C196.182 139.376 195.827 135.788 195.562 133.145C195.41 131.651 195.278 130.238 194.963 130.014H194.952C194.332 129.638 192.625 129.577 191.263 130.035C190.602 130.258 189.728 130.705 189.382 131.559L189.22 131.63L189.148 131.468C189.453 130.716 190.155 130.136 191.192 129.791C192.655 129.293 194.424 129.394 195.085 129.791L195.115 129.811C195.512 130.085 195.634 131.204 195.827 133.125C196.081 135.717 196.437 139.234 197.951 140.311L198.124 140.423L198.175 140.596L198.002 140.646L197.809 140.525L197.799 140.514ZM206.378 145.861L206.327 145.79L206.408 145.627C206.408 145.627 208.634 144.926 211.816 141.023C215.018 137.109 215.973 133.765 215.983 133.735L216.136 133.643L216.227 133.796C216.227 133.796 215.251 137.221 212.009 141.175C208.766 145.139 206.571 145.83 206.469 145.861L206.357 145.841L206.378 145.861ZM212.578 150.049L212.527 149.978L212.619 149.825C212.619 149.825 213.666 149.53 216.146 146.674C218.657 143.777 219.592 139.498 219.602 139.457L219.754 139.356L219.856 139.508C219.856 139.508 218.901 143.899 216.349 146.847C213.788 149.795 212.731 150.069 212.69 150.069L212.588 150.049H212.578ZM215.871 154.135H215.851V153.942C218.961 150.75 220.232 147.904 220.242 147.884L220.405 147.823L220.466 147.985C220.466 147.985 219.175 150.903 216.024 154.125H215.861L215.871 154.135Z" fill="#161616"/>
<path d="M99.6378 170.246C101.183 165.123 103.572 160.305 105.97 155.517C108.308 150.862 110.829 145.912 110.819 140.606C106.174 138.603 104.212 136.662 103.582 136.398C101.691 135.625 91.5976 124.759 81.9818 124.332C54.6082 127.076 37.2571 163.527 29.3896 186.591C56.692 195.495 87.1454 202.326 87.1454 202.326C87.1454 202.326 90.7641 190.85 99.3329 169.961C99.4345 170.053 99.5464 170.134 99.648 170.226L99.6378 170.246Z" fill="#18753C"/>
<path d="M128.129 172.686C128.536 169.24 129.38 165.815 130.091 162.43C131.301 156.676 132.5 150.944 132.947 145.099C109.132 143.981 94.0675 130.065 89.6661 128.571C74.0837 126.111 57.6169 144.469 80.3959 162.887C86.3728 166.313 108.196 177.789 127.804 176.803C127.885 175.441 127.967 174.068 128.129 172.686Z" fill="#18753C"/>
<path d="M181.779 140.362C162.151 144.367 143.092 145.353 131.921 145.048C123.159 144.967 117.548 152.245 116.217 158.628C115.373 162.694 119.724 171.578 127.794 176.813C154.019 176.04 188.498 167.929 188.498 167.929L181.769 140.362H181.779Z" fill="#18753C"/>
<path d="M103.501 136.51L103.46 136.357L103.623 136.286C103.806 136.367 104.09 136.561 104.507 136.866C104.609 136.937 104.71 137.008 104.812 137.089C121.919 149.165 156.052 145.475 181.759 140.24L181.911 140.332L188.64 167.898L188.549 168.051L188.396 167.959L181.698 140.504C157.699 145.394 138.061 146.634 123.322 144.215C111.551 142.283 106.337 138.482 104.375 137.069C103.989 136.784 103.704 136.581 103.551 136.52H103.531L103.501 136.51Z" fill="#161616"/>
<path d="M98.967 170.49L95.0028 168.254C95.0028 168.254 87.8773 182.23 81.5244 201.025L87.1455 202.336L98.967 170.49Z" fill="#F6AB1C"/>
<path d="M90.3169 165.306C87.7453 163.486 86.1901 162.175 86.1494 162.124V161.941L86.3019 161.921C86.4645 162.063 102.545 175.745 118.168 176.131L118.29 176.263L118.158 176.385C107.251 176.121 96.1413 169.422 90.2966 165.306H90.3169Z" fill="#161616"/>
<path d="M94.5859 118.843C94.5859 118.843 100.39 122.289 101.945 120.479" stroke="#161616" stroke-width="0.25" stroke-miterlimit="10"/>
</g>
</g>
<defs>
<clipPath id="clip0_26_8331">
<rect width="353" height="353" fill="white"/>
</clipPath>
</defs>
</svg>
