<?xml version="1.0" encoding="UTF-8" standalone="no"?>
<svg
   xmlns:dc="http://purl.org/dc/elements/1.1/"
   xmlns:cc="http://creativecommons.org/ns#"
   xmlns:rdf="http://www.w3.org/1999/02/22-rdf-syntax-ns#"
   xmlns:svg="http://www.w3.org/2000/svg"
   xmlns="http://www.w3.org/2000/svg"
   xmlns:sodipodi="http://sodipodi.sourceforge.net/DTD/sodipodi-0.dtd"
   xmlns:inkscape="http://www.inkscape.org/namespaces/inkscape"
   version="1.1"
   id="svg2"
   xml:space="preserve"
   width="4946.6665"
   height="4946.6665"
   viewBox="0 0 4946.6665 4946.6665"
   sodipodi:docname="20945597.eps"><metadata
     id="metadata8"><rdf:RDF><cc:Work
         rdf:about=""><dc:format>image/svg+xml</dc:format><dc:type
           rdf:resource="http://purl.org/dc/dcmitype/StillImage" /></cc:Work></rdf:RDF></metadata><defs
     id="defs6"><clipPath
       clipPathUnits="userSpaceOnUse"
       id="clipPath22"><path
         d="m 17502,4550 c -662.4,0 -1319.7,49.4 -1967.2,150.6 -524.6,82 -1543,251.7 -2740.1,726.8 h 9597.5 C 20804.4,4853.3 19140.5,4550 17502,4550 m 6722,1678.2 25.1,1734.5 h 2619.6 C 26046.8,7291.2 25157.5,6710.7 24224,6228.2 m 7099.5,8121.4 c -466.8,448.8 -1050.3,771.5 -1698.7,915.3 590.1,1617.9 899.7,3638.9 640.6,6141.1 -20.2,194.9 -178.9,346.6 -374.5,357.4 -668.7,36.7 -2227.2,174.8 -3663.6,686.9 -1448.7,1364.8 -3381.5,2198.2 -5504,2198.2 -269,0 -534.6,-13.4 -796.9,-39.5 l 230,529.6 c 303.8,46.6 602.3,142 883.1,287.4 l 567,-333.1 c 8.5,-5 18,-7.4 27.4,-7.4 12.6,0 25.1,4.4 35.1,13 l 599.8,513 c 17.5,15 23.6,39.5 15.2,60.9 l -241.2,611.8 c 187,254.9 327.5,535.1 420.6,827.9 l 636.9,165.5 c 22.3,5.8 38.5,25.2 40.3,48.2 l 61.3,786.8 c 1.8,23 -11.2,44.6 -32.4,53.8 l -603.5,262.2 c -46.6,303.7 -142,602.2 -287.4,883.1 l 333.1,567 c 11.7,19.9 9.4,45 -5.6,62.5 l -513,599.8 c -10.5,12.2 -25.6,18.9 -41.1,18.9 -6.7,0 -13.4,-1.2 -19.8,-3.8 l -611.8,-241.2 c -254.9,187.1 -535,327.6 -827.9,420.7 l -165.5,636.8 c -5.8,22.4 -25.1,38.5 -48.1,40.3 l -786.9,61.3 c -1.4,0.2 -2.8,0.2 -4.2,0.2 -21.4,0 -41,-12.7 -49.6,-32.5 l -262.2,-603.5 c -303.7,-46.7 -602.2,-142.1 -883,-287.4 l -567,333.1 c -8.6,5 -18,7.4 -27.4,7.4 -12.6,0 -25.1,-4.4 -35.2,-13 l -599.7,-513 c -17.6,-15 -23.7,-39.5 -15.2,-61 l 241.2,-611.7 c -187.1,-255 -327.5,-535 -420.6,-827.9 l -636.9,-165.5 c -22.3,-5.8 -38.5,-25.2 -40.3,-48.2 l -61.3,-786.9 c -1.8,-22.9 11.2,-44.5 32.4,-53.7 l 603.5,-262.2 c 46.6,-303.7 142,-602.2 287.3,-883.1 l -333,-567 c -11.7,-19.9 -9.5,-45 5.5,-62.5 l 513.1,-599.8 c 10.4,-12.2 25.6,-18.9 41,-18.9 6.7,0 13.4,1.2 19.9,3.8 l 611.7,241.2 c 255,-187.1 535.1,-327.6 827.9,-420.7 l 165.6,-636.8 c 5.7,-22.4 25.1,-38.5 48.1,-40.3 l 339.8,-26.5 c -3188.5,-537.5 -5752.5,-2975.5 -6549.1,-6141.7 -70.6,-280.6 -315.5,-457.1 -576.8,-457.1 -86.8,0 -175.5,19.5 -260.2,61.2 -672.9,330.9 -1426.5,516.4 -2222.67,516.4 -414.99,0 -841.62,-50.5 -1274.12,-156.9 -1244.37,-306.3 -2307.87,-1083.9 -3001.32,-2139.3 -255.02,3139.7 435.67,6434.2 2188.88,9178.5 2599.83,4069.5 7211.53,6418.6 11649.73,6418.6 108.8,0 217,-1.4 325.6,-4.2 977.3,-25.5 4722.5,-182.4 8014,-2936.2 483.4,-404.5 1549.7,-1365.6 2510.7,-2890.4 2081.2,-3302.2 2407.9,-7802.3 1125.4,-11636.9 m -6723.9,10343.5 c 131,-96.1 274.9,-168.2 425.3,-216.1 l 85,-327.1 c 3,-11.5 12.9,-19.8 24.8,-20.7 l 404.2,-31.5 c 0.7,0 1.4,-0.1 2.1,-0.1 11,0 21.1,6.5 25.5,16.7 l 134.7,310 c 156,24 309.3,73 453.6,147.7 l 291.3,-171.1 c 4.3,-2.6 9.2,-3.9 14,-3.9 6.5,0 12.9,2.3 18.1,6.7 l 308,263.6 c 9.1,7.7 12.2,20.2 7.8,31.2 l -123.9,314.3 c 96.1,131 168.3,274.8 216.1,425.3 l 327.2,85 c 11.4,3 19.7,12.9 20.7,24.7 l 31.5,404.2 c 0.9,11.8 -5.8,22.9 -16.7,27.7 l -310,134.6 c -23.9,156.1 -72.9,309.4 -147.6,453.7 l 171.1,291.2 c 6,10.2 4.8,23.1 -2.8,32.1 l -263.6,308.1 c -5.4,6.3 -13.2,9.7 -21.1,9.7 -3.4,0 -6.9,-0.6 -10.2,-1.9 l -314.2,-123.9 c -131,96.1 -274.9,168.3 -425.3,216.1 l -85,327.1 c -3,11.5 -12.9,19.8 -24.8,20.7 l -404.2,31.5 c -0.7,0.1 -1.4,0.1 -2.2,0.1 -10.9,0 -21,-6.5 -25.4,-16.7 l -134.7,-310 c -156,-24 -309.3,-73 -453.6,-147.6 l -291.3,171.1 c -4.3,2.5 -9.2,3.8 -14,3.8 -6.5,0 -12.9,-2.3 -18.1,-6.7 l -308.1,-263.5 c -9,-7.7 -12.1,-20.3 -7.7,-31.3 l 123.9,-314.3 c -96.1,-130.9 -168.3,-274.8 -216.1,-425.3 l -327.2,-85 c -11.4,-3 -19.7,-12.9 -20.7,-24.7 l -31.5,-404.2 c -0.9,-11.8 5.8,-22.9 16.7,-27.6 l 310,-134.7 c 23.9,-156 72.9,-309.4 147.6,-453.6 l -171.1,-291.3 c -6,-10.2 -4.8,-23.1 2.8,-32.1 l 263.6,-308.1 c 5.4,-6.3 13.1,-9.7 21.1,-9.7 3.4,0 6.9,0.6 10.2,1.9 l 314.2,123.9"
         id="path20" /></clipPath><linearGradient
       x1="0"
       y1="0"
       x2="1"
       y2="0"
       gradientUnits="userSpaceOnUse"
       gradientTransform="matrix(-20111.8,17597.8,17597.8,20111.8,34458.5,4295.8)"
       spreadMethod="pad"
       id="linearGradient28"><stop
         style="stop-opacity:1;stop-color:#dae3fe"
         offset="0"
         id="stop24" /><stop
         style="stop-opacity:1;stop-color:#e9effd"
         offset="1"
         id="stop26" /></linearGradient><clipPath
       clipPathUnits="userSpaceOnUse"
       id="clipPath38"><path
         d="m 28816.1,7962.7 h -1099.8 c 1837.1,0 3330.9,1559.1 3252.2,3441 -51.7,1235.6 -766.7,2295 -1789.1,2813.4 160.9,328.8 310.4,677.7 445.4,1047.8 648.4,-143.8 1231.9,-466.5 1698.7,-915.3 665,-639.5 1093.3,-1534.9 1135,-2533.1 88.2,-2107.6 -1584.9,-3853.8 -3642.4,-3853.8 M 8417.34,8150.9 c -2560.82,721.9 -4322.95,3421.5 -3625.9,6396.6 142.1,606.5 388.1,1171 717.75,1672.7 693.45,1055.4 1756.95,1833 3001.32,2139.3 432.5,106.4 859.13,156.9 1274.12,156.9 796.17,0 1549.77,-185.5 2222.67,-516.4 84.7,-41.7 173.4,-61.2 260.2,-61.2 261.3,0 506.2,176.5 576.8,457.1 796.6,3166.2 3360.6,5604.2 6549.1,6141.7 l 447.1,-34.8 c 1.4,-0.2 2.8,-0.2 4.2,-0.2 21.4,0 40.9,12.7 49.6,32.5 l 32.1,73.9 c 262.3,26.1 527.9,39.5 796.9,39.5 2122.5,0 4055.3,-833.4 5504,-2198.2 -594.5,212 -1168.1,488 -1649.1,847.6 -73.1,54.6 -172.9,98.1 -262.7,98.1 -54.7,0 -105.7,-16.1 -144.5,-55.9 -355.5,-363.7 -756.3,-673.7 -1176.9,-933.3 -780.6,293.8 -1623.7,454.1 -2503.6,454.1 -3383.8,0 -6227.1,-2372 -7035,-5582.7 -63,-250.6 -281.6,-408.1 -514.9,-408.1 -77.6,0 -156.8,17.4 -232.4,54.6 -600.7,295.5 -1273.7,461 -1984.5,461 -370.5,0 -751.47,-45 -1137.64,-140.1 C 7946.83,16842.2 6659.19,15522.8 6265.41,13842.1 5748.77,11637 6745.28,9601.3 8406.61,8604.6 l 10.73,-453.7"
         id="path36" /></clipPath><linearGradient
       x1="0"
       y1="0"
       x2="1"
       y2="0"
       gradientUnits="userSpaceOnUse"
       gradientTransform="matrix(21532.6,-33412.7,33412.7,21532.6,6876.84,30552.7)"
       spreadMethod="pad"
       id="linearGradient44"><stop
         style="stop-opacity:1;stop-color:#4f52ff"
         offset="0"
         id="stop40" /><stop
         style="stop-opacity:1;stop-color:#4042e2"
         offset="1"
         id="stop42" /></linearGradient><clipPath
       clipPathUnits="userSpaceOnUse"
       id="clipPath54"><path
         d="m 27716.3,7962.7 h -3467.2 l 23,1589.3 c 48.9,-20.3 101.1,-30.6 153.5,-30.6 58.2,0 116.5,12.7 170.6,38.3 706.4,334.6 3113.1,1652.7 4583.2,4657.4 1022.4,-518.4 1737.4,-1577.8 1789.1,-2813.4 78.7,-1881.9 -1415.1,-3441 -3252.2,-3441 M 8406.61,8604.6 c -1661.33,996.7 -2657.84,3032.4 -2141.2,5237.5 393.78,1680.7 1681.42,3000.1 3320.65,3403.5 386.17,95.1 767.14,140.1 1137.64,140.1 710.8,0 1383.8,-165.5 1984.5,-461 75.6,-37.2 154.8,-54.6 232.4,-54.6 233.3,0 451.9,157.5 514.9,408.1 807.9,3210.7 3651.2,5582.7 7035,5582.7 879.9,0 1723,-160.3 2503.6,-454.1 -1192.1,-735.6 -2543.2,-1066 -3472.9,-1066 -105.8,0 -206.3,4.3 -300.3,12.8 -12,1 -23.9,1.6 -35.8,1.6 -100.9,0 -198.5,-38.3 -272.7,-107.8 -83,-77.8 -128.8,-187.2 -126.2,-300.9 40.8,-1772.3 -6.6,-3872 763.5,-5971.8 l -10557.2,273.2 c -6.12,0.2 -12.24,0.2 -18.35,0.2 -187.17,0 -367.01,-74.1 -499.85,-206.5 -137.18,-136.7 -212.24,-323.7 -207.66,-517.2 l 139.97,-5919.8"
         id="path52" /></clipPath><linearGradient
       x1="0"
       y1="0"
       x2="1"
       y2="0"
       gradientUnits="userSpaceOnUse"
       gradientTransform="matrix(21532.6,-33412.7,33412.7,21532.6,6876.84,30552.7)"
       spreadMethod="pad"
       id="linearGradient60"><stop
         style="stop-opacity:1;stop-color:#5d67fe"
         offset="0"
         id="stop56" /><stop
         style="stop-opacity:1;stop-color:#515ae7"
         offset="1"
         id="stop58" /></linearGradient><clipPath
       clipPathUnits="userSpaceOnUse"
       id="clipPath70"><path
         d="M 23935.7,5427.4 H 8755.82 c -154.39,0 -280.71,126.2 -280.71,280.4 l -57.77,2443.1 -10.73,453.7 -139.97,5919.8 c -4.58,193.5 70.48,380.5 207.66,517.2 132.84,132.4 312.68,206.5 499.85,206.5 6.11,0 12.23,0 18.35,-0.2 l 10557.2,-273.2 c 42.2,-115 86.7,-229.7 133.9,-344.6 l -10632.75,285.2 c -4.43,0.1 -8.87,0.2 -13.29,0.2 -131.36,0 -257.53,-52.1 -350.79,-145.1 -96.38,-96.1 -149.4,-227.7 -145.99,-363.8 l 211.46,-8429.7 c 0,-146.1 119.51,-265.6 265.58,-265.6 H 23569.6 c 146.1,0 265.6,119.5 265.6,265.6 l 57.4,3810.5 c 105.1,-69 212,-137.4 321.5,-205.6 18.7,-11.6 38,-21.5 58,-29.8 l -23,-1589.3 -25.1,-1734.5 -7.6,-520.4 c 0,-154.2 -126.3,-280.4 -280.7,-280.4"
         id="path68" /></clipPath><linearGradient
       x1="0"
       y1="0"
       x2="1"
       y2="0"
       gradientUnits="userSpaceOnUse"
       gradientTransform="matrix(-3585.16,10755.5,-10755.5,-3585.16,17732.3,6098)"
       spreadMethod="pad"
       id="linearGradient76"><stop
         style="stop-opacity:1;stop-color:#09005d"
         offset="0"
         id="stop72" /><stop
         style="stop-opacity:1;stop-color:#1a0f91"
         offset="1"
         id="stop74" /></linearGradient><clipPath
       clipPathUnits="userSpaceOnUse"
       id="clipPath92"><path
         d="M 7300.18,4703.2 H 25083.6 c 31.1,0 56.5,25.5 56.5,56.6 v 653.4 c 0,31.1 -25.4,56.5 -56.5,56.5 H 7300.18 c -31.09,0 -56.54,-25.4 -56.54,-56.5 v -653.4 c 0,-31.1 25.45,-56.6 56.54,-56.6 z"
         id="path90" /></clipPath><linearGradient
       x1="0"
       y1="0"
       x2="1"
       y2="0"
       gradientUnits="userSpaceOnUse"
       gradientTransform="matrix(15963.4,-3882.99,3882.99,15963.4,9390.71,6740.8)"
       spreadMethod="pad"
       id="linearGradient98"><stop
         style="stop-opacity:1;stop-color:#09005d"
         offset="0"
         id="stop94" /><stop
         style="stop-opacity:1;stop-color:#1a0f91"
         offset="1"
         id="stop96" /></linearGradient><clipPath
       clipPathUnits="userSpaceOnUse"
       id="clipPath164"><path
         d="m 24425.6,9521.4 c -52.4,0 -104.6,10.3 -153.5,30.6 -20,8.3 -39.3,18.2 -58,29.8 -109.5,68.2 -216.4,136.6 -321.5,205.6 -667.2,438.1 -1246.7,892.2 -1749.1,1357.1 -52.5,48.6 -104,97.2 -154.9,146 -1040.8,999.4 -1736.9,2047.9 -2204.6,3104.3 -11.6,26.2 -23.1,52.6 -34.4,78.8 -22.5,52.1 -44.5,104.3 -66,156.5 -47.2,114.9 -91.7,229.6 -133.9,344.6 -770.1,2099.8 -722.7,4199.5 -763.5,5971.8 -2.6,113.7 43.2,223.1 126.2,300.9 74.2,69.5 171.8,107.8 272.7,107.8 11.9,0 23.8,-0.6 35.8,-1.6 94,-8.5 194.5,-12.8 300.3,-12.8 929.7,0 2280.8,330.4 3472.9,1066 420.6,259.6 821.4,569.6 1176.9,933.3 38.8,39.8 89.8,55.9 144.5,55.9 89.8,0 189.6,-43.5 262.7,-98.1 481,-359.6 1054.6,-635.6 1649.1,-847.6 1436.4,-512.1 2994.9,-650.2 3663.6,-686.9 195.6,-10.8 354.3,-162.5 374.5,-357.4 259.1,-2502.2 -50.5,-4523.2 -640.6,-6141.1 -135,-370.1 -284.5,-719 -445.4,-1047.8 -1470.1,-3004.7 -3876.8,-4322.8 -4583.2,-4657.4 -54.1,-25.6 -112.4,-38.3 -170.6,-38.3 m -4905.5,11225.3 c -36.2,0 -70,-14.1 -95.1,-39.8 -25,-25.4 -38.4,-59.1 -37.8,-94.8 l 3.9,-213.8 c 28.2,-1604.1 60.1,-3422.2 712.3,-5207.7 730.2,-1999.1 2126.9,-3636.8 4269.9,-5006.7 21.7,-13.9 46.7,-20.9 71.7,-20.9 20.7,0 41.4,4.8 60.3,14.5 558.4,287.1 1987.3,1129.1 3192.3,2745.2 1613.4,2163.9 2287.5,4904.2 2003.4,8144.9 -5.7,65.1 -57,115.7 -122.1,120.6 -1222,90 -3511.9,400.2 -5117.1,1465.3 -22.4,14.8 -47.9,22.1 -73.3,22.1 -31.8,0 -63.4,-11.4 -88.3,-33.8 -1461,-1309.1 -3453,-1895.1 -4780.1,-1895.1 v 0 m 4924.8,-10529.3 c -14.7,0 -29.5,4.2 -42.3,12.3 -2132.5,1363.3 -3522.1,2992.1 -4248.1,4979.6 -649.1,1776.9 -681,3590.1 -709,5190 l -3.9,213.8 c -0.4,21 7.5,40.8 22.2,55.7 14.9,15.1 34.9,23.5 57.4,23.5 v 0 c 1336.4,0 3343.6,590.3 4815.3,1909 14.7,13.2 33.3,19.9 52,19.9 15,0 30,-4.3 43.2,-13 1615.6,-1072 3915.9,-1383.8 5143.3,-1474.3 38.2,-2.8 68.4,-32.7 71.8,-71.1 282.8,-3226.9 -387.6,-5954.7 -1992.8,-8107.6 -1198.2,-1607 -2618.5,-2444 -3173.6,-2729.3 v 0 c -11.1,-5.7 -23.3,-8.5 -35.5,-8.5 m -2005.6,7690.9 c -261.8,0 -474.1,-212.3 -474.1,-474.1 v -3279.3 c 0,-261.8 212.3,-474.1 474.1,-474.1 h 4272.9 c 261.8,0 474.1,212.3 474.1,474.1 v 3279.3 c 0,261.8 -212.3,474.1 -474.1,474.1 h -4272.9 m 1353.3,1855.1 h 1566.3 c 309.2,0 559.9,-250.7 559.9,-560 v -863.9 c 0,-125.6 101.8,-227.3 227.3,-227.3 h 252.8 c 125.5,0 227.2,101.7 227.2,227.3 v 863.9 c 0,699.9 -567.3,1267.3 -1267.2,1267.3 h -1566.3 c -699.9,0 -1267.3,-567.4 -1267.3,-1267.3 v -863.9 c 0,-125.6 101.8,-227.3 227.3,-227.3 h 252.8 c 125.5,0 227.2,101.7 227.2,227.3 v 863.9 c 0,309.3 250.7,560 560,560 m 1223.7,-5241.3 h -881.1 c -113.6,0 -197.3,106.3 -170.8,216.7 l 205.6,855.9 c -242.7,145.1 -401.4,416.3 -385.2,723.1 21,397.5 343.1,722.9 740.4,747.6 16.9,1 33.8,1.5 50.5,1.5 437.5,0 792.1,-354.5 792.1,-792 0,-289.1 -155,-541.9 -386.3,-680.2 l 205.6,-855.9 c 26.5,-110.4 -57.2,-216.7 -170.8,-216.7"
         id="path162" /></clipPath><linearGradient
       x1="0"
       y1="0"
       x2="1"
       y2="0"
       gradientUnits="userSpaceOnUse"
       gradientTransform="matrix(-4645.68,-4544.68,-4544.68,4645.68,36687.5,29678.7)"
       spreadMethod="pad"
       id="linearGradient170"><stop
         style="stop-opacity:1;stop-color:#ff928e"
         offset="0"
         id="stop166" /><stop
         style="stop-opacity:1;stop-color:#fe7062"
         offset="1"
         id="stop168" /></linearGradient><clipPath
       clipPathUnits="userSpaceOnUse"
       id="clipPath180"><path
         d="m 24445,10163 c -25,0 -50,7 -71.7,20.9 -2143,1369.9 -3539.7,3007.6 -4269.9,5006.7 -652.2,1785.5 -684.1,3603.6 -712.3,5207.7 l -3.9,213.8 c -0.6,35.7 12.8,69.4 37.8,94.8 25.1,25.7 58.9,39.8 95.1,39.8 v 0 c 1327.1,0 3319.1,586 4780.1,1895.1 24.9,22.4 56.5,33.8 88.3,33.8 25.4,0 50.9,-7.3 73.3,-22.1 1605.2,-1065.1 3895.1,-1375.3 5117.1,-1465.3 65.1,-4.9 116.4,-55.5 122.1,-120.6 284.1,-3240.7 -390,-5981 -2003.4,-8144.9 -1205,-1616.1 -2633.9,-2458.1 -3192.3,-2745.2 -18.9,-9.7 -39.6,-14.5 -60.3,-14.5 m -4923.8,10529.3 c -22.5,0 -42.5,-8.4 -57.4,-23.5 -14.7,-14.9 -22.6,-34.7 -22.2,-55.7 l 3.9,-213.8 c 28,-1599.9 59.9,-3413.1 709,-5190 726,-1987.5 2115.6,-3616.3 4248.1,-4979.6 12.8,-8.1 27.6,-12.3 42.3,-12.3 12.2,0 24.4,2.8 35.5,8.5 v 0 c 555.1,285.3 1975.4,1122.3 3173.6,2729.3 1605.2,2152.9 2275.6,4880.7 1992.8,8107.6 -3.4,38.4 -33.6,68.3 -71.8,71.1 -1227.4,90.5 -3527.7,402.3 -5143.3,1474.3 -13.2,8.7 -28.2,13 -43.2,13 -18.7,0 -37.3,-6.7 -52,-19.9 -1471.7,-1318.7 -3478.9,-1909 -4815.3,-1909 v 0"
         id="path178" /></clipPath><linearGradient
       x1="0"
       y1="0"
       x2="1"
       y2="0"
       gradientUnits="userSpaceOnUse"
       gradientTransform="matrix(-4645.68,-4544.68,-4544.68,4645.68,36687.5,29678.7)"
       spreadMethod="pad"
       id="linearGradient186"><stop
         style="stop-opacity:1;stop-color:#ffd5d3"
         offset="0"
         id="stop182" /><stop
         style="stop-opacity:1;stop-color:#ffc7c2"
         offset="1"
         id="stop184" /></linearGradient><clipPath
       clipPathUnits="userSpaceOnUse"
       id="clipPath196"><path
         d="m 26398.9,18112.2 h -252.8 c -125.5,0 -227.3,101.7 -227.3,227.3 v 863.9 c 0,309.3 -250.7,560 -559.9,560 h -1566.3 c -309.3,0 -560,-250.7 -560,-560 v -863.9 c 0,-125.6 -101.7,-227.3 -227.2,-227.3 h -252.8 c -125.5,0 -227.3,101.7 -227.3,227.3 v 863.9 c 0,699.9 567.4,1267.3 1267.3,1267.3 h 1566.3 c 699.9,0 1267.2,-567.4 1267.2,-1267.3 v -863.9 c 0,-125.6 -101.7,-227.3 -227.2,-227.3"
         id="path194" /></clipPath><linearGradient
       x1="0"
       y1="0"
       x2="1"
       y2="0"
       gradientUnits="userSpaceOnUse"
       gradientTransform="matrix(-4645.68,-4544.68,-4544.68,4645.68,36687.5,29678.7)"
       spreadMethod="pad"
       id="linearGradient202"><stop
         style="stop-opacity:1;stop-color:#ffd5d3"
         offset="0"
         id="stop198" /><stop
         style="stop-opacity:1;stop-color:#ffc7c2"
         offset="1"
         id="stop200" /></linearGradient><clipPath
       clipPathUnits="userSpaceOnUse"
       id="clipPath212"><path
         d="m 26712.2,13680.8 h -4272.9 c -261.8,0 -474.1,212.3 -474.1,474.1 v 3279.3 c 0,261.8 212.3,474.1 474.1,474.1 h 4272.9 c 261.8,0 474.1,-212.3 474.1,-474.1 v -3279.3 c 0,-261.8 -212.3,-474.1 -474.1,-474.1 m -2136.5,3386.1 c -16.7,0 -33.6,-0.5 -50.5,-1.5 -397.3,-24.7 -719.4,-350.1 -740.4,-747.6 -16.2,-306.8 142.5,-578 385.2,-723.1 l -205.6,-855.9 c -26.5,-110.4 57.2,-216.7 170.8,-216.7 h 881.1 c 113.6,0 197.3,106.3 170.8,216.7 l -205.6,855.9 c 231.3,138.3 386.3,391.1 386.3,680.2 0,437.5 -354.6,792 -792.1,792"
         id="path210" /></clipPath><linearGradient
       x1="0"
       y1="0"
       x2="1"
       y2="0"
       gradientUnits="userSpaceOnUse"
       gradientTransform="matrix(-4645.68,-4544.68,-4544.68,4645.68,36687.5,29678.7)"
       spreadMethod="pad"
       id="linearGradient218"><stop
         style="stop-opacity:1;stop-color:#ffd5d3"
         offset="0"
         id="stop214" /><stop
         style="stop-opacity:1;stop-color:#ffc7c2"
         offset="1"
         id="stop216" /></linearGradient><clipPath
       clipPathUnits="userSpaceOnUse"
       id="clipPath228"><path
         d="m 8196.96,18980.3 c 0,0 346.07,-18.3 388.5,-730.3 0,0 -802.48,-719.4 -1886.46,-890.6 -81.39,-12.9 113.77,555.5 143.1,632.5 139.59,366.3 579.2,602.2 1354.86,988.4 z"
         id="path226" /></clipPath><linearGradient
       x1="0"
       y1="0"
       x2="1"
       y2="0"
       gradientUnits="userSpaceOnUse"
       gradientTransform="matrix(-1254.58,-1310.35,1310.35,-1254.58,7847.27,18303.5)"
       spreadMethod="pad"
       id="linearGradient234"><stop
         style="stop-opacity:1;stop-color:#09005d"
         offset="0"
         id="stop230" /><stop
         style="stop-opacity:1;stop-color:#1a0f91"
         offset="1"
         id="stop232" /></linearGradient><clipPath
       clipPathUnits="userSpaceOnUse"
       id="clipPath246"><path
         d="m 5034.03,14620 c 306.03,268.2 793.65,569.1 1497.57,655.4 l 238.06,-145.6 c 0,0 -151.8,-224 -429.12,-460.5 -254.88,-148 -648.45,-348.5 -974.73,-392 -317.23,-42.2 -364.01,149.5 -331.78,342.7 z"
         id="path244" /></clipPath><linearGradient
       x1="0"
       y1="0"
       x2="1"
       y2="0"
       gradientUnits="userSpaceOnUse"
       gradientTransform="matrix(-2373.09,-1741.72,1741.72,-2373.09,6182.99,15014.6)"
       spreadMethod="pad"
       id="linearGradient252"><stop
         style="stop-opacity:1;stop-color:#09005d"
         offset="0"
         id="stop248" /><stop
         style="stop-opacity:1;stop-color:#1a0f91"
         offset="1"
         id="stop250" /></linearGradient><clipPath
       clipPathUnits="userSpaceOnUse"
       id="clipPath268"><path
         d="m 11987,22044 c 0,0 -368.2,-1845.1 -2172.09,-2575 l -641.65,75.6 -151.41,-241.4 1505.15,-48 c 0,0 1286.5,509.6 1968.2,1898.1 22.5,45.9 397.9,821 -508.2,890.7 z"
         id="path266" /></clipPath><linearGradient
       x1="0"
       y1="0"
       x2="1"
       y2="0"
       gradientUnits="userSpaceOnUse"
       gradientTransform="matrix(1611.09,-1915.89,1915.89,1611.09,10017,21451.6)"
       spreadMethod="pad"
       id="linearGradient274"><stop
         style="stop-opacity:1;stop-color:#febbba"
         offset="0"
         id="stop270" /><stop
         style="stop-opacity:1;stop-color:#ff928e"
         offset="1"
         id="stop272" /></linearGradient><clipPath
       clipPathUnits="userSpaceOnUse"
       id="clipPath284"><path
         d="m 11789.7,19319.2 c 0,0 418.6,1138 508.6,2243.8 0,0 -306.3,263.2 -497.7,376.8 -62,36.8 -85.4,114.6 -54.1,179.5 140.8,291.6 991.9,1436.4 1055.7,1452.3 346.5,86.5 1767.8,762.3 2768.8,-606.9 429.6,-587.6 -85.2,-2396.5 -2034.2,-4269.9 -627.1,-102.1 -1213.5,78.6 -1747.1,624.4 z"
         id="path282" /></clipPath><linearGradient
       x1="0"
       y1="0"
       x2="1"
       y2="0"
       gradientUnits="userSpaceOnUse"
       gradientTransform="matrix(-4847.92,-5049.91,-5049.91,4847.92,18005.4,26167.2)"
       spreadMethod="pad"
       id="linearGradient290"><stop
         style="stop-opacity:1;stop-color:#ff928e"
         offset="0"
         id="stop286" /><stop
         style="stop-opacity:1;stop-color:#fe7062"
         offset="1"
         id="stop288" /></linearGradient><clipPath
       clipPathUnits="userSpaceOnUse"
       id="clipPath300"><path
         d="m 13402.9,21313.7 c 0,0 -1163.2,-1377.3 -2650.3,-1578.6 0,0 -384.3,350.3 -670.1,225.3 -285.82,-125.1 -677.69,-677.3 -677.69,-677.3 h 1909.49 c 0,0 1805.4,63.6 2707.6,1158.4 -72.6,383.1 -290,612 -619,872.2 z"
         id="path298" /></clipPath><linearGradient
       x1="0"
       y1="0"
       x2="1"
       y2="0"
       gradientUnits="userSpaceOnUse"
       gradientTransform="matrix(-3220.31,4405.56,-4405.56,-3220.31,11895.6,19708.4)"
       spreadMethod="pad"
       id="linearGradient306"><stop
         style="stop-opacity:1;stop-color:#febbba"
         offset="0"
         id="stop302" /><stop
         style="stop-opacity:1;stop-color:#ff928e"
         offset="1"
         id="stop304" /></linearGradient><clipPath
       clipPathUnits="userSpaceOnUse"
       id="clipPath316"><path
         d="m 14081.4,24537.6 254.5,-848.8 c 11.7,-38.9 -2.7,-81 -36.2,-103.9 -122.5,-84 -442.8,-250.9 -882.1,-88.7 -50.2,18.6 -84.7,65.5 -89,118.9 l -60.4,739.5 z"
         id="path314" /></clipPath><linearGradient
       x1="0"
       y1="0"
       x2="1"
       y2="0"
       gradientUnits="userSpaceOnUse"
       gradientTransform="matrix(-118.618,1067.56,-1067.56,-118.618,13865.5,23359.2)"
       spreadMethod="pad"
       id="linearGradient322"><stop
         style="stop-opacity:1;stop-color:#febbba"
         offset="0"
         id="stop318" /><stop
         style="stop-opacity:1;stop-color:#ff928e"
         offset="1"
         id="stop320" /></linearGradient><clipPath
       clipPathUnits="userSpaceOnUse"
       id="clipPath332"><path
         d="m 12591.2,25225.1 c 0,0 125.1,-879.9 463.1,-1150.5 338,-270.6 996.6,-66.9 1219,596.5 l -443.2,1134.2 z"
         id="path330" /></clipPath><linearGradient
       x1="0"
       y1="0"
       x2="1"
       y2="0"
       gradientUnits="userSpaceOnUse"
       gradientTransform="matrix(522.83,1724.42,-1724.42,522.83,13232.9,24290.5)"
       spreadMethod="pad"
       id="linearGradient338"><stop
         style="stop-opacity:1;stop-color:#febbba"
         offset="0"
         id="stop334" /><stop
         style="stop-opacity:1;stop-color:#ff928e"
         offset="1"
         id="stop336" /></linearGradient><clipPath
       clipPathUnits="userSpaceOnUse"
       id="clipPath348"><path
         d="m 13880,25071.3 c -25.7,-8.3 -52.6,8.2 -56.6,34.9 -12.2,81.2 -42.7,242 -104.3,351.5 0,0 32.2,115.4 -291.8,-59 -324,-174.4 -810.6,-430.5 -1097.2,-278 -279.3,148.7 -562.3,897.2 176,758.6 28.1,-5.3 53.9,17.1 51.8,45.6 -9.1,123 3.1,406 289.8,496.9 268.2,85 415,-36.1 475.5,-109.2 17.8,-21.5 50.8,-21 67.8,1.1 80.4,104.9 298.5,328.2 619.8,186.6 264.5,-116.6 305.7,-279.6 301.3,-381.1 -1.4,-32.9 32,-55.2 61.9,-41.4 81,37.3 211.3,56.7 336.2,-99.7 172.6,-216.3 -74.1,-403.8 -148.1,-453 -12.1,-8.1 -19.6,-21.4 -19.7,-36 -0.7,-112.4 -18.2,-603 -264.1,-879.7 -21.3,-24 -60.6,-16.9 -73,12.6 l -189.3,451.1 c -8.8,20.9 -32.2,31.7 -53.8,24.7 z"
         id="path346" /></clipPath><linearGradient
       x1="0"
       y1="0"
       x2="1"
       y2="0"
       gradientUnits="userSpaceOnUse"
       gradientTransform="matrix(-486.093,-2772.53,2772.53,-486.093,13704.7,27456.8)"
       spreadMethod="pad"
       id="linearGradient354"><stop
         style="stop-opacity:1;stop-color:#09005d"
         offset="0"
         id="stop350" /><stop
         style="stop-opacity:1;stop-color:#1a0f91"
         offset="1"
         id="stop352" /></linearGradient><clipPath
       clipPathUnits="userSpaceOnUse"
       id="clipPath364"><path
         d="m 13876,24979.7 c 0,0 115.6,470.9 291.2,318 175.7,-152.9 -45.7,-489.3 -246.9,-553.5 z"
         id="path362" /></clipPath><linearGradient
       x1="0"
       y1="0"
       x2="1"
       y2="0"
       gradientUnits="userSpaceOnUse"
       gradientTransform="matrix(522.831,1724.42,-1724.42,522.831,13774.4,24126.3)"
       spreadMethod="pad"
       id="linearGradient370"><stop
         style="stop-opacity:1;stop-color:#febbba"
         offset="0"
         id="stop366" /><stop
         style="stop-opacity:1;stop-color:#ff928e"
         offset="1"
         id="stop368" /></linearGradient><clipPath
       clipPathUnits="userSpaceOnUse"
       id="clipPath380"><path
         d="m 9500.94,19176.2 -857.34,2859.2 c -34.97,116.6 -138.6,199.4 -260.08,207.7 l -1157.53,79.2 c -117.66,8 -205.17,-106.9 -166.11,-218.2 l 958.43,-2730.5 c 30.88,-87.9 109.85,-150.1 202.6,-159.5 l 1139.87,-126.5 z"
         id="path378" /></clipPath><linearGradient
       x1="0"
       y1="0"
       x2="1"
       y2="0"
       gradientUnits="userSpaceOnUse"
       gradientTransform="matrix(-2450.49,0,0,-2450.49,9500.94,20705.1)"
       spreadMethod="pad"
       id="linearGradient386"><stop
         style="stop-opacity:1;stop-color:#09005d"
         offset="0"
         id="stop382" /><stop
         style="stop-opacity:1;stop-color:#1a0f91"
         offset="1"
         id="stop384" /></linearGradient><clipPath
       clipPathUnits="userSpaceOnUse"
       id="clipPath398"><path
         d="m 9360.78,19087.6 c 1.85,0 3.71,0 5.59,0.1 l 2428.83,122.8 c 60,3 106.2,54.1 103.2,114.2 -3.1,60 -54.4,107.2 -114.2,103.2 l -2428.83,-122.8 c -60.04,-3 -106.25,-54.1 -103.22,-114.2 2.95,-58.1 51.03,-103.3 108.63,-103.3 z"
         id="path396" /></clipPath><linearGradient
       x1="0"
       y1="0"
       x2="1"
       y2="0"
       gradientUnits="userSpaceOnUse"
       gradientTransform="matrix(1959.43,-537.029,537.029,1959.43,9203.52,19633.9)"
       spreadMethod="pad"
       id="linearGradient404"><stop
         style="stop-opacity:1;stop-color:#09005d"
         offset="0"
         id="stop400" /><stop
         style="stop-opacity:1;stop-color:#1a0f91"
         offset="1"
         id="stop402" /></linearGradient><clipPath
       clipPathUnits="userSpaceOnUse"
       id="clipPath414"><path
         d="m 12298.3,21546.2 c -9.3,0 -16.8,7.5 -16.8,16.8 -1.7,512.7 195.6,1191.2 197.6,1198 2.6,8.9 11.9,14 20.8,11.4 9,-2.6 14.1,-11.9 11.5,-20.8 -2,-6.8 -197.9,-680.8 -196.3,-1188.5 0.1,-9.3 -7.5,-16.9 -16.8,-16.9 z"
         id="path412" /></clipPath><linearGradient
       x1="0"
       y1="0"
       x2="1"
       y2="0"
       gradientUnits="userSpaceOnUse"
       gradientTransform="matrix(-757.449,-11664.7,-11664.7,757.449,12830.7,28881.7)"
       spreadMethod="pad"
       id="linearGradient420"><stop
         style="stop-opacity:1;stop-color:#e1473d"
         offset="0"
         id="stop416" /><stop
         style="stop-opacity:1;stop-color:#e9605a"
         offset="1"
         id="stop418" /></linearGradient><clipPath
       clipPathUnits="userSpaceOnUse"
       id="clipPath430"><path
         d="m 13402.9,21296.8 c -3.7,0 -7.4,1.2 -10.5,3.6 -7.2,5.8 -8.5,16.4 -2.7,23.7 5.3,6.7 533.2,677.8 713.9,1135.7 3.4,8.7 13.1,13.1 21.8,9.5 8.7,-3.4 12.9,-13.2 9.5,-21.9 -182.5,-462.4 -713.5,-1137.4 -718.8,-1144.2 -3.3,-4.2 -8.3,-6.4 -13.2,-6.4 z"
         id="path428" /></clipPath><linearGradient
       x1="0"
       y1="0"
       x2="1"
       y2="0"
       gradientUnits="userSpaceOnUse"
       gradientTransform="matrix(-757.449,-11664.7,-11664.7,757.449,14209.7,28792.1)"
       spreadMethod="pad"
       id="linearGradient436"><stop
         style="stop-opacity:1;stop-color:#e1473d"
         offset="0"
         id="stop432" /><stop
         style="stop-opacity:1;stop-color:#e9605a"
         offset="1"
         id="stop434" /></linearGradient><clipPath
       clipPathUnits="userSpaceOnUse"
       id="clipPath446"><path
         d="m 14151.2,20264.9 -96,135.8 c -5.4,7.6 -3.6,18.1 4,23.5 7.6,5.4 18.1,3.6 23.5,-4 l 80.3,-113.6 c 749.1,328.4 1212.8,1224.6 1217.5,1233.7 4.2,8.2 14.3,11.6 22.6,7.3 8.3,-4.2 11.6,-14.4 7.3,-22.6 -4.7,-9.3 -478.9,-926 -1246.7,-1254.7 z"
         id="path444" /></clipPath><linearGradient
       x1="0"
       y1="0"
       x2="1"
       y2="0"
       gradientUnits="userSpaceOnUse"
       gradientTransform="matrix(-757.449,-11664.7,-11664.7,757.449,15235.7,28725.5)"
       spreadMethod="pad"
       id="linearGradient452"><stop
         style="stop-opacity:1;stop-color:#e1473d"
         offset="0"
         id="stop448" /><stop
         style="stop-opacity:1;stop-color:#e9605a"
         offset="1"
         id="stop450" /></linearGradient></defs><sodipodi:namedview
     bordercolor="#666666"
     borderopacity="1"
     objecttolerance="10"
     gridtolerance="10"
     guidetolerance="10"
     inkscape:pageopacity="0"
     inkscape:pageshadow="2"
     inkscape:window-width="640"
     inkscape:window-height="480"
     id="namedview4" /><g
     id="g10"
     inkscape:groupmode="layer"
     inkscape:label="ink_ext_XXXXXX"
     transform="matrix(1.3333333,0,0,-1.3333333,0,4946.6667)"><g
       id="g12"
       transform="scale(0.1)"><path
         d="M 0,0 H 37100 V 37100 H 0 Z"
         style="fill:none;fill-opacity:1;fill-rule:nonzero;stroke:none"
         id="path14" /><g
         id="g16"><g
           id="g18"
           clip-path="url(#clipPath22)"><path
             d="m 17502,4550 c -662.4,0 -1319.7,49.4 -1967.2,150.6 -524.6,82 -1543,251.7 -2740.1,726.8 h 9597.5 C 20804.4,4853.3 19140.5,4550 17502,4550 m 6722,1678.2 25.1,1734.5 h 2619.6 C 26046.8,7291.2 25157.5,6710.7 24224,6228.2 m 7099.5,8121.4 c -466.8,448.8 -1050.3,771.5 -1698.7,915.3 590.1,1617.9 899.7,3638.9 640.6,6141.1 -20.2,194.9 -178.9,346.6 -374.5,357.4 -668.7,36.7 -2227.2,174.8 -3663.6,686.9 -1448.7,1364.8 -3381.5,2198.2 -5504,2198.2 -269,0 -534.6,-13.4 -796.9,-39.5 l 230,529.6 c 303.8,46.6 602.3,142 883.1,287.4 l 567,-333.1 c 8.5,-5 18,-7.4 27.4,-7.4 12.6,0 25.1,4.4 35.1,13 l 599.8,513 c 17.5,15 23.6,39.5 15.2,60.9 l -241.2,611.8 c 187,254.9 327.5,535.1 420.6,827.9 l 636.9,165.5 c 22.3,5.8 38.5,25.2 40.3,48.2 l 61.3,786.8 c 1.8,23 -11.2,44.6 -32.4,53.8 l -603.5,262.2 c -46.6,303.7 -142,602.2 -287.4,883.1 l 333.1,567 c 11.7,19.9 9.4,45 -5.6,62.5 l -513,599.8 c -10.5,12.2 -25.6,18.9 -41.1,18.9 -6.7,0 -13.4,-1.2 -19.8,-3.8 l -611.8,-241.2 c -254.9,187.1 -535,327.6 -827.9,420.7 l -165.5,636.8 c -5.8,22.4 -25.1,38.5 -48.1,40.3 l -786.9,61.3 c -1.4,0.2 -2.8,0.2 -4.2,0.2 -21.4,0 -41,-12.7 -49.6,-32.5 l -262.2,-603.5 c -303.7,-46.7 -602.2,-142.1 -883,-287.4 l -567,333.1 c -8.6,5 -18,7.4 -27.4,7.4 -12.6,0 -25.1,-4.4 -35.2,-13 l -599.7,-513 c -17.6,-15 -23.7,-39.5 -15.2,-61 l 241.2,-611.7 c -187.1,-255 -327.5,-535 -420.6,-827.9 l -636.9,-165.5 c -22.3,-5.8 -38.5,-25.2 -40.3,-48.2 l -61.3,-786.9 c -1.8,-22.9 11.2,-44.5 32.4,-53.7 l 603.5,-262.2 c 46.6,-303.7 142,-602.2 287.3,-883.1 l -333,-567 c -11.7,-19.9 -9.5,-45 5.5,-62.5 l 513.1,-599.8 c 10.4,-12.2 25.6,-18.9 41,-18.9 6.7,0 13.4,1.2 19.9,3.8 l 611.7,241.2 c 255,-187.1 535.1,-327.6 827.9,-420.7 l 165.6,-636.8 c 5.7,-22.4 25.1,-38.5 48.1,-40.3 l 339.8,-26.5 c -3188.5,-537.5 -5752.5,-2975.5 -6549.1,-6141.7 -70.6,-280.6 -315.5,-457.1 -576.8,-457.1 -86.8,0 -175.5,19.5 -260.2,61.2 -672.9,330.9 -1426.5,516.4 -2222.67,516.4 -414.99,0 -841.62,-50.5 -1274.12,-156.9 -1244.37,-306.3 -2307.87,-1083.9 -3001.32,-2139.3 -255.02,3139.7 435.67,6434.2 2188.88,9178.5 2599.83,4069.5 7211.53,6418.6 11649.73,6418.6 108.8,0 217,-1.4 325.6,-4.2 977.3,-25.5 4722.5,-182.4 8014,-2936.2 483.4,-404.5 1549.7,-1365.6 2510.7,-2890.4 2081.2,-3302.2 2407.9,-7802.3 1125.4,-11636.9 m -6723.9,10343.5 c 131,-96.1 274.9,-168.2 425.3,-216.1 l 85,-327.1 c 3,-11.5 12.9,-19.8 24.8,-20.7 l 404.2,-31.5 c 0.7,0 1.4,-0.1 2.1,-0.1 11,0 21.1,6.5 25.5,16.7 l 134.7,310 c 156,24 309.3,73 453.6,147.7 l 291.3,-171.1 c 4.3,-2.6 9.2,-3.9 14,-3.9 6.5,0 12.9,2.3 18.1,6.7 l 308,263.6 c 9.1,7.7 12.2,20.2 7.8,31.2 l -123.9,314.3 c 96.1,131 168.3,274.8 216.1,425.3 l 327.2,85 c 11.4,3 19.7,12.9 20.7,24.7 l 31.5,404.2 c 0.9,11.8 -5.8,22.9 -16.7,27.7 l -310,134.6 c -23.9,156.1 -72.9,309.4 -147.6,453.7 l 171.1,291.2 c 6,10.2 4.8,23.1 -2.8,32.1 l -263.6,308.1 c -5.4,6.3 -13.2,9.7 -21.1,9.7 -3.4,0 -6.9,-0.6 -10.2,-1.9 l -314.2,-123.9 c -131,96.1 -274.9,168.3 -425.3,216.1 l -85,327.1 c -3,11.5 -12.9,19.8 -24.8,20.7 l -404.2,31.5 c -0.7,0.1 -1.4,0.1 -2.2,0.1 -10.9,0 -21,-6.5 -25.4,-16.7 l -134.7,-310 c -156,-24 -309.3,-73 -453.6,-147.6 l -291.3,171.1 c -4.3,2.5 -9.2,3.8 -14,3.8 -6.5,0 -12.9,-2.3 -18.1,-6.7 l -308.1,-263.5 c -9,-7.7 -12.1,-20.3 -7.7,-31.3 l 123.9,-314.3 c -96.1,-130.9 -168.3,-274.8 -216.1,-425.3 l -327.2,-85 c -11.4,-3 -19.7,-12.9 -20.7,-24.7 l -31.5,-404.2 c -0.9,-11.8 5.8,-22.9 16.7,-27.6 l 310,-134.7 c 23.9,-156 72.9,-309.4 147.6,-453.6 l -171.1,-291.3 c -6,-10.2 -4.8,-23.1 2.8,-32.1 l 263.6,-308.1 c 5.4,-6.3 13.1,-9.7 21.1,-9.7 3.4,0 6.9,0.6 10.2,1.9 l 314.2,123.9"
             style="fill:url(#linearGradient28);fill-opacity:1;fill-rule:nonzero;stroke:none"
             id="path30" /></g></g><g
         id="g32"><g
           id="g34"
           clip-path="url(#clipPath38)"><path
             d="m 28816.1,7962.7 h -1099.8 c 1837.1,0 3330.9,1559.1 3252.2,3441 -51.7,1235.6 -766.7,2295 -1789.1,2813.4 160.9,328.8 310.4,677.7 445.4,1047.8 648.4,-143.8 1231.9,-466.5 1698.7,-915.3 665,-639.5 1093.3,-1534.9 1135,-2533.1 88.2,-2107.6 -1584.9,-3853.8 -3642.4,-3853.8 M 8417.34,8150.9 c -2560.82,721.9 -4322.95,3421.5 -3625.9,6396.6 142.1,606.5 388.1,1171 717.75,1672.7 693.45,1055.4 1756.95,1833 3001.32,2139.3 432.5,106.4 859.13,156.9 1274.12,156.9 796.17,0 1549.77,-185.5 2222.67,-516.4 84.7,-41.7 173.4,-61.2 260.2,-61.2 261.3,0 506.2,176.5 576.8,457.1 796.6,3166.2 3360.6,5604.2 6549.1,6141.7 l 447.1,-34.8 c 1.4,-0.2 2.8,-0.2 4.2,-0.2 21.4,0 40.9,12.7 49.6,32.5 l 32.1,73.9 c 262.3,26.1 527.9,39.5 796.9,39.5 2122.5,0 4055.3,-833.4 5504,-2198.2 -594.5,212 -1168.1,488 -1649.1,847.6 -73.1,54.6 -172.9,98.1 -262.7,98.1 -54.7,0 -105.7,-16.1 -144.5,-55.9 -355.5,-363.7 -756.3,-673.7 -1176.9,-933.3 -780.6,293.8 -1623.7,454.1 -2503.6,454.1 -3383.8,0 -6227.1,-2372 -7035,-5582.7 -63,-250.6 -281.6,-408.1 -514.9,-408.1 -77.6,0 -156.8,17.4 -232.4,54.6 -600.7,295.5 -1273.7,461 -1984.5,461 -370.5,0 -751.47,-45 -1137.64,-140.1 C 7946.83,16842.2 6659.19,15522.8 6265.41,13842.1 5748.77,11637 6745.28,9601.3 8406.61,8604.6 l 10.73,-453.7"
             style="fill:url(#linearGradient44);fill-opacity:1;fill-rule:nonzero;stroke:none"
             id="path46" /></g></g><g
         id="g48"><g
           id="g50"
           clip-path="url(#clipPath54)"><path
             d="m 27716.3,7962.7 h -3467.2 l 23,1589.3 c 48.9,-20.3 101.1,-30.6 153.5,-30.6 58.2,0 116.5,12.7 170.6,38.3 706.4,334.6 3113.1,1652.7 4583.2,4657.4 1022.4,-518.4 1737.4,-1577.8 1789.1,-2813.4 78.7,-1881.9 -1415.1,-3441 -3252.2,-3441 M 8406.61,8604.6 c -1661.33,996.7 -2657.84,3032.4 -2141.2,5237.5 393.78,1680.7 1681.42,3000.1 3320.65,3403.5 386.17,95.1 767.14,140.1 1137.64,140.1 710.8,0 1383.8,-165.5 1984.5,-461 75.6,-37.2 154.8,-54.6 232.4,-54.6 233.3,0 451.9,157.5 514.9,408.1 807.9,3210.7 3651.2,5582.7 7035,5582.7 879.9,0 1723,-160.3 2503.6,-454.1 -1192.1,-735.6 -2543.2,-1066 -3472.9,-1066 -105.8,0 -206.3,4.3 -300.3,12.8 -12,1 -23.9,1.6 -35.8,1.6 -100.9,0 -198.5,-38.3 -272.7,-107.8 -83,-77.8 -128.8,-187.2 -126.2,-300.9 40.8,-1772.3 -6.6,-3872 763.5,-5971.8 l -10557.2,273.2 c -6.12,0.2 -12.24,0.2 -18.35,0.2 -187.17,0 -367.01,-74.1 -499.85,-206.5 -137.18,-136.7 -212.24,-323.7 -207.66,-517.2 l 139.97,-5919.8"
             style="fill:url(#linearGradient60);fill-opacity:1;fill-rule:nonzero;stroke:none"
             id="path62" /></g></g><g
         id="g64"><g
           id="g66"
           clip-path="url(#clipPath70)"><path
             d="M 23935.7,5427.4 H 8755.82 c -154.39,0 -280.71,126.2 -280.71,280.4 l -57.77,2443.1 -10.73,453.7 -139.97,5919.8 c -4.58,193.5 70.48,380.5 207.66,517.2 132.84,132.4 312.68,206.5 499.85,206.5 6.11,0 12.23,0 18.35,-0.2 l 10557.2,-273.2 c 42.2,-115 86.7,-229.7 133.9,-344.6 l -10632.75,285.2 c -4.43,0.1 -8.87,0.2 -13.29,0.2 -131.36,0 -257.53,-52.1 -350.79,-145.1 -96.38,-96.1 -149.4,-227.7 -145.99,-363.8 l 211.46,-8429.7 c 0,-146.1 119.51,-265.6 265.58,-265.6 H 23569.6 c 146.1,0 265.6,119.5 265.6,265.6 l 57.4,3810.5 c 105.1,-69 212,-137.4 321.5,-205.6 18.7,-11.6 38,-21.5 58,-29.8 l -23,-1589.3 -25.1,-1734.5 -7.6,-520.4 c 0,-154.2 -126.3,-280.4 -280.7,-280.4"
             style="fill:url(#linearGradient76);fill-opacity:1;fill-rule:nonzero;stroke:none"
             id="path78" /></g></g><path
         d="m 8752.24,5976.9 c 0,-146.1 119.51,-265.6 265.58,-265.6 H 23569.6 c 146.1,0 265.6,119.5 265.6,265.6 l 119.2,7919.2 c -14,476.6 -431.8,647.9 -685.1,637.8 l -14218.45,381.4 c -136.1,3.7 -267.68,-48.8 -364.08,-144.9 -96.38,-96.1 -149.4,-227.7 -145.99,-363.8 l 211.46,-8429.7"
         style="fill:#7d97f4;fill-opacity:1;fill-rule:nonzero;stroke:none"
         id="path80" /><path
         d="m 23678,9739.1 h -0.4 c -21.7,0.3 -38.9,18 -38.5,39.5 l 9.4,642.2 c 0.3,21.3 17.7,38.4 38.9,38.4 h 0.3 c 21.7,-0.3 38.9,-18 38.6,-39.5 l -9.4,-642.3 c -0.3,-21.3 -17.7,-38.3 -38.9,-38.3"
         style="fill:#ffffff;fill-opacity:1;fill-rule:nonzero;stroke:none"
         id="path82" /><path
         d="m 23701.1,11312.9 h -0.6 c -21.5,0.3 -38.7,18 -38.3,39.5 l 36.1,2459.8 c -0.7,146.1 -45,262.8 -131.9,345.9 -162,155.3 -419.2,147.4 -430.1,146.8 l -4544.5,121.9 c -21.5,0.6 -38.5,18.5 -37.9,39.9 0.6,21.5 17.1,39.8 40,37.9 l 4541.8,-121.9 c 28.3,1.7 302.2,6.4 484.6,-168.4 102.6,-98.3 155,-233.7 155.8,-402.5 l -36.1,-2460.6 c -0.3,-21.2 -17.7,-38.3 -38.9,-38.3"
         style="fill:#ffffff;fill-opacity:1;fill-rule:nonzero;stroke:none"
         id="path84" /><g
         id="g86"><g
           id="g88"
           clip-path="url(#clipPath92)"><path
             d="M 7300.18,4703.2 H 25083.6 c 31.1,0 56.5,25.5 56.5,56.6 v 653.4 c 0,31.1 -25.4,56.5 -56.5,56.5 H 7300.18 c -31.09,0 -56.54,-25.4 -56.54,-56.5 v -653.4 c 0,-31.1 25.45,-56.6 56.54,-56.6"
             style="fill:url(#linearGradient98);fill-opacity:1;fill-rule:nonzero;stroke:none"
             id="path100" /></g></g><path
         d="M 15065.5,6097.6 H 9462.68 c -206.59,0 -374.05,167.5 -374.05,374.1 v 7313.4 c 0,212.2 176.31,381.9 388.35,373.8 l 5602.82,-214.5 c 200.9,-7.6 359.7,-172.7 359.7,-373.7 v -7099 c 0,-206.6 -167.4,-374.1 -374,-374.1"
         style="fill:#91b3fa;fill-opacity:1;fill-rule:nonzero;stroke:none"
         id="path102" /><path
         d="m 13951.1,10796.7 h -3711.3 c -29.4,0 -53.3,23.9 -53.3,53.3 v 386.6 c 0,29.4 23.9,53.3 53.3,53.3 h 3711.3 c 29.4,0 53.3,-23.9 53.3,-53.3 V 10850 c 0,-29.4 -23.9,-53.3 -53.3,-53.3"
         style="fill:#c9dafd;fill-opacity:1;fill-rule:nonzero;stroke:none"
         id="path104" /><path
         d="m 13958.6,10009 h -3711.3 c -29.4,0 -53.3,23.9 -53.3,53.4 v 386.5 c 0,29.5 23.9,53.4 53.3,53.4 h 3711.3 c 29.4,0 53.3,-23.9 53.3,-53.4 v -386.5 c 0,-29.5 -23.9,-53.4 -53.3,-53.4"
         style="fill:#c9dafd;fill-opacity:1;fill-rule:nonzero;stroke:none"
         id="path106" /><path
         d="m 13981,9204.9 h -3711.3 c -29.4,0 -53.3,23.9 -53.3,53.3 v 386.6 c 0,29.4 23.9,53.3 53.3,53.3 H 13981 c 29.4,0 53.3,-23.9 53.3,-53.3 v -386.6 c 0,-29.4 -23.9,-53.3 -53.3,-53.3"
         style="fill:#c9dafd;fill-opacity:1;fill-rule:nonzero;stroke:none"
         id="path108" /><path
         d="m 13988.5,8417.3 h -3711.3 c -29.4,0 -53.3,23.8 -53.3,53.3 v 386.6 c 0,29.4 23.9,53.3 53.3,53.3 h 3711.3 c 29.4,0 53.3,-23.9 53.3,-53.3 v -386.6 c 0,-29.5 -23.9,-53.3 -53.3,-53.3"
         style="fill:#c9dafd;fill-opacity:1;fill-rule:nonzero;stroke:none"
         id="path110" /><path
         d="m 22090.2,10797.3 h -5382.4 c -29.4,0 -53.3,23.8 -53.3,53.3 v 386.6 c 0,29.4 23.9,53.3 53.3,53.3 h 5280.8 c 50.9,-48.8 102.4,-97.4 154.9,-146 v -293.9 c 0,-29.5 -23.9,-53.3 -53.3,-53.3"
         style="fill:#bfccfa;fill-opacity:1;fill-rule:nonzero;stroke:none"
         id="path112" /><path
         d="m 22107.1,10009 h -5382.3 c -29.5,0 -53.3,23.9 -53.3,53.4 v 386.5 c 0,29.5 23.8,53.4 53.3,53.4 h 5382.3 c 29.5,0 53.4,-23.9 53.4,-53.4 v -386.5 c 0,-29.5 -23.9,-53.4 -53.4,-53.4"
         style="fill:#bfccfa;fill-opacity:1;fill-rule:nonzero;stroke:none"
         id="path114" /><path
         d="m 19870.6,9204.9 h -3145.8 c -29.5,0 -53.3,23.9 -53.3,53.3 v 386.6 c 0,29.4 23.8,53.3 53.3,53.3 h 3145.8 c 29.5,0 53.4,-23.9 53.4,-53.3 v -386.6 c 0,-29.4 -23.9,-53.3 -53.4,-53.3"
         style="fill:#bfccfa;fill-opacity:1;fill-rule:nonzero;stroke:none"
         id="path116" /><path
         d="m 19568.3,13128.7 h -83.6 c -41.5,0 -75.2,33.7 -75.2,75.2 v 285.8 c 0,102.3 -82.9,185.2 -185.2,185.2 h -518 c -102.3,0 -185.3,-82.9 -185.3,-185.2 v -285.8 c 0,-41.5 -33.6,-75.2 -75.1,-75.2 h -83.7 c -41.5,0 -75.1,33.7 -75.1,75.2 v 285.8 c 0,231.5 187.6,419.1 419.2,419.1 h 518 c 231.5,0 419.2,-187.6 419.2,-419.1 v -285.8 c 0,-41.5 -33.6,-75.2 -75.2,-75.2"
         style="fill:#bfccfa;fill-opacity:1;fill-rule:nonzero;stroke:none"
         id="path118" /><path
         d="m 19672,11662.9 h -1413.4 c -86.6,0 -156.8,70.2 -156.8,156.8 v 1084.7 c 0,86.6 70.2,156.9 156.8,156.9 H 19672 c 86.6,0 156.8,-70.3 156.8,-156.9 v -1084.7 c 0,-86.6 -70.2,-156.8 -156.8,-156.8 m -706.7,1120.1 c -5.5,0 -11.1,-0.2 -16.7,-0.6 -131.4,-8.1 -238,-115.7 -244.9,-247.2 -5.4,-101.5 47.1,-191.2 127.4,-239.2 l -68,-283.1 c -8.8,-36.5 18.9,-71.7 56.5,-71.7 h 291.4 c 37.6,0 65.3,35.2 56.5,71.7 l -68,283.1 c 76.5,45.7 127.8,129.4 127.8,225 0,144.7 -117.3,262 -262,262"
         style="fill:#bfccfa;fill-opacity:1;fill-rule:nonzero;stroke:none"
         id="path120" /><path
         d="m 23682.5,25791.9 c -5.5,0 -11.2,1.3 -16.3,4.2 -16.3,9.1 -22.1,29.5 -13.1,45.8 21.7,39 42.7,78.2 63.1,117.8 8.5,16.5 28.7,22.9 45.3,14.4 16.5,-8.5 23,-28.8 14.5,-45.4 -20.7,-40.1 -42.1,-79.9 -64,-119.5 -6.2,-11.1 -17.7,-17.3 -29.5,-17.3"
         style="fill:#91b3fa;fill-opacity:1;fill-rule:nonzero;stroke:none"
         id="path122" /><path
         d="m 15568.7,26282.2 c -13.3,0 -25.9,8 -31.2,21.1 -33.3,82 -64.5,165.9 -92.8,249.2 -5.9,17.6 3.5,36.7 21.2,42.7 17.4,5.9 36.6,-3.5 42.6,-21.1 27.8,-82.1 58.6,-164.7 91.4,-245.5 7,-17.3 -1.3,-36.9 -18.5,-43.9 -4.2,-1.7 -8.5,-2.5 -12.7,-2.5 z m 309.5,-619.4 c -11.4,0 -22.6,5.9 -28.9,16.4 -45.6,76 -89.4,154 -130.2,232 -8.5,16.4 -2.2,36.8 14.3,45.4 16.4,8.6 36.8,2.2 45.4,-14.3 40.2,-76.7 83.3,-153.6 128.2,-228.5 9.6,-15.9 4.4,-36.6 -11.5,-46.2 -5.4,-3.2 -11.4,-4.8 -17.3,-4.8 z m 7422.4,-448.4 c -7.2,0 -14.5,2.3 -20.6,7.1 -14.7,11.4 -17.3,32.6 -5.9,47.3 53.6,68.9 105.7,140 154.8,211.3 10.6,15.4 31.6,19.2 46.8,8.7 15.3,-10.5 19.2,-31.5 8.7,-46.8 -49.9,-72.5 -102.7,-144.7 -157.2,-214.6 -6.6,-8.5 -16.5,-13 -26.6,-13 z m -7021.3,-116 c -9.6,0 -19.2,4.2 -25.9,12.2 -56.4,67.7 -111.6,138.1 -164.2,209.2 -11,14.9 -7.8,36 7.1,47.1 15.1,11 36.1,7.8 47.1,-7.1 51.8,-70 106.2,-139.4 161.8,-206.2 11.9,-14.2 9.9,-35.5 -4.4,-47.4 -6.2,-5.2 -13.9,-7.8 -21.5,-7.8 z m 6555.4,-396 c -9,0 -17.9,3.6 -24.5,10.6 -12.8,13.5 -12.2,34.8 1.4,47.6 63.3,59.8 125.7,122.1 185.3,185.2 12.8,13.5 34.1,14.1 47.6,1.4 13.5,-12.8 14.1,-34.1 1.4,-47.6 -60.6,-64.1 -123.8,-127.3 -188.1,-188 -6.5,-6.1 -14.9,-9.2 -23.1,-9.2 z m -6073.3,-101 c -7.9,0 -15.9,2.8 -22.3,8.4 -65.9,58.3 -131.1,119.6 -193.9,182 -13.2,13.1 -13.2,34.4 -0.1,47.6 13.1,13.2 34.4,13.3 47.6,0.1 61.8,-61.4 126.1,-121.8 191.1,-179.2 13.9,-12.4 15.2,-33.6 2.9,-47.6 -6.7,-7.5 -16,-11.3 -25.3,-11.3 z m 5534.7,-334.7 c -10.7,0 -21.2,5.1 -27.8,14.5 -10.5,15.3 -6.7,36.3 8.6,46.9 71.6,49.4 142.8,101.6 211.4,155.1 14.6,11.4 35.8,8.8 47.2,-5.9 11.5,-14.6 8.9,-35.8 -5.8,-47.2 -69.7,-54.3 -141.8,-107.3 -214.5,-157.5 -5.9,-4 -12.6,-5.9 -19.1,-5.9 z m -4982.7,-82.8 c -6.2,0 -12.6,1.7 -18.2,5.4 -74.3,47.6 -148.1,98.1 -219.5,150 -15,11 -18.3,32 -7.4,47.1 11,15 32.1,18.3 47.1,7.4 70.2,-51.2 142.9,-100.9 216.2,-147.9 15.6,-10 20.2,-30.8 10.1,-46.5 -6.4,-10 -17.2,-15.5 -28.3,-15.5 z m 4384,-265.2 c -12.5,0 -24.6,7 -30.4,19.1 -8.1,16.7 -1,36.8 15.8,44.9 78.3,37.7 156.5,78.3 232.6,120.7 16.4,9 36.7,3.2 45.8,-13.1 9.1,-16.2 3.2,-36.7 -13,-45.8 -77.3,-43 -156.7,-84.2 -236.3,-122.5 -4.7,-2.3 -9.6,-3.3 -14.5,-3.3 z m -3774.2,-62.1 c -4.6,0 -9.2,0.9 -13.6,2.8 -80.9,35.7 -161.7,74.2 -240,114.4 -16.5,8.5 -23.1,28.8 -14.6,45.4 8.5,16.4 28.8,23 45.4,14.5 77.1,-39.6 156.7,-77.5 236.4,-112.6 17,-7.5 24.7,-27.4 17.2,-44.4 -5.5,-12.6 -17.9,-20.1 -30.8,-20.1 z m 3129,-189.3 c -14.5,0 -27.8,9.3 -32.2,23.9 -5.4,17.8 4.7,36.6 22.4,42 83.4,25.2 167,53.3 248.5,83.3 17.4,6.4 36.8,-2.5 43.2,-20 6.4,-17.4 -2.5,-36.7 -19.9,-43.2 -82.7,-30.5 -167.6,-58.9 -252.2,-84.6 -3.3,-1 -6.6,-1.4 -9.8,-1.4 z m -2475.8,-40.3 c -2.9,0 -5.8,0.4 -8.7,1.2 -85.4,22.7 -171.1,48.3 -254.8,76.1 -17.7,5.8 -27.3,24.9 -21.4,42.5 5.8,17.6 24.8,27.2 42.5,21.4 82.6,-27.3 167,-52.6 251,-75 18,-4.8 28.7,-23.3 23.9,-41.2 -4.1,-15.1 -17.7,-25 -32.5,-25 z m 1799.6,-108.8 c -16.5,0 -30.9,12.1 -33.3,28.9 -2.6,18.5 10.2,35.5 28.6,38.1 86.2,12.1 173.1,27 258.3,44.1 18.1,3.7 36,-8.1 39.7,-26.3 3.6,-18.2 -8.2,-36 -26.4,-39.7 -86.5,-17.4 -174.7,-32.5 -262.2,-44.8 -1.6,-0.2 -3.2,-0.3 -4.7,-0.3 z m -1119,-18.1 c -1.3,0 -2.5,0.1 -3.7,0.2 -87.9,9.6 -176.6,21.8 -263.4,36.3 -18.4,3.1 -30.7,20.5 -27.7,38.8 3.1,18.3 20.5,30.8 38.8,27.6 85.6,-14.3 172.9,-26.4 259.5,-35.7 18.5,-2 31.9,-18.6 29.9,-37.1 -1.9,-17.3 -16.5,-30.1 -33.4,-30.1 z m 487.2,-26.2 c -19.9,0 -39.8,0.1 -59.6,0.4 -18.6,0.2 -33.5,15.5 -33.3,34.1 0.3,18.4 15.3,33.2 33.7,33.2 h 0.5 c 87.1,-1.2 175,0.3 261.9,4.2 17.4,1.2 34.4,-13.5 35.2,-32.1 0.8,-18.6 -13.6,-34.3 -32.1,-35.2 -68.4,-3.1 -137.8,-4.6 -206.3,-4.6"
         style="fill:#91b3fa;fill-opacity:1;fill-rule:nonzero;stroke:none"
         id="path124" /><path
         d="m 15358.1,26943.8 c -15.3,0 -29.1,10.4 -32.8,25.9 -10.3,44.1 -20,88.2 -29,132.5 -3.7,18.2 8,36 26.2,39.7 18.2,3.7 36,-8 39.7,-26.3 8.9,-43.6 18.5,-87.1 28.7,-130.5 4.2,-18.1 -7,-36.2 -25.1,-40.5 -2.6,-0.5 -5.2,-0.8 -7.7,-0.8"
         style="fill:#91b3fa;fill-opacity:1;fill-rule:nonzero;stroke:none"
         id="path126" /><path
         d="m 15928.9,30376.9 c -6.2,0 -12.4,1.7 -18,5.2 -15.7,9.9 -20.4,30.7 -10.5,46.5 24.1,38.1 48.7,76 74,113.6 10.3,15.4 31.3,19.6 46.7,9.1 15.4,-10.3 19.5,-31.2 9.2,-46.7 -25,-37 -49.2,-74.3 -72.9,-111.9 -6.4,-10.2 -17.4,-15.8 -28.5,-15.8"
         style="fill:#91b3fa;fill-opacity:1;fill-rule:nonzero;stroke:none"
         id="path128" /><path
         d="m 19425.3,32471.8 c -17.5,0 -32.3,13.6 -33.5,31.3 -1.3,18.6 12.6,34.6 31.2,35.9 92.4,6.5 186.4,10.2 279.4,11 h 0.3 c 18.5,0 33.5,-14.9 33.6,-33.4 0.2,-18.6 -14.8,-33.8 -33.3,-33.9 -91.6,-0.8 -184.2,-4.4 -275.3,-10.8 z m 1003.4,-41.3 c -1.6,0 -3.4,0.1 -5.1,0.4 -90.4,13.9 -182.4,25.1 -273.5,33.4 -18.5,1.6 -32.1,18 -30.5,36.6 1.8,18.5 17.7,32.2 36.6,30.4 92.5,-8.4 185.9,-19.8 277.6,-33.9 18.4,-2.8 31,-20 28.2,-38.3 -2.6,-16.7 -16.9,-28.6 -33.3,-28.6 z m -1723.1,-67.9 c -15.2,0 -29.1,10.4 -32.7,25.9 -4.3,18.1 6.9,36.2 25,40.5 90.6,21.4 182.8,40.1 274.1,55.7 18.7,3 35.7,-9.2 38.8,-27.5 3.2,-18.3 -9.1,-35.7 -27.4,-38.8 -90,-15.4 -180.8,-33.9 -270,-54.9 -2.6,-0.6 -5.2,-0.9 -7.8,-0.9 z m 2431.2,-100 c -3.4,0 -6.9,0.5 -10.4,1.6 -86.8,28.2 -175.9,54 -264.4,76.8 -18,4.7 -28.9,23.1 -24.3,41 4.7,18.1 23.3,28.9 41.1,24.3 89.9,-23.2 180.2,-49.4 268.4,-78 17.7,-5.8 27.4,-24.8 21.7,-42.5 -4.7,-14.2 -17.9,-23.2 -32.1,-23.2 z M 18013,32138.7 c -13.2,0 -25.7,7.8 -31.1,20.7 -7.1,17.2 1,36.9 18.2,44 85.5,35.6 173.5,69 261.4,99.3 17.7,6.1 36.8,-3.2 42.9,-20.8 6,-17.6 -3.3,-36.8 -20.9,-42.8 -86.7,-29.9 -173.3,-62.8 -257.6,-97.9 -4.2,-1.7 -8.6,-2.5 -12.9,-2.5 z m 3795.5,-156.1 c -5.2,0 -10.4,1.2 -15.4,3.8 -81.2,41.8 -164.8,81.7 -248.5,118.5 -17,7.5 -24.8,27.3 -17.3,44.4 7.5,17 27.3,24.8 44.4,17.2 85,-37.3 169.9,-77.8 252.3,-120.3 16.5,-8.5 23,-28.8 14.5,-45.3 -6,-11.6 -17.8,-18.3 -30,-18.3 z m -4442.8,-177.3 c -11.2,0 -22.2,5.7 -28.6,15.9 -9.8,15.8 -5,36.5 10.8,46.4 78.8,49 160.2,96.3 241.9,140.4 16.5,8.9 36.9,2.7 45.7,-13.6 8.8,-16.4 2.7,-36.8 -13.6,-45.6 -80.6,-43.5 -160.8,-90.1 -238.4,-138.4 -5.5,-3.4 -11.7,-5.1 -17.8,-5.1 z m 5060.2,-207.7 c -6.9,0 -14,2.2 -20,6.6 -73.4,54.6 -149.4,107.5 -226,157.3 -15.6,10.1 -20,31 -9.8,46.6 10.1,15.6 30.9,20 46.6,9.8 77.7,-50.6 154.9,-104.3 229.4,-159.6 14.9,-11.1 18,-32.2 6.9,-47.1 -6.6,-8.9 -16.8,-13.6 -27.1,-13.6 z m -5645.2,-225.8 c -9.3,0 -18.7,3.9 -25.3,11.5 -12.2,14 -10.8,35.3 3.2,47.5 70,61.2 142.8,120.9 216.1,177.6 14.9,11.3 35.9,8.5 47.3,-6.1 11.3,-14.7 8.6,-35.9 -6.1,-47.3 -72.3,-55.7 -144,-114.6 -213,-174.9 -6.4,-5.6 -14.3,-8.3 -22.2,-8.3 z m 6192.3,-253.9 c -8.8,0 -17.6,3.4 -24.2,10.2 -63.4,65.4 -129.9,129.9 -197.6,191.7 -13.8,12.5 -14.8,33.8 -2.2,47.5 12.5,13.8 33.8,14.8 47.5,2.2 68.8,-62.7 136.3,-128.1 200.7,-194.5 12.9,-13.4 12.6,-34.7 -0.8,-47.6 -6.5,-6.4 -14.9,-9.5 -23.4,-9.5 z m -6700.6,-267.1 c -7.5,0 -15.2,2.5 -21.4,7.7 -14.3,11.9 -16.3,33.1 -4.4,47.4 59,71.2 121.3,141.7 185,209.6 12.7,13.6 34,14.2 47.6,1.5 13.6,-12.8 14.3,-34.1 1.5,-47.6 -62.8,-66.9 -124.1,-136.4 -182.3,-206.5 -6.7,-8 -16.3,-12.1 -26,-12.1 z m 7164.6,-293.9 c -10.7,0 -21.1,5 -27.7,14.4 -52.3,74.8 -107.8,149.1 -164.8,220.7 -11.6,14.6 -9.2,35.7 5.4,47.3 14.6,11.6 35.7,9.2 47.3,-5.3 57.8,-72.8 114.2,-148.2 167.3,-224.1 10.7,-15.2 7,-36.2 -8.3,-46.9 -5.8,-4.1 -12.6,-6.1 -19.2,-6.1 z m 367.6,-628.2 c -12.5,0 -24.6,7 -30.4,19 -39.7,82.6 -82.4,164.9 -127,244.5 -9,16.2 -3.2,36.7 13,45.8 16.2,9 36.8,3.3 45.8,-12.9 45.2,-80.8 88.6,-164.3 128.9,-248.2 8.1,-16.7 1,-36.9 -15.7,-44.9 -4.7,-2.3 -9.7,-3.3 -14.6,-3.3 z m 260.9,-679.6 c -14.6,0 -28,9.5 -32.3,24.2 -25.7,87.8 -54.6,175.9 -85.7,261.9 -6.3,17.4 2.8,36.7 20.3,43.1 17.4,6.3 36.8,-2.8 43.1,-20.3 31.6,-87.2 60.8,-176.6 86.9,-265.7 5.3,-17.9 -5,-36.6 -22.8,-41.8 -3.2,-0.9 -6.4,-1.4 -9.5,-1.4"
         style="fill:#91b3fa;fill-opacity:1;fill-rule:nonzero;stroke:none"
         id="path130" /><path
         d="m 24193.5,28675.9 c -16.3,0 -30.6,11.9 -33.2,28.5 -6.9,44 -14.4,87.9 -22.6,131.7 -3.4,18.3 8.6,35.9 26.9,39.3 18.2,3.1 35.9,-8.7 39.3,-27 8.3,-44.4 15.9,-89 22.9,-133.6 2.9,-18.4 -9.7,-35.6 -28.1,-38.5 -1.7,-0.2 -3.5,-0.4 -5.2,-0.4"
         style="fill:#91b3fa;fill-opacity:1;fill-rule:nonzero;stroke:none"
         id="path132" /><path
         d="m 23201.9,28112.6 c 1.8,23 -11.2,44.6 -32.4,53.8 l -603.5,262.2 c -46.6,303.7 -142,602.2 -287.4,883.1 l 333.1,567 c 11.7,19.9 9.4,45 -5.6,62.5 l -513,599.8 c -15,17.5 -39.5,23.6 -60.9,15.1 l -611.8,-241.2 c -254.9,187.1 -535,327.6 -827.9,420.7 l -165.5,636.8 c -5.8,22.4 -25.1,38.5 -48.1,40.3 l -786.9,61.3 c -23,1.8 -44.6,-11.2 -53.8,-32.3 l -262.2,-603.5 c -303.7,-46.7 -602.2,-142.1 -883,-287.4 l -567,333.1 c -19.9,11.6 -45,9.4 -62.6,-5.6 l -599.7,-513 c -17.6,-15 -23.7,-39.5 -15.2,-61 l 241.2,-611.7 c -187.1,-255 -327.5,-535 -420.6,-827.9 l -636.9,-165.5 c -22.3,-5.8 -38.5,-25.2 -40.3,-48.2 l -61.3,-786.9 c -1.8,-22.9 11.2,-44.5 32.4,-53.7 l 603.5,-262.2 c 46.6,-303.7 142,-602.2 287.3,-883.1 l -333,-567 c -11.7,-19.9 -9.5,-45 5.5,-62.5 l 513.1,-599.8 c 14.9,-17.5 39.4,-23.6 60.9,-15.1 l 611.7,241.2 c 255,-187.1 535.1,-327.6 827.9,-420.7 l 165.6,-636.8 c 5.7,-22.4 25.1,-38.5 48.1,-40.3 l 786.9,-61.3 c 23,-1.8 44.6,11.2 53.8,32.3 l 262.1,603.5 c 303.8,46.6 602.3,142 883.1,287.4 l 567,-333.1 c 19.9,-11.6 45,-9.4 62.5,5.6 l 599.8,513 c 17.5,15 23.6,39.5 15.2,60.9 l -241.2,611.8 c 187,254.9 327.5,535.1 420.6,827.9 l 636.9,165.5 c 22.3,5.8 38.5,25.2 40.3,48.2 l 61.3,786.8"
         style="fill:#91b3fa;fill-opacity:1;fill-rule:nonzero;stroke:none"
         id="path134" /><path
         d="m 19714.6,27236.9 c -154.1,0 -304.1,47.4 -432.4,138.2 -338.2,239.3 -418.6,709.1 -179.3,1047.3 116,163.8 288.8,272.7 486.6,306.5 42.8,7.4 85.7,11 128.2,11 154.1,0 304.2,-47.4 432.5,-138.2 163.9,-116 272.7,-288.7 306.6,-486.5 33.8,-197.9 -11.4,-397 -127.3,-560.8 -115.9,-163.8 -288.7,-272.7 -486.5,-306.6 -42.8,-7.3 -85.8,-10.9 -128.4,-10.9 m 3,1402 c -36.9,0 -74,-3.2 -111.1,-9.5 -171.2,-29.3 -320.8,-123.5 -421.1,-265.3 -207.2,-292.7 -137.6,-699.4 155.1,-906.5 111.1,-78.7 241,-119.7 374.4,-119.7 36.8,0 74,3.2 111.1,9.5 171.2,29.3 320.7,123.5 421,265.3 100.4,141.8 139.5,314.2 110.3,485.4 -29.4,171.2 -123.6,320.8 -265.4,421.1 -111.1,78.6 -240.9,119.7 -374.3,119.7"
         style="fill:#dee8fd;fill-opacity:1;fill-rule:nonzero;stroke:none"
         id="path136" /><path
         d="m 19702.6,26033.2 c -51.5,0 -103.2,2 -155,6.1 -520.6,40.5 -994.3,281.4 -1333.7,678.2 -305.7,357.3 -469.6,802.5 -469.6,1267.6 0,51.5 2,103.2 6.1,155.1 40.5,520.6 281.4,994.2 678.3,1333.7 357.2,305.6 802.4,469.5 1267.6,469.5 51.5,0 103.2,-2 155,-6 520.7,-40.6 994.3,-281.5 1333.7,-678.3 90.7,-105.9 170,-221.3 235.7,-343 l -88.8,-48 c -62.4,115.4 -137.6,224.9 -223.6,325.4 -321.9,376.3 -771.1,604.7 -1264.8,643.2 -48.9,3.8 -97.7,5.7 -146.2,5.7 -441.4,0 -863.9,-155.2 -1203,-445.2 -376.3,-322 -604.8,-771.2 -643.3,-1264.9 -3.8,-49.1 -5.7,-98.2 -5.7,-147 0,-441.1 155.5,-863.4 445.3,-1202.2 321.9,-376.3 771.1,-604.7 1264.8,-643.2 49.2,-3.8 98.3,-5.7 147.2,-5.7 441.3,0 863.2,155.4 1202,445.2 255.4,218.5 446.5,501.6 552.6,818.5 l 95.8,-32 c -111.9,-334.3 -313.4,-632.8 -582.8,-863.2 -357.2,-305.6 -802.4,-469.5 -1267.6,-469.5"
         style="fill:#dee8fd;fill-opacity:1;fill-rule:nonzero;stroke:none"
         id="path138" /><path
         d="m 27479.8,24686.8 c -5.8,0 -11.7,1.5 -17.1,4.7 -16,9.4 -21.3,30.1 -11.8,46.1 22.6,38.2 44.3,77.2 64.3,116 8.5,16.5 28.8,23 45.4,14.5 16.5,-8.5 22.9,-28.9 14.4,-45.4 -20.6,-39.9 -42.9,-80.1 -66.2,-119.4 -6.2,-10.7 -17.5,-16.5 -29,-16.5"
         style="fill:#91b3fa;fill-opacity:1;fill-rule:nonzero;stroke:none"
         id="path140" /><path
         d="m 23538.6,24620.8 c -11.1,0 -22,5.4 -28.4,15.5 -49.4,77 -94.6,157.8 -134.6,240.2 -8.1,16.7 -1.2,36.8 15.6,44.9 16.8,8.1 36.8,1.1 44.9,-15.6 38.9,-79.9 82.9,-158.4 130.8,-233.2 10,-15.7 5.5,-36.5 -10.2,-46.5 -5.6,-3.6 -11.9,-5.3 -18.1,-5.3 z m 3489.5,-481.6 c -9.2,0 -18.5,3.8 -25.1,11.2 -12.4,13.9 -11.2,35.2 2.7,47.5 l 19.8,17.9 c 59.2,54 116.1,111.6 169.2,171.3 12.4,14 33.6,15.2 47.5,2.8 14,-12.4 15.2,-33.6 2.8,-47.5 -54.6,-61.4 -113.2,-120.8 -174.2,-176.4 l -20.3,-18.3 c -6.4,-5.7 -14.4,-8.5 -22.4,-8.5 z m -3020.2,-50.8 c -7.6,0 -15.2,2.6 -21.5,7.8 -70,58.4 -137.5,121.8 -200.6,188.4 -12.8,13.5 -12.2,34.8 1.2,47.6 13.6,12.7 34.9,12.2 47.6,-1.3 61.4,-64.7 126.9,-126.2 194.9,-183 14.3,-11.9 16.2,-33.1 4.3,-47.4 -6.7,-8 -16.2,-12.1 -25.9,-12.1 z m 2424.5,-335.1 c -12.9,0 -25.2,7.4 -30.8,19.9 -7.6,17 0,36.9 17,44.5 81.1,36.3 161,77.7 237.3,123.3 15.9,9.5 36.6,4.3 46.1,-11.7 9.6,-15.9 4.4,-36.6 -11.6,-46.1 -78.5,-46.9 -160.8,-89.6 -244.3,-127 -4.5,-2 -9.2,-2.9 -13.7,-2.9 z m -1816.2,-30.2 c -4.3,0 -8.6,0.8 -12.7,2.4 -84.7,34.4 -168.2,74.3 -248.4,118.5 -16.3,8.9 -22.3,29.4 -13.3,45.7 9,16.3 29.4,22.2 45.7,13.2 78,-42.9 159.2,-81.6 241.4,-115 17.1,-7 25.5,-26.6 18.5,-43.9 -5.4,-13 -18,-20.9 -31.2,-20.9 z m 1131.1,-156 c -16.9,0 -31.5,12.8 -33.4,30 -2.1,18.4 11.2,35.1 29.7,37.2 88.6,9.9 177.3,25.1 263.6,45.1 17.9,4.4 36.1,-7 40.4,-25.1 4.2,-18.1 -7.1,-36.2 -25.2,-40.4 -88.8,-20.7 -180.1,-36.3 -271.3,-46.6 -1.3,-0.1 -2.5,-0.2 -3.8,-0.2 z m -440.3,-7.1 -2.7,0.1 c -91.3,7.2 -183,19.8 -272.6,37.5 -18.3,3.6 -30.1,21.4 -26.5,39.6 3.6,18.2 21.4,30.1 39.5,26.5 87.1,-17.2 176.2,-29.5 264.9,-36.5 18.5,-1.4 32.4,-17.7 30.9,-36.2 -1.3,-17.6 -16.1,-31 -33.5,-31"
         style="fill:#91b3fa;fill-opacity:1;fill-rule:nonzero;stroke:none"
         id="path142" /><path
         d="m 23252.2,25271.7 c -14.9,0 -28.5,10 -32.5,25.1 -11.6,43.7 -22.1,88.5 -31.1,132.9 -3.7,18.2 8,36 26.3,39.7 18.2,3.7 36,-8 39.6,-26.3 8.8,-43.1 19,-86.5 30.3,-129.1 4.8,-17.9 -6,-36.4 -24,-41.1 -2.9,-0.8 -5.7,-1.2 -8.6,-1.2"
         style="fill:#91b3fa;fill-opacity:1;fill-rule:nonzero;stroke:none"
         id="path144" /><path
         d="m 23529.5,27098.8 c -6.1,0 -12.3,1.6 -17.9,5.2 -15.7,9.9 -20.4,30.6 -10.5,46.4 24.1,38.4 49.8,76.5 76.1,113.4 10.8,15.1 31.9,18.6 47,7.8 15.1,-10.8 18.6,-31.8 7.8,-46.9 -25.6,-35.8 -50.5,-72.9 -74,-110.2 -6.4,-10.2 -17.3,-15.7 -28.5,-15.7"
         style="fill:#91b3fa;fill-opacity:1;fill-rule:nonzero;stroke:none"
         id="path146" /><path
         d="m 25125,28152 c -16.3,0 -30.6,11.8 -33.2,28.4 -2.9,18.4 9.6,35.6 28,38.5 88.6,14 179.3,23.1 269.4,26.9 18.6,0.4 34.3,-13.6 35.1,-32.2 0.8,-18.6 -13.7,-34.3 -32.2,-35.1 -87.6,-3.7 -175.7,-12.5 -261.8,-26.1 -1.8,-0.3 -3.6,-0.4 -5.3,-0.4 z m 959.9,-49.3 c -2.8,0 -5.8,0.4 -8.7,1.2 -84.4,22.4 -171.1,40.1 -257.6,52.7 -18.4,2.7 -31.2,19.8 -28.5,38.2 2.7,18.4 19.6,31.6 38.1,28.4 89.1,-12.9 178.4,-31.2 265.3,-54.3 18,-4.7 28.7,-23.2 23.9,-41.1 -4,-15.1 -17.6,-25.1 -32.5,-25.1 z m -1625.1,-162.9 c -12.4,0 -24.3,6.8 -30.2,18.6 -8.3,16.7 -1.5,36.9 15.1,45.2 80.5,40 164.3,75.7 249.2,106.3 17.6,6.2 36.7,-2.8 43.1,-20.3 6.3,-17.5 -2.8,-36.8 -20.3,-43.1 -82.5,-29.7 -163.9,-64.4 -242,-103.2 -4.8,-2.4 -9.9,-3.5 -14.9,-3.5 z m 2264.9,-116.3 c -6.2,0 -12.4,1.7 -18,5.2 -73.9,46.7 -151.3,89.5 -230,127.3 -16.7,8.1 -23.8,28.2 -15.7,44.9 8,16.8 28,24 44.9,15.8 81,-38.9 160.7,-83 236.8,-131.1 15.7,-9.9 20.4,-30.7 10.5,-46.4 -6.4,-10.2 -17.4,-15.7 -28.5,-15.7 z M 23888.5,27538 c -8.8,0 -17.7,3.5 -24.3,10.4 -12.9,13.5 -12.4,34.8 1.1,47.6 13.6,13 27.4,25.9 41.4,38.6 52.5,48 107.9,94.2 164.5,137.1 14.8,11.3 35.9,8.5 47.2,-6.4 11.2,-14.8 8.4,-35.9 -6.5,-47.2 -54.9,-41.7 -108.8,-86.6 -159.8,-133.2 -13.6,-12.4 -27.1,-25 -40.3,-37.6 -6.6,-6.2 -14.9,-9.3 -23.3,-9.3 z m 3363.2,-172.7 c -9.5,0 -18.9,4 -25.6,11.8 -17.2,20.2 -34.8,40.2 -52.8,60 -41.1,45 -84.4,88.8 -128.8,130.4 -13.6,12.7 -14.3,34 -1.6,47.6 12.7,13.6 34,14.3 47.6,1.6 45.7,-42.8 90.3,-88 132.5,-134.3 18.6,-20.3 36.7,-40.8 54.4,-61.6 12,-14.2 10.3,-35.4 -3.8,-47.5 -6.4,-5.4 -14.1,-8 -21.9,-8 z m 367.4,-593.9 c -13.1,0 -25.6,7.6 -31,20.5 -34.2,80.4 -73.4,159.7 -116.7,235.7 -9.2,16.1 -3.6,36.7 12.6,45.9 16.1,9.2 36.6,3.5 45.9,-12.6 44.6,-78.2 85,-159.9 120.2,-242.7 7.2,-17.1 -0.7,-36.9 -17.9,-44.2 -4.3,-1.8 -8.7,-2.6 -13.1,-2.6"
         style="fill:#91b3fa;fill-opacity:1;fill-rule:nonzero;stroke:none"
         id="path148" /><path
         d="m 27774.9,26225 c -16.3,0 -30.6,11.9 -33.2,28.5 -6.8,43.5 -15,87.4 -24.2,130.4 -3.9,18.2 7.6,36.1 25.8,40 18.5,3.9 36.1,-7.7 40,-25.8 9.5,-44.3 17.9,-89.5 24.9,-134.2 2.9,-18.4 -9.7,-35.6 -28.1,-38.5 -1.7,-0.2 -3.5,-0.4 -5.2,-0.4"
         style="fill:#91b3fa;fill-opacity:1;fill-rule:nonzero;stroke:none"
         id="path150" /><path
         d="m 27265.6,25952 c 0.9,11.8 -5.8,22.9 -16.7,27.7 l -310,134.6 c -23.9,156.1 -72.9,309.4 -147.6,453.7 l 171.1,291.2 c 6,10.2 4.8,23.1 -2.8,32.1 l -263.6,308.1 c -7.7,9 -20.3,12.2 -31.3,7.8 l -314.2,-123.9 c -131,96.1 -274.9,168.3 -425.3,216.1 l -85,327.1 c -3,11.5 -12.9,19.8 -24.8,20.7 l -404.2,31.5 c -11.8,1 -22.9,-5.7 -27.6,-16.6 l -134.7,-310 c -156,-24 -309.3,-73 -453.6,-147.6 l -291.3,171.1 c -10.2,6 -23.1,4.8 -32.1,-2.9 l -308.1,-263.5 c -9,-7.7 -12.1,-20.3 -7.7,-31.3 l 123.9,-314.3 c -96.1,-130.9 -168.3,-274.8 -216.1,-425.3 l -327.2,-85 c -11.4,-3 -19.7,-12.9 -20.7,-24.7 l -31.5,-404.2 c -0.9,-11.8 5.8,-22.9 16.7,-27.6 l 310,-134.7 c 23.9,-156 72.9,-309.4 147.6,-453.6 l -171.1,-291.3 c -6,-10.2 -4.8,-23.1 2.8,-32.1 l 263.6,-308.1 c 7.7,-9 20.3,-12.1 31.3,-7.8 l 314.2,123.9 c 131,-96.1 274.9,-168.2 425.3,-216.1 l 85,-327.1 c 3,-11.5 12.9,-19.8 24.8,-20.7 l 404.2,-31.5 c 11.8,-0.9 22.9,5.8 27.6,16.6 l 134.7,310 c 156,24 309.3,73 453.6,147.7 l 291.3,-171.1 c 10.2,-6 23.1,-4.9 32.1,2.8 l 308,263.6 c 9.1,7.7 12.2,20.2 7.8,31.2 l -123.9,314.3 c 96.1,131 168.3,274.8 216.1,425.3 l 327.2,85 c 11.4,3 19.7,12.9 20.7,24.7 l 31.5,404.2"
         style="fill:#91b3fa;fill-opacity:1;fill-rule:nonzero;stroke:none"
         id="path152" /><path
         d="m 25474.2,25477.6 c -84.2,0 -166.2,25.9 -236.3,75.5 -184.7,130.8 -228.7,387.5 -97.9,572.2 63.3,89.6 157.7,149 265.8,167.5 23.4,4 46.9,6 70.1,6 84.2,0 166.2,-25.9 236.3,-75.5 89.5,-63.4 149,-157.7 167.5,-265.8 18.5,-108.1 -6.2,-216.9 -69.6,-306.4 -63.3,-89.6 -157.7,-149 -265.8,-167.5 -23.4,-4 -46.8,-6 -70.1,-6 m 1.3,720 c -97.2,0 -192.8,-45.4 -253.1,-130.6 -98.5,-139.3 -65.4,-332.8 73.9,-431.4 52.8,-37.4 114.7,-57 178.1,-57 17.6,0 35.2,1.5 52.8,4.5 81.5,14 152.7,58.8 200.5,126.3 47.7,67.5 66.3,149.6 52.4,231 -13.9,81.5 -58.8,152.7 -126.2,200.4 -54.2,38.4 -116.6,56.8 -178.4,56.8"
         style="fill:#dee8fd;fill-opacity:1;fill-rule:nonzero;stroke:none"
         id="path154" /><path
         d="m 25468.1,24859.3 c -27.1,0 -54.3,1 -81.6,3.2 -274,21.3 -523.2,148.1 -701.8,356.9 -165.6,193.5 -246.6,431.4 -246.6,668.1 0,290.5 122,579.3 359.6,782.5 193.5,165.5 431.3,246.6 668,246.6 290.5,0 579.3,-122.1 782.5,-359.7 2.9,-3.3 5.8,-6.7 8.6,-10.1 40,-48 75.6,-99.5 106.1,-153.5 l 0.3,-0.6 1.4,-2.4 c 0.8,-1.4 1.5,-2.8 2.3,-4.2 l 1.3,-2.3 c 1.4,-2.5 2.7,-4.9 4,-7.4 l -88.8,-48 c -31.3,57.8 -68.9,112.5 -111.9,162.9 -183.3,214.2 -443.8,324.3 -705.8,324.3 -74.6,0 -149.3,-9 -222.4,-27 -136.1,-33.4 -266.5,-98.3 -380,-195.4 -214.2,-183.2 -324.2,-443.7 -324.3,-705.6 0,-213.5 73.1,-428 222.4,-602.5 183.2,-214.2 443.7,-324.3 705.7,-324.3 213.5,0 427.9,73 602.5,222.3 127.7,109.4 223.3,251 276.4,409.6 l 95.9,-32.1 c -59,-175.9 -165,-333 -306.7,-454.2 -188,-160.8 -422.3,-247.1 -667.1,-247.1"
         style="fill:#dee8fd;fill-opacity:1;fill-rule:nonzero;stroke:none"
         id="path156" /><g
         id="g158"><g
           id="g160"
           clip-path="url(#clipPath164)"><path
             d="m 24425.6,9521.4 c -52.4,0 -104.6,10.3 -153.5,30.6 -20,8.3 -39.3,18.2 -58,29.8 -109.5,68.2 -216.4,136.6 -321.5,205.6 -667.2,438.1 -1246.7,892.2 -1749.1,1357.1 -52.5,48.6 -104,97.2 -154.9,146 -1040.8,999.4 -1736.9,2047.9 -2204.6,3104.3 -11.6,26.2 -23.1,52.6 -34.4,78.8 -22.5,52.1 -44.5,104.3 -66,156.5 -47.2,114.9 -91.7,229.6 -133.9,344.6 -770.1,2099.8 -722.7,4199.5 -763.5,5971.8 -2.6,113.7 43.2,223.1 126.2,300.9 74.2,69.5 171.8,107.8 272.7,107.8 11.9,0 23.8,-0.6 35.8,-1.6 94,-8.5 194.5,-12.8 300.3,-12.8 929.7,0 2280.8,330.4 3472.9,1066 420.6,259.6 821.4,569.6 1176.9,933.3 38.8,39.8 89.8,55.9 144.5,55.9 89.8,0 189.6,-43.5 262.7,-98.1 481,-359.6 1054.6,-635.6 1649.1,-847.6 1436.4,-512.1 2994.9,-650.2 3663.6,-686.9 195.6,-10.8 354.3,-162.5 374.5,-357.4 259.1,-2502.2 -50.5,-4523.2 -640.6,-6141.1 -135,-370.1 -284.5,-719 -445.4,-1047.8 -1470.1,-3004.7 -3876.8,-4322.8 -4583.2,-4657.4 -54.1,-25.6 -112.4,-38.3 -170.6,-38.3 m -4905.5,11225.3 c -36.2,0 -70,-14.1 -95.1,-39.8 -25,-25.4 -38.4,-59.1 -37.8,-94.8 l 3.9,-213.8 c 28.2,-1604.1 60.1,-3422.2 712.3,-5207.7 730.2,-1999.1 2126.9,-3636.8 4269.9,-5006.7 21.7,-13.9 46.7,-20.9 71.7,-20.9 20.7,0 41.4,4.8 60.3,14.5 558.4,287.1 1987.3,1129.1 3192.3,2745.2 1613.4,2163.9 2287.5,4904.2 2003.4,8144.9 -5.7,65.1 -57,115.7 -122.1,120.6 -1222,90 -3511.9,400.2 -5117.1,1465.3 -22.4,14.8 -47.9,22.1 -73.3,22.1 -31.8,0 -63.4,-11.4 -88.3,-33.8 -1461,-1309.1 -3453,-1895.1 -4780.1,-1895.1 v 0 m 4924.8,-10529.3 c -14.7,0 -29.5,4.2 -42.3,12.3 -2132.5,1363.3 -3522.1,2992.1 -4248.1,4979.6 -649.1,1776.9 -681,3590.1 -709,5190 l -3.9,213.8 c -0.4,21 7.5,40.8 22.2,55.7 14.9,15.1 34.9,23.5 57.4,23.5 v 0 c 1336.4,0 3343.6,590.3 4815.3,1909 14.7,13.2 33.3,19.9 52,19.9 15,0 30,-4.3 43.2,-13 1615.6,-1072 3915.9,-1383.8 5143.3,-1474.3 38.2,-2.8 68.4,-32.7 71.8,-71.1 282.8,-3226.9 -387.6,-5954.7 -1992.8,-8107.6 -1198.2,-1607 -2618.5,-2444 -3173.6,-2729.3 v 0 c -11.1,-5.7 -23.3,-8.5 -35.5,-8.5 m -2005.6,7690.9 c -261.8,0 -474.1,-212.3 -474.1,-474.1 v -3279.3 c 0,-261.8 212.3,-474.1 474.1,-474.1 h 4272.9 c 261.8,0 474.1,212.3 474.1,474.1 v 3279.3 c 0,261.8 -212.3,474.1 -474.1,474.1 h -4272.9 m 1353.3,1855.1 h 1566.3 c 309.2,0 559.9,-250.7 559.9,-560 v -863.9 c 0,-125.6 101.8,-227.3 227.3,-227.3 h 252.8 c 125.5,0 227.2,101.7 227.2,227.3 v 863.9 c 0,699.9 -567.3,1267.3 -1267.2,1267.3 h -1566.3 c -699.9,0 -1267.3,-567.4 -1267.3,-1267.3 v -863.9 c 0,-125.6 101.8,-227.3 227.3,-227.3 h 252.8 c 125.5,0 227.2,101.7 227.2,227.3 v 863.9 c 0,309.3 250.7,560 560,560 m 1223.7,-5241.3 h -881.1 c -113.6,0 -197.3,106.3 -170.8,216.7 l 205.6,855.9 c -242.7,145.1 -401.4,416.3 -385.2,723.1 21,397.5 343.1,722.9 740.4,747.6 16.9,1 33.8,1.5 50.5,1.5 437.5,0 792.1,-354.5 792.1,-792 0,-289.1 -155,-541.9 -386.3,-680.2 l 205.6,-855.9 c 26.5,-110.4 -57.2,-216.7 -170.8,-216.7"
             style="fill:url(#linearGradient170);fill-opacity:1;fill-rule:nonzero;stroke:none"
             id="path172" /></g></g><g
         id="g174"><g
           id="g176"
           clip-path="url(#clipPath180)"><path
             d="m 24445,10163 c -25,0 -50,7 -71.7,20.9 -2143,1369.9 -3539.7,3007.6 -4269.9,5006.7 -652.2,1785.5 -684.1,3603.6 -712.3,5207.7 l -3.9,213.8 c -0.6,35.7 12.8,69.4 37.8,94.8 25.1,25.7 58.9,39.8 95.1,39.8 v 0 c 1327.1,0 3319.1,586 4780.1,1895.1 24.9,22.4 56.5,33.8 88.3,33.8 25.4,0 50.9,-7.3 73.3,-22.1 1605.2,-1065.1 3895.1,-1375.3 5117.1,-1465.3 65.1,-4.9 116.4,-55.5 122.1,-120.6 284.1,-3240.7 -390,-5981 -2003.4,-8144.9 -1205,-1616.1 -2633.9,-2458.1 -3192.3,-2745.2 -18.9,-9.7 -39.6,-14.5 -60.3,-14.5 m -4923.8,10529.3 c -22.5,0 -42.5,-8.4 -57.4,-23.5 -14.7,-14.9 -22.6,-34.7 -22.2,-55.7 l 3.9,-213.8 c 28,-1599.9 59.9,-3413.1 709,-5190 726,-1987.5 2115.6,-3616.3 4248.1,-4979.6 12.8,-8.1 27.6,-12.3 42.3,-12.3 12.2,0 24.4,2.8 35.5,8.5 v 0 c 555.1,285.3 1975.4,1122.3 3173.6,2729.3 1605.2,2152.9 2275.6,4880.7 1992.8,8107.6 -3.4,38.4 -33.6,68.3 -71.8,71.1 -1227.4,90.5 -3527.7,402.3 -5143.3,1474.3 -13.2,8.7 -28.2,13 -43.2,13 -18.7,0 -37.3,-6.7 -52,-19.9 -1471.7,-1318.7 -3478.9,-1909 -4815.3,-1909 v 0"
             style="fill:url(#linearGradient186);fill-opacity:1;fill-rule:nonzero;stroke:none"
             id="path188" /></g></g><g
         id="g190"><g
           id="g192"
           clip-path="url(#clipPath196)"><path
             d="m 26398.9,18112.2 h -252.8 c -125.5,0 -227.3,101.7 -227.3,227.3 v 863.9 c 0,309.3 -250.7,560 -559.9,560 h -1566.3 c -309.3,0 -560,-250.7 -560,-560 v -863.9 c 0,-125.6 -101.7,-227.3 -227.2,-227.3 h -252.8 c -125.5,0 -227.3,101.7 -227.3,227.3 v 863.9 c 0,699.9 567.4,1267.3 1267.3,1267.3 h 1566.3 c 699.9,0 1267.2,-567.4 1267.2,-1267.3 v -863.9 c 0,-125.6 -101.7,-227.3 -227.2,-227.3"
             style="fill:url(#linearGradient202);fill-opacity:1;fill-rule:nonzero;stroke:none"
             id="path204" /></g></g><g
         id="g206"><g
           id="g208"
           clip-path="url(#clipPath212)"><path
             d="m 26712.2,13680.8 h -4272.9 c -261.8,0 -474.1,212.3 -474.1,474.1 v 3279.3 c 0,261.8 212.3,474.1 474.1,474.1 h 4272.9 c 261.8,0 474.1,-212.3 474.1,-474.1 v -3279.3 c 0,-261.8 -212.3,-474.1 -474.1,-474.1 m -2136.5,3386.1 c -16.7,0 -33.6,-0.5 -50.5,-1.5 -397.3,-24.7 -719.4,-350.1 -740.4,-747.6 -16.2,-306.8 142.5,-578 385.2,-723.1 l -205.6,-855.9 c -26.5,-110.4 57.2,-216.7 170.8,-216.7 h 881.1 c 113.6,0 197.3,106.3 170.8,216.7 l -205.6,855.9 c 231.3,138.3 386.3,391.1 386.3,680.2 0,437.5 -354.6,792 -792.1,792"
             style="fill:url(#linearGradient218);fill-opacity:1;fill-rule:nonzero;stroke:none"
             id="path220" /></g></g><g
         id="g222"><g
           id="g224"
           clip-path="url(#clipPath228)"><path
             d="m 8196.96,18980.3 c 0,0 346.07,-18.3 388.5,-730.3 0,0 -802.48,-719.4 -1886.46,-890.6 -81.39,-12.9 113.77,555.5 143.1,632.5 139.59,366.3 579.2,602.2 1354.86,988.4"
             style="fill:url(#linearGradient234);fill-opacity:1;fill-rule:nonzero;stroke:none"
             id="path236" /></g></g><path
         d="m 12094.4,19817.4 h -730.3 c 0,0 -2241.43,2475.5 -3711.55,2725.3 0,0 -1023.34,-1306.3 54.51,-3747.1 86.7,-196.3 329.21,-283.5 510.1,-168 54.1,34.6 92.95,80.9 116.55,138.9 l -86.67,2084 c 0,0 1911.96,-1672.2 2244.36,-1994.9 332.3,-322.7 2021.6,-126 1603,961.8"
         style="fill:#7d97f4;fill-opacity:1;fill-rule:nonzero;stroke:none"
         id="path238" /><g
         id="g240"><g
           id="g242"
           clip-path="url(#clipPath246)"><path
             d="m 5034.03,14620 c 306.03,268.2 793.65,569.1 1497.57,655.4 l 238.06,-145.6 c 0,0 -151.8,-224 -429.12,-460.5 -254.88,-148 -648.45,-348.5 -974.73,-392 -317.23,-42.2 -364.01,149.5 -331.78,342.7"
             style="fill:url(#linearGradient252);fill-opacity:1;fill-rule:nonzero;stroke:none"
             id="path254" /></g></g><path
         d="m 6842.1,17991.9 c 188.53,-61 271.45,-328.2 749.86,-151.5 462.84,170.9 806.92,391.3 983.94,518.4 3.95,-34.5 7.27,-70.5 9.56,-108.8 0,0 -846.12,-804.8 -1930.12,-976.1 -81.38,-12.8 -145.87,68.4 -116.53,145.4 52.64,138.2 147.54,347.7 303.29,572.6"
         style="fill:#91b3fa;fill-opacity:1;fill-rule:nonzero;stroke:none"
         id="path256" /><path
         d="m 4803.49,14391 c 60.33,68.6 137.33,147.3 230.54,229 -32.23,-193.2 14.55,-384.9 331.78,-342.7 326.28,43.5 719.85,244 974.73,392 -319.45,-272.4 -805.5,-561.6 -1418.97,-544.6 -136.27,3.8 -208.13,164 -118.08,266.3"
         style="fill:#91b3fa;fill-opacity:1;fill-rule:nonzero;stroke:none"
         id="path258" /><path
         d="m 12067.7,19289 -3419.89,-37 c 0,0 -1953.03,-1615.8 -2307.27,-4079.7 0,0 -58.8,-181.3 294.23,-212.3 0,0 1180.77,771.2 1950.69,2134.7 944.04,1671.8 2814.34,919.3 2814.34,919.3 898.5,-198.3 1613.6,-124.5 2137,680.8 l -1469.1,594.2"
         style="fill:#7d97f4;fill-opacity:1;fill-rule:nonzero;stroke:none"
         id="path260" /><g
         id="g262"><g
           id="g264"
           clip-path="url(#clipPath268)"><path
             d="m 11987,22044 c 0,0 -368.2,-1845.1 -2172.09,-2575 l -641.65,75.6 -151.41,-241.4 1505.15,-48 c 0,0 1286.5,509.6 1968.2,1898.1 22.5,45.9 397.9,821 -508.2,890.7"
             style="fill:url(#linearGradient274);fill-opacity:1;fill-rule:nonzero;stroke:none"
             id="path276" /></g></g><g
         id="g278"><g
           id="g280"
           clip-path="url(#clipPath284)"><path
             d="m 11789.7,19319.2 c 0,0 418.6,1138 508.6,2243.8 0,0 -306.3,263.2 -497.7,376.8 -62,36.8 -85.4,114.6 -54.1,179.5 140.8,291.6 991.9,1436.4 1055.7,1452.3 346.5,86.5 1767.8,762.3 2768.8,-606.9 429.6,-587.6 -85.2,-2396.5 -2034.2,-4269.9 -627.1,-102.1 -1213.5,78.6 -1747.1,624.4"
             style="fill:url(#linearGradient290);fill-opacity:1;fill-rule:nonzero;stroke:none"
             id="path292" /></g></g><g
         id="g294"><g
           id="g296"
           clip-path="url(#clipPath300)"><path
             d="m 13402.9,21313.7 c 0,0 -1163.2,-1377.3 -2650.3,-1578.6 0,0 -384.3,350.3 -670.1,225.3 -285.82,-125.1 -677.69,-677.3 -677.69,-677.3 h 1909.49 c 0,0 1805.4,63.6 2707.6,1158.4 -72.6,383.1 -290,612 -619,872.2"
             style="fill:url(#linearGradient306);fill-opacity:1;fill-rule:nonzero;stroke:none"
             id="path308" /></g></g><g
         id="g310"><g
           id="g312"
           clip-path="url(#clipPath316)"><path
             d="m 14081.4,24537.6 254.5,-848.8 c 11.7,-38.9 -2.7,-81 -36.2,-103.9 -122.5,-84 -442.8,-250.9 -882.1,-88.7 -50.2,18.6 -84.7,65.5 -89,118.9 l -60.4,739.5 813.2,183"
             style="fill:url(#linearGradient322);fill-opacity:1;fill-rule:nonzero;stroke:none"
             id="path324" /></g></g><g
         id="g326"><g
           id="g328"
           clip-path="url(#clipPath332)"><path
             d="m 12591.2,25225.1 c 0,0 125.1,-879.9 463.1,-1150.5 338,-270.6 996.6,-66.9 1219,596.5 l -443.2,1134.2 -1238.9,-580.2"
             style="fill:url(#linearGradient338);fill-opacity:1;fill-rule:nonzero;stroke:none"
             id="path340" /></g></g><g
         id="g342"><g
           id="g344"
           clip-path="url(#clipPath348)"><path
             d="m 13880,25071.3 c -25.7,-8.3 -52.6,8.2 -56.6,34.9 -12.2,81.2 -42.7,242 -104.3,351.5 0,0 32.2,115.4 -291.8,-59 -324,-174.4 -810.6,-430.5 -1097.2,-278 -279.3,148.7 -562.3,897.2 176,758.6 28.1,-5.3 53.9,17.1 51.8,45.6 -9.1,123 3.1,406 289.8,496.9 268.2,85 415,-36.1 475.5,-109.2 17.8,-21.5 50.8,-21 67.8,1.1 80.4,104.9 298.5,328.2 619.8,186.6 264.5,-116.6 305.7,-279.6 301.3,-381.1 -1.4,-32.9 32,-55.2 61.9,-41.4 81,37.3 211.3,56.7 336.2,-99.7 172.6,-216.3 -74.1,-403.8 -148.1,-453 -12.1,-8.1 -19.6,-21.4 -19.7,-36 -0.7,-112.4 -18.2,-603 -264.1,-879.7 -21.3,-24 -60.6,-16.9 -73,12.6 l -189.3,451.1 c -8.8,20.9 -32.2,31.7 -53.8,24.7 l -82.2,-26.5"
             style="fill:url(#linearGradient354);fill-opacity:1;fill-rule:nonzero;stroke:none"
             id="path356" /></g></g><g
         id="g358"><g
           id="g360"
           clip-path="url(#clipPath364)"><path
             d="m 13876,24979.7 c 0,0 115.6,470.9 291.2,318 175.7,-152.9 -45.7,-489.3 -246.9,-553.5 l -44.3,235.5"
             style="fill:url(#linearGradient370);fill-opacity:1;fill-rule:nonzero;stroke:none"
             id="path372" /></g></g><g
         id="g374"><g
           id="g376"
           clip-path="url(#clipPath380)"><path
             d="m 9500.94,19176.2 -857.34,2859.2 c -34.97,116.6 -138.6,199.4 -260.08,207.7 l -1157.53,79.2 c -117.66,8 -205.17,-106.9 -166.11,-218.2 l 958.43,-2730.5 c 30.88,-87.9 109.85,-150.1 202.6,-159.5 l 1139.87,-126.5 140.16,88.6"
             style="fill:url(#linearGradient386);fill-opacity:1;fill-rule:nonzero;stroke:none"
             id="path388" /></g></g><path
         d="m 7919.77,21066.3 c 64.01,-129.2 174.55,-204.9 246.9,-169 72.34,35.8 79.1,169.6 15.09,298.8 -64.01,129.2 -174.54,204.9 -246.89,169.1 -72.34,-35.9 -79.11,-169.7 -15.1,-298.9"
         style="fill:#91b3fa;fill-opacity:1;fill-rule:nonzero;stroke:none"
         id="path390" /><g
         id="g392"><g
           id="g394"
           clip-path="url(#clipPath398)"><path
             d="m 9360.78,19087.6 c 1.85,0 3.71,0 5.59,0.1 l 2428.83,122.8 c 60,3 106.2,54.1 103.2,114.2 -3.1,60 -54.4,107.2 -114.2,103.2 l -2428.83,-122.8 c -60.04,-3 -106.25,-54.1 -103.22,-114.2 2.95,-58.1 51.03,-103.3 108.63,-103.3"
             style="fill:url(#linearGradient404);fill-opacity:1;fill-rule:nonzero;stroke:none"
             id="path406" /></g></g><g
         id="g408"><g
           id="g410"
           clip-path="url(#clipPath414)"><path
             d="m 12298.3,21546.2 c -9.3,0 -16.8,7.5 -16.8,16.8 -1.7,512.7 195.6,1191.2 197.6,1198 2.6,8.9 11.9,14 20.8,11.4 9,-2.6 14.1,-11.9 11.5,-20.8 -2,-6.8 -197.9,-680.8 -196.3,-1188.5 0.1,-9.3 -7.5,-16.9 -16.8,-16.9 v 0"
             style="fill:url(#linearGradient420);fill-opacity:1;fill-rule:nonzero;stroke:none"
             id="path422" /></g></g><g
         id="g424"><g
           id="g426"
           clip-path="url(#clipPath430)"><path
             d="m 13402.9,21296.8 c -3.7,0 -7.4,1.2 -10.5,3.6 -7.2,5.8 -8.5,16.4 -2.7,23.7 5.3,6.7 533.2,677.8 713.9,1135.7 3.4,8.7 13.1,13.1 21.8,9.5 8.7,-3.4 12.9,-13.2 9.5,-21.9 -182.5,-462.4 -713.5,-1137.4 -718.8,-1144.2 -3.3,-4.2 -8.3,-6.4 -13.2,-6.4"
             style="fill:url(#linearGradient436);fill-opacity:1;fill-rule:nonzero;stroke:none"
             id="path438" /></g></g><g
         id="g440"><g
           id="g442"
           clip-path="url(#clipPath446)"><path
             d="m 14151.2,20264.9 -96,135.8 c -5.4,7.6 -3.6,18.1 4,23.5 7.6,5.4 18.1,3.6 23.5,-4 l 80.3,-113.6 c 749.1,328.4 1212.8,1224.6 1217.5,1233.7 4.2,8.2 14.3,11.6 22.6,7.3 8.3,-4.2 11.6,-14.4 7.3,-22.6 -4.7,-9.3 -478.9,-926 -1246.7,-1254.7 l -12.5,-5.4"
             style="fill:url(#linearGradient452);fill-opacity:1;fill-rule:nonzero;stroke:none"
             id="path454" /></g></g></g></g></svg>
