<?xml version="1.0" encoding="UTF-8" standalone="no"?>
<svg
   xmlns:dc="http://purl.org/dc/elements/1.1/"
   xmlns:cc="http://creativecommons.org/ns#"
   xmlns:rdf="http://www.w3.org/1999/02/22-rdf-syntax-ns#"
   xmlns:svg="http://www.w3.org/2000/svg"
   xmlns="http://www.w3.org/2000/svg"
   xmlns:sodipodi="http://sodipodi.sourceforge.net/DTD/sodipodi-0.dtd"
   xmlns:inkscape="http://www.inkscape.org/namespaces/inkscape"
   version="1.1"
   id="svg2"
   xml:space="preserve"
   width="4946.6665"
   height="4946.6665"
   viewBox="0 0 4946.6665 4946.6665"
   sodipodi:docname="20944200.eps"><metadata
     id="metadata8"><rdf:RDF><cc:Work
         rdf:about=""><dc:format>image/svg+xml</dc:format><dc:type
           rdf:resource="http://purl.org/dc/dcmitype/StillImage" /></cc:Work></rdf:RDF></metadata><defs
     id="defs6"><clipPath
       clipPathUnits="userSpaceOnUse"
       id="clipPath22"><path
         d="m 18963.1,4783.4 c -1683.2,0 -2969,234.2 -3481.9,337.9 -617.4,124.7 -1425.9,288.1 -2325.9,562.1 H 17985 c 280.8,-44 587.1,-81.2 912.3,-110.2 347.2,-182.3 656.1,-327.6 913,-440.1 259.2,-113.5 535.9,-170.2 812.7,-170.2 276.8,0 553.6,56.7 812.7,170.2 279.3,122.3 619.6,283.2 1004,488.3 295.3,40.2 557.3,89.7 777.3,146.9 372.6,-32.8 779.1,-54.8 1222.2,-63.9 -1967,-714.6 -3896.4,-921 -5476.1,-921 M 7530.65,9145.9 c -5.61,6.4 -11.65,13.3 -17.25,19.7 h 28.59 l -11.34,-19.7 m 823.51,1425.9 v 1875.5 H 9437.37 L 8354.16,10571.8 M 29618.4,12882 c -41.1,41.8 -82.7,82.9 -124.5,123.1 42,88.5 83.5,177.9 124.5,268.2 V 12882 m -20773.78,737.3 h -490.46 v 733 c 153.95,-247.2 317.13,-491.5 490.46,-733 m -3973.1,1269.4 c -272.99,1604.1 -258.44,3272.6 0,4898.7 v -4898.7 m 27526.28,2152.8 v 2048.2 c 40.4,-687.1 39.7,-1372.3 0,-2048.2 m -2697.5,8065.7 -3129.3,1486.1 v 3536.8 c 342.2,-231.2 673.5,-479.6 992.3,-745.4 1356.2,-1130.6 2405.5,-2504.5 3176.7,-4011.4 h -693.6 c -130.6,0 -263.8,-113.2 -346.1,-266.1 M 13589.9,26078 c -1.5,319.2 -14.1,631.5 -36.2,936.1 h 325.8 v -798.6 l -289.6,-137.5 m 4297.8,2041.2 h -492.1 v 623.1 c 0,323.5 -182.1,582.4 -443.3,582.4 h -2527.9 c -261.2,0 -544.9,-258.9 -544.9,-582.4 v -623.1 h -449.3 c -179.8,1192.2 -486.2,2226.5 -786,3033.6 1144.4,597.6 2477,1063.4 4008.2,1262.6 594.5,77.3 1205.8,116.4 1824.8,116.4 2260.6,0 4631.9,-520.4 6736.1,-1599.7 h -1566.4 c -261.3,0 -558.5,-288.4 -558.5,-634.5 v -2050.2 l -1597.6,758.7 c -274.6,130.4 -571.2,195.6 -867.8,195.6 -296.6,0 -593.2,-65.2 -867.8,-195.6 l -1867.5,-886.9 m -7512.3,0 h -603.12 c -108.9,228.9 -223.08,448.5 -341.38,659.3 487.86,484.7 1054.9,979.9 1703.8,1444.4 -191.5,-594.9 -439,-1293.2 -759.3,-2103.7"
         id="path20" /></clipPath><linearGradient
       x1="0"
       y1="0"
       x2="1"
       y2="0"
       gradientUnits="userSpaceOnUse"
       gradientTransform="matrix(-24739.1,30724.4,30724.4,24739.1,35985.6,-3451.4)"
       spreadMethod="pad"
       id="linearGradient28"><stop
         style="stop-opacity:1;stop-color:#dae3fe"
         offset="0"
         id="stop24" /><stop
         style="stop-opacity:1;stop-color:#e9effd"
         offset="1"
         id="stop26" /></linearGradient><clipPath
       clipPathUnits="userSpaceOnUse"
       id="clipPath110"><path
         d="m 20623,4962.9 c -276.8,0 -553.5,56.7 -812.7,170.2 -256.9,112.5 -565.8,257.8 -913,440.1 367.5,-32.7 759.3,-54.7 1166.5,-64.1 147.5,-3.4 293.1,-5.1 436.6,-5.1 277,0 545.5,6.2 802.4,18 414,19.3 797.4,53.2 1136.9,99.4 -384.4,-205.1 -724.7,-366 -1004,-488.3 -259.1,-113.5 -535.9,-170.2 -812.7,-170.2 m 8870.9,8042.2 c -549.8,527.9 -1165.9,919.3 -1752.2,1207.9 1096.1,2451.2 1566.3,5310.3 1401.2,8542.1 -9.5,185.4 -119.9,350.8 -287.5,430.5 l -8016.1,3807.1 c -68.4,32.5 -142.4,48.8 -216.3,48.8 -73.9,0 -147.8,-16.3 -216.3,-48.8 l -8016,-3807.1 c -167.7,-79.7 -278,-245.1 -287.5,-430.5 -93.5,-1829.5 16.5,-3539.2 328.5,-5123.4 L 10939.4,15048 c -232.9,714.5 -431,1475.4 -586,2284.8 -187,977 -311.3,2024.1 -358.87,3147.6 -19.89,470.3 -26.36,954.9 -18.29,1451.9 6.91,426.1 24.46,861.9 53.36,1308.1 23.8,368.6 147.9,716 349.8,1010.1 75.5,110 161.9,212.5 258,305.9 156.8,152.4 339.4,280.5 542.9,377.2 l 2409.6,1144.4 289.6,137.5 3516.1,1670 492.1,233.7 1867.5,886.9 c 274.6,130.4 571.2,195.6 867.8,195.6 296.6,0 593.2,-65.2 867.8,-195.6 l 1597.6,-758.7 269.9,-128.2 1337.5,-635.2 1875.2,-890.7 3129.3,-1486.1 365.4,-173.6 c 661.9,-314.4 1103.4,-962.1 1150.7,-1693.2 268.2,-4144.8 -439.2,-7411.6 -1598,-9967.1 -41,-90.3 -82.5,-179.7 -124.5,-268.2"
         id="path108" /></clipPath><linearGradient
       x1="0"
       y1="0"
       x2="1"
       y2="0"
       gradientUnits="userSpaceOnUse"
       gradientTransform="matrix(9211.1,-22609.1,-22609.1,-9211.1,15818.1,32132.3)"
       spreadMethod="pad"
       id="linearGradient116"><stop
         style="stop-opacity:1;stop-color:#09005d"
         offset="0"
         id="stop112" /><stop
         style="stop-opacity:1;stop-color:#1a0f91"
         offset="1"
         id="stop114" /></linearGradient><clipPath
       clipPathUnits="userSpaceOnUse"
       id="clipPath130"><path
         d="m 21316.1,13162 -773.5,2018.6 c -85.7,223.8 -234.7,374.2 -401.7,410.7 -26,5.9 -52.3,8.6 -79.2,8.6 -197.8,0 -380.8,-160.5 -479.6,-418.8 l -654.3,-1710 -3530.2,6114.8 c -188.7,326.9 -540.3,531 -917.7,531 -377.4,0 -729.1,-200.9 -917.7,-527.7 l -1130.5,-1957.5 c -312,1584.2 -422,3293.9 -328.5,5123.4 9.5,185.4 119.8,350.8 287.5,430.5 l 8016,3807.1 c 68.5,32.5 142.4,48.8 216.3,48.8 73.9,0 147.9,-16.3 216.3,-48.8 l 8016.1,-3807.1 c 167.6,-79.7 278,-245.1 287.5,-430.5 165.1,-3231.8 -305.1,-6090.9 -1401.2,-8542.1 -118.5,58.4 -235.8,112.5 -351.1,162.8 -5.8,115.2 -19.4,191 -43,217.3 -163.9,182.1 -680.5,294.5 -1012.5,318.5 -2.9,0.2 -5.7,0.3 -8.6,0.3 -29.1,0 -56.9,-10.8 -78.8,-30.4 -23.9,-21.5 -37.9,-51.8 -39.1,-84 -0.1,-1.3 -0.1,-2.7 -0.2,-4 -91,25.2 -176.8,47.4 -256.4,66.9 l 9.6,295.2 c 5.5,165.6 -104.7,311.8 -265.7,350.7 -133,32.3 -268.9,48.5 -404.8,48.5 -135.4,0 -270.8,-16 -403.3,-48 l -2.8,-0.8 c -161.1,-38.9 -272.7,-185.6 -267.3,-351.2 l 10.3,-314.5 c -80.8,-20.4 -167,-43.4 -257.9,-69.3 -0.3,9.8 -0.7,19.2 -1,28.1 -1.2,32.2 -15.4,61.7 -39.4,83.2 -21.8,19.6 -49.9,30 -79,30 -2.9,0 -5.9,-0.1 -8.8,-0.3 -332.1,-23.9 -849.5,-136.6 -1013.4,-318.7 -25.9,-28.8 -39.8,-117 -44.6,-251.6 -610.2,-271.4 -1270.6,-651.3 -1867.8,-1179.7"
         id="path128" /></clipPath><linearGradient
       x1="0"
       y1="0"
       x2="1"
       y2="0"
       gradientUnits="userSpaceOnUse"
       gradientTransform="matrix(7502.08,-18414.2,-18414.2,-7502.08,17735.5,27317.7)"
       spreadMethod="pad"
       id="linearGradient136"><stop
         style="stop-opacity:1;stop-color:#4f52ff"
         offset="0"
         id="stop132" /><stop
         style="stop-opacity:1;stop-color:#4042e2"
         offset="1"
         id="stop134" /></linearGradient><clipPath
       clipPathUnits="userSpaceOnUse"
       id="clipPath146"><path
         d="m 20843.6,16466.2 c -274.5,0 -525.6,131.5 -663.6,346.1 L 18031.9,20153 c -186.2,289.5 -86.2,710.5 227.2,948 319.9,242.6 745.8,206.8 947.1,-88.6 l 1580.5,-2319.2 2358.1,4439 c 228.9,430.9 791.7,702.2 1265.2,598.2 486.5,-106.9 683.8,-564.5 431.8,-1013.7 L 21564,16873.2 c -135.7,-242 -402.3,-397.1 -692.6,-406.5 -9.2,-0.3 -18.5,-0.5 -27.8,-0.5 z"
         id="path144" /></clipPath><linearGradient
       x1="0"
       y1="0"
       x2="1"
       y2="0"
       gradientUnits="userSpaceOnUse"
       gradientTransform="matrix(7013.29,0,0,-7013.29,17938.4,20109.4)"
       spreadMethod="pad"
       id="linearGradient152"><stop
         style="stop-opacity:1;stop-color:#dae3fe"
         offset="0"
         id="stop148" /><stop
         style="stop-opacity:1;stop-color:#e9effd"
         offset="1"
         id="stop150" /></linearGradient><clipPath
       clipPathUnits="userSpaceOnUse"
       id="clipPath162"><path
         d="m 30908.5,8516.7 c -3.1,0 -6.3,0.3 -9.7,0.8 -517.7,81.2 -3544.4,579.4 -3745.6,1138.2 -48.1,1277.7 277.3,3929 237.4,4720.1 115.3,-50.3 232.6,-104.4 351.1,-162.8 586.3,-288.6 1202.4,-680 1752.2,-1207.9 41.8,-40.2 83.4,-81.3 124.5,-123.1 896.6,-912.8 1589.7,-2210.4 1637.5,-4048.1 -11.4,1.4 -22.9,2.2 -34.4,2.2 -139.2,0 -263.7,-112.9 -263.7,-252.1 v -2.4 c 0,-18.9 3.4,-36.9 -11.1,-49.3 -11.8,-10.1 -23.9,-15.6 -38.2,-15.6 m -3479.3,1378.7 c -20.4,0 -37.7,-15.4 -40.4,-36 -2.9,-22.6 13,-43.4 35.6,-46.3 533.1,-69.2 991.3,-97.5 1384.6,-97.5 1714.8,0 2191.6,537.8 2215.2,565.8 14.7,17.5 12.4,43.5 -5,58.2 -7.7,6.5 -17.1,9.6 -26.5,9.6 -11.8,0 -23.5,-5 -31.7,-14.7 -5.5,-6.5 -474.2,-535.2 -2164.5,-535.2 -386.8,0 -837.7,27.7 -1361.5,95.6 -1.9,0.3 -3.9,0.5 -5.8,0.5 m -4628.7,-650.6 -193.1,508.7 c 173.7,14.9 356.7,34.6 549.4,59.6 22.7,2.9 38.6,23.7 35.6,46.3 -2.7,20.6 -20.2,36 -40.5,36 -1.9,0 -3.8,-0.2 -5.7,-0.5 -200.2,-25.9 -389.9,-46 -569.3,-60.9 l -501.6,1322 c 45.7,151.2 82.8,310 147.6,452.8 193.8,427.9 705.9,1004.1 446.5,1506.8 -59.4,114.9 -144.2,174.9 -241.2,197.1 -43.7,10 -87.4,14.6 -131,14.6 -309.9,0 -613.7,-236.8 -857.2,-489.3 l -101.4,265.3 -22.5,58.7 c 597.2,528.4 1257.6,908.3 1867.8,1179.7 -29.8,-830.6 284.5,-3426.1 237.2,-4685.9 -51.5,-143 -288.2,-282 -620.6,-411 m 3172.4,423.1 h -74.5 c -30.7,0 -59.8,9.2 -81.1,31.3 -21.4,22.1 -32.5,50.3 -31.6,81 l 166.3,5080.2 c 79.6,-19.5 165.4,-41.7 256.4,-66.9 -27.3,-734.5 -107.2,-4337.2 -122.2,-5017.9 -1.4,-61.6 -51.7,-107.7 -113.3,-107.7 m -1293.4,0 h -74.5 c -61.7,0 -112,46.1 -113.4,107.7 -14.8,673.5 -93.4,4209.2 -121.5,4995.4 90.9,25.9 177.1,48.9 257.9,69.3 l 164.9,-5061.7 c 1,-30.7 -10.5,-57.3 -31.9,-79.4 -21.4,-22.1 -50.8,-31.3 -81.5,-31.3"
         id="path160" /></clipPath><linearGradient
       x1="0"
       y1="0"
       x2="1"
       y2="0"
       gradientUnits="userSpaceOnUse"
       gradientTransform="matrix(6429.46,8505.66,8505.66,-6429.46,22571.9,5924)"
       spreadMethod="pad"
       id="linearGradient168"><stop
         style="stop-opacity:1;stop-color:#e1473d"
         offset="0"
         id="stop164" /><stop
         style="stop-opacity:1;stop-color:#e9605a"
         offset="1"
         id="stop166" /></linearGradient><clipPath
       clipPathUnits="userSpaceOnUse"
       id="clipPath178"><path
         d="m 24909.1,5699.6 c -161.2,0 -317.5,1.6 -469.9,4.8 -443.1,9.1 -849.6,31.1 -1222.2,63.9 461.1,119.9 737.5,273.6 748.6,446.5 296.2,-13.1 610.1,-20 943.5,-20 4401.8,0 5851.6,1027.6 6328.6,1680.7 l 205.7,-13.2 c 2.2,-0.2 4.5,-0.3 6.8,-0.3 4.9,0 9.8,0.4 14.6,1 -5.8,-31.4 -17,-78.3 -38.4,-137.4 -191.5,-528.3 -1203,-2026 -6517.3,-2026"
         id="path176" /></clipPath><linearGradient
       x1="0"
       y1="0"
       x2="1"
       y2="0"
       gradientUnits="userSpaceOnUse"
       gradientTransform="matrix(-412.689,-6314.15,-6314.15,412.689,25349.2,8800.5)"
       spreadMethod="pad"
       id="linearGradient184"><stop
         style="stop-opacity:1;stop-color:#ff928e"
         offset="0"
         id="stop180" /><stop
         style="stop-opacity:1;stop-color:#fe7062"
         offset="1"
         id="stop182" /></linearGradient><clipPath
       clipPathUnits="userSpaceOnUse"
       id="clipPath194"><path
         d="m 24909.1,6194.8 c -333.4,0 -647.3,6.9 -943.5,20 0.2,3.6 0.4,7.2 0.4,10.8 0,35.4 -18.1,70.6 -39.7,105 l -63,162.2 c 399.7,-32.4 834.7,-50.8 1307.2,-50.8 40.7,0 81.6,0.2 122.9,0.4 3081.7,20.6 4505.8,755.5 5028.9,1125.7 46.2,32.7 67.4,90.5 53.3,145.4 -14.1,54.8 -60.7,95.2 -116.9,101.5 -693.7,78.2 -2491.6,249.2 -4943.6,249.2 -641.5,0 -1327.7,-11.7 -2050.8,-39.8 l -38,100.9 2065.8,133 5945.6,-382.8 c -477,-653.1 -1926.8,-1680.7 -6328.6,-1680.7"
         id="path192" /></clipPath><linearGradient
       x1="0"
       y1="0"
       x2="1"
       y2="0"
       gradientUnits="userSpaceOnUse"
       gradientTransform="matrix(-669.741,-2243.63,-2243.63,669.741,27034.4,14224.1)"
       spreadMethod="pad"
       id="linearGradient200"><stop
         style="stop-opacity:1;stop-color:#ff928e"
         offset="0"
         id="stop196" /><stop
         style="stop-opacity:1;stop-color:#fe7062"
         offset="1"
         id="stop198" /></linearGradient><clipPath
       clipPathUnits="userSpaceOnUse"
       id="clipPath210"><path
         d="m 31450.2,7862 c -2.3,0 -4.6,0.1 -6.8,0.3 l -205.7,13.2 -5945.6,382.8 -2065.8,-133 -408.2,1085.9 c -1.6,-0.3 -3.1,-0.6 -4.7,-0.9 l -0.4,1 v 0.4 l -12.5,33.1 c 332.4,129 569.1,268 620.6,411 47.3,1259.8 -267,3855.3 -237.2,4685.9 4.8,134.6 18.7,222.8 44.6,251.6 163.9,182.1 681.3,294.8 1013.4,318.7 2.9,0.2 5.9,0.3 8.8,0.3 29.1,0 57.2,-10.4 79,-30 24,-21.5 38.2,-51 39.4,-83.2 0.3,-8.9 0.7,-18.3 1,-28.1 28.1,-786.2 106.7,-4321.9 121.5,-4995.4 1.4,-61.6 51.7,-107.7 113.4,-107.7 h 74.5 c 30.7,0 60.1,9.2 81.5,31.3 21.4,22.1 32.9,48.7 31.9,79.4 l -164.9,5061.7 -10.3,314.5 c -5.4,165.6 106.2,312.3 267.3,351.2 l 2.8,0.8 c 132.5,32 267.9,48 403.3,48 135.9,0 271.8,-16.2 404.8,-48.5 161,-38.9 271.2,-185.1 265.7,-350.7 l -9.6,-295.2 -166.3,-5080.2 c -0.9,-30.7 10.2,-58.9 31.6,-81 21.3,-22.1 50.4,-31.3 81.1,-31.3 h 74.5 c 61.6,0 111.9,46.1 113.3,107.7 15,680.7 94.9,4283.4 122.2,5017.9 0.1,1.3 0.1,2.7 0.2,4 1.2,32.2 15.2,62.5 39.1,84 21.9,19.6 49.7,30.4 78.8,30.4 2.9,0 5.7,-0.1 8.6,-0.3 332,-24 848.6,-136.4 1012.5,-318.5 23.6,-26.3 37.2,-102.1 43,-217.3 39.9,-791.1 -285.5,-3442.4 -237.4,-4720.1 201.2,-558.8 3227.9,-1057 3745.6,-1138.2 3.4,-0.5 6.6,-0.8 9.7,-0.8 14.3,0 26.4,5.5 38.2,15.6 14.5,12.4 11.1,30.4 11.1,49.3 v 2.4 c 0,139.2 124.5,252.1 263.7,252.1 11.5,0 23,-0.8 34.4,-2.2 124,-15.7 232.4,-114.4 243.7,-240 l 57.3,-614.8 c 2.9,-31.2 -8,-62.1 -29.8,-84.6 -16.9,-17.3 -38.8,-28.2 -62.3,-31.5 -4.8,-0.6 -9.7,-1 -14.6,-1 m -4737.5,6640.4 c -43.4,0 -86.4,-12.3 -123.1,-35.9 -56.3,-36.4 -91.4,-95.5 -94.8,-159.8 l -265.3,-4995.1 c -5.2,-97.9 71.1,-182.8 174.4,-193.9 l 3.9,-0.5 c 7.5,-0.8 15,-1.2 22.4,-1.2 45.7,0 90.3,15.1 125.9,43 41.3,32.4 66.8,79.4 70.5,130 l 366.1,4973.6 c 6.8,93.7 -54.3,179.9 -148.7,209.6 l -62.3,19.6 c -22.5,7.1 -45.8,10.6 -69,10.6 m -2844.2,0 c -23.1,0 -46.4,-3.5 -69,-10.6 l -62.3,-19.6 c -94.4,-29.7 -155.5,-115.9 -148.6,-209.6 l 366,-4973.6 c 3.8,-50.6 29.2,-97.6 70.5,-130 35.6,-27.9 80.2,-43 125.9,-43 7.5,0 14.9,0.4 22.4,1.2 l 4,0.5 c 103.2,11.1 179.5,96 174.3,193.9 l -265.2,4995.1 c -3.4,64.3 -38.5,123.4 -94.9,159.8 -36.7,23.6 -79.7,35.9 -123.1,35.9 m 1413.3,854.2 c -110.2,0 -217.7,-51.6 -217.7,-115.2 V 9252.6 c 0,-63.6 107.5,-115.2 217.7,-115.2 110.2,0 217.7,51.6 217.7,115.2 v 5988.8 c 0,63.6 -107.5,115.2 -217.7,115.2"
         id="path208" /></clipPath><linearGradient
       x1="0"
       y1="0"
       x2="1"
       y2="0"
       gradientUnits="userSpaceOnUse"
       gradientTransform="matrix(-1172.04,-6630.41,-6630.41,1172.04,26634.3,15716.5)"
       spreadMethod="pad"
       id="linearGradient216"><stop
         style="stop-opacity:1;stop-color:#ff928e"
         offset="0"
         id="stop212" /><stop
         style="stop-opacity:1;stop-color:#fe7062"
         offset="1"
         id="stop214" /></linearGradient><clipPath
       clipPathUnits="userSpaceOnUse"
       id="clipPath226"><path
         d="m 22075.3,11156 -100.8,265.7 c 2.4,0.2 4.7,0.5 7,0.7 L 21440,12838 c 243.5,252.5 547.3,489.3 857.2,489.3 43.6,0 87.3,-4.6 131,-14.6 97,-22.2 181.8,-82.2 241.2,-197.1 259.4,-502.7 -252.7,-1078.9 -446.5,-1506.8 -64.8,-142.8 -101.9,-301.6 -147.6,-452.8"
         id="path224" /></clipPath><linearGradient
       x1="0"
       y1="0"
       x2="1"
       y2="0"
       gradientUnits="userSpaceOnUse"
       gradientTransform="matrix(6429.46,8505.66,8505.66,-6429.46,22571.9,5924)"
       spreadMethod="pad"
       id="linearGradient232"><stop
         style="stop-opacity:1;stop-color:#e76e66"
         offset="0"
         id="stop228" /><stop
         style="stop-opacity:1;stop-color:#ee817d"
         offset="1"
         id="stop230" /></linearGradient><clipPath
       clipPathUnits="userSpaceOnUse"
       id="clipPath242"><path
         d="m 22607.4,9753.5 -30.5,80.5 c 179.4,14.9 369.1,35 569.3,60.9 1.9,0.3 3.8,0.5 5.7,0.5 20.3,0 37.8,-15.4 40.5,-36 3,-22.6 -12.9,-43.4 -35.6,-46.3 -192.7,-25 -375.7,-44.7 -549.4,-59.6"
         id="path240" /></clipPath><linearGradient
       x1="0"
       y1="0"
       x2="1"
       y2="0"
       gradientUnits="userSpaceOnUse"
       gradientTransform="matrix(6429.46,8505.66,8505.66,-6429.46,22571.9,5924)"
       spreadMethod="pad"
       id="linearGradient248"><stop
         style="stop-opacity:1;stop-color:#f6c7c4"
         offset="0"
         id="stop244" /><stop
         style="stop-opacity:1;stop-color:#f8cfcd"
         offset="1"
         id="stop246" /></linearGradient><clipPath
       clipPathUnits="userSpaceOnUse"
       id="clipPath258"><path
         d="m 28809,9715.6 c -393.3,0 -851.5,28.3 -1384.6,97.5 -22.6,2.9 -38.5,23.7 -35.6,46.3 2.7,20.6 20,36 40.4,36 1.9,0 3.9,-0.2 5.8,-0.5 523.8,-67.9 974.7,-95.6 1361.5,-95.6 1690.3,0 2159,528.7 2164.5,535.2 8.2,9.7 19.9,14.7 31.7,14.7 9.4,0 18.8,-3.1 26.5,-9.6 17.4,-14.7 19.7,-40.7 5,-58.2 -23.6,-28 -500.4,-565.8 -2215.2,-565.8"
         id="path256" /></clipPath><linearGradient
       x1="0"
       y1="0"
       x2="1"
       y2="0"
       gradientUnits="userSpaceOnUse"
       gradientTransform="matrix(6429.46,8505.66,8505.66,-6429.46,22571.9,5924)"
       spreadMethod="pad"
       id="linearGradient264"><stop
         style="stop-opacity:1;stop-color:#f6c7c4"
         offset="0"
         id="stop260" /><stop
         style="stop-opacity:1;stop-color:#f8cfcd"
         offset="1"
         id="stop262" /></linearGradient><clipPath
       clipPathUnits="userSpaceOnUse"
       id="clipPath274"><path
         d="m 25281.8,9137.4 c -110.2,0 -217.7,51.6 -217.7,115.2 v 5988.8 c 0,63.6 107.5,115.2 217.7,115.2 110.2,0 217.7,-51.6 217.7,-115.2 V 9252.6 c 0,-63.6 -107.5,-115.2 -217.7,-115.2"
         id="path272" /></clipPath><linearGradient
       x1="0"
       y1="0"
       x2="1"
       y2="0"
       gradientUnits="userSpaceOnUse"
       gradientTransform="matrix(-1172.04,-6630.41,-6630.41,1172.04,26634.3,15716.5)"
       spreadMethod="pad"
       id="linearGradient280"><stop
         style="stop-opacity:1;stop-color:#ffa8a5"
         offset="0"
         id="stop276" /><stop
         style="stop-opacity:1;stop-color:#fe8d81"
         offset="1"
         id="stop278" /></linearGradient><clipPath
       clipPathUnits="userSpaceOnUse"
       id="clipPath290"><path
         d="m 26430.2,9116 c -7.4,0 -14.9,0.4 -22.4,1.2 l -3.9,0.5 c -103.3,11.1 -179.6,96 -174.4,193.9 l 265.3,4995.1 c 3.4,64.3 38.5,123.4 94.8,159.8 36.7,23.6 79.7,35.9 123.1,35.9 23.2,0 46.5,-3.5 69,-10.6 l 62.3,-19.6 c 94.4,-29.7 155.5,-115.9 148.7,-209.6 L 26626.6,9289 c -3.7,-50.6 -29.2,-97.6 -70.5,-130 -35.6,-27.9 -80.2,-43 -125.9,-43"
         id="path288" /></clipPath><linearGradient
       x1="0"
       y1="0"
       x2="1"
       y2="0"
       gradientUnits="userSpaceOnUse"
       gradientTransform="matrix(-1172.04,-6630.41,-6630.41,1172.04,26634.3,15716.5)"
       spreadMethod="pad"
       id="linearGradient296"><stop
         style="stop-opacity:1;stop-color:#ffa8a5"
         offset="0"
         id="stop292" /><stop
         style="stop-opacity:1;stop-color:#fe8d81"
         offset="1"
         id="stop294" /></linearGradient><clipPath
       clipPathUnits="userSpaceOnUse"
       id="clipPath306"><path
         d="m 24151,9116 c -45.7,0 -90.3,15.1 -125.9,43 -41.3,32.4 -66.7,79.4 -70.5,130 l -366,4973.6 c -6.9,93.7 54.2,179.9 148.6,209.6 l 62.3,19.6 c 22.6,7.1 45.9,10.6 69,10.6 43.4,0 86.4,-12.3 123.1,-35.9 56.4,-36.4 91.5,-95.5 94.9,-159.8 l 265.2,-4995.1 c 5.2,-97.9 -71.1,-182.8 -174.3,-193.9 l -4,-0.5 c -7.5,-0.8 -14.9,-1.2 -22.4,-1.2"
         id="path304" /></clipPath><linearGradient
       x1="0"
       y1="0"
       x2="1"
       y2="0"
       gradientUnits="userSpaceOnUse"
       gradientTransform="matrix(-1172.04,-6630.41,-6630.41,1172.04,26634.3,15716.5)"
       spreadMethod="pad"
       id="linearGradient312"><stop
         style="stop-opacity:1;stop-color:#ffa8a5"
         offset="0"
         id="stop308" /><stop
         style="stop-opacity:1;stop-color:#fe8d81"
         offset="1"
         id="stop310" /></linearGradient><clipPath
       clipPathUnits="userSpaceOnUse"
       id="clipPath322"><path
         d="m 25170.5,6442 c -472.5,0 -907.5,18.4 -1307.2,50.8 l -438.5,1128.7 -9.6,0.9 v 0.5 l -150.9,401.5 c 723.1,28.1 1409.3,39.8 2050.8,39.8 2452,0 4249.9,-171 4943.6,-249.2 56.2,-6.3 102.8,-46.7 116.9,-101.5 14.1,-54.9 -7.1,-112.7 -53.3,-145.4 -523.1,-370.2 -1947.2,-1105.1 -5028.9,-1125.7 -41.3,-0.2 -82.2,-0.4 -122.9,-0.4"
         id="path320" /></clipPath><linearGradient
       x1="0"
       y1="0"
       x2="1"
       y2="0"
       gradientUnits="userSpaceOnUse"
       gradientTransform="matrix(-226.148,-6041.27,-6041.27,226.148,25330.3,10662.9)"
       spreadMethod="pad"
       id="linearGradient328"><stop
         style="stop-opacity:1;stop-color:#ff928e"
         offset="0"
         id="stop324" /><stop
         style="stop-opacity:1;stop-color:#fe7062"
         offset="1"
         id="stop326" /></linearGradient><clipPath
       clipPathUnits="userSpaceOnUse"
       id="clipPath338"><path
         d="M 17985,5683.4 H 7351.6 c -377.39,0 -729.03,185.7 -917.73,512.5 -188.69,326.8 -188.69,724.2 0,1051 l 1096.78,1899 11.34,19.7 174.07,301.4 638.1,1104.8 1083.21,1875.5 147.11,254.7 345.38,598 226.14,391.6 783.4,1356.4 1492.3,2583.7 1130.5,1957.5 c 188.6,326.8 540.3,527.7 917.7,527.7 377.4,0 729,-204.1 917.7,-531 l 3530.2,-6114.8 -135,-352.8 -77.9,-203.8 -3715.3,6439.8 c -107.2,185.9 -305.5,299.6 -519.8,299.6 -39,0 -77.5,-4.9 -114.9,-12.4 -168.3,-32.7 -316.9,-139.4 -404.8,-291.3 L 6832.1,6999 c -107.45,-185.6 -107.45,-424.1 0,-609.7 107.16,-185.6 305.1,-318.9 519.43,-318.9 h 9189.07 c 302,-152.5 807.9,-287.2 1444.4,-387"
         id="path336" /></clipPath><linearGradient
       x1="0"
       y1="0"
       x2="1"
       y2="0"
       gradientUnits="userSpaceOnUse"
       gradientTransform="matrix(-8824.61,-33556.8,-33556.8,8824.61,20993.3,31489.2)"
       spreadMethod="pad"
       id="linearGradient344"><stop
         style="stop-opacity:1;stop-color:#09005d"
         offset="0"
         id="stop340" /><stop
         style="stop-opacity:1;stop-color:#1a0f91"
         offset="1"
         id="stop342" /></linearGradient><clipPath
       clipPathUnits="userSpaceOnUse"
       id="clipPath354"><path
         d="M 16540.6,6070.4 H 7351.53 c -214.33,0 -412.27,133.3 -519.43,318.9 -107.45,185.6 -107.45,424.1 0,609.7 l 7128,12351.2 c 87.9,151.9 236.5,258.6 404.8,291.3 37.4,7.5 75.9,12.4 114.9,12.4 214.3,0 412.6,-113.7 519.8,-299.6 l 3715.3,-6439.8 -556.6,-1455.2 -653.2,-1707.6 v 926.1 l -2376.4,2331.5 -110.7,1435 -473.9,-35.7 114.3,-1611.5 2343.6,-2317 V 9011.6 h 219.3 l -485.2,-1266.2 c 0.3,-0.1 0.6,-0.2 0.9,-0.3 l -490,-1280.9 c -3.2,-6.7 -5.9,-13.2 -7.9,-20.4 l -8.8,-21.1 2.9,-0.1 v 0 c -1.8,0 -2.9,-21.5 -2.9,-31.4 0,-111.4 110.5,-220 310.3,-320.8"
         id="path352" /></clipPath><linearGradient
       x1="0"
       y1="0"
       x2="1"
       y2="0"
       gradientUnits="userSpaceOnUse"
       gradientTransform="matrix(2344.08,-6462.98,-6462.98,-2344.08,10729,17035.9)"
       spreadMethod="pad"
       id="linearGradient360"><stop
         style="stop-opacity:1;stop-color:#ff928e"
         offset="0"
         id="stop356" /><stop
         style="stop-opacity:1;stop-color:#fe7062"
         offset="1"
         id="stop358" /></linearGradient><clipPath
       clipPathUnits="userSpaceOnUse"
       id="clipPath370"><path
         d="m 17529.6,12510.6 c 0,-351.3 -284.8,-636.1 -636,-636.1 -351.3,0 -636,284.8 -636,636.1 0,351.2 284.7,636 636,636 351.2,0 636,-284.8 636,-636 z"
         id="path368" /></clipPath><linearGradient
       x1="0"
       y1="0"
       x2="1"
       y2="0"
       gradientUnits="userSpaceOnUse"
       gradientTransform="matrix(-8824.58,-33556.6,-33556.6,8824.58,21826.9,31270)"
       spreadMethod="pad"
       id="linearGradient376"><stop
         style="stop-opacity:1;stop-color:#09005d"
         offset="0"
         id="stop372" /><stop
         style="stop-opacity:1;stop-color:#1a0f91"
         offset="1"
         id="stop374" /></linearGradient><clipPath
       clipPathUnits="userSpaceOnUse"
       id="clipPath386"><path
         d="m 16752.2,11417.9 -1945.9,-1746.2 -660.9,903.3 1699.9,1758.9 z"
         id="path384" /></clipPath><linearGradient
       x1="0"
       y1="0"
       x2="1"
       y2="0"
       gradientUnits="userSpaceOnUse"
       gradientTransform="matrix(-8824.6,-33556.7,-33556.7,8824.6,20847.9,31527.4)"
       spreadMethod="pad"
       id="linearGradient392"><stop
         style="stop-opacity:1;stop-color:#09005d"
         offset="0"
         id="stop388" /><stop
         style="stop-opacity:1;stop-color:#1a0f91"
         offset="1"
         id="stop390" /></linearGradient><clipPath
       clipPathUnits="userSpaceOnUse"
       id="clipPath402"><path
         d="M 17221.3,9011.6 H 17002 v 1468.5 l -2343.6,2317 -114.3,1611.5 473.9,35.7 110.7,-1435 2376.4,-2331.5 v -926.1 l -175.9,-459.6 -0.1,-0.3 c -0.1,0 -0.3,0.1 -0.4,0.1 l -107.4,-280.3"
         id="path400" /></clipPath><linearGradient
       x1="0"
       y1="0"
       x2="1"
       y2="0"
       gradientUnits="userSpaceOnUse"
       gradientTransform="matrix(-8824.59,-33556.7,-33556.7,8824.59,21211,31431.9)"
       spreadMethod="pad"
       id="linearGradient408"><stop
         style="stop-opacity:1;stop-color:#09005d"
         offset="0"
         id="stop404" /><stop
         style="stop-opacity:1;stop-color:#1a0f91"
         offset="1"
         id="stop406" /></linearGradient><clipPath
       clipPathUnits="userSpaceOnUse"
       id="clipPath418"><path
         d="m 14385.5,10274 -1083.3,541.7 -1563.7,-402.1 -117.3,456.3 1734.2,445.9 1240.8,-620.4 z"
         id="path416" /></clipPath><linearGradient
       x1="0"
       y1="0"
       x2="1"
       y2="0"
       gradientUnits="userSpaceOnUse"
       gradientTransform="matrix(-8824.6,-33556.7,-33556.7,8824.6,18711.8,32089.1)"
       spreadMethod="pad"
       id="linearGradient424"><stop
         style="stop-opacity:1;stop-color:#09005d"
         offset="0"
         id="stop420" /><stop
         style="stop-opacity:1;stop-color:#1a0f91"
         offset="1"
         id="stop422" /></linearGradient><clipPath
       clipPathUnits="userSpaceOnUse"
       id="clipPath434"><path
         d="m 13302.7,7746.7 -426.8,199.5 527.5,1128.7 1403.9,1222.4 L 15116.7,9942 13788,8785.1 Z"
         id="path432" /></clipPath><linearGradient
       x1="0"
       y1="0"
       x2="1"
       y2="0"
       gradientUnits="userSpaceOnUse"
       gradientTransform="matrix(-8824.61,-33556.8,-33556.8,8824.61,19994.2,31751.9)"
       spreadMethod="pad"
       id="linearGradient440"><stop
         style="stop-opacity:1;stop-color:#09005d"
         offset="0"
         id="stop436" /><stop
         style="stop-opacity:1;stop-color:#1a0f91"
         offset="1"
         id="stop438" /></linearGradient><clipPath
       clipPathUnits="userSpaceOnUse"
       id="clipPath450"><path
         d="m 11854.8,7386.2 h -387 v 2205.9 h -1354.5 v 387 h 1741.5 z"
         id="path448" /></clipPath><linearGradient
       x1="0"
       y1="0"
       x2="1"
       y2="0"
       gradientUnits="userSpaceOnUse"
       gradientTransform="matrix(-8824.59,-33556.7,-33556.7,8824.59,17241.1,32475.9)"
       spreadMethod="pad"
       id="linearGradient456"><stop
         style="stop-opacity:1;stop-color:#09005d"
         offset="0"
         id="stop452" /><stop
         style="stop-opacity:1;stop-color:#1a0f91"
         offset="1"
         id="stop454" /></linearGradient><clipPath
       clipPathUnits="userSpaceOnUse"
       id="clipPath466"><path
         d="m 25414.4,6032.7 -567.5,24.1 c -899.2,304.4 -2657.6,511.2 -4679.6,511.2 -2160.1,0 -4019.3,-236 -4851.6,-574.9 l -529.2,-3.5 63.3,-395.7 c 0,-538 2380.7,-974.2 5317.5,-974.2 2828.4,0 5140.7,404.6 5307.4,915.1 4.7,33.7 -47.7,500 -60.3,497.9 z"
         id="path464" /></clipPath><linearGradient
       x1="0"
       y1="0"
       x2="1"
       y2="0"
       gradientUnits="userSpaceOnUse"
       gradientTransform="matrix(-524.056,-12269.2,-12269.2,524.056,20197.5,7327)"
       spreadMethod="pad"
       id="linearGradient472"><stop
         style="stop-opacity:1;stop-color:#ff928e"
         offset="0"
         id="stop468" /><stop
         style="stop-opacity:1;stop-color:#fe7062"
         offset="1"
         id="stop470" /></linearGradient><clipPath
       clipPathUnits="userSpaceOnUse"
       id="clipPath482"><path
         d="m 25421.4,5989.6 c 0,-538 -2380.7,-974.1 -5317.5,-974.1 -2936.7,0 -5317.4,436.1 -5317.4,974.1 0,538 2380.7,974.1 5317.4,974.1 2936.8,0 5317.5,-436.1 5317.5,-974.1 z"
         id="path480" /></clipPath><linearGradient
       x1="0"
       y1="0"
       x2="1"
       y2="0"
       gradientUnits="userSpaceOnUse"
       gradientTransform="matrix(33.4888,-2812.9,-2812.9,-33.4888,19981.6,16268)"
       spreadMethod="pad"
       id="linearGradient488"><stop
         style="stop-opacity:1;stop-color:#e1473d"
         offset="0"
         id="stop484" /><stop
         style="stop-opacity:1;stop-color:#e9605a"
         offset="1"
         id="stop486" /></linearGradient><clipPath
       clipPathUnits="userSpaceOnUse"
       id="clipPath498"><path
         d="m 20500.4,5504 c -143.5,0 -289.1,1.7 -436.6,5.1 -407.2,9.4 -799,31.4 -1166.5,64.1 -325.2,29 -631.5,66.2 -912.3,110.2 -636.5,99.8 -1142.4,234.5 -1444.4,387 -199.8,100.8 -310.3,209.4 -310.3,320.8 0,9.9 1.1,31.4 2.9,31.4 v 0 l -2.9,0.1 8.8,21.1 c 2,7.2 4.7,13.7 7.9,20.4 l 490,1280.9 c 659.3,-249.8 1897,-433.4 3324.5,-460.5 121.3,-2.3 241.2,-3.5 359.5,-3.5 282.9,0 556.9,6.5 820,18.9 926.2,43.3 1699.8,159.8 2183.8,321.5 l -9.6,0.9 9.6,-0.9 438.5,-1128.7 63,-162.2 c 21.6,-34.4 39.7,-69.6 39.7,-105 0,-3.6 -0.2,-7.2 -0.4,-10.8 -11.1,-172.9 -287.5,-326.6 -748.6,-446.5 -220,-57.2 -482,-106.7 -777.3,-146.9 -339.5,-46.2 -722.9,-80.1 -1136.9,-99.4 -256.9,-11.8 -525.4,-18 -802.4,-18 m -154.3,3508.5 c -93.7,0 -188.3,0.7 -283.5,2.1 -1073.9,16.2 -2040.1,121.3 -2733.5,277.2 l 0.1,0.3 175.9,459.6 653.2,1707.6 556.6,1455.2 77.9,203.8 135,352.8 654.3,1710 c 98.8,258.3 281.8,418.8 479.6,418.8 26.9,0 53.2,-2.7 79.2,-8.6 167,-36.5 316,-186.9 401.7,-410.7 l 773.5,-2018.6 22.5,-58.7 c -258.8,-17.2 -529.8,-28.4 -809.5,-33.7 -115.5,-2.4 -232.8,-3.5 -351.4,-3.5 -37.8,0 -75.8,0.1 -113.9,0.3 -446.2,2.6 -873.9,20.5 -1271,51.8 l -634.5,-1659 c 560.2,-71.6 1210.4,-116 1905.5,-122.8 62.4,-0.6 124.5,-0.9 186.2,-0.9 178.4,0 353.7,2.5 525.2,7.7 428.1,12.1 831.8,39 1199.3,78.5 l 100.8,-265.7 501.6,-1322 30.5,-80.5 193.1,-508.7 12.5,-33.1 v -0.4 l 0.4,-1 c -470.4,-92 -1066.7,-156.8 -1742.7,-183.5 -234,-9.4 -476.4,-14.3 -724.6,-14.3"
         id="path496" /></clipPath><linearGradient
       x1="0"
       y1="0"
       x2="1"
       y2="0"
       gradientUnits="userSpaceOnUse"
       gradientTransform="matrix(1038.1,5927.19,5927.19,-1038.1,21526.7,14473.5)"
       spreadMethod="pad"
       id="linearGradient504"><stop
         style="stop-opacity:1;stop-color:#ff928e"
         offset="0"
         id="stop500" /><stop
         style="stop-opacity:1;stop-color:#fe7062"
         offset="1"
         id="stop502" /></linearGradient><clipPath
       clipPathUnits="userSpaceOnUse"
       id="clipPath514"><path
         d="m 23263,8024.3 -38.3,100.9 1.6,0.1 38,-100.9 c -0.6,-0.1 -0.7,-0.1 -1.3,-0.1"
         id="path512" /></clipPath><linearGradient
       x1="0"
       y1="0"
       x2="1"
       y2="0"
       gradientUnits="userSpaceOnUse"
       gradientTransform="matrix(-669.741,-2243.63,-2243.63,669.741,27034.4,14224.1)"
       spreadMethod="pad"
       id="linearGradient520"><stop
         style="stop-opacity:1;stop-color:#fff4f3"
         offset="0"
         id="stop516" /><stop
         style="stop-opacity:1;stop-color:#fff0ef"
         offset="1"
         id="stop518" /></linearGradient><clipPath
       clipPathUnits="userSpaceOnUse"
       id="clipPath530"><path
         d="m 23224.7,8125.2 -411.3,1085.1 c 1.6,0.3 3.1,0.6 4.7,0.9 l 408.2,-1085.9 -1.6,-0.1"
         id="path528" /></clipPath><linearGradient
       x1="0"
       y1="0"
       x2="1"
       y2="0"
       gradientUnits="userSpaceOnUse"
       gradientTransform="matrix(-1172.04,-6630.41,-6630.41,1172.04,26634.3,15716.5)"
       spreadMethod="pad"
       id="linearGradient536"><stop
         style="stop-opacity:1;stop-color:#fff4f3"
         offset="0"
         id="stop532" /><stop
         style="stop-opacity:1;stop-color:#fff0ef"
         offset="1"
         id="stop534" /></linearGradient><clipPath
       clipPathUnits="userSpaceOnUse"
       id="clipPath546"><path
         d="m 23415.2,7622.9 -152.2,401.4 c 0.6,0 0.7,0 1.3,0.1 l 150.9,-401.5"
         id="path544" /></clipPath><linearGradient
       x1="0"
       y1="0"
       x2="1"
       y2="0"
       gradientUnits="userSpaceOnUse"
       gradientTransform="matrix(-226.148,-6041.27,-6041.27,226.148,25330.3,10662.9)"
       spreadMethod="pad"
       id="linearGradient552"><stop
         style="stop-opacity:1;stop-color:#fff4f3"
         offset="0"
         id="stop548" /><stop
         style="stop-opacity:1;stop-color:#fff0ef"
         offset="1"
         id="stop550" /></linearGradient><clipPath
       clipPathUnits="userSpaceOnUse"
       id="clipPath562"><path
         d="m 16737,7745.1 c -0.3,0.1 -0.6,0.2 -0.9,0.3 l 485.2,1266.2 h 0.6 l -484.6,-1265.9 -0.3,-0.6"
         id="path560" /></clipPath><linearGradient
       x1="0"
       y1="0"
       x2="1"
       y2="0"
       gradientUnits="userSpaceOnUse"
       gradientTransform="matrix(2344.08,-6462.98,-6462.98,-2344.08,10729,17035.9)"
       spreadMethod="pad"
       id="linearGradient568"><stop
         style="stop-opacity:1;stop-color:#fff4f3"
         offset="0"
         id="stop564" /><stop
         style="stop-opacity:1;stop-color:#fff0ef"
         offset="1"
         id="stop566" /></linearGradient><clipPath
       clipPathUnits="userSpaceOnUse"
       id="clipPath578"><path
         d="m 17221.9,9011.6 h -0.6 l 107.4,280.3 c 0.1,0 0.3,-0.1 0.4,-0.1 l -107.2,-280.2"
         id="path576" /></clipPath><linearGradient
       x1="0"
       y1="0"
       x2="1"
       y2="0"
       gradientUnits="userSpaceOnUse"
       gradientTransform="matrix(-8824.59,-33556.7,-33556.7,8824.59,21211,31431.9)"
       spreadMethod="pad"
       id="linearGradient584"><stop
         style="stop-opacity:1;stop-color:#e6e5ee"
         offset="0"
         id="stop580" /><stop
         style="stop-opacity:1;stop-color:#e8e7f4"
         offset="1"
         id="stop582" /></linearGradient><clipPath
       clipPathUnits="userSpaceOnUse"
       id="clipPath594"><path
         d="m 20421,7281.1 c -118.3,0 -238.2,1.2 -359.5,3.5 -1427.5,27.1 -2665.2,210.7 -3324.5,460.5 l 0.3,0.6 484.6,1265.9 107.2,280.2 c 693.4,-155.9 1659.6,-261 2733.5,-277.2 95.2,-1.4 189.8,-2.1 283.5,-2.1 248.2,0 490.6,4.9 724.6,14.3 676,26.7 1272.3,91.5 1742.7,183.5 l 411.3,-1085.1 38.3,-100.9 152.2,-401.4 v -0.5 l 9.6,-0.9 c -484,-161.7 -1257.6,-278.2 -2183.8,-321.5 -263.1,-12.4 -537.1,-18.9 -820,-18.9"
         id="path592" /></clipPath><linearGradient
       x1="0"
       y1="0"
       x2="1"
       y2="0"
       gradientUnits="userSpaceOnUse"
       gradientTransform="matrix(1038.1,5927.19,5927.19,-1038.1,21526.7,14473.5)"
       spreadMethod="pad"
       id="linearGradient600"><stop
         style="stop-opacity:1;stop-color:#fff4f3"
         offset="0"
         id="stop596" /><stop
         style="stop-opacity:1;stop-color:#fff0ef"
         offset="1"
         id="stop598" /></linearGradient><clipPath
       clipPathUnits="userSpaceOnUse"
       id="clipPath610"><path
         d="m 21439.2,12837.1 -100.6,266.2 101.4,-265.3 c -0.2,-0.3 -0.5,-0.6 -0.8,-0.9"
         id="path608" /></clipPath><linearGradient
       x1="0"
       y1="0"
       x2="1"
       y2="0"
       gradientUnits="userSpaceOnUse"
       gradientTransform="matrix(6429.46,8505.66,8505.66,-6429.46,22571.9,5924)"
       spreadMethod="pad"
       id="linearGradient616"><stop
         style="stop-opacity:1;stop-color:#fceceb"
         offset="0"
         id="stop612" /><stop
         style="stop-opacity:1;stop-color:#fdefee"
         offset="1"
         id="stop614" /></linearGradient><clipPath
       clipPathUnits="userSpaceOnUse"
       id="clipPath626"><path
         d="m 21974.5,11421.7 -0.3,0.8 -535,1414.6 c 0.3,0.3 0.6,0.6 0.8,0.9 l 541.5,-1415.6 c -2.3,-0.2 -4.6,-0.5 -7,-0.7"
         id="path624" /></clipPath><linearGradient
       x1="0"
       y1="0"
       x2="1"
       y2="0"
       gradientUnits="userSpaceOnUse"
       gradientTransform="matrix(6429.46,8505.66,8505.66,-6429.46,22571.9,5924)"
       spreadMethod="pad"
       id="linearGradient632"><stop
         style="stop-opacity:1;stop-color:#fdf0ef"
         offset="0"
         id="stop628" /><stop
         style="stop-opacity:1;stop-color:#fdf2f2"
         offset="1"
         id="stop630" /></linearGradient><clipPath
       clipPathUnits="userSpaceOnUse"
       id="clipPath642"><path
         d="m 20250,11335.5 c -61.7,0 -123.8,0.3 -186.2,0.9 -695.1,6.8 -1345.3,51.2 -1905.5,122.8 l 634.5,1659 c 397.1,-31.3 824.8,-49.2 1271,-51.8 38.1,-0.2 76.1,-0.3 113.9,-0.3 118.6,0 235.9,1.1 351.4,3.5 279.7,5.3 550.7,16.5 809.5,33.7 v 0 l 100.6,-266.2 535,-1414.6 0.3,-0.8 c -367.5,-39.5 -771.2,-66.4 -1199.3,-78.5 -171.5,-5.2 -346.8,-7.7 -525.2,-7.7"
         id="path640" /></clipPath><linearGradient
       x1="0"
       y1="0"
       x2="1"
       y2="0"
       gradientUnits="userSpaceOnUse"
       gradientTransform="matrix(1038.1,5927.19,5927.19,-1038.1,21526.7,14473.5)"
       spreadMethod="pad"
       id="linearGradient648"><stop
         style="stop-opacity:1;stop-color:#fff4f3"
         offset="0"
         id="stop644" /><stop
         style="stop-opacity:1;stop-color:#fff0ef"
         offset="1"
         id="stop646" /></linearGradient></defs><sodipodi:namedview
     pagecolor="transparent"
     bordercolor="#666666"
     borderopacity="1"
     objecttolerance="10"
     gridtolerance="10"
     guidetolerance="10"
     inkscape:pageopacity="0"
     inkscape:pageshadow="2"
     inkscape:window-width="640"
     inkscape:window-height="480"
     id="namedview4" /><g
     id="g10"
     inkscape:groupmode="layer"
     inkscape:label="ink_ext_XXXXXX"
     transform="matrix(1.3333333,0,0,-1.3333333,0,4946.6667)"><g
       id="g12"
       transform="scale(0.1)"><path
         d="M 0,0 H 37100 V 37100 H 0 Z"
         style="fill:none;fill-opacity:1;fill-rule:nonzero;stroke:none"
         id="path14" /><g
         id="g16"><g
           id="g18"
           clip-path="url(#clipPath22)"><path
             d="m 18963.1,4783.4 c -1683.2,0 -2969,234.2 -3481.9,337.9 -617.4,124.7 -1425.9,288.1 -2325.9,562.1 H 17985 c 280.8,-44 587.1,-81.2 912.3,-110.2 347.2,-182.3 656.1,-327.6 913,-440.1 259.2,-113.5 535.9,-170.2 812.7,-170.2 276.8,0 553.6,56.7 812.7,170.2 279.3,122.3 619.6,283.2 1004,488.3 295.3,40.2 557.3,89.7 777.3,146.9 372.6,-32.8 779.1,-54.8 1222.2,-63.9 -1967,-714.6 -3896.4,-921 -5476.1,-921 M 7530.65,9145.9 c -5.61,6.4 -11.65,13.3 -17.25,19.7 h 28.59 l -11.34,-19.7 m 823.51,1425.9 v 1875.5 H 9437.37 L 8354.16,10571.8 M 29618.4,12882 c -41.1,41.8 -82.7,82.9 -124.5,123.1 42,88.5 83.5,177.9 124.5,268.2 V 12882 m -20773.78,737.3 h -490.46 v 733 c 153.95,-247.2 317.13,-491.5 490.46,-733 m -3973.1,1269.4 c -272.99,1604.1 -258.44,3272.6 0,4898.7 v -4898.7 m 27526.28,2152.8 v 2048.2 c 40.4,-687.1 39.7,-1372.3 0,-2048.2 m -2697.5,8065.7 -3129.3,1486.1 v 3536.8 c 342.2,-231.2 673.5,-479.6 992.3,-745.4 1356.2,-1130.6 2405.5,-2504.5 3176.7,-4011.4 h -693.6 c -130.6,0 -263.8,-113.2 -346.1,-266.1 M 13589.9,26078 c -1.5,319.2 -14.1,631.5 -36.2,936.1 h 325.8 v -798.6 l -289.6,-137.5 m 4297.8,2041.2 h -492.1 v 623.1 c 0,323.5 -182.1,582.4 -443.3,582.4 h -2527.9 c -261.2,0 -544.9,-258.9 -544.9,-582.4 v -623.1 h -449.3 c -179.8,1192.2 -486.2,2226.5 -786,3033.6 1144.4,597.6 2477,1063.4 4008.2,1262.6 594.5,77.3 1205.8,116.4 1824.8,116.4 2260.6,0 4631.9,-520.4 6736.1,-1599.7 h -1566.4 c -261.3,0 -558.5,-288.4 -558.5,-634.5 v -2050.2 l -1597.6,758.7 c -274.6,130.4 -571.2,195.6 -867.8,195.6 -296.6,0 -593.2,-65.2 -867.8,-195.6 l -1867.5,-886.9 m -7512.3,0 h -603.12 c -108.9,228.9 -223.08,448.5 -341.38,659.3 487.86,484.7 1054.9,979.9 1703.8,1444.4 -191.5,-594.9 -439,-1293.2 -759.3,-2103.7"
             style="fill:url(#linearGradient28);fill-opacity:1;fill-rule:nonzero;stroke:none"
             id="path30" /></g></g><path
         d="m 23840.7,32472.5 h -134.4 c -65.6,0 -149.1,-31.7 -149.1,-119 v -1662.1 c 0,-87.2 83.5,-161.2 149.1,-161.2 h 134.4 c 65.7,0 51.4,74 51.4,161.2 v 1662.1 c 0,87.3 14.3,119 -51.4,119"
         style="fill:#bdd0fb;fill-opacity:1;fill-rule:nonzero;stroke:none"
         id="path32" /><path
         d="m 25825.8,32472.5 h -134.4 c -65.6,0 -191.9,-31.7 -191.9,-119 v -1662.1 c 0,-87.2 126.3,-161.2 191.9,-161.2 h 134.4 c 65.7,0 75.5,74 75.5,161.2 v 1662.1 c 0,87.3 -9.8,119 -75.5,119"
         style="fill:#bdd0fb;fill-opacity:1;fill-rule:nonzero;stroke:none"
         id="path34" /><path
         d="m 26269.7,31719.7 c 0,-85.7 -53.5,-151.4 -144.8,-151.4 h -2855.8 c -91.4,0 -180.7,65.7 -180.7,151.4 v 30.2 c 0,85.7 89.3,153.3 180.7,153.3 h 2855.8 c 91.3,0 144.8,-67.6 144.8,-153.3 v -30.2"
         style="fill:#bdd0fb;fill-opacity:1;fill-rule:nonzero;stroke:none"
         id="path36" /><path
         d="m 26174.8,30932.1 h -2527.9 c -261.3,0 -558.5,-288.4 -558.5,-634.5 V 9333 h 3394 c 91.3,0 88.6,100.3 88.6,221.3 v 20743.3 c 0,346.1 -135,634.5 -396.2,634.5"
         style="fill:#bdd0fb;fill-opacity:1;fill-rule:nonzero;stroke:none"
         id="path38" /><path
         d="m 6512.38,27014.1 h 18183.4 v 1105.08 H 6512.38 Z"
         style="fill:#bdd0fb;fill-opacity:1;fill-rule:nonzero;stroke:none"
         id="path40" /><path
         d="m 6512.38,15628.6 h 18183.4 v 1172 H 6512.38 Z"
         style="fill:#bdd0fb;fill-opacity:1;fill-rule:nonzero;stroke:none"
         id="path42" /><path
         d="m 6512.38,12447.3 h 18484.8 v 1172 H 6512.38 Z"
         style="fill:#bdd0fb;fill-opacity:1;fill-rule:nonzero;stroke:none"
         id="path44" /><path
         d="M 26571,9165.6 H 5139.41 c -147.95,0 -267.89,119.9 -267.89,267.9 v 904.1 H 26571 v -1172"
         style="fill:#bdd0fb;fill-opacity:1;fill-rule:nonzero;stroke:none"
         id="path46" /><path
         d="m 6512.38,21086.9 h 18183.4 V 22192 H 6512.38 Z"
         style="fill:#bdd0fb;fill-opacity:1;fill-rule:nonzero;stroke:none"
         id="path48" /><path
         d="m 6746.79,18408 h 17714.6 v 334.801 H 6746.79 Z"
         style="fill:#bdd0fb;fill-opacity:1;fill-rule:nonzero;stroke:none"
         id="path50" /><path
         d="m 7936.62,30932.1 h -2527.9 c -261.24,0 -537.2,-286.5 -537.2,-630.2 v -20599 c 0,-120.2 138.25,-235.9 229.61,-235.9 h 3253.03 v 20834.9 c 0,343.7 -156.3,630.2 -417.54,630.2"
         style="fill:#bdd0fb;fill-opacity:1;fill-rule:nonzero;stroke:none"
         id="path52" /><path
         d="m 5602.57,32472.5 h -134.4 c -65.67,0 -127.83,-31.7 -127.83,-119 v -1662.1 c 0,-87.2 62.16,-161.2 127.83,-161.2 h 134.4 c 65.67,0 39.15,74 39.15,161.2 v 1662.1 c 0,87.3 26.52,119 -39.15,119"
         style="fill:#bdd0fb;fill-opacity:1;fill-rule:nonzero;stroke:none"
         id="path54" /><path
         d="m 7587.68,32472.5 h -134.41 c -65.66,0 -170.69,-31.7 -170.69,-119 v -1662.1 c 0,-87.2 105.03,-161.2 170.69,-161.2 h 134.41 c 65.67,0 29.77,74 29.77,161.2 v 1662.1 c 0,87.3 35.9,119 -29.77,119"
         style="fill:#bdd0fb;fill-opacity:1;fill-rule:nonzero;stroke:none"
         id="path56" /><path
         d="m 8052.77,31719.7 c 0,-85.7 -68.72,-151.4 -160.08,-151.4 H 5036.94 c -91.36,0 -165.42,65.7 -165.42,151.4 v 30.2 c 0,85.7 74.06,153.3 165.42,153.3 h 2855.75 c 91.36,0 160.08,-67.6 160.08,-153.3 v -30.2"
         style="fill:#bdd0fb;fill-opacity:1;fill-rule:nonzero;stroke:none"
         id="path58" /><path
         d="m 16952.3,29324.7 h -2527.9 c -261.2,0 -544.9,-258.9 -544.9,-582.4 V 9352.2 c 0,-113.2 146,-220.1 237.3,-220.1 h 3278.8 v 19610.2 c 0,323.5 -182.1,582.4 -443.3,582.4"
         style="fill:#bdd0fb;fill-opacity:1;fill-rule:nonzero;stroke:none"
         id="path60" /><path
         d="m 14618.3,30932.1 h -134.4 c -65.7,0 -236,-81.5 -236,-168.8 v -1662.1 c 0,-87.2 170.3,-144.8 236,-144.8 h 134.4 c 65.6,0 64.9,57.6 64.9,144.8 v 1662.1 c 0,87.3 0.7,168.8 -64.9,168.8"
         style="fill:#bdd0fb;fill-opacity:1;fill-rule:nonzero;stroke:none"
         id="path62" /><path
         d="M 16603.4,30932.1 H 16469 c -65.7,0 -178.4,-81.5 -178.4,-168.8 v -1662.1 c 0,-87.2 112.7,-144.8 178.4,-144.8 h 134.4 c 65.6,0 22,57.6 22,144.8 v 1662.1 c 0,87.3 43.6,168.8 -22,168.8"
         style="fill:#bdd0fb;fill-opacity:1;fill-rule:nonzero;stroke:none"
         id="path64" /><path
         d="m 17060.8,30130.9 c 0,-85.7 -81.7,-169.9 -173,-169.9 H 14032 c -91.3,0 -152.5,84.2 -152.5,169.9 v 30.2 c 0,85.7 61.2,168.2 152.5,168.2 h 2855.8 c 91.3,0 173,-82.5 173,-168.2 v -30.2"
         style="fill:#bdd0fb;fill-opacity:1;fill-rule:nonzero;stroke:none"
         id="path66" /><path
         d="m 31359.7,23330.5 h -7668.5 v 971.2 h 7668.5 v -971.2"
         style="fill:#bdd0fb;fill-opacity:1;fill-rule:nonzero;stroke:none"
         id="path68" /><path
         d="m 23691.2,14557 v -1004.6 h 8447.9 c 170.5,0 258.7,138 258.7,308.4 v 696.2 h -8706.6"
         style="fill:#bdd0fb;fill-opacity:1;fill-rule:nonzero;stroke:none"
         id="path70" /><path
         d="M 23423.3,11643.6 V 10639 H 31915 c 170.4,0 248.3,137.9 248.3,308.3 v 696.3 h -8740"
         style="fill:#bdd0fb;fill-opacity:1;fill-rule:nonzero;stroke:none"
         id="path72" /><path
         d="m 31359.7,18240.5 h -7668.5 v 937.7 h 7668.5 v -937.7"
         style="fill:#bdd0fb;fill-opacity:1;fill-rule:nonzero;stroke:none"
         id="path74" /><path
         d="m 31326.2,15863 h -7601.6 v 368.3 h 7601.6 V 15863"
         style="fill:#bdd0fb;fill-opacity:1;fill-rule:nonzero;stroke:none"
         id="path76" /><path
         d="m 31326.2,21120.4 h -7601.6 v 334.9 h 7601.6 v -334.9"
         style="fill:#bdd0fb;fill-opacity:1;fill-rule:nonzero;stroke:none"
         id="path78" /><path
         d="m 24815.5,26746.2 h -2038.1 c -210.7,0 -459.2,-326.9 -459.2,-635.4 V 7623.5 c 0,-107.9 137.5,-199.2 211.2,-199.2 h 2668.7 v 18686.5 c 0,308.5 -172,635.4 -382.6,635.4"
         style="fill:#bdd0fb;fill-opacity:1;fill-rule:nonzero;stroke:none"
         id="path80" /><path
         d="m 22933.7,28018.7 h -108.4 c -52.9,0 -138.7,-22.6 -138.7,-97.6 v -1429 c 0,-75 85.8,-114.2 138.7,-114.2 h 108.4 c 52.9,0 20.8,39.2 20.8,114.2 v 1429 c 0,75 32.1,97.6 -20.8,97.6"
         style="fill:#bdd0fb;fill-opacity:1;fill-rule:nonzero;stroke:none"
         id="path82" /><path
         d="m 24534.2,28018.7 h -108.4 c -52.9,0 -131.9,-22.6 -131.9,-97.6 v -1429 c 0,-75 79,-114.2 131.9,-114.2 h 108.4 c 52.9,0 61.1,39.2 61.1,114.2 v 1429 c 0,75 -8.2,97.6 -61.1,97.6"
         style="fill:#bdd0fb;fill-opacity:1;fill-rule:nonzero;stroke:none"
         id="path84" /><path
         d="m 24896.7,27348.4 c 0,-73.6 -59.7,-133.4 -133.4,-133.4 h -2311.7 c -73.7,0 -133.4,59.8 -133.4,133.4 v 34.6 c 0,73.7 59.7,133.4 133.4,133.4 h 2311.7 c 73.7,0 133.4,-59.7 133.4,-133.4 v -34.6"
         style="fill:#bdd0fb;fill-opacity:1;fill-rule:nonzero;stroke:none"
         id="path86" /><path
         d="m 32084.5,25373.3 h -2038.1 c -210.7,0 -428,-294.4 -428,-575.4 V 7960 c 0,-98.2 106.3,-234.4 180,-234.4 h 2599.4 v 17072.3 c 0,281 -102.6,575.4 -313.3,575.4"
         style="fill:#bdd0fb;fill-opacity:1;fill-rule:nonzero;stroke:none"
         id="path88" /><path
         d="m 30202.7,26746.2 h -108.4 c -52.9,0 -141.1,-117.2 -141.1,-192.2 v -1429 c 0,-75 88.2,-153.6 141.1,-153.6 h 108.4 c 52.9,0 51.9,78.6 51.9,153.6 v 1429 c 0,75 1,192.2 -51.9,192.2"
         style="fill:#bdd0fb;fill-opacity:1;fill-rule:nonzero;stroke:none"
         id="path90" /><path
         d="m 31803.2,26746.2 h -108.4 c -52.9,0 -167.7,-117.2 -167.7,-192.2 v -1429 c 0,-75 114.8,-153.6 167.7,-153.6 h 108.4 c 52.9,0 25.3,78.6 25.3,153.6 v 1429 c 0,75 27.6,192.2 -25.3,192.2"
         style="fill:#bdd0fb;fill-opacity:1;fill-rule:nonzero;stroke:none"
         id="path92" /><path
         d="m 32196.8,25975.4 c 0,-73.6 -59.7,-133.3 -133.3,-133.3 h -2311.8 c -73.6,0 -133.4,59.7 -133.4,133.3 v 34.7 c 0,73.6 59.8,133.4 133.4,133.4 h 2311.8 c 73.6,0 133.3,-59.8 133.3,-133.4 v -34.7"
         style="fill:#bdd0fb;fill-opacity:1;fill-rule:nonzero;stroke:none"
         id="path94" /><path
         d="m 6067.88,32089.6 c -44.47,160.7 179.4,277.5 323.56,169.7 C 7855.22,31164.8 11399,27854.4 10786.5,21801.3 10018,14206.9 11948.4,11522.8 14282.4,9931 c 0,0 -3145.6,668 -5215.2,3387.2 -5081.29,6676.5 -2208.49,15914.6 -2999.32,18771.4"
         style="fill:#91b3fa;fill-opacity:1;fill-rule:nonzero;stroke:none"
         id="path96" /><path
         d="m 9929.86,13300 c -8.13,11.9 -16.25,23.9 -24.31,35.8 -125.46,187.8 -247.02,377.6 -358.54,571.6 -115.61,192.2 -218.58,391.6 -316.92,591.9 -393.48,803.7 -609.88,1669.1 -705.43,2531.6 -96.66,864.2 -91.17,1726.4 -91.31,2582.2 5.4,856.3 7.32,1709.1 -33.17,2561 -36.08,852.1 -114.09,1702.2 -210.57,2550.6 -100.26,848.2 -231.28,1693.8 -391.94,2535.2 -155.56,842.3 -346.92,1679.5 -557.46,2513.2 -5.74,23 10.41,46.4 37.04,52.7 4.61,1.1 9.23,1.6 13.77,1.6 22.5,0 42.96,-12.8 49.01,-32.5 253.99,-826.2 471.01,-1661.3 662.22,-2501.5 186.53,-840.9 342.27,-1687.6 467.97,-2538.3 30.97,-212.7 59.93,-425.7 87.53,-638.9 25.22,-213.3 50.91,-426.7 71.78,-640.6 3.26,-31.2 6.47,-62.4 9.64,-93.6 -322.62,-1765.8 -126.43,-3314.2 185.11,-4480.4 9.21,-615 31.01,-1226.9 104.02,-1831.3 50.59,-419 128.57,-833.7 242.58,-1239.7 114.37,-405.9 264.75,-802.9 448.5,-1188.5 159.29,-323.8 338.16,-641.8 536.62,-950.5 L 9929.86,13300"
         style="fill:#c0d6fc;fill-opacity:1;fill-rule:nonzero;stroke:none"
         id="path98" /><path
         d="m 10066.1,16994.2 c -156.88,-180.2 -446.82,-141.6 -553.88,72 -590.77,1178.6 -1959.73,4661.9 -88.48,8810.6 1580.16,3503.4 2104.16,5553.2 2277.46,6500.3 36.7,200.2 307.7,237.3 397.1,54.4 986.8,-2017.8 3653.7,-8908.3 -2032.2,-15437.3"
         style="fill:#7d97f4;fill-opacity:1;fill-rule:nonzero;stroke:none"
         id="path100" /><path
         d="m 9743.52,17106.9 c -50.47,0 -91.99,40.3 -93.21,91 -0.82,34.3 -41.14,2060.8 325.93,4734.4 -8.07,-497 -1.6,-981.6 18.29,-1451.9 -184.74,-1919.5 -158.37,-3250.4 -157.71,-3278 1.1,-45.4 -30.38,-83.9 -73.11,-93.3 -5.79,-1.3 -11.76,-2 -17.91,-2.2 -0.76,0 -1.52,0 -2.28,0 m 635.88,7143.6 c 267.7,1255.3 632.9,2562 1130.7,3813.4 14.5,36.6 49.6,58.9 86.7,58.9 11.5,0 23.1,-2.2 34.4,-6.7 47.9,-19 71.3,-73.2 52.2,-121.1 -448.4,-1127.3 -788.3,-2299.7 -1046,-3438.6 -96.1,-93.4 -182.5,-195.9 -258,-305.9"
         style="fill:#b3c4f9;fill-opacity:1;fill-rule:nonzero;stroke:none"
         id="path102" /><g
         id="g104"><g
           id="g106"
           clip-path="url(#clipPath110)"><path
             d="m 20623,4962.9 c -276.8,0 -553.5,56.7 -812.7,170.2 -256.9,112.5 -565.8,257.8 -913,440.1 367.5,-32.7 759.3,-54.7 1166.5,-64.1 147.5,-3.4 293.1,-5.1 436.6,-5.1 277,0 545.5,6.2 802.4,18 414,19.3 797.4,53.2 1136.9,99.4 -384.4,-205.1 -724.7,-366 -1004,-488.3 -259.1,-113.5 -535.9,-170.2 -812.7,-170.2 m 8870.9,8042.2 c -549.8,527.9 -1165.9,919.3 -1752.2,1207.9 1096.1,2451.2 1566.3,5310.3 1401.2,8542.1 -9.5,185.4 -119.9,350.8 -287.5,430.5 l -8016.1,3807.1 c -68.4,32.5 -142.4,48.8 -216.3,48.8 -73.9,0 -147.8,-16.3 -216.3,-48.8 l -8016,-3807.1 c -167.7,-79.7 -278,-245.1 -287.5,-430.5 -93.5,-1829.5 16.5,-3539.2 328.5,-5123.4 L 10939.4,15048 c -232.9,714.5 -431,1475.4 -586,2284.8 -187,977 -311.3,2024.1 -358.87,3147.6 -19.89,470.3 -26.36,954.9 -18.29,1451.9 6.91,426.1 24.46,861.9 53.36,1308.1 23.8,368.6 147.9,716 349.8,1010.1 75.5,110 161.9,212.5 258,305.9 156.8,152.4 339.4,280.5 542.9,377.2 l 2409.6,1144.4 289.6,137.5 3516.1,1670 492.1,233.7 1867.5,886.9 c 274.6,130.4 571.2,195.6 867.8,195.6 296.6,0 593.2,-65.2 867.8,-195.6 l 1597.6,-758.7 269.9,-128.2 1337.5,-635.2 1875.2,-890.7 3129.3,-1486.1 365.4,-173.6 c 661.9,-314.4 1103.4,-962.1 1150.7,-1693.2 268.2,-4144.8 -439.2,-7411.6 -1598,-9967.1 -41,-90.3 -82.5,-179.7 -124.5,-268.2"
             style="fill:url(#linearGradient116);fill-opacity:1;fill-rule:nonzero;stroke:none"
             id="path118" /></g></g><path
         d="m 18029.3,27206.5 c -76.9,0 -150.7,43.3 -185.9,117.4 -48.7,102.6 -5,225.2 97.5,273.9 l 2026.1,962.3 c 102.7,48.7 225.3,5 273.9,-97.5 48.7,-102.6 5.1,-225.2 -97.5,-273.9 l -2026.1,-962.3 c -28.5,-13.5 -58.5,-19.9 -88,-19.9"
         style="fill:#bdd0fb;fill-opacity:1;fill-rule:nonzero;stroke:none"
         id="path120" /><path
         d="m 10685.3,20495.9 c -110.4,0 -201.6,87.5 -205.4,198.6 -27.2,811.3 -12.9,1657.1 42.5,2514 35.7,551 368.9,1041.1 869.7,1279 l 5768.5,2739.7 c 102.6,48.7 225.1,5 273.9,-97.5 48.7,-102.6 5,-225.2 -97.5,-273.9 l -5768.5,-2739.7 c -366.2,-173.9 -609.8,-531.9 -635.8,-934.2 -54.6,-843.5 -68.7,-1675.7 -41.9,-2473.6 3.8,-113.4 -85.1,-208.5 -198.5,-212.3 -2.4,-0.1 -4.7,-0.1 -7,-0.1"
         style="fill:#bdd0fb;fill-opacity:1;fill-rule:nonzero;stroke:none"
         id="path122" /><g
         id="g124"><g
           id="g126"
           clip-path="url(#clipPath130)"><path
             d="m 21316.1,13162 -773.5,2018.6 c -85.7,223.8 -234.7,374.2 -401.7,410.7 -26,5.9 -52.3,8.6 -79.2,8.6 -197.8,0 -380.8,-160.5 -479.6,-418.8 l -654.3,-1710 -3530.2,6114.8 c -188.7,326.9 -540.3,531 -917.7,531 -377.4,0 -729.1,-200.9 -917.7,-527.7 l -1130.5,-1957.5 c -312,1584.2 -422,3293.9 -328.5,5123.4 9.5,185.4 119.8,350.8 287.5,430.5 l 8016,3807.1 c 68.5,32.5 142.4,48.8 216.3,48.8 73.9,0 147.9,-16.3 216.3,-48.8 l 8016.1,-3807.1 c 167.6,-79.7 278,-245.1 287.5,-430.5 165.1,-3231.8 -305.1,-6090.9 -1401.2,-8542.1 -118.5,58.4 -235.8,112.5 -351.1,162.8 -5.8,115.2 -19.4,191 -43,217.3 -163.9,182.1 -680.5,294.5 -1012.5,318.5 -2.9,0.2 -5.7,0.3 -8.6,0.3 -29.1,0 -56.9,-10.8 -78.8,-30.4 -23.9,-21.5 -37.9,-51.8 -39.1,-84 -0.1,-1.3 -0.1,-2.7 -0.2,-4 -91,25.2 -176.8,47.4 -256.4,66.9 l 9.6,295.2 c 5.5,165.6 -104.7,311.8 -265.7,350.7 -133,32.3 -268.9,48.5 -404.8,48.5 -135.4,0 -270.8,-16 -403.3,-48 l -2.8,-0.8 c -161.1,-38.9 -272.7,-185.6 -267.3,-351.2 l 10.3,-314.5 c -80.8,-20.4 -167,-43.4 -257.9,-69.3 -0.3,9.8 -0.7,19.2 -1,28.1 -1.2,32.2 -15.4,61.7 -39.4,83.2 -21.8,19.6 -49.9,30 -79,30 -2.9,0 -5.9,-0.1 -8.8,-0.3 -332.1,-23.9 -849.5,-136.6 -1013.4,-318.7 -25.9,-28.8 -39.8,-117 -44.6,-251.6 -610.2,-271.4 -1270.6,-651.3 -1867.8,-1179.7"
             style="fill:url(#linearGradient136);fill-opacity:1;fill-rule:nonzero;stroke:none"
             id="path138" /></g></g><g
         id="g140"><g
           id="g142"
           clip-path="url(#clipPath146)"><path
             d="m 20843.6,16466.2 c -274.5,0 -525.6,131.5 -663.6,346.1 L 18031.9,20153 c -186.2,289.5 -86.2,710.5 227.2,948 319.9,242.6 745.8,206.8 947.1,-88.6 l 1580.5,-2319.2 2358.1,4439 c 228.9,430.9 791.7,702.2 1265.2,598.2 486.5,-106.9 683.8,-564.5 431.8,-1013.7 L 21564,16873.2 c -135.7,-242 -402.3,-397.1 -692.6,-406.5 -9.2,-0.3 -18.5,-0.5 -27.8,-0.5"
             style="fill:url(#linearGradient152);fill-opacity:1;fill-rule:nonzero;stroke:none"
             id="path154" /></g></g><g
         id="g156"><g
           id="g158"
           clip-path="url(#clipPath162)"><path
             d="m 30908.5,8516.7 c -3.1,0 -6.3,0.3 -9.7,0.8 -517.7,81.2 -3544.4,579.4 -3745.6,1138.2 -48.1,1277.7 277.3,3929 237.4,4720.1 115.3,-50.3 232.6,-104.4 351.1,-162.8 586.3,-288.6 1202.4,-680 1752.2,-1207.9 41.8,-40.2 83.4,-81.3 124.5,-123.1 896.6,-912.8 1589.7,-2210.4 1637.5,-4048.1 -11.4,1.4 -22.9,2.2 -34.4,2.2 -139.2,0 -263.7,-112.9 -263.7,-252.1 v -2.4 c 0,-18.9 3.4,-36.9 -11.1,-49.3 -11.8,-10.1 -23.9,-15.6 -38.2,-15.6 m -3479.3,1378.7 c -20.4,0 -37.7,-15.4 -40.4,-36 -2.9,-22.6 13,-43.4 35.6,-46.3 533.1,-69.2 991.3,-97.5 1384.6,-97.5 1714.8,0 2191.6,537.8 2215.2,565.8 14.7,17.5 12.4,43.5 -5,58.2 -7.7,6.5 -17.1,9.6 -26.5,9.6 -11.8,0 -23.5,-5 -31.7,-14.7 -5.5,-6.5 -474.2,-535.2 -2164.5,-535.2 -386.8,0 -837.7,27.7 -1361.5,95.6 -1.9,0.3 -3.9,0.5 -5.8,0.5 m -4628.7,-650.6 -193.1,508.7 c 173.7,14.9 356.7,34.6 549.4,59.6 22.7,2.9 38.6,23.7 35.6,46.3 -2.7,20.6 -20.2,36 -40.5,36 -1.9,0 -3.8,-0.2 -5.7,-0.5 -200.2,-25.9 -389.9,-46 -569.3,-60.9 l -501.6,1322 c 45.7,151.2 82.8,310 147.6,452.8 193.8,427.9 705.9,1004.1 446.5,1506.8 -59.4,114.9 -144.2,174.9 -241.2,197.1 -43.7,10 -87.4,14.6 -131,14.6 -309.9,0 -613.7,-236.8 -857.2,-489.3 l -101.4,265.3 -22.5,58.7 c 597.2,528.4 1257.6,908.3 1867.8,1179.7 -29.8,-830.6 284.5,-3426.1 237.2,-4685.9 -51.5,-143 -288.2,-282 -620.6,-411 m 3172.4,423.1 h -74.5 c -30.7,0 -59.8,9.2 -81.1,31.3 -21.4,22.1 -32.5,50.3 -31.6,81 l 166.3,5080.2 c 79.6,-19.5 165.4,-41.7 256.4,-66.9 -27.3,-734.5 -107.2,-4337.2 -122.2,-5017.9 -1.4,-61.6 -51.7,-107.7 -113.3,-107.7 m -1293.4,0 h -74.5 c -61.7,0 -112,46.1 -113.4,107.7 -14.8,673.5 -93.4,4209.2 -121.5,4995.4 90.9,25.9 177.1,48.9 257.9,69.3 l 164.9,-5061.7 c 1,-30.7 -10.5,-57.3 -31.9,-79.4 -21.4,-22.1 -50.8,-31.3 -81.5,-31.3"
             style="fill:url(#linearGradient168);fill-opacity:1;fill-rule:nonzero;stroke:none"
             id="path170" /></g></g><g
         id="g172"><g
           id="g174"
           clip-path="url(#clipPath178)"><path
             d="m 24909.1,5699.6 c -161.2,0 -317.5,1.6 -469.9,4.8 -443.1,9.1 -849.6,31.1 -1222.2,63.9 461.1,119.9 737.5,273.6 748.6,446.5 296.2,-13.1 610.1,-20 943.5,-20 4401.8,0 5851.6,1027.6 6328.6,1680.7 l 205.7,-13.2 c 2.2,-0.2 4.5,-0.3 6.8,-0.3 4.9,0 9.8,0.4 14.6,1 -5.8,-31.4 -17,-78.3 -38.4,-137.4 -191.5,-528.3 -1203,-2026 -6517.3,-2026"
             style="fill:url(#linearGradient184);fill-opacity:1;fill-rule:nonzero;stroke:none"
             id="path186" /></g></g><g
         id="g188"><g
           id="g190"
           clip-path="url(#clipPath194)"><path
             d="m 24909.1,6194.8 c -333.4,0 -647.3,6.9 -943.5,20 0.2,3.6 0.4,7.2 0.4,10.8 0,35.4 -18.1,70.6 -39.7,105 l -63,162.2 c 399.7,-32.4 834.7,-50.8 1307.2,-50.8 40.7,0 81.6,0.2 122.9,0.4 3081.7,20.6 4505.8,755.5 5028.9,1125.7 46.2,32.7 67.4,90.5 53.3,145.4 -14.1,54.8 -60.7,95.2 -116.9,101.5 -693.7,78.2 -2491.6,249.2 -4943.6,249.2 -641.5,0 -1327.7,-11.7 -2050.8,-39.8 l -38,100.9 2065.8,133 5945.6,-382.8 c -477,-653.1 -1926.8,-1680.7 -6328.6,-1680.7"
             style="fill:url(#linearGradient200);fill-opacity:1;fill-rule:nonzero;stroke:none"
             id="path202" /></g></g><g
         id="g204"><g
           id="g206"
           clip-path="url(#clipPath210)"><path
             d="m 31450.2,7862 c -2.3,0 -4.6,0.1 -6.8,0.3 l -205.7,13.2 -5945.6,382.8 -2065.8,-133 -408.2,1085.9 c -1.6,-0.3 -3.1,-0.6 -4.7,-0.9 l -0.4,1 v 0.4 l -12.5,33.1 c 332.4,129 569.1,268 620.6,411 47.3,1259.8 -267,3855.3 -237.2,4685.9 4.8,134.6 18.7,222.8 44.6,251.6 163.9,182.1 681.3,294.8 1013.4,318.7 2.9,0.2 5.9,0.3 8.8,0.3 29.1,0 57.2,-10.4 79,-30 24,-21.5 38.2,-51 39.4,-83.2 0.3,-8.9 0.7,-18.3 1,-28.1 28.1,-786.2 106.7,-4321.9 121.5,-4995.4 1.4,-61.6 51.7,-107.7 113.4,-107.7 h 74.5 c 30.7,0 60.1,9.2 81.5,31.3 21.4,22.1 32.9,48.7 31.9,79.4 l -164.9,5061.7 -10.3,314.5 c -5.4,165.6 106.2,312.3 267.3,351.2 l 2.8,0.8 c 132.5,32 267.9,48 403.3,48 135.9,0 271.8,-16.2 404.8,-48.5 161,-38.9 271.2,-185.1 265.7,-350.7 l -9.6,-295.2 -166.3,-5080.2 c -0.9,-30.7 10.2,-58.9 31.6,-81 21.3,-22.1 50.4,-31.3 81.1,-31.3 h 74.5 c 61.6,0 111.9,46.1 113.3,107.7 15,680.7 94.9,4283.4 122.2,5017.9 0.1,1.3 0.1,2.7 0.2,4 1.2,32.2 15.2,62.5 39.1,84 21.9,19.6 49.7,30.4 78.8,30.4 2.9,0 5.7,-0.1 8.6,-0.3 332,-24 848.6,-136.4 1012.5,-318.5 23.6,-26.3 37.2,-102.1 43,-217.3 39.9,-791.1 -285.5,-3442.4 -237.4,-4720.1 201.2,-558.8 3227.9,-1057 3745.6,-1138.2 3.4,-0.5 6.6,-0.8 9.7,-0.8 14.3,0 26.4,5.5 38.2,15.6 14.5,12.4 11.1,30.4 11.1,49.3 v 2.4 c 0,139.2 124.5,252.1 263.7,252.1 11.5,0 23,-0.8 34.4,-2.2 124,-15.7 232.4,-114.4 243.7,-240 l 57.3,-614.8 c 2.9,-31.2 -8,-62.1 -29.8,-84.6 -16.9,-17.3 -38.8,-28.2 -62.3,-31.5 -4.8,-0.6 -9.7,-1 -14.6,-1 m -4737.5,6640.4 c -43.4,0 -86.4,-12.3 -123.1,-35.9 -56.3,-36.4 -91.4,-95.5 -94.8,-159.8 l -265.3,-4995.1 c -5.2,-97.9 71.1,-182.8 174.4,-193.9 l 3.9,-0.5 c 7.5,-0.8 15,-1.2 22.4,-1.2 45.7,0 90.3,15.1 125.9,43 41.3,32.4 66.8,79.4 70.5,130 l 366.1,4973.6 c 6.8,93.7 -54.3,179.9 -148.7,209.6 l -62.3,19.6 c -22.5,7.1 -45.8,10.6 -69,10.6 m -2844.2,0 c -23.1,0 -46.4,-3.5 -69,-10.6 l -62.3,-19.6 c -94.4,-29.7 -155.5,-115.9 -148.6,-209.6 l 366,-4973.6 c 3.8,-50.6 29.2,-97.6 70.5,-130 35.6,-27.9 80.2,-43 125.9,-43 7.5,0 14.9,0.4 22.4,1.2 l 4,0.5 c 103.2,11.1 179.5,96 174.3,193.9 l -265.2,4995.1 c -3.4,64.3 -38.5,123.4 -94.9,159.8 -36.7,23.6 -79.7,35.9 -123.1,35.9 m 1413.3,854.2 c -110.2,0 -217.7,-51.6 -217.7,-115.2 V 9252.6 c 0,-63.6 107.5,-115.2 217.7,-115.2 110.2,0 217.7,51.6 217.7,115.2 v 5988.8 c 0,63.6 -107.5,115.2 -217.7,115.2"
             style="fill:url(#linearGradient216);fill-opacity:1;fill-rule:nonzero;stroke:none"
             id="path218" /></g></g><g
         id="g220"><g
           id="g222"
           clip-path="url(#clipPath226)"><path
             d="m 22075.3,11156 -100.8,265.7 c 2.4,0.2 4.7,0.5 7,0.7 L 21440,12838 c 243.5,252.5 547.3,489.3 857.2,489.3 43.6,0 87.3,-4.6 131,-14.6 97,-22.2 181.8,-82.2 241.2,-197.1 259.4,-502.7 -252.7,-1078.9 -446.5,-1506.8 -64.8,-142.8 -101.9,-301.6 -147.6,-452.8"
             style="fill:url(#linearGradient232);fill-opacity:1;fill-rule:nonzero;stroke:none"
             id="path234" /></g></g><g
         id="g236"><g
           id="g238"
           clip-path="url(#clipPath242)"><path
             d="m 22607.4,9753.5 -30.5,80.5 c 179.4,14.9 369.1,35 569.3,60.9 1.9,0.3 3.8,0.5 5.7,0.5 20.3,0 37.8,-15.4 40.5,-36 3,-22.6 -12.9,-43.4 -35.6,-46.3 -192.7,-25 -375.7,-44.7 -549.4,-59.6"
             style="fill:url(#linearGradient248);fill-opacity:1;fill-rule:nonzero;stroke:none"
             id="path250" /></g></g><g
         id="g252"><g
           id="g254"
           clip-path="url(#clipPath258)"><path
             d="m 28809,9715.6 c -393.3,0 -851.5,28.3 -1384.6,97.5 -22.6,2.9 -38.5,23.7 -35.6,46.3 2.7,20.6 20,36 40.4,36 1.9,0 3.9,-0.2 5.8,-0.5 523.8,-67.9 974.7,-95.6 1361.5,-95.6 1690.3,0 2159,528.7 2164.5,535.2 8.2,9.7 19.9,14.7 31.7,14.7 9.4,0 18.8,-3.1 26.5,-9.6 17.4,-14.7 19.7,-40.7 5,-58.2 -23.6,-28 -500.4,-565.8 -2215.2,-565.8"
             style="fill:url(#linearGradient264);fill-opacity:1;fill-rule:nonzero;stroke:none"
             id="path266" /></g></g><g
         id="g268"><g
           id="g270"
           clip-path="url(#clipPath274)"><path
             d="m 25281.8,9137.4 c -110.2,0 -217.7,51.6 -217.7,115.2 v 5988.8 c 0,63.6 107.5,115.2 217.7,115.2 110.2,0 217.7,-51.6 217.7,-115.2 V 9252.6 c 0,-63.6 -107.5,-115.2 -217.7,-115.2"
             style="fill:url(#linearGradient280);fill-opacity:1;fill-rule:nonzero;stroke:none"
             id="path282" /></g></g><g
         id="g284"><g
           id="g286"
           clip-path="url(#clipPath290)"><path
             d="m 26430.2,9116 c -7.4,0 -14.9,0.4 -22.4,1.2 l -3.9,0.5 c -103.3,11.1 -179.6,96 -174.4,193.9 l 265.3,4995.1 c 3.4,64.3 38.5,123.4 94.8,159.8 36.7,23.6 79.7,35.9 123.1,35.9 23.2,0 46.5,-3.5 69,-10.6 l 62.3,-19.6 c 94.4,-29.7 155.5,-115.9 148.7,-209.6 L 26626.6,9289 c -3.7,-50.6 -29.2,-97.6 -70.5,-130 -35.6,-27.9 -80.2,-43 -125.9,-43"
             style="fill:url(#linearGradient296);fill-opacity:1;fill-rule:nonzero;stroke:none"
             id="path298" /></g></g><g
         id="g300"><g
           id="g302"
           clip-path="url(#clipPath306)"><path
             d="m 24151,9116 c -45.7,0 -90.3,15.1 -125.9,43 -41.3,32.4 -66.7,79.4 -70.5,130 l -366,4973.6 c -6.9,93.7 54.2,179.9 148.6,209.6 l 62.3,19.6 c 22.6,7.1 45.9,10.6 69,10.6 43.4,0 86.4,-12.3 123.1,-35.9 56.4,-36.4 91.5,-95.5 94.9,-159.8 l 265.2,-4995.1 c 5.2,-97.9 -71.1,-182.8 -174.3,-193.9 l -4,-0.5 c -7.5,-0.8 -14.9,-1.2 -22.4,-1.2"
             style="fill:url(#linearGradient312);fill-opacity:1;fill-rule:nonzero;stroke:none"
             id="path314" /></g></g><g
         id="g316"><g
           id="g318"
           clip-path="url(#clipPath322)"><path
             d="m 25170.5,6442 c -472.5,0 -907.5,18.4 -1307.2,50.8 l -438.5,1128.7 -9.6,0.9 v 0.5 l -150.9,401.5 c 723.1,28.1 1409.3,39.8 2050.8,39.8 2452,0 4249.9,-171 4943.6,-249.2 56.2,-6.3 102.8,-46.7 116.9,-101.5 14.1,-54.9 -7.1,-112.7 -53.3,-145.4 -523.1,-370.2 -1947.2,-1105.1 -5028.9,-1125.7 -41.3,-0.2 -82.2,-0.4 -122.9,-0.4"
             style="fill:url(#linearGradient328);fill-opacity:1;fill-rule:nonzero;stroke:none"
             id="path330" /></g></g><g
         id="g332"><g
           id="g334"
           clip-path="url(#clipPath338)"><path
             d="M 17985,5683.4 H 7351.6 c -377.39,0 -729.03,185.7 -917.73,512.5 -188.69,326.8 -188.69,724.2 0,1051 l 1096.78,1899 11.34,19.7 174.07,301.4 638.1,1104.8 1083.21,1875.5 147.11,254.7 345.38,598 226.14,391.6 783.4,1356.4 1492.3,2583.7 1130.5,1957.5 c 188.6,326.8 540.3,527.7 917.7,527.7 377.4,0 729,-204.1 917.7,-531 l 3530.2,-6114.8 -135,-352.8 -77.9,-203.8 -3715.3,6439.8 c -107.2,185.9 -305.5,299.6 -519.8,299.6 -39,0 -77.5,-4.9 -114.9,-12.4 -168.3,-32.7 -316.9,-139.4 -404.8,-291.3 L 6832.1,6999 c -107.45,-185.6 -107.45,-424.1 0,-609.7 107.16,-185.6 305.1,-318.9 519.43,-318.9 h 9189.07 c 302,-152.5 807.9,-287.2 1444.4,-387"
             style="fill:url(#linearGradient344);fill-opacity:1;fill-rule:nonzero;stroke:none"
             id="path346" /></g></g><g
         id="g348"><g
           id="g350"
           clip-path="url(#clipPath354)"><path
             d="M 16540.6,6070.4 H 7351.53 c -214.33,0 -412.27,133.3 -519.43,318.9 -107.45,185.6 -107.45,424.1 0,609.7 l 7128,12351.2 c 87.9,151.9 236.5,258.6 404.8,291.3 37.4,7.5 75.9,12.4 114.9,12.4 214.3,0 412.6,-113.7 519.8,-299.6 l 3715.3,-6439.8 -556.6,-1455.2 -653.2,-1707.6 v 926.1 l -2376.4,2331.5 -110.7,1435 -473.9,-35.7 114.3,-1611.5 2343.6,-2317 V 9011.6 h 219.3 l -485.2,-1266.2 c 0.3,-0.1 0.6,-0.2 0.9,-0.3 l -490,-1280.9 c -3.2,-6.7 -5.9,-13.2 -7.9,-20.4 l -8.8,-21.1 2.9,-0.1 v 0 c -1.8,0 -2.9,-21.5 -2.9,-31.4 0,-111.4 110.5,-220 310.3,-320.8"
             style="fill:url(#linearGradient360);fill-opacity:1;fill-rule:nonzero;stroke:none"
             id="path362" /></g></g><g
         id="g364"><g
           id="g366"
           clip-path="url(#clipPath370)"><path
             d="m 17529.6,12510.6 c 0,-351.3 -284.8,-636.1 -636,-636.1 -351.3,0 -636,284.8 -636,636.1 0,351.2 284.7,636 636,636 351.2,0 636,-284.8 636,-636"
             style="fill:url(#linearGradient376);fill-opacity:1;fill-rule:nonzero;stroke:none"
             id="path378" /></g></g><g
         id="g380"><g
           id="g382"
           clip-path="url(#clipPath386)"><path
             d="m 16752.2,11417.9 -1945.9,-1746.2 -660.9,903.3 1699.9,1758.9 906.9,-916"
             style="fill:url(#linearGradient392);fill-opacity:1;fill-rule:nonzero;stroke:none"
             id="path394" /></g></g><g
         id="g396"><g
           id="g398"
           clip-path="url(#clipPath402)"><path
             d="M 17221.3,9011.6 H 17002 v 1468.5 l -2343.6,2317 -114.3,1611.5 473.9,35.7 110.7,-1435 2376.4,-2331.5 v -926.1 l -175.9,-459.6 -0.1,-0.3 c -0.1,0 -0.3,0.1 -0.4,0.1 l -107.4,-280.3"
             style="fill:url(#linearGradient408);fill-opacity:1;fill-rule:nonzero;stroke:none"
             id="path410" /></g></g><g
         id="g412"><g
           id="g414"
           clip-path="url(#clipPath418)"><path
             d="m 14385.5,10274 -1083.3,541.7 -1563.7,-402.1 -117.3,456.3 1734.2,445.9 1240.8,-620.4 -210.7,-421.4"
             style="fill:url(#linearGradient424);fill-opacity:1;fill-rule:nonzero;stroke:none"
             id="path426" /></g></g><g
         id="g428"><g
           id="g430"
           clip-path="url(#clipPath434)"><path
             d="m 13302.7,7746.7 -426.8,199.5 527.5,1128.7 1403.9,1222.4 L 15116.7,9942 13788,8785.1 13302.7,7746.7"
             style="fill:url(#linearGradient440);fill-opacity:1;fill-rule:nonzero;stroke:none"
             id="path442" /></g></g><g
         id="g444"><g
           id="g446"
           clip-path="url(#clipPath450)"><path
             d="m 11854.8,7386.2 h -387 v 2205.9 h -1354.5 v 387 h 1741.5 V 7386.2"
             style="fill:url(#linearGradient456);fill-opacity:1;fill-rule:nonzero;stroke:none"
             id="path458" /></g></g><g
         id="g460"><g
           id="g462"
           clip-path="url(#clipPath466)"><path
             d="m 25414.4,6032.7 -567.5,24.1 c -899.2,304.4 -2657.6,511.2 -4679.6,511.2 -2160.1,0 -4019.3,-236 -4851.6,-574.9 l -529.2,-3.5 63.3,-395.7 c 0,-538 2380.7,-974.2 5317.5,-974.2 2828.4,0 5140.7,404.6 5307.4,915.1 4.7,33.7 -47.7,500 -60.3,497.9"
             style="fill:url(#linearGradient472);fill-opacity:1;fill-rule:nonzero;stroke:none"
             id="path474" /></g></g><g
         id="g476"><g
           id="g478"
           clip-path="url(#clipPath482)"><path
             d="m 25421.4,5989.6 c 0,-538 -2380.7,-974.1 -5317.5,-974.1 -2936.7,0 -5317.4,436.1 -5317.4,974.1 0,538 2380.7,974.1 5317.4,974.1 2936.8,0 5317.5,-436.1 5317.5,-974.1"
             style="fill:url(#linearGradient488);fill-opacity:1;fill-rule:nonzero;stroke:none"
             id="path490" /></g></g><g
         id="g492"><g
           id="g494"
           clip-path="url(#clipPath498)"><path
             d="m 20500.4,5504 c -143.5,0 -289.1,1.7 -436.6,5.1 -407.2,9.4 -799,31.4 -1166.5,64.1 -325.2,29 -631.5,66.2 -912.3,110.2 -636.5,99.8 -1142.4,234.5 -1444.4,387 -199.8,100.8 -310.3,209.4 -310.3,320.8 0,9.9 1.1,31.4 2.9,31.4 v 0 l -2.9,0.1 8.8,21.1 c 2,7.2 4.7,13.7 7.9,20.4 l 490,1280.9 c 659.3,-249.8 1897,-433.4 3324.5,-460.5 121.3,-2.3 241.2,-3.5 359.5,-3.5 282.9,0 556.9,6.5 820,18.9 926.2,43.3 1699.8,159.8 2183.8,321.5 l -9.6,0.9 9.6,-0.9 438.5,-1128.7 63,-162.2 c 21.6,-34.4 39.7,-69.6 39.7,-105 0,-3.6 -0.2,-7.2 -0.4,-10.8 -11.1,-172.9 -287.5,-326.6 -748.6,-446.5 -220,-57.2 -482,-106.7 -777.3,-146.9 -339.5,-46.2 -722.9,-80.1 -1136.9,-99.4 -256.9,-11.8 -525.4,-18 -802.4,-18 m -154.3,3508.5 c -93.7,0 -188.3,0.7 -283.5,2.1 -1073.9,16.2 -2040.1,121.3 -2733.5,277.2 l 0.1,0.3 175.9,459.6 653.2,1707.6 556.6,1455.2 77.9,203.8 135,352.8 654.3,1710 c 98.8,258.3 281.8,418.8 479.6,418.8 26.9,0 53.2,-2.7 79.2,-8.6 167,-36.5 316,-186.9 401.7,-410.7 l 773.5,-2018.6 22.5,-58.7 c -258.8,-17.2 -529.8,-28.4 -809.5,-33.7 -115.5,-2.4 -232.8,-3.5 -351.4,-3.5 -37.8,0 -75.8,0.1 -113.9,0.3 -446.2,2.6 -873.9,20.5 -1271,51.8 l -634.5,-1659 c 560.2,-71.6 1210.4,-116 1905.5,-122.8 62.4,-0.6 124.5,-0.9 186.2,-0.9 178.4,0 353.7,2.5 525.2,7.7 428.1,12.1 831.8,39 1199.3,78.5 l 100.8,-265.7 501.6,-1322 30.5,-80.5 193.1,-508.7 12.5,-33.1 v -0.4 l 0.4,-1 c -470.4,-92 -1066.7,-156.8 -1742.7,-183.5 -234,-9.4 -476.4,-14.3 -724.6,-14.3"
             style="fill:url(#linearGradient504);fill-opacity:1;fill-rule:nonzero;stroke:none"
             id="path506" /></g></g><g
         id="g508"><g
           id="g510"
           clip-path="url(#clipPath514)"><path
             d="m 23263,8024.3 -38.3,100.9 1.6,0.1 38,-100.9 c -0.6,-0.1 -0.7,-0.1 -1.3,-0.1"
             style="fill:url(#linearGradient520);fill-opacity:1;fill-rule:nonzero;stroke:none"
             id="path522" /></g></g><g
         id="g524"><g
           id="g526"
           clip-path="url(#clipPath530)"><path
             d="m 23224.7,8125.2 -411.3,1085.1 c 1.6,0.3 3.1,0.6 4.7,0.9 l 408.2,-1085.9 -1.6,-0.1"
             style="fill:url(#linearGradient536);fill-opacity:1;fill-rule:nonzero;stroke:none"
             id="path538" /></g></g><g
         id="g540"><g
           id="g542"
           clip-path="url(#clipPath546)"><path
             d="m 23415.2,7622.9 -152.2,401.4 c 0.6,0 0.7,0 1.3,0.1 l 150.9,-401.5"
             style="fill:url(#linearGradient552);fill-opacity:1;fill-rule:nonzero;stroke:none"
             id="path554" /></g></g><g
         id="g556"><g
           id="g558"
           clip-path="url(#clipPath562)"><path
             d="m 16737,7745.1 c -0.3,0.1 -0.6,0.2 -0.9,0.3 l 485.2,1266.2 h 0.6 l -484.6,-1265.9 -0.3,-0.6"
             style="fill:url(#linearGradient568);fill-opacity:1;fill-rule:nonzero;stroke:none"
             id="path570" /></g></g><g
         id="g572"><g
           id="g574"
           clip-path="url(#clipPath578)"><path
             d="m 17221.9,9011.6 h -0.6 l 107.4,280.3 c 0.1,0 0.3,-0.1 0.4,-0.1 l -107.2,-280.2"
             style="fill:url(#linearGradient584);fill-opacity:1;fill-rule:nonzero;stroke:none"
             id="path586" /></g></g><g
         id="g588"><g
           id="g590"
           clip-path="url(#clipPath594)"><path
             d="m 20421,7281.1 c -118.3,0 -238.2,1.2 -359.5,3.5 -1427.5,27.1 -2665.2,210.7 -3324.5,460.5 l 0.3,0.6 484.6,1265.9 107.2,280.2 c 693.4,-155.9 1659.6,-261 2733.5,-277.2 95.2,-1.4 189.8,-2.1 283.5,-2.1 248.2,0 490.6,4.9 724.6,14.3 676,26.7 1272.3,91.5 1742.7,183.5 l 411.3,-1085.1 38.3,-100.9 152.2,-401.4 v -0.5 l 9.6,-0.9 c -484,-161.7 -1257.6,-278.2 -2183.8,-321.5 -263.1,-12.4 -537.1,-18.9 -820,-18.9"
             style="fill:url(#linearGradient600);fill-opacity:1;fill-rule:nonzero;stroke:none"
             id="path602" /></g></g><g
         id="g604"><g
           id="g606"
           clip-path="url(#clipPath610)"><path
             d="m 21439.2,12837.1 -100.6,266.2 101.4,-265.3 c -0.2,-0.3 -0.5,-0.6 -0.8,-0.9"
             style="fill:url(#linearGradient616);fill-opacity:1;fill-rule:nonzero;stroke:none"
             id="path618" /></g></g><g
         id="g620"><g
           id="g622"
           clip-path="url(#clipPath626)"><path
             d="m 21974.5,11421.7 -0.3,0.8 -535,1414.6 c 0.3,0.3 0.6,0.6 0.8,0.9 l 541.5,-1415.6 c -2.3,-0.2 -4.6,-0.5 -7,-0.7"
             style="fill:url(#linearGradient632);fill-opacity:1;fill-rule:nonzero;stroke:none"
             id="path634" /></g></g><g
         id="g636"><g
           id="g638"
           clip-path="url(#clipPath642)"><path
             d="m 20250,11335.5 c -61.7,0 -123.8,0.3 -186.2,0.9 -695.1,6.8 -1345.3,51.2 -1905.5,122.8 l 634.5,1659 c 397.1,-31.3 824.8,-49.2 1271,-51.8 38.1,-0.2 76.1,-0.3 113.9,-0.3 118.6,0 235.9,1.1 351.4,3.5 279.7,5.3 550.7,16.5 809.5,33.7 v 0 l 100.6,-266.2 535,-1414.6 0.3,-0.8 c -367.5,-39.5 -771.2,-66.4 -1199.3,-78.5 -171.5,-5.2 -346.8,-7.7 -525.2,-7.7"
             style="fill:url(#linearGradient648);fill-opacity:1;fill-rule:nonzero;stroke:none"
             id="path650" /></g></g></g></g></svg>
